<?xml version="1.0" encoding="utf-8" standalone="no"?>
<!DOCTYPE svg PUBLIC "-//W3C//DTD SVG 1.1//EN"
  "http://www.w3.org/Graphics/SVG/1.1/DTD/svg11.dtd">
<svg xmlns:xlink="http://www.w3.org/1999/xlink" width="720pt" height="216pt" viewBox="0 0 720 216" xmlns="http://www.w3.org/2000/svg" version="1.1">
 <metadata>
  <rdf:RDF xmlns:dc="http://purl.org/dc/elements/1.1/" xmlns:cc="http://creativecommons.org/ns#" xmlns:rdf="http://www.w3.org/1999/02/22-rdf-syntax-ns#">
   <cc:Work>
    <dc:type rdf:resource="http://purl.org/dc/dcmitype/StillImage"/>
    <dc:date>2026-05-17T09:22:42.932331</dc:date>
    <dc:format>image/svg+xml</dc:format>
    <dc:creator>
     <cc:Agent>
      <dc:title>Matplotlib v3.10.9, https://matplotlib.org/</dc:title>
     </cc:Agent>
    </dc:creator>
   </cc:Work>
  </rdf:RDF>
 </metadata>
 <defs>
  <style type="text/css">*{stroke-linejoin: round; stroke-linecap: butt}</style>
 </defs>
 <g id="figure_1">
  <g id="patch_1">
   <path d="M 0 216 
L 720 216 
L 720 0 
L 0 0 
z
" style="fill: #ffffff"/>
  </g>
  <g id="axes_1">
   <g id="patch_2">
    <path d="M 50.87 173.93875 
L 145.89095 173.93875 
L 145.89095 26.88 
L 50.87 26.88 
z
" style="fill: #ffffff"/>
   </g>
   <g id="matplotlib.axis_1">
    <g id="xtick_1">
     <g id="line2d_1">
      <defs>
       <path id="mee7b69422e" d="M 0 0 
L 0 3.5 
" style="stroke: #000000; stroke-width: 0.8"/>
      </defs>
      <g>
       <use xlink:href="#mee7b69422e" x="98.380475" y="173.93875" style="stroke: #000000; stroke-width: 0.8"/>
      </g>
     </g>
     <g id="text_1">
      <!-- STM -->
      <g transform="translate(87.838288 188.537188) scale(0.1 -0.1)">
       <defs>
        <path id="DejaVuSans-53" d="M 3425 4513 
L 3425 3897 
Q 3066 4069 2747 4153 
Q 2428 4238 2131 4238 
Q 1616 4238 1336 4038 
Q 1056 3838 1056 3469 
Q 1056 3159 1242 3001 
Q 1428 2844 1947 2747 
L 2328 2669 
Q 3034 2534 3370 2195 
Q 3706 1856 3706 1288 
Q 3706 609 3251 259 
Q 2797 -91 1919 -91 
Q 1588 -91 1214 -16 
Q 841 59 441 206 
L 441 856 
Q 825 641 1194 531 
Q 1563 422 1919 422 
Q 2459 422 2753 634 
Q 3047 847 3047 1241 
Q 3047 1584 2836 1778 
Q 2625 1972 2144 2069 
L 1759 2144 
Q 1053 2284 737 2584 
Q 422 2884 422 3419 
Q 422 4038 858 4394 
Q 1294 4750 2059 4750 
Q 2388 4750 2728 4690 
Q 3069 4631 3425 4513 
z
" transform="scale(0.015625)"/>
        <path id="DejaVuSans-54" d="M -19 4666 
L 3928 4666 
L 3928 4134 
L 2272 4134 
L 2272 0 
L 1638 0 
L 1638 4134 
L -19 4134 
L -19 4666 
z
" transform="scale(0.015625)"/>
        <path id="DejaVuSans-4d" d="M 628 4666 
L 1569 4666 
L 2759 1491 
L 3956 4666 
L 4897 4666 
L 4897 0 
L 4281 0 
L 4281 4097 
L 3078 897 
L 2444 897 
L 1241 4097 
L 1241 0 
L 628 0 
L 628 4666 
z
" transform="scale(0.015625)"/>
       </defs>
       <use xlink:href="#DejaVuSans-53"/>
       <use xlink:href="#DejaVuSans-54" transform="translate(63.476562 0)"/>
       <use xlink:href="#DejaVuSans-4d" transform="translate(124.560547 0)"/>
      </g>
     </g>
    </g>
    <g id="text_2">
     <!-- dataset -->
     <g transform="translate(79.476569 202.215313) scale(0.1 -0.1)">
      <defs>
       <path id="DejaVuSans-64" d="M 2906 2969 
L 2906 4863 
L 3481 4863 
L 3481 0 
L 2906 0 
L 2906 525 
Q 2725 213 2448 61 
Q 2172 -91 1784 -91 
Q 1150 -91 751 415 
Q 353 922 353 1747 
Q 353 2572 751 3078 
Q 1150 3584 1784 3584 
Q 2172 3584 2448 3432 
Q 2725 3281 2906 2969 
z
M 947 1747 
Q 947 1113 1208 752 
Q 1469 391 1925 391 
Q 2381 391 2643 752 
Q 2906 1113 2906 1747 
Q 2906 2381 2643 2742 
Q 2381 3103 1925 3103 
Q 1469 3103 1208 2742 
Q 947 2381 947 1747 
z
" transform="scale(0.015625)"/>
       <path id="DejaVuSans-61" d="M 2194 1759 
Q 1497 1759 1228 1600 
Q 959 1441 959 1056 
Q 959 750 1161 570 
Q 1363 391 1709 391 
Q 2188 391 2477 730 
Q 2766 1069 2766 1631 
L 2766 1759 
L 2194 1759 
z
M 3341 1997 
L 3341 0 
L 2766 0 
L 2766 531 
Q 2569 213 2275 61 
Q 1981 -91 1556 -91 
Q 1019 -91 701 211 
Q 384 513 384 1019 
Q 384 1609 779 1909 
Q 1175 2209 1959 2209 
L 2766 2209 
L 2766 2266 
Q 2766 2663 2505 2880 
Q 2244 3097 1772 3097 
Q 1472 3097 1187 3025 
Q 903 2953 641 2809 
L 641 3341 
Q 956 3463 1253 3523 
Q 1550 3584 1831 3584 
Q 2591 3584 2966 3190 
Q 3341 2797 3341 1997 
z
" transform="scale(0.015625)"/>
       <path id="DejaVuSans-74" d="M 1172 4494 
L 1172 3500 
L 2356 3500 
L 2356 3053 
L 1172 3053 
L 1172 1153 
Q 1172 725 1289 603 
Q 1406 481 1766 481 
L 2356 481 
L 2356 0 
L 1766 0 
Q 1100 0 847 248 
Q 594 497 594 1153 
L 594 3053 
L 172 3053 
L 172 3500 
L 594 3500 
L 594 4494 
L 1172 4494 
z
" transform="scale(0.015625)"/>
       <path id="DejaVuSans-73" d="M 2834 3397 
L 2834 2853 
Q 2591 2978 2328 3040 
Q 2066 3103 1784 3103 
Q 1356 3103 1142 2972 
Q 928 2841 928 2578 
Q 928 2378 1081 2264 
Q 1234 2150 1697 2047 
L 1894 2003 
Q 2506 1872 2764 1633 
Q 3022 1394 3022 966 
Q 3022 478 2636 193 
Q 2250 -91 1575 -91 
Q 1294 -91 989 -36 
Q 684 19 347 128 
L 347 722 
Q 666 556 975 473 
Q 1284 391 1588 391 
Q 1994 391 2212 530 
Q 2431 669 2431 922 
Q 2431 1156 2273 1281 
Q 2116 1406 1581 1522 
L 1381 1569 
Q 847 1681 609 1914 
Q 372 2147 372 2553 
Q 372 3047 722 3315 
Q 1072 3584 1716 3584 
Q 2034 3584 2315 3537 
Q 2597 3491 2834 3397 
z
" transform="scale(0.015625)"/>
       <path id="DejaVuSans-65" d="M 3597 1894 
L 3597 1613 
L 953 1613 
Q 991 1019 1311 708 
Q 1631 397 2203 397 
Q 2534 397 2845 478 
Q 3156 559 3463 722 
L 3463 178 
Q 3153 47 2828 -22 
Q 2503 -91 2169 -91 
Q 1331 -91 842 396 
Q 353 884 353 1716 
Q 353 2575 817 3079 
Q 1281 3584 2069 3584 
Q 2775 3584 3186 3129 
Q 3597 2675 3597 1894 
z
M 3022 2063 
Q 3016 2534 2758 2815 
Q 2500 3097 2075 3097 
Q 1594 3097 1305 2825 
Q 1016 2553 972 2059 
L 3022 2063 
z
" transform="scale(0.015625)"/>
      </defs>
      <use xlink:href="#DejaVuSans-64"/>
      <use xlink:href="#DejaVuSans-61" transform="translate(63.476562 0)"/>
      <use xlink:href="#DejaVuSans-74" transform="translate(124.755859 0)"/>
      <use xlink:href="#DejaVuSans-61" transform="translate(163.964844 0)"/>
      <use xlink:href="#DejaVuSans-73" transform="translate(225.244141 0)"/>
      <use xlink:href="#DejaVuSans-65" transform="translate(277.34375 0)"/>
      <use xlink:href="#DejaVuSans-74" transform="translate(338.867188 0)"/>
     </g>
    </g>
   </g>
   <g id="matplotlib.axis_2">
    <g id="ytick_1">
     <g id="line2d_2">
      <defs>
       <path id="m8cd0d1ade6" d="M 0 0 
L -3.5 0 
" style="stroke: #000000; stroke-width: 0.8"/>
      </defs>
      <g>
       <use xlink:href="#m8cd0d1ade6" x="50.87" y="167.965377" style="stroke: #000000; stroke-width: 0.8"/>
      </g>
     </g>
     <g id="text_3">
      <!-- 0 -->
      <g transform="translate(37.5075 171.764596) scale(0.1 -0.1)">
       <defs>
        <path id="DejaVuSans-30" d="M 2034 4250 
Q 1547 4250 1301 3770 
Q 1056 3291 1056 2328 
Q 1056 1369 1301 889 
Q 1547 409 2034 409 
Q 2525 409 2770 889 
Q 3016 1369 3016 2328 
Q 3016 3291 2770 3770 
Q 2525 4250 2034 4250 
z
M 2034 4750 
Q 2819 4750 3233 4129 
Q 3647 3509 3647 2328 
Q 3647 1150 3233 529 
Q 2819 -91 2034 -91 
Q 1250 -91 836 529 
Q 422 1150 422 2328 
Q 422 3509 836 4129 
Q 1250 4750 2034 4750 
z
" transform="scale(0.015625)"/>
       </defs>
       <use xlink:href="#DejaVuSans-30"/>
      </g>
     </g>
    </g>
    <g id="ytick_2">
     <g id="line2d_3">
      <g>
       <use xlink:href="#m8cd0d1ade6" x="50.87" y="132.409587" style="stroke: #000000; stroke-width: 0.8"/>
      </g>
     </g>
     <g id="text_4">
      <!-- 50 -->
      <g transform="translate(31.145 136.208805) scale(0.1 -0.1)">
       <defs>
        <path id="DejaVuSans-35" d="M 691 4666 
L 3169 4666 
L 3169 4134 
L 1269 4134 
L 1269 2991 
Q 1406 3038 1543 3061 
Q 1681 3084 1819 3084 
Q 2600 3084 3056 2656 
Q 3513 2228 3513 1497 
Q 3513 744 3044 326 
Q 2575 -91 1722 -91 
Q 1428 -91 1123 -41 
Q 819 9 494 109 
L 494 744 
Q 775 591 1075 516 
Q 1375 441 1709 441 
Q 2250 441 2565 725 
Q 2881 1009 2881 1497 
Q 2881 1984 2565 2268 
Q 2250 2553 1709 2553 
Q 1456 2553 1204 2497 
Q 953 2441 691 2322 
L 691 4666 
z
" transform="scale(0.015625)"/>
       </defs>
       <use xlink:href="#DejaVuSans-35"/>
       <use xlink:href="#DejaVuSans-30" transform="translate(63.623047 0)"/>
      </g>
     </g>
    </g>
    <g id="ytick_3">
     <g id="line2d_4">
      <g>
       <use xlink:href="#m8cd0d1ade6" x="50.87" y="96.853796" style="stroke: #000000; stroke-width: 0.8"/>
      </g>
     </g>
     <g id="text_5">
      <!-- 100 -->
      <g transform="translate(24.7825 100.653015) scale(0.1 -0.1)">
       <defs>
        <path id="DejaVuSans-31" d="M 794 531 
L 1825 531 
L 1825 4091 
L 703 3866 
L 703 4441 
L 1819 4666 
L 2450 4666 
L 2450 531 
L 3481 531 
L 3481 0 
L 794 0 
L 794 531 
z
" transform="scale(0.015625)"/>
       </defs>
       <use xlink:href="#DejaVuSans-31"/>
       <use xlink:href="#DejaVuSans-30" transform="translate(63.623047 0)"/>
       <use xlink:href="#DejaVuSans-30" transform="translate(127.246094 0)"/>
      </g>
     </g>
    </g>
    <g id="ytick_4">
     <g id="line2d_5">
      <g>
       <use xlink:href="#m8cd0d1ade6" x="50.87" y="61.298005" style="stroke: #000000; stroke-width: 0.8"/>
      </g>
     </g>
     <g id="text_6">
      <!-- 150 -->
      <g transform="translate(24.7825 65.097224) scale(0.1 -0.1)">
       <use xlink:href="#DejaVuSans-31"/>
       <use xlink:href="#DejaVuSans-35" transform="translate(63.623047 0)"/>
       <use xlink:href="#DejaVuSans-30" transform="translate(127.246094 0)"/>
      </g>
     </g>
    </g>
    <g id="text_7">
     <!-- Count -->
     <g transform="translate(18.702813 115.257812) rotate(-90) scale(0.1 -0.1)">
      <defs>
       <path id="DejaVuSans-43" d="M 4122 4306 
L 4122 3641 
Q 3803 3938 3442 4084 
Q 3081 4231 2675 4231 
Q 1875 4231 1450 3742 
Q 1025 3253 1025 2328 
Q 1025 1406 1450 917 
Q 1875 428 2675 428 
Q 3081 428 3442 575 
Q 3803 722 4122 1019 
L 4122 359 
Q 3791 134 3420 21 
Q 3050 -91 2638 -91 
Q 1578 -91 968 557 
Q 359 1206 359 2328 
Q 359 3453 968 4101 
Q 1578 4750 2638 4750 
Q 3056 4750 3426 4639 
Q 3797 4528 4122 4306 
z
" transform="scale(0.015625)"/>
       <path id="DejaVuSans-6f" d="M 1959 3097 
Q 1497 3097 1228 2736 
Q 959 2375 959 1747 
Q 959 1119 1226 758 
Q 1494 397 1959 397 
Q 2419 397 2687 759 
Q 2956 1122 2956 1747 
Q 2956 2369 2687 2733 
Q 2419 3097 1959 3097 
z
M 1959 3584 
Q 2709 3584 3137 3096 
Q 3566 2609 3566 1747 
Q 3566 888 3137 398 
Q 2709 -91 1959 -91 
Q 1206 -91 779 398 
Q 353 888 353 1747 
Q 353 2609 779 3096 
Q 1206 3584 1959 3584 
z
" transform="scale(0.015625)"/>
       <path id="DejaVuSans-75" d="M 544 1381 
L 544 3500 
L 1119 3500 
L 1119 1403 
Q 1119 906 1312 657 
Q 1506 409 1894 409 
Q 2359 409 2629 706 
Q 2900 1003 2900 1516 
L 2900 3500 
L 3475 3500 
L 3475 0 
L 2900 0 
L 2900 538 
Q 2691 219 2414 64 
Q 2138 -91 1772 -91 
Q 1169 -91 856 284 
Q 544 659 544 1381 
z
M 1991 3584 
L 1991 3584 
z
" transform="scale(0.015625)"/>
       <path id="DejaVuSans-6e" d="M 3513 2113 
L 3513 0 
L 2938 0 
L 2938 2094 
Q 2938 2591 2744 2837 
Q 2550 3084 2163 3084 
Q 1697 3084 1428 2787 
Q 1159 2491 1159 1978 
L 1159 0 
L 581 0 
L 581 3500 
L 1159 3500 
L 1159 2956 
Q 1366 3272 1645 3428 
Q 1925 3584 2291 3584 
Q 2894 3584 3203 3211 
Q 3513 2838 3513 2113 
z
" transform="scale(0.015625)"/>
      </defs>
      <use xlink:href="#DejaVuSans-43"/>
      <use xlink:href="#DejaVuSans-6f" transform="translate(69.824219 0)"/>
      <use xlink:href="#DejaVuSans-75" transform="translate(131.005859 0)"/>
      <use xlink:href="#DejaVuSans-6e" transform="translate(194.384766 0)"/>
      <use xlink:href="#DejaVuSans-74" transform="translate(257.763672 0)"/>
     </g>
    </g>
   </g>
   <g id="patch_3">
    <path d="M 60.372095 160.143103 
L 136.388855 160.143103 
L 136.388855 138.098513 
L 60.372095 138.098513 
L 60.372095 160.143103 
z
" clip-path="url(#p6eb9e038b0)" style="fill: #3274a1; stroke: #3f3f3f; stroke-linejoin: miter"/>
   </g>
   <g id="line2d_6">
    <path d="M 98.380475 160.143103 
L 98.380475 167.254261 
" clip-path="url(#p6eb9e038b0)" style="fill: none; stroke: #3f3f3f"/>
   </g>
   <g id="line2d_7">
    <path d="M 98.380475 138.098513 
L 98.380475 106.098301 
" clip-path="url(#p6eb9e038b0)" style="fill: none; stroke: #3f3f3f"/>
   </g>
   <g id="line2d_8">
    <path d="M 79.376285 167.254261 
L 117.384665 167.254261 
" clip-path="url(#p6eb9e038b0)" style="fill: none; stroke: #3f3f3f; stroke-linecap: square"/>
   </g>
   <g id="line2d_9">
    <path d="M 79.376285 106.098301 
L 117.384665 106.098301 
" clip-path="url(#p6eb9e038b0)" style="fill: none; stroke: #3f3f3f; stroke-linecap: square"/>
   </g>
   <g id="line2d_10">
    <defs>
     <path id="md01f2e6e6a" d="M 0 3 
C 0.795609 3 1.55874 2.683901 2.12132 2.12132 
C 2.683901 1.55874 3 0.795609 3 0 
C 3 -0.795609 2.683901 -1.55874 2.12132 -2.12132 
C 1.55874 -2.683901 0.795609 -3 0 -3 
C -0.795609 -3 -1.55874 -2.683901 -2.12132 -2.12132 
C -2.683901 -1.55874 -3 -0.795609 -3 0 
C -3 0.795609 -2.683901 1.55874 -2.12132 2.12132 
C -1.55874 2.683901 -0.795609 3 0 3 
z
" style="stroke: #3f3f3f"/>
    </defs>
    <g clip-path="url(#p6eb9e038b0)">
     <use xlink:href="#md01f2e6e6a" x="98.380475" y="91.875985" style="fill-opacity: 0; stroke: #3f3f3f"/>
     <use xlink:href="#md01f2e6e6a" x="98.380475" y="103.964954" style="fill-opacity: 0; stroke: #3f3f3f"/>
     <use xlink:href="#md01f2e6e6a" x="98.380475" y="102.542722" style="fill-opacity: 0; stroke: #3f3f3f"/>
     <use xlink:href="#md01f2e6e6a" x="98.380475" y="100.409375" style="fill-opacity: 0; stroke: #3f3f3f"/>
     <use xlink:href="#md01f2e6e6a" x="98.380475" y="101.831607" style="fill-opacity: 0; stroke: #3f3f3f"/>
     <use xlink:href="#md01f2e6e6a" x="98.380475" y="102.542722" style="fill-opacity: 0; stroke: #3f3f3f"/>
     <use xlink:href="#md01f2e6e6a" x="98.380475" y="33.564489" style="fill-opacity: 0; stroke: #3f3f3f"/>
     <use xlink:href="#md01f2e6e6a" x="98.380475" y="54.186847" style="fill-opacity: 0; stroke: #3f3f3f"/>
    </g>
   </g>
   <g id="line2d_11">
    <path d="M 60.372095 150.898598 
L 136.388855 150.898598 
" clip-path="url(#p6eb9e038b0)" style="fill: none; stroke: #3f3f3f"/>
   </g>
   <g id="patch_4">
    <path d="M 50.87 173.93875 
L 50.87 26.88 
" style="fill: none; stroke: #000000; stroke-width: 0.8; stroke-linejoin: miter; stroke-linecap: square"/>
   </g>
   <g id="patch_5">
    <path d="M 145.89095 173.93875 
L 145.89095 26.88 
" style="fill: none; stroke: #000000; stroke-width: 0.8; stroke-linejoin: miter; stroke-linecap: square"/>
   </g>
   <g id="patch_6">
    <path d="M 50.87 173.93875 
L 145.89095 173.93875 
" style="fill: none; stroke: #000000; stroke-width: 0.8; stroke-linejoin: miter; stroke-linecap: square"/>
   </g>
   <g id="patch_7">
    <path d="M 50.87 26.88 
L 145.89095 26.88 
" style="fill: none; stroke: #000000; stroke-width: 0.8; stroke-linejoin: miter; stroke-linecap: square"/>
   </g>
   <g id="text_8">
    <!-- Root node count -->
    <g transform="translate(49.070788 20.88) scale(0.12 -0.12)">
     <defs>
      <path id="DejaVuSans-52" d="M 2841 2188 
Q 3044 2119 3236 1894 
Q 3428 1669 3622 1275 
L 4263 0 
L 3584 0 
L 2988 1197 
Q 2756 1666 2539 1819 
Q 2322 1972 1947 1972 
L 1259 1972 
L 1259 0 
L 628 0 
L 628 4666 
L 2053 4666 
Q 2853 4666 3247 4331 
Q 3641 3997 3641 3322 
Q 3641 2881 3436 2590 
Q 3231 2300 2841 2188 
z
M 1259 4147 
L 1259 2491 
L 2053 2491 
Q 2509 2491 2742 2702 
Q 2975 2913 2975 3322 
Q 2975 3731 2742 3939 
Q 2509 4147 2053 4147 
L 1259 4147 
z
" transform="scale(0.015625)"/>
      <path id="DejaVuSans-20" transform="scale(0.015625)"/>
      <path id="DejaVuSans-63" d="M 3122 3366 
L 3122 2828 
Q 2878 2963 2633 3030 
Q 2388 3097 2138 3097 
Q 1578 3097 1268 2742 
Q 959 2388 959 1747 
Q 959 1106 1268 751 
Q 1578 397 2138 397 
Q 2388 397 2633 464 
Q 2878 531 3122 666 
L 3122 134 
Q 2881 22 2623 -34 
Q 2366 -91 2075 -91 
Q 1284 -91 818 406 
Q 353 903 353 1747 
Q 353 2603 823 3093 
Q 1294 3584 2113 3584 
Q 2378 3584 2631 3529 
Q 2884 3475 3122 3366 
z
" transform="scale(0.015625)"/>
     </defs>
     <use xlink:href="#DejaVuSans-52"/>
     <use xlink:href="#DejaVuSans-6f" transform="translate(64.982422 0)"/>
     <use xlink:href="#DejaVuSans-6f" transform="translate(126.164062 0)"/>
     <use xlink:href="#DejaVuSans-74" transform="translate(187.345703 0)"/>
     <use xlink:href="#DejaVuSans-20" transform="translate(226.554688 0)"/>
     <use xlink:href="#DejaVuSans-6e" transform="translate(258.341797 0)"/>
     <use xlink:href="#DejaVuSans-6f" transform="translate(321.720703 0)"/>
     <use xlink:href="#DejaVuSans-64" transform="translate(382.902344 0)"/>
     <use xlink:href="#DejaVuSans-65" transform="translate(446.378906 0)"/>
     <use xlink:href="#DejaVuSans-20" transform="translate(507.902344 0)"/>
     <use xlink:href="#DejaVuSans-63" transform="translate(539.689453 0)"/>
     <use xlink:href="#DejaVuSans-6f" transform="translate(594.669922 0)"/>
     <use xlink:href="#DejaVuSans-75" transform="translate(655.851562 0)"/>
     <use xlink:href="#DejaVuSans-6e" transform="translate(719.230469 0)"/>
     <use xlink:href="#DejaVuSans-74" transform="translate(782.609375 0)"/>
    </g>
   </g>
  </g>
  <g id="axes_2">
   <g id="patch_8">
    <path d="M 206.21095 173.93875 
L 301.231901 173.93875 
L 301.231901 26.88 
L 206.21095 26.88 
z
" style="fill: #ffffff"/>
   </g>
   <g id="matplotlib.axis_3">
    <g id="xtick_2">
     <g id="line2d_12">
      <g>
       <use xlink:href="#mee7b69422e" x="253.721426" y="173.93875" style="stroke: #000000; stroke-width: 0.8"/>
      </g>
     </g>
     <g id="text_9">
      <!-- STM -->
      <g transform="translate(243.179238 188.537188) scale(0.1 -0.1)">
       <use xlink:href="#DejaVuSans-53"/>
       <use xlink:href="#DejaVuSans-54" transform="translate(63.476562 0)"/>
       <use xlink:href="#DejaVuSans-4d" transform="translate(124.560547 0)"/>
      </g>
     </g>
    </g>
    <g id="text_10">
     <!-- dataset -->
     <g transform="translate(234.817519 202.215313) scale(0.1 -0.1)">
      <use xlink:href="#DejaVuSans-64"/>
      <use xlink:href="#DejaVuSans-61" transform="translate(63.476562 0)"/>
      <use xlink:href="#DejaVuSans-74" transform="translate(124.755859 0)"/>
      <use xlink:href="#DejaVuSans-61" transform="translate(163.964844 0)"/>
      <use xlink:href="#DejaVuSans-73" transform="translate(225.244141 0)"/>
      <use xlink:href="#DejaVuSans-65" transform="translate(277.34375 0)"/>
      <use xlink:href="#DejaVuSans-74" transform="translate(338.867188 0)"/>
     </g>
    </g>
   </g>
   <g id="matplotlib.axis_4">
    <g id="ytick_5">
     <g id="line2d_13">
      <g>
       <use xlink:href="#m8cd0d1ade6" x="206.21095" y="163.664595" style="stroke: #000000; stroke-width: 0.8"/>
      </g>
     </g>
     <g id="text_11">
      <!-- 8.75 -->
      <g transform="translate(176.945325 167.463814) scale(0.1 -0.1)">
       <defs>
        <path id="DejaVuSans-38" d="M 2034 2216 
Q 1584 2216 1326 1975 
Q 1069 1734 1069 1313 
Q 1069 891 1326 650 
Q 1584 409 2034 409 
Q 2484 409 2743 651 
Q 3003 894 3003 1313 
Q 3003 1734 2745 1975 
Q 2488 2216 2034 2216 
z
M 1403 2484 
Q 997 2584 770 2862 
Q 544 3141 544 3541 
Q 544 4100 942 4425 
Q 1341 4750 2034 4750 
Q 2731 4750 3128 4425 
Q 3525 4100 3525 3541 
Q 3525 3141 3298 2862 
Q 3072 2584 2669 2484 
Q 3125 2378 3379 2068 
Q 3634 1759 3634 1313 
Q 3634 634 3220 271 
Q 2806 -91 2034 -91 
Q 1263 -91 848 271 
Q 434 634 434 1313 
Q 434 1759 690 2068 
Q 947 2378 1403 2484 
z
M 1172 3481 
Q 1172 3119 1398 2916 
Q 1625 2713 2034 2713 
Q 2441 2713 2670 2916 
Q 2900 3119 2900 3481 
Q 2900 3844 2670 4047 
Q 2441 4250 2034 4250 
Q 1625 4250 1398 4047 
Q 1172 3844 1172 3481 
z
" transform="scale(0.015625)"/>
        <path id="DejaVuSans-2e" d="M 684 794 
L 1344 794 
L 1344 0 
L 684 0 
L 684 794 
z
" transform="scale(0.015625)"/>
        <path id="DejaVuSans-37" d="M 525 4666 
L 3525 4666 
L 3525 4397 
L 1831 0 
L 1172 0 
L 2766 4134 
L 525 4134 
L 525 4666 
z
" transform="scale(0.015625)"/>
       </defs>
       <use xlink:href="#DejaVuSans-38"/>
       <use xlink:href="#DejaVuSans-2e" transform="translate(63.623047 0)"/>
       <use xlink:href="#DejaVuSans-37" transform="translate(95.410156 0)"/>
       <use xlink:href="#DejaVuSans-35" transform="translate(159.033203 0)"/>
      </g>
     </g>
    </g>
    <g id="ytick_6">
     <g id="line2d_14">
      <g>
       <use xlink:href="#m8cd0d1ade6" x="206.21095" y="142.413908" style="stroke: #000000; stroke-width: 0.8"/>
      </g>
     </g>
     <g id="text_12">
      <!-- 9.00 -->
      <g transform="translate(176.945325 146.213127) scale(0.1 -0.1)">
       <defs>
        <path id="DejaVuSans-39" d="M 703 97 
L 703 672 
Q 941 559 1184 500 
Q 1428 441 1663 441 
Q 2288 441 2617 861 
Q 2947 1281 2994 2138 
Q 2813 1869 2534 1725 
Q 2256 1581 1919 1581 
Q 1219 1581 811 2004 
Q 403 2428 403 3163 
Q 403 3881 828 4315 
Q 1253 4750 1959 4750 
Q 2769 4750 3195 4129 
Q 3622 3509 3622 2328 
Q 3622 1225 3098 567 
Q 2575 -91 1691 -91 
Q 1453 -91 1209 -44 
Q 966 3 703 97 
z
M 1959 2075 
Q 2384 2075 2632 2365 
Q 2881 2656 2881 3163 
Q 2881 3666 2632 3958 
Q 2384 4250 1959 4250 
Q 1534 4250 1286 3958 
Q 1038 3666 1038 3163 
Q 1038 2656 1286 2365 
Q 1534 2075 1959 2075 
z
" transform="scale(0.015625)"/>
       </defs>
       <use xlink:href="#DejaVuSans-39"/>
       <use xlink:href="#DejaVuSans-2e" transform="translate(63.623047 0)"/>
       <use xlink:href="#DejaVuSans-30" transform="translate(95.410156 0)"/>
       <use xlink:href="#DejaVuSans-30" transform="translate(159.033203 0)"/>
      </g>
     </g>
    </g>
    <g id="ytick_7">
     <g id="line2d_15">
      <g>
       <use xlink:href="#m8cd0d1ade6" x="206.21095" y="121.163221" style="stroke: #000000; stroke-width: 0.8"/>
      </g>
     </g>
     <g id="text_13">
      <!-- 9.25 -->
      <g transform="translate(176.945325 124.96244) scale(0.1 -0.1)">
       <defs>
        <path id="DejaVuSans-32" d="M 1228 531 
L 3431 531 
L 3431 0 
L 469 0 
L 469 531 
Q 828 903 1448 1529 
Q 2069 2156 2228 2338 
Q 2531 2678 2651 2914 
Q 2772 3150 2772 3378 
Q 2772 3750 2511 3984 
Q 2250 4219 1831 4219 
Q 1534 4219 1204 4116 
Q 875 4013 500 3803 
L 500 4441 
Q 881 4594 1212 4672 
Q 1544 4750 1819 4750 
Q 2544 4750 2975 4387 
Q 3406 4025 3406 3419 
Q 3406 3131 3298 2873 
Q 3191 2616 2906 2266 
Q 2828 2175 2409 1742 
Q 1991 1309 1228 531 
z
" transform="scale(0.015625)"/>
       </defs>
       <use xlink:href="#DejaVuSans-39"/>
       <use xlink:href="#DejaVuSans-2e" transform="translate(63.623047 0)"/>
       <use xlink:href="#DejaVuSans-32" transform="translate(95.410156 0)"/>
       <use xlink:href="#DejaVuSans-35" transform="translate(159.033203 0)"/>
      </g>
     </g>
    </g>
    <g id="ytick_8">
     <g id="line2d_16">
      <g>
       <use xlink:href="#m8cd0d1ade6" x="206.21095" y="99.912534" style="stroke: #000000; stroke-width: 0.8"/>
      </g>
     </g>
     <g id="text_14">
      <!-- 9.50 -->
      <g transform="translate(176.945325 103.711753) scale(0.1 -0.1)">
       <use xlink:href="#DejaVuSans-39"/>
       <use xlink:href="#DejaVuSans-2e" transform="translate(63.623047 0)"/>
       <use xlink:href="#DejaVuSans-35" transform="translate(95.410156 0)"/>
       <use xlink:href="#DejaVuSans-30" transform="translate(159.033203 0)"/>
      </g>
     </g>
    </g>
    <g id="ytick_9">
     <g id="line2d_17">
      <g>
       <use xlink:href="#m8cd0d1ade6" x="206.21095" y="78.661847" style="stroke: #000000; stroke-width: 0.8"/>
      </g>
     </g>
     <g id="text_15">
      <!-- 9.75 -->
      <g transform="translate(176.945325 82.461066) scale(0.1 -0.1)">
       <use xlink:href="#DejaVuSans-39"/>
       <use xlink:href="#DejaVuSans-2e" transform="translate(63.623047 0)"/>
       <use xlink:href="#DejaVuSans-37" transform="translate(95.410156 0)"/>
       <use xlink:href="#DejaVuSans-35" transform="translate(159.033203 0)"/>
      </g>
     </g>
    </g>
    <g id="ytick_10">
     <g id="line2d_18">
      <g>
       <use xlink:href="#m8cd0d1ade6" x="206.21095" y="57.41116" style="stroke: #000000; stroke-width: 0.8"/>
      </g>
     </g>
     <g id="text_16">
      <!-- 10.00 -->
      <g transform="translate(170.582825 61.210378) scale(0.1 -0.1)">
       <use xlink:href="#DejaVuSans-31"/>
       <use xlink:href="#DejaVuSans-30" transform="translate(63.623047 0)"/>
       <use xlink:href="#DejaVuSans-2e" transform="translate(127.246094 0)"/>
       <use xlink:href="#DejaVuSans-30" transform="translate(159.033203 0)"/>
       <use xlink:href="#DejaVuSans-30" transform="translate(222.65625 0)"/>
      </g>
     </g>
    </g>
    <g id="ytick_11">
     <g id="line2d_19">
      <g>
       <use xlink:href="#m8cd0d1ade6" x="206.21095" y="36.160473" style="stroke: #000000; stroke-width: 0.8"/>
      </g>
     </g>
     <g id="text_17">
      <!-- 10.25 -->
      <g transform="translate(170.582825 39.959691) scale(0.1 -0.1)">
       <use xlink:href="#DejaVuSans-31"/>
       <use xlink:href="#DejaVuSans-30" transform="translate(63.623047 0)"/>
       <use xlink:href="#DejaVuSans-2e" transform="translate(127.246094 0)"/>
       <use xlink:href="#DejaVuSans-32" transform="translate(159.033203 0)"/>
       <use xlink:href="#DejaVuSans-35" transform="translate(222.65625 0)"/>
      </g>
     </g>
    </g>
    <g id="text_18">
     <!-- Time(Seconds) -->
     <g transform="translate(164.503138 137.551562) rotate(-90) scale(0.1 -0.1)">
      <defs>
       <path id="DejaVuSans-69" d="M 603 3500 
L 1178 3500 
L 1178 0 
L 603 0 
L 603 3500 
z
M 603 4863 
L 1178 4863 
L 1178 4134 
L 603 4134 
L 603 4863 
z
" transform="scale(0.015625)"/>
       <path id="DejaVuSans-6d" d="M 3328 2828 
Q 3544 3216 3844 3400 
Q 4144 3584 4550 3584 
Q 5097 3584 5394 3201 
Q 5691 2819 5691 2113 
L 5691 0 
L 5113 0 
L 5113 2094 
Q 5113 2597 4934 2840 
Q 4756 3084 4391 3084 
Q 3944 3084 3684 2787 
Q 3425 2491 3425 1978 
L 3425 0 
L 2847 0 
L 2847 2094 
Q 2847 2600 2669 2842 
Q 2491 3084 2119 3084 
Q 1678 3084 1418 2786 
Q 1159 2488 1159 1978 
L 1159 0 
L 581 0 
L 581 3500 
L 1159 3500 
L 1159 2956 
Q 1356 3278 1631 3431 
Q 1906 3584 2284 3584 
Q 2666 3584 2933 3390 
Q 3200 3197 3328 2828 
z
" transform="scale(0.015625)"/>
       <path id="DejaVuSans-28" d="M 1984 4856 
Q 1566 4138 1362 3434 
Q 1159 2731 1159 2009 
Q 1159 1288 1364 580 
Q 1569 -128 1984 -844 
L 1484 -844 
Q 1016 -109 783 600 
Q 550 1309 550 2009 
Q 550 2706 781 3412 
Q 1013 4119 1484 4856 
L 1984 4856 
z
" transform="scale(0.015625)"/>
       <path id="DejaVuSans-29" d="M 513 4856 
L 1013 4856 
Q 1481 4119 1714 3412 
Q 1947 2706 1947 2009 
Q 1947 1309 1714 600 
Q 1481 -109 1013 -844 
L 513 -844 
Q 928 -128 1133 580 
Q 1338 1288 1338 2009 
Q 1338 2731 1133 3434 
Q 928 4138 513 4856 
z
" transform="scale(0.015625)"/>
      </defs>
      <use xlink:href="#DejaVuSans-54"/>
      <use xlink:href="#DejaVuSans-69" transform="translate(57.958984 0)"/>
      <use xlink:href="#DejaVuSans-6d" transform="translate(85.742188 0)"/>
      <use xlink:href="#DejaVuSans-65" transform="translate(183.154297 0)"/>
      <use xlink:href="#DejaVuSans-28" transform="translate(244.677734 0)"/>
      <use xlink:href="#DejaVuSans-53" transform="translate(283.691406 0)"/>
      <use xlink:href="#DejaVuSans-65" transform="translate(347.167969 0)"/>
      <use xlink:href="#DejaVuSans-63" transform="translate(408.691406 0)"/>
      <use xlink:href="#DejaVuSans-6f" transform="translate(463.671875 0)"/>
      <use xlink:href="#DejaVuSans-6e" transform="translate(524.853516 0)"/>
      <use xlink:href="#DejaVuSans-64" transform="translate(588.232422 0)"/>
      <use xlink:href="#DejaVuSans-73" transform="translate(651.708984 0)"/>
      <use xlink:href="#DejaVuSans-29" transform="translate(703.808594 0)"/>
     </g>
    </g>
   </g>
   <g id="patch_9">
    <path d="M 215.713046 142.311905 
L 291.729806 142.311905 
L 291.729806 124.92523 
L 215.713046 124.92523 
L 215.713046 142.311905 
z
" clip-path="url(#p37e18beb37)" style="fill: #3274a1; stroke: #3f3f3f; stroke-linejoin: miter"/>
   </g>
   <g id="line2d_20">
    <path d="M 253.721426 142.311905 
L 253.721426 167.254261 
" clip-path="url(#p37e18beb37)" style="fill: none; stroke: #3f3f3f"/>
   </g>
   <g id="line2d_21">
    <path d="M 253.721426 124.92523 
L 253.721426 100.42 
" clip-path="url(#p37e18beb37)" style="fill: none; stroke: #3f3f3f"/>
   </g>
   <g id="line2d_22">
    <path d="M 234.717236 167.254261 
L 272.725616 167.254261 
" clip-path="url(#p37e18beb37)" style="fill: none; stroke: #3f3f3f; stroke-linecap: square"/>
   </g>
   <g id="line2d_23">
    <path d="M 234.717236 100.42 
L 272.725616 100.42 
" clip-path="url(#p37e18beb37)" style="fill: none; stroke: #3f3f3f; stroke-linecap: square"/>
   </g>
   <g id="line2d_24">
    <g clip-path="url(#p37e18beb37)">
     <use xlink:href="#md01f2e6e6a" x="253.721426" y="73.667085" style="fill-opacity: 0; stroke: #3f3f3f"/>
     <use xlink:href="#md01f2e6e6a" x="253.721426" y="95.014676" style="fill-opacity: 0; stroke: #3f3f3f"/>
     <use xlink:href="#md01f2e6e6a" x="253.721426" y="82.954486" style="fill-opacity: 0; stroke: #3f3f3f"/>
     <use xlink:href="#md01f2e6e6a" x="253.721426" y="49.607057" style="fill-opacity: 0; stroke: #3f3f3f"/>
     <use xlink:href="#md01f2e6e6a" x="253.721426" y="94.310003" style="fill-opacity: 0; stroke: #3f3f3f"/>
     <use xlink:href="#md01f2e6e6a" x="253.721426" y="73.449478" style="fill-opacity: 0; stroke: #3f3f3f"/>
     <use xlink:href="#md01f2e6e6a" x="253.721426" y="59.324572" style="fill-opacity: 0; stroke: #3f3f3f"/>
     <use xlink:href="#md01f2e6e6a" x="253.721426" y="96.897486" style="fill-opacity: 0; stroke: #3f3f3f"/>
     <use xlink:href="#md01f2e6e6a" x="253.721426" y="96.769132" style="fill-opacity: 0; stroke: #3f3f3f"/>
     <use xlink:href="#md01f2e6e6a" x="253.721426" y="95.681097" style="fill-opacity: 0; stroke: #3f3f3f"/>
     <use xlink:href="#md01f2e6e6a" x="253.721426" y="68.165707" style="fill-opacity: 0; stroke: #3f3f3f"/>
     <use xlink:href="#md01f2e6e6a" x="253.721426" y="82.48697" style="fill-opacity: 0; stroke: #3f3f3f"/>
     <use xlink:href="#md01f2e6e6a" x="253.721426" y="73.043165" style="fill-opacity: 0; stroke: #3f3f3f"/>
     <use xlink:href="#md01f2e6e6a" x="253.721426" y="89.877959" style="fill-opacity: 0; stroke: #3f3f3f"/>
     <use xlink:href="#md01f2e6e6a" x="253.721426" y="97.608959" style="fill-opacity: 0; stroke: #3f3f3f"/>
     <use xlink:href="#md01f2e6e6a" x="253.721426" y="90.621734" style="fill-opacity: 0; stroke: #3f3f3f"/>
     <use xlink:href="#md01f2e6e6a" x="253.721426" y="98.051824" style="fill-opacity: 0; stroke: #3f3f3f"/>
     <use xlink:href="#md01f2e6e6a" x="253.721426" y="97.877568" style="fill-opacity: 0; stroke: #3f3f3f"/>
     <use xlink:href="#md01f2e6e6a" x="253.721426" y="89.345842" style="fill-opacity: 0; stroke: #3f3f3f"/>
     <use xlink:href="#md01f2e6e6a" x="253.721426" y="78.798701" style="fill-opacity: 0; stroke: #3f3f3f"/>
     <use xlink:href="#md01f2e6e6a" x="253.721426" y="88.915728" style="fill-opacity: 0; stroke: #3f3f3f"/>
     <use xlink:href="#md01f2e6e6a" x="253.721426" y="84.399532" style="fill-opacity: 0; stroke: #3f3f3f"/>
     <use xlink:href="#md01f2e6e6a" x="253.721426" y="33.564489" style="fill-opacity: 0; stroke: #3f3f3f"/>
     <use xlink:href="#md01f2e6e6a" x="253.721426" y="62.479874" style="fill-opacity: 0; stroke: #3f3f3f"/>
     <use xlink:href="#md01f2e6e6a" x="253.721426" y="60.459358" style="fill-opacity: 0; stroke: #3f3f3f"/>
     <use xlink:href="#md01f2e6e6a" x="253.721426" y="98.535489" style="fill-opacity: 0; stroke: #3f3f3f"/>
    </g>
   </g>
   <g id="line2d_25">
    <path d="M 215.713046 134.081089 
L 291.729806 134.081089 
" clip-path="url(#p37e18beb37)" style="fill: none; stroke: #3f3f3f"/>
   </g>
   <g id="patch_10">
    <path d="M 206.21095 173.93875 
L 206.21095 26.88 
" style="fill: none; stroke: #000000; stroke-width: 0.8; stroke-linejoin: miter; stroke-linecap: square"/>
   </g>
   <g id="patch_11">
    <path d="M 301.231901 173.93875 
L 301.231901 26.88 
" style="fill: none; stroke: #000000; stroke-width: 0.8; stroke-linejoin: miter; stroke-linecap: square"/>
   </g>
   <g id="patch_12">
    <path d="M 206.21095 173.93875 
L 301.231901 173.93875 
" style="fill: none; stroke: #000000; stroke-width: 0.8; stroke-linejoin: miter; stroke-linecap: square"/>
   </g>
   <g id="patch_13">
    <path d="M 206.21095 26.88 
L 301.231901 26.88 
" style="fill: none; stroke: #000000; stroke-width: 0.8; stroke-linejoin: miter; stroke-linecap: square"/>
   </g>
   <g id="text_19">
    <!-- Run time -->
    <g transform="translate(226.755176 20.88) scale(0.12 -0.12)">
     <use xlink:href="#DejaVuSans-52"/>
     <use xlink:href="#DejaVuSans-75" transform="translate(64.982422 0)"/>
     <use xlink:href="#DejaVuSans-6e" transform="translate(128.361328 0)"/>
     <use xlink:href="#DejaVuSans-20" transform="translate(191.740234 0)"/>
     <use xlink:href="#DejaVuSans-74" transform="translate(223.527344 0)"/>
     <use xlink:href="#DejaVuSans-69" transform="translate(262.736328 0)"/>
     <use xlink:href="#DejaVuSans-6d" transform="translate(290.519531 0)"/>
     <use xlink:href="#DejaVuSans-65" transform="translate(387.931641 0)"/>
    </g>
   </g>
  </g>
  <g id="axes_3">
   <g id="patch_14">
    <path d="M 361.551901 173.93875 
L 456.572851 173.93875 
L 456.572851 26.88 
L 361.551901 26.88 
z
" style="fill: #ffffff"/>
   </g>
   <g id="matplotlib.axis_5">
    <g id="xtick_3">
     <g id="line2d_26">
      <g>
       <use xlink:href="#mee7b69422e" x="409.062376" y="173.93875" style="stroke: #000000; stroke-width: 0.8"/>
      </g>
     </g>
     <g id="text_20">
      <!-- STM -->
      <g transform="translate(398.520189 188.537188) scale(0.1 -0.1)">
       <use xlink:href="#DejaVuSans-53"/>
       <use xlink:href="#DejaVuSans-54" transform="translate(63.476562 0)"/>
       <use xlink:href="#DejaVuSans-4d" transform="translate(124.560547 0)"/>
      </g>
     </g>
    </g>
    <g id="text_21">
     <!-- dataset -->
     <g transform="translate(390.15847 202.215313) scale(0.1 -0.1)">
      <use xlink:href="#DejaVuSans-64"/>
      <use xlink:href="#DejaVuSans-61" transform="translate(63.476562 0)"/>
      <use xlink:href="#DejaVuSans-74" transform="translate(124.755859 0)"/>
      <use xlink:href="#DejaVuSans-61" transform="translate(163.964844 0)"/>
      <use xlink:href="#DejaVuSans-73" transform="translate(225.244141 0)"/>
      <use xlink:href="#DejaVuSans-65" transform="translate(277.34375 0)"/>
      <use xlink:href="#DejaVuSans-74" transform="translate(338.867188 0)"/>
     </g>
    </g>
   </g>
   <g id="matplotlib.axis_6">
    <g id="ytick_12">
     <g id="line2d_27">
      <g>
       <use xlink:href="#m8cd0d1ade6" x="361.551901" y="169.552458" style="stroke: #000000; stroke-width: 0.8"/>
      </g>
     </g>
     <g id="text_22">
      <!-- 0 -->
      <g transform="translate(348.189401 173.351677) scale(0.1 -0.1)">
       <use xlink:href="#DejaVuSans-30"/>
      </g>
     </g>
    </g>
    <g id="ytick_13">
     <g id="line2d_28">
      <g>
       <use xlink:href="#m8cd0d1ade6" x="361.551901" y="142.354864" style="stroke: #000000; stroke-width: 0.8"/>
      </g>
     </g>
     <g id="text_23">
      <!-- 20 -->
      <g transform="translate(341.826901 146.154083) scale(0.1 -0.1)">
       <use xlink:href="#DejaVuSans-32"/>
       <use xlink:href="#DejaVuSans-30" transform="translate(63.623047 0)"/>
      </g>
     </g>
    </g>
    <g id="ytick_14">
     <g id="line2d_29">
      <g>
       <use xlink:href="#m8cd0d1ade6" x="361.551901" y="115.15727" style="stroke: #000000; stroke-width: 0.8"/>
      </g>
     </g>
     <g id="text_24">
      <!-- 40 -->
      <g transform="translate(341.826901 118.956489) scale(0.1 -0.1)">
       <defs>
        <path id="DejaVuSans-34" d="M 2419 4116 
L 825 1625 
L 2419 1625 
L 2419 4116 
z
M 2253 4666 
L 3047 4666 
L 3047 1625 
L 3713 1625 
L 3713 1100 
L 3047 1100 
L 3047 0 
L 2419 0 
L 2419 1100 
L 313 1100 
L 313 1709 
L 2253 4666 
z
" transform="scale(0.015625)"/>
       </defs>
       <use xlink:href="#DejaVuSans-34"/>
       <use xlink:href="#DejaVuSans-30" transform="translate(63.623047 0)"/>
      </g>
     </g>
    </g>
    <g id="ytick_15">
     <g id="line2d_30">
      <g>
       <use xlink:href="#m8cd0d1ade6" x="361.551901" y="87.959676" style="stroke: #000000; stroke-width: 0.8"/>
      </g>
     </g>
     <g id="text_25">
      <!-- 60 -->
      <g transform="translate(341.826901 91.758895) scale(0.1 -0.1)">
       <defs>
        <path id="DejaVuSans-36" d="M 2113 2584 
Q 1688 2584 1439 2293 
Q 1191 2003 1191 1497 
Q 1191 994 1439 701 
Q 1688 409 2113 409 
Q 2538 409 2786 701 
Q 3034 994 3034 1497 
Q 3034 2003 2786 2293 
Q 2538 2584 2113 2584 
z
M 3366 4563 
L 3366 3988 
Q 3128 4100 2886 4159 
Q 2644 4219 2406 4219 
Q 1781 4219 1451 3797 
Q 1122 3375 1075 2522 
Q 1259 2794 1537 2939 
Q 1816 3084 2150 3084 
Q 2853 3084 3261 2657 
Q 3669 2231 3669 1497 
Q 3669 778 3244 343 
Q 2819 -91 2113 -91 
Q 1303 -91 875 529 
Q 447 1150 447 2328 
Q 447 3434 972 4092 
Q 1497 4750 2381 4750 
Q 2619 4750 2861 4703 
Q 3103 4656 3366 4563 
z
" transform="scale(0.015625)"/>
       </defs>
       <use xlink:href="#DejaVuSans-36"/>
       <use xlink:href="#DejaVuSans-30" transform="translate(63.623047 0)"/>
      </g>
     </g>
    </g>
    <g id="ytick_16">
     <g id="line2d_31">
      <g>
       <use xlink:href="#m8cd0d1ade6" x="361.551901" y="60.762083" style="stroke: #000000; stroke-width: 0.8"/>
      </g>
     </g>
     <g id="text_26">
      <!-- 80 -->
      <g transform="translate(341.826901 64.561301) scale(0.1 -0.1)">
       <use xlink:href="#DejaVuSans-38"/>
       <use xlink:href="#DejaVuSans-30" transform="translate(63.623047 0)"/>
      </g>
     </g>
    </g>
    <g id="ytick_17">
     <g id="line2d_32">
      <g>
       <use xlink:href="#m8cd0d1ade6" x="361.551901" y="33.564489" style="stroke: #000000; stroke-width: 0.8"/>
      </g>
     </g>
     <g id="text_27">
      <!-- 100 -->
      <g transform="translate(335.464401 37.363707) scale(0.1 -0.1)">
       <use xlink:href="#DejaVuSans-31"/>
       <use xlink:href="#DejaVuSans-30" transform="translate(63.623047 0)"/>
       <use xlink:href="#DejaVuSans-30" transform="translate(127.246094 0)"/>
      </g>
     </g>
    </g>
    <g id="text_28">
     <!-- Percent -->
     <g transform="translate(329.384713 119.217187) rotate(-90) scale(0.1 -0.1)">
      <defs>
       <path id="DejaVuSans-50" d="M 1259 4147 
L 1259 2394 
L 2053 2394 
Q 2494 2394 2734 2622 
Q 2975 2850 2975 3272 
Q 2975 3691 2734 3919 
Q 2494 4147 2053 4147 
L 1259 4147 
z
M 628 4666 
L 2053 4666 
Q 2838 4666 3239 4311 
Q 3641 3956 3641 3272 
Q 3641 2581 3239 2228 
Q 2838 1875 2053 1875 
L 1259 1875 
L 1259 0 
L 628 0 
L 628 4666 
z
" transform="scale(0.015625)"/>
       <path id="DejaVuSans-72" d="M 2631 2963 
Q 2534 3019 2420 3045 
Q 2306 3072 2169 3072 
Q 1681 3072 1420 2755 
Q 1159 2438 1159 1844 
L 1159 0 
L 581 0 
L 581 3500 
L 1159 3500 
L 1159 2956 
Q 1341 3275 1631 3429 
Q 1922 3584 2338 3584 
Q 2397 3584 2469 3576 
Q 2541 3569 2628 3553 
L 2631 2963 
z
" transform="scale(0.015625)"/>
      </defs>
      <use xlink:href="#DejaVuSans-50"/>
      <use xlink:href="#DejaVuSans-65" transform="translate(56.677734 0)"/>
      <use xlink:href="#DejaVuSans-72" transform="translate(118.201172 0)"/>
      <use xlink:href="#DejaVuSans-63" transform="translate(157.064453 0)"/>
      <use xlink:href="#DejaVuSans-65" transform="translate(212.044922 0)"/>
      <use xlink:href="#DejaVuSans-6e" transform="translate(273.568359 0)"/>
      <use xlink:href="#DejaVuSans-74" transform="translate(336.947266 0)"/>
     </g>
    </g>
   </g>
   <g id="patch_15">
    <path d="M 371.053996 158.724416 
L 447.070756 158.724416 
L 447.070756 145.757963 
L 371.053996 145.757963 
L 371.053996 158.724416 
z
" clip-path="url(#p702b9f795a)" style="fill: #3274a1; stroke: #3f3f3f; stroke-linejoin: miter"/>
   </g>
   <g id="line2d_33">
    <path d="M 409.062376 158.724416 
L 409.062376 167.254261 
" clip-path="url(#p702b9f795a)" style="fill: none; stroke: #3f3f3f"/>
   </g>
   <g id="line2d_34">
    <path d="M 409.062376 145.757963 
L 409.062376 126.811439 
" clip-path="url(#p702b9f795a)" style="fill: none; stroke: #3f3f3f"/>
   </g>
   <g id="line2d_35">
    <path d="M 390.058186 167.254261 
L 428.066566 167.254261 
" clip-path="url(#p702b9f795a)" style="fill: none; stroke: #3f3f3f; stroke-linecap: square"/>
   </g>
   <g id="line2d_36">
    <path d="M 390.058186 126.811439 
L 428.066566 126.811439 
" clip-path="url(#p702b9f795a)" style="fill: none; stroke: #3f3f3f; stroke-linecap: square"/>
   </g>
   <g id="line2d_37">
    <g clip-path="url(#p702b9f795a)">
     <use xlink:href="#md01f2e6e6a" x="409.062376" y="101.041719" style="fill-opacity: 0; stroke: #3f3f3f"/>
     <use xlink:href="#md01f2e6e6a" x="409.062376" y="64.909716" style="fill-opacity: 0; stroke: #3f3f3f"/>
     <use xlink:href="#md01f2e6e6a" x="409.062376" y="33.564489" style="fill-opacity: 0; stroke: #3f3f3f"/>
     <use xlink:href="#md01f2e6e6a" x="409.062376" y="115.986797" style="fill-opacity: 0; stroke: #3f3f3f"/>
     <use xlink:href="#md01f2e6e6a" x="409.062376" y="99.341869" style="fill-opacity: 0; stroke: #3f3f3f"/>
     <use xlink:href="#md01f2e6e6a" x="409.062376" y="109.268991" style="fill-opacity: 0; stroke: #3f3f3f"/>
     <use xlink:href="#md01f2e6e6a" x="409.062376" y="93.983943" style="fill-opacity: 0; stroke: #3f3f3f"/>
     <use xlink:href="#md01f2e6e6a" x="409.062376" y="70.186049" style="fill-opacity: 0; stroke: #3f3f3f"/>
     <use xlink:href="#md01f2e6e6a" x="409.062376" y="117.904227" style="fill-opacity: 0; stroke: #3f3f3f"/>
     <use xlink:href="#md01f2e6e6a" x="409.062376" y="125.832326" style="fill-opacity: 0; stroke: #3f3f3f"/>
     <use xlink:href="#md01f2e6e6a" x="409.062376" y="98.376355" style="fill-opacity: 0; stroke: #3f3f3f"/>
     <use xlink:href="#md01f2e6e6a" x="409.062376" y="120.420005" style="fill-opacity: 0; stroke: #3f3f3f"/>
     <use xlink:href="#md01f2e6e6a" x="409.062376" y="117.251485" style="fill-opacity: 0; stroke: #3f3f3f"/>
     <use xlink:href="#md01f2e6e6a" x="409.062376" y="97.07087" style="fill-opacity: 0; stroke: #3f3f3f"/>
     <use xlink:href="#md01f2e6e6a" x="409.062376" y="120.678382" style="fill-opacity: 0; stroke: #3f3f3f"/>
     <use xlink:href="#md01f2e6e6a" x="409.062376" y="122.541417" style="fill-opacity: 0; stroke: #3f3f3f"/>
     <use xlink:href="#md01f2e6e6a" x="409.062376" y="125.791529" style="fill-opacity: 0; stroke: #3f3f3f"/>
     <use xlink:href="#md01f2e6e6a" x="409.062376" y="100.647354" style="fill-opacity: 0; stroke: #3f3f3f"/>
     <use xlink:href="#md01f2e6e6a" x="409.062376" y="102.088826" style="fill-opacity: 0; stroke: #3f3f3f"/>
     <use xlink:href="#md01f2e6e6a" x="409.062376" y="104.115047" style="fill-opacity: 0; stroke: #3f3f3f"/>
     <use xlink:href="#md01f2e6e6a" x="409.062376" y="119.699268" style="fill-opacity: 0; stroke: #3f3f3f"/>
     <use xlink:href="#md01f2e6e6a" x="409.062376" y="91.19619" style="fill-opacity: 0; stroke: #3f3f3f"/>
     <use xlink:href="#md01f2e6e6a" x="409.062376" y="82.343373" style="fill-opacity: 0; stroke: #3f3f3f"/>
     <use xlink:href="#md01f2e6e6a" x="409.062376" y="97.723613" style="fill-opacity: 0; stroke: #3f3f3f"/>
     <use xlink:href="#md01f2e6e6a" x="409.062376" y="101.762455" style="fill-opacity: 0; stroke: #3f3f3f"/>
     <use xlink:href="#md01f2e6e6a" x="409.062376" y="69.519708" style="fill-opacity: 0; stroke: #3f3f3f"/>
     <use xlink:href="#md01f2e6e6a" x="409.062376" y="101.354491" style="fill-opacity: 0; stroke: #3f3f3f"/>
     <use xlink:href="#md01f2e6e6a" x="409.062376" y="108.15389" style="fill-opacity: 0; stroke: #3f3f3f"/>
     <use xlink:href="#md01f2e6e6a" x="409.062376" y="111.975152" style="fill-opacity: 0; stroke: #3f3f3f"/>
     <use xlink:href="#md01f2e6e6a" x="409.062376" y="97.859601" style="fill-opacity: 0; stroke: #3f3f3f"/>
     <use xlink:href="#md01f2e6e6a" x="409.062376" y="122.677405" style="fill-opacity: 0; stroke: #3f3f3f"/>
     <use xlink:href="#md01f2e6e6a" x="409.062376" y="82.887325" style="fill-opacity: 0; stroke: #3f3f3f"/>
     <use xlink:href="#md01f2e6e6a" x="409.062376" y="121.222334" style="fill-opacity: 0; stroke: #3f3f3f"/>
     <use xlink:href="#md01f2e6e6a" x="409.062376" y="86.912569" style="fill-opacity: 0; stroke: #3f3f3f"/>
     <use xlink:href="#md01f2e6e6a" x="409.062376" y="123.996488" style="fill-opacity: 0; stroke: #3f3f3f"/>
     <use xlink:href="#md01f2e6e6a" x="409.062376" y="88.802802" style="fill-opacity: 0; stroke: #3f3f3f"/>
     <use xlink:href="#md01f2e6e6a" x="409.062376" y="82.669744" style="fill-opacity: 0; stroke: #3f3f3f"/>
     <use xlink:href="#md01f2e6e6a" x="409.062376" y="102.143222" style="fill-opacity: 0; stroke: #3f3f3f"/>
     <use xlink:href="#md01f2e6e6a" x="409.062376" y="111.390404" style="fill-opacity: 0; stroke: #3f3f3f"/>
     <use xlink:href="#md01f2e6e6a" x="409.062376" y="120.991154" style="fill-opacity: 0; stroke: #3f3f3f"/>
     <use xlink:href="#md01f2e6e6a" x="409.062376" y="124.921206" style="fill-opacity: 0; stroke: #3f3f3f"/>
     <use xlink:href="#md01f2e6e6a" x="409.062376" y="99.069894" style="fill-opacity: 0; stroke: #3f3f3f"/>
     <use xlink:href="#md01f2e6e6a" x="409.062376" y="121.847878" style="fill-opacity: 0; stroke: #3f3f3f"/>
     <use xlink:href="#md01f2e6e6a" x="409.062376" y="33.564489" style="fill-opacity: 0; stroke: #3f3f3f"/>
    </g>
   </g>
   <g id="line2d_38">
    <path d="M 371.053996 154.566584 
L 447.070756 154.566584 
" clip-path="url(#p702b9f795a)" style="fill: none; stroke: #3f3f3f"/>
   </g>
   <g id="patch_16">
    <path d="M 361.551901 173.93875 
L 361.551901 26.88 
" style="fill: none; stroke: #000000; stroke-width: 0.8; stroke-linejoin: miter; stroke-linecap: square"/>
   </g>
   <g id="patch_17">
    <path d="M 456.572851 173.93875 
L 456.572851 26.88 
" style="fill: none; stroke: #000000; stroke-width: 0.8; stroke-linejoin: miter; stroke-linecap: square"/>
   </g>
   <g id="patch_18">
    <path d="M 361.551901 173.93875 
L 456.572851 173.93875 
" style="fill: none; stroke: #000000; stroke-width: 0.8; stroke-linejoin: miter; stroke-linecap: square"/>
   </g>
   <g id="patch_19">
    <path d="M 361.551901 26.88 
L 456.572851 26.88 
" style="fill: none; stroke: #000000; stroke-width: 0.8; stroke-linejoin: miter; stroke-linecap: square"/>
   </g>
   <g id="text_29">
    <!-- Gene Frequency Coverage -->
    <g transform="translate(329.669251 20.88) scale(0.12 -0.12)">
     <defs>
      <path id="DejaVuSans-47" d="M 3809 666 
L 3809 1919 
L 2778 1919 
L 2778 2438 
L 4434 2438 
L 4434 434 
Q 4069 175 3628 42 
Q 3188 -91 2688 -91 
Q 1594 -91 976 548 
Q 359 1188 359 2328 
Q 359 3472 976 4111 
Q 1594 4750 2688 4750 
Q 3144 4750 3555 4637 
Q 3966 4525 4313 4306 
L 4313 3634 
Q 3963 3931 3569 4081 
Q 3175 4231 2741 4231 
Q 1884 4231 1454 3753 
Q 1025 3275 1025 2328 
Q 1025 1384 1454 906 
Q 1884 428 2741 428 
Q 3075 428 3337 486 
Q 3600 544 3809 666 
z
" transform="scale(0.015625)"/>
      <path id="DejaVuSans-46" d="M 628 4666 
L 3309 4666 
L 3309 4134 
L 1259 4134 
L 1259 2759 
L 3109 2759 
L 3109 2228 
L 1259 2228 
L 1259 0 
L 628 0 
L 628 4666 
z
" transform="scale(0.015625)"/>
      <path id="DejaVuSans-71" d="M 947 1747 
Q 947 1113 1208 752 
Q 1469 391 1925 391 
Q 2381 391 2643 752 
Q 2906 1113 2906 1747 
Q 2906 2381 2643 2742 
Q 2381 3103 1925 3103 
Q 1469 3103 1208 2742 
Q 947 2381 947 1747 
z
M 2906 525 
Q 2725 213 2448 61 
Q 2172 -91 1784 -91 
Q 1150 -91 751 415 
Q 353 922 353 1747 
Q 353 2572 751 3078 
Q 1150 3584 1784 3584 
Q 2172 3584 2448 3432 
Q 2725 3281 2906 2969 
L 2906 3500 
L 3481 3500 
L 3481 -1331 
L 2906 -1331 
L 2906 525 
z
" transform="scale(0.015625)"/>
      <path id="DejaVuSans-79" d="M 2059 -325 
Q 1816 -950 1584 -1140 
Q 1353 -1331 966 -1331 
L 506 -1331 
L 506 -850 
L 844 -850 
Q 1081 -850 1212 -737 
Q 1344 -625 1503 -206 
L 1606 56 
L 191 3500 
L 800 3500 
L 1894 763 
L 2988 3500 
L 3597 3500 
L 2059 -325 
z
" transform="scale(0.015625)"/>
      <path id="DejaVuSans-76" d="M 191 3500 
L 800 3500 
L 1894 563 
L 2988 3500 
L 3597 3500 
L 2284 0 
L 1503 0 
L 191 3500 
z
" transform="scale(0.015625)"/>
      <path id="DejaVuSans-67" d="M 2906 1791 
Q 2906 2416 2648 2759 
Q 2391 3103 1925 3103 
Q 1463 3103 1205 2759 
Q 947 2416 947 1791 
Q 947 1169 1205 825 
Q 1463 481 1925 481 
Q 2391 481 2648 825 
Q 2906 1169 2906 1791 
z
M 3481 434 
Q 3481 -459 3084 -895 
Q 2688 -1331 1869 -1331 
Q 1566 -1331 1297 -1286 
Q 1028 -1241 775 -1147 
L 775 -588 
Q 1028 -725 1275 -790 
Q 1522 -856 1778 -856 
Q 2344 -856 2625 -561 
Q 2906 -266 2906 331 
L 2906 616 
Q 2728 306 2450 153 
Q 2172 0 1784 0 
Q 1141 0 747 490 
Q 353 981 353 1791 
Q 353 2603 747 3093 
Q 1141 3584 1784 3584 
Q 2172 3584 2450 3431 
Q 2728 3278 2906 2969 
L 2906 3500 
L 3481 3500 
L 3481 434 
z
" transform="scale(0.015625)"/>
     </defs>
     <use xlink:href="#DejaVuSans-47"/>
     <use xlink:href="#DejaVuSans-65" transform="translate(77.490234 0)"/>
     <use xlink:href="#DejaVuSans-6e" transform="translate(139.013672 0)"/>
     <use xlink:href="#DejaVuSans-65" transform="translate(202.392578 0)"/>
     <use xlink:href="#DejaVuSans-20" transform="translate(263.916016 0)"/>
     <use xlink:href="#DejaVuSans-46" transform="translate(295.703125 0)"/>
     <use xlink:href="#DejaVuSans-72" transform="translate(345.972656 0)"/>
     <use xlink:href="#DejaVuSans-65" transform="translate(384.835938 0)"/>
     <use xlink:href="#DejaVuSans-71" transform="translate(446.359375 0)"/>
     <use xlink:href="#DejaVuSans-75" transform="translate(509.835938 0)"/>
     <use xlink:href="#DejaVuSans-65" transform="translate(573.214844 0)"/>
     <use xlink:href="#DejaVuSans-6e" transform="translate(634.738281 0)"/>
     <use xlink:href="#DejaVuSans-63" transform="translate(698.117188 0)"/>
     <use xlink:href="#DejaVuSans-79" transform="translate(753.097656 0)"/>
     <use xlink:href="#DejaVuSans-20" transform="translate(812.277344 0)"/>
     <use xlink:href="#DejaVuSans-43" transform="translate(844.064453 0)"/>
     <use xlink:href="#DejaVuSans-6f" transform="translate(913.888672 0)"/>
     <use xlink:href="#DejaVuSans-76" transform="translate(975.070312 0)"/>
     <use xlink:href="#DejaVuSans-65" transform="translate(1034.25 0)"/>
     <use xlink:href="#DejaVuSans-72" transform="translate(1095.773438 0)"/>
     <use xlink:href="#DejaVuSans-61" transform="translate(1136.886719 0)"/>
     <use xlink:href="#DejaVuSans-67" transform="translate(1198.166016 0)"/>
     <use xlink:href="#DejaVuSans-65" transform="translate(1261.642578 0)"/>
    </g>
   </g>
  </g>
  <g id="axes_4">
   <g id="patch_20">
    <path d="M 516.892851 173.93875 
L 706.934752 173.93875 
L 706.934752 26.88 
L 516.892851 26.88 
z
" style="fill: #ffffff"/>
   </g>
   <g id="FillBetweenPolyCollection_1">
    <defs>
     <path id="md84f570366" d="M 525.53112 -42.079131 
L 525.53112 -42.06125 
L 526.399287 -42.06125 
L 527.267455 -42.06125 
L 528.135623 -42.06125 
L 529.00379 -42.06125 
L 529.871958 -42.06125 
L 530.740126 -42.06125 
L 531.608293 -42.06125 
L 532.476461 -42.06125 
L 533.344629 -42.06125 
L 534.212796 -42.06125 
L 535.080964 -42.06125 
L 535.949132 -42.06125 
L 536.817299 -42.06125 
L 537.685467 -42.06125 
L 538.553635 -42.06125 
L 539.421802 -42.06125 
L 540.28997 -42.06125 
L 541.158138 -42.06125 
L 542.026305 -42.06125 
L 542.894473 -42.06125 
L 543.762641 -42.06125 
L 544.630808 -42.06125 
L 545.498976 -42.06125 
L 546.367144 -42.06125 
L 547.235311 -42.06125 
L 548.103479 -42.06125 
L 548.971647 -42.06125 
L 549.839814 -42.06125 
L 550.707982 -42.06125 
L 551.57615 -42.06125 
L 552.444317 -42.06125 
L 553.312485 -42.06125 
L 554.180653 -42.06125 
L 555.04882 -42.06125 
L 555.916988 -42.06125 
L 556.785156 -42.06125 
L 557.653323 -42.06125 
L 558.521491 -42.06125 
L 559.389658 -42.06125 
L 560.257826 -42.06125 
L 561.125994 -42.06125 
L 561.994161 -42.06125 
L 562.862329 -42.06125 
L 563.730497 -42.06125 
L 564.598664 -42.06125 
L 565.466832 -42.06125 
L 566.335 -42.06125 
L 567.203167 -42.06125 
L 568.071335 -42.06125 
L 568.939503 -42.06125 
L 569.80767 -42.06125 
L 570.675838 -42.06125 
L 571.544006 -42.06125 
L 572.412173 -42.06125 
L 573.280341 -42.06125 
L 574.148509 -42.06125 
L 575.016676 -42.06125 
L 575.884844 -42.06125 
L 576.753012 -42.06125 
L 577.621179 -42.06125 
L 578.489347 -42.06125 
L 579.357515 -42.06125 
L 580.225682 -42.06125 
L 581.09385 -42.06125 
L 581.962018 -42.06125 
L 582.830185 -42.06125 
L 583.698353 -42.06125 
L 584.566521 -42.06125 
L 585.434688 -42.06125 
L 586.302856 -42.06125 
L 587.171024 -42.06125 
L 588.039191 -42.06125 
L 588.907359 -42.06125 
L 589.775527 -42.06125 
L 590.643694 -42.06125 
L 591.511862 -42.06125 
L 592.38003 -42.06125 
L 593.248197 -42.06125 
L 594.116365 -42.06125 
L 594.984533 -42.06125 
L 595.8527 -42.06125 
L 596.720868 -42.06125 
L 597.589036 -42.06125 
L 598.457203 -42.06125 
L 599.325371 -42.06125 
L 600.193539 -42.06125 
L 601.061706 -42.06125 
L 601.929874 -42.06125 
L 602.798042 -42.06125 
L 603.666209 -42.06125 
L 604.534377 -42.06125 
L 605.402545 -42.06125 
L 606.270712 -42.06125 
L 607.13888 -42.06125 
L 608.007048 -42.06125 
L 608.875215 -42.06125 
L 609.743383 -42.06125 
L 610.61155 -42.06125 
L 611.479718 -42.06125 
L 612.347886 -42.06125 
L 613.216053 -42.06125 
L 614.084221 -42.06125 
L 614.952389 -42.06125 
L 615.820556 -42.06125 
L 616.688724 -42.06125 
L 617.556892 -42.06125 
L 618.425059 -42.06125 
L 619.293227 -42.06125 
L 620.161395 -42.06125 
L 621.029562 -42.06125 
L 621.89773 -42.06125 
L 622.765898 -42.06125 
L 623.634065 -42.06125 
L 624.502233 -42.06125 
L 625.370401 -42.06125 
L 626.238568 -42.06125 
L 627.106736 -42.06125 
L 627.974904 -42.06125 
L 628.843071 -42.06125 
L 629.711239 -42.06125 
L 630.579407 -42.06125 
L 631.447574 -42.06125 
L 632.315742 -42.06125 
L 633.18391 -42.06125 
L 634.052077 -42.06125 
L 634.920245 -42.06125 
L 635.788413 -42.06125 
L 636.65658 -42.06125 
L 637.524748 -42.06125 
L 638.392916 -42.06125 
L 639.261083 -42.06125 
L 640.129251 -42.06125 
L 640.997419 -42.06125 
L 641.865586 -42.06125 
L 642.733754 -42.06125 
L 643.601922 -42.06125 
L 644.470089 -42.06125 
L 645.338257 -42.06125 
L 646.206425 -42.06125 
L 647.074592 -42.06125 
L 647.94276 -42.06125 
L 648.810928 -42.06125 
L 649.679095 -42.06125 
L 650.547263 -42.06125 
L 651.415431 -42.06125 
L 652.283598 -42.06125 
L 653.151766 -42.06125 
L 654.019934 -42.06125 
L 654.888101 -42.06125 
L 655.756269 -42.06125 
L 656.624437 -42.06125 
L 657.492604 -42.06125 
L 658.360772 -42.06125 
L 659.22894 -42.06125 
L 660.097107 -42.06125 
L 660.965275 -42.06125 
L 661.833442 -42.06125 
L 662.70161 -42.06125 
L 663.569778 -42.06125 
L 664.437945 -42.06125 
L 665.306113 -42.06125 
L 666.174281 -42.06125 
L 667.042448 -42.06125 
L 667.910616 -42.06125 
L 668.778784 -42.06125 
L 669.646951 -42.06125 
L 670.515119 -42.06125 
L 671.383287 -42.06125 
L 672.251454 -42.06125 
L 673.119622 -42.06125 
L 673.98779 -42.06125 
L 674.855957 -42.06125 
L 675.724125 -42.06125 
L 676.592293 -42.06125 
L 677.46046 -42.06125 
L 678.328628 -42.06125 
L 679.196796 -42.06125 
L 680.064963 -42.06125 
L 680.933131 -42.06125 
L 681.801299 -42.06125 
L 682.669466 -42.06125 
L 683.537634 -42.06125 
L 684.405802 -42.06125 
L 685.273969 -42.06125 
L 686.142137 -42.06125 
L 687.010305 -42.06125 
L 687.878472 -42.06125 
L 688.74664 -42.06125 
L 689.614808 -42.06125 
L 690.482975 -42.06125 
L 691.351143 -42.06125 
L 692.219311 -42.06125 
L 693.087478 -42.06125 
L 693.955646 -42.06125 
L 694.823814 -42.06125 
L 695.691981 -42.06125 
L 696.560149 -42.06125 
L 697.428317 -42.06125 
L 698.296484 -42.06125 
L 698.296484 -42.081046 
L 698.296484 -42.081046 
L 697.428317 -42.09002 
L 696.560149 -42.102502 
L 695.691981 -42.119609 
L 694.823814 -42.142713 
L 693.955646 -42.173456 
L 693.087478 -42.213763 
L 692.219311 -42.265823 
L 691.351143 -42.332065 
L 690.482975 -42.415089 
L 689.614808 -42.517583 
L 688.74664 -42.642193 
L 687.878472 -42.791381 
L 687.010305 -42.967241 
L 686.142137 -43.171322 
L 685.273969 -43.404433 
L 684.405802 -43.66647 
L 683.537634 -43.956285 
L 682.669466 -44.271593 
L 681.801299 -44.608961 
L 680.933131 -44.963871 
L 680.064963 -45.330879 
L 679.196796 -45.703855 
L 678.328628 -46.076305 
L 677.46046 -46.441757 
L 676.592293 -46.794168 
L 675.724125 -47.12835 
L 674.855957 -47.440344 
L 673.98779 -47.727737 
L 673.119622 -47.989868 
L 672.251454 -48.227919 
L 671.383287 -48.444854 
L 670.515119 -48.645223 
L 669.646951 -48.834842 
L 668.778784 -49.020354 
L 667.910616 -49.208729 
L 667.042448 -49.406734 
L 666.174281 -49.620412 
L 665.306113 -49.85463 
L 664.437945 -50.11272 
L 663.569778 -50.396257 
L 662.70161 -50.704982 
L 661.833442 -51.036883 
L 660.965275 -51.388431 
L 660.097107 -51.754943 
L 659.22894 -52.131055 
L 658.360772 -52.511268 
L 657.492604 -52.89052 
L 656.624437 -53.26476 
L 655.756269 -53.631472 
L 654.888101 -53.990127 
L 654.019934 -54.342516 
L 653.151766 -54.692959 
L 652.283598 -55.048357 
L 651.415431 -55.418076 
L 650.547263 -55.813662 
L 649.679095 -56.248394 
L 648.810928 -56.736676 
L 647.94276 -57.293299 
L 647.074592 -57.932613 
L 646.206425 -58.66764 
L 645.338257 -59.509202 
L 644.470089 -60.465108 
L 643.601922 -61.539481 
L 642.733754 -62.732269 
L 641.865586 -64.039007 
L 640.997419 -65.450843 
L 640.129251 -66.954862 
L 639.261083 -68.53467 
L 638.392916 -70.171224 
L 637.524748 -71.843824 
L 636.65658 -73.531205 
L 635.788413 -75.212639 
L 634.920245 -76.868958 
L 634.052077 -78.483441 
L 633.18391 -80.042492 
L 632.315742 -81.536108 
L 631.447574 -82.95811 
L 630.579407 -84.306178 
L 629.711239 -85.581717 
L 628.843071 -86.789603 
L 627.974904 -87.93785 
L 627.106736 -89.037233 
L 626.238568 -90.100873 
L 625.370401 -91.143793 
L 624.502233 -92.182422 
L 623.634065 -93.234016 
L 622.765898 -94.315978 
L 621.89773 -95.445063 
L 621.029562 -96.636478 
L 620.161395 -97.902916 
L 619.293227 -99.253587 
L 618.425059 -100.693344 
L 617.556892 -102.222008 
L 616.688724 -103.833991 
L 615.820556 -105.518328 
L 614.952389 -107.259162 
L 614.084221 -109.036699 
L 613.216053 -110.828618 
L 612.347886 -112.611819 
L 611.479718 -114.364397 
L 610.61155 -116.067672 
L 609.743383 -117.708065 
L 608.875215 -119.278675 
L 608.007048 -120.780358 
L 607.13888 -122.222222 
L 606.270712 -123.621449 
L 605.402545 -125.002451 
L 604.534377 -126.395412 
L 603.666209 -127.834328 
L 602.798042 -129.354695 
L 601.929874 -130.991027 
L 601.061706 -132.774396 
L 600.193539 -134.73016 
L 599.325371 -136.876052 
L 598.457203 -139.220751 
L 597.589036 -141.762994 
L 596.720868 -144.491282 
L 595.8527 -147.384165 
L 594.984533 -150.411038 
L 594.116365 -153.533399 
L 593.248197 -156.706438 
L 592.38003 -159.880882 
L 591.511862 -163.004964 
L 590.643694 -166.026434 
L 589.775527 -168.894515 
L 588.907359 -171.561744 
L 588.039191 -173.985615 
L 587.171024 -176.129995 
L 586.302856 -177.966251 
L 585.434688 -179.474044 
L 584.566521 -180.641767 
L 583.698353 -181.466577 
L 582.830185 -181.954017 
L 581.962018 -182.117202 
L 581.09385 -181.975608 
L 580.225682 -181.553492 
L 579.357515 -180.878026 
L 578.489347 -179.977247 
L 577.621179 -178.877945 
L 576.753012 -177.603645 
L 575.884844 -176.172826 
L 575.016676 -174.597516 
L 574.148509 -172.882391 
L 573.280341 -171.024465 
L 572.412173 -169.013412 
L 571.544006 -166.83252 
L 570.675838 -164.460219 
L 569.80767 -161.872085 
L 568.939503 -159.043168 
L 568.071335 -155.950479 
L 567.203167 -152.575441 
L 566.335 -148.906111 
L 565.466832 -144.939006 
L 564.598664 -140.680393 
L 563.730497 -136.146934 
L 562.862329 -131.36565 
L 561.994161 -126.37322 
L 561.125994 -121.21466 
L 560.257826 -115.94151 
L 559.389658 -110.609673 
L 558.521491 -105.27705 
L 557.653323 -100.001177 
L 556.785156 -94.836982 
L 555.916988 -89.834833 
L 555.04882 -85.038957 
L 554.180653 -80.486302 
L 553.312485 -76.205868 
L 552.444317 -72.218491 
L 551.57615 -68.537033 
L 550.707982 -65.16692 
L 549.839814 -62.106934 
L 548.971647 -59.350183 
L 548.103479 -56.885149 
L 547.235311 -54.696763 
L 546.367144 -52.767411 
L 545.498976 -51.07786 
L 544.630808 -49.608042 
L 543.762641 -48.337717 
L 542.894473 -47.246973 
L 542.026305 -46.31662 
L 541.158138 -45.528445 
L 540.28997 -44.865394 
L 539.421802 -44.311667 
L 538.553635 -43.852764 
L 537.685467 -43.475486 
L 536.817299 -43.167918 
L 535.949132 -42.919389 
L 535.080964 -42.720417 
L 534.212796 -42.562656 
L 533.344629 -42.438825 
L 532.476461 -42.34264 
L 531.608293 -42.268734 
L 530.740126 -42.212576 
L 529.871958 -42.170392 
L 529.00379 -42.139075 
L 528.135623 -42.116103 
L 527.267455 -42.099459 
L 526.399287 -42.087548 
L 525.53112 -42.079131 
z
" style="stroke: #1f77b4"/>
    </defs>
    <g clip-path="url(#p35a367416e)">
     <use xlink:href="#md84f570366" x="0" y="216" style="fill: #1f77b4; fill-opacity: 0.25; stroke: #1f77b4"/>
    </g>
   </g>
   <g id="matplotlib.axis_7">
    <g id="xtick_4">
     <g id="line2d_39">
      <g>
       <use xlink:href="#mee7b69422e" x="524.736137" y="173.93875" style="stroke: #000000; stroke-width: 0.8"/>
      </g>
     </g>
     <g id="text_30">
      <!-- 0 -->
      <g transform="translate(521.554887 188.537188) scale(0.1 -0.1)">
       <use xlink:href="#DejaVuSans-30"/>
      </g>
     </g>
    </g>
    <g id="xtick_5">
     <g id="line2d_40">
      <g>
       <use xlink:href="#mee7b69422e" x="569.298125" y="173.93875" style="stroke: #000000; stroke-width: 0.8"/>
      </g>
     </g>
     <g id="text_31">
      <!-- 10 -->
      <g transform="translate(562.935625 188.537188) scale(0.1 -0.1)">
       <use xlink:href="#DejaVuSans-31"/>
       <use xlink:href="#DejaVuSans-30" transform="translate(63.623047 0)"/>
      </g>
     </g>
    </g>
    <g id="xtick_6">
     <g id="line2d_41">
      <g>
       <use xlink:href="#mee7b69422e" x="613.860114" y="173.93875" style="stroke: #000000; stroke-width: 0.8"/>
      </g>
     </g>
     <g id="text_32">
      <!-- 20 -->
      <g transform="translate(607.497614 188.537188) scale(0.1 -0.1)">
       <use xlink:href="#DejaVuSans-32"/>
       <use xlink:href="#DejaVuSans-30" transform="translate(63.623047 0)"/>
      </g>
     </g>
    </g>
    <g id="xtick_7">
     <g id="line2d_42">
      <g>
       <use xlink:href="#mee7b69422e" x="658.422102" y="173.93875" style="stroke: #000000; stroke-width: 0.8"/>
      </g>
     </g>
     <g id="text_33">
      <!-- 30 -->
      <g transform="translate(652.059602 188.537188) scale(0.1 -0.1)">
       <defs>
        <path id="DejaVuSans-33" d="M 2597 2516 
Q 3050 2419 3304 2112 
Q 3559 1806 3559 1356 
Q 3559 666 3084 287 
Q 2609 -91 1734 -91 
Q 1441 -91 1130 -33 
Q 819 25 488 141 
L 488 750 
Q 750 597 1062 519 
Q 1375 441 1716 441 
Q 2309 441 2620 675 
Q 2931 909 2931 1356 
Q 2931 1769 2642 2001 
Q 2353 2234 1838 2234 
L 1294 2234 
L 1294 2753 
L 1863 2753 
Q 2328 2753 2575 2939 
Q 2822 3125 2822 3475 
Q 2822 3834 2567 4026 
Q 2313 4219 1838 4219 
Q 1578 4219 1281 4162 
Q 984 4106 628 3988 
L 628 4550 
Q 988 4650 1302 4700 
Q 1616 4750 1894 4750 
Q 2613 4750 3031 4423 
Q 3450 4097 3450 3541 
Q 3450 3153 3228 2886 
Q 3006 2619 2597 2516 
z
" transform="scale(0.015625)"/>
       </defs>
       <use xlink:href="#DejaVuSans-33"/>
       <use xlink:href="#DejaVuSans-30" transform="translate(63.623047 0)"/>
      </g>
     </g>
    </g>
    <g id="xtick_8">
     <g id="line2d_43">
      <g>
       <use xlink:href="#mee7b69422e" x="702.98409" y="173.93875" style="stroke: #000000; stroke-width: 0.8"/>
      </g>
     </g>
     <g id="text_34">
      <!-- 40 -->
      <g transform="translate(696.62159 188.537188) scale(0.1 -0.1)">
       <use xlink:href="#DejaVuSans-34"/>
       <use xlink:href="#DejaVuSans-30" transform="translate(63.623047 0)"/>
      </g>
     </g>
    </g>
    <g id="text_35">
     <!-- gf.count_skew -->
     <g transform="translate(576.662239 202.215313) scale(0.1 -0.1)">
      <defs>
       <path id="DejaVuSans-66" d="M 2375 4863 
L 2375 4384 
L 1825 4384 
Q 1516 4384 1395 4259 
Q 1275 4134 1275 3809 
L 1275 3500 
L 2222 3500 
L 2222 3053 
L 1275 3053 
L 1275 0 
L 697 0 
L 697 3053 
L 147 3053 
L 147 3500 
L 697 3500 
L 697 3744 
Q 697 4328 969 4595 
Q 1241 4863 1831 4863 
L 2375 4863 
z
" transform="scale(0.015625)"/>
       <path id="DejaVuSans-5f" d="M 3263 -1063 
L 3263 -1509 
L -63 -1509 
L -63 -1063 
L 3263 -1063 
z
" transform="scale(0.015625)"/>
       <path id="DejaVuSans-6b" d="M 581 4863 
L 1159 4863 
L 1159 1991 
L 2875 3500 
L 3609 3500 
L 1753 1863 
L 3688 0 
L 2938 0 
L 1159 1709 
L 1159 0 
L 581 0 
L 581 4863 
z
" transform="scale(0.015625)"/>
       <path id="DejaVuSans-77" d="M 269 3500 
L 844 3500 
L 1563 769 
L 2278 3500 
L 2956 3500 
L 3675 769 
L 4391 3500 
L 4966 3500 
L 4050 0 
L 3372 0 
L 2619 2869 
L 1863 0 
L 1184 0 
L 269 3500 
z
" transform="scale(0.015625)"/>
      </defs>
      <use xlink:href="#DejaVuSans-67"/>
      <use xlink:href="#DejaVuSans-66" transform="translate(63.476562 0)"/>
      <use xlink:href="#DejaVuSans-2e" transform="translate(91.431641 0)"/>
      <use xlink:href="#DejaVuSans-63" transform="translate(123.21875 0)"/>
      <use xlink:href="#DejaVuSans-6f" transform="translate(178.199219 0)"/>
      <use xlink:href="#DejaVuSans-75" transform="translate(239.380859 0)"/>
      <use xlink:href="#DejaVuSans-6e" transform="translate(302.759766 0)"/>
      <use xlink:href="#DejaVuSans-74" transform="translate(366.138672 0)"/>
      <use xlink:href="#DejaVuSans-5f" transform="translate(405.347656 0)"/>
      <use xlink:href="#DejaVuSans-73" transform="translate(455.347656 0)"/>
      <use xlink:href="#DejaVuSans-6b" transform="translate(507.447266 0)"/>
      <use xlink:href="#DejaVuSans-65" transform="translate(561.732422 0)"/>
      <use xlink:href="#DejaVuSans-77" transform="translate(623.255859 0)"/>
     </g>
    </g>
   </g>
   <g id="matplotlib.axis_8">
    <g id="ytick_18">
     <g id="line2d_44">
      <g>
       <use xlink:href="#m8cd0d1ade6" x="516.892851" y="173.93875" style="stroke: #000000; stroke-width: 0.8"/>
      </g>
     </g>
     <g id="text_36">
      <!-- 0.00 -->
      <g transform="translate(487.627226 177.737969) scale(0.1 -0.1)">
       <use xlink:href="#DejaVuSans-30"/>
       <use xlink:href="#DejaVuSans-2e" transform="translate(63.623047 0)"/>
       <use xlink:href="#DejaVuSans-30" transform="translate(95.410156 0)"/>
       <use xlink:href="#DejaVuSans-30" transform="translate(159.033203 0)"/>
      </g>
     </g>
    </g>
    <g id="ytick_19">
     <g id="line2d_45">
      <g>
       <use xlink:href="#m8cd0d1ade6" x="516.892851" y="137.66355" style="stroke: #000000; stroke-width: 0.8"/>
      </g>
     </g>
     <g id="text_37">
      <!-- 0.02 -->
      <g transform="translate(487.627226 141.462769) scale(0.1 -0.1)">
       <use xlink:href="#DejaVuSans-30"/>
       <use xlink:href="#DejaVuSans-2e" transform="translate(63.623047 0)"/>
       <use xlink:href="#DejaVuSans-30" transform="translate(95.410156 0)"/>
       <use xlink:href="#DejaVuSans-32" transform="translate(159.033203 0)"/>
      </g>
     </g>
    </g>
    <g id="ytick_20">
     <g id="line2d_46">
      <g>
       <use xlink:href="#m8cd0d1ade6" x="516.892851" y="101.38835" style="stroke: #000000; stroke-width: 0.8"/>
      </g>
     </g>
     <g id="text_38">
      <!-- 0.04 -->
      <g transform="translate(487.627226 105.187568) scale(0.1 -0.1)">
       <use xlink:href="#DejaVuSans-30"/>
       <use xlink:href="#DejaVuSans-2e" transform="translate(63.623047 0)"/>
       <use xlink:href="#DejaVuSans-30" transform="translate(95.410156 0)"/>
       <use xlink:href="#DejaVuSans-34" transform="translate(159.033203 0)"/>
      </g>
     </g>
    </g>
    <g id="ytick_21">
     <g id="line2d_47">
      <g>
       <use xlink:href="#m8cd0d1ade6" x="516.892851" y="65.11315" style="stroke: #000000; stroke-width: 0.8"/>
      </g>
     </g>
     <g id="text_39">
      <!-- 0.06 -->
      <g transform="translate(487.627226 68.912368) scale(0.1 -0.1)">
       <use xlink:href="#DejaVuSans-30"/>
       <use xlink:href="#DejaVuSans-2e" transform="translate(63.623047 0)"/>
       <use xlink:href="#DejaVuSans-30" transform="translate(95.410156 0)"/>
       <use xlink:href="#DejaVuSans-36" transform="translate(159.033203 0)"/>
      </g>
     </g>
    </g>
    <g id="ytick_22">
     <g id="line2d_48">
      <g>
       <use xlink:href="#m8cd0d1ade6" x="516.892851" y="28.837949" style="stroke: #000000; stroke-width: 0.8"/>
      </g>
     </g>
     <g id="text_40">
      <!-- 0.08 -->
      <g transform="translate(487.627226 32.637168) scale(0.1 -0.1)">
       <use xlink:href="#DejaVuSans-30"/>
       <use xlink:href="#DejaVuSans-2e" transform="translate(63.623047 0)"/>
       <use xlink:href="#DejaVuSans-30" transform="translate(95.410156 0)"/>
       <use xlink:href="#DejaVuSans-38" transform="translate(159.033203 0)"/>
      </g>
     </g>
    </g>
    <g id="text_41">
     <!-- Density -->
     <g transform="translate(481.547539 119.417969) rotate(-90) scale(0.1 -0.1)">
      <defs>
       <path id="DejaVuSans-44" d="M 1259 4147 
L 1259 519 
L 2022 519 
Q 2988 519 3436 956 
Q 3884 1394 3884 2338 
Q 3884 3275 3436 3711 
Q 2988 4147 2022 4147 
L 1259 4147 
z
M 628 4666 
L 1925 4666 
Q 3281 4666 3915 4102 
Q 4550 3538 4550 2338 
Q 4550 1131 3912 565 
Q 3275 0 1925 0 
L 628 0 
L 628 4666 
z
" transform="scale(0.015625)"/>
      </defs>
      <use xlink:href="#DejaVuSans-44"/>
      <use xlink:href="#DejaVuSans-65" transform="translate(77.001953 0)"/>
      <use xlink:href="#DejaVuSans-6e" transform="translate(138.525391 0)"/>
      <use xlink:href="#DejaVuSans-73" transform="translate(201.904297 0)"/>
      <use xlink:href="#DejaVuSans-69" transform="translate(254.003906 0)"/>
      <use xlink:href="#DejaVuSans-74" transform="translate(281.787109 0)"/>
      <use xlink:href="#DejaVuSans-79" transform="translate(320.996094 0)"/>
     </g>
    </g>
   </g>
   <g id="patch_21">
    <path d="M 516.892851 173.93875 
L 516.892851 26.88 
" style="fill: none; stroke: #000000; stroke-width: 0.8; stroke-linejoin: miter; stroke-linecap: square"/>
   </g>
   <g id="patch_22">
    <path d="M 706.934752 173.93875 
L 706.934752 26.88 
" style="fill: none; stroke: #000000; stroke-width: 0.8; stroke-linejoin: miter; stroke-linecap: square"/>
   </g>
   <g id="patch_23">
    <path d="M 516.892851 173.93875 
L 706.934752 173.93875 
" style="fill: none; stroke: #000000; stroke-width: 0.8; stroke-linejoin: miter; stroke-linecap: square"/>
   </g>
   <g id="patch_24">
    <path d="M 516.892851 26.88 
L 706.934752 26.88 
" style="fill: none; stroke: #000000; stroke-width: 0.8; stroke-linejoin: miter; stroke-linecap: square"/>
   </g>
   <g id="text_42">
    <!-- Gene Frequency Skewness -->
    <g transform="translate(531.858802 20.88) scale(0.12 -0.12)">
     <use xlink:href="#DejaVuSans-47"/>
     <use xlink:href="#DejaVuSans-65" transform="translate(77.490234 0)"/>
     <use xlink:href="#DejaVuSans-6e" transform="translate(139.013672 0)"/>
     <use xlink:href="#DejaVuSans-65" transform="translate(202.392578 0)"/>
     <use xlink:href="#DejaVuSans-20" transform="translate(263.916016 0)"/>
     <use xlink:href="#DejaVuSans-46" transform="translate(295.703125 0)"/>
     <use xlink:href="#DejaVuSans-72" transform="translate(345.972656 0)"/>
     <use xlink:href="#DejaVuSans-65" transform="translate(384.835938 0)"/>
     <use xlink:href="#DejaVuSans-71" transform="translate(446.359375 0)"/>
     <use xlink:href="#DejaVuSans-75" transform="translate(509.835938 0)"/>
     <use xlink:href="#DejaVuSans-65" transform="translate(573.214844 0)"/>
     <use xlink:href="#DejaVuSans-6e" transform="translate(634.738281 0)"/>
     <use xlink:href="#DejaVuSans-63" transform="translate(698.117188 0)"/>
     <use xlink:href="#DejaVuSans-79" transform="translate(753.097656 0)"/>
     <use xlink:href="#DejaVuSans-20" transform="translate(812.277344 0)"/>
     <use xlink:href="#DejaVuSans-53" transform="translate(844.064453 0)"/>
     <use xlink:href="#DejaVuSans-6b" transform="translate(907.541016 0)"/>
     <use xlink:href="#DejaVuSans-65" transform="translate(961.826172 0)"/>
     <use xlink:href="#DejaVuSans-77" transform="translate(1023.349609 0)"/>
     <use xlink:href="#DejaVuSans-6e" transform="translate(1105.136719 0)"/>
     <use xlink:href="#DejaVuSans-65" transform="translate(1168.515625 0)"/>
     <use xlink:href="#DejaVuSans-73" transform="translate(1230.039062 0)"/>
     <use xlink:href="#DejaVuSans-73" transform="translate(1282.138672 0)"/>
    </g>
   </g>
   <g id="legend_1">
    <g id="text_43">
     <!-- dataset -->
     <g transform="translate(664.12694 39.478438) scale(0.1 -0.1)">
      <use xlink:href="#DejaVuSans-64"/>
      <use xlink:href="#DejaVuSans-61" transform="translate(63.476562 0)"/>
      <use xlink:href="#DejaVuSans-74" transform="translate(124.755859 0)"/>
      <use xlink:href="#DejaVuSans-61" transform="translate(163.964844 0)"/>
      <use xlink:href="#DejaVuSans-73" transform="translate(225.244141 0)"/>
      <use xlink:href="#DejaVuSans-65" transform="translate(277.34375 0)"/>
      <use xlink:href="#DejaVuSans-74" transform="translate(338.867188 0)"/>
     </g>
    </g>
    <g id="patch_25">
     <path d="M 664.988659 55.508125 
L 674.988659 55.508125 
L 674.988659 46.558125 
L 664.988659 46.558125 
z
" style="fill: #1f77b4; fill-opacity: 0.25; stroke: #1f77b4; stroke-linejoin: miter"/>
    </g>
    <g id="text_44">
     <!-- STM -->
     <g transform="translate(679.988659 54.458125) scale(0.1 -0.1)">
      <use xlink:href="#DejaVuSans-53"/>
      <use xlink:href="#DejaVuSans-54" transform="translate(63.476562 0)"/>
      <use xlink:href="#DejaVuSans-4d" transform="translate(124.560547 0)"/>
     </g>
    </g>
   </g>
  </g>
 </g>
 <defs>
  <clipPath id="p6eb9e038b0">
   <rect x="50.87" y="26.88" width="95.02095" height="147.05875"/>
  </clipPath>
  <clipPath id="p37e18beb37">
   <rect x="206.21095" y="26.88" width="95.02095" height="147.05875"/>
  </clipPath>
  <clipPath id="p702b9f795a">
   <rect x="361.551901" y="26.88" width="95.02095" height="147.05875"/>
  </clipPath>
  <clipPath id="p35a367416e">
   <rect x="516.892851" y="26.88" width="190.041901" height="147.05875"/>
  </clipPath>
 </defs>
</svg>
