<?xml version="1.0" encoding="utf-8" standalone="no"?>
<!DOCTYPE svg PUBLIC "-//W3C//DTD SVG 1.1//EN"
  "http://www.w3.org/Graphics/SVG/1.1/DTD/svg11.dtd">
<svg xmlns:xlink="http://www.w3.org/1999/xlink" width="720pt" height="216pt" viewBox="0 0 720 216" xmlns="http://www.w3.org/2000/svg" version="1.1">
 <metadata>
  <rdf:RDF xmlns:dc="http://purl.org/dc/elements/1.1/" xmlns:cc="http://creativecommons.org/ns#" xmlns:rdf="http://www.w3.org/1999/02/22-rdf-syntax-ns#">
   <cc:Work>
    <dc:type rdf:resource="http://purl.org/dc/dcmitype/StillImage"/>
    <dc:date>2026-05-12T13:36:14.290702</dc:date>
    <dc:format>image/svg+xml</dc:format>
    <dc:creator>
     <cc:Agent>
      <dc:title>Matplotlib v3.10.9, https://matplotlib.org/</dc:title>
     </cc:Agent>
    </dc:creator>
   </cc:Work>
  </rdf:RDF>
 </metadata>
 <defs>
  <style type="text/css">*{stroke-linejoin: round; stroke-linecap: butt}</style>
 </defs>
 <g id="figure_1">
  <g id="patch_1">
   <path d="M 0 216 
L 720 216 
L 720 0 
L 0 0 
z
" style="fill: #ffffff"/>
  </g>
  <g id="axes_1">
   <g id="patch_2">
    <path d="M 51.005 173.68 
L 149.547455 173.68 
L 149.547455 26.16 
L 51.005 26.16 
z
" style="fill: #ffffff"/>
   </g>
   <g id="matplotlib.axis_1">
    <g id="xtick_1">
     <g id="line2d_1">
      <defs>
       <path id="m3c69c712bb" d="M 0 0 
L 0 3.5 
" style="stroke: #000000; stroke-width: 0.8"/>
      </defs>
      <g>
       <use xlink:href="#m3c69c712bb" x="100.276228" y="173.68" style="stroke: #000000; stroke-width: 0.8"/>
      </g>
     </g>
     <g id="text_1">
      <!-- AMY -->
      <g transform="translate(89.487946 188.278437) scale(0.1 -0.1)">
       <defs>
        <path id="DejaVuSans-41" d="M 2188 4044 
L 1331 1722 
L 3047 1722 
L 2188 4044 
z
M 1831 4666 
L 2547 4666 
L 4325 0 
L 3669 0 
L 3244 1197 
L 1141 1197 
L 716 0 
L 50 0 
L 1831 4666 
z
" transform="scale(0.015625)"/>
        <path id="DejaVuSans-4d" d="M 628 4666 
L 1569 4666 
L 2759 1491 
L 3956 4666 
L 4897 4666 
L 4897 0 
L 4281 0 
L 4281 4097 
L 3078 897 
L 2444 897 
L 1241 4097 
L 1241 0 
L 628 0 
L 628 4666 
z
" transform="scale(0.015625)"/>
        <path id="DejaVuSans-59" d="M -13 4666 
L 666 4666 
L 1959 2747 
L 3244 4666 
L 3922 4666 
L 2272 2222 
L 2272 0 
L 1638 0 
L 1638 2222 
L -13 4666 
z
" transform="scale(0.015625)"/>
       </defs>
       <use xlink:href="#DejaVuSans-41"/>
       <use xlink:href="#DejaVuSans-4d" transform="translate(68.408203 0)"/>
       <use xlink:href="#DejaVuSans-59" transform="translate(154.6875 0)"/>
      </g>
     </g>
    </g>
    <g id="text_2">
     <!-- dataset -->
     <g transform="translate(81.372321 201.956562) scale(0.1 -0.1)">
      <defs>
       <path id="DejaVuSans-64" d="M 2906 2969 
L 2906 4863 
L 3481 4863 
L 3481 0 
L 2906 0 
L 2906 525 
Q 2725 213 2448 61 
Q 2172 -91 1784 -91 
Q 1150 -91 751 415 
Q 353 922 353 1747 
Q 353 2572 751 3078 
Q 1150 3584 1784 3584 
Q 2172 3584 2448 3432 
Q 2725 3281 2906 2969 
z
M 947 1747 
Q 947 1113 1208 752 
Q 1469 391 1925 391 
Q 2381 391 2643 752 
Q 2906 1113 2906 1747 
Q 2906 2381 2643 2742 
Q 2381 3103 1925 3103 
Q 1469 3103 1208 2742 
Q 947 2381 947 1747 
z
" transform="scale(0.015625)"/>
       <path id="DejaVuSans-61" d="M 2194 1759 
Q 1497 1759 1228 1600 
Q 959 1441 959 1056 
Q 959 750 1161 570 
Q 1363 391 1709 391 
Q 2188 391 2477 730 
Q 2766 1069 2766 1631 
L 2766 1759 
L 2194 1759 
z
M 3341 1997 
L 3341 0 
L 2766 0 
L 2766 531 
Q 2569 213 2275 61 
Q 1981 -91 1556 -91 
Q 1019 -91 701 211 
Q 384 513 384 1019 
Q 384 1609 779 1909 
Q 1175 2209 1959 2209 
L 2766 2209 
L 2766 2266 
Q 2766 2663 2505 2880 
Q 2244 3097 1772 3097 
Q 1472 3097 1187 3025 
Q 903 2953 641 2809 
L 641 3341 
Q 956 3463 1253 3523 
Q 1550 3584 1831 3584 
Q 2591 3584 2966 3190 
Q 3341 2797 3341 1997 
z
" transform="scale(0.015625)"/>
       <path id="DejaVuSans-74" d="M 1172 4494 
L 1172 3500 
L 2356 3500 
L 2356 3053 
L 1172 3053 
L 1172 1153 
Q 1172 725 1289 603 
Q 1406 481 1766 481 
L 2356 481 
L 2356 0 
L 1766 0 
Q 1100 0 847 248 
Q 594 497 594 1153 
L 594 3053 
L 172 3053 
L 172 3500 
L 594 3500 
L 594 4494 
L 1172 4494 
z
" transform="scale(0.015625)"/>
       <path id="DejaVuSans-73" d="M 2834 3397 
L 2834 2853 
Q 2591 2978 2328 3040 
Q 2066 3103 1784 3103 
Q 1356 3103 1142 2972 
Q 928 2841 928 2578 
Q 928 2378 1081 2264 
Q 1234 2150 1697 2047 
L 1894 2003 
Q 2506 1872 2764 1633 
Q 3022 1394 3022 966 
Q 3022 478 2636 193 
Q 2250 -91 1575 -91 
Q 1294 -91 989 -36 
Q 684 19 347 128 
L 347 722 
Q 666 556 975 473 
Q 1284 391 1588 391 
Q 1994 391 2212 530 
Q 2431 669 2431 922 
Q 2431 1156 2273 1281 
Q 2116 1406 1581 1522 
L 1381 1569 
Q 847 1681 609 1914 
Q 372 2147 372 2553 
Q 372 3047 722 3315 
Q 1072 3584 1716 3584 
Q 2034 3584 2315 3537 
Q 2597 3491 2834 3397 
z
" transform="scale(0.015625)"/>
       <path id="DejaVuSans-65" d="M 3597 1894 
L 3597 1613 
L 953 1613 
Q 991 1019 1311 708 
Q 1631 397 2203 397 
Q 2534 397 2845 478 
Q 3156 559 3463 722 
L 3463 178 
Q 3153 47 2828 -22 
Q 2503 -91 2169 -91 
Q 1331 -91 842 396 
Q 353 884 353 1716 
Q 353 2575 817 3079 
Q 1281 3584 2069 3584 
Q 2775 3584 3186 3129 
Q 3597 2675 3597 1894 
z
M 3022 2063 
Q 3016 2534 2758 2815 
Q 2500 3097 2075 3097 
Q 1594 3097 1305 2825 
Q 1016 2553 972 2059 
L 3022 2063 
z
" transform="scale(0.015625)"/>
      </defs>
      <use xlink:href="#DejaVuSans-64"/>
      <use xlink:href="#DejaVuSans-61" transform="translate(63.476562 0)"/>
      <use xlink:href="#DejaVuSans-74" transform="translate(124.755859 0)"/>
      <use xlink:href="#DejaVuSans-61" transform="translate(163.964844 0)"/>
      <use xlink:href="#DejaVuSans-73" transform="translate(225.244141 0)"/>
      <use xlink:href="#DejaVuSans-65" transform="translate(277.34375 0)"/>
      <use xlink:href="#DejaVuSans-74" transform="translate(338.867188 0)"/>
     </g>
    </g>
   </g>
   <g id="matplotlib.axis_2">
    <g id="ytick_1">
     <g id="line2d_2">
      <defs>
       <path id="m725cb46cbf" d="M 0 0 
L -3.5 0 
" style="stroke: #000000; stroke-width: 0.8"/>
      </defs>
      <g>
       <use xlink:href="#m725cb46cbf" x="51.005" y="167.994386" style="stroke: #000000; stroke-width: 0.8"/>
      </g>
     </g>
     <g id="text_3">
      <!-- 0 -->
      <g transform="translate(37.6425 171.793605) scale(0.1 -0.1)">
       <defs>
        <path id="DejaVuSans-30" d="M 2034 4250 
Q 1547 4250 1301 3770 
Q 1056 3291 1056 2328 
Q 1056 1369 1301 889 
Q 1547 409 2034 409 
Q 2525 409 2770 889 
Q 3016 1369 3016 2328 
Q 3016 3291 2770 3770 
Q 2525 4250 2034 4250 
z
M 2034 4750 
Q 2819 4750 3233 4129 
Q 3647 3509 3647 2328 
Q 3647 1150 3233 529 
Q 2819 -91 2034 -91 
Q 1250 -91 836 529 
Q 422 1150 422 2328 
Q 422 3509 836 4129 
Q 1250 4750 2034 4750 
z
" transform="scale(0.015625)"/>
       </defs>
       <use xlink:href="#DejaVuSans-30"/>
      </g>
     </g>
    </g>
    <g id="ytick_2">
     <g id="line2d_3">
      <g>
       <use xlink:href="#m725cb46cbf" x="51.005" y="142.498362" style="stroke: #000000; stroke-width: 0.8"/>
      </g>
     </g>
     <g id="text_4">
      <!-- 50 -->
      <g transform="translate(31.28 146.29758) scale(0.1 -0.1)">
       <defs>
        <path id="DejaVuSans-35" d="M 691 4666 
L 3169 4666 
L 3169 4134 
L 1269 4134 
L 1269 2991 
Q 1406 3038 1543 3061 
Q 1681 3084 1819 3084 
Q 2600 3084 3056 2656 
Q 3513 2228 3513 1497 
Q 3513 744 3044 326 
Q 2575 -91 1722 -91 
Q 1428 -91 1123 -41 
Q 819 9 494 109 
L 494 744 
Q 775 591 1075 516 
Q 1375 441 1709 441 
Q 2250 441 2565 725 
Q 2881 1009 2881 1497 
Q 2881 1984 2565 2268 
Q 2250 2553 1709 2553 
Q 1456 2553 1204 2497 
Q 953 2441 691 2322 
L 691 4666 
z
" transform="scale(0.015625)"/>
       </defs>
       <use xlink:href="#DejaVuSans-35"/>
       <use xlink:href="#DejaVuSans-30" transform="translate(63.623047 0)"/>
      </g>
     </g>
    </g>
    <g id="ytick_3">
     <g id="line2d_4">
      <g>
       <use xlink:href="#m725cb46cbf" x="51.005" y="117.002337" style="stroke: #000000; stroke-width: 0.8"/>
      </g>
     </g>
     <g id="text_5">
      <!-- 100 -->
      <g transform="translate(24.9175 120.801555) scale(0.1 -0.1)">
       <defs>
        <path id="DejaVuSans-31" d="M 794 531 
L 1825 531 
L 1825 4091 
L 703 3866 
L 703 4441 
L 1819 4666 
L 2450 4666 
L 2450 531 
L 3481 531 
L 3481 0 
L 794 0 
L 794 531 
z
" transform="scale(0.015625)"/>
       </defs>
       <use xlink:href="#DejaVuSans-31"/>
       <use xlink:href="#DejaVuSans-30" transform="translate(63.623047 0)"/>
       <use xlink:href="#DejaVuSans-30" transform="translate(127.246094 0)"/>
      </g>
     </g>
    </g>
    <g id="ytick_4">
     <g id="line2d_5">
      <g>
       <use xlink:href="#m725cb46cbf" x="51.005" y="91.506312" style="stroke: #000000; stroke-width: 0.8"/>
      </g>
     </g>
     <g id="text_6">
      <!-- 150 -->
      <g transform="translate(24.9175 95.305531) scale(0.1 -0.1)">
       <use xlink:href="#DejaVuSans-31"/>
       <use xlink:href="#DejaVuSans-35" transform="translate(63.623047 0)"/>
       <use xlink:href="#DejaVuSans-30" transform="translate(127.246094 0)"/>
      </g>
     </g>
    </g>
    <g id="ytick_5">
     <g id="line2d_6">
      <g>
       <use xlink:href="#m725cb46cbf" x="51.005" y="66.010287" style="stroke: #000000; stroke-width: 0.8"/>
      </g>
     </g>
     <g id="text_7">
      <!-- 200 -->
      <g transform="translate(24.9175 69.809506) scale(0.1 -0.1)">
       <defs>
        <path id="DejaVuSans-32" d="M 1228 531 
L 3431 531 
L 3431 0 
L 469 0 
L 469 531 
Q 828 903 1448 1529 
Q 2069 2156 2228 2338 
Q 2531 2678 2651 2914 
Q 2772 3150 2772 3378 
Q 2772 3750 2511 3984 
Q 2250 4219 1831 4219 
Q 1534 4219 1204 4116 
Q 875 4013 500 3803 
L 500 4441 
Q 881 4594 1212 4672 
Q 1544 4750 1819 4750 
Q 2544 4750 2975 4387 
Q 3406 4025 3406 3419 
Q 3406 3131 3298 2873 
Q 3191 2616 2906 2266 
Q 2828 2175 2409 1742 
Q 1991 1309 1228 531 
z
" transform="scale(0.015625)"/>
       </defs>
       <use xlink:href="#DejaVuSans-32"/>
       <use xlink:href="#DejaVuSans-30" transform="translate(63.623047 0)"/>
       <use xlink:href="#DejaVuSans-30" transform="translate(127.246094 0)"/>
      </g>
     </g>
    </g>
    <g id="ytick_6">
     <g id="line2d_7">
      <g>
       <use xlink:href="#m725cb46cbf" x="51.005" y="40.514262" style="stroke: #000000; stroke-width: 0.8"/>
      </g>
     </g>
     <g id="text_8">
      <!-- 250 -->
      <g transform="translate(24.9175 44.313481) scale(0.1 -0.1)">
       <use xlink:href="#DejaVuSans-32"/>
       <use xlink:href="#DejaVuSans-35" transform="translate(63.623047 0)"/>
       <use xlink:href="#DejaVuSans-30" transform="translate(127.246094 0)"/>
      </g>
     </g>
    </g>
    <g id="text_9">
     <!-- Count -->
     <g transform="translate(18.837812 114.768438) rotate(-90) scale(0.1 -0.1)">
      <defs>
       <path id="DejaVuSans-43" d="M 4122 4306 
L 4122 3641 
Q 3803 3938 3442 4084 
Q 3081 4231 2675 4231 
Q 1875 4231 1450 3742 
Q 1025 3253 1025 2328 
Q 1025 1406 1450 917 
Q 1875 428 2675 428 
Q 3081 428 3442 575 
Q 3803 722 4122 1019 
L 4122 359 
Q 3791 134 3420 21 
Q 3050 -91 2638 -91 
Q 1578 -91 968 557 
Q 359 1206 359 2328 
Q 359 3453 968 4101 
Q 1578 4750 2638 4750 
Q 3056 4750 3426 4639 
Q 3797 4528 4122 4306 
z
" transform="scale(0.015625)"/>
       <path id="DejaVuSans-6f" d="M 1959 3097 
Q 1497 3097 1228 2736 
Q 959 2375 959 1747 
Q 959 1119 1226 758 
Q 1494 397 1959 397 
Q 2419 397 2687 759 
Q 2956 1122 2956 1747 
Q 2956 2369 2687 2733 
Q 2419 3097 1959 3097 
z
M 1959 3584 
Q 2709 3584 3137 3096 
Q 3566 2609 3566 1747 
Q 3566 888 3137 398 
Q 2709 -91 1959 -91 
Q 1206 -91 779 398 
Q 353 888 353 1747 
Q 353 2609 779 3096 
Q 1206 3584 1959 3584 
z
" transform="scale(0.015625)"/>
       <path id="DejaVuSans-75" d="M 544 1381 
L 544 3500 
L 1119 3500 
L 1119 1403 
Q 1119 906 1312 657 
Q 1506 409 1894 409 
Q 2359 409 2629 706 
Q 2900 1003 2900 1516 
L 2900 3500 
L 3475 3500 
L 3475 0 
L 2900 0 
L 2900 538 
Q 2691 219 2414 64 
Q 2138 -91 1772 -91 
Q 1169 -91 856 284 
Q 544 659 544 1381 
z
M 1991 3584 
L 1991 3584 
z
" transform="scale(0.015625)"/>
       <path id="DejaVuSans-6e" d="M 3513 2113 
L 3513 0 
L 2938 0 
L 2938 2094 
Q 2938 2591 2744 2837 
Q 2550 3084 2163 3084 
Q 1697 3084 1428 2787 
Q 1159 2491 1159 1978 
L 1159 0 
L 581 0 
L 581 3500 
L 1159 3500 
L 1159 2956 
Q 1366 3272 1645 3428 
Q 1925 3584 2291 3584 
Q 2894 3584 3203 3211 
Q 3513 2838 3513 2113 
z
" transform="scale(0.015625)"/>
      </defs>
      <use xlink:href="#DejaVuSans-43"/>
      <use xlink:href="#DejaVuSans-6f" transform="translate(69.824219 0)"/>
      <use xlink:href="#DejaVuSans-75" transform="translate(131.005859 0)"/>
      <use xlink:href="#DejaVuSans-6e" transform="translate(194.384766 0)"/>
      <use xlink:href="#DejaVuSans-74" transform="translate(257.763672 0)"/>
     </g>
    </g>
   </g>
   <g id="patch_3">
    <path d="M 60.859246 156.266215 
L 139.69321 156.266215 
L 139.69321 140.9686 
L 60.859246 140.9686 
L 60.859246 156.266215 
z
" clip-path="url(#pb51478762f)" style="fill: #3274a1; stroke: #3f3f3f; stroke-linejoin: miter"/>
   </g>
   <g id="line2d_8">
    <path d="M 100.276228 156.266215 
L 100.276228 166.974545 
" clip-path="url(#pb51478762f)" style="fill: none; stroke: #3f3f3f"/>
   </g>
   <g id="line2d_9">
    <path d="M 100.276228 140.9686 
L 100.276228 118.022178 
" clip-path="url(#pb51478762f)" style="fill: none; stroke: #3f3f3f"/>
   </g>
   <g id="line2d_10">
    <path d="M 80.567737 166.974545 
L 119.984719 166.974545 
" clip-path="url(#pb51478762f)" style="fill: none; stroke: #3f3f3f; stroke-linecap: square"/>
   </g>
   <g id="line2d_11">
    <path d="M 80.567737 118.022178 
L 119.984719 118.022178 
" clip-path="url(#pb51478762f)" style="fill: none; stroke: #3f3f3f; stroke-linecap: square"/>
   </g>
   <g id="line2d_12">
    <defs>
     <path id="m727aec5bd0" d="M 0 3 
C 0.795609 3 1.55874 2.683901 2.12132 2.12132 
C 2.683901 1.55874 3 0.795609 3 0 
C 3 -0.795609 2.683901 -1.55874 2.12132 -2.12132 
C 1.55874 -2.683901 0.795609 -3 0 -3 
C -0.795609 -3 -1.55874 -2.683901 -2.12132 -2.12132 
C -2.683901 -1.55874 -3 -0.795609 -3 0 
C -3 0.795609 -2.683901 1.55874 -2.12132 2.12132 
C -1.55874 2.683901 -0.795609 3 0 3 
z
" style="stroke: #3f3f3f"/>
    </defs>
    <g clip-path="url(#pb51478762f)">
     <use xlink:href="#m727aec5bd0" x="100.276228" y="70.089651" style="fill-opacity: 0; stroke: #3f3f3f"/>
     <use xlink:href="#m727aec5bd0" x="100.276228" y="81.307902" style="fill-opacity: 0; stroke: #3f3f3f"/>
     <use xlink:href="#m727aec5bd0" x="100.276228" y="115.472575" style="fill-opacity: 0; stroke: #3f3f3f"/>
     <use xlink:href="#m727aec5bd0" x="100.276228" y="110.883291" style="fill-opacity: 0; stroke: #3f3f3f"/>
     <use xlink:href="#m727aec5bd0" x="100.276228" y="107.313847" style="fill-opacity: 0; stroke: #3f3f3f"/>
     <use xlink:href="#m727aec5bd0" x="100.276228" y="107.313847" style="fill-opacity: 0; stroke: #3f3f3f"/>
     <use xlink:href="#m727aec5bd0" x="100.276228" y="111.393211" style="fill-opacity: 0; stroke: #3f3f3f"/>
     <use xlink:href="#m727aec5bd0" x="100.276228" y="109.86345" style="fill-opacity: 0; stroke: #3f3f3f"/>
     <use xlink:href="#m727aec5bd0" x="100.276228" y="90.486471" style="fill-opacity: 0; stroke: #3f3f3f"/>
     <use xlink:href="#m727aec5bd0" x="100.276228" y="104.764245" style="fill-opacity: 0; stroke: #3f3f3f"/>
     <use xlink:href="#m727aec5bd0" x="100.276228" y="82.327743" style="fill-opacity: 0; stroke: #3f3f3f"/>
     <use xlink:href="#m727aec5bd0" x="100.276228" y="95.075755" style="fill-opacity: 0; stroke: #3f3f3f"/>
     <use xlink:href="#m727aec5bd0" x="100.276228" y="96.095596" style="fill-opacity: 0; stroke: #3f3f3f"/>
     <use xlink:href="#m727aec5bd0" x="100.276228" y="106.803927" style="fill-opacity: 0; stroke: #3f3f3f"/>
     <use xlink:href="#m727aec5bd0" x="100.276228" y="88.446789" style="fill-opacity: 0; stroke: #3f3f3f"/>
     <use xlink:href="#m727aec5bd0" x="100.276228" y="87.426948" style="fill-opacity: 0; stroke: #3f3f3f"/>
     <use xlink:href="#m727aec5bd0" x="100.276228" y="110.37337" style="fill-opacity: 0; stroke: #3f3f3f"/>
     <use xlink:href="#m727aec5bd0" x="100.276228" y="106.803927" style="fill-opacity: 0; stroke: #3f3f3f"/>
     <use xlink:href="#m727aec5bd0" x="100.276228" y="104.254324" style="fill-opacity: 0; stroke: #3f3f3f"/>
     <use xlink:href="#m727aec5bd0" x="100.276228" y="101.194801" style="fill-opacity: 0; stroke: #3f3f3f"/>
     <use xlink:href="#m727aec5bd0" x="100.276228" y="108.333688" style="fill-opacity: 0; stroke: #3f3f3f"/>
     <use xlink:href="#m727aec5bd0" x="100.276228" y="32.865455" style="fill-opacity: 0; stroke: #3f3f3f"/>
     <use xlink:href="#m727aec5bd0" x="100.276228" y="115.472575" style="fill-opacity: 0; stroke: #3f3f3f"/>
     <use xlink:href="#m727aec5bd0" x="100.276228" y="115.472575" style="fill-opacity: 0; stroke: #3f3f3f"/>
     <use xlink:href="#m727aec5bd0" x="100.276228" y="108.843609" style="fill-opacity: 0; stroke: #3f3f3f"/>
    </g>
   </g>
   <g id="line2d_13">
    <path d="M 60.859246 149.127328 
L 139.69321 149.127328 
" clip-path="url(#pb51478762f)" style="fill: none; stroke: #3f3f3f"/>
   </g>
   <g id="patch_4">
    <path d="M 51.005 173.68 
L 51.005 26.16 
" style="fill: none; stroke: #000000; stroke-width: 0.8; stroke-linejoin: miter; stroke-linecap: square"/>
   </g>
   <g id="patch_5">
    <path d="M 149.547455 173.68 
L 149.547455 26.16 
" style="fill: none; stroke: #000000; stroke-width: 0.8; stroke-linejoin: miter; stroke-linecap: square"/>
   </g>
   <g id="patch_6">
    <path d="M 51.005 173.68 
L 149.547455 173.68 
" style="fill: none; stroke: #000000; stroke-width: 0.8; stroke-linejoin: miter; stroke-linecap: square"/>
   </g>
   <g id="patch_7">
    <path d="M 51.005 26.16 
L 149.547455 26.16 
" style="fill: none; stroke: #000000; stroke-width: 0.8; stroke-linejoin: miter; stroke-linecap: square"/>
   </g>
   <g id="text_10">
    <!-- Root node count -->
    <g transform="translate(50.96654 20.16) scale(0.12 -0.12)">
     <defs>
      <path id="DejaVuSans-52" d="M 2841 2188 
Q 3044 2119 3236 1894 
Q 3428 1669 3622 1275 
L 4263 0 
L 3584 0 
L 2988 1197 
Q 2756 1666 2539 1819 
Q 2322 1972 1947 1972 
L 1259 1972 
L 1259 0 
L 628 0 
L 628 4666 
L 2053 4666 
Q 2853 4666 3247 4331 
Q 3641 3997 3641 3322 
Q 3641 2881 3436 2590 
Q 3231 2300 2841 2188 
z
M 1259 4147 
L 1259 2491 
L 2053 2491 
Q 2509 2491 2742 2702 
Q 2975 2913 2975 3322 
Q 2975 3731 2742 3939 
Q 2509 4147 2053 4147 
L 1259 4147 
z
" transform="scale(0.015625)"/>
      <path id="DejaVuSans-20" transform="scale(0.015625)"/>
      <path id="DejaVuSans-63" d="M 3122 3366 
L 3122 2828 
Q 2878 2963 2633 3030 
Q 2388 3097 2138 3097 
Q 1578 3097 1268 2742 
Q 959 2388 959 1747 
Q 959 1106 1268 751 
Q 1578 397 2138 397 
Q 2388 397 2633 464 
Q 2878 531 3122 666 
L 3122 134 
Q 2881 22 2623 -34 
Q 2366 -91 2075 -91 
Q 1284 -91 818 406 
Q 353 903 353 1747 
Q 353 2603 823 3093 
Q 1294 3584 2113 3584 
Q 2378 3584 2631 3529 
Q 2884 3475 3122 3366 
z
" transform="scale(0.015625)"/>
     </defs>
     <use xlink:href="#DejaVuSans-52"/>
     <use xlink:href="#DejaVuSans-6f" transform="translate(64.982422 0)"/>
     <use xlink:href="#DejaVuSans-6f" transform="translate(126.164062 0)"/>
     <use xlink:href="#DejaVuSans-74" transform="translate(187.345703 0)"/>
     <use xlink:href="#DejaVuSans-20" transform="translate(226.554688 0)"/>
     <use xlink:href="#DejaVuSans-6e" transform="translate(258.341797 0)"/>
     <use xlink:href="#DejaVuSans-6f" transform="translate(321.720703 0)"/>
     <use xlink:href="#DejaVuSans-64" transform="translate(382.902344 0)"/>
     <use xlink:href="#DejaVuSans-65" transform="translate(446.378906 0)"/>
     <use xlink:href="#DejaVuSans-20" transform="translate(507.902344 0)"/>
     <use xlink:href="#DejaVuSans-63" transform="translate(539.689453 0)"/>
     <use xlink:href="#DejaVuSans-6f" transform="translate(594.669922 0)"/>
     <use xlink:href="#DejaVuSans-75" transform="translate(655.851562 0)"/>
     <use xlink:href="#DejaVuSans-6e" transform="translate(719.230469 0)"/>
     <use xlink:href="#DejaVuSans-74" transform="translate(782.609375 0)"/>
    </g>
   </g>
  </g>
  <g id="axes_2">
   <g id="patch_8">
    <path d="M 203.792455 173.68 
L 302.334911 173.68 
L 302.334911 26.16 
L 203.792455 26.16 
z
" style="fill: #ffffff"/>
   </g>
   <g id="matplotlib.axis_3">
    <g id="xtick_2">
     <g id="line2d_14">
      <g>
       <use xlink:href="#m3c69c712bb" x="253.063683" y="173.68" style="stroke: #000000; stroke-width: 0.8"/>
      </g>
     </g>
     <g id="text_11">
      <!-- AMY -->
      <g transform="translate(242.275402 188.278437) scale(0.1 -0.1)">
       <use xlink:href="#DejaVuSans-41"/>
       <use xlink:href="#DejaVuSans-4d" transform="translate(68.408203 0)"/>
       <use xlink:href="#DejaVuSans-59" transform="translate(154.6875 0)"/>
      </g>
     </g>
    </g>
    <g id="text_12">
     <!-- dataset -->
     <g transform="translate(234.159777 201.956562) scale(0.1 -0.1)">
      <use xlink:href="#DejaVuSans-64"/>
      <use xlink:href="#DejaVuSans-61" transform="translate(63.476562 0)"/>
      <use xlink:href="#DejaVuSans-74" transform="translate(124.755859 0)"/>
      <use xlink:href="#DejaVuSans-61" transform="translate(163.964844 0)"/>
      <use xlink:href="#DejaVuSans-73" transform="translate(225.244141 0)"/>
      <use xlink:href="#DejaVuSans-65" transform="translate(277.34375 0)"/>
      <use xlink:href="#DejaVuSans-74" transform="translate(338.867188 0)"/>
     </g>
    </g>
   </g>
   <g id="matplotlib.axis_4">
    <g id="ytick_7">
     <g id="line2d_15">
      <g>
       <use xlink:href="#m725cb46cbf" x="203.792455" y="164.007154" style="stroke: #000000; stroke-width: 0.8"/>
      </g>
     </g>
     <g id="text_13">
      <!-- 4.6 -->
      <g transform="translate(180.88933 167.806372) scale(0.1 -0.1)">
       <defs>
        <path id="DejaVuSans-34" d="M 2419 4116 
L 825 1625 
L 2419 1625 
L 2419 4116 
z
M 2253 4666 
L 3047 4666 
L 3047 1625 
L 3713 1625 
L 3713 1100 
L 3047 1100 
L 3047 0 
L 2419 0 
L 2419 1100 
L 313 1100 
L 313 1709 
L 2253 4666 
z
" transform="scale(0.015625)"/>
        <path id="DejaVuSans-2e" d="M 684 794 
L 1344 794 
L 1344 0 
L 684 0 
L 684 794 
z
" transform="scale(0.015625)"/>
        <path id="DejaVuSans-36" d="M 2113 2584 
Q 1688 2584 1439 2293 
Q 1191 2003 1191 1497 
Q 1191 994 1439 701 
Q 1688 409 2113 409 
Q 2538 409 2786 701 
Q 3034 994 3034 1497 
Q 3034 2003 2786 2293 
Q 2538 2584 2113 2584 
z
M 3366 4563 
L 3366 3988 
Q 3128 4100 2886 4159 
Q 2644 4219 2406 4219 
Q 1781 4219 1451 3797 
Q 1122 3375 1075 2522 
Q 1259 2794 1537 2939 
Q 1816 3084 2150 3084 
Q 2853 3084 3261 2657 
Q 3669 2231 3669 1497 
Q 3669 778 3244 343 
Q 2819 -91 2113 -91 
Q 1303 -91 875 529 
Q 447 1150 447 2328 
Q 447 3434 972 4092 
Q 1497 4750 2381 4750 
Q 2619 4750 2861 4703 
Q 3103 4656 3366 4563 
z
" transform="scale(0.015625)"/>
       </defs>
       <use xlink:href="#DejaVuSans-34"/>
       <use xlink:href="#DejaVuSans-2e" transform="translate(63.623047 0)"/>
       <use xlink:href="#DejaVuSans-36" transform="translate(95.410156 0)"/>
      </g>
     </g>
    </g>
    <g id="ytick_8">
     <g id="line2d_16">
      <g>
       <use xlink:href="#m725cb46cbf" x="203.792455" y="134.670607" style="stroke: #000000; stroke-width: 0.8"/>
      </g>
     </g>
     <g id="text_14">
      <!-- 4.8 -->
      <g transform="translate(180.88933 138.469825) scale(0.1 -0.1)">
       <defs>
        <path id="DejaVuSans-38" d="M 2034 2216 
Q 1584 2216 1326 1975 
Q 1069 1734 1069 1313 
Q 1069 891 1326 650 
Q 1584 409 2034 409 
Q 2484 409 2743 651 
Q 3003 894 3003 1313 
Q 3003 1734 2745 1975 
Q 2488 2216 2034 2216 
z
M 1403 2484 
Q 997 2584 770 2862 
Q 544 3141 544 3541 
Q 544 4100 942 4425 
Q 1341 4750 2034 4750 
Q 2731 4750 3128 4425 
Q 3525 4100 3525 3541 
Q 3525 3141 3298 2862 
Q 3072 2584 2669 2484 
Q 3125 2378 3379 2068 
Q 3634 1759 3634 1313 
Q 3634 634 3220 271 
Q 2806 -91 2034 -91 
Q 1263 -91 848 271 
Q 434 634 434 1313 
Q 434 1759 690 2068 
Q 947 2378 1403 2484 
z
M 1172 3481 
Q 1172 3119 1398 2916 
Q 1625 2713 2034 2713 
Q 2441 2713 2670 2916 
Q 2900 3119 2900 3481 
Q 2900 3844 2670 4047 
Q 2441 4250 2034 4250 
Q 1625 4250 1398 4047 
Q 1172 3844 1172 3481 
z
" transform="scale(0.015625)"/>
       </defs>
       <use xlink:href="#DejaVuSans-34"/>
       <use xlink:href="#DejaVuSans-2e" transform="translate(63.623047 0)"/>
       <use xlink:href="#DejaVuSans-38" transform="translate(95.410156 0)"/>
      </g>
     </g>
    </g>
    <g id="ytick_9">
     <g id="line2d_17">
      <g>
       <use xlink:href="#m725cb46cbf" x="203.792455" y="105.33406" style="stroke: #000000; stroke-width: 0.8"/>
      </g>
     </g>
     <g id="text_15">
      <!-- 5.0 -->
      <g transform="translate(180.88933 109.133278) scale(0.1 -0.1)">
       <use xlink:href="#DejaVuSans-35"/>
       <use xlink:href="#DejaVuSans-2e" transform="translate(63.623047 0)"/>
       <use xlink:href="#DejaVuSans-30" transform="translate(95.410156 0)"/>
      </g>
     </g>
    </g>
    <g id="ytick_10">
     <g id="line2d_18">
      <g>
       <use xlink:href="#m725cb46cbf" x="203.792455" y="75.997513" style="stroke: #000000; stroke-width: 0.8"/>
      </g>
     </g>
     <g id="text_16">
      <!-- 5.2 -->
      <g transform="translate(180.88933 79.796732) scale(0.1 -0.1)">
       <use xlink:href="#DejaVuSans-35"/>
       <use xlink:href="#DejaVuSans-2e" transform="translate(63.623047 0)"/>
       <use xlink:href="#DejaVuSans-32" transform="translate(95.410156 0)"/>
      </g>
     </g>
    </g>
    <g id="ytick_11">
     <g id="line2d_19">
      <g>
       <use xlink:href="#m725cb46cbf" x="203.792455" y="46.660966" style="stroke: #000000; stroke-width: 0.8"/>
      </g>
     </g>
     <g id="text_17">
      <!-- 5.4 -->
      <g transform="translate(180.88933 50.460185) scale(0.1 -0.1)">
       <use xlink:href="#DejaVuSans-35"/>
       <use xlink:href="#DejaVuSans-2e" transform="translate(63.623047 0)"/>
       <use xlink:href="#DejaVuSans-34" transform="translate(95.410156 0)"/>
      </g>
     </g>
    </g>
    <g id="text_18">
     <!-- Time(Seconds) -->
     <g transform="translate(174.809643 137.062187) rotate(-90) scale(0.1 -0.1)">
      <defs>
       <path id="DejaVuSans-54" d="M -19 4666 
L 3928 4666 
L 3928 4134 
L 2272 4134 
L 2272 0 
L 1638 0 
L 1638 4134 
L -19 4134 
L -19 4666 
z
" transform="scale(0.015625)"/>
       <path id="DejaVuSans-69" d="M 603 3500 
L 1178 3500 
L 1178 0 
L 603 0 
L 603 3500 
z
M 603 4863 
L 1178 4863 
L 1178 4134 
L 603 4134 
L 603 4863 
z
" transform="scale(0.015625)"/>
       <path id="DejaVuSans-6d" d="M 3328 2828 
Q 3544 3216 3844 3400 
Q 4144 3584 4550 3584 
Q 5097 3584 5394 3201 
Q 5691 2819 5691 2113 
L 5691 0 
L 5113 0 
L 5113 2094 
Q 5113 2597 4934 2840 
Q 4756 3084 4391 3084 
Q 3944 3084 3684 2787 
Q 3425 2491 3425 1978 
L 3425 0 
L 2847 0 
L 2847 2094 
Q 2847 2600 2669 2842 
Q 2491 3084 2119 3084 
Q 1678 3084 1418 2786 
Q 1159 2488 1159 1978 
L 1159 0 
L 581 0 
L 581 3500 
L 1159 3500 
L 1159 2956 
Q 1356 3278 1631 3431 
Q 1906 3584 2284 3584 
Q 2666 3584 2933 3390 
Q 3200 3197 3328 2828 
z
" transform="scale(0.015625)"/>
       <path id="DejaVuSans-28" d="M 1984 4856 
Q 1566 4138 1362 3434 
Q 1159 2731 1159 2009 
Q 1159 1288 1364 580 
Q 1569 -128 1984 -844 
L 1484 -844 
Q 1016 -109 783 600 
Q 550 1309 550 2009 
Q 550 2706 781 3412 
Q 1013 4119 1484 4856 
L 1984 4856 
z
" transform="scale(0.015625)"/>
       <path id="DejaVuSans-53" d="M 3425 4513 
L 3425 3897 
Q 3066 4069 2747 4153 
Q 2428 4238 2131 4238 
Q 1616 4238 1336 4038 
Q 1056 3838 1056 3469 
Q 1056 3159 1242 3001 
Q 1428 2844 1947 2747 
L 2328 2669 
Q 3034 2534 3370 2195 
Q 3706 1856 3706 1288 
Q 3706 609 3251 259 
Q 2797 -91 1919 -91 
Q 1588 -91 1214 -16 
Q 841 59 441 206 
L 441 856 
Q 825 641 1194 531 
Q 1563 422 1919 422 
Q 2459 422 2753 634 
Q 3047 847 3047 1241 
Q 3047 1584 2836 1778 
Q 2625 1972 2144 2069 
L 1759 2144 
Q 1053 2284 737 2584 
Q 422 2884 422 3419 
Q 422 4038 858 4394 
Q 1294 4750 2059 4750 
Q 2388 4750 2728 4690 
Q 3069 4631 3425 4513 
z
" transform="scale(0.015625)"/>
       <path id="DejaVuSans-29" d="M 513 4856 
L 1013 4856 
Q 1481 4119 1714 3412 
Q 1947 2706 1947 2009 
Q 1947 1309 1714 600 
Q 1481 -109 1013 -844 
L 513 -844 
Q 928 -128 1133 580 
Q 1338 1288 1338 2009 
Q 1338 2731 1133 3434 
Q 928 4138 513 4856 
z
" transform="scale(0.015625)"/>
      </defs>
      <use xlink:href="#DejaVuSans-54"/>
      <use xlink:href="#DejaVuSans-69" transform="translate(57.958984 0)"/>
      <use xlink:href="#DejaVuSans-6d" transform="translate(85.742188 0)"/>
      <use xlink:href="#DejaVuSans-65" transform="translate(183.154297 0)"/>
      <use xlink:href="#DejaVuSans-28" transform="translate(244.677734 0)"/>
      <use xlink:href="#DejaVuSans-53" transform="translate(283.691406 0)"/>
      <use xlink:href="#DejaVuSans-65" transform="translate(347.167969 0)"/>
      <use xlink:href="#DejaVuSans-63" transform="translate(408.691406 0)"/>
      <use xlink:href="#DejaVuSans-6f" transform="translate(463.671875 0)"/>
      <use xlink:href="#DejaVuSans-6e" transform="translate(524.853516 0)"/>
      <use xlink:href="#DejaVuSans-64" transform="translate(588.232422 0)"/>
      <use xlink:href="#DejaVuSans-73" transform="translate(651.708984 0)"/>
      <use xlink:href="#DejaVuSans-29" transform="translate(703.808594 0)"/>
     </g>
    </g>
   </g>
   <g id="patch_9">
    <path d="M 213.646701 140.935426 
L 292.480665 140.935426 
L 292.480665 117.596736 
L 213.646701 117.596736 
L 213.646701 140.935426 
z
" clip-path="url(#p179e91bde1)" style="fill: #3274a1; stroke: #3f3f3f; stroke-linejoin: miter"/>
   </g>
   <g id="line2d_20">
    <path d="M 253.063683 140.935426 
L 253.063683 166.974545 
" clip-path="url(#p179e91bde1)" style="fill: none; stroke: #3f3f3f"/>
   </g>
   <g id="line2d_21">
    <path d="M 253.063683 117.596736 
L 253.063683 84.940759 
" clip-path="url(#p179e91bde1)" style="fill: none; stroke: #3f3f3f"/>
   </g>
   <g id="line2d_22">
    <path d="M 233.355192 166.974545 
L 272.772174 166.974545 
" clip-path="url(#p179e91bde1)" style="fill: none; stroke: #3f3f3f; stroke-linecap: square"/>
   </g>
   <g id="line2d_23">
    <path d="M 233.355192 84.940759 
L 272.772174 84.940759 
" clip-path="url(#p179e91bde1)" style="fill: none; stroke: #3f3f3f; stroke-linecap: square"/>
   </g>
   <g id="line2d_24">
    <g clip-path="url(#p179e91bde1)">
     <use xlink:href="#m727aec5bd0" x="253.063683" y="70.593721" style="fill-opacity: 0; stroke: #3f3f3f"/>
     <use xlink:href="#m727aec5bd0" x="253.063683" y="56.993298" style="fill-opacity: 0; stroke: #3f3f3f"/>
     <use xlink:href="#m727aec5bd0" x="253.063683" y="45.565246" style="fill-opacity: 0; stroke: #3f3f3f"/>
     <use xlink:href="#m727aec5bd0" x="253.063683" y="79.347746" style="fill-opacity: 0; stroke: #3f3f3f"/>
     <use xlink:href="#m727aec5bd0" x="253.063683" y="49.494876" style="fill-opacity: 0; stroke: #3f3f3f"/>
     <use xlink:href="#m727aec5bd0" x="253.063683" y="52.925785" style="fill-opacity: 0; stroke: #3f3f3f"/>
     <use xlink:href="#m727aec5bd0" x="253.063683" y="82.086313" style="fill-opacity: 0; stroke: #3f3f3f"/>
     <use xlink:href="#m727aec5bd0" x="253.063683" y="77.297122" style="fill-opacity: 0; stroke: #3f3f3f"/>
     <use xlink:href="#m727aec5bd0" x="253.063683" y="35.631891" style="fill-opacity: 0; stroke: #3f3f3f"/>
     <use xlink:href="#m727aec5bd0" x="253.063683" y="33.664875" style="fill-opacity: 0; stroke: #3f3f3f"/>
     <use xlink:href="#m727aec5bd0" x="253.063683" y="71.104177" style="fill-opacity: 0; stroke: #3f3f3f"/>
     <use xlink:href="#m727aec5bd0" x="253.063683" y="57.618166" style="fill-opacity: 0; stroke: #3f3f3f"/>
     <use xlink:href="#m727aec5bd0" x="253.063683" y="69.879376" style="fill-opacity: 0; stroke: #3f3f3f"/>
     <use xlink:href="#m727aec5bd0" x="253.063683" y="33.997845" style="fill-opacity: 0; stroke: #3f3f3f"/>
     <use xlink:href="#m727aec5bd0" x="253.063683" y="81.589059" style="fill-opacity: 0; stroke: #3f3f3f"/>
     <use xlink:href="#m727aec5bd0" x="253.063683" y="49.534481" style="fill-opacity: 0; stroke: #3f3f3f"/>
     <use xlink:href="#m727aec5bd0" x="253.063683" y="59.57198" style="fill-opacity: 0; stroke: #3f3f3f"/>
     <use xlink:href="#m727aec5bd0" x="253.063683" y="53.915894" style="fill-opacity: 0; stroke: #3f3f3f"/>
     <use xlink:href="#m727aec5bd0" x="253.063683" y="47.33424" style="fill-opacity: 0; stroke: #3f3f3f"/>
     <use xlink:href="#m727aec5bd0" x="253.063683" y="32.865455" style="fill-opacity: 0; stroke: #3f3f3f"/>
     <use xlink:href="#m727aec5bd0" x="253.063683" y="80.172103" style="fill-opacity: 0; stroke: #3f3f3f"/>
    </g>
   </g>
   <g id="line2d_25">
    <path d="M 213.646701 129.86528 
L 292.480665 129.86528 
" clip-path="url(#p179e91bde1)" style="fill: none; stroke: #3f3f3f"/>
   </g>
   <g id="patch_10">
    <path d="M 203.792455 173.68 
L 203.792455 26.16 
" style="fill: none; stroke: #000000; stroke-width: 0.8; stroke-linejoin: miter; stroke-linecap: square"/>
   </g>
   <g id="patch_11">
    <path d="M 302.334911 173.68 
L 302.334911 26.16 
" style="fill: none; stroke: #000000; stroke-width: 0.8; stroke-linejoin: miter; stroke-linecap: square"/>
   </g>
   <g id="patch_12">
    <path d="M 203.792455 173.68 
L 302.334911 173.68 
" style="fill: none; stroke: #000000; stroke-width: 0.8; stroke-linejoin: miter; stroke-linecap: square"/>
   </g>
   <g id="patch_13">
    <path d="M 203.792455 26.16 
L 302.334911 26.16 
" style="fill: none; stroke: #000000; stroke-width: 0.8; stroke-linejoin: miter; stroke-linecap: square"/>
   </g>
   <g id="text_19">
    <!-- Run time -->
    <g transform="translate(226.097433 20.16) scale(0.12 -0.12)">
     <use xlink:href="#DejaVuSans-52"/>
     <use xlink:href="#DejaVuSans-75" transform="translate(64.982422 0)"/>
     <use xlink:href="#DejaVuSans-6e" transform="translate(128.361328 0)"/>
     <use xlink:href="#DejaVuSans-20" transform="translate(191.740234 0)"/>
     <use xlink:href="#DejaVuSans-74" transform="translate(223.527344 0)"/>
     <use xlink:href="#DejaVuSans-69" transform="translate(262.736328 0)"/>
     <use xlink:href="#DejaVuSans-6d" transform="translate(290.519531 0)"/>
     <use xlink:href="#DejaVuSans-65" transform="translate(387.931641 0)"/>
    </g>
   </g>
  </g>
  <g id="axes_3">
   <g id="patch_14">
    <path d="M 356.579911 173.68 
L 455.122366 173.68 
L 455.122366 26.16 
L 356.579911 26.16 
z
" style="fill: #ffffff"/>
   </g>
   <g id="matplotlib.axis_5">
    <g id="xtick_3">
     <g id="line2d_26">
      <g>
       <use xlink:href="#m3c69c712bb" x="405.851139" y="173.68" style="stroke: #000000; stroke-width: 0.8"/>
      </g>
     </g>
     <g id="text_20">
      <!-- AMY -->
      <g transform="translate(395.062857 188.278437) scale(0.1 -0.1)">
       <use xlink:href="#DejaVuSans-41"/>
       <use xlink:href="#DejaVuSans-4d" transform="translate(68.408203 0)"/>
       <use xlink:href="#DejaVuSans-59" transform="translate(154.6875 0)"/>
      </g>
     </g>
    </g>
    <g id="text_21">
     <!-- dataset -->
     <g transform="translate(386.947232 201.956562) scale(0.1 -0.1)">
      <use xlink:href="#DejaVuSans-64"/>
      <use xlink:href="#DejaVuSans-61" transform="translate(63.476562 0)"/>
      <use xlink:href="#DejaVuSans-74" transform="translate(124.755859 0)"/>
      <use xlink:href="#DejaVuSans-61" transform="translate(163.964844 0)"/>
      <use xlink:href="#DejaVuSans-73" transform="translate(225.244141 0)"/>
      <use xlink:href="#DejaVuSans-65" transform="translate(277.34375 0)"/>
      <use xlink:href="#DejaVuSans-74" transform="translate(338.867188 0)"/>
     </g>
    </g>
   </g>
   <g id="matplotlib.axis_6">
    <g id="ytick_12">
     <g id="line2d_27">
      <g>
       <use xlink:href="#m725cb46cbf" x="356.579911" y="169.251164" style="stroke: #000000; stroke-width: 0.8"/>
      </g>
     </g>
     <g id="text_22">
      <!-- 0 -->
      <g transform="translate(343.217411 173.050383) scale(0.1 -0.1)">
       <use xlink:href="#DejaVuSans-30"/>
      </g>
     </g>
    </g>
    <g id="ytick_13">
     <g id="line2d_28">
      <g>
       <use xlink:href="#m725cb46cbf" x="356.579911" y="136.728043" style="stroke: #000000; stroke-width: 0.8"/>
      </g>
     </g>
     <g id="text_23">
      <!-- 20 -->
      <g transform="translate(336.854911 140.527261) scale(0.1 -0.1)">
       <use xlink:href="#DejaVuSans-32"/>
       <use xlink:href="#DejaVuSans-30" transform="translate(63.623047 0)"/>
      </g>
     </g>
    </g>
    <g id="ytick_14">
     <g id="line2d_29">
      <g>
       <use xlink:href="#m725cb46cbf" x="356.579911" y="104.204921" style="stroke: #000000; stroke-width: 0.8"/>
      </g>
     </g>
     <g id="text_24">
      <!-- 40 -->
      <g transform="translate(336.854911 108.00414) scale(0.1 -0.1)">
       <use xlink:href="#DejaVuSans-34"/>
       <use xlink:href="#DejaVuSans-30" transform="translate(63.623047 0)"/>
      </g>
     </g>
    </g>
    <g id="ytick_15">
     <g id="line2d_30">
      <g>
       <use xlink:href="#m725cb46cbf" x="356.579911" y="71.6818" style="stroke: #000000; stroke-width: 0.8"/>
      </g>
     </g>
     <g id="text_25">
      <!-- 60 -->
      <g transform="translate(336.854911 75.481019) scale(0.1 -0.1)">
       <use xlink:href="#DejaVuSans-36"/>
       <use xlink:href="#DejaVuSans-30" transform="translate(63.623047 0)"/>
      </g>
     </g>
    </g>
    <g id="ytick_16">
     <g id="line2d_31">
      <g>
       <use xlink:href="#m725cb46cbf" x="356.579911" y="39.158679" style="stroke: #000000; stroke-width: 0.8"/>
      </g>
     </g>
     <g id="text_26">
      <!-- 80 -->
      <g transform="translate(336.854911 42.957897) scale(0.1 -0.1)">
       <use xlink:href="#DejaVuSans-38"/>
       <use xlink:href="#DejaVuSans-30" transform="translate(63.623047 0)"/>
      </g>
     </g>
    </g>
    <g id="text_27">
     <!-- Percent -->
     <g transform="translate(330.775223 118.727812) rotate(-90) scale(0.1 -0.1)">
      <defs>
       <path id="DejaVuSans-50" d="M 1259 4147 
L 1259 2394 
L 2053 2394 
Q 2494 2394 2734 2622 
Q 2975 2850 2975 3272 
Q 2975 3691 2734 3919 
Q 2494 4147 2053 4147 
L 1259 4147 
z
M 628 4666 
L 2053 4666 
Q 2838 4666 3239 4311 
Q 3641 3956 3641 3272 
Q 3641 2581 3239 2228 
Q 2838 1875 2053 1875 
L 1259 1875 
L 1259 0 
L 628 0 
L 628 4666 
z
" transform="scale(0.015625)"/>
       <path id="DejaVuSans-72" d="M 2631 2963 
Q 2534 3019 2420 3045 
Q 2306 3072 2169 3072 
Q 1681 3072 1420 2755 
Q 1159 2438 1159 1844 
L 1159 0 
L 581 0 
L 581 3500 
L 1159 3500 
L 1159 2956 
Q 1341 3275 1631 3429 
Q 1922 3584 2338 3584 
Q 2397 3584 2469 3576 
Q 2541 3569 2628 3553 
L 2631 2963 
z
" transform="scale(0.015625)"/>
      </defs>
      <use xlink:href="#DejaVuSans-50"/>
      <use xlink:href="#DejaVuSans-65" transform="translate(56.677734 0)"/>
      <use xlink:href="#DejaVuSans-72" transform="translate(118.201172 0)"/>
      <use xlink:href="#DejaVuSans-63" transform="translate(157.064453 0)"/>
      <use xlink:href="#DejaVuSans-65" transform="translate(212.044922 0)"/>
      <use xlink:href="#DejaVuSans-6e" transform="translate(273.568359 0)"/>
      <use xlink:href="#DejaVuSans-74" transform="translate(336.947266 0)"/>
     </g>
    </g>
   </g>
   <g id="patch_15">
    <path d="M 366.434156 157.681064 
L 445.268121 157.681064 
L 445.268121 149.452714 
L 366.434156 149.452714 
L 366.434156 157.681064 
z
" clip-path="url(#p67262261d8)" style="fill: #3274a1; stroke: #3f3f3f; stroke-linejoin: miter"/>
   </g>
   <g id="line2d_32">
    <path d="M 405.851139 157.681064 
L 405.851139 166.974545 
" clip-path="url(#p67262261d8)" style="fill: none; stroke: #3f3f3f"/>
   </g>
   <g id="line2d_33">
    <path d="M 405.851139 149.452714 
L 405.851139 137.199628 
" clip-path="url(#p67262261d8)" style="fill: none; stroke: #3f3f3f"/>
   </g>
   <g id="line2d_34">
    <path d="M 386.142648 166.974545 
L 425.55963 166.974545 
" clip-path="url(#p67262261d8)" style="fill: none; stroke: #3f3f3f; stroke-linecap: square"/>
   </g>
   <g id="line2d_35">
    <path d="M 386.142648 137.199628 
L 425.55963 137.199628 
" clip-path="url(#p67262261d8)" style="fill: none; stroke: #3f3f3f; stroke-linecap: square"/>
   </g>
   <g id="line2d_36">
    <g clip-path="url(#p67262261d8)">
     <use xlink:href="#m727aec5bd0" x="405.851139" y="123.686271" style="fill-opacity: 0; stroke: #3f3f3f"/>
     <use xlink:href="#m727aec5bd0" x="405.851139" y="137.053274" style="fill-opacity: 0; stroke: #3f3f3f"/>
     <use xlink:href="#m727aec5bd0" x="405.851139" y="135.199456" style="fill-opacity: 0; stroke: #3f3f3f"/>
     <use xlink:href="#m727aec5bd0" x="405.851139" y="136.012534" style="fill-opacity: 0; stroke: #3f3f3f"/>
     <use xlink:href="#m727aec5bd0" x="405.851139" y="126.971106" style="fill-opacity: 0; stroke: #3f3f3f"/>
     <use xlink:href="#m727aec5bd0" x="405.851139" y="113.587842" style="fill-opacity: 0; stroke: #3f3f3f"/>
     <use xlink:href="#m727aec5bd0" x="405.851139" y="134.988056" style="fill-opacity: 0; stroke: #3f3f3f"/>
     <use xlink:href="#m727aec5bd0" x="405.851139" y="110.156652" style="fill-opacity: 0; stroke: #3f3f3f"/>
     <use xlink:href="#m727aec5bd0" x="405.851139" y="131.556866" style="fill-opacity: 0; stroke: #3f3f3f"/>
     <use xlink:href="#m727aec5bd0" x="405.851139" y="115.018859" style="fill-opacity: 0; stroke: #3f3f3f"/>
     <use xlink:href="#m727aec5bd0" x="405.851139" y="122.417869" style="fill-opacity: 0; stroke: #3f3f3f"/>
     <use xlink:href="#m727aec5bd0" x="405.851139" y="119.750973" style="fill-opacity: 0; stroke: #3f3f3f"/>
     <use xlink:href="#m727aec5bd0" x="405.851139" y="134.061147" style="fill-opacity: 0; stroke: #3f3f3f"/>
     <use xlink:href="#m727aec5bd0" x="405.851139" y="126.483259" style="fill-opacity: 0; stroke: #3f3f3f"/>
     <use xlink:href="#m727aec5bd0" x="405.851139" y="119.539573" style="fill-opacity: 0; stroke: #3f3f3f"/>
     <use xlink:href="#m727aec5bd0" x="405.851139" y="108.888251" style="fill-opacity: 0; stroke: #3f3f3f"/>
     <use xlink:href="#m727aec5bd0" x="405.851139" y="107.132002" style="fill-opacity: 0; stroke: #3f3f3f"/>
     <use xlink:href="#m727aec5bd0" x="405.851139" y="134.646563" style="fill-opacity: 0; stroke: #3f3f3f"/>
     <use xlink:href="#m727aec5bd0" x="405.851139" y="104.595199" style="fill-opacity: 0; stroke: #3f3f3f"/>
     <use xlink:href="#m727aec5bd0" x="405.851139" y="136.061319" style="fill-opacity: 0; stroke: #3f3f3f"/>
     <use xlink:href="#m727aec5bd0" x="405.851139" y="87.780745" style="fill-opacity: 0; stroke: #3f3f3f"/>
     <use xlink:href="#m727aec5bd0" x="405.851139" y="120.076204" style="fill-opacity: 0; stroke: #3f3f3f"/>
     <use xlink:href="#m727aec5bd0" x="405.851139" y="102.806427" style="fill-opacity: 0; stroke: #3f3f3f"/>
     <use xlink:href="#m727aec5bd0" x="405.851139" y="124.92215" style="fill-opacity: 0; stroke: #3f3f3f"/>
     <use xlink:href="#m727aec5bd0" x="405.851139" y="124.483087" style="fill-opacity: 0; stroke: #3f3f3f"/>
     <use xlink:href="#m727aec5bd0" x="405.851139" y="119.311911" style="fill-opacity: 0; stroke: #3f3f3f"/>
     <use xlink:href="#m727aec5bd0" x="405.851139" y="114.709889" style="fill-opacity: 0; stroke: #3f3f3f"/>
     <use xlink:href="#m727aec5bd0" x="405.851139" y="109.863944" style="fill-opacity: 0; stroke: #3f3f3f"/>
     <use xlink:href="#m727aec5bd0" x="405.851139" y="78.609225" style="fill-opacity: 0; stroke: #3f3f3f"/>
     <use xlink:href="#m727aec5bd0" x="405.851139" y="115.604275" style="fill-opacity: 0; stroke: #3f3f3f"/>
     <use xlink:href="#m727aec5bd0" x="405.851139" y="133.817223" style="fill-opacity: 0; stroke: #3f3f3f"/>
     <use xlink:href="#m727aec5bd0" x="405.851139" y="32.865455" style="fill-opacity: 0; stroke: #3f3f3f"/>
     <use xlink:href="#m727aec5bd0" x="405.851139" y="88.854008" style="fill-opacity: 0; stroke: #3f3f3f"/>
     <use xlink:href="#m727aec5bd0" x="405.851139" y="112.238132" style="fill-opacity: 0; stroke: #3f3f3f"/>
     <use xlink:href="#m727aec5bd0" x="405.851139" y="112.221871" style="fill-opacity: 0; stroke: #3f3f3f"/>
     <use xlink:href="#m727aec5bd0" x="405.851139" y="115.539229" style="fill-opacity: 0; stroke: #3f3f3f"/>
     <use xlink:href="#m727aec5bd0" x="405.851139" y="122.7431" style="fill-opacity: 0; stroke: #3f3f3f"/>
     <use xlink:href="#m727aec5bd0" x="405.851139" y="113.034949" style="fill-opacity: 0; stroke: #3f3f3f"/>
     <use xlink:href="#m727aec5bd0" x="405.851139" y="132.126021" style="fill-opacity: 0; stroke: #3f3f3f"/>
     <use xlink:href="#m727aec5bd0" x="405.851139" y="121.230775" style="fill-opacity: 0; stroke: #3f3f3f"/>
     <use xlink:href="#m727aec5bd0" x="405.851139" y="128.938755" style="fill-opacity: 0; stroke: #3f3f3f"/>
     <use xlink:href="#m727aec5bd0" x="405.851139" y="135.183194" style="fill-opacity: 0; stroke: #3f3f3f"/>
     <use xlink:href="#m727aec5bd0" x="405.851139" y="127.816707" style="fill-opacity: 0; stroke: #3f3f3f"/>
     <use xlink:href="#m727aec5bd0" x="405.851139" y="129.605479" style="fill-opacity: 0; stroke: #3f3f3f"/>
     <use xlink:href="#m727aec5bd0" x="405.851139" y="124.61318" style="fill-opacity: 0; stroke: #3f3f3f"/>
     <use xlink:href="#m727aec5bd0" x="405.851139" y="129.247725" style="fill-opacity: 0; stroke: #3f3f3f"/>
     <use xlink:href="#m727aec5bd0" x="405.851139" y="134.776655" style="fill-opacity: 0; stroke: #3f3f3f"/>
     <use xlink:href="#m727aec5bd0" x="405.851139" y="133.914793" style="fill-opacity: 0; stroke: #3f3f3f"/>
     <use xlink:href="#m727aec5bd0" x="405.851139" y="126.857275" style="fill-opacity: 0; stroke: #3f3f3f"/>
    </g>
   </g>
   <g id="line2d_37">
    <path d="M 366.434156 154.192959 
L 445.268121 154.192959 
" clip-path="url(#p67262261d8)" style="fill: none; stroke: #3f3f3f"/>
   </g>
   <g id="patch_16">
    <path d="M 356.579911 173.68 
L 356.579911 26.16 
" style="fill: none; stroke: #000000; stroke-width: 0.8; stroke-linejoin: miter; stroke-linecap: square"/>
   </g>
   <g id="patch_17">
    <path d="M 455.122366 173.68 
L 455.122366 26.16 
" style="fill: none; stroke: #000000; stroke-width: 0.8; stroke-linejoin: miter; stroke-linecap: square"/>
   </g>
   <g id="patch_18">
    <path d="M 356.579911 173.68 
L 455.122366 173.68 
" style="fill: none; stroke: #000000; stroke-width: 0.8; stroke-linejoin: miter; stroke-linecap: square"/>
   </g>
   <g id="patch_19">
    <path d="M 356.579911 26.16 
L 455.122366 26.16 
" style="fill: none; stroke: #000000; stroke-width: 0.8; stroke-linejoin: miter; stroke-linecap: square"/>
   </g>
   <g id="text_28">
    <!-- Gene Frequency Coverage -->
    <g transform="translate(326.458014 20.16) scale(0.12 -0.12)">
     <defs>
      <path id="DejaVuSans-47" d="M 3809 666 
L 3809 1919 
L 2778 1919 
L 2778 2438 
L 4434 2438 
L 4434 434 
Q 4069 175 3628 42 
Q 3188 -91 2688 -91 
Q 1594 -91 976 548 
Q 359 1188 359 2328 
Q 359 3472 976 4111 
Q 1594 4750 2688 4750 
Q 3144 4750 3555 4637 
Q 3966 4525 4313 4306 
L 4313 3634 
Q 3963 3931 3569 4081 
Q 3175 4231 2741 4231 
Q 1884 4231 1454 3753 
Q 1025 3275 1025 2328 
Q 1025 1384 1454 906 
Q 1884 428 2741 428 
Q 3075 428 3337 486 
Q 3600 544 3809 666 
z
" transform="scale(0.015625)"/>
      <path id="DejaVuSans-46" d="M 628 4666 
L 3309 4666 
L 3309 4134 
L 1259 4134 
L 1259 2759 
L 3109 2759 
L 3109 2228 
L 1259 2228 
L 1259 0 
L 628 0 
L 628 4666 
z
" transform="scale(0.015625)"/>
      <path id="DejaVuSans-71" d="M 947 1747 
Q 947 1113 1208 752 
Q 1469 391 1925 391 
Q 2381 391 2643 752 
Q 2906 1113 2906 1747 
Q 2906 2381 2643 2742 
Q 2381 3103 1925 3103 
Q 1469 3103 1208 2742 
Q 947 2381 947 1747 
z
M 2906 525 
Q 2725 213 2448 61 
Q 2172 -91 1784 -91 
Q 1150 -91 751 415 
Q 353 922 353 1747 
Q 353 2572 751 3078 
Q 1150 3584 1784 3584 
Q 2172 3584 2448 3432 
Q 2725 3281 2906 2969 
L 2906 3500 
L 3481 3500 
L 3481 -1331 
L 2906 -1331 
L 2906 525 
z
" transform="scale(0.015625)"/>
      <path id="DejaVuSans-79" d="M 2059 -325 
Q 1816 -950 1584 -1140 
Q 1353 -1331 966 -1331 
L 506 -1331 
L 506 -850 
L 844 -850 
Q 1081 -850 1212 -737 
Q 1344 -625 1503 -206 
L 1606 56 
L 191 3500 
L 800 3500 
L 1894 763 
L 2988 3500 
L 3597 3500 
L 2059 -325 
z
" transform="scale(0.015625)"/>
      <path id="DejaVuSans-76" d="M 191 3500 
L 800 3500 
L 1894 563 
L 2988 3500 
L 3597 3500 
L 2284 0 
L 1503 0 
L 191 3500 
z
" transform="scale(0.015625)"/>
      <path id="DejaVuSans-67" d="M 2906 1791 
Q 2906 2416 2648 2759 
Q 2391 3103 1925 3103 
Q 1463 3103 1205 2759 
Q 947 2416 947 1791 
Q 947 1169 1205 825 
Q 1463 481 1925 481 
Q 2391 481 2648 825 
Q 2906 1169 2906 1791 
z
M 3481 434 
Q 3481 -459 3084 -895 
Q 2688 -1331 1869 -1331 
Q 1566 -1331 1297 -1286 
Q 1028 -1241 775 -1147 
L 775 -588 
Q 1028 -725 1275 -790 
Q 1522 -856 1778 -856 
Q 2344 -856 2625 -561 
Q 2906 -266 2906 331 
L 2906 616 
Q 2728 306 2450 153 
Q 2172 0 1784 0 
Q 1141 0 747 490 
Q 353 981 353 1791 
Q 353 2603 747 3093 
Q 1141 3584 1784 3584 
Q 2172 3584 2450 3431 
Q 2728 3278 2906 2969 
L 2906 3500 
L 3481 3500 
L 3481 434 
z
" transform="scale(0.015625)"/>
     </defs>
     <use xlink:href="#DejaVuSans-47"/>
     <use xlink:href="#DejaVuSans-65" transform="translate(77.490234 0)"/>
     <use xlink:href="#DejaVuSans-6e" transform="translate(139.013672 0)"/>
     <use xlink:href="#DejaVuSans-65" transform="translate(202.392578 0)"/>
     <use xlink:href="#DejaVuSans-20" transform="translate(263.916016 0)"/>
     <use xlink:href="#DejaVuSans-46" transform="translate(295.703125 0)"/>
     <use xlink:href="#DejaVuSans-72" transform="translate(345.972656 0)"/>
     <use xlink:href="#DejaVuSans-65" transform="translate(384.835938 0)"/>
     <use xlink:href="#DejaVuSans-71" transform="translate(446.359375 0)"/>
     <use xlink:href="#DejaVuSans-75" transform="translate(509.835938 0)"/>
     <use xlink:href="#DejaVuSans-65" transform="translate(573.214844 0)"/>
     <use xlink:href="#DejaVuSans-6e" transform="translate(634.738281 0)"/>
     <use xlink:href="#DejaVuSans-63" transform="translate(698.117188 0)"/>
     <use xlink:href="#DejaVuSans-79" transform="translate(753.097656 0)"/>
     <use xlink:href="#DejaVuSans-20" transform="translate(812.277344 0)"/>
     <use xlink:href="#DejaVuSans-43" transform="translate(844.064453 0)"/>
     <use xlink:href="#DejaVuSans-6f" transform="translate(913.888672 0)"/>
     <use xlink:href="#DejaVuSans-76" transform="translate(975.070312 0)"/>
     <use xlink:href="#DejaVuSans-65" transform="translate(1034.25 0)"/>
     <use xlink:href="#DejaVuSans-72" transform="translate(1095.773438 0)"/>
     <use xlink:href="#DejaVuSans-61" transform="translate(1136.886719 0)"/>
     <use xlink:href="#DejaVuSans-67" transform="translate(1198.166016 0)"/>
     <use xlink:href="#DejaVuSans-65" transform="translate(1261.642578 0)"/>
    </g>
   </g>
  </g>
  <g id="axes_4">
   <g id="patch_20">
    <path d="M 509.367366 173.68 
L 706.452277 173.68 
L 706.452277 26.16 
L 509.367366 26.16 
z
" style="fill: #ffffff"/>
   </g>
   <g id="FillBetweenPolyCollection_1">
    <defs>
     <path id="m4281792a29" d="M 518.325771 -42.340287 
L 518.325771 -42.32 
L 519.226114 -42.32 
L 520.126456 -42.32 
L 521.026798 -42.32 
L 521.92714 -42.32 
L 522.827482 -42.32 
L 523.727825 -42.32 
L 524.628167 -42.32 
L 525.528509 -42.32 
L 526.428851 -42.32 
L 527.329193 -42.32 
L 528.229536 -42.32 
L 529.129878 -42.32 
L 530.03022 -42.32 
L 530.930562 -42.32 
L 531.830905 -42.32 
L 532.731247 -42.32 
L 533.631589 -42.32 
L 534.531931 -42.32 
L 535.432273 -42.32 
L 536.332616 -42.32 
L 537.232958 -42.32 
L 538.1333 -42.32 
L 539.033642 -42.32 
L 539.933985 -42.32 
L 540.834327 -42.32 
L 541.734669 -42.32 
L 542.635011 -42.32 
L 543.535353 -42.32 
L 544.435696 -42.32 
L 545.336038 -42.32 
L 546.23638 -42.32 
L 547.136722 -42.32 
L 548.037064 -42.32 
L 548.937407 -42.32 
L 549.837749 -42.32 
L 550.738091 -42.32 
L 551.638433 -42.32 
L 552.538776 -42.32 
L 553.439118 -42.32 
L 554.33946 -42.32 
L 555.239802 -42.32 
L 556.140144 -42.32 
L 557.040487 -42.32 
L 557.940829 -42.32 
L 558.841171 -42.32 
L 559.741513 -42.32 
L 560.641855 -42.32 
L 561.542198 -42.32 
L 562.44254 -42.32 
L 563.342882 -42.32 
L 564.243224 -42.32 
L 565.143567 -42.32 
L 566.043909 -42.32 
L 566.944251 -42.32 
L 567.844593 -42.32 
L 568.744935 -42.32 
L 569.645278 -42.32 
L 570.54562 -42.32 
L 571.445962 -42.32 
L 572.346304 -42.32 
L 573.246646 -42.32 
L 574.146989 -42.32 
L 575.047331 -42.32 
L 575.947673 -42.32 
L 576.848015 -42.32 
L 577.748358 -42.32 
L 578.6487 -42.32 
L 579.549042 -42.32 
L 580.449384 -42.32 
L 581.349726 -42.32 
L 582.250069 -42.32 
L 583.150411 -42.32 
L 584.050753 -42.32 
L 584.951095 -42.32 
L 585.851437 -42.32 
L 586.75178 -42.32 
L 587.652122 -42.32 
L 588.552464 -42.32 
L 589.452806 -42.32 
L 590.353149 -42.32 
L 591.253491 -42.32 
L 592.153833 -42.32 
L 593.054175 -42.32 
L 593.954517 -42.32 
L 594.85486 -42.32 
L 595.755202 -42.32 
L 596.655544 -42.32 
L 597.555886 -42.32 
L 598.456228 -42.32 
L 599.356571 -42.32 
L 600.256913 -42.32 
L 601.157255 -42.32 
L 602.057597 -42.32 
L 602.95794 -42.32 
L 603.858282 -42.32 
L 604.758624 -42.32 
L 605.658966 -42.32 
L 606.559308 -42.32 
L 607.459651 -42.32 
L 608.359993 -42.32 
L 609.260335 -42.32 
L 610.160677 -42.32 
L 611.061019 -42.32 
L 611.961362 -42.32 
L 612.861704 -42.32 
L 613.762046 -42.32 
L 614.662388 -42.32 
L 615.562731 -42.32 
L 616.463073 -42.32 
L 617.363415 -42.32 
L 618.263757 -42.32 
L 619.164099 -42.32 
L 620.064442 -42.32 
L 620.964784 -42.32 
L 621.865126 -42.32 
L 622.765468 -42.32 
L 623.665811 -42.32 
L 624.566153 -42.32 
L 625.466495 -42.32 
L 626.366837 -42.32 
L 627.267179 -42.32 
L 628.167522 -42.32 
L 629.067864 -42.32 
L 629.968206 -42.32 
L 630.868548 -42.32 
L 631.76889 -42.32 
L 632.669233 -42.32 
L 633.569575 -42.32 
L 634.469917 -42.32 
L 635.370259 -42.32 
L 636.270602 -42.32 
L 637.170944 -42.32 
L 638.071286 -42.32 
L 638.971628 -42.32 
L 639.87197 -42.32 
L 640.772313 -42.32 
L 641.672655 -42.32 
L 642.572997 -42.32 
L 643.473339 -42.32 
L 644.373681 -42.32 
L 645.274024 -42.32 
L 646.174366 -42.32 
L 647.074708 -42.32 
L 647.97505 -42.32 
L 648.875393 -42.32 
L 649.775735 -42.32 
L 650.676077 -42.32 
L 651.576419 -42.32 
L 652.476761 -42.32 
L 653.377104 -42.32 
L 654.277446 -42.32 
L 655.177788 -42.32 
L 656.07813 -42.32 
L 656.978472 -42.32 
L 657.878815 -42.32 
L 658.779157 -42.32 
L 659.679499 -42.32 
L 660.579841 -42.32 
L 661.480184 -42.32 
L 662.380526 -42.32 
L 663.280868 -42.32 
L 664.18121 -42.32 
L 665.081552 -42.32 
L 665.981895 -42.32 
L 666.882237 -42.32 
L 667.782579 -42.32 
L 668.682921 -42.32 
L 669.583263 -42.32 
L 670.483606 -42.32 
L 671.383948 -42.32 
L 672.28429 -42.32 
L 673.184632 -42.32 
L 674.084975 -42.32 
L 674.985317 -42.32 
L 675.885659 -42.32 
L 676.786001 -42.32 
L 677.686343 -42.32 
L 678.586686 -42.32 
L 679.487028 -42.32 
L 680.38737 -42.32 
L 681.287712 -42.32 
L 682.188054 -42.32 
L 683.088397 -42.32 
L 683.988739 -42.32 
L 684.889081 -42.32 
L 685.789423 -42.32 
L 686.689766 -42.32 
L 687.590108 -42.32 
L 688.49045 -42.32 
L 689.390792 -42.32 
L 690.291134 -42.32 
L 691.191477 -42.32 
L 692.091819 -42.32 
L 692.992161 -42.32 
L 693.892503 -42.32 
L 694.792845 -42.32 
L 695.693188 -42.32 
L 696.59353 -42.32 
L 697.493872 -42.32 
L 697.493872 -42.331278 
L 697.493872 -42.331278 
L 696.59353 -42.336812 
L 695.693188 -42.344645 
L 694.792845 -42.355529 
L 693.892503 -42.370375 
L 692.992161 -42.39025 
L 692.091819 -42.416364 
L 691.191477 -42.45003 
L 690.291134 -42.492615 
L 689.390792 -42.545456 
L 688.49045 -42.609764 
L 687.590108 -42.686512 
L 686.689766 -42.776311 
L 685.789423 -42.879304 
L 684.889081 -42.995065 
L 683.988739 -43.122551 
L 683.088397 -43.260087 
L 682.188054 -43.405423 
L 681.287712 -43.555849 
L 680.38737 -43.708368 
L 679.487028 -43.859921 
L 678.586686 -44.007639 
L 677.686343 -44.149093 
L 676.786001 -44.282518 
L 675.885659 -44.406987 
L 674.985317 -44.522497 
L 674.084975 -44.629979 
L 673.184632 -44.731195 
L 672.28429 -44.828571 
L 671.383948 -44.924948 
L 670.483606 -45.02332 
L 669.583263 -45.126553 
L 668.682921 -45.237153 
L 667.782579 -45.357091 
L 666.882237 -45.487708 
L 665.981895 -45.629709 
L 665.081552 -45.783244 
L 664.18121 -45.94805 
L 663.280868 -46.123633 
L 662.380526 -46.309456 
L 661.480184 -46.505114 
L 660.579841 -46.71044 
L 659.679499 -46.925553 
L 658.779157 -47.150826 
L 657.878815 -47.386775 
L 656.978472 -47.633895 
L 656.07813 -47.892464 
L 655.177788 -48.162356 
L 654.277446 -48.442886 
L 653.377104 -48.73273 
L 652.476761 -49.029935 
L 651.576419 -49.332027 
L 650.676077 -49.636218 
L 649.775735 -49.939684 
L 648.875393 -50.239895 
L 647.97505 -50.534944 
L 647.074708 -50.823861 
L 646.174366 -51.106866 
L 645.274024 -51.385539 
L 644.373681 -51.662903 
L 643.473339 -51.94342 
L 642.572997 -52.232897 
L 641.672655 -52.538336 
L 640.772313 -52.867717 
L 639.87197 -53.229759 
L 638.971628 -53.633644 
L 638.071286 -54.08874 
L 637.170944 -54.604316 
L 636.270602 -55.189274 
L 635.370259 -55.851903 
L 634.469917 -56.599674 
L 633.569575 -57.439085 
L 632.669233 -58.375568 
L 631.76889 -59.413439 
L 630.868548 -60.555907 
L 629.968206 -61.805082 
L 629.067864 -63.161982 
L 628.167522 -64.626478 
L 627.267179 -66.197169 
L 626.366837 -67.871159 
L 625.466495 -69.643738 
L 624.566153 -71.508002 
L 623.665811 -73.454459 
L 622.765468 -75.470684 
L 621.865126 -77.541117 
L 620.964784 -79.647062 
L 620.064442 -81.766975 
L 619.164099 -83.877072 
L 618.263757 -85.952265 
L 617.363415 -87.967401 
L 616.463073 -89.898728 
L 615.562731 -91.725472 
L 614.662388 -93.431405 
L 613.762046 -95.006216 
L 612.861704 -96.446574 
L 611.961362 -97.75671 
L 611.061019 -98.948464 
L 610.160677 -100.040735 
L 609.260335 -101.058371 
L 608.359993 -102.030603 
L 607.459651 -102.989155 
L 606.559308 -103.966235 
L 605.658966 -104.992597 
L 604.758624 -106.095873 
L 603.858282 -107.299319 
L 602.95794 -108.621056 
L 602.057597 -110.073832 
L 601.157255 -111.665245 
L 600.256913 -113.398308 
L 599.356571 -115.272228 
L 598.456228 -117.283233 
L 597.555886 -119.425316 
L 596.655544 -121.69083 
L 595.755202 -124.070882 
L 594.85486 -126.555558 
L 593.954517 -129.134047 
L 593.054175 -131.794744 
L 592.153833 -134.525414 
L 591.253491 -137.31345 
L 590.353149 -140.146255 
L 589.452806 -143.011664 
L 588.552464 -145.89834 
L 587.652122 -148.796005 
L 586.75178 -151.695405 
L 585.851437 -154.587911 
L 584.951095 -157.464734 
L 584.050753 -160.315789 
L 583.150411 -163.128332 
L 582.250069 -165.885526 
L 581.349726 -168.565179 
L 580.449384 -171.138843 
L 579.549042 -173.571489 
L 578.6487 -175.821883 
L 577.748358 -177.843697 
L 576.848015 -179.587336 
L 575.947673 -181.002319 
L 575.047331 -182.040023 
L 574.146989 -182.656519 
L 573.246646 -182.815238 
L 572.346304 -182.489211 
L 571.445962 -181.662675 
L 570.54562 -180.331915 
L 569.645278 -178.505293 
L 568.744935 -176.202494 
L 567.844593 -173.453096 
L 566.944251 -170.29463 
L 566.043909 -166.770335 
L 565.143567 -162.926807 
L 564.243224 -158.811751 
L 563.342882 -154.472004 
L 562.44254 -149.951942 
L 561.542198 -145.292366 
L 560.641855 -140.529877 
L 559.741513 -135.696719 
L 558.841171 -130.821043 
L 557.940829 -125.92748 
L 557.040487 -121.037938 
L 556.140144 -116.172491 
L 555.239802 -111.350256 
L 554.33946 -106.59015 
L 553.439118 -101.911441 
L 552.538776 -97.334041 
L 551.638433 -92.878505 
L 550.738091 -88.565735 
L 549.837749 -84.416438 
L 548.937407 -80.450385 
L 548.037064 -76.68557 
L 547.136722 -73.137364 
L 546.23638 -69.817768 
L 545.336038 -66.734845 
L 544.435696 -63.892405 
L 543.535353 -61.289969 
L 542.635011 -58.923021 
L 541.734669 -56.783497 
L 540.834327 -54.86046 
L 539.933985 -53.140884 
L 539.033642 -51.610451 
L 538.1333 -50.254292 
L 537.232958 -49.057605 
L 536.332616 -48.00613 
L 535.432273 -47.086438 
L 534.531931 -46.286074 
L 533.631589 -45.593571 
L 532.731247 -44.998371 
L 531.830905 -44.490697 
L 530.930562 -44.061424 
L 530.03022 -43.701958 
L 529.129878 -43.404162 
L 528.229536 -43.160322 
L 527.329193 -42.96315 
L 526.428851 -42.805824 
L 525.528509 -42.682034 
L 524.628167 -42.586042 
L 523.727825 -42.512718 
L 522.827482 -42.457572 
L 521.92714 -42.41675 
L 521.026798 -42.387014 
L 520.126456 -42.365708 
L 519.226114 -42.350693 
L 518.325771 -42.340287 
z
" style="stroke: #1f77b4"/>
    </defs>
    <g clip-path="url(#pf51c9b5401)">
     <use xlink:href="#m4281792a29" x="0" y="216" style="fill: #1f77b4; fill-opacity: 0.25; stroke: #1f77b4"/>
    </g>
   </g>
   <g id="matplotlib.axis_7">
    <g id="xtick_4">
     <g id="line2d_38">
      <g>
       <use xlink:href="#m3c69c712bb" x="520.700712" y="173.68" style="stroke: #000000; stroke-width: 0.8"/>
      </g>
     </g>
     <g id="text_29">
      <!-- 0 -->
      <g transform="translate(517.519462 188.278437) scale(0.1 -0.1)">
       <use xlink:href="#DejaVuSans-30"/>
      </g>
     </g>
    </g>
    <g id="xtick_5">
     <g id="line2d_39">
      <g>
       <use xlink:href="#m3c69c712bb" x="566.219681" y="173.68" style="stroke: #000000; stroke-width: 0.8"/>
      </g>
     </g>
     <g id="text_30">
      <!-- 10 -->
      <g transform="translate(559.857181 188.278437) scale(0.1 -0.1)">
       <use xlink:href="#DejaVuSans-31"/>
       <use xlink:href="#DejaVuSans-30" transform="translate(63.623047 0)"/>
      </g>
     </g>
    </g>
    <g id="xtick_6">
     <g id="line2d_40">
      <g>
       <use xlink:href="#m3c69c712bb" x="611.73865" y="173.68" style="stroke: #000000; stroke-width: 0.8"/>
      </g>
     </g>
     <g id="text_31">
      <!-- 20 -->
      <g transform="translate(605.37615 188.278437) scale(0.1 -0.1)">
       <use xlink:href="#DejaVuSans-32"/>
       <use xlink:href="#DejaVuSans-30" transform="translate(63.623047 0)"/>
      </g>
     </g>
    </g>
    <g id="xtick_7">
     <g id="line2d_41">
      <g>
       <use xlink:href="#m3c69c712bb" x="657.257619" y="173.68" style="stroke: #000000; stroke-width: 0.8"/>
      </g>
     </g>
     <g id="text_32">
      <!-- 30 -->
      <g transform="translate(650.895119 188.278437) scale(0.1 -0.1)">
       <defs>
        <path id="DejaVuSans-33" d="M 2597 2516 
Q 3050 2419 3304 2112 
Q 3559 1806 3559 1356 
Q 3559 666 3084 287 
Q 2609 -91 1734 -91 
Q 1441 -91 1130 -33 
Q 819 25 488 141 
L 488 750 
Q 750 597 1062 519 
Q 1375 441 1716 441 
Q 2309 441 2620 675 
Q 2931 909 2931 1356 
Q 2931 1769 2642 2001 
Q 2353 2234 1838 2234 
L 1294 2234 
L 1294 2753 
L 1863 2753 
Q 2328 2753 2575 2939 
Q 2822 3125 2822 3475 
Q 2822 3834 2567 4026 
Q 2313 4219 1838 4219 
Q 1578 4219 1281 4162 
Q 984 4106 628 3988 
L 628 4550 
Q 988 4650 1302 4700 
Q 1616 4750 1894 4750 
Q 2613 4750 3031 4423 
Q 3450 4097 3450 3541 
Q 3450 3153 3228 2886 
Q 3006 2619 2597 2516 
z
" transform="scale(0.015625)"/>
       </defs>
       <use xlink:href="#DejaVuSans-33"/>
       <use xlink:href="#DejaVuSans-30" transform="translate(63.623047 0)"/>
      </g>
     </g>
    </g>
    <g id="xtick_8">
     <g id="line2d_42">
      <g>
       <use xlink:href="#m3c69c712bb" x="702.776587" y="173.68" style="stroke: #000000; stroke-width: 0.8"/>
      </g>
     </g>
     <g id="text_33">
      <!-- 40 -->
      <g transform="translate(696.414087 188.278437) scale(0.1 -0.1)">
       <use xlink:href="#DejaVuSans-34"/>
       <use xlink:href="#DejaVuSans-30" transform="translate(63.623047 0)"/>
      </g>
     </g>
    </g>
    <g id="text_34">
     <!-- gf.count_skew -->
     <g transform="translate(572.658259 201.956562) scale(0.1 -0.1)">
      <defs>
       <path id="DejaVuSans-66" d="M 2375 4863 
L 2375 4384 
L 1825 4384 
Q 1516 4384 1395 4259 
Q 1275 4134 1275 3809 
L 1275 3500 
L 2222 3500 
L 2222 3053 
L 1275 3053 
L 1275 0 
L 697 0 
L 697 3053 
L 147 3053 
L 147 3500 
L 697 3500 
L 697 3744 
Q 697 4328 969 4595 
Q 1241 4863 1831 4863 
L 2375 4863 
z
" transform="scale(0.015625)"/>
       <path id="DejaVuSans-5f" d="M 3263 -1063 
L 3263 -1509 
L -63 -1509 
L -63 -1063 
L 3263 -1063 
z
" transform="scale(0.015625)"/>
       <path id="DejaVuSans-6b" d="M 581 4863 
L 1159 4863 
L 1159 1991 
L 2875 3500 
L 3609 3500 
L 1753 1863 
L 3688 0 
L 2938 0 
L 1159 1709 
L 1159 0 
L 581 0 
L 581 4863 
z
" transform="scale(0.015625)"/>
       <path id="DejaVuSans-77" d="M 269 3500 
L 844 3500 
L 1563 769 
L 2278 3500 
L 2956 3500 
L 3675 769 
L 4391 3500 
L 4966 3500 
L 4050 0 
L 3372 0 
L 2619 2869 
L 1863 0 
L 1184 0 
L 269 3500 
z
" transform="scale(0.015625)"/>
      </defs>
      <use xlink:href="#DejaVuSans-67"/>
      <use xlink:href="#DejaVuSans-66" transform="translate(63.476562 0)"/>
      <use xlink:href="#DejaVuSans-2e" transform="translate(91.431641 0)"/>
      <use xlink:href="#DejaVuSans-63" transform="translate(123.21875 0)"/>
      <use xlink:href="#DejaVuSans-6f" transform="translate(178.199219 0)"/>
      <use xlink:href="#DejaVuSans-75" transform="translate(239.380859 0)"/>
      <use xlink:href="#DejaVuSans-6e" transform="translate(302.759766 0)"/>
      <use xlink:href="#DejaVuSans-74" transform="translate(366.138672 0)"/>
      <use xlink:href="#DejaVuSans-5f" transform="translate(405.347656 0)"/>
      <use xlink:href="#DejaVuSans-73" transform="translate(455.347656 0)"/>
      <use xlink:href="#DejaVuSans-6b" transform="translate(507.447266 0)"/>
      <use xlink:href="#DejaVuSans-65" transform="translate(561.732422 0)"/>
      <use xlink:href="#DejaVuSans-77" transform="translate(623.255859 0)"/>
     </g>
    </g>
   </g>
   <g id="matplotlib.axis_8">
    <g id="ytick_17">
     <g id="line2d_43">
      <g>
       <use xlink:href="#m725cb46cbf" x="509.367366" y="173.68" style="stroke: #000000; stroke-width: 0.8"/>
      </g>
     </g>
     <g id="text_35">
      <!-- 0.00 -->
      <g transform="translate(480.101741 177.479219) scale(0.1 -0.1)">
       <use xlink:href="#DejaVuSans-30"/>
       <use xlink:href="#DejaVuSans-2e" transform="translate(63.623047 0)"/>
       <use xlink:href="#DejaVuSans-30" transform="translate(95.410156 0)"/>
       <use xlink:href="#DejaVuSans-30" transform="translate(159.033203 0)"/>
      </g>
     </g>
    </g>
    <g id="ytick_18">
     <g id="line2d_44">
      <g>
       <use xlink:href="#m725cb46cbf" x="509.367366" y="141.526763" style="stroke: #000000; stroke-width: 0.8"/>
      </g>
     </g>
     <g id="text_36">
      <!-- 0.02 -->
      <g transform="translate(480.101741 145.325982) scale(0.1 -0.1)">
       <use xlink:href="#DejaVuSans-30"/>
       <use xlink:href="#DejaVuSans-2e" transform="translate(63.623047 0)"/>
       <use xlink:href="#DejaVuSans-30" transform="translate(95.410156 0)"/>
       <use xlink:href="#DejaVuSans-32" transform="translate(159.033203 0)"/>
      </g>
     </g>
    </g>
    <g id="ytick_19">
     <g id="line2d_45">
      <g>
       <use xlink:href="#m725cb46cbf" x="509.367366" y="109.373526" style="stroke: #000000; stroke-width: 0.8"/>
      </g>
     </g>
     <g id="text_37">
      <!-- 0.04 -->
      <g transform="translate(480.101741 113.172745) scale(0.1 -0.1)">
       <use xlink:href="#DejaVuSans-30"/>
       <use xlink:href="#DejaVuSans-2e" transform="translate(63.623047 0)"/>
       <use xlink:href="#DejaVuSans-30" transform="translate(95.410156 0)"/>
       <use xlink:href="#DejaVuSans-34" transform="translate(159.033203 0)"/>
      </g>
     </g>
    </g>
    <g id="ytick_20">
     <g id="line2d_46">
      <g>
       <use xlink:href="#m725cb46cbf" x="509.367366" y="77.220289" style="stroke: #000000; stroke-width: 0.8"/>
      </g>
     </g>
     <g id="text_38">
      <!-- 0.06 -->
      <g transform="translate(480.101741 81.019508) scale(0.1 -0.1)">
       <use xlink:href="#DejaVuSans-30"/>
       <use xlink:href="#DejaVuSans-2e" transform="translate(63.623047 0)"/>
       <use xlink:href="#DejaVuSans-30" transform="translate(95.410156 0)"/>
       <use xlink:href="#DejaVuSans-36" transform="translate(159.033203 0)"/>
      </g>
     </g>
    </g>
    <g id="ytick_21">
     <g id="line2d_47">
      <g>
       <use xlink:href="#m725cb46cbf" x="509.367366" y="45.067052" style="stroke: #000000; stroke-width: 0.8"/>
      </g>
     </g>
     <g id="text_39">
      <!-- 0.08 -->
      <g transform="translate(480.101741 48.866271) scale(0.1 -0.1)">
       <use xlink:href="#DejaVuSans-30"/>
       <use xlink:href="#DejaVuSans-2e" transform="translate(63.623047 0)"/>
       <use xlink:href="#DejaVuSans-30" transform="translate(95.410156 0)"/>
       <use xlink:href="#DejaVuSans-38" transform="translate(159.033203 0)"/>
      </g>
     </g>
    </g>
    <g id="text_40">
     <!-- Density -->
     <g transform="translate(474.022054 118.928594) rotate(-90) scale(0.1 -0.1)">
      <defs>
       <path id="DejaVuSans-44" d="M 1259 4147 
L 1259 519 
L 2022 519 
Q 2988 519 3436 956 
Q 3884 1394 3884 2338 
Q 3884 3275 3436 3711 
Q 2988 4147 2022 4147 
L 1259 4147 
z
M 628 4666 
L 1925 4666 
Q 3281 4666 3915 4102 
Q 4550 3538 4550 2338 
Q 4550 1131 3912 565 
Q 3275 0 1925 0 
L 628 0 
L 628 4666 
z
" transform="scale(0.015625)"/>
      </defs>
      <use xlink:href="#DejaVuSans-44"/>
      <use xlink:href="#DejaVuSans-65" transform="translate(77.001953 0)"/>
      <use xlink:href="#DejaVuSans-6e" transform="translate(138.525391 0)"/>
      <use xlink:href="#DejaVuSans-73" transform="translate(201.904297 0)"/>
      <use xlink:href="#DejaVuSans-69" transform="translate(254.003906 0)"/>
      <use xlink:href="#DejaVuSans-74" transform="translate(281.787109 0)"/>
      <use xlink:href="#DejaVuSans-79" transform="translate(320.996094 0)"/>
     </g>
    </g>
   </g>
   <g id="patch_21">
    <path d="M 509.367366 173.68 
L 509.367366 26.16 
" style="fill: none; stroke: #000000; stroke-width: 0.8; stroke-linejoin: miter; stroke-linecap: square"/>
   </g>
   <g id="patch_22">
    <path d="M 706.452277 173.68 
L 706.452277 26.16 
" style="fill: none; stroke: #000000; stroke-width: 0.8; stroke-linejoin: miter; stroke-linecap: square"/>
   </g>
   <g id="patch_23">
    <path d="M 509.367366 173.68 
L 706.452277 173.68 
" style="fill: none; stroke: #000000; stroke-width: 0.8; stroke-linejoin: miter; stroke-linecap: square"/>
   </g>
   <g id="patch_24">
    <path d="M 509.367366 26.16 
L 706.452277 26.16 
" style="fill: none; stroke: #000000; stroke-width: 0.8; stroke-linejoin: miter; stroke-linecap: square"/>
   </g>
   <g id="text_41">
    <!-- Gene Frequency Skewness -->
    <g transform="translate(527.854822 20.16) scale(0.12 -0.12)">
     <use xlink:href="#DejaVuSans-47"/>
     <use xlink:href="#DejaVuSans-65" transform="translate(77.490234 0)"/>
     <use xlink:href="#DejaVuSans-6e" transform="translate(139.013672 0)"/>
     <use xlink:href="#DejaVuSans-65" transform="translate(202.392578 0)"/>
     <use xlink:href="#DejaVuSans-20" transform="translate(263.916016 0)"/>
     <use xlink:href="#DejaVuSans-46" transform="translate(295.703125 0)"/>
     <use xlink:href="#DejaVuSans-72" transform="translate(345.972656 0)"/>
     <use xlink:href="#DejaVuSans-65" transform="translate(384.835938 0)"/>
     <use xlink:href="#DejaVuSans-71" transform="translate(446.359375 0)"/>
     <use xlink:href="#DejaVuSans-75" transform="translate(509.835938 0)"/>
     <use xlink:href="#DejaVuSans-65" transform="translate(573.214844 0)"/>
     <use xlink:href="#DejaVuSans-6e" transform="translate(634.738281 0)"/>
     <use xlink:href="#DejaVuSans-63" transform="translate(698.117188 0)"/>
     <use xlink:href="#DejaVuSans-79" transform="translate(753.097656 0)"/>
     <use xlink:href="#DejaVuSans-20" transform="translate(812.277344 0)"/>
     <use xlink:href="#DejaVuSans-53" transform="translate(844.064453 0)"/>
     <use xlink:href="#DejaVuSans-6b" transform="translate(907.541016 0)"/>
     <use xlink:href="#DejaVuSans-65" transform="translate(961.826172 0)"/>
     <use xlink:href="#DejaVuSans-77" transform="translate(1023.349609 0)"/>
     <use xlink:href="#DejaVuSans-6e" transform="translate(1105.136719 0)"/>
     <use xlink:href="#DejaVuSans-65" transform="translate(1168.515625 0)"/>
     <use xlink:href="#DejaVuSans-73" transform="translate(1230.039062 0)"/>
     <use xlink:href="#DejaVuSans-73" transform="translate(1282.138672 0)"/>
    </g>
   </g>
   <g id="legend_1">
    <g id="text_42">
     <!-- dataset -->
     <g transform="translate(663.644465 38.758438) scale(0.1 -0.1)">
      <use xlink:href="#DejaVuSans-64"/>
      <use xlink:href="#DejaVuSans-61" transform="translate(63.476562 0)"/>
      <use xlink:href="#DejaVuSans-74" transform="translate(124.755859 0)"/>
      <use xlink:href="#DejaVuSans-61" transform="translate(163.964844 0)"/>
      <use xlink:href="#DejaVuSans-73" transform="translate(225.244141 0)"/>
      <use xlink:href="#DejaVuSans-65" transform="translate(277.34375 0)"/>
      <use xlink:href="#DejaVuSans-74" transform="translate(338.867188 0)"/>
     </g>
    </g>
    <g id="patch_25">
     <path d="M 664.26009 54.788125 
L 674.26009 54.788125 
L 674.26009 45.838125 
L 664.26009 45.838125 
z
" style="fill: #1f77b4; fill-opacity: 0.25; stroke: #1f77b4; stroke-linejoin: miter"/>
    </g>
    <g id="text_43">
     <!-- AMY -->
     <g transform="translate(679.26009 53.738125) scale(0.1 -0.1)">
      <use xlink:href="#DejaVuSans-41"/>
      <use xlink:href="#DejaVuSans-4d" transform="translate(68.408203 0)"/>
      <use xlink:href="#DejaVuSans-59" transform="translate(154.6875 0)"/>
     </g>
    </g>
   </g>
  </g>
 </g>
 <defs>
  <clipPath id="pb51478762f">
   <rect x="51.005" y="26.16" width="98.542455" height="147.52"/>
  </clipPath>
  <clipPath id="p179e91bde1">
   <rect x="203.792455" y="26.16" width="98.542455" height="147.52"/>
  </clipPath>
  <clipPath id="p67262261d8">
   <rect x="356.579911" y="26.16" width="98.542455" height="147.52"/>
  </clipPath>
  <clipPath id="pf51c9b5401">
   <rect x="509.367366" y="26.16" width="197.084911" height="147.52"/>
  </clipPath>
 </defs>
</svg>
