<?xml version="1.0" encoding="utf-8" standalone="no"?>
<!DOCTYPE svg PUBLIC "-//W3C//DTD SVG 1.1//EN"
  "http://www.w3.org/Graphics/SVG/1.1/DTD/svg11.dtd">
<svg xmlns:xlink="http://www.w3.org/1999/xlink" width="864pt" height="288pt" viewBox="0 0 864 288" xmlns="http://www.w3.org/2000/svg" version="1.1">
 <metadata>
  <rdf:RDF xmlns:dc="http://purl.org/dc/elements/1.1/" xmlns:cc="http://creativecommons.org/ns#" xmlns:rdf="http://www.w3.org/1999/02/22-rdf-syntax-ns#">
   <cc:Work>
    <dc:type rdf:resource="http://purl.org/dc/dcmitype/StillImage"/>
    <dc:date>2026-05-07T16:08:41.724649</dc:date>
    <dc:format>image/svg+xml</dc:format>
    <dc:creator>
     <cc:Agent>
      <dc:title>Matplotlib v3.10.9, https://matplotlib.org/</dc:title>
     </cc:Agent>
    </dc:creator>
   </cc:Work>
  </rdf:RDF>
 </metadata>
 <defs>
  <style type="text/css">*{stroke-linejoin: round; stroke-linecap: butt}</style>
 </defs>
 <g id="figure_1">
  <g id="patch_1">
   <path d="M 0 288 
L 864 288 
L 864 0 
L 0 0 
z
" style="fill: #ffffff"/>
  </g>
  <g id="axes_1">
   <g id="patch_2">
    <path d="M 50.97125 245.93875 
L 178.075609 245.93875 
L 178.075609 26.88 
L 50.97125 26.88 
z
" style="fill: #ffffff"/>
   </g>
   <g id="matplotlib.axis_1">
    <g id="xtick_1">
     <g id="line2d_1">
      <defs>
       <path id="m9f64d942ea" d="M 0 0 
L 0 3.5 
" style="stroke: #000000; stroke-width: 0.8"/>
      </defs>
      <g>
       <use xlink:href="#m9f64d942ea" x="114.52343" y="245.93875" style="stroke: #000000; stroke-width: 0.8"/>
      </g>
     </g>
     <g id="text_1">
      <!-- BA9 -->
      <g transform="translate(104.491398 260.537188) scale(0.1 -0.1)">
       <defs>
        <path id="DejaVuSans-42" d="M 1259 2228 
L 1259 519 
L 2272 519 
Q 2781 519 3026 730 
Q 3272 941 3272 1375 
Q 3272 1813 3026 2020 
Q 2781 2228 2272 2228 
L 1259 2228 
z
M 1259 4147 
L 1259 2741 
L 2194 2741 
Q 2656 2741 2882 2914 
Q 3109 3088 3109 3444 
Q 3109 3797 2882 3972 
Q 2656 4147 2194 4147 
L 1259 4147 
z
M 628 4666 
L 2241 4666 
Q 2963 4666 3353 4366 
Q 3744 4066 3744 3513 
Q 3744 3084 3544 2831 
Q 3344 2578 2956 2516 
Q 3422 2416 3680 2098 
Q 3938 1781 3938 1306 
Q 3938 681 3513 340 
Q 3088 0 2303 0 
L 628 0 
L 628 4666 
z
" transform="scale(0.015625)"/>
        <path id="DejaVuSans-41" d="M 2188 4044 
L 1331 1722 
L 3047 1722 
L 2188 4044 
z
M 1831 4666 
L 2547 4666 
L 4325 0 
L 3669 0 
L 3244 1197 
L 1141 1197 
L 716 0 
L 50 0 
L 1831 4666 
z
" transform="scale(0.015625)"/>
        <path id="DejaVuSans-39" d="M 703 97 
L 703 672 
Q 941 559 1184 500 
Q 1428 441 1663 441 
Q 2288 441 2617 861 
Q 2947 1281 2994 2138 
Q 2813 1869 2534 1725 
Q 2256 1581 1919 1581 
Q 1219 1581 811 2004 
Q 403 2428 403 3163 
Q 403 3881 828 4315 
Q 1253 4750 1959 4750 
Q 2769 4750 3195 4129 
Q 3622 3509 3622 2328 
Q 3622 1225 3098 567 
Q 2575 -91 1691 -91 
Q 1453 -91 1209 -44 
Q 966 3 703 97 
z
M 1959 2075 
Q 2384 2075 2632 2365 
Q 2881 2656 2881 3163 
Q 2881 3666 2632 3958 
Q 2384 4250 1959 4250 
Q 1534 4250 1286 3958 
Q 1038 3666 1038 3163 
Q 1038 2656 1286 2365 
Q 1534 2075 1959 2075 
z
" transform="scale(0.015625)"/>
       </defs>
       <use xlink:href="#DejaVuSans-42"/>
       <use xlink:href="#DejaVuSans-41" transform="translate(68.603516 0)"/>
       <use xlink:href="#DejaVuSans-39" transform="translate(137.011719 0)"/>
      </g>
     </g>
    </g>
    <g id="text_2">
     <!-- dataset -->
     <g transform="translate(95.619523 274.215312) scale(0.1 -0.1)">
      <defs>
       <path id="DejaVuSans-64" d="M 2906 2969 
L 2906 4863 
L 3481 4863 
L 3481 0 
L 2906 0 
L 2906 525 
Q 2725 213 2448 61 
Q 2172 -91 1784 -91 
Q 1150 -91 751 415 
Q 353 922 353 1747 
Q 353 2572 751 3078 
Q 1150 3584 1784 3584 
Q 2172 3584 2448 3432 
Q 2725 3281 2906 2969 
z
M 947 1747 
Q 947 1113 1208 752 
Q 1469 391 1925 391 
Q 2381 391 2643 752 
Q 2906 1113 2906 1747 
Q 2906 2381 2643 2742 
Q 2381 3103 1925 3103 
Q 1469 3103 1208 2742 
Q 947 2381 947 1747 
z
" transform="scale(0.015625)"/>
       <path id="DejaVuSans-61" d="M 2194 1759 
Q 1497 1759 1228 1600 
Q 959 1441 959 1056 
Q 959 750 1161 570 
Q 1363 391 1709 391 
Q 2188 391 2477 730 
Q 2766 1069 2766 1631 
L 2766 1759 
L 2194 1759 
z
M 3341 1997 
L 3341 0 
L 2766 0 
L 2766 531 
Q 2569 213 2275 61 
Q 1981 -91 1556 -91 
Q 1019 -91 701 211 
Q 384 513 384 1019 
Q 384 1609 779 1909 
Q 1175 2209 1959 2209 
L 2766 2209 
L 2766 2266 
Q 2766 2663 2505 2880 
Q 2244 3097 1772 3097 
Q 1472 3097 1187 3025 
Q 903 2953 641 2809 
L 641 3341 
Q 956 3463 1253 3523 
Q 1550 3584 1831 3584 
Q 2591 3584 2966 3190 
Q 3341 2797 3341 1997 
z
" transform="scale(0.015625)"/>
       <path id="DejaVuSans-74" d="M 1172 4494 
L 1172 3500 
L 2356 3500 
L 2356 3053 
L 1172 3053 
L 1172 1153 
Q 1172 725 1289 603 
Q 1406 481 1766 481 
L 2356 481 
L 2356 0 
L 1766 0 
Q 1100 0 847 248 
Q 594 497 594 1153 
L 594 3053 
L 172 3053 
L 172 3500 
L 594 3500 
L 594 4494 
L 1172 4494 
z
" transform="scale(0.015625)"/>
       <path id="DejaVuSans-73" d="M 2834 3397 
L 2834 2853 
Q 2591 2978 2328 3040 
Q 2066 3103 1784 3103 
Q 1356 3103 1142 2972 
Q 928 2841 928 2578 
Q 928 2378 1081 2264 
Q 1234 2150 1697 2047 
L 1894 2003 
Q 2506 1872 2764 1633 
Q 3022 1394 3022 966 
Q 3022 478 2636 193 
Q 2250 -91 1575 -91 
Q 1294 -91 989 -36 
Q 684 19 347 128 
L 347 722 
Q 666 556 975 473 
Q 1284 391 1588 391 
Q 1994 391 2212 530 
Q 2431 669 2431 922 
Q 2431 1156 2273 1281 
Q 2116 1406 1581 1522 
L 1381 1569 
Q 847 1681 609 1914 
Q 372 2147 372 2553 
Q 372 3047 722 3315 
Q 1072 3584 1716 3584 
Q 2034 3584 2315 3537 
Q 2597 3491 2834 3397 
z
" transform="scale(0.015625)"/>
       <path id="DejaVuSans-65" d="M 3597 1894 
L 3597 1613 
L 953 1613 
Q 991 1019 1311 708 
Q 1631 397 2203 397 
Q 2534 397 2845 478 
Q 3156 559 3463 722 
L 3463 178 
Q 3153 47 2828 -22 
Q 2503 -91 2169 -91 
Q 1331 -91 842 396 
Q 353 884 353 1716 
Q 353 2575 817 3079 
Q 1281 3584 2069 3584 
Q 2775 3584 3186 3129 
Q 3597 2675 3597 1894 
z
M 3022 2063 
Q 3016 2534 2758 2815 
Q 2500 3097 2075 3097 
Q 1594 3097 1305 2825 
Q 1016 2553 972 2059 
L 3022 2063 
z
" transform="scale(0.015625)"/>
      </defs>
      <use xlink:href="#DejaVuSans-64"/>
      <use xlink:href="#DejaVuSans-61" transform="translate(63.476562 0)"/>
      <use xlink:href="#DejaVuSans-74" transform="translate(124.755859 0)"/>
      <use xlink:href="#DejaVuSans-61" transform="translate(163.964844 0)"/>
      <use xlink:href="#DejaVuSans-73" transform="translate(225.244141 0)"/>
      <use xlink:href="#DejaVuSans-65" transform="translate(277.34375 0)"/>
      <use xlink:href="#DejaVuSans-74" transform="translate(338.867188 0)"/>
     </g>
    </g>
   </g>
   <g id="matplotlib.axis_2">
    <g id="ytick_1">
     <g id="line2d_2">
      <defs>
       <path id="m2385146e2e" d="M 0 0 
L -3.5 0 
" style="stroke: #000000; stroke-width: 0.8"/>
      </defs>
      <g>
       <use xlink:href="#m2385146e2e" x="50.97125" y="237.393905" style="stroke: #000000; stroke-width: 0.8"/>
      </g>
     </g>
     <g id="text_3">
      <!-- 0 -->
      <g transform="translate(37.60875 241.193124) scale(0.1 -0.1)">
       <defs>
        <path id="DejaVuSans-30" d="M 2034 4250 
Q 1547 4250 1301 3770 
Q 1056 3291 1056 2328 
Q 1056 1369 1301 889 
Q 1547 409 2034 409 
Q 2525 409 2770 889 
Q 3016 1369 3016 2328 
Q 3016 3291 2770 3770 
Q 2525 4250 2034 4250 
z
M 2034 4750 
Q 2819 4750 3233 4129 
Q 3647 3509 3647 2328 
Q 3647 1150 3233 529 
Q 2819 -91 2034 -91 
Q 1250 -91 836 529 
Q 422 1150 422 2328 
Q 422 3509 836 4129 
Q 1250 4750 2034 4750 
z
" transform="scale(0.015625)"/>
       </defs>
       <use xlink:href="#DejaVuSans-30"/>
      </g>
     </g>
    </g>
    <g id="ytick_2">
     <g id="line2d_3">
      <g>
       <use xlink:href="#m2385146e2e" x="50.97125" y="202.084629" style="stroke: #000000; stroke-width: 0.8"/>
      </g>
     </g>
     <g id="text_4">
      <!-- 50 -->
      <g transform="translate(31.24625 205.883848) scale(0.1 -0.1)">
       <defs>
        <path id="DejaVuSans-35" d="M 691 4666 
L 3169 4666 
L 3169 4134 
L 1269 4134 
L 1269 2991 
Q 1406 3038 1543 3061 
Q 1681 3084 1819 3084 
Q 2600 3084 3056 2656 
Q 3513 2228 3513 1497 
Q 3513 744 3044 326 
Q 2575 -91 1722 -91 
Q 1428 -91 1123 -41 
Q 819 9 494 109 
L 494 744 
Q 775 591 1075 516 
Q 1375 441 1709 441 
Q 2250 441 2565 725 
Q 2881 1009 2881 1497 
Q 2881 1984 2565 2268 
Q 2250 2553 1709 2553 
Q 1456 2553 1204 2497 
Q 953 2441 691 2322 
L 691 4666 
z
" transform="scale(0.015625)"/>
       </defs>
       <use xlink:href="#DejaVuSans-35"/>
       <use xlink:href="#DejaVuSans-30" transform="translate(63.623047 0)"/>
      </g>
     </g>
    </g>
    <g id="ytick_3">
     <g id="line2d_4">
      <g>
       <use xlink:href="#m2385146e2e" x="50.97125" y="166.775353" style="stroke: #000000; stroke-width: 0.8"/>
      </g>
     </g>
     <g id="text_5">
      <!-- 100 -->
      <g transform="translate(24.88375 170.574571) scale(0.1 -0.1)">
       <defs>
        <path id="DejaVuSans-31" d="M 794 531 
L 1825 531 
L 1825 4091 
L 703 3866 
L 703 4441 
L 1819 4666 
L 2450 4666 
L 2450 531 
L 3481 531 
L 3481 0 
L 794 0 
L 794 531 
z
" transform="scale(0.015625)"/>
       </defs>
       <use xlink:href="#DejaVuSans-31"/>
       <use xlink:href="#DejaVuSans-30" transform="translate(63.623047 0)"/>
       <use xlink:href="#DejaVuSans-30" transform="translate(127.246094 0)"/>
      </g>
     </g>
    </g>
    <g id="ytick_4">
     <g id="line2d_5">
      <g>
       <use xlink:href="#m2385146e2e" x="50.97125" y="131.466076" style="stroke: #000000; stroke-width: 0.8"/>
      </g>
     </g>
     <g id="text_6">
      <!-- 150 -->
      <g transform="translate(24.88375 135.265295) scale(0.1 -0.1)">
       <use xlink:href="#DejaVuSans-31"/>
       <use xlink:href="#DejaVuSans-35" transform="translate(63.623047 0)"/>
       <use xlink:href="#DejaVuSans-30" transform="translate(127.246094 0)"/>
      </g>
     </g>
    </g>
    <g id="ytick_5">
     <g id="line2d_6">
      <g>
       <use xlink:href="#m2385146e2e" x="50.97125" y="96.1568" style="stroke: #000000; stroke-width: 0.8"/>
      </g>
     </g>
     <g id="text_7">
      <!-- 200 -->
      <g transform="translate(24.88375 99.956019) scale(0.1 -0.1)">
       <defs>
        <path id="DejaVuSans-32" d="M 1228 531 
L 3431 531 
L 3431 0 
L 469 0 
L 469 531 
Q 828 903 1448 1529 
Q 2069 2156 2228 2338 
Q 2531 2678 2651 2914 
Q 2772 3150 2772 3378 
Q 2772 3750 2511 3984 
Q 2250 4219 1831 4219 
Q 1534 4219 1204 4116 
Q 875 4013 500 3803 
L 500 4441 
Q 881 4594 1212 4672 
Q 1544 4750 1819 4750 
Q 2544 4750 2975 4387 
Q 3406 4025 3406 3419 
Q 3406 3131 3298 2873 
Q 3191 2616 2906 2266 
Q 2828 2175 2409 1742 
Q 1991 1309 1228 531 
z
" transform="scale(0.015625)"/>
       </defs>
       <use xlink:href="#DejaVuSans-32"/>
       <use xlink:href="#DejaVuSans-30" transform="translate(63.623047 0)"/>
       <use xlink:href="#DejaVuSans-30" transform="translate(127.246094 0)"/>
      </g>
     </g>
    </g>
    <g id="ytick_6">
     <g id="line2d_7">
      <g>
       <use xlink:href="#m2385146e2e" x="50.97125" y="60.847524" style="stroke: #000000; stroke-width: 0.8"/>
      </g>
     </g>
     <g id="text_8">
      <!-- 250 -->
      <g transform="translate(24.88375 64.646743) scale(0.1 -0.1)">
       <use xlink:href="#DejaVuSans-32"/>
       <use xlink:href="#DejaVuSans-35" transform="translate(63.623047 0)"/>
       <use xlink:href="#DejaVuSans-30" transform="translate(127.246094 0)"/>
      </g>
     </g>
    </g>
    <g id="text_9">
     <!-- total_root_nodes -->
     <g transform="translate(18.525938 177.947656) rotate(-90) scale(0.1 -0.1)">
      <defs>
       <path id="DejaVuSans-6f" d="M 1959 3097 
Q 1497 3097 1228 2736 
Q 959 2375 959 1747 
Q 959 1119 1226 758 
Q 1494 397 1959 397 
Q 2419 397 2687 759 
Q 2956 1122 2956 1747 
Q 2956 2369 2687 2733 
Q 2419 3097 1959 3097 
z
M 1959 3584 
Q 2709 3584 3137 3096 
Q 3566 2609 3566 1747 
Q 3566 888 3137 398 
Q 2709 -91 1959 -91 
Q 1206 -91 779 398 
Q 353 888 353 1747 
Q 353 2609 779 3096 
Q 1206 3584 1959 3584 
z
" transform="scale(0.015625)"/>
       <path id="DejaVuSans-6c" d="M 603 4863 
L 1178 4863 
L 1178 0 
L 603 0 
L 603 4863 
z
" transform="scale(0.015625)"/>
       <path id="DejaVuSans-5f" d="M 3263 -1063 
L 3263 -1509 
L -63 -1509 
L -63 -1063 
L 3263 -1063 
z
" transform="scale(0.015625)"/>
       <path id="DejaVuSans-72" d="M 2631 2963 
Q 2534 3019 2420 3045 
Q 2306 3072 2169 3072 
Q 1681 3072 1420 2755 
Q 1159 2438 1159 1844 
L 1159 0 
L 581 0 
L 581 3500 
L 1159 3500 
L 1159 2956 
Q 1341 3275 1631 3429 
Q 1922 3584 2338 3584 
Q 2397 3584 2469 3576 
Q 2541 3569 2628 3553 
L 2631 2963 
z
" transform="scale(0.015625)"/>
       <path id="DejaVuSans-6e" d="M 3513 2113 
L 3513 0 
L 2938 0 
L 2938 2094 
Q 2938 2591 2744 2837 
Q 2550 3084 2163 3084 
Q 1697 3084 1428 2787 
Q 1159 2491 1159 1978 
L 1159 0 
L 581 0 
L 581 3500 
L 1159 3500 
L 1159 2956 
Q 1366 3272 1645 3428 
Q 1925 3584 2291 3584 
Q 2894 3584 3203 3211 
Q 3513 2838 3513 2113 
z
" transform="scale(0.015625)"/>
      </defs>
      <use xlink:href="#DejaVuSans-74"/>
      <use xlink:href="#DejaVuSans-6f" transform="translate(39.208984 0)"/>
      <use xlink:href="#DejaVuSans-74" transform="translate(100.390625 0)"/>
      <use xlink:href="#DejaVuSans-61" transform="translate(139.599609 0)"/>
      <use xlink:href="#DejaVuSans-6c" transform="translate(200.878906 0)"/>
      <use xlink:href="#DejaVuSans-5f" transform="translate(228.662109 0)"/>
      <use xlink:href="#DejaVuSans-72" transform="translate(278.662109 0)"/>
      <use xlink:href="#DejaVuSans-6f" transform="translate(317.525391 0)"/>
      <use xlink:href="#DejaVuSans-6f" transform="translate(378.707031 0)"/>
      <use xlink:href="#DejaVuSans-74" transform="translate(439.888672 0)"/>
      <use xlink:href="#DejaVuSans-5f" transform="translate(479.097656 0)"/>
      <use xlink:href="#DejaVuSans-6e" transform="translate(529.097656 0)"/>
      <use xlink:href="#DejaVuSans-6f" transform="translate(592.476562 0)"/>
      <use xlink:href="#DejaVuSans-64" transform="translate(653.658203 0)"/>
      <use xlink:href="#DejaVuSans-65" transform="translate(717.134766 0)"/>
      <use xlink:href="#DejaVuSans-73" transform="translate(778.658203 0)"/>
     </g>
    </g>
   </g>
   <g id="patch_3">
    <path d="M 63.681686 223.97638 
L 165.365173 223.97638 
L 165.365173 208.440299 
L 63.681686 208.440299 
L 63.681686 223.97638 
z
" clip-path="url(#pf83c2f8e8c)" style="fill: #3274a1; stroke: #3f3f3f; stroke-linejoin: miter"/>
   </g>
   <g id="line2d_8">
    <path d="M 114.52343 223.97638 
L 114.52343 235.981534 
" clip-path="url(#pf83c2f8e8c)" style="fill: none; stroke: #3f3f3f"/>
   </g>
   <g id="line2d_9">
    <path d="M 114.52343 208.440299 
L 114.52343 185.136176 
" clip-path="url(#pf83c2f8e8c)" style="fill: none; stroke: #3f3f3f"/>
   </g>
   <g id="line2d_10">
    <path d="M 89.102558 235.981534 
L 139.944301 235.981534 
" clip-path="url(#pf83c2f8e8c)" style="fill: none; stroke: #3f3f3f; stroke-linecap: square"/>
   </g>
   <g id="line2d_11">
    <path d="M 89.102558 185.136176 
L 139.944301 185.136176 
" clip-path="url(#pf83c2f8e8c)" style="fill: none; stroke: #3f3f3f; stroke-linecap: square"/>
   </g>
   <g id="line2d_12">
    <defs>
     <path id="mc3f2086322" d="M 0 3 
C 0.795609 3 1.55874 2.683901 2.12132 2.12132 
C 2.683901 1.55874 3 0.795609 3 0 
C 3 -0.795609 2.683901 -1.55874 2.12132 -2.12132 
C 1.55874 -2.683901 0.795609 -3 0 -3 
C -0.795609 -3 -1.55874 -2.683901 -2.12132 -2.12132 
C -2.683901 -1.55874 -3 -0.795609 -3 0 
C -3 0.795609 -2.683901 1.55874 -2.12132 2.12132 
C -1.55874 2.683901 -0.795609 3 0 3 
z
" style="stroke: #3f3f3f"/>
    </defs>
    <g clip-path="url(#pf83c2f8e8c)">
     <use xlink:href="#mc3f2086322" x="114.52343" y="82.739275" style="fill-opacity: 0; stroke: #3f3f3f"/>
     <use xlink:href="#mc3f2086322" x="114.52343" y="160.419683" style="fill-opacity: 0; stroke: #3f3f3f"/>
     <use xlink:href="#mc3f2086322" x="114.52343" y="108.161954" style="fill-opacity: 0; stroke: #3f3f3f"/>
     <use xlink:href="#mc3f2086322" x="114.52343" y="127.935149" style="fill-opacity: 0; stroke: #3f3f3f"/>
     <use xlink:href="#mc3f2086322" x="114.52343" y="103.218655" style="fill-opacity: 0; stroke: #3f3f3f"/>
     <use xlink:href="#mc3f2086322" x="114.52343" y="174.543393" style="fill-opacity: 0; stroke: #3f3f3f"/>
     <use xlink:href="#mc3f2086322" x="114.52343" y="171.012466" style="fill-opacity: 0; stroke: #3f3f3f"/>
     <use xlink:href="#mc3f2086322" x="114.52343" y="179.486692" style="fill-opacity: 0; stroke: #3f3f3f"/>
     <use xlink:href="#mc3f2086322" x="114.52343" y="155.476384" style="fill-opacity: 0; stroke: #3f3f3f"/>
     <use xlink:href="#mc3f2086322" x="114.52343" y="115.223809" style="fill-opacity: 0; stroke: #3f3f3f"/>
     <use xlink:href="#mc3f2086322" x="114.52343" y="138.527932" style="fill-opacity: 0; stroke: #3f3f3f"/>
     <use xlink:href="#mc3f2086322" x="114.52343" y="182.311434" style="fill-opacity: 0; stroke: #3f3f3f"/>
     <use xlink:href="#mc3f2086322" x="114.52343" y="139.234117" style="fill-opacity: 0; stroke: #3f3f3f"/>
     <use xlink:href="#mc3f2086322" x="114.52343" y="134.290818" style="fill-opacity: 0; stroke: #3f3f3f"/>
     <use xlink:href="#mc3f2086322" x="114.52343" y="181.605249" style="fill-opacity: 0; stroke: #3f3f3f"/>
     <use xlink:href="#mc3f2086322" x="114.52343" y="91.919687" style="fill-opacity: 0; stroke: #3f3f3f"/>
     <use xlink:href="#mc3f2086322" x="114.52343" y="55.904225" style="fill-opacity: 0; stroke: #3f3f3f"/>
     <use xlink:href="#mc3f2086322" x="114.52343" y="88.388759" style="fill-opacity: 0; stroke: #3f3f3f"/>
     <use xlink:href="#mc3f2086322" x="114.52343" y="63.672266" style="fill-opacity: 0; stroke: #3f3f3f"/>
     <use xlink:href="#mc3f2086322" x="114.52343" y="171.012466" style="fill-opacity: 0; stroke: #3f3f3f"/>
     <use xlink:href="#mc3f2086322" x="114.52343" y="165.362982" style="fill-opacity: 0; stroke: #3f3f3f"/>
     <use xlink:href="#mc3f2086322" x="114.52343" y="120.167108" style="fill-opacity: 0; stroke: #3f3f3f"/>
     <use xlink:href="#mc3f2086322" x="114.52343" y="183.01762" style="fill-opacity: 0; stroke: #3f3f3f"/>
     <use xlink:href="#mc3f2086322" x="114.52343" y="183.723805" style="fill-opacity: 0; stroke: #3f3f3f"/>
     <use xlink:href="#mc3f2086322" x="114.52343" y="160.419683" style="fill-opacity: 0; stroke: #3f3f3f"/>
     <use xlink:href="#mc3f2086322" x="114.52343" y="179.486692" style="fill-opacity: 0; stroke: #3f3f3f"/>
     <use xlink:href="#mc3f2086322" x="114.52343" y="160.419683" style="fill-opacity: 0; stroke: #3f3f3f"/>
     <use xlink:href="#mc3f2086322" x="114.52343" y="151.945457" style="fill-opacity: 0; stroke: #3f3f3f"/>
     <use xlink:href="#mc3f2086322" x="114.52343" y="179.486692" style="fill-opacity: 0; stroke: #3f3f3f"/>
     <use xlink:href="#mc3f2086322" x="114.52343" y="180.899063" style="fill-opacity: 0; stroke: #3f3f3f"/>
     <use xlink:href="#mc3f2086322" x="114.52343" y="183.01762" style="fill-opacity: 0; stroke: #3f3f3f"/>
     <use xlink:href="#mc3f2086322" x="114.52343" y="181.605249" style="fill-opacity: 0; stroke: #3f3f3f"/>
     <use xlink:href="#mc3f2086322" x="114.52343" y="129.34752" style="fill-opacity: 0; stroke: #3f3f3f"/>
     <use xlink:href="#mc3f2086322" x="114.52343" y="168.187724" style="fill-opacity: 0; stroke: #3f3f3f"/>
     <use xlink:href="#mc3f2086322" x="114.52343" y="180.192878" style="fill-opacity: 0; stroke: #3f3f3f"/>
     <use xlink:href="#mc3f2086322" x="114.52343" y="183.723805" style="fill-opacity: 0; stroke: #3f3f3f"/>
     <use xlink:href="#mc3f2086322" x="114.52343" y="156.18257" style="fill-opacity: 0; stroke: #3f3f3f"/>
     <use xlink:href="#mc3f2086322" x="114.52343" y="36.837216" style="fill-opacity: 0; stroke: #3f3f3f"/>
     <use xlink:href="#mc3f2086322" x="114.52343" y="170.30628" style="fill-opacity: 0; stroke: #3f3f3f"/>
     <use xlink:href="#mc3f2086322" x="114.52343" y="168.893909" style="fill-opacity: 0; stroke: #3f3f3f"/>
     <use xlink:href="#mc3f2086322" x="114.52343" y="169.600095" style="fill-opacity: 0; stroke: #3f3f3f"/>
     <use xlink:href="#mc3f2086322" x="114.52343" y="169.600095" style="fill-opacity: 0; stroke: #3f3f3f"/>
     <use xlink:href="#mc3f2086322" x="114.52343" y="166.775353" style="fill-opacity: 0; stroke: #3f3f3f"/>
     <use xlink:href="#mc3f2086322" x="114.52343" y="72.852678" style="fill-opacity: 0; stroke: #3f3f3f"/>
     <use xlink:href="#mc3f2086322" x="114.52343" y="132.878447" style="fill-opacity: 0; stroke: #3f3f3f"/>
     <use xlink:href="#mc3f2086322" x="114.52343" y="159.007312" style="fill-opacity: 0; stroke: #3f3f3f"/>
     <use xlink:href="#mc3f2086322" x="114.52343" y="179.486692" style="fill-opacity: 0; stroke: #3f3f3f"/>
    </g>
   </g>
   <g id="line2d_13">
    <path d="M 63.681686 216.914525 
L 165.365173 216.914525 
" clip-path="url(#pf83c2f8e8c)" style="fill: none; stroke: #3f3f3f"/>
   </g>
   <g id="patch_4">
    <path d="M 50.97125 245.93875 
L 50.97125 26.88 
" style="fill: none; stroke: #000000; stroke-width: 0.8; stroke-linejoin: miter; stroke-linecap: square"/>
   </g>
   <g id="patch_5">
    <path d="M 178.075609 245.93875 
L 178.075609 26.88 
" style="fill: none; stroke: #000000; stroke-width: 0.8; stroke-linejoin: miter; stroke-linecap: square"/>
   </g>
   <g id="patch_6">
    <path d="M 50.97125 245.93875 
L 178.075609 245.93875 
" style="fill: none; stroke: #000000; stroke-width: 0.8; stroke-linejoin: miter; stroke-linecap: square"/>
   </g>
   <g id="patch_7">
    <path d="M 50.97125 26.88 
L 178.075609 26.88 
" style="fill: none; stroke: #000000; stroke-width: 0.8; stroke-linejoin: miter; stroke-linecap: square"/>
   </g>
   <g id="text_10">
    <!-- Root node count -->
    <g transform="translate(65.213742 20.88) scale(0.12 -0.12)">
     <defs>
      <path id="DejaVuSans-52" d="M 2841 2188 
Q 3044 2119 3236 1894 
Q 3428 1669 3622 1275 
L 4263 0 
L 3584 0 
L 2988 1197 
Q 2756 1666 2539 1819 
Q 2322 1972 1947 1972 
L 1259 1972 
L 1259 0 
L 628 0 
L 628 4666 
L 2053 4666 
Q 2853 4666 3247 4331 
Q 3641 3997 3641 3322 
Q 3641 2881 3436 2590 
Q 3231 2300 2841 2188 
z
M 1259 4147 
L 1259 2491 
L 2053 2491 
Q 2509 2491 2742 2702 
Q 2975 2913 2975 3322 
Q 2975 3731 2742 3939 
Q 2509 4147 2053 4147 
L 1259 4147 
z
" transform="scale(0.015625)"/>
      <path id="DejaVuSans-20" transform="scale(0.015625)"/>
      <path id="DejaVuSans-63" d="M 3122 3366 
L 3122 2828 
Q 2878 2963 2633 3030 
Q 2388 3097 2138 3097 
Q 1578 3097 1268 2742 
Q 959 2388 959 1747 
Q 959 1106 1268 751 
Q 1578 397 2138 397 
Q 2388 397 2633 464 
Q 2878 531 3122 666 
L 3122 134 
Q 2881 22 2623 -34 
Q 2366 -91 2075 -91 
Q 1284 -91 818 406 
Q 353 903 353 1747 
Q 353 2603 823 3093 
Q 1294 3584 2113 3584 
Q 2378 3584 2631 3529 
Q 2884 3475 3122 3366 
z
" transform="scale(0.015625)"/>
      <path id="DejaVuSans-75" d="M 544 1381 
L 544 3500 
L 1119 3500 
L 1119 1403 
Q 1119 906 1312 657 
Q 1506 409 1894 409 
Q 2359 409 2629 706 
Q 2900 1003 2900 1516 
L 2900 3500 
L 3475 3500 
L 3475 0 
L 2900 0 
L 2900 538 
Q 2691 219 2414 64 
Q 2138 -91 1772 -91 
Q 1169 -91 856 284 
Q 544 659 544 1381 
z
M 1991 3584 
L 1991 3584 
z
" transform="scale(0.015625)"/>
     </defs>
     <use xlink:href="#DejaVuSans-52"/>
     <use xlink:href="#DejaVuSans-6f" transform="translate(64.982422 0)"/>
     <use xlink:href="#DejaVuSans-6f" transform="translate(126.164062 0)"/>
     <use xlink:href="#DejaVuSans-74" transform="translate(187.345703 0)"/>
     <use xlink:href="#DejaVuSans-20" transform="translate(226.554688 0)"/>
     <use xlink:href="#DejaVuSans-6e" transform="translate(258.341797 0)"/>
     <use xlink:href="#DejaVuSans-6f" transform="translate(321.720703 0)"/>
     <use xlink:href="#DejaVuSans-64" transform="translate(382.902344 0)"/>
     <use xlink:href="#DejaVuSans-65" transform="translate(446.378906 0)"/>
     <use xlink:href="#DejaVuSans-20" transform="translate(507.902344 0)"/>
     <use xlink:href="#DejaVuSans-63" transform="translate(539.689453 0)"/>
     <use xlink:href="#DejaVuSans-6f" transform="translate(594.669922 0)"/>
     <use xlink:href="#DejaVuSans-75" transform="translate(655.851562 0)"/>
     <use xlink:href="#DejaVuSans-6e" transform="translate(719.230469 0)"/>
     <use xlink:href="#DejaVuSans-74" transform="translate(782.609375 0)"/>
    </g>
   </g>
  </g>
  <g id="axes_2">
   <g id="patch_8">
    <path d="M 232.095609 245.93875 
L 359.199968 245.93875 
L 359.199968 26.88 
L 232.095609 26.88 
z
" style="fill: #ffffff"/>
   </g>
   <g id="matplotlib.axis_3">
    <g id="xtick_2">
     <g id="line2d_14">
      <g>
       <use xlink:href="#m9f64d942ea" x="295.647789" y="245.93875" style="stroke: #000000; stroke-width: 0.8"/>
      </g>
     </g>
     <g id="text_11">
      <!-- BA9 -->
      <g transform="translate(285.615758 260.537188) scale(0.1 -0.1)">
       <use xlink:href="#DejaVuSans-42"/>
       <use xlink:href="#DejaVuSans-41" transform="translate(68.603516 0)"/>
       <use xlink:href="#DejaVuSans-39" transform="translate(137.011719 0)"/>
      </g>
     </g>
    </g>
    <g id="text_12">
     <!-- dataset -->
     <g transform="translate(276.743883 274.215312) scale(0.1 -0.1)">
      <use xlink:href="#DejaVuSans-64"/>
      <use xlink:href="#DejaVuSans-61" transform="translate(63.476562 0)"/>
      <use xlink:href="#DejaVuSans-74" transform="translate(124.755859 0)"/>
      <use xlink:href="#DejaVuSans-61" transform="translate(163.964844 0)"/>
      <use xlink:href="#DejaVuSans-73" transform="translate(225.244141 0)"/>
      <use xlink:href="#DejaVuSans-65" transform="translate(277.34375 0)"/>
      <use xlink:href="#DejaVuSans-74" transform="translate(338.867188 0)"/>
     </g>
    </g>
   </g>
   <g id="matplotlib.axis_4">
    <g id="ytick_7">
     <g id="line2d_15">
      <g>
       <use xlink:href="#m2385146e2e" x="232.095609" y="216.067102" style="stroke: #000000; stroke-width: 0.8"/>
      </g>
     </g>
     <g id="text_13">
      <!-- 96 -->
      <g transform="translate(212.370609 219.866321) scale(0.1 -0.1)">
       <defs>
        <path id="DejaVuSans-36" d="M 2113 2584 
Q 1688 2584 1439 2293 
Q 1191 2003 1191 1497 
Q 1191 994 1439 701 
Q 1688 409 2113 409 
Q 2538 409 2786 701 
Q 3034 994 3034 1497 
Q 3034 2003 2786 2293 
Q 2538 2584 2113 2584 
z
M 3366 4563 
L 3366 3988 
Q 3128 4100 2886 4159 
Q 2644 4219 2406 4219 
Q 1781 4219 1451 3797 
Q 1122 3375 1075 2522 
Q 1259 2794 1537 2939 
Q 1816 3084 2150 3084 
Q 2853 3084 3261 2657 
Q 3669 2231 3669 1497 
Q 3669 778 3244 343 
Q 2819 -91 2113 -91 
Q 1303 -91 875 529 
Q 447 1150 447 2328 
Q 447 3434 972 4092 
Q 1497 4750 2381 4750 
Q 2619 4750 2861 4703 
Q 3103 4656 3366 4563 
z
" transform="scale(0.015625)"/>
       </defs>
       <use xlink:href="#DejaVuSans-39"/>
       <use xlink:href="#DejaVuSans-36" transform="translate(63.623047 0)"/>
      </g>
     </g>
    </g>
    <g id="ytick_8">
     <g id="line2d_16">
      <g>
       <use xlink:href="#m2385146e2e" x="232.095609" y="176.238239" style="stroke: #000000; stroke-width: 0.8"/>
      </g>
     </g>
     <g id="text_14">
      <!-- 98 -->
      <g transform="translate(212.370609 180.037457) scale(0.1 -0.1)">
       <defs>
        <path id="DejaVuSans-38" d="M 2034 2216 
Q 1584 2216 1326 1975 
Q 1069 1734 1069 1313 
Q 1069 891 1326 650 
Q 1584 409 2034 409 
Q 2484 409 2743 651 
Q 3003 894 3003 1313 
Q 3003 1734 2745 1975 
Q 2488 2216 2034 2216 
z
M 1403 2484 
Q 997 2584 770 2862 
Q 544 3141 544 3541 
Q 544 4100 942 4425 
Q 1341 4750 2034 4750 
Q 2731 4750 3128 4425 
Q 3525 4100 3525 3541 
Q 3525 3141 3298 2862 
Q 3072 2584 2669 2484 
Q 3125 2378 3379 2068 
Q 3634 1759 3634 1313 
Q 3634 634 3220 271 
Q 2806 -91 2034 -91 
Q 1263 -91 848 271 
Q 434 634 434 1313 
Q 434 1759 690 2068 
Q 947 2378 1403 2484 
z
M 1172 3481 
Q 1172 3119 1398 2916 
Q 1625 2713 2034 2713 
Q 2441 2713 2670 2916 
Q 2900 3119 2900 3481 
Q 2900 3844 2670 4047 
Q 2441 4250 2034 4250 
Q 1625 4250 1398 4047 
Q 1172 3844 1172 3481 
z
" transform="scale(0.015625)"/>
       </defs>
       <use xlink:href="#DejaVuSans-39"/>
       <use xlink:href="#DejaVuSans-38" transform="translate(63.623047 0)"/>
      </g>
     </g>
    </g>
    <g id="ytick_9">
     <g id="line2d_17">
      <g>
       <use xlink:href="#m2385146e2e" x="232.095609" y="136.409375" style="stroke: #000000; stroke-width: 0.8"/>
      </g>
     </g>
     <g id="text_15">
      <!-- 100 -->
      <g transform="translate(206.008109 140.208594) scale(0.1 -0.1)">
       <use xlink:href="#DejaVuSans-31"/>
       <use xlink:href="#DejaVuSans-30" transform="translate(63.623047 0)"/>
       <use xlink:href="#DejaVuSans-30" transform="translate(127.246094 0)"/>
      </g>
     </g>
    </g>
    <g id="ytick_10">
     <g id="line2d_18">
      <g>
       <use xlink:href="#m2385146e2e" x="232.095609" y="96.580511" style="stroke: #000000; stroke-width: 0.8"/>
      </g>
     </g>
     <g id="text_16">
      <!-- 102 -->
      <g transform="translate(206.008109 100.37973) scale(0.1 -0.1)">
       <use xlink:href="#DejaVuSans-31"/>
       <use xlink:href="#DejaVuSans-30" transform="translate(63.623047 0)"/>
       <use xlink:href="#DejaVuSans-32" transform="translate(127.246094 0)"/>
      </g>
     </g>
    </g>
    <g id="ytick_11">
     <g id="line2d_19">
      <g>
       <use xlink:href="#m2385146e2e" x="232.095609" y="56.751648" style="stroke: #000000; stroke-width: 0.8"/>
      </g>
     </g>
     <g id="text_17">
      <!-- 104 -->
      <g transform="translate(206.008109 60.550866) scale(0.1 -0.1)">
       <defs>
        <path id="DejaVuSans-34" d="M 2419 4116 
L 825 1625 
L 2419 1625 
L 2419 4116 
z
M 2253 4666 
L 3047 4666 
L 3047 1625 
L 3713 1625 
L 3713 1100 
L 3047 1100 
L 3047 0 
L 2419 0 
L 2419 1100 
L 313 1100 
L 313 1709 
L 2253 4666 
z
" transform="scale(0.015625)"/>
       </defs>
       <use xlink:href="#DejaVuSans-31"/>
       <use xlink:href="#DejaVuSans-30" transform="translate(63.623047 0)"/>
       <use xlink:href="#DejaVuSans-34" transform="translate(127.246094 0)"/>
      </g>
     </g>
    </g>
    <g id="text_18">
     <!-- active_source_pcr -->
     <g transform="translate(199.650297 181.188281) rotate(-90) scale(0.1 -0.1)">
      <defs>
       <path id="DejaVuSans-69" d="M 603 3500 
L 1178 3500 
L 1178 0 
L 603 0 
L 603 3500 
z
M 603 4863 
L 1178 4863 
L 1178 4134 
L 603 4134 
L 603 4863 
z
" transform="scale(0.015625)"/>
       <path id="DejaVuSans-76" d="M 191 3500 
L 800 3500 
L 1894 563 
L 2988 3500 
L 3597 3500 
L 2284 0 
L 1503 0 
L 191 3500 
z
" transform="scale(0.015625)"/>
       <path id="DejaVuSans-70" d="M 1159 525 
L 1159 -1331 
L 581 -1331 
L 581 3500 
L 1159 3500 
L 1159 2969 
Q 1341 3281 1617 3432 
Q 1894 3584 2278 3584 
Q 2916 3584 3314 3078 
Q 3713 2572 3713 1747 
Q 3713 922 3314 415 
Q 2916 -91 2278 -91 
Q 1894 -91 1617 61 
Q 1341 213 1159 525 
z
M 3116 1747 
Q 3116 2381 2855 2742 
Q 2594 3103 2138 3103 
Q 1681 3103 1420 2742 
Q 1159 2381 1159 1747 
Q 1159 1113 1420 752 
Q 1681 391 2138 391 
Q 2594 391 2855 752 
Q 3116 1113 3116 1747 
z
" transform="scale(0.015625)"/>
      </defs>
      <use xlink:href="#DejaVuSans-61"/>
      <use xlink:href="#DejaVuSans-63" transform="translate(61.279297 0)"/>
      <use xlink:href="#DejaVuSans-74" transform="translate(116.259766 0)"/>
      <use xlink:href="#DejaVuSans-69" transform="translate(155.46875 0)"/>
      <use xlink:href="#DejaVuSans-76" transform="translate(183.251953 0)"/>
      <use xlink:href="#DejaVuSans-65" transform="translate(242.431641 0)"/>
      <use xlink:href="#DejaVuSans-5f" transform="translate(303.955078 0)"/>
      <use xlink:href="#DejaVuSans-73" transform="translate(353.955078 0)"/>
      <use xlink:href="#DejaVuSans-6f" transform="translate(406.054688 0)"/>
      <use xlink:href="#DejaVuSans-75" transform="translate(467.236328 0)"/>
      <use xlink:href="#DejaVuSans-72" transform="translate(530.615234 0)"/>
      <use xlink:href="#DejaVuSans-63" transform="translate(569.478516 0)"/>
      <use xlink:href="#DejaVuSans-65" transform="translate(624.458984 0)"/>
      <use xlink:href="#DejaVuSans-5f" transform="translate(685.982422 0)"/>
      <use xlink:href="#DejaVuSans-70" transform="translate(735.982422 0)"/>
      <use xlink:href="#DejaVuSans-63" transform="translate(799.458984 0)"/>
      <use xlink:href="#DejaVuSans-72" transform="translate(854.439453 0)"/>
     </g>
    </g>
   </g>
   <g id="patch_9">
    <path d="M 244.806045 136.409375 
L 346.489532 136.409375 
L 346.489532 136.409375 
L 244.806045 136.409375 
L 244.806045 136.409375 
z
" clip-path="url(#pc5afc5b450)" style="fill: #3274a1; stroke: #3f3f3f; stroke-linejoin: miter"/>
   </g>
   <g id="line2d_20">
    <path d="M 295.647789 136.409375 
L 295.647789 136.409375 
" clip-path="url(#pc5afc5b450)" style="fill: none; stroke: #3f3f3f"/>
   </g>
   <g id="line2d_21">
    <path d="M 295.647789 136.409375 
L 295.647789 136.409375 
" clip-path="url(#pc5afc5b450)" style="fill: none; stroke: #3f3f3f"/>
   </g>
   <g id="line2d_22">
    <path d="M 270.226917 136.409375 
L 321.068661 136.409375 
" clip-path="url(#pc5afc5b450)" style="fill: none; stroke: #3f3f3f; stroke-linecap: square"/>
   </g>
   <g id="line2d_23">
    <path d="M 270.226917 136.409375 
L 321.068661 136.409375 
" clip-path="url(#pc5afc5b450)" style="fill: none; stroke: #3f3f3f; stroke-linecap: square"/>
   </g>
   <g id="line2d_24"/>
   <g id="line2d_25">
    <path d="M 244.806045 136.409375 
L 346.489532 136.409375 
" clip-path="url(#pc5afc5b450)" style="fill: none; stroke: #3f3f3f"/>
   </g>
   <g id="patch_10">
    <path d="M 232.095609 245.93875 
L 232.095609 26.88 
" style="fill: none; stroke: #000000; stroke-width: 0.8; stroke-linejoin: miter; stroke-linecap: square"/>
   </g>
   <g id="patch_11">
    <path d="M 359.199968 245.93875 
L 359.199968 26.88 
" style="fill: none; stroke: #000000; stroke-width: 0.8; stroke-linejoin: miter; stroke-linecap: square"/>
   </g>
   <g id="patch_12">
    <path d="M 232.095609 245.93875 
L 359.199968 245.93875 
" style="fill: none; stroke: #000000; stroke-width: 0.8; stroke-linejoin: miter; stroke-linecap: square"/>
   </g>
   <g id="patch_13">
    <path d="M 232.095609 26.88 
L 359.199968 26.88 
" style="fill: none; stroke: #000000; stroke-width: 0.8; stroke-linejoin: miter; stroke-linecap: square"/>
   </g>
   <g id="text_19">
    <!-- Active sources in context(%) -->
    <g transform="translate(209.851539 20.88) scale(0.12 -0.12)">
     <defs>
      <path id="DejaVuSans-78" d="M 3513 3500 
L 2247 1797 
L 3578 0 
L 2900 0 
L 1881 1375 
L 863 0 
L 184 0 
L 1544 1831 
L 300 3500 
L 978 3500 
L 1906 2253 
L 2834 3500 
L 3513 3500 
z
" transform="scale(0.015625)"/>
      <path id="DejaVuSans-28" d="M 1984 4856 
Q 1566 4138 1362 3434 
Q 1159 2731 1159 2009 
Q 1159 1288 1364 580 
Q 1569 -128 1984 -844 
L 1484 -844 
Q 1016 -109 783 600 
Q 550 1309 550 2009 
Q 550 2706 781 3412 
Q 1013 4119 1484 4856 
L 1984 4856 
z
" transform="scale(0.015625)"/>
      <path id="DejaVuSans-25" d="M 4653 2053 
Q 4381 2053 4226 1822 
Q 4072 1591 4072 1178 
Q 4072 772 4226 539 
Q 4381 306 4653 306 
Q 4919 306 5073 539 
Q 5228 772 5228 1178 
Q 5228 1588 5073 1820 
Q 4919 2053 4653 2053 
z
M 4653 2450 
Q 5147 2450 5437 2106 
Q 5728 1763 5728 1178 
Q 5728 594 5436 251 
Q 5144 -91 4653 -91 
Q 4153 -91 3862 251 
Q 3572 594 3572 1178 
Q 3572 1766 3864 2108 
Q 4156 2450 4653 2450 
z
M 1428 4353 
Q 1159 4353 1004 4120 
Q 850 3888 850 3481 
Q 850 3069 1003 2837 
Q 1156 2606 1428 2606 
Q 1700 2606 1854 2837 
Q 2009 3069 2009 3481 
Q 2009 3884 1853 4118 
Q 1697 4353 1428 4353 
z
M 4250 4750 
L 4750 4750 
L 1831 -91 
L 1331 -91 
L 4250 4750 
z
M 1428 4750 
Q 1922 4750 2215 4408 
Q 2509 4066 2509 3481 
Q 2509 2891 2217 2550 
Q 1925 2209 1428 2209 
Q 931 2209 642 2551 
Q 353 2894 353 3481 
Q 353 4063 643 4406 
Q 934 4750 1428 4750 
z
" transform="scale(0.015625)"/>
      <path id="DejaVuSans-29" d="M 513 4856 
L 1013 4856 
Q 1481 4119 1714 3412 
Q 1947 2706 1947 2009 
Q 1947 1309 1714 600 
Q 1481 -109 1013 -844 
L 513 -844 
Q 928 -128 1133 580 
Q 1338 1288 1338 2009 
Q 1338 2731 1133 3434 
Q 928 4138 513 4856 
z
" transform="scale(0.015625)"/>
     </defs>
     <use xlink:href="#DejaVuSans-41"/>
     <use xlink:href="#DejaVuSans-63" transform="translate(66.658203 0)"/>
     <use xlink:href="#DejaVuSans-74" transform="translate(121.638672 0)"/>
     <use xlink:href="#DejaVuSans-69" transform="translate(160.847656 0)"/>
     <use xlink:href="#DejaVuSans-76" transform="translate(188.630859 0)"/>
     <use xlink:href="#DejaVuSans-65" transform="translate(247.810547 0)"/>
     <use xlink:href="#DejaVuSans-20" transform="translate(309.333984 0)"/>
     <use xlink:href="#DejaVuSans-73" transform="translate(341.121094 0)"/>
     <use xlink:href="#DejaVuSans-6f" transform="translate(393.220703 0)"/>
     <use xlink:href="#DejaVuSans-75" transform="translate(454.402344 0)"/>
     <use xlink:href="#DejaVuSans-72" transform="translate(517.78125 0)"/>
     <use xlink:href="#DejaVuSans-63" transform="translate(556.644531 0)"/>
     <use xlink:href="#DejaVuSans-65" transform="translate(611.625 0)"/>
     <use xlink:href="#DejaVuSans-73" transform="translate(673.148438 0)"/>
     <use xlink:href="#DejaVuSans-20" transform="translate(725.248047 0)"/>
     <use xlink:href="#DejaVuSans-69" transform="translate(757.035156 0)"/>
     <use xlink:href="#DejaVuSans-6e" transform="translate(784.818359 0)"/>
     <use xlink:href="#DejaVuSans-20" transform="translate(848.197266 0)"/>
     <use xlink:href="#DejaVuSans-63" transform="translate(879.984375 0)"/>
     <use xlink:href="#DejaVuSans-6f" transform="translate(934.964844 0)"/>
     <use xlink:href="#DejaVuSans-6e" transform="translate(996.146484 0)"/>
     <use xlink:href="#DejaVuSans-74" transform="translate(1059.525391 0)"/>
     <use xlink:href="#DejaVuSans-65" transform="translate(1098.734375 0)"/>
     <use xlink:href="#DejaVuSans-78" transform="translate(1158.507812 0)"/>
     <use xlink:href="#DejaVuSans-74" transform="translate(1217.6875 0)"/>
     <use xlink:href="#DejaVuSans-28" transform="translate(1256.896484 0)"/>
     <use xlink:href="#DejaVuSans-25" transform="translate(1295.910156 0)"/>
     <use xlink:href="#DejaVuSans-29" transform="translate(1390.929688 0)"/>
    </g>
   </g>
  </g>
  <g id="axes_3">
   <g id="patch_14">
    <path d="M 413.219968 245.93875 
L 540.324328 245.93875 
L 540.324328 26.88 
L 413.219968 26.88 
z
" style="fill: #ffffff"/>
   </g>
   <g id="matplotlib.axis_5">
    <g id="xtick_3">
     <g id="line2d_26">
      <g>
       <use xlink:href="#m9f64d942ea" x="476.772148" y="245.93875" style="stroke: #000000; stroke-width: 0.8"/>
      </g>
     </g>
     <g id="text_20">
      <!-- BA9 -->
      <g transform="translate(466.740117 260.537188) scale(0.1 -0.1)">
       <use xlink:href="#DejaVuSans-42"/>
       <use xlink:href="#DejaVuSans-41" transform="translate(68.603516 0)"/>
       <use xlink:href="#DejaVuSans-39" transform="translate(137.011719 0)"/>
      </g>
     </g>
    </g>
    <g id="text_21">
     <!-- dataset -->
     <g transform="translate(457.868242 274.215312) scale(0.1 -0.1)">
      <use xlink:href="#DejaVuSans-64"/>
      <use xlink:href="#DejaVuSans-61" transform="translate(63.476562 0)"/>
      <use xlink:href="#DejaVuSans-74" transform="translate(124.755859 0)"/>
      <use xlink:href="#DejaVuSans-61" transform="translate(163.964844 0)"/>
      <use xlink:href="#DejaVuSans-73" transform="translate(225.244141 0)"/>
      <use xlink:href="#DejaVuSans-65" transform="translate(277.34375 0)"/>
      <use xlink:href="#DejaVuSans-74" transform="translate(338.867188 0)"/>
     </g>
    </g>
   </g>
   <g id="matplotlib.axis_6">
    <g id="ytick_12">
     <g id="line2d_27">
      <g>
       <use xlink:href="#m2385146e2e" x="413.219968" y="225.772319" style="stroke: #000000; stroke-width: 0.8"/>
      </g>
     </g>
     <g id="text_22">
      <!-- 40 -->
      <g transform="translate(393.494968 229.571537) scale(0.1 -0.1)">
       <use xlink:href="#DejaVuSans-34"/>
       <use xlink:href="#DejaVuSans-30" transform="translate(63.623047 0)"/>
      </g>
     </g>
    </g>
    <g id="ytick_13">
     <g id="line2d_28">
      <g>
       <use xlink:href="#m2385146e2e" x="413.219968" y="193.464674" style="stroke: #000000; stroke-width: 0.8"/>
      </g>
     </g>
     <g id="text_23">
      <!-- 50 -->
      <g transform="translate(393.494968 197.263893) scale(0.1 -0.1)">
       <use xlink:href="#DejaVuSans-35"/>
       <use xlink:href="#DejaVuSans-30" transform="translate(63.623047 0)"/>
      </g>
     </g>
    </g>
    <g id="ytick_14">
     <g id="line2d_29">
      <g>
       <use xlink:href="#m2385146e2e" x="413.219968" y="161.15703" style="stroke: #000000; stroke-width: 0.8"/>
      </g>
     </g>
     <g id="text_24">
      <!-- 60 -->
      <g transform="translate(393.494968 164.956249) scale(0.1 -0.1)">
       <use xlink:href="#DejaVuSans-36"/>
       <use xlink:href="#DejaVuSans-30" transform="translate(63.623047 0)"/>
      </g>
     </g>
    </g>
    <g id="ytick_15">
     <g id="line2d_30">
      <g>
       <use xlink:href="#m2385146e2e" x="413.219968" y="128.849386" style="stroke: #000000; stroke-width: 0.8"/>
      </g>
     </g>
     <g id="text_25">
      <!-- 70 -->
      <g transform="translate(393.494968 132.648605) scale(0.1 -0.1)">
       <defs>
        <path id="DejaVuSans-37" d="M 525 4666 
L 3525 4666 
L 3525 4397 
L 1831 0 
L 1172 0 
L 2766 4134 
L 525 4134 
L 525 4666 
z
" transform="scale(0.015625)"/>
       </defs>
       <use xlink:href="#DejaVuSans-37"/>
       <use xlink:href="#DejaVuSans-30" transform="translate(63.623047 0)"/>
      </g>
     </g>
    </g>
    <g id="ytick_16">
     <g id="line2d_31">
      <g>
       <use xlink:href="#m2385146e2e" x="413.219968" y="96.541742" style="stroke: #000000; stroke-width: 0.8"/>
      </g>
     </g>
     <g id="text_26">
      <!-- 80 -->
      <g transform="translate(393.494968 100.340961) scale(0.1 -0.1)">
       <use xlink:href="#DejaVuSans-38"/>
       <use xlink:href="#DejaVuSans-30" transform="translate(63.623047 0)"/>
      </g>
     </g>
    </g>
    <g id="ytick_17">
     <g id="line2d_32">
      <g>
       <use xlink:href="#m2385146e2e" x="413.219968" y="64.234098" style="stroke: #000000; stroke-width: 0.8"/>
      </g>
     </g>
     <g id="text_27">
      <!-- 90 -->
      <g transform="translate(393.494968 68.033317) scale(0.1 -0.1)">
       <use xlink:href="#DejaVuSans-39"/>
       <use xlink:href="#DejaVuSans-30" transform="translate(63.623047 0)"/>
      </g>
     </g>
    </g>
    <g id="ytick_18">
     <g id="line2d_33">
      <g>
       <use xlink:href="#m2385146e2e" x="413.219968" y="31.926454" style="stroke: #000000; stroke-width: 0.8"/>
      </g>
     </g>
     <g id="text_28">
      <!-- 100 -->
      <g transform="translate(387.132468 35.725673) scale(0.1 -0.1)">
       <use xlink:href="#DejaVuSans-31"/>
       <use xlink:href="#DejaVuSans-30" transform="translate(63.623047 0)"/>
       <use xlink:href="#DejaVuSans-30" transform="translate(127.246094 0)"/>
      </g>
     </g>
    </g>
    <g id="text_29">
     <!-- sparsity_pcr -->
     <g transform="translate(380.774656 166.7) rotate(-90) scale(0.1 -0.1)">
      <defs>
       <path id="DejaVuSans-79" d="M 2059 -325 
Q 1816 -950 1584 -1140 
Q 1353 -1331 966 -1331 
L 506 -1331 
L 506 -850 
L 844 -850 
Q 1081 -850 1212 -737 
Q 1344 -625 1503 -206 
L 1606 56 
L 191 3500 
L 800 3500 
L 1894 763 
L 2988 3500 
L 3597 3500 
L 2059 -325 
z
" transform="scale(0.015625)"/>
      </defs>
      <use xlink:href="#DejaVuSans-73"/>
      <use xlink:href="#DejaVuSans-70" transform="translate(52.099609 0)"/>
      <use xlink:href="#DejaVuSans-61" transform="translate(115.576172 0)"/>
      <use xlink:href="#DejaVuSans-72" transform="translate(176.855469 0)"/>
      <use xlink:href="#DejaVuSans-73" transform="translate(217.96875 0)"/>
      <use xlink:href="#DejaVuSans-69" transform="translate(270.068359 0)"/>
      <use xlink:href="#DejaVuSans-74" transform="translate(297.851562 0)"/>
      <use xlink:href="#DejaVuSans-79" transform="translate(337.060547 0)"/>
      <use xlink:href="#DejaVuSans-5f" transform="translate(396.240234 0)"/>
      <use xlink:href="#DejaVuSans-70" transform="translate(446.240234 0)"/>
      <use xlink:href="#DejaVuSans-63" transform="translate(509.716797 0)"/>
      <use xlink:href="#DejaVuSans-72" transform="translate(564.697266 0)"/>
     </g>
    </g>
   </g>
   <g id="patch_15">
    <path d="M 425.930404 75.428697 
L 527.613892 75.428697 
L 527.613892 58.693337 
L 425.930404 58.693337 
L 425.930404 75.428697 
z
" clip-path="url(#p9a354c47b9)" style="fill: #3274a1; stroke: #3f3f3f; stroke-linejoin: miter"/>
   </g>
   <g id="line2d_34">
    <path d="M 476.772148 75.428697 
L 476.772148 99.481738 
" clip-path="url(#p9a354c47b9)" style="fill: none; stroke: #3f3f3f"/>
   </g>
   <g id="line2d_35">
    <path d="M 476.772148 58.693337 
L 476.772148 36.837216 
" clip-path="url(#p9a354c47b9)" style="fill: none; stroke: #3f3f3f"/>
   </g>
   <g id="line2d_36">
    <path d="M 451.351276 99.481738 
L 502.19302 99.481738 
" clip-path="url(#p9a354c47b9)" style="fill: none; stroke: #3f3f3f; stroke-linecap: square"/>
   </g>
   <g id="line2d_37">
    <path d="M 451.351276 36.837216 
L 502.19302 36.837216 
" clip-path="url(#p9a354c47b9)" style="fill: none; stroke: #3f3f3f; stroke-linecap: square"/>
   </g>
   <g id="line2d_38">
    <g clip-path="url(#p9a354c47b9)">
     <use xlink:href="#mc3f2086322" x="476.772148" y="114.440177" style="fill-opacity: 0; stroke: #3f3f3f"/>
     <use xlink:href="#mc3f2086322" x="476.772148" y="127.460158" style="fill-opacity: 0; stroke: #3f3f3f"/>
     <use xlink:href="#mc3f2086322" x="476.772148" y="122.194012" style="fill-opacity: 0; stroke: #3f3f3f"/>
     <use xlink:href="#mc3f2086322" x="476.772148" y="108.947878" style="fill-opacity: 0; stroke: #3f3f3f"/>
     <use xlink:href="#mc3f2086322" x="476.772148" y="155.697039" style="fill-opacity: 0; stroke: #3f3f3f"/>
     <use xlink:href="#mc3f2086322" x="476.772148" y="105.781728" style="fill-opacity: 0; stroke: #3f3f3f"/>
     <use xlink:href="#mc3f2086322" x="476.772148" y="105.135576" style="fill-opacity: 0; stroke: #3f3f3f"/>
     <use xlink:href="#mc3f2086322" x="476.772148" y="103.746347" style="fill-opacity: 0; stroke: #3f3f3f"/>
     <use xlink:href="#mc3f2086322" x="476.772148" y="126.070929" style="fill-opacity: 0; stroke: #3f3f3f"/>
     <use xlink:href="#mc3f2086322" x="476.772148" y="126.426313" style="fill-opacity: 0; stroke: #3f3f3f"/>
     <use xlink:href="#mc3f2086322" x="476.772148" y="152.757043" style="fill-opacity: 0; stroke: #3f3f3f"/>
     <use xlink:href="#mc3f2086322" x="476.772148" y="235.981534" style="fill-opacity: 0; stroke: #3f3f3f"/>
     <use xlink:href="#mc3f2086322" x="476.772148" y="117.83248" style="fill-opacity: 0; stroke: #3f3f3f"/>
     <use xlink:href="#mc3f2086322" x="476.772148" y="113.43864" style="fill-opacity: 0; stroke: #3f3f3f"/>
     <use xlink:href="#mc3f2086322" x="476.772148" y="213.463106" style="fill-opacity: 0; stroke: #3f3f3f"/>
     <use xlink:href="#mc3f2086322" x="476.772148" y="113.567871" style="fill-opacity: 0; stroke: #3f3f3f"/>
     <use xlink:href="#mc3f2086322" x="476.772148" y="136.280144" style="fill-opacity: 0; stroke: #3f3f3f"/>
     <use xlink:href="#mc3f2086322" x="476.772148" y="181.86623" style="fill-opacity: 0; stroke: #3f3f3f"/>
     <use xlink:href="#mc3f2086322" x="476.772148" y="139.737062" style="fill-opacity: 0; stroke: #3f3f3f"/>
     <use xlink:href="#mc3f2086322" x="476.772148" y="156.601653" style="fill-opacity: 0; stroke: #3f3f3f"/>
     <use xlink:href="#mc3f2086322" x="476.772148" y="140.447831" style="fill-opacity: 0; stroke: #3f3f3f"/>
     <use xlink:href="#mc3f2086322" x="476.772148" y="227.904623" style="fill-opacity: 0; stroke: #3f3f3f"/>
     <use xlink:href="#mc3f2086322" x="476.772148" y="105.200191" style="fill-opacity: 0; stroke: #3f3f3f"/>
     <use xlink:href="#mc3f2086322" x="476.772148" y="141.610906" style="fill-opacity: 0; stroke: #3f3f3f"/>
     <use xlink:href="#mc3f2086322" x="476.772148" y="131.110921" style="fill-opacity: 0; stroke: #3f3f3f"/>
     <use xlink:href="#mc3f2086322" x="476.772148" y="209.456958" style="fill-opacity: 0; stroke: #3f3f3f"/>
     <use xlink:href="#mc3f2086322" x="476.772148" y="202.220046" style="fill-opacity: 0; stroke: #3f3f3f"/>
     <use xlink:href="#mc3f2086322" x="476.772148" y="130.206307" style="fill-opacity: 0; stroke: #3f3f3f"/>
     <use xlink:href="#mc3f2086322" x="476.772148" y="126.781697" style="fill-opacity: 0; stroke: #3f3f3f"/>
     <use xlink:href="#mc3f2086322" x="476.772148" y="167.973943" style="fill-opacity: 0; stroke: #3f3f3f"/>
     <use xlink:href="#mc3f2086322" x="476.772148" y="165.033948" style="fill-opacity: 0; stroke: #3f3f3f"/>
     <use xlink:href="#mc3f2086322" x="476.772148" y="101.614042" style="fill-opacity: 0; stroke: #3f3f3f"/>
     <use xlink:href="#mc3f2086322" x="476.772148" y="128.946309" style="fill-opacity: 0; stroke: #3f3f3f"/>
     <use xlink:href="#mc3f2086322" x="476.772148" y="223.510783" style="fill-opacity: 0; stroke: #3f3f3f"/>
     <use xlink:href="#mc3f2086322" x="476.772148" y="164.904717" style="fill-opacity: 0; stroke: #3f3f3f"/>
     <use xlink:href="#mc3f2086322" x="476.772148" y="151.077045" style="fill-opacity: 0; stroke: #3f3f3f"/>
     <use xlink:href="#mc3f2086322" x="476.772148" y="118.963247" style="fill-opacity: 0; stroke: #3f3f3f"/>
     <use xlink:href="#mc3f2086322" x="476.772148" y="103.29404" style="fill-opacity: 0; stroke: #3f3f3f"/>
     <use xlink:href="#mc3f2086322" x="476.772148" y="197.664668" style="fill-opacity: 0; stroke: #3f3f3f"/>
     <use xlink:href="#mc3f2086322" x="476.772148" y="112.146334" style="fill-opacity: 0; stroke: #3f3f3f"/>
     <use xlink:href="#mc3f2086322" x="476.772148" y="102.32481" style="fill-opacity: 0; stroke: #3f3f3f"/>
     <use xlink:href="#mc3f2086322" x="476.772148" y="117.444788" style="fill-opacity: 0; stroke: #3f3f3f"/>
     <use xlink:href="#mc3f2086322" x="476.772148" y="166.681638" style="fill-opacity: 0; stroke: #3f3f3f"/>
     <use xlink:href="#mc3f2086322" x="476.772148" y="116.378636" style="fill-opacity: 0; stroke: #3f3f3f"/>
     <use xlink:href="#mc3f2086322" x="476.772148" y="101.258658" style="fill-opacity: 0; stroke: #3f3f3f"/>
    </g>
   </g>
   <g id="line2d_39">
    <path d="M 425.930404 66.237172 
L 527.613892 66.237172 
" clip-path="url(#p9a354c47b9)" style="fill: none; stroke: #3f3f3f"/>
   </g>
   <g id="patch_16">
    <path d="M 413.219968 245.93875 
L 413.219968 26.88 
" style="fill: none; stroke: #000000; stroke-width: 0.8; stroke-linejoin: miter; stroke-linecap: square"/>
   </g>
   <g id="patch_17">
    <path d="M 540.324328 245.93875 
L 540.324328 26.88 
" style="fill: none; stroke: #000000; stroke-width: 0.8; stroke-linejoin: miter; stroke-linecap: square"/>
   </g>
   <g id="patch_18">
    <path d="M 413.219968 245.93875 
L 540.324328 245.93875 
" style="fill: none; stroke: #000000; stroke-width: 0.8; stroke-linejoin: miter; stroke-linecap: square"/>
   </g>
   <g id="patch_19">
    <path d="M 413.219968 26.88 
L 540.324328 26.88 
" style="fill: none; stroke: #000000; stroke-width: 0.8; stroke-linejoin: miter; stroke-linecap: square"/>
   </g>
   <g id="text_30">
    <!-- Zero count Percentage -->
    <g transform="translate(408.479023 20.88) scale(0.12 -0.12)">
     <defs>
      <path id="DejaVuSans-5a" d="M 359 4666 
L 4025 4666 
L 4025 4184 
L 1075 531 
L 4097 531 
L 4097 0 
L 288 0 
L 288 481 
L 3238 4134 
L 359 4134 
L 359 4666 
z
" transform="scale(0.015625)"/>
      <path id="DejaVuSans-50" d="M 1259 4147 
L 1259 2394 
L 2053 2394 
Q 2494 2394 2734 2622 
Q 2975 2850 2975 3272 
Q 2975 3691 2734 3919 
Q 2494 4147 2053 4147 
L 1259 4147 
z
M 628 4666 
L 2053 4666 
Q 2838 4666 3239 4311 
Q 3641 3956 3641 3272 
Q 3641 2581 3239 2228 
Q 2838 1875 2053 1875 
L 1259 1875 
L 1259 0 
L 628 0 
L 628 4666 
z
" transform="scale(0.015625)"/>
      <path id="DejaVuSans-67" d="M 2906 1791 
Q 2906 2416 2648 2759 
Q 2391 3103 1925 3103 
Q 1463 3103 1205 2759 
Q 947 2416 947 1791 
Q 947 1169 1205 825 
Q 1463 481 1925 481 
Q 2391 481 2648 825 
Q 2906 1169 2906 1791 
z
M 3481 434 
Q 3481 -459 3084 -895 
Q 2688 -1331 1869 -1331 
Q 1566 -1331 1297 -1286 
Q 1028 -1241 775 -1147 
L 775 -588 
Q 1028 -725 1275 -790 
Q 1522 -856 1778 -856 
Q 2344 -856 2625 -561 
Q 2906 -266 2906 331 
L 2906 616 
Q 2728 306 2450 153 
Q 2172 0 1784 0 
Q 1141 0 747 490 
Q 353 981 353 1791 
Q 353 2603 747 3093 
Q 1141 3584 1784 3584 
Q 2172 3584 2450 3431 
Q 2728 3278 2906 2969 
L 2906 3500 
L 3481 3500 
L 3481 434 
z
" transform="scale(0.015625)"/>
     </defs>
     <use xlink:href="#DejaVuSans-5a"/>
     <use xlink:href="#DejaVuSans-65" transform="translate(68.505859 0)"/>
     <use xlink:href="#DejaVuSans-72" transform="translate(130.029297 0)"/>
     <use xlink:href="#DejaVuSans-6f" transform="translate(168.892578 0)"/>
     <use xlink:href="#DejaVuSans-20" transform="translate(230.074219 0)"/>
     <use xlink:href="#DejaVuSans-63" transform="translate(261.861328 0)"/>
     <use xlink:href="#DejaVuSans-6f" transform="translate(316.841797 0)"/>
     <use xlink:href="#DejaVuSans-75" transform="translate(378.023438 0)"/>
     <use xlink:href="#DejaVuSans-6e" transform="translate(441.402344 0)"/>
     <use xlink:href="#DejaVuSans-74" transform="translate(504.78125 0)"/>
     <use xlink:href="#DejaVuSans-20" transform="translate(543.990234 0)"/>
     <use xlink:href="#DejaVuSans-50" transform="translate(575.777344 0)"/>
     <use xlink:href="#DejaVuSans-65" transform="translate(632.455078 0)"/>
     <use xlink:href="#DejaVuSans-72" transform="translate(693.978516 0)"/>
     <use xlink:href="#DejaVuSans-63" transform="translate(732.841797 0)"/>
     <use xlink:href="#DejaVuSans-65" transform="translate(787.822266 0)"/>
     <use xlink:href="#DejaVuSans-6e" transform="translate(849.345703 0)"/>
     <use xlink:href="#DejaVuSans-74" transform="translate(912.724609 0)"/>
     <use xlink:href="#DejaVuSans-61" transform="translate(951.933594 0)"/>
     <use xlink:href="#DejaVuSans-67" transform="translate(1013.212891 0)"/>
     <use xlink:href="#DejaVuSans-65" transform="translate(1076.689453 0)"/>
    </g>
   </g>
  </g>
  <g id="axes_4">
   <g id="patch_20">
    <path d="M 594.344328 245.93875 
L 848.553046 245.93875 
L 848.553046 26.88 
L 594.344328 26.88 
z
" style="fill: #ffffff"/>
   </g>
   <g id="FillBetweenPolyCollection_1">
    <defs>
     <path id="mc2fccc719f" d="M 605.899269 -42.087198 
L 605.899269 -42.06125 
L 607.06057 -42.06125 
L 608.221871 -42.06125 
L 609.383171 -42.06125 
L 610.544472 -42.06125 
L 611.705773 -42.06125 
L 612.867073 -42.06125 
L 614.028374 -42.06125 
L 615.189675 -42.06125 
L 616.350975 -42.06125 
L 617.512276 -42.06125 
L 618.673577 -42.06125 
L 619.834877 -42.06125 
L 620.996178 -42.06125 
L 622.157479 -42.06125 
L 623.318779 -42.06125 
L 624.48008 -42.06125 
L 625.641381 -42.06125 
L 626.802681 -42.06125 
L 627.963982 -42.06125 
L 629.125283 -42.06125 
L 630.286583 -42.06125 
L 631.447884 -42.06125 
L 632.609185 -42.06125 
L 633.770486 -42.06125 
L 634.931786 -42.06125 
L 636.093087 -42.06125 
L 637.254388 -42.06125 
L 638.415688 -42.06125 
L 639.576989 -42.06125 
L 640.73829 -42.06125 
L 641.89959 -42.06125 
L 643.060891 -42.06125 
L 644.222192 -42.06125 
L 645.383492 -42.06125 
L 646.544793 -42.06125 
L 647.706094 -42.06125 
L 648.867394 -42.06125 
L 650.028695 -42.06125 
L 651.189996 -42.06125 
L 652.351296 -42.06125 
L 653.512597 -42.06125 
L 654.673898 -42.06125 
L 655.835198 -42.06125 
L 656.996499 -42.06125 
L 658.1578 -42.06125 
L 659.3191 -42.06125 
L 660.480401 -42.06125 
L 661.641702 -42.06125 
L 662.803002 -42.06125 
L 663.964303 -42.06125 
L 665.125604 -42.06125 
L 666.286904 -42.06125 
L 667.448205 -42.06125 
L 668.609506 -42.06125 
L 669.770807 -42.06125 
L 670.932107 -42.06125 
L 672.093408 -42.06125 
L 673.254709 -42.06125 
L 674.416009 -42.06125 
L 675.57731 -42.06125 
L 676.738611 -42.06125 
L 677.899911 -42.06125 
L 679.061212 -42.06125 
L 680.222513 -42.06125 
L 681.383813 -42.06125 
L 682.545114 -42.06125 
L 683.706415 -42.06125 
L 684.867715 -42.06125 
L 686.029016 -42.06125 
L 687.190317 -42.06125 
L 688.351617 -42.06125 
L 689.512918 -42.06125 
L 690.674219 -42.06125 
L 691.835519 -42.06125 
L 692.99682 -42.06125 
L 694.158121 -42.06125 
L 695.319421 -42.06125 
L 696.480722 -42.06125 
L 697.642023 -42.06125 
L 698.803323 -42.06125 
L 699.964624 -42.06125 
L 701.125925 -42.06125 
L 702.287225 -42.06125 
L 703.448526 -42.06125 
L 704.609827 -42.06125 
L 705.771128 -42.06125 
L 706.932428 -42.06125 
L 708.093729 -42.06125 
L 709.25503 -42.06125 
L 710.41633 -42.06125 
L 711.577631 -42.06125 
L 712.738932 -42.06125 
L 713.900232 -42.06125 
L 715.061533 -42.06125 
L 716.222834 -42.06125 
L 717.384134 -42.06125 
L 718.545435 -42.06125 
L 719.706736 -42.06125 
L 720.868036 -42.06125 
L 722.029337 -42.06125 
L 723.190638 -42.06125 
L 724.351938 -42.06125 
L 725.513239 -42.06125 
L 726.67454 -42.06125 
L 727.83584 -42.06125 
L 728.997141 -42.06125 
L 730.158442 -42.06125 
L 731.319742 -42.06125 
L 732.481043 -42.06125 
L 733.642344 -42.06125 
L 734.803644 -42.06125 
L 735.964945 -42.06125 
L 737.126246 -42.06125 
L 738.287547 -42.06125 
L 739.448847 -42.06125 
L 740.610148 -42.06125 
L 741.771449 -42.06125 
L 742.932749 -42.06125 
L 744.09405 -42.06125 
L 745.255351 -42.06125 
L 746.416651 -42.06125 
L 747.577952 -42.06125 
L 748.739253 -42.06125 
L 749.900553 -42.06125 
L 751.061854 -42.06125 
L 752.223155 -42.06125 
L 753.384455 -42.06125 
L 754.545756 -42.06125 
L 755.707057 -42.06125 
L 756.868357 -42.06125 
L 758.029658 -42.06125 
L 759.190959 -42.06125 
L 760.352259 -42.06125 
L 761.51356 -42.06125 
L 762.674861 -42.06125 
L 763.836161 -42.06125 
L 764.997462 -42.06125 
L 766.158763 -42.06125 
L 767.320063 -42.06125 
L 768.481364 -42.06125 
L 769.642665 -42.06125 
L 770.803965 -42.06125 
L 771.965266 -42.06125 
L 773.126567 -42.06125 
L 774.287868 -42.06125 
L 775.449168 -42.06125 
L 776.610469 -42.06125 
L 777.77177 -42.06125 
L 778.93307 -42.06125 
L 780.094371 -42.06125 
L 781.255672 -42.06125 
L 782.416972 -42.06125 
L 783.578273 -42.06125 
L 784.739574 -42.06125 
L 785.900874 -42.06125 
L 787.062175 -42.06125 
L 788.223476 -42.06125 
L 789.384776 -42.06125 
L 790.546077 -42.06125 
L 791.707378 -42.06125 
L 792.868678 -42.06125 
L 794.029979 -42.06125 
L 795.19128 -42.06125 
L 796.35258 -42.06125 
L 797.513881 -42.06125 
L 798.675182 -42.06125 
L 799.836482 -42.06125 
L 800.997783 -42.06125 
L 802.159084 -42.06125 
L 803.320384 -42.06125 
L 804.481685 -42.06125 
L 805.642986 -42.06125 
L 806.804286 -42.06125 
L 807.965587 -42.06125 
L 809.126888 -42.06125 
L 810.288189 -42.06125 
L 811.449489 -42.06125 
L 812.61079 -42.06125 
L 813.772091 -42.06125 
L 814.933391 -42.06125 
L 816.094692 -42.06125 
L 817.255993 -42.06125 
L 818.417293 -42.06125 
L 819.578594 -42.06125 
L 820.739895 -42.06125 
L 821.901195 -42.06125 
L 823.062496 -42.06125 
L 824.223797 -42.06125 
L 825.385097 -42.06125 
L 826.546398 -42.06125 
L 827.707699 -42.06125 
L 828.868999 -42.06125 
L 830.0303 -42.06125 
L 831.191601 -42.06125 
L 832.352901 -42.06125 
L 833.514202 -42.06125 
L 834.675503 -42.06125 
L 835.836803 -42.06125 
L 836.998104 -42.06125 
L 836.998104 -42.075078 
L 836.998104 -42.075078 
L 835.836803 -42.082077 
L 834.675503 -42.092041 
L 833.514202 -42.105942 
L 832.352901 -42.124948 
L 831.191601 -42.150416 
L 830.0303 -42.183867 
L 828.868999 -42.226946 
L 827.707699 -42.281356 
L 826.546398 -42.34878 
L 825.385097 -42.430798 
L 824.223797 -42.528799 
L 823.062496 -42.643915 
L 821.901195 -42.776967 
L 820.739895 -42.92845 
L 819.578594 -43.09854 
L 818.417293 -43.287131 
L 817.255993 -43.493863 
L 816.094692 -43.71815 
L 814.933391 -43.959159 
L 813.772091 -44.215733 
L 812.61079 -44.486257 
L 811.449489 -44.768457 
L 810.288189 -45.059179 
L 809.126888 -45.354174 
L 807.965587 -45.647952 
L 806.804286 -45.933759 
L 805.642986 -46.20372 
L 804.481685 -46.449173 
L 803.320384 -46.661202 
L 802.159084 -46.831313 
L 800.997783 -46.952213 
L 799.836482 -47.018592 
L 798.675182 -47.027818 
L 797.513881 -46.980473 
L 796.35258 -46.880638 
L 795.19128 -46.735905 
L 794.029979 -46.557111 
L 792.868678 -46.357798 
L 791.707378 -46.153478 
L 790.546077 -45.960745 
L 789.384776 -45.796328 
L 788.223476 -45.676143 
L 787.062175 -45.614427 
L 785.900874 -45.622979 
L 784.739574 -45.710582 
L 783.578273 -45.882599 
L 782.416972 -46.140772 
L 781.255672 -46.483231 
L 780.094371 -46.904709 
L 778.93307 -47.396959 
L 777.77177 -47.949354 
L 776.610469 -48.549667 
L 775.449168 -49.184977 
L 774.287868 -49.84268 
L 773.126567 -50.511513 
L 771.965266 -51.182547 
L 770.803965 -51.85003 
L 769.642665 -52.512005 
L 768.481364 -53.170609 
L 767.320063 -53.832007 
L 766.158763 -54.505919 
L 764.997462 -55.204775 
L 763.836161 -55.94257 
L 762.674861 -56.733534 
L 761.51356 -57.590777 
L 760.352259 -58.525063 
L 759.190959 -59.543871 
L 758.029658 -60.650853 
L 756.868357 -61.845744 
L 755.707057 -63.124717 
L 754.545756 -64.481106 
L 753.384455 -65.906371 
L 752.223155 -67.391154 
L 751.061854 -68.926276 
L 749.900553 -70.503528 
L 748.739253 -72.11618 
L 747.577952 -73.759178 
L 746.416651 -75.429039 
L 745.255351 -77.12352 
L 744.09405 -78.841158 
L 742.932749 -80.580787 
L 741.771449 -82.34113 
L 740.610148 -84.120544 
L 739.448847 -85.916949 
L 738.287547 -87.727941 
L 737.126246 -89.551066 
L 735.964945 -91.384173 
L 734.803644 -93.225787 
L 733.642344 -95.075408 
L 732.481043 -96.933697 
L 731.319742 -98.802488 
L 730.158442 -100.684655 
L 728.997141 -102.583846 
L 727.83584 -104.504168 
L 726.67454 -106.449882 
L 725.513239 -108.425218 
L 724.351938 -110.434341 
L 723.190638 -112.481516 
L 722.029337 -114.571452 
L 720.868036 -116.709764 
L 719.706736 -118.903475 
L 718.545435 -121.161431 
L 717.384134 -123.494532 
L 716.222834 -125.915679 
L 715.061533 -128.439394 
L 713.900232 -131.081108 
L 712.738932 -133.85619 
L 711.577631 -136.778814 
L 710.41633 -139.860856 
L 709.25503 -143.110961 
L 708.093729 -146.533983 
L 706.932428 -150.130893 
L 705.771128 -153.899202 
L 704.609827 -157.833848 
L 703.448526 -161.928375 
L 702.287225 -166.17616 
L 701.125925 -170.571397 
L 699.964624 -175.109539 
L 698.803323 -179.786995 
L 697.642023 -184.599976 
L 696.480722 -189.542559 
L 695.319421 -194.604184 
L 694.158121 -199.766953 
L 692.99682 -205.003155 
L 691.835519 -210.273441 
L 690.674219 -215.526012 
L 689.512918 -220.697021 
L 688.351617 -225.71222 
L 687.190317 -230.489704 
L 686.029016 -234.943449 
L 684.867715 -238.987271 
L 683.706415 -242.538778 
L 682.545114 -245.522969 
L 681.383813 -247.875194 
L 680.222513 -249.54333 
L 679.061212 -250.489105 
L 677.899911 -250.688631 
L 676.738611 -250.132232 
L 675.57731 -248.823669 
L 674.416009 -246.778897 
L 673.254709 -244.02442 
L 672.093408 -240.59537 
L 670.932107 -236.533382 
L 669.770807 -231.884409 
L 668.609506 -226.696621 
L 667.448205 -221.018562 
L 666.286904 -214.897749 
L 665.125604 -208.379839 
L 663.964303 -201.508463 
L 662.803002 -194.325689 
L 661.641702 -186.873021 
L 660.480401 -179.19271 
L 659.3191 -171.329145 
L 658.1578 -163.330028 
L 656.996499 -155.247126 
L 655.835198 -147.136421 
L 654.673898 -139.057609 
L 653.512597 -131.072986 
L 652.351296 -123.245854 
L 651.189996 -115.638613 
L 650.028695 -108.310753 
L 648.867394 -101.316923 
L 647.706094 -94.705213 
L 646.544793 -88.515761 
L 645.383492 -82.779708 
L 644.222192 -77.518534 
L 643.060891 -72.743736 
L 641.89959 -68.456865 
L 640.73829 -64.649871 
L 639.576989 -61.30578 
L 638.415688 -58.399672 
L 637.254388 -55.899958 
L 636.093087 -53.769906 
L 634.931786 -51.969365 
L 633.770486 -50.456583 
L 632.609185 -49.19001 
L 631.447884 -48.129964 
L 630.286583 -47.240028 
L 629.125283 -46.488097 
L 627.963982 -45.847009 
L 626.802681 -45.29474 
L 625.641381 -44.814213 
L 624.48008 -44.392779 
L 623.318779 -44.021473 
L 622.157479 -43.694164 
L 620.996178 -43.406701 
L 619.834877 -43.156135 
L 618.673577 -42.940096 
L 617.512276 -42.756338 
L 616.350975 -42.602466 
L 615.189675 -42.47582 
L 614.028374 -42.373478 
L 612.867073 -42.292346 
L 611.705773 -42.229285 
L 610.544472 -42.181247 
L 609.383171 -42.145389 
L 608.221871 -42.119167 
L 607.06057 -42.100381 
L 605.899269 -42.087198 
z
" style="stroke: #1f77b4"/>
    </defs>
    <g clip-path="url(#p163fa2b4b5)">
     <use xlink:href="#mc2fccc719f" x="0" y="288" style="fill: #1f77b4; fill-opacity: 0.25; stroke: #1f77b4"/>
    </g>
   </g>
   <g id="matplotlib.axis_7">
    <g id="xtick_4">
     <g id="line2d_40">
      <g>
       <use xlink:href="#m9f64d942ea" x="609.894817" y="245.93875" style="stroke: #000000; stroke-width: 0.8"/>
      </g>
     </g>
     <g id="text_31">
      <!-- 0 -->
      <g transform="translate(606.713567 260.537188) scale(0.1 -0.1)">
       <use xlink:href="#DejaVuSans-30"/>
      </g>
     </g>
    </g>
    <g id="xtick_5">
     <g id="line2d_41">
      <g>
       <use xlink:href="#m9f64d942ea" x="669.10831" y="245.93875" style="stroke: #000000; stroke-width: 0.8"/>
      </g>
     </g>
     <g id="text_32">
      <!-- 10 -->
      <g transform="translate(662.74581 260.537188) scale(0.1 -0.1)">
       <use xlink:href="#DejaVuSans-31"/>
       <use xlink:href="#DejaVuSans-30" transform="translate(63.623047 0)"/>
      </g>
     </g>
    </g>
    <g id="xtick_6">
     <g id="line2d_42">
      <g>
       <use xlink:href="#m9f64d942ea" x="728.321804" y="245.93875" style="stroke: #000000; stroke-width: 0.8"/>
      </g>
     </g>
     <g id="text_33">
      <!-- 20 -->
      <g transform="translate(721.959304 260.537188) scale(0.1 -0.1)">
       <use xlink:href="#DejaVuSans-32"/>
       <use xlink:href="#DejaVuSans-30" transform="translate(63.623047 0)"/>
      </g>
     </g>
    </g>
    <g id="xtick_7">
     <g id="line2d_43">
      <g>
       <use xlink:href="#m9f64d942ea" x="787.535298" y="245.93875" style="stroke: #000000; stroke-width: 0.8"/>
      </g>
     </g>
     <g id="text_34">
      <!-- 30 -->
      <g transform="translate(781.172798 260.537188) scale(0.1 -0.1)">
       <defs>
        <path id="DejaVuSans-33" d="M 2597 2516 
Q 3050 2419 3304 2112 
Q 3559 1806 3559 1356 
Q 3559 666 3084 287 
Q 2609 -91 1734 -91 
Q 1441 -91 1130 -33 
Q 819 25 488 141 
L 488 750 
Q 750 597 1062 519 
Q 1375 441 1716 441 
Q 2309 441 2620 675 
Q 2931 909 2931 1356 
Q 2931 1769 2642 2001 
Q 2353 2234 1838 2234 
L 1294 2234 
L 1294 2753 
L 1863 2753 
Q 2328 2753 2575 2939 
Q 2822 3125 2822 3475 
Q 2822 3834 2567 4026 
Q 2313 4219 1838 4219 
Q 1578 4219 1281 4162 
Q 984 4106 628 3988 
L 628 4550 
Q 988 4650 1302 4700 
Q 1616 4750 1894 4750 
Q 2613 4750 3031 4423 
Q 3450 4097 3450 3541 
Q 3450 3153 3228 2886 
Q 3006 2619 2597 2516 
z
" transform="scale(0.015625)"/>
       </defs>
       <use xlink:href="#DejaVuSans-33"/>
       <use xlink:href="#DejaVuSans-30" transform="translate(63.623047 0)"/>
      </g>
     </g>
    </g>
    <g id="xtick_8">
     <g id="line2d_44">
      <g>
       <use xlink:href="#m9f64d942ea" x="846.748792" y="245.93875" style="stroke: #000000; stroke-width: 0.8"/>
      </g>
     </g>
     <g id="text_35">
      <!-- 40 -->
      <g transform="translate(840.386292 260.537188) scale(0.1 -0.1)">
       <use xlink:href="#DejaVuSans-34"/>
       <use xlink:href="#DejaVuSans-30" transform="translate(63.623047 0)"/>
      </g>
     </g>
    </g>
    <g id="text_36">
     <!-- count_skew -->
     <g transform="translate(692.358062 274.215312) scale(0.1 -0.1)">
      <defs>
       <path id="DejaVuSans-6b" d="M 581 4863 
L 1159 4863 
L 1159 1991 
L 2875 3500 
L 3609 3500 
L 1753 1863 
L 3688 0 
L 2938 0 
L 1159 1709 
L 1159 0 
L 581 0 
L 581 4863 
z
" transform="scale(0.015625)"/>
       <path id="DejaVuSans-77" d="M 269 3500 
L 844 3500 
L 1563 769 
L 2278 3500 
L 2956 3500 
L 3675 769 
L 4391 3500 
L 4966 3500 
L 4050 0 
L 3372 0 
L 2619 2869 
L 1863 0 
L 1184 0 
L 269 3500 
z
" transform="scale(0.015625)"/>
      </defs>
      <use xlink:href="#DejaVuSans-63"/>
      <use xlink:href="#DejaVuSans-6f" transform="translate(54.980469 0)"/>
      <use xlink:href="#DejaVuSans-75" transform="translate(116.162109 0)"/>
      <use xlink:href="#DejaVuSans-6e" transform="translate(179.541016 0)"/>
      <use xlink:href="#DejaVuSans-74" transform="translate(242.919922 0)"/>
      <use xlink:href="#DejaVuSans-5f" transform="translate(282.128906 0)"/>
      <use xlink:href="#DejaVuSans-73" transform="translate(332.128906 0)"/>
      <use xlink:href="#DejaVuSans-6b" transform="translate(384.228516 0)"/>
      <use xlink:href="#DejaVuSans-65" transform="translate(438.513672 0)"/>
      <use xlink:href="#DejaVuSans-77" transform="translate(500.037109 0)"/>
     </g>
    </g>
   </g>
   <g id="matplotlib.axis_8">
    <g id="ytick_19">
     <g id="line2d_45">
      <g>
       <use xlink:href="#m2385146e2e" x="594.344328" y="245.93875" style="stroke: #000000; stroke-width: 0.8"/>
      </g>
     </g>
     <g id="text_37">
      <!-- 0.00 -->
      <g transform="translate(565.078703 249.737969) scale(0.1 -0.1)">
       <defs>
        <path id="DejaVuSans-2e" d="M 684 794 
L 1344 794 
L 1344 0 
L 684 0 
L 684 794 
z
" transform="scale(0.015625)"/>
       </defs>
       <use xlink:href="#DejaVuSans-30"/>
       <use xlink:href="#DejaVuSans-2e" transform="translate(63.623047 0)"/>
       <use xlink:href="#DejaVuSans-30" transform="translate(95.410156 0)"/>
       <use xlink:href="#DejaVuSans-30" transform="translate(159.033203 0)"/>
      </g>
     </g>
    </g>
    <g id="ytick_20">
     <g id="line2d_46">
      <g>
       <use xlink:href="#m2385146e2e" x="594.344328" y="202.545294" style="stroke: #000000; stroke-width: 0.8"/>
      </g>
     </g>
     <g id="text_38">
      <!-- 0.02 -->
      <g transform="translate(565.078703 206.344513) scale(0.1 -0.1)">
       <use xlink:href="#DejaVuSans-30"/>
       <use xlink:href="#DejaVuSans-2e" transform="translate(63.623047 0)"/>
       <use xlink:href="#DejaVuSans-30" transform="translate(95.410156 0)"/>
       <use xlink:href="#DejaVuSans-32" transform="translate(159.033203 0)"/>
      </g>
     </g>
    </g>
    <g id="ytick_21">
     <g id="line2d_47">
      <g>
       <use xlink:href="#m2385146e2e" x="594.344328" y="159.151838" style="stroke: #000000; stroke-width: 0.8"/>
      </g>
     </g>
     <g id="text_39">
      <!-- 0.04 -->
      <g transform="translate(565.078703 162.951056) scale(0.1 -0.1)">
       <use xlink:href="#DejaVuSans-30"/>
       <use xlink:href="#DejaVuSans-2e" transform="translate(63.623047 0)"/>
       <use xlink:href="#DejaVuSans-30" transform="translate(95.410156 0)"/>
       <use xlink:href="#DejaVuSans-34" transform="translate(159.033203 0)"/>
      </g>
     </g>
    </g>
    <g id="ytick_22">
     <g id="line2d_48">
      <g>
       <use xlink:href="#m2385146e2e" x="594.344328" y="115.758382" style="stroke: #000000; stroke-width: 0.8"/>
      </g>
     </g>
     <g id="text_40">
      <!-- 0.06 -->
      <g transform="translate(565.078703 119.5576) scale(0.1 -0.1)">
       <use xlink:href="#DejaVuSans-30"/>
       <use xlink:href="#DejaVuSans-2e" transform="translate(63.623047 0)"/>
       <use xlink:href="#DejaVuSans-30" transform="translate(95.410156 0)"/>
       <use xlink:href="#DejaVuSans-36" transform="translate(159.033203 0)"/>
      </g>
     </g>
    </g>
    <g id="ytick_23">
     <g id="line2d_49">
      <g>
       <use xlink:href="#m2385146e2e" x="594.344328" y="72.364925" style="stroke: #000000; stroke-width: 0.8"/>
      </g>
     </g>
     <g id="text_41">
      <!-- 0.08 -->
      <g transform="translate(565.078703 76.164144) scale(0.1 -0.1)">
       <use xlink:href="#DejaVuSans-30"/>
       <use xlink:href="#DejaVuSans-2e" transform="translate(63.623047 0)"/>
       <use xlink:href="#DejaVuSans-30" transform="translate(95.410156 0)"/>
       <use xlink:href="#DejaVuSans-38" transform="translate(159.033203 0)"/>
      </g>
     </g>
    </g>
    <g id="ytick_24">
     <g id="line2d_50">
      <g>
       <use xlink:href="#m2385146e2e" x="594.344328" y="28.971469" style="stroke: #000000; stroke-width: 0.8"/>
      </g>
     </g>
     <g id="text_42">
      <!-- 0.10 -->
      <g transform="translate(565.078703 32.770688) scale(0.1 -0.1)">
       <use xlink:href="#DejaVuSans-30"/>
       <use xlink:href="#DejaVuSans-2e" transform="translate(63.623047 0)"/>
       <use xlink:href="#DejaVuSans-31" transform="translate(95.410156 0)"/>
       <use xlink:href="#DejaVuSans-30" transform="translate(159.033203 0)"/>
      </g>
     </g>
    </g>
    <g id="text_43">
     <!-- Density -->
     <g transform="translate(558.999015 155.417969) rotate(-90) scale(0.1 -0.1)">
      <defs>
       <path id="DejaVuSans-44" d="M 1259 4147 
L 1259 519 
L 2022 519 
Q 2988 519 3436 956 
Q 3884 1394 3884 2338 
Q 3884 3275 3436 3711 
Q 2988 4147 2022 4147 
L 1259 4147 
z
M 628 4666 
L 1925 4666 
Q 3281 4666 3915 4102 
Q 4550 3538 4550 2338 
Q 4550 1131 3912 565 
Q 3275 0 1925 0 
L 628 0 
L 628 4666 
z
" transform="scale(0.015625)"/>
      </defs>
      <use xlink:href="#DejaVuSans-44"/>
      <use xlink:href="#DejaVuSans-65" transform="translate(77.001953 0)"/>
      <use xlink:href="#DejaVuSans-6e" transform="translate(138.525391 0)"/>
      <use xlink:href="#DejaVuSans-73" transform="translate(201.904297 0)"/>
      <use xlink:href="#DejaVuSans-69" transform="translate(254.003906 0)"/>
      <use xlink:href="#DejaVuSans-74" transform="translate(281.787109 0)"/>
      <use xlink:href="#DejaVuSans-79" transform="translate(320.996094 0)"/>
     </g>
    </g>
   </g>
   <g id="patch_21">
    <path d="M 594.344328 245.93875 
L 594.344328 26.88 
" style="fill: none; stroke: #000000; stroke-width: 0.8; stroke-linejoin: miter; stroke-linecap: square"/>
   </g>
   <g id="patch_22">
    <path d="M 848.553046 245.93875 
L 848.553046 26.88 
" style="fill: none; stroke: #000000; stroke-width: 0.8; stroke-linejoin: miter; stroke-linecap: square"/>
   </g>
   <g id="patch_23">
    <path d="M 594.344328 245.93875 
L 848.553046 245.93875 
" style="fill: none; stroke: #000000; stroke-width: 0.8; stroke-linejoin: miter; stroke-linecap: square"/>
   </g>
   <g id="patch_24">
    <path d="M 594.344328 26.88 
L 848.553046 26.88 
" style="fill: none; stroke: #000000; stroke-width: 0.8; stroke-linejoin: miter; stroke-linecap: square"/>
   </g>
   <g id="text_44">
    <!-- Gene Frequency Skewness Distribution -->
    <g transform="translate(604.484312 20.88) scale(0.12 -0.12)">
     <defs>
      <path id="DejaVuSans-47" d="M 3809 666 
L 3809 1919 
L 2778 1919 
L 2778 2438 
L 4434 2438 
L 4434 434 
Q 4069 175 3628 42 
Q 3188 -91 2688 -91 
Q 1594 -91 976 548 
Q 359 1188 359 2328 
Q 359 3472 976 4111 
Q 1594 4750 2688 4750 
Q 3144 4750 3555 4637 
Q 3966 4525 4313 4306 
L 4313 3634 
Q 3963 3931 3569 4081 
Q 3175 4231 2741 4231 
Q 1884 4231 1454 3753 
Q 1025 3275 1025 2328 
Q 1025 1384 1454 906 
Q 1884 428 2741 428 
Q 3075 428 3337 486 
Q 3600 544 3809 666 
z
" transform="scale(0.015625)"/>
      <path id="DejaVuSans-46" d="M 628 4666 
L 3309 4666 
L 3309 4134 
L 1259 4134 
L 1259 2759 
L 3109 2759 
L 3109 2228 
L 1259 2228 
L 1259 0 
L 628 0 
L 628 4666 
z
" transform="scale(0.015625)"/>
      <path id="DejaVuSans-71" d="M 947 1747 
Q 947 1113 1208 752 
Q 1469 391 1925 391 
Q 2381 391 2643 752 
Q 2906 1113 2906 1747 
Q 2906 2381 2643 2742 
Q 2381 3103 1925 3103 
Q 1469 3103 1208 2742 
Q 947 2381 947 1747 
z
M 2906 525 
Q 2725 213 2448 61 
Q 2172 -91 1784 -91 
Q 1150 -91 751 415 
Q 353 922 353 1747 
Q 353 2572 751 3078 
Q 1150 3584 1784 3584 
Q 2172 3584 2448 3432 
Q 2725 3281 2906 2969 
L 2906 3500 
L 3481 3500 
L 3481 -1331 
L 2906 -1331 
L 2906 525 
z
" transform="scale(0.015625)"/>
      <path id="DejaVuSans-53" d="M 3425 4513 
L 3425 3897 
Q 3066 4069 2747 4153 
Q 2428 4238 2131 4238 
Q 1616 4238 1336 4038 
Q 1056 3838 1056 3469 
Q 1056 3159 1242 3001 
Q 1428 2844 1947 2747 
L 2328 2669 
Q 3034 2534 3370 2195 
Q 3706 1856 3706 1288 
Q 3706 609 3251 259 
Q 2797 -91 1919 -91 
Q 1588 -91 1214 -16 
Q 841 59 441 206 
L 441 856 
Q 825 641 1194 531 
Q 1563 422 1919 422 
Q 2459 422 2753 634 
Q 3047 847 3047 1241 
Q 3047 1584 2836 1778 
Q 2625 1972 2144 2069 
L 1759 2144 
Q 1053 2284 737 2584 
Q 422 2884 422 3419 
Q 422 4038 858 4394 
Q 1294 4750 2059 4750 
Q 2388 4750 2728 4690 
Q 3069 4631 3425 4513 
z
" transform="scale(0.015625)"/>
      <path id="DejaVuSans-62" d="M 3116 1747 
Q 3116 2381 2855 2742 
Q 2594 3103 2138 3103 
Q 1681 3103 1420 2742 
Q 1159 2381 1159 1747 
Q 1159 1113 1420 752 
Q 1681 391 2138 391 
Q 2594 391 2855 752 
Q 3116 1113 3116 1747 
z
M 1159 2969 
Q 1341 3281 1617 3432 
Q 1894 3584 2278 3584 
Q 2916 3584 3314 3078 
Q 3713 2572 3713 1747 
Q 3713 922 3314 415 
Q 2916 -91 2278 -91 
Q 1894 -91 1617 61 
Q 1341 213 1159 525 
L 1159 0 
L 581 0 
L 581 4863 
L 1159 4863 
L 1159 2969 
z
" transform="scale(0.015625)"/>
     </defs>
     <use xlink:href="#DejaVuSans-47"/>
     <use xlink:href="#DejaVuSans-65" transform="translate(77.490234 0)"/>
     <use xlink:href="#DejaVuSans-6e" transform="translate(139.013672 0)"/>
     <use xlink:href="#DejaVuSans-65" transform="translate(202.392578 0)"/>
     <use xlink:href="#DejaVuSans-20" transform="translate(263.916016 0)"/>
     <use xlink:href="#DejaVuSans-46" transform="translate(295.703125 0)"/>
     <use xlink:href="#DejaVuSans-72" transform="translate(345.972656 0)"/>
     <use xlink:href="#DejaVuSans-65" transform="translate(384.835938 0)"/>
     <use xlink:href="#DejaVuSans-71" transform="translate(446.359375 0)"/>
     <use xlink:href="#DejaVuSans-75" transform="translate(509.835938 0)"/>
     <use xlink:href="#DejaVuSans-65" transform="translate(573.214844 0)"/>
     <use xlink:href="#DejaVuSans-6e" transform="translate(634.738281 0)"/>
     <use xlink:href="#DejaVuSans-63" transform="translate(698.117188 0)"/>
     <use xlink:href="#DejaVuSans-79" transform="translate(753.097656 0)"/>
     <use xlink:href="#DejaVuSans-20" transform="translate(812.277344 0)"/>
     <use xlink:href="#DejaVuSans-53" transform="translate(844.064453 0)"/>
     <use xlink:href="#DejaVuSans-6b" transform="translate(907.541016 0)"/>
     <use xlink:href="#DejaVuSans-65" transform="translate(961.826172 0)"/>
     <use xlink:href="#DejaVuSans-77" transform="translate(1023.349609 0)"/>
     <use xlink:href="#DejaVuSans-6e" transform="translate(1105.136719 0)"/>
     <use xlink:href="#DejaVuSans-65" transform="translate(1168.515625 0)"/>
     <use xlink:href="#DejaVuSans-73" transform="translate(1230.039062 0)"/>
     <use xlink:href="#DejaVuSans-73" transform="translate(1282.138672 0)"/>
     <use xlink:href="#DejaVuSans-20" transform="translate(1334.238281 0)"/>
     <use xlink:href="#DejaVuSans-44" transform="translate(1366.025391 0)"/>
     <use xlink:href="#DejaVuSans-69" transform="translate(1443.027344 0)"/>
     <use xlink:href="#DejaVuSans-73" transform="translate(1470.810547 0)"/>
     <use xlink:href="#DejaVuSans-74" transform="translate(1522.910156 0)"/>
     <use xlink:href="#DejaVuSans-72" transform="translate(1562.119141 0)"/>
     <use xlink:href="#DejaVuSans-69" transform="translate(1603.232422 0)"/>
     <use xlink:href="#DejaVuSans-62" transform="translate(1631.015625 0)"/>
     <use xlink:href="#DejaVuSans-75" transform="translate(1694.492188 0)"/>
     <use xlink:href="#DejaVuSans-74" transform="translate(1757.871094 0)"/>
     <use xlink:href="#DejaVuSans-69" transform="translate(1797.080078 0)"/>
     <use xlink:href="#DejaVuSans-6f" transform="translate(1824.863281 0)"/>
     <use xlink:href="#DejaVuSans-6e" transform="translate(1886.044922 0)"/>
    </g>
   </g>
   <g id="legend_1">
    <g id="patch_25">
     <path d="M 789.488983 64.23625 
L 841.553046 64.23625 
Q 843.553046 64.23625 843.553046 62.23625 
L 843.553046 33.88 
Q 843.553046 31.88 841.553046 31.88 
L 789.488983 31.88 
Q 787.488983 31.88 787.488983 33.88 
L 787.488983 62.23625 
Q 787.488983 64.23625 789.488983 64.23625 
z
" style="fill: #ffffff; opacity: 0.8; stroke: #cccccc; stroke-linejoin: miter"/>
    </g>
    <g id="text_45">
     <!-- dataset -->
     <g transform="translate(796.617108 43.478438) scale(0.1 -0.1)">
      <use xlink:href="#DejaVuSans-64"/>
      <use xlink:href="#DejaVuSans-61" transform="translate(63.476562 0)"/>
      <use xlink:href="#DejaVuSans-74" transform="translate(124.755859 0)"/>
      <use xlink:href="#DejaVuSans-61" transform="translate(163.964844 0)"/>
      <use xlink:href="#DejaVuSans-73" transform="translate(225.244141 0)"/>
      <use xlink:href="#DejaVuSans-65" transform="translate(277.34375 0)"/>
      <use xlink:href="#DejaVuSans-74" transform="translate(338.867188 0)"/>
     </g>
    </g>
    <g id="patch_26">
     <path d="M 791.488983 58.156563 
L 811.488983 58.156563 
L 811.488983 51.156563 
L 791.488983 51.156563 
z
" style="fill: #1f77b4; fill-opacity: 0.25; stroke: #1f77b4; stroke-linejoin: miter"/>
    </g>
    <g id="text_46">
     <!-- BA9 -->
     <g transform="translate(819.488983 58.156563) scale(0.1 -0.1)">
      <use xlink:href="#DejaVuSans-42"/>
      <use xlink:href="#DejaVuSans-41" transform="translate(68.603516 0)"/>
      <use xlink:href="#DejaVuSans-39" transform="translate(137.011719 0)"/>
     </g>
    </g>
   </g>
  </g>
 </g>
 <defs>
  <clipPath id="pf83c2f8e8c">
   <rect x="50.97125" y="26.88" width="127.104359" height="219.05875"/>
  </clipPath>
  <clipPath id="pc5afc5b450">
   <rect x="232.095609" y="26.88" width="127.104359" height="219.05875"/>
  </clipPath>
  <clipPath id="p9a354c47b9">
   <rect x="413.219968" y="26.88" width="127.104359" height="219.05875"/>
  </clipPath>
  <clipPath id="p163fa2b4b5">
   <rect x="594.344328" y="26.88" width="254.208718" height="219.05875"/>
  </clipPath>
 </defs>
</svg>
