<?xml version="1.0" encoding="utf-8" standalone="no"?>
<!DOCTYPE svg PUBLIC "-//W3C//DTD SVG 1.1//EN"
  "http://www.w3.org/Graphics/SVG/1.1/DTD/svg11.dtd">
<svg xmlns:xlink="http://www.w3.org/1999/xlink" width="720pt" height="216pt" viewBox="0 0 720 216" xmlns="http://www.w3.org/2000/svg" version="1.1">
 <metadata>
  <rdf:RDF xmlns:dc="http://purl.org/dc/elements/1.1/" xmlns:cc="http://creativecommons.org/ns#" xmlns:rdf="http://www.w3.org/1999/02/22-rdf-syntax-ns#">
   <cc:Work>
    <dc:type rdf:resource="http://purl.org/dc/dcmitype/StillImage"/>
    <dc:date>2026-05-12T13:36:29.713794</dc:date>
    <dc:format>image/svg+xml</dc:format>
    <dc:creator>
     <cc:Agent>
      <dc:title>Matplotlib v3.10.9, https://matplotlib.org/</dc:title>
     </cc:Agent>
    </dc:creator>
   </cc:Work>
  </rdf:RDF>
 </metadata>
 <defs>
  <style type="text/css">*{stroke-linejoin: round; stroke-linecap: butt}</style>
 </defs>
 <g id="figure_1">
  <g id="patch_1">
   <path d="M 0 216 
L 720 216 
L 720 0 
L 0 0 
z
" style="fill: #ffffff"/>
  </g>
  <g id="axes_1">
   <g id="patch_2">
    <path d="M 51.005 173.68 
L 150.097 173.68 
L 150.097 26.16 
L 51.005 26.16 
z
" style="fill: #ffffff"/>
   </g>
   <g id="matplotlib.axis_1">
    <g id="xtick_1">
     <g id="line2d_1">
      <defs>
       <path id="m8c5eb38c17" d="M 0 0 
L 0 3.5 
" style="stroke: #000000; stroke-width: 0.8"/>
      </defs>
      <g>
       <use xlink:href="#m8c5eb38c17" x="100.551" y="173.68" style="stroke: #000000; stroke-width: 0.8"/>
      </g>
     </g>
     <g id="text_1">
      <!-- BLD -->
      <g transform="translate(90.484594 188.278437) scale(0.1 -0.1)">
       <defs>
        <path id="DejaVuSans-42" d="M 1259 2228 
L 1259 519 
L 2272 519 
Q 2781 519 3026 730 
Q 3272 941 3272 1375 
Q 3272 1813 3026 2020 
Q 2781 2228 2272 2228 
L 1259 2228 
z
M 1259 4147 
L 1259 2741 
L 2194 2741 
Q 2656 2741 2882 2914 
Q 3109 3088 3109 3444 
Q 3109 3797 2882 3972 
Q 2656 4147 2194 4147 
L 1259 4147 
z
M 628 4666 
L 2241 4666 
Q 2963 4666 3353 4366 
Q 3744 4066 3744 3513 
Q 3744 3084 3544 2831 
Q 3344 2578 2956 2516 
Q 3422 2416 3680 2098 
Q 3938 1781 3938 1306 
Q 3938 681 3513 340 
Q 3088 0 2303 0 
L 628 0 
L 628 4666 
z
" transform="scale(0.015625)"/>
        <path id="DejaVuSans-4c" d="M 628 4666 
L 1259 4666 
L 1259 531 
L 3531 531 
L 3531 0 
L 628 0 
L 628 4666 
z
" transform="scale(0.015625)"/>
        <path id="DejaVuSans-44" d="M 1259 4147 
L 1259 519 
L 2022 519 
Q 2988 519 3436 956 
Q 3884 1394 3884 2338 
Q 3884 3275 3436 3711 
Q 2988 4147 2022 4147 
L 1259 4147 
z
M 628 4666 
L 1925 4666 
Q 3281 4666 3915 4102 
Q 4550 3538 4550 2338 
Q 4550 1131 3912 565 
Q 3275 0 1925 0 
L 628 0 
L 628 4666 
z
" transform="scale(0.015625)"/>
       </defs>
       <use xlink:href="#DejaVuSans-42"/>
       <use xlink:href="#DejaVuSans-4c" transform="translate(68.603516 0)"/>
       <use xlink:href="#DejaVuSans-44" transform="translate(124.316406 0)"/>
      </g>
     </g>
    </g>
    <g id="text_2">
     <!-- dataset -->
     <g transform="translate(81.647094 201.956562) scale(0.1 -0.1)">
      <defs>
       <path id="DejaVuSans-64" d="M 2906 2969 
L 2906 4863 
L 3481 4863 
L 3481 0 
L 2906 0 
L 2906 525 
Q 2725 213 2448 61 
Q 2172 -91 1784 -91 
Q 1150 -91 751 415 
Q 353 922 353 1747 
Q 353 2572 751 3078 
Q 1150 3584 1784 3584 
Q 2172 3584 2448 3432 
Q 2725 3281 2906 2969 
z
M 947 1747 
Q 947 1113 1208 752 
Q 1469 391 1925 391 
Q 2381 391 2643 752 
Q 2906 1113 2906 1747 
Q 2906 2381 2643 2742 
Q 2381 3103 1925 3103 
Q 1469 3103 1208 2742 
Q 947 2381 947 1747 
z
" transform="scale(0.015625)"/>
       <path id="DejaVuSans-61" d="M 2194 1759 
Q 1497 1759 1228 1600 
Q 959 1441 959 1056 
Q 959 750 1161 570 
Q 1363 391 1709 391 
Q 2188 391 2477 730 
Q 2766 1069 2766 1631 
L 2766 1759 
L 2194 1759 
z
M 3341 1997 
L 3341 0 
L 2766 0 
L 2766 531 
Q 2569 213 2275 61 
Q 1981 -91 1556 -91 
Q 1019 -91 701 211 
Q 384 513 384 1019 
Q 384 1609 779 1909 
Q 1175 2209 1959 2209 
L 2766 2209 
L 2766 2266 
Q 2766 2663 2505 2880 
Q 2244 3097 1772 3097 
Q 1472 3097 1187 3025 
Q 903 2953 641 2809 
L 641 3341 
Q 956 3463 1253 3523 
Q 1550 3584 1831 3584 
Q 2591 3584 2966 3190 
Q 3341 2797 3341 1997 
z
" transform="scale(0.015625)"/>
       <path id="DejaVuSans-74" d="M 1172 4494 
L 1172 3500 
L 2356 3500 
L 2356 3053 
L 1172 3053 
L 1172 1153 
Q 1172 725 1289 603 
Q 1406 481 1766 481 
L 2356 481 
L 2356 0 
L 1766 0 
Q 1100 0 847 248 
Q 594 497 594 1153 
L 594 3053 
L 172 3053 
L 172 3500 
L 594 3500 
L 594 4494 
L 1172 4494 
z
" transform="scale(0.015625)"/>
       <path id="DejaVuSans-73" d="M 2834 3397 
L 2834 2853 
Q 2591 2978 2328 3040 
Q 2066 3103 1784 3103 
Q 1356 3103 1142 2972 
Q 928 2841 928 2578 
Q 928 2378 1081 2264 
Q 1234 2150 1697 2047 
L 1894 2003 
Q 2506 1872 2764 1633 
Q 3022 1394 3022 966 
Q 3022 478 2636 193 
Q 2250 -91 1575 -91 
Q 1294 -91 989 -36 
Q 684 19 347 128 
L 347 722 
Q 666 556 975 473 
Q 1284 391 1588 391 
Q 1994 391 2212 530 
Q 2431 669 2431 922 
Q 2431 1156 2273 1281 
Q 2116 1406 1581 1522 
L 1381 1569 
Q 847 1681 609 1914 
Q 372 2147 372 2553 
Q 372 3047 722 3315 
Q 1072 3584 1716 3584 
Q 2034 3584 2315 3537 
Q 2597 3491 2834 3397 
z
" transform="scale(0.015625)"/>
       <path id="DejaVuSans-65" d="M 3597 1894 
L 3597 1613 
L 953 1613 
Q 991 1019 1311 708 
Q 1631 397 2203 397 
Q 2534 397 2845 478 
Q 3156 559 3463 722 
L 3463 178 
Q 3153 47 2828 -22 
Q 2503 -91 2169 -91 
Q 1331 -91 842 396 
Q 353 884 353 1716 
Q 353 2575 817 3079 
Q 1281 3584 2069 3584 
Q 2775 3584 3186 3129 
Q 3597 2675 3597 1894 
z
M 3022 2063 
Q 3016 2534 2758 2815 
Q 2500 3097 2075 3097 
Q 1594 3097 1305 2825 
Q 1016 2553 972 2059 
L 3022 2063 
z
" transform="scale(0.015625)"/>
      </defs>
      <use xlink:href="#DejaVuSans-64"/>
      <use xlink:href="#DejaVuSans-61" transform="translate(63.476562 0)"/>
      <use xlink:href="#DejaVuSans-74" transform="translate(124.755859 0)"/>
      <use xlink:href="#DejaVuSans-61" transform="translate(163.964844 0)"/>
      <use xlink:href="#DejaVuSans-73" transform="translate(225.244141 0)"/>
      <use xlink:href="#DejaVuSans-65" transform="translate(277.34375 0)"/>
      <use xlink:href="#DejaVuSans-74" transform="translate(338.867188 0)"/>
     </g>
    </g>
   </g>
   <g id="matplotlib.axis_2">
    <g id="ytick_1">
     <g id="line2d_2">
      <defs>
       <path id="m0c7d25a760" d="M 0 0 
L -3.5 0 
" style="stroke: #000000; stroke-width: 0.8"/>
      </defs>
      <g>
       <use xlink:href="#m0c7d25a760" x="51.005" y="168.101513" style="stroke: #000000; stroke-width: 0.8"/>
      </g>
     </g>
     <g id="text_3">
      <!-- 0 -->
      <g transform="translate(37.6425 171.900731) scale(0.1 -0.1)">
       <defs>
        <path id="DejaVuSans-30" d="M 2034 4250 
Q 1547 4250 1301 3770 
Q 1056 3291 1056 2328 
Q 1056 1369 1301 889 
Q 1547 409 2034 409 
Q 2525 409 2770 889 
Q 3016 1369 3016 2328 
Q 3016 3291 2770 3770 
Q 2525 4250 2034 4250 
z
M 2034 4750 
Q 2819 4750 3233 4129 
Q 3647 3509 3647 2328 
Q 3647 1150 3233 529 
Q 2819 -91 2034 -91 
Q 1250 -91 836 529 
Q 422 1150 422 2328 
Q 422 3509 836 4129 
Q 1250 4750 2034 4750 
z
" transform="scale(0.015625)"/>
       </defs>
       <use xlink:href="#DejaVuSans-30"/>
      </g>
     </g>
    </g>
    <g id="ytick_2">
     <g id="line2d_3">
      <g>
       <use xlink:href="#m0c7d25a760" x="51.005" y="145.56217" style="stroke: #000000; stroke-width: 0.8"/>
      </g>
     </g>
     <g id="text_4">
      <!-- 20 -->
      <g transform="translate(31.28 149.361388) scale(0.1 -0.1)">
       <defs>
        <path id="DejaVuSans-32" d="M 1228 531 
L 3431 531 
L 3431 0 
L 469 0 
L 469 531 
Q 828 903 1448 1529 
Q 2069 2156 2228 2338 
Q 2531 2678 2651 2914 
Q 2772 3150 2772 3378 
Q 2772 3750 2511 3984 
Q 2250 4219 1831 4219 
Q 1534 4219 1204 4116 
Q 875 4013 500 3803 
L 500 4441 
Q 881 4594 1212 4672 
Q 1544 4750 1819 4750 
Q 2544 4750 2975 4387 
Q 3406 4025 3406 3419 
Q 3406 3131 3298 2873 
Q 3191 2616 2906 2266 
Q 2828 2175 2409 1742 
Q 1991 1309 1228 531 
z
" transform="scale(0.015625)"/>
       </defs>
       <use xlink:href="#DejaVuSans-32"/>
       <use xlink:href="#DejaVuSans-30" transform="translate(63.623047 0)"/>
      </g>
     </g>
    </g>
    <g id="ytick_3">
     <g id="line2d_4">
      <g>
       <use xlink:href="#m0c7d25a760" x="51.005" y="123.022827" style="stroke: #000000; stroke-width: 0.8"/>
      </g>
     </g>
     <g id="text_5">
      <!-- 40 -->
      <g transform="translate(31.28 126.822045) scale(0.1 -0.1)">
       <defs>
        <path id="DejaVuSans-34" d="M 2419 4116 
L 825 1625 
L 2419 1625 
L 2419 4116 
z
M 2253 4666 
L 3047 4666 
L 3047 1625 
L 3713 1625 
L 3713 1100 
L 3047 1100 
L 3047 0 
L 2419 0 
L 2419 1100 
L 313 1100 
L 313 1709 
L 2253 4666 
z
" transform="scale(0.015625)"/>
       </defs>
       <use xlink:href="#DejaVuSans-34"/>
       <use xlink:href="#DejaVuSans-30" transform="translate(63.623047 0)"/>
      </g>
     </g>
    </g>
    <g id="ytick_4">
     <g id="line2d_5">
      <g>
       <use xlink:href="#m0c7d25a760" x="51.005" y="100.483484" style="stroke: #000000; stroke-width: 0.8"/>
      </g>
     </g>
     <g id="text_6">
      <!-- 60 -->
      <g transform="translate(31.28 104.282702) scale(0.1 -0.1)">
       <defs>
        <path id="DejaVuSans-36" d="M 2113 2584 
Q 1688 2584 1439 2293 
Q 1191 2003 1191 1497 
Q 1191 994 1439 701 
Q 1688 409 2113 409 
Q 2538 409 2786 701 
Q 3034 994 3034 1497 
Q 3034 2003 2786 2293 
Q 2538 2584 2113 2584 
z
M 3366 4563 
L 3366 3988 
Q 3128 4100 2886 4159 
Q 2644 4219 2406 4219 
Q 1781 4219 1451 3797 
Q 1122 3375 1075 2522 
Q 1259 2794 1537 2939 
Q 1816 3084 2150 3084 
Q 2853 3084 3261 2657 
Q 3669 2231 3669 1497 
Q 3669 778 3244 343 
Q 2819 -91 2113 -91 
Q 1303 -91 875 529 
Q 447 1150 447 2328 
Q 447 3434 972 4092 
Q 1497 4750 2381 4750 
Q 2619 4750 2861 4703 
Q 3103 4656 3366 4563 
z
" transform="scale(0.015625)"/>
       </defs>
       <use xlink:href="#DejaVuSans-36"/>
       <use xlink:href="#DejaVuSans-30" transform="translate(63.623047 0)"/>
      </g>
     </g>
    </g>
    <g id="ytick_5">
     <g id="line2d_6">
      <g>
       <use xlink:href="#m0c7d25a760" x="51.005" y="77.944141" style="stroke: #000000; stroke-width: 0.8"/>
      </g>
     </g>
     <g id="text_7">
      <!-- 80 -->
      <g transform="translate(31.28 81.743359) scale(0.1 -0.1)">
       <defs>
        <path id="DejaVuSans-38" d="M 2034 2216 
Q 1584 2216 1326 1975 
Q 1069 1734 1069 1313 
Q 1069 891 1326 650 
Q 1584 409 2034 409 
Q 2484 409 2743 651 
Q 3003 894 3003 1313 
Q 3003 1734 2745 1975 
Q 2488 2216 2034 2216 
z
M 1403 2484 
Q 997 2584 770 2862 
Q 544 3141 544 3541 
Q 544 4100 942 4425 
Q 1341 4750 2034 4750 
Q 2731 4750 3128 4425 
Q 3525 4100 3525 3541 
Q 3525 3141 3298 2862 
Q 3072 2584 2669 2484 
Q 3125 2378 3379 2068 
Q 3634 1759 3634 1313 
Q 3634 634 3220 271 
Q 2806 -91 2034 -91 
Q 1263 -91 848 271 
Q 434 634 434 1313 
Q 434 1759 690 2068 
Q 947 2378 1403 2484 
z
M 1172 3481 
Q 1172 3119 1398 2916 
Q 1625 2713 2034 2713 
Q 2441 2713 2670 2916 
Q 2900 3119 2900 3481 
Q 2900 3844 2670 4047 
Q 2441 4250 2034 4250 
Q 1625 4250 1398 4047 
Q 1172 3844 1172 3481 
z
" transform="scale(0.015625)"/>
       </defs>
       <use xlink:href="#DejaVuSans-38"/>
       <use xlink:href="#DejaVuSans-30" transform="translate(63.623047 0)"/>
      </g>
     </g>
    </g>
    <g id="ytick_6">
     <g id="line2d_7">
      <g>
       <use xlink:href="#m0c7d25a760" x="51.005" y="55.404798" style="stroke: #000000; stroke-width: 0.8"/>
      </g>
     </g>
     <g id="text_8">
      <!-- 100 -->
      <g transform="translate(24.9175 59.204016) scale(0.1 -0.1)">
       <defs>
        <path id="DejaVuSans-31" d="M 794 531 
L 1825 531 
L 1825 4091 
L 703 3866 
L 703 4441 
L 1819 4666 
L 2450 4666 
L 2450 531 
L 3481 531 
L 3481 0 
L 794 0 
L 794 531 
z
" transform="scale(0.015625)"/>
       </defs>
       <use xlink:href="#DejaVuSans-31"/>
       <use xlink:href="#DejaVuSans-30" transform="translate(63.623047 0)"/>
       <use xlink:href="#DejaVuSans-30" transform="translate(127.246094 0)"/>
      </g>
     </g>
    </g>
    <g id="ytick_7">
     <g id="line2d_8">
      <g>
       <use xlink:href="#m0c7d25a760" x="51.005" y="32.865455" style="stroke: #000000; stroke-width: 0.8"/>
      </g>
     </g>
     <g id="text_9">
      <!-- 120 -->
      <g transform="translate(24.9175 36.664673) scale(0.1 -0.1)">
       <use xlink:href="#DejaVuSans-31"/>
       <use xlink:href="#DejaVuSans-32" transform="translate(63.623047 0)"/>
       <use xlink:href="#DejaVuSans-30" transform="translate(127.246094 0)"/>
      </g>
     </g>
    </g>
    <g id="text_10">
     <!-- Count -->
     <g transform="translate(18.837812 114.768438) rotate(-90) scale(0.1 -0.1)">
      <defs>
       <path id="DejaVuSans-43" d="M 4122 4306 
L 4122 3641 
Q 3803 3938 3442 4084 
Q 3081 4231 2675 4231 
Q 1875 4231 1450 3742 
Q 1025 3253 1025 2328 
Q 1025 1406 1450 917 
Q 1875 428 2675 428 
Q 3081 428 3442 575 
Q 3803 722 4122 1019 
L 4122 359 
Q 3791 134 3420 21 
Q 3050 -91 2638 -91 
Q 1578 -91 968 557 
Q 359 1206 359 2328 
Q 359 3453 968 4101 
Q 1578 4750 2638 4750 
Q 3056 4750 3426 4639 
Q 3797 4528 4122 4306 
z
" transform="scale(0.015625)"/>
       <path id="DejaVuSans-6f" d="M 1959 3097 
Q 1497 3097 1228 2736 
Q 959 2375 959 1747 
Q 959 1119 1226 758 
Q 1494 397 1959 397 
Q 2419 397 2687 759 
Q 2956 1122 2956 1747 
Q 2956 2369 2687 2733 
Q 2419 3097 1959 3097 
z
M 1959 3584 
Q 2709 3584 3137 3096 
Q 3566 2609 3566 1747 
Q 3566 888 3137 398 
Q 2709 -91 1959 -91 
Q 1206 -91 779 398 
Q 353 888 353 1747 
Q 353 2609 779 3096 
Q 1206 3584 1959 3584 
z
" transform="scale(0.015625)"/>
       <path id="DejaVuSans-75" d="M 544 1381 
L 544 3500 
L 1119 3500 
L 1119 1403 
Q 1119 906 1312 657 
Q 1506 409 1894 409 
Q 2359 409 2629 706 
Q 2900 1003 2900 1516 
L 2900 3500 
L 3475 3500 
L 3475 0 
L 2900 0 
L 2900 538 
Q 2691 219 2414 64 
Q 2138 -91 1772 -91 
Q 1169 -91 856 284 
Q 544 659 544 1381 
z
M 1991 3584 
L 1991 3584 
z
" transform="scale(0.015625)"/>
       <path id="DejaVuSans-6e" d="M 3513 2113 
L 3513 0 
L 2938 0 
L 2938 2094 
Q 2938 2591 2744 2837 
Q 2550 3084 2163 3084 
Q 1697 3084 1428 2787 
Q 1159 2491 1159 1978 
L 1159 0 
L 581 0 
L 581 3500 
L 1159 3500 
L 1159 2956 
Q 1366 3272 1645 3428 
Q 1925 3584 2291 3584 
Q 2894 3584 3203 3211 
Q 3513 2838 3513 2113 
z
" transform="scale(0.015625)"/>
      </defs>
      <use xlink:href="#DejaVuSans-43"/>
      <use xlink:href="#DejaVuSans-6f" transform="translate(69.824219 0)"/>
      <use xlink:href="#DejaVuSans-75" transform="translate(131.005859 0)"/>
      <use xlink:href="#DejaVuSans-6e" transform="translate(194.384766 0)"/>
      <use xlink:href="#DejaVuSans-74" transform="translate(257.763672 0)"/>
     </g>
    </g>
   </g>
   <g id="patch_3">
    <path d="M 60.9142 162.466677 
L 140.1878 162.466677 
L 140.1878 152.323972 
L 60.9142 152.323972 
L 60.9142 162.466677 
z
" clip-path="url(#pc00856a81b)" style="fill: #3274a1; stroke: #3f3f3f; stroke-linejoin: miter"/>
   </g>
   <g id="line2d_9">
    <path d="M 100.551 162.466677 
L 100.551 166.974545 
" clip-path="url(#pc00856a81b)" style="fill: none; stroke: #3f3f3f"/>
   </g>
   <g id="line2d_10">
    <path d="M 100.551 152.323972 
L 100.551 137.6734 
" clip-path="url(#pc00856a81b)" style="fill: none; stroke: #3f3f3f"/>
   </g>
   <g id="line2d_11">
    <path d="M 80.7326 166.974545 
L 120.3694 166.974545 
" clip-path="url(#pc00856a81b)" style="fill: none; stroke: #3f3f3f; stroke-linecap: square"/>
   </g>
   <g id="line2d_12">
    <path d="M 80.7326 137.6734 
L 120.3694 137.6734 
" clip-path="url(#pc00856a81b)" style="fill: none; stroke: #3f3f3f; stroke-linecap: square"/>
   </g>
   <g id="line2d_13">
    <defs>
     <path id="m1d212efab0" d="M 0 3 
C 0.795609 3 1.55874 2.683901 2.12132 2.12132 
C 2.683901 1.55874 3 0.795609 3 0 
C 3 -0.795609 2.683901 -1.55874 2.12132 -2.12132 
C 1.55874 -2.683901 0.795609 -3 0 -3 
C -0.795609 -3 -1.55874 -2.683901 -2.12132 -2.12132 
C -2.683901 -1.55874 -3 -0.795609 -3 0 
C -3 0.795609 -2.683901 1.55874 -2.12132 2.12132 
C -1.55874 2.683901 -0.795609 3 0 3 
z
" style="stroke: #3f3f3f"/>
    </defs>
    <g clip-path="url(#pc00856a81b)">
     <use xlink:href="#m1d212efab0" x="100.551" y="91.467746" style="fill-opacity: 0; stroke: #3f3f3f"/>
     <use xlink:href="#m1d212efab0" x="100.551" y="136.546432" style="fill-opacity: 0; stroke: #3f3f3f"/>
     <use xlink:href="#m1d212efab0" x="100.551" y="111.753155" style="fill-opacity: 0; stroke: #3f3f3f"/>
     <use xlink:href="#m1d212efab0" x="100.551" y="136.546432" style="fill-opacity: 0; stroke: #3f3f3f"/>
     <use xlink:href="#m1d212efab0" x="100.551" y="109.499221" style="fill-opacity: 0; stroke: #3f3f3f"/>
     <use xlink:href="#m1d212efab0" x="100.551" y="128.657662" style="fill-opacity: 0; stroke: #3f3f3f"/>
     <use xlink:href="#m1d212efab0" x="100.551" y="132.038564" style="fill-opacity: 0; stroke: #3f3f3f"/>
     <use xlink:href="#m1d212efab0" x="100.551" y="129.784629" style="fill-opacity: 0; stroke: #3f3f3f"/>
     <use xlink:href="#m1d212efab0" x="100.551" y="125.276761" style="fill-opacity: 0; stroke: #3f3f3f"/>
     <use xlink:href="#m1d212efab0" x="100.551" y="91.467746" style="fill-opacity: 0; stroke: #3f3f3f"/>
     <use xlink:href="#m1d212efab0" x="100.551" y="108.372254" style="fill-opacity: 0; stroke: #3f3f3f"/>
     <use xlink:href="#m1d212efab0" x="100.551" y="132.038564" style="fill-opacity: 0; stroke: #3f3f3f"/>
     <use xlink:href="#m1d212efab0" x="100.551" y="134.292498" style="fill-opacity: 0; stroke: #3f3f3f"/>
     <use xlink:href="#m1d212efab0" x="100.551" y="32.865455" style="fill-opacity: 0; stroke: #3f3f3f"/>
     <use xlink:href="#m1d212efab0" x="100.551" y="132.038564" style="fill-opacity: 0; stroke: #3f3f3f"/>
     <use xlink:href="#m1d212efab0" x="100.551" y="133.165531" style="fill-opacity: 0; stroke: #3f3f3f"/>
     <use xlink:href="#m1d212efab0" x="100.551" y="107.245286" style="fill-opacity: 0; stroke: #3f3f3f"/>
     <use xlink:href="#m1d212efab0" x="100.551" y="119.641925" style="fill-opacity: 0; stroke: #3f3f3f"/>
     <use xlink:href="#m1d212efab0" x="100.551" y="124.149794" style="fill-opacity: 0; stroke: #3f3f3f"/>
     <use xlink:href="#m1d212efab0" x="100.551" y="115.134057" style="fill-opacity: 0; stroke: #3f3f3f"/>
     <use xlink:href="#m1d212efab0" x="100.551" y="116.261024" style="fill-opacity: 0; stroke: #3f3f3f"/>
     <use xlink:href="#m1d212efab0" x="100.551" y="128.657662" style="fill-opacity: 0; stroke: #3f3f3f"/>
     <use xlink:href="#m1d212efab0" x="100.551" y="120.768892" style="fill-opacity: 0; stroke: #3f3f3f"/>
     <use xlink:href="#m1d212efab0" x="100.551" y="119.641925" style="fill-opacity: 0; stroke: #3f3f3f"/>
     <use xlink:href="#m1d212efab0" x="100.551" y="85.832911" style="fill-opacity: 0; stroke: #3f3f3f"/>
     <use xlink:href="#m1d212efab0" x="100.551" y="117.387991" style="fill-opacity: 0; stroke: #3f3f3f"/>
     <use xlink:href="#m1d212efab0" x="100.551" y="77.944141" style="fill-opacity: 0; stroke: #3f3f3f"/>
     <use xlink:href="#m1d212efab0" x="100.551" y="132.038564" style="fill-opacity: 0; stroke: #3f3f3f"/>
     <use xlink:href="#m1d212efab0" x="100.551" y="114.007089" style="fill-opacity: 0; stroke: #3f3f3f"/>
     <use xlink:href="#m1d212efab0" x="100.551" y="106.118319" style="fill-opacity: 0; stroke: #3f3f3f"/>
     <use xlink:href="#m1d212efab0" x="100.551" y="100.483484" style="fill-opacity: 0; stroke: #3f3f3f"/>
     <use xlink:href="#m1d212efab0" x="100.551" y="127.530695" style="fill-opacity: 0; stroke: #3f3f3f"/>
     <use xlink:href="#m1d212efab0" x="100.551" y="76.817173" style="fill-opacity: 0; stroke: #3f3f3f"/>
     <use xlink:href="#m1d212efab0" x="100.551" y="132.038564" style="fill-opacity: 0; stroke: #3f3f3f"/>
     <use xlink:href="#m1d212efab0" x="100.551" y="134.292498" style="fill-opacity: 0; stroke: #3f3f3f"/>
     <use xlink:href="#m1d212efab0" x="100.551" y="90.340779" style="fill-opacity: 0; stroke: #3f3f3f"/>
     <use xlink:href="#m1d212efab0" x="100.551" y="120.768892" style="fill-opacity: 0; stroke: #3f3f3f"/>
     <use xlink:href="#m1d212efab0" x="100.551" y="135.419465" style="fill-opacity: 0; stroke: #3f3f3f"/>
     <use xlink:href="#m1d212efab0" x="100.551" y="100.483484" style="fill-opacity: 0; stroke: #3f3f3f"/>
     <use xlink:href="#m1d212efab0" x="100.551" y="134.292498" style="fill-opacity: 0; stroke: #3f3f3f"/>
     <use xlink:href="#m1d212efab0" x="100.551" y="127.530695" style="fill-opacity: 0; stroke: #3f3f3f"/>
     <use xlink:href="#m1d212efab0" x="100.551" y="53.150863" style="fill-opacity: 0; stroke: #3f3f3f"/>
     <use xlink:href="#m1d212efab0" x="100.551" y="109.499221" style="fill-opacity: 0; stroke: #3f3f3f"/>
     <use xlink:href="#m1d212efab0" x="100.551" y="133.165531" style="fill-opacity: 0; stroke: #3f3f3f"/>
     <use xlink:href="#m1d212efab0" x="100.551" y="136.546432" style="fill-opacity: 0; stroke: #3f3f3f"/>
     <use xlink:href="#m1d212efab0" x="100.551" y="127.530695" style="fill-opacity: 0; stroke: #3f3f3f"/>
    </g>
   </g>
   <g id="line2d_14">
    <path d="M 60.9142 157.958808 
L 140.1878 157.958808 
" clip-path="url(#pc00856a81b)" style="fill: none; stroke: #3f3f3f"/>
   </g>
   <g id="patch_4">
    <path d="M 51.005 173.68 
L 51.005 26.16 
" style="fill: none; stroke: #000000; stroke-width: 0.8; stroke-linejoin: miter; stroke-linecap: square"/>
   </g>
   <g id="patch_5">
    <path d="M 150.097 173.68 
L 150.097 26.16 
" style="fill: none; stroke: #000000; stroke-width: 0.8; stroke-linejoin: miter; stroke-linecap: square"/>
   </g>
   <g id="patch_6">
    <path d="M 51.005 173.68 
L 150.097 173.68 
" style="fill: none; stroke: #000000; stroke-width: 0.8; stroke-linejoin: miter; stroke-linecap: square"/>
   </g>
   <g id="patch_7">
    <path d="M 51.005 26.16 
L 150.097 26.16 
" style="fill: none; stroke: #000000; stroke-width: 0.8; stroke-linejoin: miter; stroke-linecap: square"/>
   </g>
   <g id="text_11">
    <!-- Root node count -->
    <g transform="translate(51.241313 20.16) scale(0.12 -0.12)">
     <defs>
      <path id="DejaVuSans-52" d="M 2841 2188 
Q 3044 2119 3236 1894 
Q 3428 1669 3622 1275 
L 4263 0 
L 3584 0 
L 2988 1197 
Q 2756 1666 2539 1819 
Q 2322 1972 1947 1972 
L 1259 1972 
L 1259 0 
L 628 0 
L 628 4666 
L 2053 4666 
Q 2853 4666 3247 4331 
Q 3641 3997 3641 3322 
Q 3641 2881 3436 2590 
Q 3231 2300 2841 2188 
z
M 1259 4147 
L 1259 2491 
L 2053 2491 
Q 2509 2491 2742 2702 
Q 2975 2913 2975 3322 
Q 2975 3731 2742 3939 
Q 2509 4147 2053 4147 
L 1259 4147 
z
" transform="scale(0.015625)"/>
      <path id="DejaVuSans-20" transform="scale(0.015625)"/>
      <path id="DejaVuSans-63" d="M 3122 3366 
L 3122 2828 
Q 2878 2963 2633 3030 
Q 2388 3097 2138 3097 
Q 1578 3097 1268 2742 
Q 959 2388 959 1747 
Q 959 1106 1268 751 
Q 1578 397 2138 397 
Q 2388 397 2633 464 
Q 2878 531 3122 666 
L 3122 134 
Q 2881 22 2623 -34 
Q 2366 -91 2075 -91 
Q 1284 -91 818 406 
Q 353 903 353 1747 
Q 353 2603 823 3093 
Q 1294 3584 2113 3584 
Q 2378 3584 2631 3529 
Q 2884 3475 3122 3366 
z
" transform="scale(0.015625)"/>
     </defs>
     <use xlink:href="#DejaVuSans-52"/>
     <use xlink:href="#DejaVuSans-6f" transform="translate(64.982422 0)"/>
     <use xlink:href="#DejaVuSans-6f" transform="translate(126.164062 0)"/>
     <use xlink:href="#DejaVuSans-74" transform="translate(187.345703 0)"/>
     <use xlink:href="#DejaVuSans-20" transform="translate(226.554688 0)"/>
     <use xlink:href="#DejaVuSans-6e" transform="translate(258.341797 0)"/>
     <use xlink:href="#DejaVuSans-6f" transform="translate(321.720703 0)"/>
     <use xlink:href="#DejaVuSans-64" transform="translate(382.902344 0)"/>
     <use xlink:href="#DejaVuSans-65" transform="translate(446.378906 0)"/>
     <use xlink:href="#DejaVuSans-20" transform="translate(507.902344 0)"/>
     <use xlink:href="#DejaVuSans-63" transform="translate(539.689453 0)"/>
     <use xlink:href="#DejaVuSans-6f" transform="translate(594.669922 0)"/>
     <use xlink:href="#DejaVuSans-75" transform="translate(655.851562 0)"/>
     <use xlink:href="#DejaVuSans-6e" transform="translate(719.230469 0)"/>
     <use xlink:href="#DejaVuSans-74" transform="translate(782.609375 0)"/>
    </g>
   </g>
  </g>
  <g id="axes_2">
   <g id="patch_8">
    <path d="M 204.342 173.68 
L 303.434 173.68 
L 303.434 26.16 
L 204.342 26.16 
z
" style="fill: #ffffff"/>
   </g>
   <g id="matplotlib.axis_3">
    <g id="xtick_2">
     <g id="line2d_15">
      <g>
       <use xlink:href="#m8c5eb38c17" x="253.888" y="173.68" style="stroke: #000000; stroke-width: 0.8"/>
      </g>
     </g>
     <g id="text_12">
      <!-- BLD -->
      <g transform="translate(243.821594 188.278437) scale(0.1 -0.1)">
       <use xlink:href="#DejaVuSans-42"/>
       <use xlink:href="#DejaVuSans-4c" transform="translate(68.603516 0)"/>
       <use xlink:href="#DejaVuSans-44" transform="translate(124.316406 0)"/>
      </g>
     </g>
    </g>
    <g id="text_13">
     <!-- dataset -->
     <g transform="translate(234.984094 201.956562) scale(0.1 -0.1)">
      <use xlink:href="#DejaVuSans-64"/>
      <use xlink:href="#DejaVuSans-61" transform="translate(63.476562 0)"/>
      <use xlink:href="#DejaVuSans-74" transform="translate(124.755859 0)"/>
      <use xlink:href="#DejaVuSans-61" transform="translate(163.964844 0)"/>
      <use xlink:href="#DejaVuSans-73" transform="translate(225.244141 0)"/>
      <use xlink:href="#DejaVuSans-65" transform="translate(277.34375 0)"/>
      <use xlink:href="#DejaVuSans-74" transform="translate(338.867188 0)"/>
     </g>
    </g>
   </g>
   <g id="matplotlib.axis_4">
    <g id="ytick_8">
     <g id="line2d_16">
      <g>
       <use xlink:href="#m0c7d25a760" x="204.342" y="168.219568" style="stroke: #000000; stroke-width: 0.8"/>
      </g>
     </g>
     <g id="text_14">
      <!-- 16.0 -->
      <g transform="translate(175.076375 172.018787) scale(0.1 -0.1)">
       <defs>
        <path id="DejaVuSans-2e" d="M 684 794 
L 1344 794 
L 1344 0 
L 684 0 
L 684 794 
z
" transform="scale(0.015625)"/>
       </defs>
       <use xlink:href="#DejaVuSans-31"/>
       <use xlink:href="#DejaVuSans-36" transform="translate(63.623047 0)"/>
       <use xlink:href="#DejaVuSans-2e" transform="translate(127.246094 0)"/>
       <use xlink:href="#DejaVuSans-30" transform="translate(159.033203 0)"/>
      </g>
     </g>
    </g>
    <g id="ytick_9">
     <g id="line2d_17">
      <g>
       <use xlink:href="#m0c7d25a760" x="204.342" y="137.171628" style="stroke: #000000; stroke-width: 0.8"/>
      </g>
     </g>
     <g id="text_15">
      <!-- 16.5 -->
      <g transform="translate(175.076375 140.970847) scale(0.1 -0.1)">
       <defs>
        <path id="DejaVuSans-35" d="M 691 4666 
L 3169 4666 
L 3169 4134 
L 1269 4134 
L 1269 2991 
Q 1406 3038 1543 3061 
Q 1681 3084 1819 3084 
Q 2600 3084 3056 2656 
Q 3513 2228 3513 1497 
Q 3513 744 3044 326 
Q 2575 -91 1722 -91 
Q 1428 -91 1123 -41 
Q 819 9 494 109 
L 494 744 
Q 775 591 1075 516 
Q 1375 441 1709 441 
Q 2250 441 2565 725 
Q 2881 1009 2881 1497 
Q 2881 1984 2565 2268 
Q 2250 2553 1709 2553 
Q 1456 2553 1204 2497 
Q 953 2441 691 2322 
L 691 4666 
z
" transform="scale(0.015625)"/>
       </defs>
       <use xlink:href="#DejaVuSans-31"/>
       <use xlink:href="#DejaVuSans-36" transform="translate(63.623047 0)"/>
       <use xlink:href="#DejaVuSans-2e" transform="translate(127.246094 0)"/>
       <use xlink:href="#DejaVuSans-35" transform="translate(159.033203 0)"/>
      </g>
     </g>
    </g>
    <g id="ytick_10">
     <g id="line2d_18">
      <g>
       <use xlink:href="#m0c7d25a760" x="204.342" y="106.123689" style="stroke: #000000; stroke-width: 0.8"/>
      </g>
     </g>
     <g id="text_16">
      <!-- 17.0 -->
      <g transform="translate(175.076375 109.922908) scale(0.1 -0.1)">
       <defs>
        <path id="DejaVuSans-37" d="M 525 4666 
L 3525 4666 
L 3525 4397 
L 1831 0 
L 1172 0 
L 2766 4134 
L 525 4134 
L 525 4666 
z
" transform="scale(0.015625)"/>
       </defs>
       <use xlink:href="#DejaVuSans-31"/>
       <use xlink:href="#DejaVuSans-37" transform="translate(63.623047 0)"/>
       <use xlink:href="#DejaVuSans-2e" transform="translate(127.246094 0)"/>
       <use xlink:href="#DejaVuSans-30" transform="translate(159.033203 0)"/>
      </g>
     </g>
    </g>
    <g id="ytick_11">
     <g id="line2d_19">
      <g>
       <use xlink:href="#m0c7d25a760" x="204.342" y="75.075749" style="stroke: #000000; stroke-width: 0.8"/>
      </g>
     </g>
     <g id="text_17">
      <!-- 17.5 -->
      <g transform="translate(175.076375 78.874968) scale(0.1 -0.1)">
       <use xlink:href="#DejaVuSans-31"/>
       <use xlink:href="#DejaVuSans-37" transform="translate(63.623047 0)"/>
       <use xlink:href="#DejaVuSans-2e" transform="translate(127.246094 0)"/>
       <use xlink:href="#DejaVuSans-35" transform="translate(159.033203 0)"/>
      </g>
     </g>
    </g>
    <g id="ytick_12">
     <g id="line2d_20">
      <g>
       <use xlink:href="#m0c7d25a760" x="204.342" y="44.02781" style="stroke: #000000; stroke-width: 0.8"/>
      </g>
     </g>
     <g id="text_18">
      <!-- 18.0 -->
      <g transform="translate(175.076375 47.827029) scale(0.1 -0.1)">
       <use xlink:href="#DejaVuSans-31"/>
       <use xlink:href="#DejaVuSans-38" transform="translate(63.623047 0)"/>
       <use xlink:href="#DejaVuSans-2e" transform="translate(127.246094 0)"/>
       <use xlink:href="#DejaVuSans-30" transform="translate(159.033203 0)"/>
      </g>
     </g>
    </g>
    <g id="text_19">
     <!-- Time(Seconds) -->
     <g transform="translate(168.996687 137.062187) rotate(-90) scale(0.1 -0.1)">
      <defs>
       <path id="DejaVuSans-54" d="M -19 4666 
L 3928 4666 
L 3928 4134 
L 2272 4134 
L 2272 0 
L 1638 0 
L 1638 4134 
L -19 4134 
L -19 4666 
z
" transform="scale(0.015625)"/>
       <path id="DejaVuSans-69" d="M 603 3500 
L 1178 3500 
L 1178 0 
L 603 0 
L 603 3500 
z
M 603 4863 
L 1178 4863 
L 1178 4134 
L 603 4134 
L 603 4863 
z
" transform="scale(0.015625)"/>
       <path id="DejaVuSans-6d" d="M 3328 2828 
Q 3544 3216 3844 3400 
Q 4144 3584 4550 3584 
Q 5097 3584 5394 3201 
Q 5691 2819 5691 2113 
L 5691 0 
L 5113 0 
L 5113 2094 
Q 5113 2597 4934 2840 
Q 4756 3084 4391 3084 
Q 3944 3084 3684 2787 
Q 3425 2491 3425 1978 
L 3425 0 
L 2847 0 
L 2847 2094 
Q 2847 2600 2669 2842 
Q 2491 3084 2119 3084 
Q 1678 3084 1418 2786 
Q 1159 2488 1159 1978 
L 1159 0 
L 581 0 
L 581 3500 
L 1159 3500 
L 1159 2956 
Q 1356 3278 1631 3431 
Q 1906 3584 2284 3584 
Q 2666 3584 2933 3390 
Q 3200 3197 3328 2828 
z
" transform="scale(0.015625)"/>
       <path id="DejaVuSans-28" d="M 1984 4856 
Q 1566 4138 1362 3434 
Q 1159 2731 1159 2009 
Q 1159 1288 1364 580 
Q 1569 -128 1984 -844 
L 1484 -844 
Q 1016 -109 783 600 
Q 550 1309 550 2009 
Q 550 2706 781 3412 
Q 1013 4119 1484 4856 
L 1984 4856 
z
" transform="scale(0.015625)"/>
       <path id="DejaVuSans-53" d="M 3425 4513 
L 3425 3897 
Q 3066 4069 2747 4153 
Q 2428 4238 2131 4238 
Q 1616 4238 1336 4038 
Q 1056 3838 1056 3469 
Q 1056 3159 1242 3001 
Q 1428 2844 1947 2747 
L 2328 2669 
Q 3034 2534 3370 2195 
Q 3706 1856 3706 1288 
Q 3706 609 3251 259 
Q 2797 -91 1919 -91 
Q 1588 -91 1214 -16 
Q 841 59 441 206 
L 441 856 
Q 825 641 1194 531 
Q 1563 422 1919 422 
Q 2459 422 2753 634 
Q 3047 847 3047 1241 
Q 3047 1584 2836 1778 
Q 2625 1972 2144 2069 
L 1759 2144 
Q 1053 2284 737 2584 
Q 422 2884 422 3419 
Q 422 4038 858 4394 
Q 1294 4750 2059 4750 
Q 2388 4750 2728 4690 
Q 3069 4631 3425 4513 
z
" transform="scale(0.015625)"/>
       <path id="DejaVuSans-29" d="M 513 4856 
L 1013 4856 
Q 1481 4119 1714 3412 
Q 1947 2706 1947 2009 
Q 1947 1309 1714 600 
Q 1481 -109 1013 -844 
L 513 -844 
Q 928 -128 1133 580 
Q 1338 1288 1338 2009 
Q 1338 2731 1133 3434 
Q 928 4138 513 4856 
z
" transform="scale(0.015625)"/>
      </defs>
      <use xlink:href="#DejaVuSans-54"/>
      <use xlink:href="#DejaVuSans-69" transform="translate(57.958984 0)"/>
      <use xlink:href="#DejaVuSans-6d" transform="translate(85.742188 0)"/>
      <use xlink:href="#DejaVuSans-65" transform="translate(183.154297 0)"/>
      <use xlink:href="#DejaVuSans-28" transform="translate(244.677734 0)"/>
      <use xlink:href="#DejaVuSans-53" transform="translate(283.691406 0)"/>
      <use xlink:href="#DejaVuSans-65" transform="translate(347.167969 0)"/>
      <use xlink:href="#DejaVuSans-63" transform="translate(408.691406 0)"/>
      <use xlink:href="#DejaVuSans-6f" transform="translate(463.671875 0)"/>
      <use xlink:href="#DejaVuSans-6e" transform="translate(524.853516 0)"/>
      <use xlink:href="#DejaVuSans-64" transform="translate(588.232422 0)"/>
      <use xlink:href="#DejaVuSans-73" transform="translate(651.708984 0)"/>
      <use xlink:href="#DejaVuSans-29" transform="translate(703.808594 0)"/>
     </g>
    </g>
   </g>
   <g id="patch_9">
    <path d="M 214.2512 143.545149 
L 293.5248 143.545149 
L 293.5248 119.363462 
L 214.2512 119.363462 
L 214.2512 143.545149 
z
" clip-path="url(#pb964bd9ae1)" style="fill: #3274a1; stroke: #3f3f3f; stroke-linejoin: miter"/>
   </g>
   <g id="line2d_21">
    <path d="M 253.888 143.545149 
L 253.888 166.974545 
" clip-path="url(#pb964bd9ae1)" style="fill: none; stroke: #3f3f3f"/>
   </g>
   <g id="line2d_22">
    <path d="M 253.888 119.363462 
L 253.888 83.589094 
" clip-path="url(#pb964bd9ae1)" style="fill: none; stroke: #3f3f3f"/>
   </g>
   <g id="line2d_23">
    <path d="M 234.0696 166.974545 
L 273.7064 166.974545 
" clip-path="url(#pb964bd9ae1)" style="fill: none; stroke: #3f3f3f; stroke-linecap: square"/>
   </g>
   <g id="line2d_24">
    <path d="M 234.0696 83.589094 
L 273.7064 83.589094 
" clip-path="url(#pb964bd9ae1)" style="fill: none; stroke: #3f3f3f; stroke-linecap: square"/>
   </g>
   <g id="line2d_25">
    <g clip-path="url(#pb964bd9ae1)">
     <use xlink:href="#m1d212efab0" x="253.888" y="33.641032" style="fill-opacity: 0; stroke: #3f3f3f"/>
     <use xlink:href="#m1d212efab0" x="253.888" y="41.168915" style="fill-opacity: 0; stroke: #3f3f3f"/>
     <use xlink:href="#m1d212efab0" x="253.888" y="74.374066" style="fill-opacity: 0; stroke: #3f3f3f"/>
     <use xlink:href="#m1d212efab0" x="253.888" y="58.065825" style="fill-opacity: 0; stroke: #3f3f3f"/>
     <use xlink:href="#m1d212efab0" x="253.888" y="59.974652" style="fill-opacity: 0; stroke: #3f3f3f"/>
     <use xlink:href="#m1d212efab0" x="253.888" y="32.865455" style="fill-opacity: 0; stroke: #3f3f3f"/>
     <use xlink:href="#m1d212efab0" x="253.888" y="52.677145" style="fill-opacity: 0; stroke: #3f3f3f"/>
     <use xlink:href="#m1d212efab0" x="253.888" y="40.882653" style="fill-opacity: 0; stroke: #3f3f3f"/>
     <use xlink:href="#m1d212efab0" x="253.888" y="56.858681" style="fill-opacity: 0; stroke: #3f3f3f"/>
    </g>
   </g>
   <g id="line2d_26">
    <path d="M 214.2512 132.984503 
L 293.5248 132.984503 
" clip-path="url(#pb964bd9ae1)" style="fill: none; stroke: #3f3f3f"/>
   </g>
   <g id="patch_10">
    <path d="M 204.342 173.68 
L 204.342 26.16 
" style="fill: none; stroke: #000000; stroke-width: 0.8; stroke-linejoin: miter; stroke-linecap: square"/>
   </g>
   <g id="patch_11">
    <path d="M 303.434 173.68 
L 303.434 26.16 
" style="fill: none; stroke: #000000; stroke-width: 0.8; stroke-linejoin: miter; stroke-linecap: square"/>
   </g>
   <g id="patch_12">
    <path d="M 204.342 173.68 
L 303.434 173.68 
" style="fill: none; stroke: #000000; stroke-width: 0.8; stroke-linejoin: miter; stroke-linecap: square"/>
   </g>
   <g id="patch_13">
    <path d="M 204.342 26.16 
L 303.434 26.16 
" style="fill: none; stroke: #000000; stroke-width: 0.8; stroke-linejoin: miter; stroke-linecap: square"/>
   </g>
   <g id="text_20">
    <!-- Run time -->
    <g transform="translate(226.92175 20.16) scale(0.12 -0.12)">
     <use xlink:href="#DejaVuSans-52"/>
     <use xlink:href="#DejaVuSans-75" transform="translate(64.982422 0)"/>
     <use xlink:href="#DejaVuSans-6e" transform="translate(128.361328 0)"/>
     <use xlink:href="#DejaVuSans-20" transform="translate(191.740234 0)"/>
     <use xlink:href="#DejaVuSans-74" transform="translate(223.527344 0)"/>
     <use xlink:href="#DejaVuSans-69" transform="translate(262.736328 0)"/>
     <use xlink:href="#DejaVuSans-6d" transform="translate(290.519531 0)"/>
     <use xlink:href="#DejaVuSans-65" transform="translate(387.931641 0)"/>
    </g>
   </g>
  </g>
  <g id="axes_3">
   <g id="patch_14">
    <path d="M 357.679 173.68 
L 456.771 173.68 
L 456.771 26.16 
L 357.679 26.16 
z
" style="fill: #ffffff"/>
   </g>
   <g id="matplotlib.axis_5">
    <g id="xtick_3">
     <g id="line2d_27">
      <g>
       <use xlink:href="#m8c5eb38c17" x="407.225" y="173.68" style="stroke: #000000; stroke-width: 0.8"/>
      </g>
     </g>
     <g id="text_21">
      <!-- BLD -->
      <g transform="translate(397.158594 188.278437) scale(0.1 -0.1)">
       <use xlink:href="#DejaVuSans-42"/>
       <use xlink:href="#DejaVuSans-4c" transform="translate(68.603516 0)"/>
       <use xlink:href="#DejaVuSans-44" transform="translate(124.316406 0)"/>
      </g>
     </g>
    </g>
    <g id="text_22">
     <!-- dataset -->
     <g transform="translate(388.321094 201.956562) scale(0.1 -0.1)">
      <use xlink:href="#DejaVuSans-64"/>
      <use xlink:href="#DejaVuSans-61" transform="translate(63.476562 0)"/>
      <use xlink:href="#DejaVuSans-74" transform="translate(124.755859 0)"/>
      <use xlink:href="#DejaVuSans-61" transform="translate(163.964844 0)"/>
      <use xlink:href="#DejaVuSans-73" transform="translate(225.244141 0)"/>
      <use xlink:href="#DejaVuSans-65" transform="translate(277.34375 0)"/>
      <use xlink:href="#DejaVuSans-74" transform="translate(338.867188 0)"/>
     </g>
    </g>
   </g>
   <g id="matplotlib.axis_6">
    <g id="ytick_13">
     <g id="line2d_28">
      <g>
       <use xlink:href="#m0c7d25a760" x="357.679" y="170.766833" style="stroke: #000000; stroke-width: 0.8"/>
      </g>
     </g>
     <g id="text_23">
      <!-- 0 -->
      <g transform="translate(344.3165 174.566052) scale(0.1 -0.1)">
       <use xlink:href="#DejaVuSans-30"/>
      </g>
     </g>
    </g>
    <g id="ytick_14">
     <g id="line2d_29">
      <g>
       <use xlink:href="#m0c7d25a760" x="357.679" y="143.186558" style="stroke: #000000; stroke-width: 0.8"/>
      </g>
     </g>
     <g id="text_24">
      <!-- 20 -->
      <g transform="translate(337.954 146.985776) scale(0.1 -0.1)">
       <use xlink:href="#DejaVuSans-32"/>
       <use xlink:href="#DejaVuSans-30" transform="translate(63.623047 0)"/>
      </g>
     </g>
    </g>
    <g id="ytick_15">
     <g id="line2d_30">
      <g>
       <use xlink:href="#m0c7d25a760" x="357.679" y="115.606282" style="stroke: #000000; stroke-width: 0.8"/>
      </g>
     </g>
     <g id="text_25">
      <!-- 40 -->
      <g transform="translate(337.954 119.405501) scale(0.1 -0.1)">
       <use xlink:href="#DejaVuSans-34"/>
       <use xlink:href="#DejaVuSans-30" transform="translate(63.623047 0)"/>
      </g>
     </g>
    </g>
    <g id="ytick_16">
     <g id="line2d_31">
      <g>
       <use xlink:href="#m0c7d25a760" x="357.679" y="88.026006" style="stroke: #000000; stroke-width: 0.8"/>
      </g>
     </g>
     <g id="text_26">
      <!-- 60 -->
      <g transform="translate(337.954 91.825225) scale(0.1 -0.1)">
       <use xlink:href="#DejaVuSans-36"/>
       <use xlink:href="#DejaVuSans-30" transform="translate(63.623047 0)"/>
      </g>
     </g>
    </g>
    <g id="ytick_17">
     <g id="line2d_32">
      <g>
       <use xlink:href="#m0c7d25a760" x="357.679" y="60.44573" style="stroke: #000000; stroke-width: 0.8"/>
      </g>
     </g>
     <g id="text_27">
      <!-- 80 -->
      <g transform="translate(337.954 64.244949) scale(0.1 -0.1)">
       <use xlink:href="#DejaVuSans-38"/>
       <use xlink:href="#DejaVuSans-30" transform="translate(63.623047 0)"/>
      </g>
     </g>
    </g>
    <g id="ytick_18">
     <g id="line2d_33">
      <g>
       <use xlink:href="#m0c7d25a760" x="357.679" y="32.865455" style="stroke: #000000; stroke-width: 0.8"/>
      </g>
     </g>
     <g id="text_28">
      <!-- 100 -->
      <g transform="translate(331.5915 36.664673) scale(0.1 -0.1)">
       <use xlink:href="#DejaVuSans-31"/>
       <use xlink:href="#DejaVuSans-30" transform="translate(63.623047 0)"/>
       <use xlink:href="#DejaVuSans-30" transform="translate(127.246094 0)"/>
      </g>
     </g>
    </g>
    <g id="text_29">
     <!-- Percent -->
     <g transform="translate(325.511813 118.727812) rotate(-90) scale(0.1 -0.1)">
      <defs>
       <path id="DejaVuSans-50" d="M 1259 4147 
L 1259 2394 
L 2053 2394 
Q 2494 2394 2734 2622 
Q 2975 2850 2975 3272 
Q 2975 3691 2734 3919 
Q 2494 4147 2053 4147 
L 1259 4147 
z
M 628 4666 
L 2053 4666 
Q 2838 4666 3239 4311 
Q 3641 3956 3641 3272 
Q 3641 2581 3239 2228 
Q 2838 1875 2053 1875 
L 1259 1875 
L 1259 0 
L 628 0 
L 628 4666 
z
" transform="scale(0.015625)"/>
       <path id="DejaVuSans-72" d="M 2631 2963 
Q 2534 3019 2420 3045 
Q 2306 3072 2169 3072 
Q 1681 3072 1420 2755 
Q 1159 2438 1159 1844 
L 1159 0 
L 581 0 
L 581 3500 
L 1159 3500 
L 1159 2956 
Q 1341 3275 1631 3429 
Q 1922 3584 2338 3584 
Q 2397 3584 2469 3576 
Q 2541 3569 2628 3553 
L 2631 2963 
z
" transform="scale(0.015625)"/>
      </defs>
      <use xlink:href="#DejaVuSans-50"/>
      <use xlink:href="#DejaVuSans-65" transform="translate(56.677734 0)"/>
      <use xlink:href="#DejaVuSans-72" transform="translate(118.201172 0)"/>
      <use xlink:href="#DejaVuSans-63" transform="translate(157.064453 0)"/>
      <use xlink:href="#DejaVuSans-65" transform="translate(212.044922 0)"/>
      <use xlink:href="#DejaVuSans-6e" transform="translate(273.568359 0)"/>
      <use xlink:href="#DejaVuSans-74" transform="translate(336.947266 0)"/>
     </g>
    </g>
   </g>
   <g id="patch_15">
    <path d="M 367.5882 149.626552 
L 446.8618 149.626552 
L 446.8618 128.100147 
L 367.5882 128.100147 
L 367.5882 149.626552 
z
" clip-path="url(#p5c1b851f8e)" style="fill: #3274a1; stroke: #3f3f3f; stroke-linejoin: miter"/>
   </g>
   <g id="line2d_34">
    <path d="M 407.225 149.626552 
L 407.225 166.974545 
" clip-path="url(#p5c1b851f8e)" style="fill: none; stroke: #3f3f3f"/>
   </g>
   <g id="line2d_35">
    <path d="M 407.225 128.100147 
L 407.225 96.272509 
" clip-path="url(#p5c1b851f8e)" style="fill: none; stroke: #3f3f3f"/>
   </g>
   <g id="line2d_36">
    <path d="M 387.4066 166.974545 
L 427.0434 166.974545 
" clip-path="url(#p5c1b851f8e)" style="fill: none; stroke: #3f3f3f; stroke-linecap: square"/>
   </g>
   <g id="line2d_37">
    <path d="M 387.4066 96.272509 
L 427.0434 96.272509 
" clip-path="url(#p5c1b851f8e)" style="fill: none; stroke: #3f3f3f; stroke-linecap: square"/>
   </g>
   <g id="line2d_38">
    <g clip-path="url(#p5c1b851f8e)">
     <use xlink:href="#m1d212efab0" x="407.225" y="32.865455" style="fill-opacity: 0; stroke: #3f3f3f"/>
     <use xlink:href="#m1d212efab0" x="407.225" y="32.865455" style="fill-opacity: 0; stroke: #3f3f3f"/>
     <use xlink:href="#m1d212efab0" x="407.225" y="61.342089" style="fill-opacity: 0; stroke: #3f3f3f"/>
     <use xlink:href="#m1d212efab0" x="407.225" y="94.921075" style="fill-opacity: 0; stroke: #3f3f3f"/>
     <use xlink:href="#m1d212efab0" x="407.225" y="94.093667" style="fill-opacity: 0; stroke: #3f3f3f"/>
     <use xlink:href="#m1d212efab0" x="407.225" y="32.865455" style="fill-opacity: 0; stroke: #3f3f3f"/>
     <use xlink:href="#m1d212efab0" x="407.225" y="91.639022" style="fill-opacity: 0; stroke: #3f3f3f"/>
     <use xlink:href="#m1d212efab0" x="407.225" y="32.865455" style="fill-opacity: 0; stroke: #3f3f3f"/>
     <use xlink:href="#m1d212efab0" x="407.225" y="90.287589" style="fill-opacity: 0; stroke: #3f3f3f"/>
     <use xlink:href="#m1d212efab0" x="407.225" y="64.362129" style="fill-opacity: 0; stroke: #3f3f3f"/>
     <use xlink:href="#m1d212efab0" x="407.225" y="32.865455" style="fill-opacity: 0; stroke: #3f3f3f"/>
     <use xlink:href="#m1d212efab0" x="407.225" y="32.865455" style="fill-opacity: 0; stroke: #3f3f3f"/>
     <use xlink:href="#m1d212efab0" x="407.225" y="91.059836" style="fill-opacity: 0; stroke: #3f3f3f"/>
     <use xlink:href="#m1d212efab0" x="407.225" y="93.280049" style="fill-opacity: 0; stroke: #3f3f3f"/>
     <use xlink:href="#m1d212efab0" x="407.225" y="66.499601" style="fill-opacity: 0; stroke: #3f3f3f"/>
     <use xlink:href="#m1d212efab0" x="407.225" y="32.865455" style="fill-opacity: 0; stroke: #3f3f3f"/>
     <use xlink:href="#m1d212efab0" x="407.225" y="32.865455" style="fill-opacity: 0; stroke: #3f3f3f"/>
     <use xlink:href="#m1d212efab0" x="407.225" y="32.865455" style="fill-opacity: 0; stroke: #3f3f3f"/>
     <use xlink:href="#m1d212efab0" x="407.225" y="32.865455" style="fill-opacity: 0; stroke: #3f3f3f"/>
     <use xlink:href="#m1d212efab0" x="407.225" y="65.203328" style="fill-opacity: 0; stroke: #3f3f3f"/>
     <use xlink:href="#m1d212efab0" x="407.225" y="32.865455" style="fill-opacity: 0; stroke: #3f3f3f"/>
     <use xlink:href="#m1d212efab0" x="407.225" y="65.975576" style="fill-opacity: 0; stroke: #3f3f3f"/>
     <use xlink:href="#m1d212efab0" x="407.225" y="89.060266" style="fill-opacity: 0; stroke: #3f3f3f"/>
     <use xlink:href="#m1d212efab0" x="407.225" y="77.062846" style="fill-opacity: 0; stroke: #3f3f3f"/>
     <use xlink:href="#m1d212efab0" x="407.225" y="32.865455" style="fill-opacity: 0; stroke: #3f3f3f"/>
     <use xlink:href="#m1d212efab0" x="407.225" y="58.956395" style="fill-opacity: 0; stroke: #3f3f3f"/>
     <use xlink:href="#m1d212efab0" x="407.225" y="32.865455" style="fill-opacity: 0; stroke: #3f3f3f"/>
     <use xlink:href="#m1d212efab0" x="407.225" y="69.505851" style="fill-opacity: 0; stroke: #3f3f3f"/>
     <use xlink:href="#m1d212efab0" x="407.225" y="83.144297" style="fill-opacity: 0; stroke: #3f3f3f"/>
     <use xlink:href="#m1d212efab0" x="407.225" y="62.914165" style="fill-opacity: 0; stroke: #3f3f3f"/>
     <use xlink:href="#m1d212efab0" x="407.225" y="81.861814" style="fill-opacity: 0; stroke: #3f3f3f"/>
     <use xlink:href="#m1d212efab0" x="407.225" y="32.865455" style="fill-opacity: 0; stroke: #3f3f3f"/>
     <use xlink:href="#m1d212efab0" x="407.225" y="93.542061" style="fill-opacity: 0; stroke: #3f3f3f"/>
     <use xlink:href="#m1d212efab0" x="407.225" y="92.756023" style="fill-opacity: 0; stroke: #3f3f3f"/>
     <use xlink:href="#m1d212efab0" x="407.225" y="32.865455" style="fill-opacity: 0; stroke: #3f3f3f"/>
     <use xlink:href="#m1d212efab0" x="407.225" y="32.865455" style="fill-opacity: 0; stroke: #3f3f3f"/>
    </g>
   </g>
   <g id="line2d_39">
    <path d="M 367.5882 142.097137 
L 446.8618 142.097137 
" clip-path="url(#p5c1b851f8e)" style="fill: none; stroke: #3f3f3f"/>
   </g>
   <g id="patch_16">
    <path d="M 357.679 173.68 
L 357.679 26.16 
" style="fill: none; stroke: #000000; stroke-width: 0.8; stroke-linejoin: miter; stroke-linecap: square"/>
   </g>
   <g id="patch_17">
    <path d="M 456.771 173.68 
L 456.771 26.16 
" style="fill: none; stroke: #000000; stroke-width: 0.8; stroke-linejoin: miter; stroke-linecap: square"/>
   </g>
   <g id="patch_18">
    <path d="M 357.679 173.68 
L 456.771 173.68 
" style="fill: none; stroke: #000000; stroke-width: 0.8; stroke-linejoin: miter; stroke-linecap: square"/>
   </g>
   <g id="patch_19">
    <path d="M 357.679 26.16 
L 456.771 26.16 
" style="fill: none; stroke: #000000; stroke-width: 0.8; stroke-linejoin: miter; stroke-linecap: square"/>
   </g>
   <g id="text_30">
    <!-- Gene Frequency Coverage -->
    <g transform="translate(327.831875 20.16) scale(0.12 -0.12)">
     <defs>
      <path id="DejaVuSans-47" d="M 3809 666 
L 3809 1919 
L 2778 1919 
L 2778 2438 
L 4434 2438 
L 4434 434 
Q 4069 175 3628 42 
Q 3188 -91 2688 -91 
Q 1594 -91 976 548 
Q 359 1188 359 2328 
Q 359 3472 976 4111 
Q 1594 4750 2688 4750 
Q 3144 4750 3555 4637 
Q 3966 4525 4313 4306 
L 4313 3634 
Q 3963 3931 3569 4081 
Q 3175 4231 2741 4231 
Q 1884 4231 1454 3753 
Q 1025 3275 1025 2328 
Q 1025 1384 1454 906 
Q 1884 428 2741 428 
Q 3075 428 3337 486 
Q 3600 544 3809 666 
z
" transform="scale(0.015625)"/>
      <path id="DejaVuSans-46" d="M 628 4666 
L 3309 4666 
L 3309 4134 
L 1259 4134 
L 1259 2759 
L 3109 2759 
L 3109 2228 
L 1259 2228 
L 1259 0 
L 628 0 
L 628 4666 
z
" transform="scale(0.015625)"/>
      <path id="DejaVuSans-71" d="M 947 1747 
Q 947 1113 1208 752 
Q 1469 391 1925 391 
Q 2381 391 2643 752 
Q 2906 1113 2906 1747 
Q 2906 2381 2643 2742 
Q 2381 3103 1925 3103 
Q 1469 3103 1208 2742 
Q 947 2381 947 1747 
z
M 2906 525 
Q 2725 213 2448 61 
Q 2172 -91 1784 -91 
Q 1150 -91 751 415 
Q 353 922 353 1747 
Q 353 2572 751 3078 
Q 1150 3584 1784 3584 
Q 2172 3584 2448 3432 
Q 2725 3281 2906 2969 
L 2906 3500 
L 3481 3500 
L 3481 -1331 
L 2906 -1331 
L 2906 525 
z
" transform="scale(0.015625)"/>
      <path id="DejaVuSans-79" d="M 2059 -325 
Q 1816 -950 1584 -1140 
Q 1353 -1331 966 -1331 
L 506 -1331 
L 506 -850 
L 844 -850 
Q 1081 -850 1212 -737 
Q 1344 -625 1503 -206 
L 1606 56 
L 191 3500 
L 800 3500 
L 1894 763 
L 2988 3500 
L 3597 3500 
L 2059 -325 
z
" transform="scale(0.015625)"/>
      <path id="DejaVuSans-76" d="M 191 3500 
L 800 3500 
L 1894 563 
L 2988 3500 
L 3597 3500 
L 2284 0 
L 1503 0 
L 191 3500 
z
" transform="scale(0.015625)"/>
      <path id="DejaVuSans-67" d="M 2906 1791 
Q 2906 2416 2648 2759 
Q 2391 3103 1925 3103 
Q 1463 3103 1205 2759 
Q 947 2416 947 1791 
Q 947 1169 1205 825 
Q 1463 481 1925 481 
Q 2391 481 2648 825 
Q 2906 1169 2906 1791 
z
M 3481 434 
Q 3481 -459 3084 -895 
Q 2688 -1331 1869 -1331 
Q 1566 -1331 1297 -1286 
Q 1028 -1241 775 -1147 
L 775 -588 
Q 1028 -725 1275 -790 
Q 1522 -856 1778 -856 
Q 2344 -856 2625 -561 
Q 2906 -266 2906 331 
L 2906 616 
Q 2728 306 2450 153 
Q 2172 0 1784 0 
Q 1141 0 747 490 
Q 353 981 353 1791 
Q 353 2603 747 3093 
Q 1141 3584 1784 3584 
Q 2172 3584 2450 3431 
Q 2728 3278 2906 2969 
L 2906 3500 
L 3481 3500 
L 3481 434 
z
" transform="scale(0.015625)"/>
     </defs>
     <use xlink:href="#DejaVuSans-47"/>
     <use xlink:href="#DejaVuSans-65" transform="translate(77.490234 0)"/>
     <use xlink:href="#DejaVuSans-6e" transform="translate(139.013672 0)"/>
     <use xlink:href="#DejaVuSans-65" transform="translate(202.392578 0)"/>
     <use xlink:href="#DejaVuSans-20" transform="translate(263.916016 0)"/>
     <use xlink:href="#DejaVuSans-46" transform="translate(295.703125 0)"/>
     <use xlink:href="#DejaVuSans-72" transform="translate(345.972656 0)"/>
     <use xlink:href="#DejaVuSans-65" transform="translate(384.835938 0)"/>
     <use xlink:href="#DejaVuSans-71" transform="translate(446.359375 0)"/>
     <use xlink:href="#DejaVuSans-75" transform="translate(509.835938 0)"/>
     <use xlink:href="#DejaVuSans-65" transform="translate(573.214844 0)"/>
     <use xlink:href="#DejaVuSans-6e" transform="translate(634.738281 0)"/>
     <use xlink:href="#DejaVuSans-63" transform="translate(698.117188 0)"/>
     <use xlink:href="#DejaVuSans-79" transform="translate(753.097656 0)"/>
     <use xlink:href="#DejaVuSans-20" transform="translate(812.277344 0)"/>
     <use xlink:href="#DejaVuSans-43" transform="translate(844.064453 0)"/>
     <use xlink:href="#DejaVuSans-6f" transform="translate(913.888672 0)"/>
     <use xlink:href="#DejaVuSans-76" transform="translate(975.070312 0)"/>
     <use xlink:href="#DejaVuSans-65" transform="translate(1034.25 0)"/>
     <use xlink:href="#DejaVuSans-72" transform="translate(1095.773438 0)"/>
     <use xlink:href="#DejaVuSans-61" transform="translate(1136.886719 0)"/>
     <use xlink:href="#DejaVuSans-67" transform="translate(1198.166016 0)"/>
     <use xlink:href="#DejaVuSans-65" transform="translate(1261.642578 0)"/>
    </g>
   </g>
  </g>
  <g id="axes_4">
   <g id="patch_20">
    <path d="M 511.016 173.68 
L 709.2 173.68 
L 709.2 26.16 
L 511.016 26.16 
z
" style="fill: #ffffff"/>
   </g>
   <g id="FillBetweenPolyCollection_1">
    <defs>
     <path id="mae2cdcd260" d="M 520.024364 -42.338632 
L 520.024364 -42.32 
L 520.929727 -42.32 
L 521.83509 -42.32 
L 522.740453 -42.32 
L 523.645816 -42.32 
L 524.55118 -42.32 
L 525.456543 -42.32 
L 526.361906 -42.32 
L 527.267269 -42.32 
L 528.172632 -42.32 
L 529.077995 -42.32 
L 529.983359 -42.32 
L 530.888722 -42.32 
L 531.794085 -42.32 
L 532.699448 -42.32 
L 533.604811 -42.32 
L 534.510175 -42.32 
L 535.415538 -42.32 
L 536.320901 -42.32 
L 537.226264 -42.32 
L 538.131627 -42.32 
L 539.03699 -42.32 
L 539.942354 -42.32 
L 540.847717 -42.32 
L 541.75308 -42.32 
L 542.658443 -42.32 
L 543.563806 -42.32 
L 544.469169 -42.32 
L 545.374533 -42.32 
L 546.279896 -42.32 
L 547.185259 -42.32 
L 548.090622 -42.32 
L 548.995985 -42.32 
L 549.901349 -42.32 
L 550.806712 -42.32 
L 551.712075 -42.32 
L 552.617438 -42.32 
L 553.522801 -42.32 
L 554.428164 -42.32 
L 555.333528 -42.32 
L 556.238891 -42.32 
L 557.144254 -42.32 
L 558.049617 -42.32 
L 558.95498 -42.32 
L 559.860344 -42.32 
L 560.765707 -42.32 
L 561.67107 -42.32 
L 562.576433 -42.32 
L 563.481796 -42.32 
L 564.387159 -42.32 
L 565.292523 -42.32 
L 566.197886 -42.32 
L 567.103249 -42.32 
L 568.008612 -42.32 
L 568.913975 -42.32 
L 569.819339 -42.32 
L 570.724702 -42.32 
L 571.630065 -42.32 
L 572.535428 -42.32 
L 573.440791 -42.32 
L 574.346154 -42.32 
L 575.251518 -42.32 
L 576.156881 -42.32 
L 577.062244 -42.32 
L 577.967607 -42.32 
L 578.87297 -42.32 
L 579.778333 -42.32 
L 580.683697 -42.32 
L 581.58906 -42.32 
L 582.494423 -42.32 
L 583.399786 -42.32 
L 584.305149 -42.32 
L 585.210513 -42.32 
L 586.115876 -42.32 
L 587.021239 -42.32 
L 587.926602 -42.32 
L 588.831965 -42.32 
L 589.737328 -42.32 
L 590.642692 -42.32 
L 591.548055 -42.32 
L 592.453418 -42.32 
L 593.358781 -42.32 
L 594.264144 -42.32 
L 595.169508 -42.32 
L 596.074871 -42.32 
L 596.980234 -42.32 
L 597.885597 -42.32 
L 598.79096 -42.32 
L 599.696323 -42.32 
L 600.601687 -42.32 
L 601.50705 -42.32 
L 602.412413 -42.32 
L 603.317776 -42.32 
L 604.223139 -42.32 
L 605.128503 -42.32 
L 606.033866 -42.32 
L 606.939229 -42.32 
L 607.844592 -42.32 
L 608.749955 -42.32 
L 609.655318 -42.32 
L 610.560682 -42.32 
L 611.466045 -42.32 
L 612.371408 -42.32 
L 613.276771 -42.32 
L 614.182134 -42.32 
L 615.087497 -42.32 
L 615.992861 -42.32 
L 616.898224 -42.32 
L 617.803587 -42.32 
L 618.70895 -42.32 
L 619.614313 -42.32 
L 620.519677 -42.32 
L 621.42504 -42.32 
L 622.330403 -42.32 
L 623.235766 -42.32 
L 624.141129 -42.32 
L 625.046492 -42.32 
L 625.951856 -42.32 
L 626.857219 -42.32 
L 627.762582 -42.32 
L 628.667945 -42.32 
L 629.573308 -42.32 
L 630.478672 -42.32 
L 631.384035 -42.32 
L 632.289398 -42.32 
L 633.194761 -42.32 
L 634.100124 -42.32 
L 635.005487 -42.32 
L 635.910851 -42.32 
L 636.816214 -42.32 
L 637.721577 -42.32 
L 638.62694 -42.32 
L 639.532303 -42.32 
L 640.437667 -42.32 
L 641.34303 -42.32 
L 642.248393 -42.32 
L 643.153756 -42.32 
L 644.059119 -42.32 
L 644.964482 -42.32 
L 645.869846 -42.32 
L 646.775209 -42.32 
L 647.680572 -42.32 
L 648.585935 -42.32 
L 649.491298 -42.32 
L 650.396661 -42.32 
L 651.302025 -42.32 
L 652.207388 -42.32 
L 653.112751 -42.32 
L 654.018114 -42.32 
L 654.923477 -42.32 
L 655.828841 -42.32 
L 656.734204 -42.32 
L 657.639567 -42.32 
L 658.54493 -42.32 
L 659.450293 -42.32 
L 660.355656 -42.32 
L 661.26102 -42.32 
L 662.166383 -42.32 
L 663.071746 -42.32 
L 663.977109 -42.32 
L 664.882472 -42.32 
L 665.787836 -42.32 
L 666.693199 -42.32 
L 667.598562 -42.32 
L 668.503925 -42.32 
L 669.409288 -42.32 
L 670.314651 -42.32 
L 671.220015 -42.32 
L 672.125378 -42.32 
L 673.030741 -42.32 
L 673.936104 -42.32 
L 674.841467 -42.32 
L 675.746831 -42.32 
L 676.652194 -42.32 
L 677.557557 -42.32 
L 678.46292 -42.32 
L 679.368283 -42.32 
L 680.273646 -42.32 
L 681.17901 -42.32 
L 682.084373 -42.32 
L 682.989736 -42.32 
L 683.895099 -42.32 
L 684.800462 -42.32 
L 685.705825 -42.32 
L 686.611189 -42.32 
L 687.516552 -42.32 
L 688.421915 -42.32 
L 689.327278 -42.32 
L 690.232641 -42.32 
L 691.138005 -42.32 
L 692.043368 -42.32 
L 692.948731 -42.32 
L 693.854094 -42.32 
L 694.759457 -42.32 
L 695.66482 -42.32 
L 696.570184 -42.32 
L 697.475547 -42.32 
L 698.38091 -42.32 
L 699.286273 -42.32 
L 700.191636 -42.32 
L 700.191636 -42.339801 
L 700.191636 -42.339801 
L 699.286273 -42.349381 
L 698.38091 -42.362891 
L 697.475547 -42.381603 
L 696.570184 -42.407058 
L 695.66482 -42.441064 
L 694.759457 -42.48568 
L 693.854094 -42.543161 
L 692.948731 -42.615877 
L 692.043368 -42.7062 
L 691.138005 -42.81635 
L 690.232641 -42.94823 
L 689.327278 -43.103231 
L 688.421915 -43.282057 
L 687.516552 -43.48456 
L 686.611189 -43.709617 
L 685.705825 -43.955075 
L 684.800462 -44.217752 
L 683.895099 -44.49353 
L 682.989736 -44.777508 
L 682.084373 -45.064235 
L 681.17901 -45.347967 
L 680.273646 -45.62296 
L 679.368283 -45.883745 
L 678.46292 -46.125378 
L 677.557557 -46.343637 
L 676.652194 -46.535154 
L 675.746831 -46.697489 
L 674.841467 -46.829142 
L 673.936104 -46.929511 
L 673.030741 -46.998823 
L 672.125378 -47.038046 
L 671.220015 -47.048788 
L 670.314651 -47.033204 
L 669.409288 -46.993903 
L 668.503925 -46.933863 
L 667.598562 -46.85635 
L 666.693199 -46.764833 
L 665.787836 -46.662904 
L 664.882472 -46.5542 
L 663.977109 -46.442328 
L 663.071746 -46.330807 
L 662.166383 -46.223029 
L 661.26102 -46.122236 
L 660.355656 -46.031538 
L 659.450293 -45.953938 
L 658.54493 -45.892381 
L 657.639567 -45.849805 
L 656.734204 -45.829179 
L 655.828841 -45.833518 
L 654.923477 -45.865864 
L 654.018114 -45.929218 
L 653.112751 -46.02643 
L 652.207388 -46.160035 
L 651.302025 -46.332069 
L 650.396661 -46.543853 
L 649.491298 -46.795777 
L 648.585935 -47.08711 
L 647.680572 -47.415846 
L 646.775209 -47.778611 
L 645.869846 -48.170651 
L 644.964482 -48.585908 
L 644.059119 -49.017202 
L 643.153756 -49.456512 
L 642.248393 -49.895343 
L 641.34303 -50.325186 
L 640.437667 -50.738031 
L 639.532303 -51.126913 
L 638.62694 -51.486456 
L 637.721577 -51.813384 
L 636.816214 -52.106958 
L 635.910851 -52.369311 
L 635.005487 -52.605642 
L 634.100124 -52.82426 
L 633.194761 -53.036445 
L 632.289398 -53.256143 
L 631.384035 -53.499476 
L 630.478672 -53.784099 
L 629.573308 -54.128423 
L 628.667945 -54.550723 
L 627.762582 -55.068205 
L 626.857219 -55.696037 
L 625.951856 -56.446437 
L 625.046492 -57.327847 
L 624.141129 -58.344258 
L 623.235766 -59.494742 
L 622.330403 -60.773227 
L 621.42504 -62.168553 
L 620.519677 -63.664829 
L 619.614313 -65.242084 
L 618.70895 -66.877192 
L 617.803587 -68.545028 
L 616.898224 -70.219769 
L 615.992861 -71.876278 
L 615.087497 -73.49144 
L 614.182134 -75.045377 
L 613.276771 -76.522417 
L 612.371408 -77.911764 
L 611.466045 -79.207822 
L 610.560682 -80.410159 
L 609.655318 -81.523159 
L 608.749955 -82.555431 
L 607.844592 -83.519078 
L 606.939229 -84.428936 
L 606.033866 -85.301884 
L 605.128503 -86.156308 
L 604.223139 -87.011752 
L 603.317776 -87.888745 
L 602.412413 -88.808741 
L 601.50705 -89.794085 
L 600.601687 -90.86789 
L 599.696323 -92.053714 
L 598.79096 -93.374963 
L 597.885597 -94.854001 
L 596.980234 -96.510984 
L 596.074871 -98.362528 
L 595.169508 -100.420342 
L 594.264144 -102.690016 
L 593.358781 -105.170127 
L 592.453418 -107.85182 
L 591.548055 -110.718969 
L 590.642692 -113.748948 
L 589.737328 -116.913952 
L 588.831965 -120.182781 
L 587.926602 -123.522884 
L 587.021239 -126.902478 
L 586.115876 -130.292515 
L 585.210513 -133.668316 
L 584.305149 -137.010693 
L 583.399786 -140.306483 
L 582.494423 -143.54842 
L 581.58906 -146.734395 
L 580.683697 -149.866131 
L 579.778333 -152.947422 
L 578.87297 -155.982061 
L 577.967607 -158.971628 
L 577.062244 -161.913327 
L 576.156881 -164.798047 
L 575.251518 -167.60883 
L 574.346154 -170.319888 
L 573.440791 -172.896289 
L 572.535428 -175.294382 
L 571.630065 -177.462958 
L 570.724702 -179.345097 
L 569.819339 -180.880577 
L 568.913975 -182.008678 
L 568.008612 -182.671164 
L 567.103249 -182.815238 
L 566.197886 -182.396253 
L 565.292523 -181.380002 
L 564.387159 -179.744472 
L 563.481796 -177.480979 
L 562.576433 -174.594671 
L 561.67107 -171.104431 
L 560.765707 -167.042239 
L 559.860344 -162.452078 
L 558.95498 -157.388463 
L 558.049617 -151.914702 
L 557.144254 -146.100935 
L 556.238891 -140.022057 
L 555.333528 -133.755583 
L 554.428164 -127.379512 
L 553.522801 -120.970284 
L 552.617438 -114.600884 
L 551.712075 -108.33916 
L 550.806712 -102.246421 
L 549.901349 -96.376356 
L 548.995985 -90.774295 
L 548.090622 -85.476827 
L 547.185259 -80.511743 
L 546.279896 -75.898287 
L 545.374533 -71.647651 
L 544.469169 -67.763663 
L 543.563806 -64.243612 
L 542.658443 -61.079153 
L 541.75308 -58.257238 
L 540.847717 -55.761045 
L 539.942354 -53.570863 
L 539.03699 -51.664917 
L 538.131627 -50.020116 
L 537.226264 -48.612725 
L 536.320901 -47.418933 
L 535.415538 -46.415355 
L 534.510175 -45.57943 
L 533.604811 -44.889746 
L 532.699448 -44.326289 
L 531.794085 -43.870617 
L 530.888722 -43.50597 
L 529.983359 -43.217328 
L 529.077995 -42.991408 
L 528.172632 -42.816628 
L 527.267269 -42.683027 
L 526.361906 -42.582161 
L 525.456543 -42.506973 
L 524.55118 -42.451656 
L 523.645816 -42.411501 
L 522.740453 -42.38275 
L 521.83509 -42.362451 
L 520.929727 -42.348323 
L 520.024364 -42.338632 
z
" style="stroke: #1f77b4"/>
    </defs>
    <g clip-path="url(#pb86fe38bde)">
     <use xlink:href="#mae2cdcd260" x="0" y="216" style="fill: #1f77b4; fill-opacity: 0.25; stroke: #1f77b4"/>
    </g>
   </g>
   <g id="matplotlib.axis_7">
    <g id="xtick_4">
     <g id="line2d_40">
      <g>
       <use xlink:href="#m8c5eb38c17" x="566.225141" y="173.68" style="stroke: #000000; stroke-width: 0.8"/>
      </g>
     </g>
     <g id="text_31">
      <!-- 10 -->
      <g transform="translate(559.862641 188.278437) scale(0.1 -0.1)">
       <use xlink:href="#DejaVuSans-31"/>
       <use xlink:href="#DejaVuSans-30" transform="translate(63.623047 0)"/>
      </g>
     </g>
    </g>
    <g id="xtick_5">
     <g id="line2d_41">
      <g>
       <use xlink:href="#m8c5eb38c17" x="624.512302" y="173.68" style="stroke: #000000; stroke-width: 0.8"/>
      </g>
     </g>
     <g id="text_32">
      <!-- 20 -->
      <g transform="translate(618.149802 188.278437) scale(0.1 -0.1)">
       <use xlink:href="#DejaVuSans-32"/>
       <use xlink:href="#DejaVuSans-30" transform="translate(63.623047 0)"/>
      </g>
     </g>
    </g>
    <g id="xtick_6">
     <g id="line2d_42">
      <g>
       <use xlink:href="#m8c5eb38c17" x="682.799463" y="173.68" style="stroke: #000000; stroke-width: 0.8"/>
      </g>
     </g>
     <g id="text_33">
      <!-- 30 -->
      <g transform="translate(676.436963 188.278437) scale(0.1 -0.1)">
       <defs>
        <path id="DejaVuSans-33" d="M 2597 2516 
Q 3050 2419 3304 2112 
Q 3559 1806 3559 1356 
Q 3559 666 3084 287 
Q 2609 -91 1734 -91 
Q 1441 -91 1130 -33 
Q 819 25 488 141 
L 488 750 
Q 750 597 1062 519 
Q 1375 441 1716 441 
Q 2309 441 2620 675 
Q 2931 909 2931 1356 
Q 2931 1769 2642 2001 
Q 2353 2234 1838 2234 
L 1294 2234 
L 1294 2753 
L 1863 2753 
Q 2328 2753 2575 2939 
Q 2822 3125 2822 3475 
Q 2822 3834 2567 4026 
Q 2313 4219 1838 4219 
Q 1578 4219 1281 4162 
Q 984 4106 628 3988 
L 628 4550 
Q 988 4650 1302 4700 
Q 1616 4750 1894 4750 
Q 2613 4750 3031 4423 
Q 3450 4097 3450 3541 
Q 3450 3153 3228 2886 
Q 3006 2619 2597 2516 
z
" transform="scale(0.015625)"/>
       </defs>
       <use xlink:href="#DejaVuSans-33"/>
       <use xlink:href="#DejaVuSans-30" transform="translate(63.623047 0)"/>
      </g>
     </g>
    </g>
    <g id="text_34">
     <!-- gf.count_skew -->
     <g transform="translate(574.856437 201.956562) scale(0.1 -0.1)">
      <defs>
       <path id="DejaVuSans-66" d="M 2375 4863 
L 2375 4384 
L 1825 4384 
Q 1516 4384 1395 4259 
Q 1275 4134 1275 3809 
L 1275 3500 
L 2222 3500 
L 2222 3053 
L 1275 3053 
L 1275 0 
L 697 0 
L 697 3053 
L 147 3053 
L 147 3500 
L 697 3500 
L 697 3744 
Q 697 4328 969 4595 
Q 1241 4863 1831 4863 
L 2375 4863 
z
" transform="scale(0.015625)"/>
       <path id="DejaVuSans-5f" d="M 3263 -1063 
L 3263 -1509 
L -63 -1509 
L -63 -1063 
L 3263 -1063 
z
" transform="scale(0.015625)"/>
       <path id="DejaVuSans-6b" d="M 581 4863 
L 1159 4863 
L 1159 1991 
L 2875 3500 
L 3609 3500 
L 1753 1863 
L 3688 0 
L 2938 0 
L 1159 1709 
L 1159 0 
L 581 0 
L 581 4863 
z
" transform="scale(0.015625)"/>
       <path id="DejaVuSans-77" d="M 269 3500 
L 844 3500 
L 1563 769 
L 2278 3500 
L 2956 3500 
L 3675 769 
L 4391 3500 
L 4966 3500 
L 4050 0 
L 3372 0 
L 2619 2869 
L 1863 0 
L 1184 0 
L 269 3500 
z
" transform="scale(0.015625)"/>
      </defs>
      <use xlink:href="#DejaVuSans-67"/>
      <use xlink:href="#DejaVuSans-66" transform="translate(63.476562 0)"/>
      <use xlink:href="#DejaVuSans-2e" transform="translate(91.431641 0)"/>
      <use xlink:href="#DejaVuSans-63" transform="translate(123.21875 0)"/>
      <use xlink:href="#DejaVuSans-6f" transform="translate(178.199219 0)"/>
      <use xlink:href="#DejaVuSans-75" transform="translate(239.380859 0)"/>
      <use xlink:href="#DejaVuSans-6e" transform="translate(302.759766 0)"/>
      <use xlink:href="#DejaVuSans-74" transform="translate(366.138672 0)"/>
      <use xlink:href="#DejaVuSans-5f" transform="translate(405.347656 0)"/>
      <use xlink:href="#DejaVuSans-73" transform="translate(455.347656 0)"/>
      <use xlink:href="#DejaVuSans-6b" transform="translate(507.447266 0)"/>
      <use xlink:href="#DejaVuSans-65" transform="translate(561.732422 0)"/>
      <use xlink:href="#DejaVuSans-77" transform="translate(623.255859 0)"/>
     </g>
    </g>
   </g>
   <g id="matplotlib.axis_8">
    <g id="ytick_19">
     <g id="line2d_43">
      <g>
       <use xlink:href="#m0c7d25a760" x="511.016" y="173.68" style="stroke: #000000; stroke-width: 0.8"/>
      </g>
     </g>
     <g id="text_35">
      <!-- 0.00 -->
      <g transform="translate(481.750375 177.479219) scale(0.1 -0.1)">
       <use xlink:href="#DejaVuSans-30"/>
       <use xlink:href="#DejaVuSans-2e" transform="translate(63.623047 0)"/>
       <use xlink:href="#DejaVuSans-30" transform="translate(95.410156 0)"/>
       <use xlink:href="#DejaVuSans-30" transform="translate(159.033203 0)"/>
      </g>
     </g>
    </g>
    <g id="ytick_20">
     <g id="line2d_44">
      <g>
       <use xlink:href="#m0c7d25a760" x="511.016" y="151.134272" style="stroke: #000000; stroke-width: 0.8"/>
      </g>
     </g>
     <g id="text_36">
      <!-- 0.02 -->
      <g transform="translate(481.750375 154.933491) scale(0.1 -0.1)">
       <use xlink:href="#DejaVuSans-30"/>
       <use xlink:href="#DejaVuSans-2e" transform="translate(63.623047 0)"/>
       <use xlink:href="#DejaVuSans-30" transform="translate(95.410156 0)"/>
       <use xlink:href="#DejaVuSans-32" transform="translate(159.033203 0)"/>
      </g>
     </g>
    </g>
    <g id="ytick_21">
     <g id="line2d_45">
      <g>
       <use xlink:href="#m0c7d25a760" x="511.016" y="128.588544" style="stroke: #000000; stroke-width: 0.8"/>
      </g>
     </g>
     <g id="text_37">
      <!-- 0.04 -->
      <g transform="translate(481.750375 132.387762) scale(0.1 -0.1)">
       <use xlink:href="#DejaVuSans-30"/>
       <use xlink:href="#DejaVuSans-2e" transform="translate(63.623047 0)"/>
       <use xlink:href="#DejaVuSans-30" transform="translate(95.410156 0)"/>
       <use xlink:href="#DejaVuSans-34" transform="translate(159.033203 0)"/>
      </g>
     </g>
    </g>
    <g id="ytick_22">
     <g id="line2d_46">
      <g>
       <use xlink:href="#m0c7d25a760" x="511.016" y="106.042815" style="stroke: #000000; stroke-width: 0.8"/>
      </g>
     </g>
     <g id="text_38">
      <!-- 0.06 -->
      <g transform="translate(481.750375 109.842034) scale(0.1 -0.1)">
       <use xlink:href="#DejaVuSans-30"/>
       <use xlink:href="#DejaVuSans-2e" transform="translate(63.623047 0)"/>
       <use xlink:href="#DejaVuSans-30" transform="translate(95.410156 0)"/>
       <use xlink:href="#DejaVuSans-36" transform="translate(159.033203 0)"/>
      </g>
     </g>
    </g>
    <g id="ytick_23">
     <g id="line2d_47">
      <g>
       <use xlink:href="#m0c7d25a760" x="511.016" y="83.497087" style="stroke: #000000; stroke-width: 0.8"/>
      </g>
     </g>
     <g id="text_39">
      <!-- 0.08 -->
      <g transform="translate(481.750375 87.296306) scale(0.1 -0.1)">
       <use xlink:href="#DejaVuSans-30"/>
       <use xlink:href="#DejaVuSans-2e" transform="translate(63.623047 0)"/>
       <use xlink:href="#DejaVuSans-30" transform="translate(95.410156 0)"/>
       <use xlink:href="#DejaVuSans-38" transform="translate(159.033203 0)"/>
      </g>
     </g>
    </g>
    <g id="ytick_24">
     <g id="line2d_48">
      <g>
       <use xlink:href="#m0c7d25a760" x="511.016" y="60.951359" style="stroke: #000000; stroke-width: 0.8"/>
      </g>
     </g>
     <g id="text_40">
      <!-- 0.10 -->
      <g transform="translate(481.750375 64.750578) scale(0.1 -0.1)">
       <use xlink:href="#DejaVuSans-30"/>
       <use xlink:href="#DejaVuSans-2e" transform="translate(63.623047 0)"/>
       <use xlink:href="#DejaVuSans-31" transform="translate(95.410156 0)"/>
       <use xlink:href="#DejaVuSans-30" transform="translate(159.033203 0)"/>
      </g>
     </g>
    </g>
    <g id="ytick_25">
     <g id="line2d_49">
      <g>
       <use xlink:href="#m0c7d25a760" x="511.016" y="38.405631" style="stroke: #000000; stroke-width: 0.8"/>
      </g>
     </g>
     <g id="text_41">
      <!-- 0.12 -->
      <g transform="translate(481.750375 42.20485) scale(0.1 -0.1)">
       <use xlink:href="#DejaVuSans-30"/>
       <use xlink:href="#DejaVuSans-2e" transform="translate(63.623047 0)"/>
       <use xlink:href="#DejaVuSans-31" transform="translate(95.410156 0)"/>
       <use xlink:href="#DejaVuSans-32" transform="translate(159.033203 0)"/>
      </g>
     </g>
    </g>
    <g id="text_42">
     <!-- Density -->
     <g transform="translate(475.670687 118.928594) rotate(-90) scale(0.1 -0.1)">
      <use xlink:href="#DejaVuSans-44"/>
      <use xlink:href="#DejaVuSans-65" transform="translate(77.001953 0)"/>
      <use xlink:href="#DejaVuSans-6e" transform="translate(138.525391 0)"/>
      <use xlink:href="#DejaVuSans-73" transform="translate(201.904297 0)"/>
      <use xlink:href="#DejaVuSans-69" transform="translate(254.003906 0)"/>
      <use xlink:href="#DejaVuSans-74" transform="translate(281.787109 0)"/>
      <use xlink:href="#DejaVuSans-79" transform="translate(320.996094 0)"/>
     </g>
    </g>
   </g>
   <g id="patch_21">
    <path d="M 511.016 173.68 
L 511.016 26.16 
" style="fill: none; stroke: #000000; stroke-width: 0.8; stroke-linejoin: miter; stroke-linecap: square"/>
   </g>
   <g id="patch_22">
    <path d="M 709.2 173.68 
L 709.2 26.16 
" style="fill: none; stroke: #000000; stroke-width: 0.8; stroke-linejoin: miter; stroke-linecap: square"/>
   </g>
   <g id="patch_23">
    <path d="M 511.016 173.68 
L 709.2 173.68 
" style="fill: none; stroke: #000000; stroke-width: 0.8; stroke-linejoin: miter; stroke-linecap: square"/>
   </g>
   <g id="patch_24">
    <path d="M 511.016 26.16 
L 709.2 26.16 
" style="fill: none; stroke: #000000; stroke-width: 0.8; stroke-linejoin: miter; stroke-linecap: square"/>
   </g>
   <g id="text_43">
    <!-- Gene Frequency Skewness -->
    <g transform="translate(530.053 20.16) scale(0.12 -0.12)">
     <use xlink:href="#DejaVuSans-47"/>
     <use xlink:href="#DejaVuSans-65" transform="translate(77.490234 0)"/>
     <use xlink:href="#DejaVuSans-6e" transform="translate(139.013672 0)"/>
     <use xlink:href="#DejaVuSans-65" transform="translate(202.392578 0)"/>
     <use xlink:href="#DejaVuSans-20" transform="translate(263.916016 0)"/>
     <use xlink:href="#DejaVuSans-46" transform="translate(295.703125 0)"/>
     <use xlink:href="#DejaVuSans-72" transform="translate(345.972656 0)"/>
     <use xlink:href="#DejaVuSans-65" transform="translate(384.835938 0)"/>
     <use xlink:href="#DejaVuSans-71" transform="translate(446.359375 0)"/>
     <use xlink:href="#DejaVuSans-75" transform="translate(509.835938 0)"/>
     <use xlink:href="#DejaVuSans-65" transform="translate(573.214844 0)"/>
     <use xlink:href="#DejaVuSans-6e" transform="translate(634.738281 0)"/>
     <use xlink:href="#DejaVuSans-63" transform="translate(698.117188 0)"/>
     <use xlink:href="#DejaVuSans-79" transform="translate(753.097656 0)"/>
     <use xlink:href="#DejaVuSans-20" transform="translate(812.277344 0)"/>
     <use xlink:href="#DejaVuSans-53" transform="translate(844.064453 0)"/>
     <use xlink:href="#DejaVuSans-6b" transform="translate(907.541016 0)"/>
     <use xlink:href="#DejaVuSans-65" transform="translate(961.826172 0)"/>
     <use xlink:href="#DejaVuSans-77" transform="translate(1023.349609 0)"/>
     <use xlink:href="#DejaVuSans-6e" transform="translate(1105.136719 0)"/>
     <use xlink:href="#DejaVuSans-65" transform="translate(1168.515625 0)"/>
     <use xlink:href="#DejaVuSans-73" transform="translate(1230.039062 0)"/>
     <use xlink:href="#DejaVuSans-73" transform="translate(1282.138672 0)"/>
    </g>
   </g>
   <g id="legend_1">
    <g id="text_44">
     <!-- dataset -->
     <g transform="translate(666.392188 38.758438) scale(0.1 -0.1)">
      <use xlink:href="#DejaVuSans-64"/>
      <use xlink:href="#DejaVuSans-61" transform="translate(63.476562 0)"/>
      <use xlink:href="#DejaVuSans-74" transform="translate(124.755859 0)"/>
      <use xlink:href="#DejaVuSans-61" transform="translate(163.964844 0)"/>
      <use xlink:href="#DejaVuSans-73" transform="translate(225.244141 0)"/>
      <use xlink:href="#DejaVuSans-65" transform="translate(277.34375 0)"/>
      <use xlink:href="#DejaVuSans-74" transform="translate(338.867188 0)"/>
     </g>
    </g>
    <g id="patch_25">
     <path d="M 667.729688 54.788125 
L 677.729688 54.788125 
L 677.729688 45.838125 
L 667.729688 45.838125 
z
" style="fill: #1f77b4; fill-opacity: 0.25; stroke: #1f77b4; stroke-linejoin: miter"/>
    </g>
    <g id="text_45">
     <!-- BLD -->
     <g transform="translate(682.729688 53.738125) scale(0.1 -0.1)">
      <use xlink:href="#DejaVuSans-42"/>
      <use xlink:href="#DejaVuSans-4c" transform="translate(68.603516 0)"/>
      <use xlink:href="#DejaVuSans-44" transform="translate(124.316406 0)"/>
     </g>
    </g>
   </g>
  </g>
 </g>
 <defs>
  <clipPath id="pc00856a81b">
   <rect x="51.005" y="26.16" width="99.092" height="147.52"/>
  </clipPath>
  <clipPath id="pb964bd9ae1">
   <rect x="204.342" y="26.16" width="99.092" height="147.52"/>
  </clipPath>
  <clipPath id="p5c1b851f8e">
   <rect x="357.679" y="26.16" width="99.092" height="147.52"/>
  </clipPath>
  <clipPath id="pb86fe38bde">
   <rect x="511.016" y="26.16" width="198.184" height="147.52"/>
  </clipPath>
 </defs>
</svg>
