<?xml version="1.0" encoding="utf-8" standalone="no"?>
<!DOCTYPE svg PUBLIC "-//W3C//DTD SVG 1.1//EN"
  "http://www.w3.org/Graphics/SVG/1.1/DTD/svg11.dtd">
<svg xmlns:xlink="http://www.w3.org/1999/xlink" width="720pt" height="216pt" viewBox="0 0 720 216" xmlns="http://www.w3.org/2000/svg" version="1.1">
 <metadata>
  <rdf:RDF xmlns:dc="http://purl.org/dc/elements/1.1/" xmlns:cc="http://creativecommons.org/ns#" xmlns:rdf="http://www.w3.org/1999/02/22-rdf-syntax-ns#">
   <cc:Work>
    <dc:type rdf:resource="http://purl.org/dc/dcmitype/StillImage"/>
    <dc:date>2026-05-12T13:36:40.485059</dc:date>
    <dc:format>image/svg+xml</dc:format>
    <dc:creator>
     <cc:Agent>
      <dc:title>Matplotlib v3.10.9, https://matplotlib.org/</dc:title>
     </cc:Agent>
    </dc:creator>
   </cc:Work>
  </rdf:RDF>
 </metadata>
 <defs>
  <style type="text/css">*{stroke-linejoin: round; stroke-linecap: butt}</style>
 </defs>
 <g id="figure_1">
  <g id="patch_1">
   <path d="M 0 216 
L 720 216 
L 720 0 
L 0 0 
z
" style="fill: #ffffff"/>
  </g>
  <g id="axes_1">
   <g id="patch_2">
    <path d="M 51.005 173.68 
L 146.29 173.68 
L 146.29 26.16 
L 51.005 26.16 
z
" style="fill: #ffffff"/>
   </g>
   <g id="matplotlib.axis_1">
    <g id="xtick_1">
     <g id="line2d_1">
      <defs>
       <path id="mc696e84f9d" d="M 0 0 
L 0 3.5 
" style="stroke: #000000; stroke-width: 0.8"/>
      </defs>
      <g>
       <use xlink:href="#mc696e84f9d" x="98.6475" y="173.68" style="stroke: #000000; stroke-width: 0.8"/>
      </g>
     </g>
     <g id="text_1">
      <!-- LUN -->
      <g transform="translate(88.711563 188.278437) scale(0.1 -0.1)">
       <defs>
        <path id="DejaVuSans-4c" d="M 628 4666 
L 1259 4666 
L 1259 531 
L 3531 531 
L 3531 0 
L 628 0 
L 628 4666 
z
" transform="scale(0.015625)"/>
        <path id="DejaVuSans-55" d="M 556 4666 
L 1191 4666 
L 1191 1831 
Q 1191 1081 1462 751 
Q 1734 422 2344 422 
Q 2950 422 3222 751 
Q 3494 1081 3494 1831 
L 3494 4666 
L 4128 4666 
L 4128 1753 
Q 4128 841 3676 375 
Q 3225 -91 2344 -91 
Q 1459 -91 1007 375 
Q 556 841 556 1753 
L 556 4666 
z
" transform="scale(0.015625)"/>
        <path id="DejaVuSans-4e" d="M 628 4666 
L 1478 4666 
L 3547 763 
L 3547 4666 
L 4159 4666 
L 4159 0 
L 3309 0 
L 1241 3903 
L 1241 0 
L 628 0 
L 628 4666 
z
" transform="scale(0.015625)"/>
       </defs>
       <use xlink:href="#DejaVuSans-4c"/>
       <use xlink:href="#DejaVuSans-55" transform="translate(50.712891 0)"/>
       <use xlink:href="#DejaVuSans-4e" transform="translate(123.90625 0)"/>
      </g>
     </g>
    </g>
    <g id="text_2">
     <!-- dataset -->
     <g transform="translate(79.743594 201.956562) scale(0.1 -0.1)">
      <defs>
       <path id="DejaVuSans-64" d="M 2906 2969 
L 2906 4863 
L 3481 4863 
L 3481 0 
L 2906 0 
L 2906 525 
Q 2725 213 2448 61 
Q 2172 -91 1784 -91 
Q 1150 -91 751 415 
Q 353 922 353 1747 
Q 353 2572 751 3078 
Q 1150 3584 1784 3584 
Q 2172 3584 2448 3432 
Q 2725 3281 2906 2969 
z
M 947 1747 
Q 947 1113 1208 752 
Q 1469 391 1925 391 
Q 2381 391 2643 752 
Q 2906 1113 2906 1747 
Q 2906 2381 2643 2742 
Q 2381 3103 1925 3103 
Q 1469 3103 1208 2742 
Q 947 2381 947 1747 
z
" transform="scale(0.015625)"/>
       <path id="DejaVuSans-61" d="M 2194 1759 
Q 1497 1759 1228 1600 
Q 959 1441 959 1056 
Q 959 750 1161 570 
Q 1363 391 1709 391 
Q 2188 391 2477 730 
Q 2766 1069 2766 1631 
L 2766 1759 
L 2194 1759 
z
M 3341 1997 
L 3341 0 
L 2766 0 
L 2766 531 
Q 2569 213 2275 61 
Q 1981 -91 1556 -91 
Q 1019 -91 701 211 
Q 384 513 384 1019 
Q 384 1609 779 1909 
Q 1175 2209 1959 2209 
L 2766 2209 
L 2766 2266 
Q 2766 2663 2505 2880 
Q 2244 3097 1772 3097 
Q 1472 3097 1187 3025 
Q 903 2953 641 2809 
L 641 3341 
Q 956 3463 1253 3523 
Q 1550 3584 1831 3584 
Q 2591 3584 2966 3190 
Q 3341 2797 3341 1997 
z
" transform="scale(0.015625)"/>
       <path id="DejaVuSans-74" d="M 1172 4494 
L 1172 3500 
L 2356 3500 
L 2356 3053 
L 1172 3053 
L 1172 1153 
Q 1172 725 1289 603 
Q 1406 481 1766 481 
L 2356 481 
L 2356 0 
L 1766 0 
Q 1100 0 847 248 
Q 594 497 594 1153 
L 594 3053 
L 172 3053 
L 172 3500 
L 594 3500 
L 594 4494 
L 1172 4494 
z
" transform="scale(0.015625)"/>
       <path id="DejaVuSans-73" d="M 2834 3397 
L 2834 2853 
Q 2591 2978 2328 3040 
Q 2066 3103 1784 3103 
Q 1356 3103 1142 2972 
Q 928 2841 928 2578 
Q 928 2378 1081 2264 
Q 1234 2150 1697 2047 
L 1894 2003 
Q 2506 1872 2764 1633 
Q 3022 1394 3022 966 
Q 3022 478 2636 193 
Q 2250 -91 1575 -91 
Q 1294 -91 989 -36 
Q 684 19 347 128 
L 347 722 
Q 666 556 975 473 
Q 1284 391 1588 391 
Q 1994 391 2212 530 
Q 2431 669 2431 922 
Q 2431 1156 2273 1281 
Q 2116 1406 1581 1522 
L 1381 1569 
Q 847 1681 609 1914 
Q 372 2147 372 2553 
Q 372 3047 722 3315 
Q 1072 3584 1716 3584 
Q 2034 3584 2315 3537 
Q 2597 3491 2834 3397 
z
" transform="scale(0.015625)"/>
       <path id="DejaVuSans-65" d="M 3597 1894 
L 3597 1613 
L 953 1613 
Q 991 1019 1311 708 
Q 1631 397 2203 397 
Q 2534 397 2845 478 
Q 3156 559 3463 722 
L 3463 178 
Q 3153 47 2828 -22 
Q 2503 -91 2169 -91 
Q 1331 -91 842 396 
Q 353 884 353 1716 
Q 353 2575 817 3079 
Q 1281 3584 2069 3584 
Q 2775 3584 3186 3129 
Q 3597 2675 3597 1894 
z
M 3022 2063 
Q 3016 2534 2758 2815 
Q 2500 3097 2075 3097 
Q 1594 3097 1305 2825 
Q 1016 2553 972 2059 
L 3022 2063 
z
" transform="scale(0.015625)"/>
      </defs>
      <use xlink:href="#DejaVuSans-64"/>
      <use xlink:href="#DejaVuSans-61" transform="translate(63.476562 0)"/>
      <use xlink:href="#DejaVuSans-74" transform="translate(124.755859 0)"/>
      <use xlink:href="#DejaVuSans-61" transform="translate(163.964844 0)"/>
      <use xlink:href="#DejaVuSans-73" transform="translate(225.244141 0)"/>
      <use xlink:href="#DejaVuSans-65" transform="translate(277.34375 0)"/>
      <use xlink:href="#DejaVuSans-74" transform="translate(338.867188 0)"/>
     </g>
    </g>
   </g>
   <g id="matplotlib.axis_2">
    <g id="ytick_1">
     <g id="line2d_2">
      <defs>
       <path id="m70d0cc50c2" d="M 0 0 
L -3.5 0 
" style="stroke: #000000; stroke-width: 0.8"/>
      </defs>
      <g>
       <use xlink:href="#m70d0cc50c2" x="51.005" y="167.918976" style="stroke: #000000; stroke-width: 0.8"/>
      </g>
     </g>
     <g id="text_3">
      <!-- 0 -->
      <g transform="translate(37.6425 171.718194) scale(0.1 -0.1)">
       <defs>
        <path id="DejaVuSans-30" d="M 2034 4250 
Q 1547 4250 1301 3770 
Q 1056 3291 1056 2328 
Q 1056 1369 1301 889 
Q 1547 409 2034 409 
Q 2525 409 2770 889 
Q 3016 1369 3016 2328 
Q 3016 3291 2770 3770 
Q 2525 4250 2034 4250 
z
M 2034 4750 
Q 2819 4750 3233 4129 
Q 3647 3509 3647 2328 
Q 3647 1150 3233 529 
Q 2819 -91 2034 -91 
Q 1250 -91 836 529 
Q 422 1150 422 2328 
Q 422 3509 836 4129 
Q 1250 4750 2034 4750 
z
" transform="scale(0.015625)"/>
       </defs>
       <use xlink:href="#DejaVuSans-30"/>
      </g>
     </g>
    </g>
    <g id="ytick_2">
     <g id="line2d_3">
      <g>
       <use xlink:href="#m70d0cc50c2" x="51.005" y="144.30822" style="stroke: #000000; stroke-width: 0.8"/>
      </g>
     </g>
     <g id="text_4">
      <!-- 25 -->
      <g transform="translate(31.28 148.107439) scale(0.1 -0.1)">
       <defs>
        <path id="DejaVuSans-32" d="M 1228 531 
L 3431 531 
L 3431 0 
L 469 0 
L 469 531 
Q 828 903 1448 1529 
Q 2069 2156 2228 2338 
Q 2531 2678 2651 2914 
Q 2772 3150 2772 3378 
Q 2772 3750 2511 3984 
Q 2250 4219 1831 4219 
Q 1534 4219 1204 4116 
Q 875 4013 500 3803 
L 500 4441 
Q 881 4594 1212 4672 
Q 1544 4750 1819 4750 
Q 2544 4750 2975 4387 
Q 3406 4025 3406 3419 
Q 3406 3131 3298 2873 
Q 3191 2616 2906 2266 
Q 2828 2175 2409 1742 
Q 1991 1309 1228 531 
z
" transform="scale(0.015625)"/>
        <path id="DejaVuSans-35" d="M 691 4666 
L 3169 4666 
L 3169 4134 
L 1269 4134 
L 1269 2991 
Q 1406 3038 1543 3061 
Q 1681 3084 1819 3084 
Q 2600 3084 3056 2656 
Q 3513 2228 3513 1497 
Q 3513 744 3044 326 
Q 2575 -91 1722 -91 
Q 1428 -91 1123 -41 
Q 819 9 494 109 
L 494 744 
Q 775 591 1075 516 
Q 1375 441 1709 441 
Q 2250 441 2565 725 
Q 2881 1009 2881 1497 
Q 2881 1984 2565 2268 
Q 2250 2553 1709 2553 
Q 1456 2553 1204 2497 
Q 953 2441 691 2322 
L 691 4666 
z
" transform="scale(0.015625)"/>
       </defs>
       <use xlink:href="#DejaVuSans-32"/>
       <use xlink:href="#DejaVuSans-35" transform="translate(63.623047 0)"/>
      </g>
     </g>
    </g>
    <g id="ytick_3">
     <g id="line2d_4">
      <g>
       <use xlink:href="#m70d0cc50c2" x="51.005" y="120.697465" style="stroke: #000000; stroke-width: 0.8"/>
      </g>
     </g>
     <g id="text_5">
      <!-- 50 -->
      <g transform="translate(31.28 124.496684) scale(0.1 -0.1)">
       <use xlink:href="#DejaVuSans-35"/>
       <use xlink:href="#DejaVuSans-30" transform="translate(63.623047 0)"/>
      </g>
     </g>
    </g>
    <g id="ytick_4">
     <g id="line2d_5">
      <g>
       <use xlink:href="#m70d0cc50c2" x="51.005" y="97.086709" style="stroke: #000000; stroke-width: 0.8"/>
      </g>
     </g>
     <g id="text_6">
      <!-- 75 -->
      <g transform="translate(31.28 100.885928) scale(0.1 -0.1)">
       <defs>
        <path id="DejaVuSans-37" d="M 525 4666 
L 3525 4666 
L 3525 4397 
L 1831 0 
L 1172 0 
L 2766 4134 
L 525 4134 
L 525 4666 
z
" transform="scale(0.015625)"/>
       </defs>
       <use xlink:href="#DejaVuSans-37"/>
       <use xlink:href="#DejaVuSans-35" transform="translate(63.623047 0)"/>
      </g>
     </g>
    </g>
    <g id="ytick_5">
     <g id="line2d_6">
      <g>
       <use xlink:href="#m70d0cc50c2" x="51.005" y="73.475954" style="stroke: #000000; stroke-width: 0.8"/>
      </g>
     </g>
     <g id="text_7">
      <!-- 100 -->
      <g transform="translate(24.9175 77.275173) scale(0.1 -0.1)">
       <defs>
        <path id="DejaVuSans-31" d="M 794 531 
L 1825 531 
L 1825 4091 
L 703 3866 
L 703 4441 
L 1819 4666 
L 2450 4666 
L 2450 531 
L 3481 531 
L 3481 0 
L 794 0 
L 794 531 
z
" transform="scale(0.015625)"/>
       </defs>
       <use xlink:href="#DejaVuSans-31"/>
       <use xlink:href="#DejaVuSans-30" transform="translate(63.623047 0)"/>
       <use xlink:href="#DejaVuSans-30" transform="translate(127.246094 0)"/>
      </g>
     </g>
    </g>
    <g id="ytick_6">
     <g id="line2d_7">
      <g>
       <use xlink:href="#m70d0cc50c2" x="51.005" y="49.865198" style="stroke: #000000; stroke-width: 0.8"/>
      </g>
     </g>
     <g id="text_8">
      <!-- 125 -->
      <g transform="translate(24.9175 53.664417) scale(0.1 -0.1)">
       <use xlink:href="#DejaVuSans-31"/>
       <use xlink:href="#DejaVuSans-32" transform="translate(63.623047 0)"/>
       <use xlink:href="#DejaVuSans-35" transform="translate(127.246094 0)"/>
      </g>
     </g>
    </g>
    <g id="ytick_7">
     <g id="line2d_8">
      <g>
       <use xlink:href="#m70d0cc50c2" x="51.005" y="26.254443" style="stroke: #000000; stroke-width: 0.8"/>
      </g>
     </g>
     <g id="text_9">
      <!-- 150 -->
      <g transform="translate(24.9175 30.053662) scale(0.1 -0.1)">
       <use xlink:href="#DejaVuSans-31"/>
       <use xlink:href="#DejaVuSans-35" transform="translate(63.623047 0)"/>
       <use xlink:href="#DejaVuSans-30" transform="translate(127.246094 0)"/>
      </g>
     </g>
    </g>
    <g id="text_10">
     <!-- Count -->
     <g transform="translate(18.837812 114.768438) rotate(-90) scale(0.1 -0.1)">
      <defs>
       <path id="DejaVuSans-43" d="M 4122 4306 
L 4122 3641 
Q 3803 3938 3442 4084 
Q 3081 4231 2675 4231 
Q 1875 4231 1450 3742 
Q 1025 3253 1025 2328 
Q 1025 1406 1450 917 
Q 1875 428 2675 428 
Q 3081 428 3442 575 
Q 3803 722 4122 1019 
L 4122 359 
Q 3791 134 3420 21 
Q 3050 -91 2638 -91 
Q 1578 -91 968 557 
Q 359 1206 359 2328 
Q 359 3453 968 4101 
Q 1578 4750 2638 4750 
Q 3056 4750 3426 4639 
Q 3797 4528 4122 4306 
z
" transform="scale(0.015625)"/>
       <path id="DejaVuSans-6f" d="M 1959 3097 
Q 1497 3097 1228 2736 
Q 959 2375 959 1747 
Q 959 1119 1226 758 
Q 1494 397 1959 397 
Q 2419 397 2687 759 
Q 2956 1122 2956 1747 
Q 2956 2369 2687 2733 
Q 2419 3097 1959 3097 
z
M 1959 3584 
Q 2709 3584 3137 3096 
Q 3566 2609 3566 1747 
Q 3566 888 3137 398 
Q 2709 -91 1959 -91 
Q 1206 -91 779 398 
Q 353 888 353 1747 
Q 353 2609 779 3096 
Q 1206 3584 1959 3584 
z
" transform="scale(0.015625)"/>
       <path id="DejaVuSans-75" d="M 544 1381 
L 544 3500 
L 1119 3500 
L 1119 1403 
Q 1119 906 1312 657 
Q 1506 409 1894 409 
Q 2359 409 2629 706 
Q 2900 1003 2900 1516 
L 2900 3500 
L 3475 3500 
L 3475 0 
L 2900 0 
L 2900 538 
Q 2691 219 2414 64 
Q 2138 -91 1772 -91 
Q 1169 -91 856 284 
Q 544 659 544 1381 
z
M 1991 3584 
L 1991 3584 
z
" transform="scale(0.015625)"/>
       <path id="DejaVuSans-6e" d="M 3513 2113 
L 3513 0 
L 2938 0 
L 2938 2094 
Q 2938 2591 2744 2837 
Q 2550 3084 2163 3084 
Q 1697 3084 1428 2787 
Q 1159 2491 1159 1978 
L 1159 0 
L 581 0 
L 581 3500 
L 1159 3500 
L 1159 2956 
Q 1366 3272 1645 3428 
Q 1925 3584 2291 3584 
Q 2894 3584 3203 3211 
Q 3513 2838 3513 2113 
z
" transform="scale(0.015625)"/>
      </defs>
      <use xlink:href="#DejaVuSans-43"/>
      <use xlink:href="#DejaVuSans-6f" transform="translate(69.824219 0)"/>
      <use xlink:href="#DejaVuSans-75" transform="translate(131.005859 0)"/>
      <use xlink:href="#DejaVuSans-6e" transform="translate(194.384766 0)"/>
      <use xlink:href="#DejaVuSans-74" transform="translate(257.763672 0)"/>
     </g>
    </g>
   </g>
   <g id="patch_3">
    <path d="M 60.5335 163.196825 
L 136.7615 163.196825 
L 136.7615 147.141511 
L 60.5335 147.141511 
L 60.5335 163.196825 
z
" clip-path="url(#pf04cc7c14e)" style="fill: #3274a1; stroke: #3f3f3f; stroke-linejoin: miter"/>
   </g>
   <g id="line2d_9">
    <path d="M 98.6475 163.196825 
L 98.6475 166.974545 
" clip-path="url(#pf04cc7c14e)" style="fill: none; stroke: #3f3f3f"/>
   </g>
   <g id="line2d_10">
    <path d="M 98.6475 147.141511 
L 98.6475 123.530755 
" clip-path="url(#pf04cc7c14e)" style="fill: none; stroke: #3f3f3f"/>
   </g>
   <g id="line2d_11">
    <path d="M 79.5905 166.974545 
L 117.7045 166.974545 
" clip-path="url(#pf04cc7c14e)" style="fill: none; stroke: #3f3f3f; stroke-linecap: square"/>
   </g>
   <g id="line2d_12">
    <path d="M 79.5905 123.530755 
L 117.7045 123.530755 
" clip-path="url(#pf04cc7c14e)" style="fill: none; stroke: #3f3f3f; stroke-linecap: square"/>
   </g>
   <g id="line2d_13">
    <defs>
     <path id="mcb9ea56ac0" d="M 0 3 
C 0.795609 3 1.55874 2.683901 2.12132 2.12132 
C 2.683901 1.55874 3 0.795609 3 0 
C 3 -0.795609 2.683901 -1.55874 2.12132 -2.12132 
C 1.55874 -2.683901 0.795609 -3 0 -3 
C -0.795609 -3 -1.55874 -2.683901 -2.12132 -2.12132 
C -2.683901 -1.55874 -3 -0.795609 -3 0 
C -3 0.795609 -2.683901 1.55874 -2.12132 2.12132 
C -1.55874 2.683901 -0.795609 3 0 3 
z
" style="stroke: #3f3f3f"/>
    </defs>
    <g clip-path="url(#pf04cc7c14e)">
     <use xlink:href="#mcb9ea56ac0" x="98.6475" y="97.086709" style="fill-opacity: 0; stroke: #3f3f3f"/>
     <use xlink:href="#mcb9ea56ac0" x="98.6475" y="110.308732" style="fill-opacity: 0; stroke: #3f3f3f"/>
     <use xlink:href="#mcb9ea56ac0" x="98.6475" y="96.142279" style="fill-opacity: 0; stroke: #3f3f3f"/>
     <use xlink:href="#mcb9ea56ac0" x="98.6475" y="108.419872" style="fill-opacity: 0; stroke: #3f3f3f"/>
     <use xlink:href="#mcb9ea56ac0" x="98.6475" y="116.919744" style="fill-opacity: 0; stroke: #3f3f3f"/>
     <use xlink:href="#mcb9ea56ac0" x="98.6475" y="122.586325" style="fill-opacity: 0; stroke: #3f3f3f"/>
     <use xlink:href="#mcb9ea56ac0" x="98.6475" y="52.698489" style="fill-opacity: 0; stroke: #3f3f3f"/>
     <use xlink:href="#mcb9ea56ac0" x="98.6475" y="100.86443" style="fill-opacity: 0; stroke: #3f3f3f"/>
     <use xlink:href="#mcb9ea56ac0" x="98.6475" y="55.53178" style="fill-opacity: 0; stroke: #3f3f3f"/>
     <use xlink:href="#mcb9ea56ac0" x="98.6475" y="79.142535" style="fill-opacity: 0; stroke: #3f3f3f"/>
     <use xlink:href="#mcb9ea56ac0" x="98.6475" y="83.864686" style="fill-opacity: 0; stroke: #3f3f3f"/>
     <use xlink:href="#mcb9ea56ac0" x="98.6475" y="114.086453" style="fill-opacity: 0; stroke: #3f3f3f"/>
     <use xlink:href="#mcb9ea56ac0" x="98.6475" y="90.475698" style="fill-opacity: 0; stroke: #3f3f3f"/>
     <use xlink:href="#mcb9ea56ac0" x="98.6475" y="111.253163" style="fill-opacity: 0; stroke: #3f3f3f"/>
     <use xlink:href="#mcb9ea56ac0" x="98.6475" y="100.86443" style="fill-opacity: 0; stroke: #3f3f3f"/>
     <use xlink:href="#mcb9ea56ac0" x="98.6475" y="32.865455" style="fill-opacity: 0; stroke: #3f3f3f"/>
     <use xlink:href="#mcb9ea56ac0" x="98.6475" y="113.142023" style="fill-opacity: 0; stroke: #3f3f3f"/>
     <use xlink:href="#mcb9ea56ac0" x="98.6475" y="92.364558" style="fill-opacity: 0; stroke: #3f3f3f"/>
     <use xlink:href="#mcb9ea56ac0" x="98.6475" y="52.698489" style="fill-opacity: 0; stroke: #3f3f3f"/>
     <use xlink:href="#mcb9ea56ac0" x="98.6475" y="109.364302" style="fill-opacity: 0; stroke: #3f3f3f"/>
     <use xlink:href="#mcb9ea56ac0" x="98.6475" y="112.197593" style="fill-opacity: 0; stroke: #3f3f3f"/>
     <use xlink:href="#mcb9ea56ac0" x="98.6475" y="44.198617" style="fill-opacity: 0; stroke: #3f3f3f"/>
     <use xlink:href="#mcb9ea56ac0" x="98.6475" y="117.864174" style="fill-opacity: 0; stroke: #3f3f3f"/>
     <use xlink:href="#mcb9ea56ac0" x="98.6475" y="99.92" style="fill-opacity: 0; stroke: #3f3f3f"/>
     <use xlink:href="#mcb9ea56ac0" x="98.6475" y="103.697721" style="fill-opacity: 0; stroke: #3f3f3f"/>
     <use xlink:href="#mcb9ea56ac0" x="98.6475" y="99.92" style="fill-opacity: 0; stroke: #3f3f3f"/>
     <use xlink:href="#mcb9ea56ac0" x="98.6475" y="97.086709" style="fill-opacity: 0; stroke: #3f3f3f"/>
     <use xlink:href="#mcb9ea56ac0" x="98.6475" y="105.586581" style="fill-opacity: 0; stroke: #3f3f3f"/>
     <use xlink:href="#mcb9ea56ac0" x="98.6475" y="120.697465" style="fill-opacity: 0; stroke: #3f3f3f"/>
     <use xlink:href="#mcb9ea56ac0" x="98.6475" y="120.697465" style="fill-opacity: 0; stroke: #3f3f3f"/>
     <use xlink:href="#mcb9ea56ac0" x="98.6475" y="78.198105" style="fill-opacity: 0; stroke: #3f3f3f"/>
    </g>
   </g>
   <g id="line2d_14">
    <path d="M 60.5335 156.585813 
L 136.7615 156.585813 
" clip-path="url(#pf04cc7c14e)" style="fill: none; stroke: #3f3f3f"/>
   </g>
   <g id="patch_4">
    <path d="M 51.005 173.68 
L 51.005 26.16 
" style="fill: none; stroke: #000000; stroke-width: 0.8; stroke-linejoin: miter; stroke-linecap: square"/>
   </g>
   <g id="patch_5">
    <path d="M 146.29 173.68 
L 146.29 26.16 
" style="fill: none; stroke: #000000; stroke-width: 0.8; stroke-linejoin: miter; stroke-linecap: square"/>
   </g>
   <g id="patch_6">
    <path d="M 51.005 173.68 
L 146.29 173.68 
" style="fill: none; stroke: #000000; stroke-width: 0.8; stroke-linejoin: miter; stroke-linecap: square"/>
   </g>
   <g id="patch_7">
    <path d="M 51.005 26.16 
L 146.29 26.16 
" style="fill: none; stroke: #000000; stroke-width: 0.8; stroke-linejoin: miter; stroke-linecap: square"/>
   </g>
   <g id="text_11">
    <!-- Root node count -->
    <g transform="translate(49.337813 20.16) scale(0.12 -0.12)">
     <defs>
      <path id="DejaVuSans-52" d="M 2841 2188 
Q 3044 2119 3236 1894 
Q 3428 1669 3622 1275 
L 4263 0 
L 3584 0 
L 2988 1197 
Q 2756 1666 2539 1819 
Q 2322 1972 1947 1972 
L 1259 1972 
L 1259 0 
L 628 0 
L 628 4666 
L 2053 4666 
Q 2853 4666 3247 4331 
Q 3641 3997 3641 3322 
Q 3641 2881 3436 2590 
Q 3231 2300 2841 2188 
z
M 1259 4147 
L 1259 2491 
L 2053 2491 
Q 2509 2491 2742 2702 
Q 2975 2913 2975 3322 
Q 2975 3731 2742 3939 
Q 2509 4147 2053 4147 
L 1259 4147 
z
" transform="scale(0.015625)"/>
      <path id="DejaVuSans-20" transform="scale(0.015625)"/>
      <path id="DejaVuSans-63" d="M 3122 3366 
L 3122 2828 
Q 2878 2963 2633 3030 
Q 2388 3097 2138 3097 
Q 1578 3097 1268 2742 
Q 959 2388 959 1747 
Q 959 1106 1268 751 
Q 1578 397 2138 397 
Q 2388 397 2633 464 
Q 2878 531 3122 666 
L 3122 134 
Q 2881 22 2623 -34 
Q 2366 -91 2075 -91 
Q 1284 -91 818 406 
Q 353 903 353 1747 
Q 353 2603 823 3093 
Q 1294 3584 2113 3584 
Q 2378 3584 2631 3529 
Q 2884 3475 3122 3366 
z
" transform="scale(0.015625)"/>
     </defs>
     <use xlink:href="#DejaVuSans-52"/>
     <use xlink:href="#DejaVuSans-6f" transform="translate(64.982422 0)"/>
     <use xlink:href="#DejaVuSans-6f" transform="translate(126.164062 0)"/>
     <use xlink:href="#DejaVuSans-74" transform="translate(187.345703 0)"/>
     <use xlink:href="#DejaVuSans-20" transform="translate(226.554688 0)"/>
     <use xlink:href="#DejaVuSans-6e" transform="translate(258.341797 0)"/>
     <use xlink:href="#DejaVuSans-6f" transform="translate(321.720703 0)"/>
     <use xlink:href="#DejaVuSans-64" transform="translate(382.902344 0)"/>
     <use xlink:href="#DejaVuSans-65" transform="translate(446.378906 0)"/>
     <use xlink:href="#DejaVuSans-20" transform="translate(507.902344 0)"/>
     <use xlink:href="#DejaVuSans-63" transform="translate(539.689453 0)"/>
     <use xlink:href="#DejaVuSans-6f" transform="translate(594.669922 0)"/>
     <use xlink:href="#DejaVuSans-75" transform="translate(655.851562 0)"/>
     <use xlink:href="#DejaVuSans-6e" transform="translate(719.230469 0)"/>
     <use xlink:href="#DejaVuSans-74" transform="translate(782.609375 0)"/>
    </g>
   </g>
  </g>
  <g id="axes_2">
   <g id="patch_8">
    <path d="M 206.88 173.68 
L 302.165 173.68 
L 302.165 26.16 
L 206.88 26.16 
z
" style="fill: #ffffff"/>
   </g>
   <g id="matplotlib.axis_3">
    <g id="xtick_2">
     <g id="line2d_15">
      <g>
       <use xlink:href="#mc696e84f9d" x="254.5225" y="173.68" style="stroke: #000000; stroke-width: 0.8"/>
      </g>
     </g>
     <g id="text_12">
      <!-- LUN -->
      <g transform="translate(244.586563 188.278437) scale(0.1 -0.1)">
       <use xlink:href="#DejaVuSans-4c"/>
       <use xlink:href="#DejaVuSans-55" transform="translate(50.712891 0)"/>
       <use xlink:href="#DejaVuSans-4e" transform="translate(123.90625 0)"/>
      </g>
     </g>
    </g>
    <g id="text_13">
     <!-- dataset -->
     <g transform="translate(235.618594 201.956562) scale(0.1 -0.1)">
      <use xlink:href="#DejaVuSans-64"/>
      <use xlink:href="#DejaVuSans-61" transform="translate(63.476562 0)"/>
      <use xlink:href="#DejaVuSans-74" transform="translate(124.755859 0)"/>
      <use xlink:href="#DejaVuSans-61" transform="translate(163.964844 0)"/>
      <use xlink:href="#DejaVuSans-73" transform="translate(225.244141 0)"/>
      <use xlink:href="#DejaVuSans-65" transform="translate(277.34375 0)"/>
      <use xlink:href="#DejaVuSans-74" transform="translate(338.867188 0)"/>
     </g>
    </g>
   </g>
   <g id="matplotlib.axis_4">
    <g id="ytick_8">
     <g id="line2d_16">
      <g>
       <use xlink:href="#m70d0cc50c2" x="206.88" y="159.448078" style="stroke: #000000; stroke-width: 0.8"/>
      </g>
     </g>
     <g id="text_14">
      <!-- 12.5 -->
      <g transform="translate(177.614375 163.247297) scale(0.1 -0.1)">
       <defs>
        <path id="DejaVuSans-2e" d="M 684 794 
L 1344 794 
L 1344 0 
L 684 0 
L 684 794 
z
" transform="scale(0.015625)"/>
       </defs>
       <use xlink:href="#DejaVuSans-31"/>
       <use xlink:href="#DejaVuSans-32" transform="translate(63.623047 0)"/>
       <use xlink:href="#DejaVuSans-2e" transform="translate(127.246094 0)"/>
       <use xlink:href="#DejaVuSans-35" transform="translate(159.033203 0)"/>
      </g>
     </g>
    </g>
    <g id="ytick_9">
     <g id="line2d_17">
      <g>
       <use xlink:href="#m70d0cc50c2" x="206.88" y="120.735665" style="stroke: #000000; stroke-width: 0.8"/>
      </g>
     </g>
     <g id="text_15">
      <!-- 13.0 -->
      <g transform="translate(177.614375 124.534883) scale(0.1 -0.1)">
       <defs>
        <path id="DejaVuSans-33" d="M 2597 2516 
Q 3050 2419 3304 2112 
Q 3559 1806 3559 1356 
Q 3559 666 3084 287 
Q 2609 -91 1734 -91 
Q 1441 -91 1130 -33 
Q 819 25 488 141 
L 488 750 
Q 750 597 1062 519 
Q 1375 441 1716 441 
Q 2309 441 2620 675 
Q 2931 909 2931 1356 
Q 2931 1769 2642 2001 
Q 2353 2234 1838 2234 
L 1294 2234 
L 1294 2753 
L 1863 2753 
Q 2328 2753 2575 2939 
Q 2822 3125 2822 3475 
Q 2822 3834 2567 4026 
Q 2313 4219 1838 4219 
Q 1578 4219 1281 4162 
Q 984 4106 628 3988 
L 628 4550 
Q 988 4650 1302 4700 
Q 1616 4750 1894 4750 
Q 2613 4750 3031 4423 
Q 3450 4097 3450 3541 
Q 3450 3153 3228 2886 
Q 3006 2619 2597 2516 
z
" transform="scale(0.015625)"/>
       </defs>
       <use xlink:href="#DejaVuSans-31"/>
       <use xlink:href="#DejaVuSans-33" transform="translate(63.623047 0)"/>
       <use xlink:href="#DejaVuSans-2e" transform="translate(127.246094 0)"/>
       <use xlink:href="#DejaVuSans-30" transform="translate(159.033203 0)"/>
      </g>
     </g>
    </g>
    <g id="ytick_10">
     <g id="line2d_18">
      <g>
       <use xlink:href="#m70d0cc50c2" x="206.88" y="82.023251" style="stroke: #000000; stroke-width: 0.8"/>
      </g>
     </g>
     <g id="text_16">
      <!-- 13.5 -->
      <g transform="translate(177.614375 85.82247) scale(0.1 -0.1)">
       <use xlink:href="#DejaVuSans-31"/>
       <use xlink:href="#DejaVuSans-33" transform="translate(63.623047 0)"/>
       <use xlink:href="#DejaVuSans-2e" transform="translate(127.246094 0)"/>
       <use xlink:href="#DejaVuSans-35" transform="translate(159.033203 0)"/>
      </g>
     </g>
    </g>
    <g id="ytick_11">
     <g id="line2d_19">
      <g>
       <use xlink:href="#m70d0cc50c2" x="206.88" y="43.310838" style="stroke: #000000; stroke-width: 0.8"/>
      </g>
     </g>
     <g id="text_17">
      <!-- 14.0 -->
      <g transform="translate(177.614375 47.110057) scale(0.1 -0.1)">
       <defs>
        <path id="DejaVuSans-34" d="M 2419 4116 
L 825 1625 
L 2419 1625 
L 2419 4116 
z
M 2253 4666 
L 3047 4666 
L 3047 1625 
L 3713 1625 
L 3713 1100 
L 3047 1100 
L 3047 0 
L 2419 0 
L 2419 1100 
L 313 1100 
L 313 1709 
L 2253 4666 
z
" transform="scale(0.015625)"/>
       </defs>
       <use xlink:href="#DejaVuSans-31"/>
       <use xlink:href="#DejaVuSans-34" transform="translate(63.623047 0)"/>
       <use xlink:href="#DejaVuSans-2e" transform="translate(127.246094 0)"/>
       <use xlink:href="#DejaVuSans-30" transform="translate(159.033203 0)"/>
      </g>
     </g>
    </g>
    <g id="text_18">
     <!-- Time(Seconds) -->
     <g transform="translate(171.534687 137.062187) rotate(-90) scale(0.1 -0.1)">
      <defs>
       <path id="DejaVuSans-54" d="M -19 4666 
L 3928 4666 
L 3928 4134 
L 2272 4134 
L 2272 0 
L 1638 0 
L 1638 4134 
L -19 4134 
L -19 4666 
z
" transform="scale(0.015625)"/>
       <path id="DejaVuSans-69" d="M 603 3500 
L 1178 3500 
L 1178 0 
L 603 0 
L 603 3500 
z
M 603 4863 
L 1178 4863 
L 1178 4134 
L 603 4134 
L 603 4863 
z
" transform="scale(0.015625)"/>
       <path id="DejaVuSans-6d" d="M 3328 2828 
Q 3544 3216 3844 3400 
Q 4144 3584 4550 3584 
Q 5097 3584 5394 3201 
Q 5691 2819 5691 2113 
L 5691 0 
L 5113 0 
L 5113 2094 
Q 5113 2597 4934 2840 
Q 4756 3084 4391 3084 
Q 3944 3084 3684 2787 
Q 3425 2491 3425 1978 
L 3425 0 
L 2847 0 
L 2847 2094 
Q 2847 2600 2669 2842 
Q 2491 3084 2119 3084 
Q 1678 3084 1418 2786 
Q 1159 2488 1159 1978 
L 1159 0 
L 581 0 
L 581 3500 
L 1159 3500 
L 1159 2956 
Q 1356 3278 1631 3431 
Q 1906 3584 2284 3584 
Q 2666 3584 2933 3390 
Q 3200 3197 3328 2828 
z
" transform="scale(0.015625)"/>
       <path id="DejaVuSans-28" d="M 1984 4856 
Q 1566 4138 1362 3434 
Q 1159 2731 1159 2009 
Q 1159 1288 1364 580 
Q 1569 -128 1984 -844 
L 1484 -844 
Q 1016 -109 783 600 
Q 550 1309 550 2009 
Q 550 2706 781 3412 
Q 1013 4119 1484 4856 
L 1984 4856 
z
" transform="scale(0.015625)"/>
       <path id="DejaVuSans-53" d="M 3425 4513 
L 3425 3897 
Q 3066 4069 2747 4153 
Q 2428 4238 2131 4238 
Q 1616 4238 1336 4038 
Q 1056 3838 1056 3469 
Q 1056 3159 1242 3001 
Q 1428 2844 1947 2747 
L 2328 2669 
Q 3034 2534 3370 2195 
Q 3706 1856 3706 1288 
Q 3706 609 3251 259 
Q 2797 -91 1919 -91 
Q 1588 -91 1214 -16 
Q 841 59 441 206 
L 441 856 
Q 825 641 1194 531 
Q 1563 422 1919 422 
Q 2459 422 2753 634 
Q 3047 847 3047 1241 
Q 3047 1584 2836 1778 
Q 2625 1972 2144 2069 
L 1759 2144 
Q 1053 2284 737 2584 
Q 422 2884 422 3419 
Q 422 4038 858 4394 
Q 1294 4750 2059 4750 
Q 2388 4750 2728 4690 
Q 3069 4631 3425 4513 
z
" transform="scale(0.015625)"/>
       <path id="DejaVuSans-29" d="M 513 4856 
L 1013 4856 
Q 1481 4119 1714 3412 
Q 1947 2706 1947 2009 
Q 1947 1309 1714 600 
Q 1481 -109 1013 -844 
L 513 -844 
Q 928 -128 1133 580 
Q 1338 1288 1338 2009 
Q 1338 2731 1133 3434 
Q 928 4138 513 4856 
z
" transform="scale(0.015625)"/>
      </defs>
      <use xlink:href="#DejaVuSans-54"/>
      <use xlink:href="#DejaVuSans-69" transform="translate(57.958984 0)"/>
      <use xlink:href="#DejaVuSans-6d" transform="translate(85.742188 0)"/>
      <use xlink:href="#DejaVuSans-65" transform="translate(183.154297 0)"/>
      <use xlink:href="#DejaVuSans-28" transform="translate(244.677734 0)"/>
      <use xlink:href="#DejaVuSans-53" transform="translate(283.691406 0)"/>
      <use xlink:href="#DejaVuSans-65" transform="translate(347.167969 0)"/>
      <use xlink:href="#DejaVuSans-63" transform="translate(408.691406 0)"/>
      <use xlink:href="#DejaVuSans-6f" transform="translate(463.671875 0)"/>
      <use xlink:href="#DejaVuSans-6e" transform="translate(524.853516 0)"/>
      <use xlink:href="#DejaVuSans-64" transform="translate(588.232422 0)"/>
      <use xlink:href="#DejaVuSans-73" transform="translate(651.708984 0)"/>
      <use xlink:href="#DejaVuSans-29" transform="translate(703.808594 0)"/>
     </g>
    </g>
   </g>
   <g id="patch_9">
    <path d="M 216.4085 138.630671 
L 292.6365 138.630671 
L 292.6365 113.062284 
L 216.4085 113.062284 
L 216.4085 138.630671 
z
" clip-path="url(#pd37882a455)" style="fill: #3274a1; stroke: #3f3f3f; stroke-linejoin: miter"/>
   </g>
   <g id="line2d_20">
    <path d="M 254.5225 138.630671 
L 254.5225 166.974545 
" clip-path="url(#pd37882a455)" style="fill: none; stroke: #3f3f3f"/>
   </g>
   <g id="line2d_21">
    <path d="M 254.5225 113.062284 
L 254.5225 74.823517 
" clip-path="url(#pd37882a455)" style="fill: none; stroke: #3f3f3f"/>
   </g>
   <g id="line2d_22">
    <path d="M 235.4655 166.974545 
L 273.5795 166.974545 
" clip-path="url(#pd37882a455)" style="fill: none; stroke: #3f3f3f; stroke-linecap: square"/>
   </g>
   <g id="line2d_23">
    <path d="M 235.4655 74.823517 
L 273.5795 74.823517 
" clip-path="url(#pd37882a455)" style="fill: none; stroke: #3f3f3f; stroke-linecap: square"/>
   </g>
   <g id="line2d_24">
    <g clip-path="url(#pd37882a455)">
     <use xlink:href="#mcb9ea56ac0" x="254.5225" y="61.674458" style="fill-opacity: 0; stroke: #3f3f3f"/>
     <use xlink:href="#mcb9ea56ac0" x="254.5225" y="66.230909" style="fill-opacity: 0; stroke: #3f3f3f"/>
     <use xlink:href="#mcb9ea56ac0" x="254.5225" y="50.966605" style="fill-opacity: 0; stroke: #3f3f3f"/>
     <use xlink:href="#mcb9ea56ac0" x="254.5225" y="46.321889" style="fill-opacity: 0; stroke: #3f3f3f"/>
     <use xlink:href="#mcb9ea56ac0" x="254.5225" y="67.864573" style="fill-opacity: 0; stroke: #3f3f3f"/>
     <use xlink:href="#mcb9ea56ac0" x="254.5225" y="73.453097" style="fill-opacity: 0; stroke: #3f3f3f"/>
     <use xlink:href="#mcb9ea56ac0" x="254.5225" y="71.966541" style="fill-opacity: 0; stroke: #3f3f3f"/>
     <use xlink:href="#mcb9ea56ac0" x="254.5225" y="63.563624" style="fill-opacity: 0; stroke: #3f3f3f"/>
     <use xlink:href="#mcb9ea56ac0" x="254.5225" y="56.906637" style="fill-opacity: 0; stroke: #3f3f3f"/>
     <use xlink:href="#mcb9ea56ac0" x="254.5225" y="57.959615" style="fill-opacity: 0; stroke: #3f3f3f"/>
     <use xlink:href="#mcb9ea56ac0" x="254.5225" y="53.941267" style="fill-opacity: 0; stroke: #3f3f3f"/>
     <use xlink:href="#mcb9ea56ac0" x="254.5225" y="70.132346" style="fill-opacity: 0; stroke: #3f3f3f"/>
     <use xlink:href="#mcb9ea56ac0" x="254.5225" y="60.115122" style="fill-opacity: 0; stroke: #3f3f3f"/>
     <use xlink:href="#mcb9ea56ac0" x="254.5225" y="52.772926" style="fill-opacity: 0; stroke: #3f3f3f"/>
     <use xlink:href="#mcb9ea56ac0" x="254.5225" y="71.285202" style="fill-opacity: 0; stroke: #3f3f3f"/>
     <use xlink:href="#mcb9ea56ac0" x="254.5225" y="70.338296" style="fill-opacity: 0; stroke: #3f3f3f"/>
     <use xlink:href="#mcb9ea56ac0" x="254.5225" y="32.865455" style="fill-opacity: 0; stroke: #3f3f3f"/>
     <use xlink:href="#mcb9ea56ac0" x="254.5225" y="66.854953" style="fill-opacity: 0; stroke: #3f3f3f"/>
     <use xlink:href="#mcb9ea56ac0" x="254.5225" y="45.018055" style="fill-opacity: 0; stroke: #3f3f3f"/>
     <use xlink:href="#mcb9ea56ac0" x="254.5225" y="71.504314" style="fill-opacity: 0; stroke: #3f3f3f"/>
     <use xlink:href="#mcb9ea56ac0" x="254.5225" y="65.256905" style="fill-opacity: 0; stroke: #3f3f3f"/>
    </g>
   </g>
   <g id="line2d_25">
    <path d="M 216.4085 128.18432 
L 292.6365 128.18432 
" clip-path="url(#pd37882a455)" style="fill: none; stroke: #3f3f3f"/>
   </g>
   <g id="patch_10">
    <path d="M 206.88 173.68 
L 206.88 26.16 
" style="fill: none; stroke: #000000; stroke-width: 0.8; stroke-linejoin: miter; stroke-linecap: square"/>
   </g>
   <g id="patch_11">
    <path d="M 302.165 173.68 
L 302.165 26.16 
" style="fill: none; stroke: #000000; stroke-width: 0.8; stroke-linejoin: miter; stroke-linecap: square"/>
   </g>
   <g id="patch_12">
    <path d="M 206.88 173.68 
L 302.165 173.68 
" style="fill: none; stroke: #000000; stroke-width: 0.8; stroke-linejoin: miter; stroke-linecap: square"/>
   </g>
   <g id="patch_13">
    <path d="M 206.88 26.16 
L 302.165 26.16 
" style="fill: none; stroke: #000000; stroke-width: 0.8; stroke-linejoin: miter; stroke-linecap: square"/>
   </g>
   <g id="text_19">
    <!-- Run time -->
    <g transform="translate(227.55625 20.16) scale(0.12 -0.12)">
     <use xlink:href="#DejaVuSans-52"/>
     <use xlink:href="#DejaVuSans-75" transform="translate(64.982422 0)"/>
     <use xlink:href="#DejaVuSans-6e" transform="translate(128.361328 0)"/>
     <use xlink:href="#DejaVuSans-20" transform="translate(191.740234 0)"/>
     <use xlink:href="#DejaVuSans-74" transform="translate(223.527344 0)"/>
     <use xlink:href="#DejaVuSans-69" transform="translate(262.736328 0)"/>
     <use xlink:href="#DejaVuSans-6d" transform="translate(290.519531 0)"/>
     <use xlink:href="#DejaVuSans-65" transform="translate(387.931641 0)"/>
    </g>
   </g>
  </g>
  <g id="axes_3">
   <g id="patch_14">
    <path d="M 362.755 173.68 
L 458.04 173.68 
L 458.04 26.16 
L 362.755 26.16 
z
" style="fill: #ffffff"/>
   </g>
   <g id="matplotlib.axis_5">
    <g id="xtick_3">
     <g id="line2d_26">
      <g>
       <use xlink:href="#mc696e84f9d" x="410.3975" y="173.68" style="stroke: #000000; stroke-width: 0.8"/>
      </g>
     </g>
     <g id="text_20">
      <!-- LUN -->
      <g transform="translate(400.461563 188.278437) scale(0.1 -0.1)">
       <use xlink:href="#DejaVuSans-4c"/>
       <use xlink:href="#DejaVuSans-55" transform="translate(50.712891 0)"/>
       <use xlink:href="#DejaVuSans-4e" transform="translate(123.90625 0)"/>
      </g>
     </g>
    </g>
    <g id="text_21">
     <!-- dataset -->
     <g transform="translate(391.493594 201.956562) scale(0.1 -0.1)">
      <use xlink:href="#DejaVuSans-64"/>
      <use xlink:href="#DejaVuSans-61" transform="translate(63.476562 0)"/>
      <use xlink:href="#DejaVuSans-74" transform="translate(124.755859 0)"/>
      <use xlink:href="#DejaVuSans-61" transform="translate(163.964844 0)"/>
      <use xlink:href="#DejaVuSans-73" transform="translate(225.244141 0)"/>
      <use xlink:href="#DejaVuSans-65" transform="translate(277.34375 0)"/>
      <use xlink:href="#DejaVuSans-74" transform="translate(338.867188 0)"/>
     </g>
    </g>
   </g>
   <g id="matplotlib.axis_6">
    <g id="ytick_12">
     <g id="line2d_27">
      <g>
       <use xlink:href="#m70d0cc50c2" x="362.755" y="170.14572" style="stroke: #000000; stroke-width: 0.8"/>
      </g>
     </g>
     <g id="text_22">
      <!-- 0 -->
      <g transform="translate(349.3925 173.944938) scale(0.1 -0.1)">
       <use xlink:href="#DejaVuSans-30"/>
      </g>
     </g>
    </g>
    <g id="ytick_13">
     <g id="line2d_28">
      <g>
       <use xlink:href="#m70d0cc50c2" x="362.755" y="142.689667" style="stroke: #000000; stroke-width: 0.8"/>
      </g>
     </g>
     <g id="text_23">
      <!-- 20 -->
      <g transform="translate(343.03 146.488885) scale(0.1 -0.1)">
       <use xlink:href="#DejaVuSans-32"/>
       <use xlink:href="#DejaVuSans-30" transform="translate(63.623047 0)"/>
      </g>
     </g>
    </g>
    <g id="ytick_14">
     <g id="line2d_29">
      <g>
       <use xlink:href="#m70d0cc50c2" x="362.755" y="115.233614" style="stroke: #000000; stroke-width: 0.8"/>
      </g>
     </g>
     <g id="text_24">
      <!-- 40 -->
      <g transform="translate(343.03 119.032832) scale(0.1 -0.1)">
       <use xlink:href="#DejaVuSans-34"/>
       <use xlink:href="#DejaVuSans-30" transform="translate(63.623047 0)"/>
      </g>
     </g>
    </g>
    <g id="ytick_15">
     <g id="line2d_30">
      <g>
       <use xlink:href="#m70d0cc50c2" x="362.755" y="87.777561" style="stroke: #000000; stroke-width: 0.8"/>
      </g>
     </g>
     <g id="text_25">
      <!-- 60 -->
      <g transform="translate(343.03 91.576779) scale(0.1 -0.1)">
       <defs>
        <path id="DejaVuSans-36" d="M 2113 2584 
Q 1688 2584 1439 2293 
Q 1191 2003 1191 1497 
Q 1191 994 1439 701 
Q 1688 409 2113 409 
Q 2538 409 2786 701 
Q 3034 994 3034 1497 
Q 3034 2003 2786 2293 
Q 2538 2584 2113 2584 
z
M 3366 4563 
L 3366 3988 
Q 3128 4100 2886 4159 
Q 2644 4219 2406 4219 
Q 1781 4219 1451 3797 
Q 1122 3375 1075 2522 
Q 1259 2794 1537 2939 
Q 1816 3084 2150 3084 
Q 2853 3084 3261 2657 
Q 3669 2231 3669 1497 
Q 3669 778 3244 343 
Q 2819 -91 2113 -91 
Q 1303 -91 875 529 
Q 447 1150 447 2328 
Q 447 3434 972 4092 
Q 1497 4750 2381 4750 
Q 2619 4750 2861 4703 
Q 3103 4656 3366 4563 
z
" transform="scale(0.015625)"/>
       </defs>
       <use xlink:href="#DejaVuSans-36"/>
       <use xlink:href="#DejaVuSans-30" transform="translate(63.623047 0)"/>
      </g>
     </g>
    </g>
    <g id="ytick_16">
     <g id="line2d_31">
      <g>
       <use xlink:href="#m70d0cc50c2" x="362.755" y="60.321508" style="stroke: #000000; stroke-width: 0.8"/>
      </g>
     </g>
     <g id="text_26">
      <!-- 80 -->
      <g transform="translate(343.03 64.120726) scale(0.1 -0.1)">
       <defs>
        <path id="DejaVuSans-38" d="M 2034 2216 
Q 1584 2216 1326 1975 
Q 1069 1734 1069 1313 
Q 1069 891 1326 650 
Q 1584 409 2034 409 
Q 2484 409 2743 651 
Q 3003 894 3003 1313 
Q 3003 1734 2745 1975 
Q 2488 2216 2034 2216 
z
M 1403 2484 
Q 997 2584 770 2862 
Q 544 3141 544 3541 
Q 544 4100 942 4425 
Q 1341 4750 2034 4750 
Q 2731 4750 3128 4425 
Q 3525 4100 3525 3541 
Q 3525 3141 3298 2862 
Q 3072 2584 2669 2484 
Q 3125 2378 3379 2068 
Q 3634 1759 3634 1313 
Q 3634 634 3220 271 
Q 2806 -91 2034 -91 
Q 1263 -91 848 271 
Q 434 634 434 1313 
Q 434 1759 690 2068 
Q 947 2378 1403 2484 
z
M 1172 3481 
Q 1172 3119 1398 2916 
Q 1625 2713 2034 2713 
Q 2441 2713 2670 2916 
Q 2900 3119 2900 3481 
Q 2900 3844 2670 4047 
Q 2441 4250 2034 4250 
Q 1625 4250 1398 4047 
Q 1172 3844 1172 3481 
z
" transform="scale(0.015625)"/>
       </defs>
       <use xlink:href="#DejaVuSans-38"/>
       <use xlink:href="#DejaVuSans-30" transform="translate(63.623047 0)"/>
      </g>
     </g>
    </g>
    <g id="ytick_17">
     <g id="line2d_32">
      <g>
       <use xlink:href="#m70d0cc50c2" x="362.755" y="32.865455" style="stroke: #000000; stroke-width: 0.8"/>
      </g>
     </g>
     <g id="text_27">
      <!-- 100 -->
      <g transform="translate(336.6675 36.664673) scale(0.1 -0.1)">
       <use xlink:href="#DejaVuSans-31"/>
       <use xlink:href="#DejaVuSans-30" transform="translate(63.623047 0)"/>
       <use xlink:href="#DejaVuSans-30" transform="translate(127.246094 0)"/>
      </g>
     </g>
    </g>
    <g id="text_28">
     <!-- Percent -->
     <g transform="translate(330.587813 118.727812) rotate(-90) scale(0.1 -0.1)">
      <defs>
       <path id="DejaVuSans-50" d="M 1259 4147 
L 1259 2394 
L 2053 2394 
Q 2494 2394 2734 2622 
Q 2975 2850 2975 3272 
Q 2975 3691 2734 3919 
Q 2494 4147 2053 4147 
L 1259 4147 
z
M 628 4666 
L 2053 4666 
Q 2838 4666 3239 4311 
Q 3641 3956 3641 3272 
Q 3641 2581 3239 2228 
Q 2838 1875 2053 1875 
L 1259 1875 
L 1259 0 
L 628 0 
L 628 4666 
z
" transform="scale(0.015625)"/>
       <path id="DejaVuSans-72" d="M 2631 2963 
Q 2534 3019 2420 3045 
Q 2306 3072 2169 3072 
Q 1681 3072 1420 2755 
Q 1159 2438 1159 1844 
L 1159 0 
L 581 0 
L 581 3500 
L 1159 3500 
L 1159 2956 
Q 1341 3275 1631 3429 
Q 1922 3584 2338 3584 
Q 2397 3584 2469 3576 
Q 2541 3569 2628 3553 
L 2631 2963 
z
" transform="scale(0.015625)"/>
      </defs>
      <use xlink:href="#DejaVuSans-50"/>
      <use xlink:href="#DejaVuSans-65" transform="translate(56.677734 0)"/>
      <use xlink:href="#DejaVuSans-72" transform="translate(118.201172 0)"/>
      <use xlink:href="#DejaVuSans-63" transform="translate(157.064453 0)"/>
      <use xlink:href="#DejaVuSans-65" transform="translate(212.044922 0)"/>
      <use xlink:href="#DejaVuSans-6e" transform="translate(273.568359 0)"/>
      <use xlink:href="#DejaVuSans-74" transform="translate(336.947266 0)"/>
     </g>
    </g>
   </g>
   <g id="patch_15">
    <path d="M 372.2835 153.586288 
L 448.5115 153.586288 
L 448.5115 128.735128 
L 372.2835 128.735128 
L 372.2835 153.586288 
z
" clip-path="url(#pc3a6c24b8f)" style="fill: #3274a1; stroke: #3f3f3f; stroke-linejoin: miter"/>
   </g>
   <g id="line2d_33">
    <path d="M 410.3975 153.586288 
L 410.3975 166.974545 
" clip-path="url(#pc3a6c24b8f)" style="fill: none; stroke: #3f3f3f"/>
   </g>
   <g id="line2d_34">
    <path d="M 410.3975 128.735128 
L 410.3975 91.786144 
" clip-path="url(#pc3a6c24b8f)" style="fill: none; stroke: #3f3f3f"/>
   </g>
   <g id="line2d_35">
    <path d="M 391.3405 166.974545 
L 429.4545 166.974545 
" clip-path="url(#pc3a6c24b8f)" style="fill: none; stroke: #3f3f3f; stroke-linecap: square"/>
   </g>
   <g id="line2d_36">
    <path d="M 391.3405 91.786144 
L 429.4545 91.786144 
" clip-path="url(#pc3a6c24b8f)" style="fill: none; stroke: #3f3f3f; stroke-linecap: square"/>
   </g>
   <g id="line2d_37">
    <g clip-path="url(#pc3a6c24b8f)">
     <use xlink:href="#mcb9ea56ac0" x="410.3975" y="32.865455" style="fill-opacity: 0; stroke: #3f3f3f"/>
     <use xlink:href="#mcb9ea56ac0" x="410.3975" y="32.865455" style="fill-opacity: 0; stroke: #3f3f3f"/>
     <use xlink:href="#mcb9ea56ac0" x="410.3975" y="61.666854" style="fill-opacity: 0; stroke: #3f3f3f"/>
     <use xlink:href="#mcb9ea56ac0" x="410.3975" y="32.865455" style="fill-opacity: 0; stroke: #3f3f3f"/>
     <use xlink:href="#mcb9ea56ac0" x="410.3975" y="89.891677" style="fill-opacity: 0; stroke: #3f3f3f"/>
     <use xlink:href="#mcb9ea56ac0" x="410.3975" y="32.865455" style="fill-opacity: 0; stroke: #3f3f3f"/>
     <use xlink:href="#mcb9ea56ac0" x="410.3975" y="89.644572" style="fill-opacity: 0; stroke: #3f3f3f"/>
     <use xlink:href="#mcb9ea56ac0" x="410.3975" y="74.735935" style="fill-opacity: 0; stroke: #3f3f3f"/>
     <use xlink:href="#mcb9ea56ac0" x="410.3975" y="90.63299" style="fill-opacity: 0; stroke: #3f3f3f"/>
     <use xlink:href="#mcb9ea56ac0" x="410.3975" y="32.865455" style="fill-opacity: 0; stroke: #3f3f3f"/>
     <use xlink:href="#mcb9ea56ac0" x="410.3975" y="32.865455" style="fill-opacity: 0; stroke: #3f3f3f"/>
     <use xlink:href="#mcb9ea56ac0" x="410.3975" y="32.865455" style="fill-opacity: 0; stroke: #3f3f3f"/>
     <use xlink:href="#mcb9ea56ac0" x="410.3975" y="32.865455" style="fill-opacity: 0; stroke: #3f3f3f"/>
     <use xlink:href="#mcb9ea56ac0" x="410.3975" y="32.865455" style="fill-opacity: 0; stroke: #3f3f3f"/>
     <use xlink:href="#mcb9ea56ac0" x="410.3975" y="63.835882" style="fill-opacity: 0; stroke: #3f3f3f"/>
     <use xlink:href="#mcb9ea56ac0" x="410.3975" y="85.457524" style="fill-opacity: 0; stroke: #3f3f3f"/>
     <use xlink:href="#mcb9ea56ac0" x="410.3975" y="88.024665" style="fill-opacity: 0; stroke: #3f3f3f"/>
     <use xlink:href="#mcb9ea56ac0" x="410.3975" y="32.865455" style="fill-opacity: 0; stroke: #3f3f3f"/>
     <use xlink:href="#mcb9ea56ac0" x="410.3975" y="32.865455" style="fill-opacity: 0; stroke: #3f3f3f"/>
     <use xlink:href="#mcb9ea56ac0" x="410.3975" y="32.865455" style="fill-opacity: 0; stroke: #3f3f3f"/>
     <use xlink:href="#mcb9ea56ac0" x="410.3975" y="32.865455" style="fill-opacity: 0; stroke: #3f3f3f"/>
     <use xlink:href="#mcb9ea56ac0" x="410.3975" y="55.049945" style="fill-opacity: 0; stroke: #3f3f3f"/>
     <use xlink:href="#mcb9ea56ac0" x="410.3975" y="80.982187" style="fill-opacity: 0; stroke: #3f3f3f"/>
     <use xlink:href="#mcb9ea56ac0" x="410.3975" y="32.865455" style="fill-opacity: 0; stroke: #3f3f3f"/>
     <use xlink:href="#mcb9ea56ac0" x="410.3975" y="32.865455" style="fill-opacity: 0; stroke: #3f3f3f"/>
     <use xlink:href="#mcb9ea56ac0" x="410.3975" y="85.306516" style="fill-opacity: 0; stroke: #3f3f3f"/>
     <use xlink:href="#mcb9ea56ac0" x="410.3975" y="32.865455" style="fill-opacity: 0; stroke: #3f3f3f"/>
     <use xlink:href="#mcb9ea56ac0" x="410.3975" y="84.867219" style="fill-opacity: 0; stroke: #3f3f3f"/>
     <use xlink:href="#mcb9ea56ac0" x="410.3975" y="76.383299" style="fill-opacity: 0; stroke: #3f3f3f"/>
     <use xlink:href="#mcb9ea56ac0" x="410.3975" y="32.865455" style="fill-opacity: 0; stroke: #3f3f3f"/>
     <use xlink:href="#mcb9ea56ac0" x="410.3975" y="88.930715" style="fill-opacity: 0; stroke: #3f3f3f"/>
     <use xlink:href="#mcb9ea56ac0" x="410.3975" y="32.865455" style="fill-opacity: 0; stroke: #3f3f3f"/>
     <use xlink:href="#mcb9ea56ac0" x="410.3975" y="32.865455" style="fill-opacity: 0; stroke: #3f3f3f"/>
     <use xlink:href="#mcb9ea56ac0" x="410.3975" y="83.013935" style="fill-opacity: 0; stroke: #3f3f3f"/>
     <use xlink:href="#mcb9ea56ac0" x="410.3975" y="32.865455" style="fill-opacity: 0; stroke: #3f3f3f"/>
     <use xlink:href="#mcb9ea56ac0" x="410.3975" y="88.75225" style="fill-opacity: 0; stroke: #3f3f3f"/>
     <use xlink:href="#mcb9ea56ac0" x="410.3975" y="59.40173" style="fill-opacity: 0; stroke: #3f3f3f"/>
     <use xlink:href="#mcb9ea56ac0" x="410.3975" y="32.865455" style="fill-opacity: 0; stroke: #3f3f3f"/>
     <use xlink:href="#mcb9ea56ac0" x="410.3975" y="80.240874" style="fill-opacity: 0; stroke: #3f3f3f"/>
     <use xlink:href="#mcb9ea56ac0" x="410.3975" y="32.865455" style="fill-opacity: 0; stroke: #3f3f3f"/>
     <use xlink:href="#mcb9ea56ac0" x="410.3975" y="32.865455" style="fill-opacity: 0; stroke: #3f3f3f"/>
     <use xlink:href="#mcb9ea56ac0" x="410.3975" y="89.685756" style="fill-opacity: 0; stroke: #3f3f3f"/>
     <use xlink:href="#mcb9ea56ac0" x="410.3975" y="88.587514" style="fill-opacity: 0; stroke: #3f3f3f"/>
     <use xlink:href="#mcb9ea56ac0" x="410.3975" y="32.865455" style="fill-opacity: 0; stroke: #3f3f3f"/>
     <use xlink:href="#mcb9ea56ac0" x="410.3975" y="55.653979" style="fill-opacity: 0; stroke: #3f3f3f"/>
     <use xlink:href="#mcb9ea56ac0" x="410.3975" y="32.865455" style="fill-opacity: 0; stroke: #3f3f3f"/>
     <use xlink:href="#mcb9ea56ac0" x="410.3975" y="32.865455" style="fill-opacity: 0; stroke: #3f3f3f"/>
    </g>
   </g>
   <g id="line2d_38">
    <path d="M 372.2835 145.119527 
L 448.5115 145.119527 
" clip-path="url(#pc3a6c24b8f)" style="fill: none; stroke: #3f3f3f"/>
   </g>
   <g id="patch_16">
    <path d="M 362.755 173.68 
L 362.755 26.16 
" style="fill: none; stroke: #000000; stroke-width: 0.8; stroke-linejoin: miter; stroke-linecap: square"/>
   </g>
   <g id="patch_17">
    <path d="M 458.04 173.68 
L 458.04 26.16 
" style="fill: none; stroke: #000000; stroke-width: 0.8; stroke-linejoin: miter; stroke-linecap: square"/>
   </g>
   <g id="patch_18">
    <path d="M 362.755 173.68 
L 458.04 173.68 
" style="fill: none; stroke: #000000; stroke-width: 0.8; stroke-linejoin: miter; stroke-linecap: square"/>
   </g>
   <g id="patch_19">
    <path d="M 362.755 26.16 
L 458.04 26.16 
" style="fill: none; stroke: #000000; stroke-width: 0.8; stroke-linejoin: miter; stroke-linecap: square"/>
   </g>
   <g id="text_29">
    <!-- Gene Frequency Coverage -->
    <g transform="translate(331.004375 20.16) scale(0.12 -0.12)">
     <defs>
      <path id="DejaVuSans-47" d="M 3809 666 
L 3809 1919 
L 2778 1919 
L 2778 2438 
L 4434 2438 
L 4434 434 
Q 4069 175 3628 42 
Q 3188 -91 2688 -91 
Q 1594 -91 976 548 
Q 359 1188 359 2328 
Q 359 3472 976 4111 
Q 1594 4750 2688 4750 
Q 3144 4750 3555 4637 
Q 3966 4525 4313 4306 
L 4313 3634 
Q 3963 3931 3569 4081 
Q 3175 4231 2741 4231 
Q 1884 4231 1454 3753 
Q 1025 3275 1025 2328 
Q 1025 1384 1454 906 
Q 1884 428 2741 428 
Q 3075 428 3337 486 
Q 3600 544 3809 666 
z
" transform="scale(0.015625)"/>
      <path id="DejaVuSans-46" d="M 628 4666 
L 3309 4666 
L 3309 4134 
L 1259 4134 
L 1259 2759 
L 3109 2759 
L 3109 2228 
L 1259 2228 
L 1259 0 
L 628 0 
L 628 4666 
z
" transform="scale(0.015625)"/>
      <path id="DejaVuSans-71" d="M 947 1747 
Q 947 1113 1208 752 
Q 1469 391 1925 391 
Q 2381 391 2643 752 
Q 2906 1113 2906 1747 
Q 2906 2381 2643 2742 
Q 2381 3103 1925 3103 
Q 1469 3103 1208 2742 
Q 947 2381 947 1747 
z
M 2906 525 
Q 2725 213 2448 61 
Q 2172 -91 1784 -91 
Q 1150 -91 751 415 
Q 353 922 353 1747 
Q 353 2572 751 3078 
Q 1150 3584 1784 3584 
Q 2172 3584 2448 3432 
Q 2725 3281 2906 2969 
L 2906 3500 
L 3481 3500 
L 3481 -1331 
L 2906 -1331 
L 2906 525 
z
" transform="scale(0.015625)"/>
      <path id="DejaVuSans-79" d="M 2059 -325 
Q 1816 -950 1584 -1140 
Q 1353 -1331 966 -1331 
L 506 -1331 
L 506 -850 
L 844 -850 
Q 1081 -850 1212 -737 
Q 1344 -625 1503 -206 
L 1606 56 
L 191 3500 
L 800 3500 
L 1894 763 
L 2988 3500 
L 3597 3500 
L 2059 -325 
z
" transform="scale(0.015625)"/>
      <path id="DejaVuSans-76" d="M 191 3500 
L 800 3500 
L 1894 563 
L 2988 3500 
L 3597 3500 
L 2284 0 
L 1503 0 
L 191 3500 
z
" transform="scale(0.015625)"/>
      <path id="DejaVuSans-67" d="M 2906 1791 
Q 2906 2416 2648 2759 
Q 2391 3103 1925 3103 
Q 1463 3103 1205 2759 
Q 947 2416 947 1791 
Q 947 1169 1205 825 
Q 1463 481 1925 481 
Q 2391 481 2648 825 
Q 2906 1169 2906 1791 
z
M 3481 434 
Q 3481 -459 3084 -895 
Q 2688 -1331 1869 -1331 
Q 1566 -1331 1297 -1286 
Q 1028 -1241 775 -1147 
L 775 -588 
Q 1028 -725 1275 -790 
Q 1522 -856 1778 -856 
Q 2344 -856 2625 -561 
Q 2906 -266 2906 331 
L 2906 616 
Q 2728 306 2450 153 
Q 2172 0 1784 0 
Q 1141 0 747 490 
Q 353 981 353 1791 
Q 353 2603 747 3093 
Q 1141 3584 1784 3584 
Q 2172 3584 2450 3431 
Q 2728 3278 2906 2969 
L 2906 3500 
L 3481 3500 
L 3481 434 
z
" transform="scale(0.015625)"/>
     </defs>
     <use xlink:href="#DejaVuSans-47"/>
     <use xlink:href="#DejaVuSans-65" transform="translate(77.490234 0)"/>
     <use xlink:href="#DejaVuSans-6e" transform="translate(139.013672 0)"/>
     <use xlink:href="#DejaVuSans-65" transform="translate(202.392578 0)"/>
     <use xlink:href="#DejaVuSans-20" transform="translate(263.916016 0)"/>
     <use xlink:href="#DejaVuSans-46" transform="translate(295.703125 0)"/>
     <use xlink:href="#DejaVuSans-72" transform="translate(345.972656 0)"/>
     <use xlink:href="#DejaVuSans-65" transform="translate(384.835938 0)"/>
     <use xlink:href="#DejaVuSans-71" transform="translate(446.359375 0)"/>
     <use xlink:href="#DejaVuSans-75" transform="translate(509.835938 0)"/>
     <use xlink:href="#DejaVuSans-65" transform="translate(573.214844 0)"/>
     <use xlink:href="#DejaVuSans-6e" transform="translate(634.738281 0)"/>
     <use xlink:href="#DejaVuSans-63" transform="translate(698.117188 0)"/>
     <use xlink:href="#DejaVuSans-79" transform="translate(753.097656 0)"/>
     <use xlink:href="#DejaVuSans-20" transform="translate(812.277344 0)"/>
     <use xlink:href="#DejaVuSans-43" transform="translate(844.064453 0)"/>
     <use xlink:href="#DejaVuSans-6f" transform="translate(913.888672 0)"/>
     <use xlink:href="#DejaVuSans-76" transform="translate(975.070312 0)"/>
     <use xlink:href="#DejaVuSans-65" transform="translate(1034.25 0)"/>
     <use xlink:href="#DejaVuSans-72" transform="translate(1095.773438 0)"/>
     <use xlink:href="#DejaVuSans-61" transform="translate(1136.886719 0)"/>
     <use xlink:href="#DejaVuSans-67" transform="translate(1198.166016 0)"/>
     <use xlink:href="#DejaVuSans-65" transform="translate(1261.642578 0)"/>
    </g>
   </g>
  </g>
  <g id="axes_4">
   <g id="patch_20">
    <path d="M 518.63 173.68 
L 709.2 173.68 
L 709.2 26.16 
L 518.63 26.16 
z
" style="fill: #ffffff"/>
   </g>
   <g id="FillBetweenPolyCollection_1">
    <defs>
     <path id="md819c7cef0" d="M 527.292273 -42.328396 
L 527.292273 -42.32 
L 528.162853 -42.32 
L 529.033433 -42.32 
L 529.904013 -42.32 
L 530.774593 -42.32 
L 531.645174 -42.32 
L 532.515754 -42.32 
L 533.386334 -42.32 
L 534.256914 -42.32 
L 535.127494 -42.32 
L 535.998074 -42.32 
L 536.868655 -42.32 
L 537.739235 -42.32 
L 538.609815 -42.32 
L 539.480395 -42.32 
L 540.350975 -42.32 
L 541.221556 -42.32 
L 542.092136 -42.32 
L 542.962716 -42.32 
L 543.833296 -42.32 
L 544.703876 -42.32 
L 545.574456 -42.32 
L 546.445037 -42.32 
L 547.315617 -42.32 
L 548.186197 -42.32 
L 549.056777 -42.32 
L 549.927357 -42.32 
L 550.797937 -42.32 
L 551.668518 -42.32 
L 552.539098 -42.32 
L 553.409678 -42.32 
L 554.280258 -42.32 
L 555.150838 -42.32 
L 556.021418 -42.32 
L 556.891999 -42.32 
L 557.762579 -42.32 
L 558.633159 -42.32 
L 559.503739 -42.32 
L 560.374319 -42.32 
L 561.244899 -42.32 
L 562.11548 -42.32 
L 562.98606 -42.32 
L 563.85664 -42.32 
L 564.72722 -42.32 
L 565.5978 -42.32 
L 566.468381 -42.32 
L 567.338961 -42.32 
L 568.209541 -42.32 
L 569.080121 -42.32 
L 569.950701 -42.32 
L 570.821281 -42.32 
L 571.691862 -42.32 
L 572.562442 -42.32 
L 573.433022 -42.32 
L 574.303602 -42.32 
L 575.174182 -42.32 
L 576.044762 -42.32 
L 576.915343 -42.32 
L 577.785923 -42.32 
L 578.656503 -42.32 
L 579.527083 -42.32 
L 580.397663 -42.32 
L 581.268243 -42.32 
L 582.138824 -42.32 
L 583.009404 -42.32 
L 583.879984 -42.32 
L 584.750564 -42.32 
L 585.621144 -42.32 
L 586.491725 -42.32 
L 587.362305 -42.32 
L 588.232885 -42.32 
L 589.103465 -42.32 
L 589.974045 -42.32 
L 590.844625 -42.32 
L 591.715206 -42.32 
L 592.585786 -42.32 
L 593.456366 -42.32 
L 594.326946 -42.32 
L 595.197526 -42.32 
L 596.068106 -42.32 
L 596.938687 -42.32 
L 597.809267 -42.32 
L 598.679847 -42.32 
L 599.550427 -42.32 
L 600.421007 -42.32 
L 601.291587 -42.32 
L 602.162168 -42.32 
L 603.032748 -42.32 
L 603.903328 -42.32 
L 604.773908 -42.32 
L 605.644488 -42.32 
L 606.515069 -42.32 
L 607.385649 -42.32 
L 608.256229 -42.32 
L 609.126809 -42.32 
L 609.997389 -42.32 
L 610.867969 -42.32 
L 611.73855 -42.32 
L 612.60913 -42.32 
L 613.47971 -42.32 
L 614.35029 -42.32 
L 615.22087 -42.32 
L 616.09145 -42.32 
L 616.962031 -42.32 
L 617.832611 -42.32 
L 618.703191 -42.32 
L 619.573771 -42.32 
L 620.444351 -42.32 
L 621.314931 -42.32 
L 622.185512 -42.32 
L 623.056092 -42.32 
L 623.926672 -42.32 
L 624.797252 -42.32 
L 625.667832 -42.32 
L 626.538413 -42.32 
L 627.408993 -42.32 
L 628.279573 -42.32 
L 629.150153 -42.32 
L 630.020733 -42.32 
L 630.891313 -42.32 
L 631.761894 -42.32 
L 632.632474 -42.32 
L 633.503054 -42.32 
L 634.373634 -42.32 
L 635.244214 -42.32 
L 636.114794 -42.32 
L 636.985375 -42.32 
L 637.855955 -42.32 
L 638.726535 -42.32 
L 639.597115 -42.32 
L 640.467695 -42.32 
L 641.338275 -42.32 
L 642.208856 -42.32 
L 643.079436 -42.32 
L 643.950016 -42.32 
L 644.820596 -42.32 
L 645.691176 -42.32 
L 646.561757 -42.32 
L 647.432337 -42.32 
L 648.302917 -42.32 
L 649.173497 -42.32 
L 650.044077 -42.32 
L 650.914657 -42.32 
L 651.785238 -42.32 
L 652.655818 -42.32 
L 653.526398 -42.32 
L 654.396978 -42.32 
L 655.267558 -42.32 
L 656.138138 -42.32 
L 657.008719 -42.32 
L 657.879299 -42.32 
L 658.749879 -42.32 
L 659.620459 -42.32 
L 660.491039 -42.32 
L 661.361619 -42.32 
L 662.2322 -42.32 
L 663.10278 -42.32 
L 663.97336 -42.32 
L 664.84394 -42.32 
L 665.71452 -42.32 
L 666.585101 -42.32 
L 667.455681 -42.32 
L 668.326261 -42.32 
L 669.196841 -42.32 
L 670.067421 -42.32 
L 670.938001 -42.32 
L 671.808582 -42.32 
L 672.679162 -42.32 
L 673.549742 -42.32 
L 674.420322 -42.32 
L 675.290902 -42.32 
L 676.161482 -42.32 
L 677.032063 -42.32 
L 677.902643 -42.32 
L 678.773223 -42.32 
L 679.643803 -42.32 
L 680.514383 -42.32 
L 681.384963 -42.32 
L 682.255544 -42.32 
L 683.126124 -42.32 
L 683.996704 -42.32 
L 684.867284 -42.32 
L 685.737864 -42.32 
L 686.608444 -42.32 
L 687.479025 -42.32 
L 688.349605 -42.32 
L 689.220185 -42.32 
L 690.090765 -42.32 
L 690.961345 -42.32 
L 691.831926 -42.32 
L 692.702506 -42.32 
L 693.573086 -42.32 
L 694.443666 -42.32 
L 695.314246 -42.32 
L 696.184826 -42.32 
L 697.055407 -42.32 
L 697.925987 -42.32 
L 698.796567 -42.32 
L 699.667147 -42.32 
L 700.537727 -42.32 
L 700.537727 -42.328449 
L 700.537727 -42.328449 
L 699.667147 -42.33258 
L 698.796567 -42.338401 
L 697.925987 -42.346441 
L 697.055407 -42.35733 
L 696.184826 -42.371786 
L 695.314246 -42.390601 
L 694.443666 -42.414611 
L 693.573086 -42.444649 
L 692.702506 -42.481494 
L 691.831926 -42.525817 
L 690.961345 -42.578114 
L 690.090765 -42.638658 
L 689.220185 -42.707462 
L 688.349605 -42.784261 
L 687.479025 -42.868523 
L 686.608444 -42.959487 
L 685.737864 -43.056224 
L 684.867284 -43.157712 
L 683.996704 -43.262913 
L 683.126124 -43.370848 
L 682.255544 -43.480644 
L 681.384963 -43.591549 
L 680.514383 -43.702925 
L 679.643803 -43.814202 
L 678.773223 -43.924829 
L 677.902643 -44.034217 
L 677.032063 -44.141712 
L 676.161482 -44.246598 
L 675.290902 -44.348153 
L 674.420322 -44.445755 
L 673.549742 -44.539022 
L 672.679162 -44.627985 
L 671.808582 -44.713245 
L 670.938001 -44.796103 
L 670.067421 -44.878632 
L 669.196841 -44.963665 
L 668.326261 -45.0547 
L 667.455681 -45.15572 
L 666.585101 -45.270941 
L 665.71452 -45.404528 
L 664.84394 -45.560299 
L 663.97336 -45.741469 
L 663.10278 -45.950461 
L 662.2322 -46.188822 
L 661.361619 -46.45725 
L 660.491039 -46.755757 
L 659.620459 -47.083936 
L 658.749879 -47.441306 
L 657.879299 -47.82771 
L 657.008719 -48.243688 
L 656.138138 -48.690792 
L 655.267558 -49.171779 
L 654.396978 -49.690652 
L 653.526398 -50.252515 
L 652.655818 -50.863263 
L 651.785238 -51.529119 
L 650.914657 -52.256055 
L 650.044077 -53.049178 
L 649.173497 -53.912116 
L 648.302917 -54.846489 
L 647.432337 -55.851488 
L 646.561757 -56.923611 
L 645.691176 -58.056566 
L 644.820596 -59.241329 
L 643.950016 -60.466354 
L 643.079436 -61.717917 
L 642.208856 -62.980564 
L 641.338275 -64.237675 
L 640.467695 -65.472116 
L 639.597115 -66.666987 
L 638.726535 -67.806461 
L 637.855955 -68.876686 
L 636.985375 -69.86674 
L 636.114794 -70.769556 
L 635.244214 -71.582778 
L 634.373634 -72.309429 
L 633.503054 -72.958308 
L 632.632474 -73.544017 
L 631.761894 -74.086546 
L 630.891313 -74.610367 
L 630.020733 -75.143044 
L 629.150153 -75.713422 
L 628.279573 -76.349502 
L 627.408993 -77.076172 
L 626.538413 -77.913002 
L 625.667832 -78.87232 
L 624.797252 -79.957783 
L 623.926672 -81.163625 
L 623.056092 -82.474699 
L 622.185512 -83.867357 
L 621.314931 -85.311131 
L 620.444351 -86.771068 
L 619.573771 -88.210551 
L 618.703191 -89.594325 
L 617.832611 -90.89148 
L 616.962031 -92.078114 
L 616.09145 -93.139438 
L 615.22087 -94.071154 
L 614.35029 -94.879986 
L 613.47971 -95.583335 
L 612.60913 -96.208096 
L 611.73855 -96.788757 
L 610.867969 -97.36495 
L 609.997389 -97.978679 
L 609.126809 -98.671471 
L 608.256229 -99.481703 
L 607.385649 -100.442336 
L 606.515069 -101.579251 
L 605.644488 -102.91032 
L 604.773908 -104.445262 
L 603.903328 -106.186263 
L 603.032748 -108.129252 
L 602.162168 -110.265661 
L 601.291587 -112.584457 
L 600.421007 -115.074191 
L 599.550427 -117.724834 
L 598.679847 -120.529174 
L 597.809267 -123.483602 
L 596.938687 -126.588154 
L 596.068106 -129.845755 
L 595.197526 -133.260666 
L 594.326946 -136.836212 
L 593.456366 -140.571943 
L 592.585786 -144.46046 
L 591.715206 -148.484193 
L 590.844625 -152.612484 
L 589.974045 -156.799349 
L 589.103465 -160.982273 
L 588.232885 -165.082344 
L 587.362305 -169.00592 
L 586.491725 -172.647867 
L 585.621144 -175.896241 
L 584.750564 -178.638087 
L 583.879984 -180.7659 
L 583.009404 -182.184143 
L 582.138824 -182.815238 
L 581.268243 -182.604418 
L 580.397663 -181.523016 
L 579.527083 -179.569895 
L 578.656503 -176.770958 
L 577.785923 -173.176872 
L 576.915343 -168.859354 
L 576.044762 -163.90644 
L 575.174182 -158.417282 
L 574.303602 -152.496951 
L 573.433022 -146.251676 
L 572.562442 -139.784847 
L 571.691862 -133.193919 
L 570.821281 -126.56829 
L 569.950701 -119.988046 
L 569.080121 -113.523437 
L 568.209541 -107.234878 
L 567.338961 -101.173286 
L 566.468381 -95.380583 
L 565.5978 -89.890259 
L 564.72722 -84.727907 
L 563.85664 -79.911743 
L 562.98606 -75.453096 
L 562.11548 -71.356917 
L 561.244899 -67.622336 
L 560.374319 -64.243286 
L 559.503739 -61.20919 
L 558.633159 -58.505699 
L 557.762579 -56.115449 
L 556.891999 -54.018795 
L 556.021418 -52.194485 
L 555.150838 -50.620255 
L 554.280258 -49.273333 
L 553.409678 -48.13085 
L 552.539098 -47.170184 
L 551.668518 -46.369253 
L 550.797937 -45.706781 
L 549.927357 -45.162552 
L 549.056777 -44.717661 
L 548.186197 -44.354756 
L 547.315617 -44.058248 
L 546.445037 -43.814488 
L 545.574456 -43.611868 
L 544.703876 -43.440848 
L 543.833296 -43.29389 
L 542.962716 -43.165306 
L 542.092136 -43.051038 
L 541.221556 -42.948374 
L 540.350975 -42.855651 
L 539.480395 -42.771952 
L 538.609815 -42.696826 
L 537.739235 -42.630062 
L 536.868655 -42.571504 
L 535.998074 -42.520934 
L 535.127494 -42.478009 
L 534.256914 -42.442236 
L 533.386334 -42.412986 
L 532.515754 -42.389535 
L 531.645174 -42.371103 
L 530.774593 -42.356902 
L 529.904013 -42.34618 
L 529.033433 -42.338245 
L 528.162853 -42.332489 
L 527.292273 -42.328396 
z
" style="stroke: #1f77b4"/>
    </defs>
    <g clip-path="url(#p5e21678973)">
     <use xlink:href="#md819c7cef0" x="0" y="216" style="fill: #1f77b4; fill-opacity: 0.25; stroke: #1f77b4"/>
    </g>
   </g>
   <g id="matplotlib.axis_7">
    <g id="xtick_4">
     <g id="line2d_39">
      <g>
       <use xlink:href="#mc696e84f9d" x="529.926428" y="173.68" style="stroke: #000000; stroke-width: 0.8"/>
      </g>
     </g>
     <g id="text_30">
      <!-- 0 -->
      <g transform="translate(526.745178 188.278437) scale(0.1 -0.1)">
       <use xlink:href="#DejaVuSans-30"/>
      </g>
     </g>
    </g>
    <g id="xtick_5">
     <g id="line2d_40">
      <g>
       <use xlink:href="#mc696e84f9d" x="578.266343" y="173.68" style="stroke: #000000; stroke-width: 0.8"/>
      </g>
     </g>
     <g id="text_31">
      <!-- 10 -->
      <g transform="translate(571.903843 188.278437) scale(0.1 -0.1)">
       <use xlink:href="#DejaVuSans-31"/>
       <use xlink:href="#DejaVuSans-30" transform="translate(63.623047 0)"/>
      </g>
     </g>
    </g>
    <g id="xtick_6">
     <g id="line2d_41">
      <g>
       <use xlink:href="#mc696e84f9d" x="626.606258" y="173.68" style="stroke: #000000; stroke-width: 0.8"/>
      </g>
     </g>
     <g id="text_32">
      <!-- 20 -->
      <g transform="translate(620.243758 188.278437) scale(0.1 -0.1)">
       <use xlink:href="#DejaVuSans-32"/>
       <use xlink:href="#DejaVuSans-30" transform="translate(63.623047 0)"/>
      </g>
     </g>
    </g>
    <g id="xtick_7">
     <g id="line2d_42">
      <g>
       <use xlink:href="#mc696e84f9d" x="674.946173" y="173.68" style="stroke: #000000; stroke-width: 0.8"/>
      </g>
     </g>
     <g id="text_33">
      <!-- 30 -->
      <g transform="translate(668.583673 188.278437) scale(0.1 -0.1)">
       <use xlink:href="#DejaVuSans-33"/>
       <use xlink:href="#DejaVuSans-30" transform="translate(63.623047 0)"/>
      </g>
     </g>
    </g>
    <g id="text_34">
     <!-- gf.count_skew -->
     <g transform="translate(578.663437 201.956562) scale(0.1 -0.1)">
      <defs>
       <path id="DejaVuSans-66" d="M 2375 4863 
L 2375 4384 
L 1825 4384 
Q 1516 4384 1395 4259 
Q 1275 4134 1275 3809 
L 1275 3500 
L 2222 3500 
L 2222 3053 
L 1275 3053 
L 1275 0 
L 697 0 
L 697 3053 
L 147 3053 
L 147 3500 
L 697 3500 
L 697 3744 
Q 697 4328 969 4595 
Q 1241 4863 1831 4863 
L 2375 4863 
z
" transform="scale(0.015625)"/>
       <path id="DejaVuSans-5f" d="M 3263 -1063 
L 3263 -1509 
L -63 -1509 
L -63 -1063 
L 3263 -1063 
z
" transform="scale(0.015625)"/>
       <path id="DejaVuSans-6b" d="M 581 4863 
L 1159 4863 
L 1159 1991 
L 2875 3500 
L 3609 3500 
L 1753 1863 
L 3688 0 
L 2938 0 
L 1159 1709 
L 1159 0 
L 581 0 
L 581 4863 
z
" transform="scale(0.015625)"/>
       <path id="DejaVuSans-77" d="M 269 3500 
L 844 3500 
L 1563 769 
L 2278 3500 
L 2956 3500 
L 3675 769 
L 4391 3500 
L 4966 3500 
L 4050 0 
L 3372 0 
L 2619 2869 
L 1863 0 
L 1184 0 
L 269 3500 
z
" transform="scale(0.015625)"/>
      </defs>
      <use xlink:href="#DejaVuSans-67"/>
      <use xlink:href="#DejaVuSans-66" transform="translate(63.476562 0)"/>
      <use xlink:href="#DejaVuSans-2e" transform="translate(91.431641 0)"/>
      <use xlink:href="#DejaVuSans-63" transform="translate(123.21875 0)"/>
      <use xlink:href="#DejaVuSans-6f" transform="translate(178.199219 0)"/>
      <use xlink:href="#DejaVuSans-75" transform="translate(239.380859 0)"/>
      <use xlink:href="#DejaVuSans-6e" transform="translate(302.759766 0)"/>
      <use xlink:href="#DejaVuSans-74" transform="translate(366.138672 0)"/>
      <use xlink:href="#DejaVuSans-5f" transform="translate(405.347656 0)"/>
      <use xlink:href="#DejaVuSans-73" transform="translate(455.347656 0)"/>
      <use xlink:href="#DejaVuSans-6b" transform="translate(507.447266 0)"/>
      <use xlink:href="#DejaVuSans-65" transform="translate(561.732422 0)"/>
      <use xlink:href="#DejaVuSans-77" transform="translate(623.255859 0)"/>
     </g>
    </g>
   </g>
   <g id="matplotlib.axis_8">
    <g id="ytick_18">
     <g id="line2d_43">
      <g>
       <use xlink:href="#m70d0cc50c2" x="518.63" y="173.68" style="stroke: #000000; stroke-width: 0.8"/>
      </g>
     </g>
     <g id="text_35">
      <!-- 0.00 -->
      <g transform="translate(489.364375 177.479219) scale(0.1 -0.1)">
       <use xlink:href="#DejaVuSans-30"/>
       <use xlink:href="#DejaVuSans-2e" transform="translate(63.623047 0)"/>
       <use xlink:href="#DejaVuSans-30" transform="translate(95.410156 0)"/>
       <use xlink:href="#DejaVuSans-30" transform="translate(159.033203 0)"/>
      </g>
     </g>
    </g>
    <g id="ytick_19">
     <g id="line2d_44">
      <g>
       <use xlink:href="#m70d0cc50c2" x="518.63" y="148.606337" style="stroke: #000000; stroke-width: 0.8"/>
      </g>
     </g>
     <g id="text_36">
      <!-- 0.02 -->
      <g transform="translate(489.364375 152.405555) scale(0.1 -0.1)">
       <use xlink:href="#DejaVuSans-30"/>
       <use xlink:href="#DejaVuSans-2e" transform="translate(63.623047 0)"/>
       <use xlink:href="#DejaVuSans-30" transform="translate(95.410156 0)"/>
       <use xlink:href="#DejaVuSans-32" transform="translate(159.033203 0)"/>
      </g>
     </g>
    </g>
    <g id="ytick_20">
     <g id="line2d_45">
      <g>
       <use xlink:href="#m70d0cc50c2" x="518.63" y="123.532673" style="stroke: #000000; stroke-width: 0.8"/>
      </g>
     </g>
     <g id="text_37">
      <!-- 0.04 -->
      <g transform="translate(489.364375 127.331892) scale(0.1 -0.1)">
       <use xlink:href="#DejaVuSans-30"/>
       <use xlink:href="#DejaVuSans-2e" transform="translate(63.623047 0)"/>
       <use xlink:href="#DejaVuSans-30" transform="translate(95.410156 0)"/>
       <use xlink:href="#DejaVuSans-34" transform="translate(159.033203 0)"/>
      </g>
     </g>
    </g>
    <g id="ytick_21">
     <g id="line2d_46">
      <g>
       <use xlink:href="#m70d0cc50c2" x="518.63" y="98.45901" style="stroke: #000000; stroke-width: 0.8"/>
      </g>
     </g>
     <g id="text_38">
      <!-- 0.06 -->
      <g transform="translate(489.364375 102.258228) scale(0.1 -0.1)">
       <use xlink:href="#DejaVuSans-30"/>
       <use xlink:href="#DejaVuSans-2e" transform="translate(63.623047 0)"/>
       <use xlink:href="#DejaVuSans-30" transform="translate(95.410156 0)"/>
       <use xlink:href="#DejaVuSans-36" transform="translate(159.033203 0)"/>
      </g>
     </g>
    </g>
    <g id="ytick_22">
     <g id="line2d_47">
      <g>
       <use xlink:href="#m70d0cc50c2" x="518.63" y="73.385346" style="stroke: #000000; stroke-width: 0.8"/>
      </g>
     </g>
     <g id="text_39">
      <!-- 0.08 -->
      <g transform="translate(489.364375 77.184565) scale(0.1 -0.1)">
       <use xlink:href="#DejaVuSans-30"/>
       <use xlink:href="#DejaVuSans-2e" transform="translate(63.623047 0)"/>
       <use xlink:href="#DejaVuSans-30" transform="translate(95.410156 0)"/>
       <use xlink:href="#DejaVuSans-38" transform="translate(159.033203 0)"/>
      </g>
     </g>
    </g>
    <g id="ytick_23">
     <g id="line2d_48">
      <g>
       <use xlink:href="#m70d0cc50c2" x="518.63" y="48.311683" style="stroke: #000000; stroke-width: 0.8"/>
      </g>
     </g>
     <g id="text_40">
      <!-- 0.10 -->
      <g transform="translate(489.364375 52.110902) scale(0.1 -0.1)">
       <use xlink:href="#DejaVuSans-30"/>
       <use xlink:href="#DejaVuSans-2e" transform="translate(63.623047 0)"/>
       <use xlink:href="#DejaVuSans-31" transform="translate(95.410156 0)"/>
       <use xlink:href="#DejaVuSans-30" transform="translate(159.033203 0)"/>
      </g>
     </g>
    </g>
    <g id="text_41">
     <!-- Density -->
     <g transform="translate(483.284688 118.928594) rotate(-90) scale(0.1 -0.1)">
      <defs>
       <path id="DejaVuSans-44" d="M 1259 4147 
L 1259 519 
L 2022 519 
Q 2988 519 3436 956 
Q 3884 1394 3884 2338 
Q 3884 3275 3436 3711 
Q 2988 4147 2022 4147 
L 1259 4147 
z
M 628 4666 
L 1925 4666 
Q 3281 4666 3915 4102 
Q 4550 3538 4550 2338 
Q 4550 1131 3912 565 
Q 3275 0 1925 0 
L 628 0 
L 628 4666 
z
" transform="scale(0.015625)"/>
      </defs>
      <use xlink:href="#DejaVuSans-44"/>
      <use xlink:href="#DejaVuSans-65" transform="translate(77.001953 0)"/>
      <use xlink:href="#DejaVuSans-6e" transform="translate(138.525391 0)"/>
      <use xlink:href="#DejaVuSans-73" transform="translate(201.904297 0)"/>
      <use xlink:href="#DejaVuSans-69" transform="translate(254.003906 0)"/>
      <use xlink:href="#DejaVuSans-74" transform="translate(281.787109 0)"/>
      <use xlink:href="#DejaVuSans-79" transform="translate(320.996094 0)"/>
     </g>
    </g>
   </g>
   <g id="patch_21">
    <path d="M 518.63 173.68 
L 518.63 26.16 
" style="fill: none; stroke: #000000; stroke-width: 0.8; stroke-linejoin: miter; stroke-linecap: square"/>
   </g>
   <g id="patch_22">
    <path d="M 709.2 173.68 
L 709.2 26.16 
" style="fill: none; stroke: #000000; stroke-width: 0.8; stroke-linejoin: miter; stroke-linecap: square"/>
   </g>
   <g id="patch_23">
    <path d="M 518.63 173.68 
L 709.2 173.68 
" style="fill: none; stroke: #000000; stroke-width: 0.8; stroke-linejoin: miter; stroke-linecap: square"/>
   </g>
   <g id="patch_24">
    <path d="M 518.63 26.16 
L 709.2 26.16 
" style="fill: none; stroke: #000000; stroke-width: 0.8; stroke-linejoin: miter; stroke-linecap: square"/>
   </g>
   <g id="text_42">
    <!-- Gene Frequency Skewness -->
    <g transform="translate(533.86 20.16) scale(0.12 -0.12)">
     <use xlink:href="#DejaVuSans-47"/>
     <use xlink:href="#DejaVuSans-65" transform="translate(77.490234 0)"/>
     <use xlink:href="#DejaVuSans-6e" transform="translate(139.013672 0)"/>
     <use xlink:href="#DejaVuSans-65" transform="translate(202.392578 0)"/>
     <use xlink:href="#DejaVuSans-20" transform="translate(263.916016 0)"/>
     <use xlink:href="#DejaVuSans-46" transform="translate(295.703125 0)"/>
     <use xlink:href="#DejaVuSans-72" transform="translate(345.972656 0)"/>
     <use xlink:href="#DejaVuSans-65" transform="translate(384.835938 0)"/>
     <use xlink:href="#DejaVuSans-71" transform="translate(446.359375 0)"/>
     <use xlink:href="#DejaVuSans-75" transform="translate(509.835938 0)"/>
     <use xlink:href="#DejaVuSans-65" transform="translate(573.214844 0)"/>
     <use xlink:href="#DejaVuSans-6e" transform="translate(634.738281 0)"/>
     <use xlink:href="#DejaVuSans-63" transform="translate(698.117188 0)"/>
     <use xlink:href="#DejaVuSans-79" transform="translate(753.097656 0)"/>
     <use xlink:href="#DejaVuSans-20" transform="translate(812.277344 0)"/>
     <use xlink:href="#DejaVuSans-53" transform="translate(844.064453 0)"/>
     <use xlink:href="#DejaVuSans-6b" transform="translate(907.541016 0)"/>
     <use xlink:href="#DejaVuSans-65" transform="translate(961.826172 0)"/>
     <use xlink:href="#DejaVuSans-77" transform="translate(1023.349609 0)"/>
     <use xlink:href="#DejaVuSans-6e" transform="translate(1105.136719 0)"/>
     <use xlink:href="#DejaVuSans-65" transform="translate(1168.515625 0)"/>
     <use xlink:href="#DejaVuSans-73" transform="translate(1230.039062 0)"/>
     <use xlink:href="#DejaVuSans-73" transform="translate(1282.138672 0)"/>
    </g>
   </g>
   <g id="legend_1">
    <g id="text_43">
     <!-- dataset -->
     <g transform="translate(666.392188 38.758438) scale(0.1 -0.1)">
      <use xlink:href="#DejaVuSans-64"/>
      <use xlink:href="#DejaVuSans-61" transform="translate(63.476562 0)"/>
      <use xlink:href="#DejaVuSans-74" transform="translate(124.755859 0)"/>
      <use xlink:href="#DejaVuSans-61" transform="translate(163.964844 0)"/>
      <use xlink:href="#DejaVuSans-73" transform="translate(225.244141 0)"/>
      <use xlink:href="#DejaVuSans-65" transform="translate(277.34375 0)"/>
      <use xlink:href="#DejaVuSans-74" transform="translate(338.867188 0)"/>
     </g>
    </g>
    <g id="patch_25">
     <path d="M 667.860156 54.788125 
L 677.860156 54.788125 
L 677.860156 45.838125 
L 667.860156 45.838125 
z
" style="fill: #1f77b4; fill-opacity: 0.25; stroke: #1f77b4; stroke-linejoin: miter"/>
    </g>
    <g id="text_44">
     <!-- LUN -->
     <g transform="translate(682.860156 53.738125) scale(0.1 -0.1)">
      <use xlink:href="#DejaVuSans-4c"/>
      <use xlink:href="#DejaVuSans-55" transform="translate(50.712891 0)"/>
      <use xlink:href="#DejaVuSans-4e" transform="translate(123.90625 0)"/>
     </g>
    </g>
   </g>
  </g>
 </g>
 <defs>
  <clipPath id="pf04cc7c14e">
   <rect x="51.005" y="26.16" width="95.285" height="147.52"/>
  </clipPath>
  <clipPath id="pd37882a455">
   <rect x="206.88" y="26.16" width="95.285" height="147.52"/>
  </clipPath>
  <clipPath id="pc3a6c24b8f">
   <rect x="362.755" y="26.16" width="95.285" height="147.52"/>
  </clipPath>
  <clipPath id="p5e21678973">
   <rect x="518.63" y="26.16" width="190.57" height="147.52"/>
  </clipPath>
 </defs>
</svg>
