<?xml version="1.0" encoding="utf-8" standalone="no"?>
<!DOCTYPE svg PUBLIC "-//W3C//DTD SVG 1.1//EN"
  "http://www.w3.org/Graphics/SVG/1.1/DTD/svg11.dtd">
<svg xmlns:xlink="http://www.w3.org/1999/xlink" width="864pt" height="288pt" viewBox="0 0 864 288" xmlns="http://www.w3.org/2000/svg" version="1.1">
 <metadata>
  <rdf:RDF xmlns:dc="http://purl.org/dc/elements/1.1/" xmlns:cc="http://creativecommons.org/ns#" xmlns:rdf="http://www.w3.org/1999/02/22-rdf-syntax-ns#">
   <cc:Work>
    <dc:type rdf:resource="http://purl.org/dc/dcmitype/StillImage"/>
    <dc:date>2026-05-07T16:10:03.195525</dc:date>
    <dc:format>image/svg+xml</dc:format>
    <dc:creator>
     <cc:Agent>
      <dc:title>Matplotlib v3.10.9, https://matplotlib.org/</dc:title>
     </cc:Agent>
    </dc:creator>
   </cc:Work>
  </rdf:RDF>
 </metadata>
 <defs>
  <style type="text/css">*{stroke-linejoin: round; stroke-linecap: butt}</style>
 </defs>
 <g id="figure_1">
  <g id="patch_1">
   <path d="M 0 288 
L 864 288 
L 864 0 
L 0 0 
z
" style="fill: #ffffff"/>
  </g>
  <g id="axes_1">
   <g id="patch_2">
    <path d="M 50.97125 245.93875 
L 179.005 245.93875 
L 179.005 26.88 
L 50.97125 26.88 
z
" style="fill: #ffffff"/>
   </g>
   <g id="matplotlib.axis_1">
    <g id="xtick_1">
     <g id="line2d_1">
      <defs>
       <path id="m16ae0aaf13" d="M 0 0 
L 0 3.5 
" style="stroke: #000000; stroke-width: 0.8"/>
      </defs>
      <g>
       <use xlink:href="#m16ae0aaf13" x="114.988125" y="245.93875" style="stroke: #000000; stroke-width: 0.8"/>
      </g>
     </g>
     <g id="text_1">
      <!-- BLD -->
      <g transform="translate(104.921719 260.537188) scale(0.1 -0.1)">
       <defs>
        <path id="DejaVuSans-42" d="M 1259 2228 
L 1259 519 
L 2272 519 
Q 2781 519 3026 730 
Q 3272 941 3272 1375 
Q 3272 1813 3026 2020 
Q 2781 2228 2272 2228 
L 1259 2228 
z
M 1259 4147 
L 1259 2741 
L 2194 2741 
Q 2656 2741 2882 2914 
Q 3109 3088 3109 3444 
Q 3109 3797 2882 3972 
Q 2656 4147 2194 4147 
L 1259 4147 
z
M 628 4666 
L 2241 4666 
Q 2963 4666 3353 4366 
Q 3744 4066 3744 3513 
Q 3744 3084 3544 2831 
Q 3344 2578 2956 2516 
Q 3422 2416 3680 2098 
Q 3938 1781 3938 1306 
Q 3938 681 3513 340 
Q 3088 0 2303 0 
L 628 0 
L 628 4666 
z
" transform="scale(0.015625)"/>
        <path id="DejaVuSans-4c" d="M 628 4666 
L 1259 4666 
L 1259 531 
L 3531 531 
L 3531 0 
L 628 0 
L 628 4666 
z
" transform="scale(0.015625)"/>
        <path id="DejaVuSans-44" d="M 1259 4147 
L 1259 519 
L 2022 519 
Q 2988 519 3436 956 
Q 3884 1394 3884 2338 
Q 3884 3275 3436 3711 
Q 2988 4147 2022 4147 
L 1259 4147 
z
M 628 4666 
L 1925 4666 
Q 3281 4666 3915 4102 
Q 4550 3538 4550 2338 
Q 4550 1131 3912 565 
Q 3275 0 1925 0 
L 628 0 
L 628 4666 
z
" transform="scale(0.015625)"/>
       </defs>
       <use xlink:href="#DejaVuSans-42"/>
       <use xlink:href="#DejaVuSans-4c" transform="translate(68.603516 0)"/>
       <use xlink:href="#DejaVuSans-44" transform="translate(124.316406 0)"/>
      </g>
     </g>
    </g>
    <g id="text_2">
     <!-- dataset -->
     <g transform="translate(96.084219 274.215312) scale(0.1 -0.1)">
      <defs>
       <path id="DejaVuSans-64" d="M 2906 2969 
L 2906 4863 
L 3481 4863 
L 3481 0 
L 2906 0 
L 2906 525 
Q 2725 213 2448 61 
Q 2172 -91 1784 -91 
Q 1150 -91 751 415 
Q 353 922 353 1747 
Q 353 2572 751 3078 
Q 1150 3584 1784 3584 
Q 2172 3584 2448 3432 
Q 2725 3281 2906 2969 
z
M 947 1747 
Q 947 1113 1208 752 
Q 1469 391 1925 391 
Q 2381 391 2643 752 
Q 2906 1113 2906 1747 
Q 2906 2381 2643 2742 
Q 2381 3103 1925 3103 
Q 1469 3103 1208 2742 
Q 947 2381 947 1747 
z
" transform="scale(0.015625)"/>
       <path id="DejaVuSans-61" d="M 2194 1759 
Q 1497 1759 1228 1600 
Q 959 1441 959 1056 
Q 959 750 1161 570 
Q 1363 391 1709 391 
Q 2188 391 2477 730 
Q 2766 1069 2766 1631 
L 2766 1759 
L 2194 1759 
z
M 3341 1997 
L 3341 0 
L 2766 0 
L 2766 531 
Q 2569 213 2275 61 
Q 1981 -91 1556 -91 
Q 1019 -91 701 211 
Q 384 513 384 1019 
Q 384 1609 779 1909 
Q 1175 2209 1959 2209 
L 2766 2209 
L 2766 2266 
Q 2766 2663 2505 2880 
Q 2244 3097 1772 3097 
Q 1472 3097 1187 3025 
Q 903 2953 641 2809 
L 641 3341 
Q 956 3463 1253 3523 
Q 1550 3584 1831 3584 
Q 2591 3584 2966 3190 
Q 3341 2797 3341 1997 
z
" transform="scale(0.015625)"/>
       <path id="DejaVuSans-74" d="M 1172 4494 
L 1172 3500 
L 2356 3500 
L 2356 3053 
L 1172 3053 
L 1172 1153 
Q 1172 725 1289 603 
Q 1406 481 1766 481 
L 2356 481 
L 2356 0 
L 1766 0 
Q 1100 0 847 248 
Q 594 497 594 1153 
L 594 3053 
L 172 3053 
L 172 3500 
L 594 3500 
L 594 4494 
L 1172 4494 
z
" transform="scale(0.015625)"/>
       <path id="DejaVuSans-73" d="M 2834 3397 
L 2834 2853 
Q 2591 2978 2328 3040 
Q 2066 3103 1784 3103 
Q 1356 3103 1142 2972 
Q 928 2841 928 2578 
Q 928 2378 1081 2264 
Q 1234 2150 1697 2047 
L 1894 2003 
Q 2506 1872 2764 1633 
Q 3022 1394 3022 966 
Q 3022 478 2636 193 
Q 2250 -91 1575 -91 
Q 1294 -91 989 -36 
Q 684 19 347 128 
L 347 722 
Q 666 556 975 473 
Q 1284 391 1588 391 
Q 1994 391 2212 530 
Q 2431 669 2431 922 
Q 2431 1156 2273 1281 
Q 2116 1406 1581 1522 
L 1381 1569 
Q 847 1681 609 1914 
Q 372 2147 372 2553 
Q 372 3047 722 3315 
Q 1072 3584 1716 3584 
Q 2034 3584 2315 3537 
Q 2597 3491 2834 3397 
z
" transform="scale(0.015625)"/>
       <path id="DejaVuSans-65" d="M 3597 1894 
L 3597 1613 
L 953 1613 
Q 991 1019 1311 708 
Q 1631 397 2203 397 
Q 2534 397 2845 478 
Q 3156 559 3463 722 
L 3463 178 
Q 3153 47 2828 -22 
Q 2503 -91 2169 -91 
Q 1331 -91 842 396 
Q 353 884 353 1716 
Q 353 2575 817 3079 
Q 1281 3584 2069 3584 
Q 2775 3584 3186 3129 
Q 3597 2675 3597 1894 
z
M 3022 2063 
Q 3016 2534 2758 2815 
Q 2500 3097 2075 3097 
Q 1594 3097 1305 2825 
Q 1016 2553 972 2059 
L 3022 2063 
z
" transform="scale(0.015625)"/>
      </defs>
      <use xlink:href="#DejaVuSans-64"/>
      <use xlink:href="#DejaVuSans-61" transform="translate(63.476562 0)"/>
      <use xlink:href="#DejaVuSans-74" transform="translate(124.755859 0)"/>
      <use xlink:href="#DejaVuSans-61" transform="translate(163.964844 0)"/>
      <use xlink:href="#DejaVuSans-73" transform="translate(225.244141 0)"/>
      <use xlink:href="#DejaVuSans-65" transform="translate(277.34375 0)"/>
      <use xlink:href="#DejaVuSans-74" transform="translate(338.867188 0)"/>
     </g>
    </g>
   </g>
   <g id="matplotlib.axis_2">
    <g id="ytick_1">
     <g id="line2d_2">
      <defs>
       <path id="me29c94d9c1" d="M 0 0 
L -3.5 0 
" style="stroke: #000000; stroke-width: 0.8"/>
      </defs>
      <g>
       <use xlink:href="#me29c94d9c1" x="50.97125" y="237.655016" style="stroke: #000000; stroke-width: 0.8"/>
      </g>
     </g>
     <g id="text_3">
      <!-- 0 -->
      <g transform="translate(37.60875 241.454235) scale(0.1 -0.1)">
       <defs>
        <path id="DejaVuSans-30" d="M 2034 4250 
Q 1547 4250 1301 3770 
Q 1056 3291 1056 2328 
Q 1056 1369 1301 889 
Q 1547 409 2034 409 
Q 2525 409 2770 889 
Q 3016 1369 3016 2328 
Q 3016 3291 2770 3770 
Q 2525 4250 2034 4250 
z
M 2034 4750 
Q 2819 4750 3233 4129 
Q 3647 3509 3647 2328 
Q 3647 1150 3233 529 
Q 2819 -91 2034 -91 
Q 1250 -91 836 529 
Q 422 1150 422 2328 
Q 422 3509 836 4129 
Q 1250 4750 2034 4750 
z
" transform="scale(0.015625)"/>
       </defs>
       <use xlink:href="#DejaVuSans-30"/>
      </g>
     </g>
    </g>
    <g id="ytick_2">
     <g id="line2d_3">
      <g>
       <use xlink:href="#me29c94d9c1" x="50.97125" y="204.185382" style="stroke: #000000; stroke-width: 0.8"/>
      </g>
     </g>
     <g id="text_4">
      <!-- 20 -->
      <g transform="translate(31.24625 207.984601) scale(0.1 -0.1)">
       <defs>
        <path id="DejaVuSans-32" d="M 1228 531 
L 3431 531 
L 3431 0 
L 469 0 
L 469 531 
Q 828 903 1448 1529 
Q 2069 2156 2228 2338 
Q 2531 2678 2651 2914 
Q 2772 3150 2772 3378 
Q 2772 3750 2511 3984 
Q 2250 4219 1831 4219 
Q 1534 4219 1204 4116 
Q 875 4013 500 3803 
L 500 4441 
Q 881 4594 1212 4672 
Q 1544 4750 1819 4750 
Q 2544 4750 2975 4387 
Q 3406 4025 3406 3419 
Q 3406 3131 3298 2873 
Q 3191 2616 2906 2266 
Q 2828 2175 2409 1742 
Q 1991 1309 1228 531 
z
" transform="scale(0.015625)"/>
       </defs>
       <use xlink:href="#DejaVuSans-32"/>
       <use xlink:href="#DejaVuSans-30" transform="translate(63.623047 0)"/>
      </g>
     </g>
    </g>
    <g id="ytick_3">
     <g id="line2d_4">
      <g>
       <use xlink:href="#me29c94d9c1" x="50.97125" y="170.715749" style="stroke: #000000; stroke-width: 0.8"/>
      </g>
     </g>
     <g id="text_5">
      <!-- 40 -->
      <g transform="translate(31.24625 174.514968) scale(0.1 -0.1)">
       <defs>
        <path id="DejaVuSans-34" d="M 2419 4116 
L 825 1625 
L 2419 1625 
L 2419 4116 
z
M 2253 4666 
L 3047 4666 
L 3047 1625 
L 3713 1625 
L 3713 1100 
L 3047 1100 
L 3047 0 
L 2419 0 
L 2419 1100 
L 313 1100 
L 313 1709 
L 2253 4666 
z
" transform="scale(0.015625)"/>
       </defs>
       <use xlink:href="#DejaVuSans-34"/>
       <use xlink:href="#DejaVuSans-30" transform="translate(63.623047 0)"/>
      </g>
     </g>
    </g>
    <g id="ytick_4">
     <g id="line2d_5">
      <g>
       <use xlink:href="#me29c94d9c1" x="50.97125" y="137.246116" style="stroke: #000000; stroke-width: 0.8"/>
      </g>
     </g>
     <g id="text_6">
      <!-- 60 -->
      <g transform="translate(31.24625 141.045335) scale(0.1 -0.1)">
       <defs>
        <path id="DejaVuSans-36" d="M 2113 2584 
Q 1688 2584 1439 2293 
Q 1191 2003 1191 1497 
Q 1191 994 1439 701 
Q 1688 409 2113 409 
Q 2538 409 2786 701 
Q 3034 994 3034 1497 
Q 3034 2003 2786 2293 
Q 2538 2584 2113 2584 
z
M 3366 4563 
L 3366 3988 
Q 3128 4100 2886 4159 
Q 2644 4219 2406 4219 
Q 1781 4219 1451 3797 
Q 1122 3375 1075 2522 
Q 1259 2794 1537 2939 
Q 1816 3084 2150 3084 
Q 2853 3084 3261 2657 
Q 3669 2231 3669 1497 
Q 3669 778 3244 343 
Q 2819 -91 2113 -91 
Q 1303 -91 875 529 
Q 447 1150 447 2328 
Q 447 3434 972 4092 
Q 1497 4750 2381 4750 
Q 2619 4750 2861 4703 
Q 3103 4656 3366 4563 
z
" transform="scale(0.015625)"/>
       </defs>
       <use xlink:href="#DejaVuSans-36"/>
       <use xlink:href="#DejaVuSans-30" transform="translate(63.623047 0)"/>
      </g>
     </g>
    </g>
    <g id="ytick_5">
     <g id="line2d_6">
      <g>
       <use xlink:href="#me29c94d9c1" x="50.97125" y="103.776483" style="stroke: #000000; stroke-width: 0.8"/>
      </g>
     </g>
     <g id="text_7">
      <!-- 80 -->
      <g transform="translate(31.24625 107.575701) scale(0.1 -0.1)">
       <defs>
        <path id="DejaVuSans-38" d="M 2034 2216 
Q 1584 2216 1326 1975 
Q 1069 1734 1069 1313 
Q 1069 891 1326 650 
Q 1584 409 2034 409 
Q 2484 409 2743 651 
Q 3003 894 3003 1313 
Q 3003 1734 2745 1975 
Q 2488 2216 2034 2216 
z
M 1403 2484 
Q 997 2584 770 2862 
Q 544 3141 544 3541 
Q 544 4100 942 4425 
Q 1341 4750 2034 4750 
Q 2731 4750 3128 4425 
Q 3525 4100 3525 3541 
Q 3525 3141 3298 2862 
Q 3072 2584 2669 2484 
Q 3125 2378 3379 2068 
Q 3634 1759 3634 1313 
Q 3634 634 3220 271 
Q 2806 -91 2034 -91 
Q 1263 -91 848 271 
Q 434 634 434 1313 
Q 434 1759 690 2068 
Q 947 2378 1403 2484 
z
M 1172 3481 
Q 1172 3119 1398 2916 
Q 1625 2713 2034 2713 
Q 2441 2713 2670 2916 
Q 2900 3119 2900 3481 
Q 2900 3844 2670 4047 
Q 2441 4250 2034 4250 
Q 1625 4250 1398 4047 
Q 1172 3844 1172 3481 
z
" transform="scale(0.015625)"/>
       </defs>
       <use xlink:href="#DejaVuSans-38"/>
       <use xlink:href="#DejaVuSans-30" transform="translate(63.623047 0)"/>
      </g>
     </g>
    </g>
    <g id="ytick_6">
     <g id="line2d_7">
      <g>
       <use xlink:href="#me29c94d9c1" x="50.97125" y="70.306849" style="stroke: #000000; stroke-width: 0.8"/>
      </g>
     </g>
     <g id="text_8">
      <!-- 100 -->
      <g transform="translate(24.88375 74.106068) scale(0.1 -0.1)">
       <defs>
        <path id="DejaVuSans-31" d="M 794 531 
L 1825 531 
L 1825 4091 
L 703 3866 
L 703 4441 
L 1819 4666 
L 2450 4666 
L 2450 531 
L 3481 531 
L 3481 0 
L 794 0 
L 794 531 
z
" transform="scale(0.015625)"/>
       </defs>
       <use xlink:href="#DejaVuSans-31"/>
       <use xlink:href="#DejaVuSans-30" transform="translate(63.623047 0)"/>
       <use xlink:href="#DejaVuSans-30" transform="translate(127.246094 0)"/>
      </g>
     </g>
    </g>
    <g id="ytick_7">
     <g id="line2d_8">
      <g>
       <use xlink:href="#me29c94d9c1" x="50.97125" y="36.837216" style="stroke: #000000; stroke-width: 0.8"/>
      </g>
     </g>
     <g id="text_9">
      <!-- 120 -->
      <g transform="translate(24.88375 40.636435) scale(0.1 -0.1)">
       <use xlink:href="#DejaVuSans-31"/>
       <use xlink:href="#DejaVuSans-32" transform="translate(63.623047 0)"/>
       <use xlink:href="#DejaVuSans-30" transform="translate(127.246094 0)"/>
      </g>
     </g>
    </g>
    <g id="text_10">
     <!-- total_root_nodes -->
     <g transform="translate(18.525938 177.947656) rotate(-90) scale(0.1 -0.1)">
      <defs>
       <path id="DejaVuSans-6f" d="M 1959 3097 
Q 1497 3097 1228 2736 
Q 959 2375 959 1747 
Q 959 1119 1226 758 
Q 1494 397 1959 397 
Q 2419 397 2687 759 
Q 2956 1122 2956 1747 
Q 2956 2369 2687 2733 
Q 2419 3097 1959 3097 
z
M 1959 3584 
Q 2709 3584 3137 3096 
Q 3566 2609 3566 1747 
Q 3566 888 3137 398 
Q 2709 -91 1959 -91 
Q 1206 -91 779 398 
Q 353 888 353 1747 
Q 353 2609 779 3096 
Q 1206 3584 1959 3584 
z
" transform="scale(0.015625)"/>
       <path id="DejaVuSans-6c" d="M 603 4863 
L 1178 4863 
L 1178 0 
L 603 0 
L 603 4863 
z
" transform="scale(0.015625)"/>
       <path id="DejaVuSans-5f" d="M 3263 -1063 
L 3263 -1509 
L -63 -1509 
L -63 -1063 
L 3263 -1063 
z
" transform="scale(0.015625)"/>
       <path id="DejaVuSans-72" d="M 2631 2963 
Q 2534 3019 2420 3045 
Q 2306 3072 2169 3072 
Q 1681 3072 1420 2755 
Q 1159 2438 1159 1844 
L 1159 0 
L 581 0 
L 581 3500 
L 1159 3500 
L 1159 2956 
Q 1341 3275 1631 3429 
Q 1922 3584 2338 3584 
Q 2397 3584 2469 3576 
Q 2541 3569 2628 3553 
L 2631 2963 
z
" transform="scale(0.015625)"/>
       <path id="DejaVuSans-6e" d="M 3513 2113 
L 3513 0 
L 2938 0 
L 2938 2094 
Q 2938 2591 2744 2837 
Q 2550 3084 2163 3084 
Q 1697 3084 1428 2787 
Q 1159 2491 1159 1978 
L 1159 0 
L 581 0 
L 581 3500 
L 1159 3500 
L 1159 2956 
Q 1366 3272 1645 3428 
Q 1925 3584 2291 3584 
Q 2894 3584 3203 3211 
Q 3513 2838 3513 2113 
z
" transform="scale(0.015625)"/>
      </defs>
      <use xlink:href="#DejaVuSans-74"/>
      <use xlink:href="#DejaVuSans-6f" transform="translate(39.208984 0)"/>
      <use xlink:href="#DejaVuSans-74" transform="translate(100.390625 0)"/>
      <use xlink:href="#DejaVuSans-61" transform="translate(139.599609 0)"/>
      <use xlink:href="#DejaVuSans-6c" transform="translate(200.878906 0)"/>
      <use xlink:href="#DejaVuSans-5f" transform="translate(228.662109 0)"/>
      <use xlink:href="#DejaVuSans-72" transform="translate(278.662109 0)"/>
      <use xlink:href="#DejaVuSans-6f" transform="translate(317.525391 0)"/>
      <use xlink:href="#DejaVuSans-6f" transform="translate(378.707031 0)"/>
      <use xlink:href="#DejaVuSans-74" transform="translate(439.888672 0)"/>
      <use xlink:href="#DejaVuSans-5f" transform="translate(479.097656 0)"/>
      <use xlink:href="#DejaVuSans-6e" transform="translate(529.097656 0)"/>
      <use xlink:href="#DejaVuSans-6f" transform="translate(592.476562 0)"/>
      <use xlink:href="#DejaVuSans-64" transform="translate(653.658203 0)"/>
      <use xlink:href="#DejaVuSans-65" transform="translate(717.134766 0)"/>
      <use xlink:href="#DejaVuSans-73" transform="translate(778.658203 0)"/>
     </g>
    </g>
   </g>
   <g id="patch_3">
    <path d="M 63.774625 229.287607 
L 166.201625 229.287607 
L 166.201625 214.226272 
L 63.774625 214.226272 
L 63.774625 229.287607 
z
" clip-path="url(#p3b3fd39d45)" style="fill: #3274a1; stroke: #3f3f3f; stroke-linejoin: miter"/>
   </g>
   <g id="line2d_9">
    <path d="M 114.988125 229.287607 
L 114.988125 235.981534 
" clip-path="url(#p3b3fd39d45)" style="fill: none; stroke: #3f3f3f"/>
   </g>
   <g id="line2d_10">
    <path d="M 114.988125 214.226272 
L 114.988125 192.471011 
" clip-path="url(#p3b3fd39d45)" style="fill: none; stroke: #3f3f3f"/>
   </g>
   <g id="line2d_11">
    <path d="M 89.381375 235.981534 
L 140.594875 235.981534 
" clip-path="url(#p3b3fd39d45)" style="fill: none; stroke: #3f3f3f; stroke-linecap: square"/>
   </g>
   <g id="line2d_12">
    <path d="M 89.381375 192.471011 
L 140.594875 192.471011 
" clip-path="url(#p3b3fd39d45)" style="fill: none; stroke: #3f3f3f; stroke-linecap: square"/>
   </g>
   <g id="line2d_13">
    <defs>
     <path id="me5c94bf8fd" d="M 0 3 
C 0.795609 3 1.55874 2.683901 2.12132 2.12132 
C 2.683901 1.55874 3 0.795609 3 0 
C 3 -0.795609 2.683901 -1.55874 2.12132 -2.12132 
C 1.55874 -2.683901 0.795609 -3 0 -3 
C -0.795609 -3 -1.55874 -2.683901 -2.12132 -2.12132 
C -2.683901 -1.55874 -3 -0.795609 -3 0 
C -3 0.795609 -2.683901 1.55874 -2.12132 2.12132 
C -1.55874 2.683901 -0.795609 3 0 3 
z
" style="stroke: #3f3f3f"/>
    </defs>
    <g clip-path="url(#p3b3fd39d45)">
     <use xlink:href="#me5c94bf8fd" x="114.988125" y="123.858263" style="fill-opacity: 0; stroke: #3f3f3f"/>
     <use xlink:href="#me5c94bf8fd" x="114.988125" y="190.797529" style="fill-opacity: 0; stroke: #3f3f3f"/>
     <use xlink:href="#me5c94bf8fd" x="114.988125" y="153.980932" style="fill-opacity: 0; stroke: #3f3f3f"/>
     <use xlink:href="#me5c94bf8fd" x="114.988125" y="190.797529" style="fill-opacity: 0; stroke: #3f3f3f"/>
     <use xlink:href="#me5c94bf8fd" x="114.988125" y="150.633969" style="fill-opacity: 0; stroke: #3f3f3f"/>
     <use xlink:href="#me5c94bf8fd" x="114.988125" y="179.083157" style="fill-opacity: 0; stroke: #3f3f3f"/>
     <use xlink:href="#me5c94bf8fd" x="114.988125" y="184.103602" style="fill-opacity: 0; stroke: #3f3f3f"/>
     <use xlink:href="#me5c94bf8fd" x="114.988125" y="180.756639" style="fill-opacity: 0; stroke: #3f3f3f"/>
     <use xlink:href="#me5c94bf8fd" x="114.988125" y="174.062712" style="fill-opacity: 0; stroke: #3f3f3f"/>
     <use xlink:href="#me5c94bf8fd" x="114.988125" y="123.858263" style="fill-opacity: 0; stroke: #3f3f3f"/>
     <use xlink:href="#me5c94bf8fd" x="114.988125" y="148.960487" style="fill-opacity: 0; stroke: #3f3f3f"/>
     <use xlink:href="#me5c94bf8fd" x="114.988125" y="184.103602" style="fill-opacity: 0; stroke: #3f3f3f"/>
     <use xlink:href="#me5c94bf8fd" x="114.988125" y="187.450566" style="fill-opacity: 0; stroke: #3f3f3f"/>
     <use xlink:href="#me5c94bf8fd" x="114.988125" y="36.837216" style="fill-opacity: 0; stroke: #3f3f3f"/>
     <use xlink:href="#me5c94bf8fd" x="114.988125" y="184.103602" style="fill-opacity: 0; stroke: #3f3f3f"/>
     <use xlink:href="#me5c94bf8fd" x="114.988125" y="185.777084" style="fill-opacity: 0; stroke: #3f3f3f"/>
     <use xlink:href="#me5c94bf8fd" x="114.988125" y="147.287006" style="fill-opacity: 0; stroke: #3f3f3f"/>
     <use xlink:href="#me5c94bf8fd" x="114.988125" y="165.695304" style="fill-opacity: 0; stroke: #3f3f3f"/>
     <use xlink:href="#me5c94bf8fd" x="114.988125" y="172.389231" style="fill-opacity: 0; stroke: #3f3f3f"/>
     <use xlink:href="#me5c94bf8fd" x="114.988125" y="159.001377" style="fill-opacity: 0; stroke: #3f3f3f"/>
     <use xlink:href="#me5c94bf8fd" x="114.988125" y="160.674859" style="fill-opacity: 0; stroke: #3f3f3f"/>
     <use xlink:href="#me5c94bf8fd" x="114.988125" y="179.083157" style="fill-opacity: 0; stroke: #3f3f3f"/>
     <use xlink:href="#me5c94bf8fd" x="114.988125" y="167.368786" style="fill-opacity: 0; stroke: #3f3f3f"/>
     <use xlink:href="#me5c94bf8fd" x="114.988125" y="165.695304" style="fill-opacity: 0; stroke: #3f3f3f"/>
     <use xlink:href="#me5c94bf8fd" x="114.988125" y="115.490854" style="fill-opacity: 0; stroke: #3f3f3f"/>
     <use xlink:href="#me5c94bf8fd" x="114.988125" y="162.348341" style="fill-opacity: 0; stroke: #3f3f3f"/>
     <use xlink:href="#me5c94bf8fd" x="114.988125" y="103.776483" style="fill-opacity: 0; stroke: #3f3f3f"/>
     <use xlink:href="#me5c94bf8fd" x="114.988125" y="184.103602" style="fill-opacity: 0; stroke: #3f3f3f"/>
     <use xlink:href="#me5c94bf8fd" x="114.988125" y="157.327896" style="fill-opacity: 0; stroke: #3f3f3f"/>
     <use xlink:href="#me5c94bf8fd" x="114.988125" y="145.613524" style="fill-opacity: 0; stroke: #3f3f3f"/>
     <use xlink:href="#me5c94bf8fd" x="114.988125" y="137.246116" style="fill-opacity: 0; stroke: #3f3f3f"/>
     <use xlink:href="#me5c94bf8fd" x="114.988125" y="177.409676" style="fill-opacity: 0; stroke: #3f3f3f"/>
     <use xlink:href="#me5c94bf8fd" x="114.988125" y="102.103001" style="fill-opacity: 0; stroke: #3f3f3f"/>
     <use xlink:href="#me5c94bf8fd" x="114.988125" y="184.103602" style="fill-opacity: 0; stroke: #3f3f3f"/>
     <use xlink:href="#me5c94bf8fd" x="114.988125" y="187.450566" style="fill-opacity: 0; stroke: #3f3f3f"/>
     <use xlink:href="#me5c94bf8fd" x="114.988125" y="122.184781" style="fill-opacity: 0; stroke: #3f3f3f"/>
     <use xlink:href="#me5c94bf8fd" x="114.988125" y="167.368786" style="fill-opacity: 0; stroke: #3f3f3f"/>
     <use xlink:href="#me5c94bf8fd" x="114.988125" y="189.124047" style="fill-opacity: 0; stroke: #3f3f3f"/>
     <use xlink:href="#me5c94bf8fd" x="114.988125" y="137.246116" style="fill-opacity: 0; stroke: #3f3f3f"/>
     <use xlink:href="#me5c94bf8fd" x="114.988125" y="187.450566" style="fill-opacity: 0; stroke: #3f3f3f"/>
     <use xlink:href="#me5c94bf8fd" x="114.988125" y="177.409676" style="fill-opacity: 0; stroke: #3f3f3f"/>
     <use xlink:href="#me5c94bf8fd" x="114.988125" y="66.959886" style="fill-opacity: 0; stroke: #3f3f3f"/>
     <use xlink:href="#me5c94bf8fd" x="114.988125" y="150.633969" style="fill-opacity: 0; stroke: #3f3f3f"/>
     <use xlink:href="#me5c94bf8fd" x="114.988125" y="185.777084" style="fill-opacity: 0; stroke: #3f3f3f"/>
     <use xlink:href="#me5c94bf8fd" x="114.988125" y="190.797529" style="fill-opacity: 0; stroke: #3f3f3f"/>
     <use xlink:href="#me5c94bf8fd" x="114.988125" y="177.409676" style="fill-opacity: 0; stroke: #3f3f3f"/>
    </g>
   </g>
   <g id="line2d_14">
    <path d="M 63.774625 222.593681 
L 166.201625 222.593681 
" clip-path="url(#p3b3fd39d45)" style="fill: none; stroke: #3f3f3f"/>
   </g>
   <g id="patch_4">
    <path d="M 50.97125 245.93875 
L 50.97125 26.88 
" style="fill: none; stroke: #000000; stroke-width: 0.8; stroke-linejoin: miter; stroke-linecap: square"/>
   </g>
   <g id="patch_5">
    <path d="M 179.005 245.93875 
L 179.005 26.88 
" style="fill: none; stroke: #000000; stroke-width: 0.8; stroke-linejoin: miter; stroke-linecap: square"/>
   </g>
   <g id="patch_6">
    <path d="M 50.97125 245.93875 
L 179.005 245.93875 
" style="fill: none; stroke: #000000; stroke-width: 0.8; stroke-linejoin: miter; stroke-linecap: square"/>
   </g>
   <g id="patch_7">
    <path d="M 50.97125 26.88 
L 179.005 26.88 
" style="fill: none; stroke: #000000; stroke-width: 0.8; stroke-linejoin: miter; stroke-linecap: square"/>
   </g>
   <g id="text_11">
    <!-- Root node count -->
    <g transform="translate(65.678438 20.88) scale(0.12 -0.12)">
     <defs>
      <path id="DejaVuSans-52" d="M 2841 2188 
Q 3044 2119 3236 1894 
Q 3428 1669 3622 1275 
L 4263 0 
L 3584 0 
L 2988 1197 
Q 2756 1666 2539 1819 
Q 2322 1972 1947 1972 
L 1259 1972 
L 1259 0 
L 628 0 
L 628 4666 
L 2053 4666 
Q 2853 4666 3247 4331 
Q 3641 3997 3641 3322 
Q 3641 2881 3436 2590 
Q 3231 2300 2841 2188 
z
M 1259 4147 
L 1259 2491 
L 2053 2491 
Q 2509 2491 2742 2702 
Q 2975 2913 2975 3322 
Q 2975 3731 2742 3939 
Q 2509 4147 2053 4147 
L 1259 4147 
z
" transform="scale(0.015625)"/>
      <path id="DejaVuSans-20" transform="scale(0.015625)"/>
      <path id="DejaVuSans-63" d="M 3122 3366 
L 3122 2828 
Q 2878 2963 2633 3030 
Q 2388 3097 2138 3097 
Q 1578 3097 1268 2742 
Q 959 2388 959 1747 
Q 959 1106 1268 751 
Q 1578 397 2138 397 
Q 2388 397 2633 464 
Q 2878 531 3122 666 
L 3122 134 
Q 2881 22 2623 -34 
Q 2366 -91 2075 -91 
Q 1284 -91 818 406 
Q 353 903 353 1747 
Q 353 2603 823 3093 
Q 1294 3584 2113 3584 
Q 2378 3584 2631 3529 
Q 2884 3475 3122 3366 
z
" transform="scale(0.015625)"/>
      <path id="DejaVuSans-75" d="M 544 1381 
L 544 3500 
L 1119 3500 
L 1119 1403 
Q 1119 906 1312 657 
Q 1506 409 1894 409 
Q 2359 409 2629 706 
Q 2900 1003 2900 1516 
L 2900 3500 
L 3475 3500 
L 3475 0 
L 2900 0 
L 2900 538 
Q 2691 219 2414 64 
Q 2138 -91 1772 -91 
Q 1169 -91 856 284 
Q 544 659 544 1381 
z
M 1991 3584 
L 1991 3584 
z
" transform="scale(0.015625)"/>
     </defs>
     <use xlink:href="#DejaVuSans-52"/>
     <use xlink:href="#DejaVuSans-6f" transform="translate(64.982422 0)"/>
     <use xlink:href="#DejaVuSans-6f" transform="translate(126.164062 0)"/>
     <use xlink:href="#DejaVuSans-74" transform="translate(187.345703 0)"/>
     <use xlink:href="#DejaVuSans-20" transform="translate(226.554688 0)"/>
     <use xlink:href="#DejaVuSans-6e" transform="translate(258.341797 0)"/>
     <use xlink:href="#DejaVuSans-6f" transform="translate(321.720703 0)"/>
     <use xlink:href="#DejaVuSans-64" transform="translate(382.902344 0)"/>
     <use xlink:href="#DejaVuSans-65" transform="translate(446.378906 0)"/>
     <use xlink:href="#DejaVuSans-20" transform="translate(507.902344 0)"/>
     <use xlink:href="#DejaVuSans-63" transform="translate(539.689453 0)"/>
     <use xlink:href="#DejaVuSans-6f" transform="translate(594.669922 0)"/>
     <use xlink:href="#DejaVuSans-75" transform="translate(655.851562 0)"/>
     <use xlink:href="#DejaVuSans-6e" transform="translate(719.230469 0)"/>
     <use xlink:href="#DejaVuSans-74" transform="translate(782.609375 0)"/>
    </g>
   </g>
  </g>
  <g id="axes_2">
   <g id="patch_8">
    <path d="M 233.025 245.93875 
L 361.05875 245.93875 
L 361.05875 26.88 
L 233.025 26.88 
z
" style="fill: #ffffff"/>
   </g>
   <g id="matplotlib.axis_3">
    <g id="xtick_2">
     <g id="line2d_15">
      <g>
       <use xlink:href="#m16ae0aaf13" x="297.041875" y="245.93875" style="stroke: #000000; stroke-width: 0.8"/>
      </g>
     </g>
     <g id="text_12">
      <!-- BLD -->
      <g transform="translate(286.975469 260.537188) scale(0.1 -0.1)">
       <use xlink:href="#DejaVuSans-42"/>
       <use xlink:href="#DejaVuSans-4c" transform="translate(68.603516 0)"/>
       <use xlink:href="#DejaVuSans-44" transform="translate(124.316406 0)"/>
      </g>
     </g>
    </g>
    <g id="text_13">
     <!-- dataset -->
     <g transform="translate(278.137969 274.215312) scale(0.1 -0.1)">
      <use xlink:href="#DejaVuSans-64"/>
      <use xlink:href="#DejaVuSans-61" transform="translate(63.476562 0)"/>
      <use xlink:href="#DejaVuSans-74" transform="translate(124.755859 0)"/>
      <use xlink:href="#DejaVuSans-61" transform="translate(163.964844 0)"/>
      <use xlink:href="#DejaVuSans-73" transform="translate(225.244141 0)"/>
      <use xlink:href="#DejaVuSans-65" transform="translate(277.34375 0)"/>
      <use xlink:href="#DejaVuSans-74" transform="translate(338.867188 0)"/>
     </g>
    </g>
   </g>
   <g id="matplotlib.axis_4">
    <g id="ytick_8">
     <g id="line2d_16">
      <g>
       <use xlink:href="#me29c94d9c1" x="233.025" y="216.067102" style="stroke: #000000; stroke-width: 0.8"/>
      </g>
     </g>
     <g id="text_14">
      <!-- 96 -->
      <g transform="translate(213.3 219.866321) scale(0.1 -0.1)">
       <defs>
        <path id="DejaVuSans-39" d="M 703 97 
L 703 672 
Q 941 559 1184 500 
Q 1428 441 1663 441 
Q 2288 441 2617 861 
Q 2947 1281 2994 2138 
Q 2813 1869 2534 1725 
Q 2256 1581 1919 1581 
Q 1219 1581 811 2004 
Q 403 2428 403 3163 
Q 403 3881 828 4315 
Q 1253 4750 1959 4750 
Q 2769 4750 3195 4129 
Q 3622 3509 3622 2328 
Q 3622 1225 3098 567 
Q 2575 -91 1691 -91 
Q 1453 -91 1209 -44 
Q 966 3 703 97 
z
M 1959 2075 
Q 2384 2075 2632 2365 
Q 2881 2656 2881 3163 
Q 2881 3666 2632 3958 
Q 2384 4250 1959 4250 
Q 1534 4250 1286 3958 
Q 1038 3666 1038 3163 
Q 1038 2656 1286 2365 
Q 1534 2075 1959 2075 
z
" transform="scale(0.015625)"/>
       </defs>
       <use xlink:href="#DejaVuSans-39"/>
       <use xlink:href="#DejaVuSans-36" transform="translate(63.623047 0)"/>
      </g>
     </g>
    </g>
    <g id="ytick_9">
     <g id="line2d_17">
      <g>
       <use xlink:href="#me29c94d9c1" x="233.025" y="176.238239" style="stroke: #000000; stroke-width: 0.8"/>
      </g>
     </g>
     <g id="text_15">
      <!-- 98 -->
      <g transform="translate(213.3 180.037457) scale(0.1 -0.1)">
       <use xlink:href="#DejaVuSans-39"/>
       <use xlink:href="#DejaVuSans-38" transform="translate(63.623047 0)"/>
      </g>
     </g>
    </g>
    <g id="ytick_10">
     <g id="line2d_18">
      <g>
       <use xlink:href="#me29c94d9c1" x="233.025" y="136.409375" style="stroke: #000000; stroke-width: 0.8"/>
      </g>
     </g>
     <g id="text_16">
      <!-- 100 -->
      <g transform="translate(206.9375 140.208594) scale(0.1 -0.1)">
       <use xlink:href="#DejaVuSans-31"/>
       <use xlink:href="#DejaVuSans-30" transform="translate(63.623047 0)"/>
       <use xlink:href="#DejaVuSans-30" transform="translate(127.246094 0)"/>
      </g>
     </g>
    </g>
    <g id="ytick_11">
     <g id="line2d_19">
      <g>
       <use xlink:href="#me29c94d9c1" x="233.025" y="96.580511" style="stroke: #000000; stroke-width: 0.8"/>
      </g>
     </g>
     <g id="text_17">
      <!-- 102 -->
      <g transform="translate(206.9375 100.37973) scale(0.1 -0.1)">
       <use xlink:href="#DejaVuSans-31"/>
       <use xlink:href="#DejaVuSans-30" transform="translate(63.623047 0)"/>
       <use xlink:href="#DejaVuSans-32" transform="translate(127.246094 0)"/>
      </g>
     </g>
    </g>
    <g id="ytick_12">
     <g id="line2d_20">
      <g>
       <use xlink:href="#me29c94d9c1" x="233.025" y="56.751648" style="stroke: #000000; stroke-width: 0.8"/>
      </g>
     </g>
     <g id="text_18">
      <!-- 104 -->
      <g transform="translate(206.9375 60.550866) scale(0.1 -0.1)">
       <use xlink:href="#DejaVuSans-31"/>
       <use xlink:href="#DejaVuSans-30" transform="translate(63.623047 0)"/>
       <use xlink:href="#DejaVuSans-34" transform="translate(127.246094 0)"/>
      </g>
     </g>
    </g>
    <g id="text_19">
     <!-- active_source_pcr -->
     <g transform="translate(200.579688 181.188281) rotate(-90) scale(0.1 -0.1)">
      <defs>
       <path id="DejaVuSans-69" d="M 603 3500 
L 1178 3500 
L 1178 0 
L 603 0 
L 603 3500 
z
M 603 4863 
L 1178 4863 
L 1178 4134 
L 603 4134 
L 603 4863 
z
" transform="scale(0.015625)"/>
       <path id="DejaVuSans-76" d="M 191 3500 
L 800 3500 
L 1894 563 
L 2988 3500 
L 3597 3500 
L 2284 0 
L 1503 0 
L 191 3500 
z
" transform="scale(0.015625)"/>
       <path id="DejaVuSans-70" d="M 1159 525 
L 1159 -1331 
L 581 -1331 
L 581 3500 
L 1159 3500 
L 1159 2969 
Q 1341 3281 1617 3432 
Q 1894 3584 2278 3584 
Q 2916 3584 3314 3078 
Q 3713 2572 3713 1747 
Q 3713 922 3314 415 
Q 2916 -91 2278 -91 
Q 1894 -91 1617 61 
Q 1341 213 1159 525 
z
M 3116 1747 
Q 3116 2381 2855 2742 
Q 2594 3103 2138 3103 
Q 1681 3103 1420 2742 
Q 1159 2381 1159 1747 
Q 1159 1113 1420 752 
Q 1681 391 2138 391 
Q 2594 391 2855 752 
Q 3116 1113 3116 1747 
z
" transform="scale(0.015625)"/>
      </defs>
      <use xlink:href="#DejaVuSans-61"/>
      <use xlink:href="#DejaVuSans-63" transform="translate(61.279297 0)"/>
      <use xlink:href="#DejaVuSans-74" transform="translate(116.259766 0)"/>
      <use xlink:href="#DejaVuSans-69" transform="translate(155.46875 0)"/>
      <use xlink:href="#DejaVuSans-76" transform="translate(183.251953 0)"/>
      <use xlink:href="#DejaVuSans-65" transform="translate(242.431641 0)"/>
      <use xlink:href="#DejaVuSans-5f" transform="translate(303.955078 0)"/>
      <use xlink:href="#DejaVuSans-73" transform="translate(353.955078 0)"/>
      <use xlink:href="#DejaVuSans-6f" transform="translate(406.054688 0)"/>
      <use xlink:href="#DejaVuSans-75" transform="translate(467.236328 0)"/>
      <use xlink:href="#DejaVuSans-72" transform="translate(530.615234 0)"/>
      <use xlink:href="#DejaVuSans-63" transform="translate(569.478516 0)"/>
      <use xlink:href="#DejaVuSans-65" transform="translate(624.458984 0)"/>
      <use xlink:href="#DejaVuSans-5f" transform="translate(685.982422 0)"/>
      <use xlink:href="#DejaVuSans-70" transform="translate(735.982422 0)"/>
      <use xlink:href="#DejaVuSans-63" transform="translate(799.458984 0)"/>
      <use xlink:href="#DejaVuSans-72" transform="translate(854.439453 0)"/>
     </g>
    </g>
   </g>
   <g id="patch_9">
    <path d="M 245.828375 136.409375 
L 348.255375 136.409375 
L 348.255375 136.409375 
L 245.828375 136.409375 
L 245.828375 136.409375 
z
" clip-path="url(#p469be93ed2)" style="fill: #3274a1; stroke: #3f3f3f; stroke-linejoin: miter"/>
   </g>
   <g id="line2d_21">
    <path d="M 297.041875 136.409375 
L 297.041875 136.409375 
" clip-path="url(#p469be93ed2)" style="fill: none; stroke: #3f3f3f"/>
   </g>
   <g id="line2d_22">
    <path d="M 297.041875 136.409375 
L 297.041875 136.409375 
" clip-path="url(#p469be93ed2)" style="fill: none; stroke: #3f3f3f"/>
   </g>
   <g id="line2d_23">
    <path d="M 271.435125 136.409375 
L 322.648625 136.409375 
" clip-path="url(#p469be93ed2)" style="fill: none; stroke: #3f3f3f; stroke-linecap: square"/>
   </g>
   <g id="line2d_24">
    <path d="M 271.435125 136.409375 
L 322.648625 136.409375 
" clip-path="url(#p469be93ed2)" style="fill: none; stroke: #3f3f3f; stroke-linecap: square"/>
   </g>
   <g id="line2d_25"/>
   <g id="line2d_26">
    <path d="M 245.828375 136.409375 
L 348.255375 136.409375 
" clip-path="url(#p469be93ed2)" style="fill: none; stroke: #3f3f3f"/>
   </g>
   <g id="patch_10">
    <path d="M 233.025 245.93875 
L 233.025 26.88 
" style="fill: none; stroke: #000000; stroke-width: 0.8; stroke-linejoin: miter; stroke-linecap: square"/>
   </g>
   <g id="patch_11">
    <path d="M 361.05875 245.93875 
L 361.05875 26.88 
" style="fill: none; stroke: #000000; stroke-width: 0.8; stroke-linejoin: miter; stroke-linecap: square"/>
   </g>
   <g id="patch_12">
    <path d="M 233.025 245.93875 
L 361.05875 245.93875 
" style="fill: none; stroke: #000000; stroke-width: 0.8; stroke-linejoin: miter; stroke-linecap: square"/>
   </g>
   <g id="patch_13">
    <path d="M 233.025 26.88 
L 361.05875 26.88 
" style="fill: none; stroke: #000000; stroke-width: 0.8; stroke-linejoin: miter; stroke-linecap: square"/>
   </g>
   <g id="text_20">
    <!-- Active sources in context(%) -->
    <g transform="translate(211.245625 20.88) scale(0.12 -0.12)">
     <defs>
      <path id="DejaVuSans-41" d="M 2188 4044 
L 1331 1722 
L 3047 1722 
L 2188 4044 
z
M 1831 4666 
L 2547 4666 
L 4325 0 
L 3669 0 
L 3244 1197 
L 1141 1197 
L 716 0 
L 50 0 
L 1831 4666 
z
" transform="scale(0.015625)"/>
      <path id="DejaVuSans-78" d="M 3513 3500 
L 2247 1797 
L 3578 0 
L 2900 0 
L 1881 1375 
L 863 0 
L 184 0 
L 1544 1831 
L 300 3500 
L 978 3500 
L 1906 2253 
L 2834 3500 
L 3513 3500 
z
" transform="scale(0.015625)"/>
      <path id="DejaVuSans-28" d="M 1984 4856 
Q 1566 4138 1362 3434 
Q 1159 2731 1159 2009 
Q 1159 1288 1364 580 
Q 1569 -128 1984 -844 
L 1484 -844 
Q 1016 -109 783 600 
Q 550 1309 550 2009 
Q 550 2706 781 3412 
Q 1013 4119 1484 4856 
L 1984 4856 
z
" transform="scale(0.015625)"/>
      <path id="DejaVuSans-25" d="M 4653 2053 
Q 4381 2053 4226 1822 
Q 4072 1591 4072 1178 
Q 4072 772 4226 539 
Q 4381 306 4653 306 
Q 4919 306 5073 539 
Q 5228 772 5228 1178 
Q 5228 1588 5073 1820 
Q 4919 2053 4653 2053 
z
M 4653 2450 
Q 5147 2450 5437 2106 
Q 5728 1763 5728 1178 
Q 5728 594 5436 251 
Q 5144 -91 4653 -91 
Q 4153 -91 3862 251 
Q 3572 594 3572 1178 
Q 3572 1766 3864 2108 
Q 4156 2450 4653 2450 
z
M 1428 4353 
Q 1159 4353 1004 4120 
Q 850 3888 850 3481 
Q 850 3069 1003 2837 
Q 1156 2606 1428 2606 
Q 1700 2606 1854 2837 
Q 2009 3069 2009 3481 
Q 2009 3884 1853 4118 
Q 1697 4353 1428 4353 
z
M 4250 4750 
L 4750 4750 
L 1831 -91 
L 1331 -91 
L 4250 4750 
z
M 1428 4750 
Q 1922 4750 2215 4408 
Q 2509 4066 2509 3481 
Q 2509 2891 2217 2550 
Q 1925 2209 1428 2209 
Q 931 2209 642 2551 
Q 353 2894 353 3481 
Q 353 4063 643 4406 
Q 934 4750 1428 4750 
z
" transform="scale(0.015625)"/>
      <path id="DejaVuSans-29" d="M 513 4856 
L 1013 4856 
Q 1481 4119 1714 3412 
Q 1947 2706 1947 2009 
Q 1947 1309 1714 600 
Q 1481 -109 1013 -844 
L 513 -844 
Q 928 -128 1133 580 
Q 1338 1288 1338 2009 
Q 1338 2731 1133 3434 
Q 928 4138 513 4856 
z
" transform="scale(0.015625)"/>
     </defs>
     <use xlink:href="#DejaVuSans-41"/>
     <use xlink:href="#DejaVuSans-63" transform="translate(66.658203 0)"/>
     <use xlink:href="#DejaVuSans-74" transform="translate(121.638672 0)"/>
     <use xlink:href="#DejaVuSans-69" transform="translate(160.847656 0)"/>
     <use xlink:href="#DejaVuSans-76" transform="translate(188.630859 0)"/>
     <use xlink:href="#DejaVuSans-65" transform="translate(247.810547 0)"/>
     <use xlink:href="#DejaVuSans-20" transform="translate(309.333984 0)"/>
     <use xlink:href="#DejaVuSans-73" transform="translate(341.121094 0)"/>
     <use xlink:href="#DejaVuSans-6f" transform="translate(393.220703 0)"/>
     <use xlink:href="#DejaVuSans-75" transform="translate(454.402344 0)"/>
     <use xlink:href="#DejaVuSans-72" transform="translate(517.78125 0)"/>
     <use xlink:href="#DejaVuSans-63" transform="translate(556.644531 0)"/>
     <use xlink:href="#DejaVuSans-65" transform="translate(611.625 0)"/>
     <use xlink:href="#DejaVuSans-73" transform="translate(673.148438 0)"/>
     <use xlink:href="#DejaVuSans-20" transform="translate(725.248047 0)"/>
     <use xlink:href="#DejaVuSans-69" transform="translate(757.035156 0)"/>
     <use xlink:href="#DejaVuSans-6e" transform="translate(784.818359 0)"/>
     <use xlink:href="#DejaVuSans-20" transform="translate(848.197266 0)"/>
     <use xlink:href="#DejaVuSans-63" transform="translate(879.984375 0)"/>
     <use xlink:href="#DejaVuSans-6f" transform="translate(934.964844 0)"/>
     <use xlink:href="#DejaVuSans-6e" transform="translate(996.146484 0)"/>
     <use xlink:href="#DejaVuSans-74" transform="translate(1059.525391 0)"/>
     <use xlink:href="#DejaVuSans-65" transform="translate(1098.734375 0)"/>
     <use xlink:href="#DejaVuSans-78" transform="translate(1158.507812 0)"/>
     <use xlink:href="#DejaVuSans-74" transform="translate(1217.6875 0)"/>
     <use xlink:href="#DejaVuSans-28" transform="translate(1256.896484 0)"/>
     <use xlink:href="#DejaVuSans-25" transform="translate(1295.910156 0)"/>
     <use xlink:href="#DejaVuSans-29" transform="translate(1390.929688 0)"/>
    </g>
   </g>
  </g>
  <g id="axes_3">
   <g id="patch_14">
    <path d="M 415.07875 245.93875 
L 543.1125 245.93875 
L 543.1125 26.88 
L 415.07875 26.88 
z
" style="fill: #ffffff"/>
   </g>
   <g id="matplotlib.axis_5">
    <g id="xtick_3">
     <g id="line2d_27">
      <g>
       <use xlink:href="#m16ae0aaf13" x="479.095625" y="245.93875" style="stroke: #000000; stroke-width: 0.8"/>
      </g>
     </g>
     <g id="text_21">
      <!-- BLD -->
      <g transform="translate(469.029219 260.537188) scale(0.1 -0.1)">
       <use xlink:href="#DejaVuSans-42"/>
       <use xlink:href="#DejaVuSans-4c" transform="translate(68.603516 0)"/>
       <use xlink:href="#DejaVuSans-44" transform="translate(124.316406 0)"/>
      </g>
     </g>
    </g>
    <g id="text_22">
     <!-- dataset -->
     <g transform="translate(460.191719 274.215312) scale(0.1 -0.1)">
      <use xlink:href="#DejaVuSans-64"/>
      <use xlink:href="#DejaVuSans-61" transform="translate(63.476562 0)"/>
      <use xlink:href="#DejaVuSans-74" transform="translate(124.755859 0)"/>
      <use xlink:href="#DejaVuSans-61" transform="translate(163.964844 0)"/>
      <use xlink:href="#DejaVuSans-73" transform="translate(225.244141 0)"/>
      <use xlink:href="#DejaVuSans-65" transform="translate(277.34375 0)"/>
      <use xlink:href="#DejaVuSans-74" transform="translate(338.867188 0)"/>
     </g>
    </g>
   </g>
   <g id="matplotlib.axis_6">
    <g id="ytick_13">
     <g id="line2d_28">
      <g>
       <use xlink:href="#me29c94d9c1" x="415.07875" y="235.981534" style="stroke: #000000; stroke-width: 0.8"/>
      </g>
     </g>
     <g id="text_23">
      <!-- 0 -->
      <g transform="translate(401.71625 239.780753) scale(0.1 -0.1)">
       <use xlink:href="#DejaVuSans-30"/>
      </g>
     </g>
    </g>
    <g id="ytick_14">
     <g id="line2d_29">
      <g>
       <use xlink:href="#me29c94d9c1" x="415.07875" y="195.026404" style="stroke: #000000; stroke-width: 0.8"/>
      </g>
     </g>
     <g id="text_24">
      <!-- 20 -->
      <g transform="translate(395.35375 198.825623) scale(0.1 -0.1)">
       <use xlink:href="#DejaVuSans-32"/>
       <use xlink:href="#DejaVuSans-30" transform="translate(63.623047 0)"/>
      </g>
     </g>
    </g>
    <g id="ytick_15">
     <g id="line2d_30">
      <g>
       <use xlink:href="#me29c94d9c1" x="415.07875" y="154.071275" style="stroke: #000000; stroke-width: 0.8"/>
      </g>
     </g>
     <g id="text_25">
      <!-- 40 -->
      <g transform="translate(395.35375 157.870493) scale(0.1 -0.1)">
       <use xlink:href="#DejaVuSans-34"/>
       <use xlink:href="#DejaVuSans-30" transform="translate(63.623047 0)"/>
      </g>
     </g>
    </g>
    <g id="ytick_16">
     <g id="line2d_31">
      <g>
       <use xlink:href="#me29c94d9c1" x="415.07875" y="113.116145" style="stroke: #000000; stroke-width: 0.8"/>
      </g>
     </g>
     <g id="text_26">
      <!-- 60 -->
      <g transform="translate(395.35375 116.915364) scale(0.1 -0.1)">
       <use xlink:href="#DejaVuSans-36"/>
       <use xlink:href="#DejaVuSans-30" transform="translate(63.623047 0)"/>
      </g>
     </g>
    </g>
    <g id="ytick_17">
     <g id="line2d_32">
      <g>
       <use xlink:href="#me29c94d9c1" x="415.07875" y="72.161015" style="stroke: #000000; stroke-width: 0.8"/>
      </g>
     </g>
     <g id="text_27">
      <!-- 80 -->
      <g transform="translate(395.35375 75.960234) scale(0.1 -0.1)">
       <use xlink:href="#DejaVuSans-38"/>
       <use xlink:href="#DejaVuSans-30" transform="translate(63.623047 0)"/>
      </g>
     </g>
    </g>
    <g id="ytick_18">
     <g id="line2d_33">
      <g>
       <use xlink:href="#me29c94d9c1" x="415.07875" y="31.205886" style="stroke: #000000; stroke-width: 0.8"/>
      </g>
     </g>
     <g id="text_28">
      <!-- 100 -->
      <g transform="translate(388.99125 35.005104) scale(0.1 -0.1)">
       <use xlink:href="#DejaVuSans-31"/>
       <use xlink:href="#DejaVuSans-30" transform="translate(63.623047 0)"/>
       <use xlink:href="#DejaVuSans-30" transform="translate(127.246094 0)"/>
      </g>
     </g>
    </g>
    <g id="text_29">
     <!-- sparsity_pcr -->
     <g transform="translate(382.633438 166.7) rotate(-90) scale(0.1 -0.1)">
      <defs>
       <path id="DejaVuSans-79" d="M 2059 -325 
Q 1816 -950 1584 -1140 
Q 1353 -1331 966 -1331 
L 506 -1331 
L 506 -850 
L 844 -850 
Q 1081 -850 1212 -737 
Q 1344 -625 1503 -206 
L 1606 56 
L 191 3500 
L 800 3500 
L 1894 763 
L 2988 3500 
L 3597 3500 
L 2059 -325 
z
" transform="scale(0.015625)"/>
      </defs>
      <use xlink:href="#DejaVuSans-73"/>
      <use xlink:href="#DejaVuSans-70" transform="translate(52.099609 0)"/>
      <use xlink:href="#DejaVuSans-61" transform="translate(115.576172 0)"/>
      <use xlink:href="#DejaVuSans-72" transform="translate(176.855469 0)"/>
      <use xlink:href="#DejaVuSans-73" transform="translate(217.96875 0)"/>
      <use xlink:href="#DejaVuSans-69" transform="translate(270.068359 0)"/>
      <use xlink:href="#DejaVuSans-74" transform="translate(297.851562 0)"/>
      <use xlink:href="#DejaVuSans-79" transform="translate(337.060547 0)"/>
      <use xlink:href="#DejaVuSans-5f" transform="translate(396.240234 0)"/>
      <use xlink:href="#DejaVuSans-70" transform="translate(446.240234 0)"/>
      <use xlink:href="#DejaVuSans-63" transform="translate(509.716797 0)"/>
      <use xlink:href="#DejaVuSans-72" transform="translate(564.697266 0)"/>
     </g>
    </g>
   </g>
   <g id="patch_15">
    <path d="M 427.882125 94.563471 
L 530.309125 94.563471 
L 530.309125 62.597992 
L 427.882125 62.597992 
L 427.882125 94.563471 
z
" clip-path="url(#p851e1dbc34)" style="fill: #3274a1; stroke: #3f3f3f; stroke-linejoin: miter"/>
   </g>
   <g id="line2d_34">
    <path d="M 479.095625 94.563471 
L 479.095625 141.825691 
" clip-path="url(#p851e1dbc34)" style="fill: none; stroke: #3f3f3f"/>
   </g>
   <g id="line2d_35">
    <path d="M 479.095625 62.597992 
L 479.095625 36.837216 
" clip-path="url(#p851e1dbc34)" style="fill: none; stroke: #3f3f3f"/>
   </g>
   <g id="line2d_36">
    <path d="M 453.488875 141.825691 
L 504.702375 141.825691 
" clip-path="url(#p851e1dbc34)" style="fill: none; stroke: #3f3f3f; stroke-linecap: square"/>
   </g>
   <g id="line2d_37">
    <path d="M 453.488875 36.837216 
L 504.702375 36.837216 
" clip-path="url(#p851e1dbc34)" style="fill: none; stroke: #3f3f3f; stroke-linecap: square"/>
   </g>
   <g id="line2d_38">
    <g clip-path="url(#p851e1dbc34)">
     <use xlink:href="#me5c94bf8fd" x="479.095625" y="235.981534" style="fill-opacity: 0; stroke: #3f3f3f"/>
     <use xlink:href="#me5c94bf8fd" x="479.095625" y="235.981534" style="fill-opacity: 0; stroke: #3f3f3f"/>
     <use xlink:href="#me5c94bf8fd" x="479.095625" y="193.695363" style="fill-opacity: 0; stroke: #3f3f3f"/>
     <use xlink:href="#me5c94bf8fd" x="479.095625" y="143.832492" style="fill-opacity: 0; stroke: #3f3f3f"/>
     <use xlink:href="#me5c94bf8fd" x="479.095625" y="145.061146" style="fill-opacity: 0; stroke: #3f3f3f"/>
     <use xlink:href="#me5c94bf8fd" x="479.095625" y="235.981534" style="fill-opacity: 0; stroke: #3f3f3f"/>
     <use xlink:href="#me5c94bf8fd" x="479.095625" y="148.706153" style="fill-opacity: 0; stroke: #3f3f3f"/>
     <use xlink:href="#me5c94bf8fd" x="479.095625" y="235.981534" style="fill-opacity: 0; stroke: #3f3f3f"/>
     <use xlink:href="#me5c94bf8fd" x="479.095625" y="150.712954" style="fill-opacity: 0; stroke: #3f3f3f"/>
     <use xlink:href="#me5c94bf8fd" x="479.095625" y="189.210776" style="fill-opacity: 0; stroke: #3f3f3f"/>
     <use xlink:href="#me5c94bf8fd" x="479.095625" y="235.981534" style="fill-opacity: 0; stroke: #3f3f3f"/>
     <use xlink:href="#me5c94bf8fd" x="479.095625" y="235.981534" style="fill-opacity: 0; stroke: #3f3f3f"/>
     <use xlink:href="#me5c94bf8fd" x="479.095625" y="149.56621" style="fill-opacity: 0; stroke: #3f3f3f"/>
     <use xlink:href="#me5c94bf8fd" x="479.095625" y="146.269322" style="fill-opacity: 0; stroke: #3f3f3f"/>
     <use xlink:href="#me5c94bf8fd" x="479.095625" y="186.036753" style="fill-opacity: 0; stroke: #3f3f3f"/>
     <use xlink:href="#me5c94bf8fd" x="479.095625" y="235.981534" style="fill-opacity: 0; stroke: #3f3f3f"/>
     <use xlink:href="#me5c94bf8fd" x="479.095625" y="235.981534" style="fill-opacity: 0; stroke: #3f3f3f"/>
     <use xlink:href="#me5c94bf8fd" x="479.095625" y="235.981534" style="fill-opacity: 0; stroke: #3f3f3f"/>
     <use xlink:href="#me5c94bf8fd" x="479.095625" y="235.981534" style="fill-opacity: 0; stroke: #3f3f3f"/>
     <use xlink:href="#me5c94bf8fd" x="479.095625" y="187.961645" style="fill-opacity: 0; stroke: #3f3f3f"/>
     <use xlink:href="#me5c94bf8fd" x="479.095625" y="235.981534" style="fill-opacity: 0; stroke: #3f3f3f"/>
     <use xlink:href="#me5c94bf8fd" x="479.095625" y="186.814901" style="fill-opacity: 0; stroke: #3f3f3f"/>
     <use xlink:href="#me5c94bf8fd" x="479.095625" y="152.535457" style="fill-opacity: 0; stroke: #3f3f3f"/>
     <use xlink:href="#me5c94bf8fd" x="479.095625" y="170.350939" style="fill-opacity: 0; stroke: #3f3f3f"/>
     <use xlink:href="#me5c94bf8fd" x="479.095625" y="235.981534" style="fill-opacity: 0; stroke: #3f3f3f"/>
     <use xlink:href="#me5c94bf8fd" x="479.095625" y="197.237981" style="fill-opacity: 0; stroke: #3f3f3f"/>
     <use xlink:href="#me5c94bf8fd" x="479.095625" y="235.981534" style="fill-opacity: 0; stroke: #3f3f3f"/>
     <use xlink:href="#me5c94bf8fd" x="479.095625" y="181.572644" style="fill-opacity: 0; stroke: #3f3f3f"/>
     <use xlink:href="#me5c94bf8fd" x="479.095625" y="161.320333" style="fill-opacity: 0; stroke: #3f3f3f"/>
     <use xlink:href="#me5c94bf8fd" x="479.095625" y="191.36092" style="fill-opacity: 0; stroke: #3f3f3f"/>
     <use xlink:href="#me5c94bf8fd" x="479.095625" y="163.224746" style="fill-opacity: 0; stroke: #3f3f3f"/>
     <use xlink:href="#me5c94bf8fd" x="479.095625" y="235.981534" style="fill-opacity: 0; stroke: #3f3f3f"/>
     <use xlink:href="#me5c94bf8fd" x="479.095625" y="145.880249" style="fill-opacity: 0; stroke: #3f3f3f"/>
     <use xlink:href="#me5c94bf8fd" x="479.095625" y="147.04747" style="fill-opacity: 0; stroke: #3f3f3f"/>
     <use xlink:href="#me5c94bf8fd" x="479.095625" y="235.981534" style="fill-opacity: 0; stroke: #3f3f3f"/>
     <use xlink:href="#me5c94bf8fd" x="479.095625" y="235.981534" style="fill-opacity: 0; stroke: #3f3f3f"/>
    </g>
   </g>
   <g id="line2d_39">
    <path d="M 427.882125 73.778743 
L 530.309125 73.778743 
" clip-path="url(#p851e1dbc34)" style="fill: none; stroke: #3f3f3f"/>
   </g>
   <g id="patch_16">
    <path d="M 415.07875 245.93875 
L 415.07875 26.88 
" style="fill: none; stroke: #000000; stroke-width: 0.8; stroke-linejoin: miter; stroke-linecap: square"/>
   </g>
   <g id="patch_17">
    <path d="M 543.1125 245.93875 
L 543.1125 26.88 
" style="fill: none; stroke: #000000; stroke-width: 0.8; stroke-linejoin: miter; stroke-linecap: square"/>
   </g>
   <g id="patch_18">
    <path d="M 415.07875 245.93875 
L 543.1125 245.93875 
" style="fill: none; stroke: #000000; stroke-width: 0.8; stroke-linejoin: miter; stroke-linecap: square"/>
   </g>
   <g id="patch_19">
    <path d="M 415.07875 26.88 
L 543.1125 26.88 
" style="fill: none; stroke: #000000; stroke-width: 0.8; stroke-linejoin: miter; stroke-linecap: square"/>
   </g>
   <g id="text_30">
    <!-- Zero count Percentage -->
    <g transform="translate(410.8025 20.88) scale(0.12 -0.12)">
     <defs>
      <path id="DejaVuSans-5a" d="M 359 4666 
L 4025 4666 
L 4025 4184 
L 1075 531 
L 4097 531 
L 4097 0 
L 288 0 
L 288 481 
L 3238 4134 
L 359 4134 
L 359 4666 
z
" transform="scale(0.015625)"/>
      <path id="DejaVuSans-50" d="M 1259 4147 
L 1259 2394 
L 2053 2394 
Q 2494 2394 2734 2622 
Q 2975 2850 2975 3272 
Q 2975 3691 2734 3919 
Q 2494 4147 2053 4147 
L 1259 4147 
z
M 628 4666 
L 2053 4666 
Q 2838 4666 3239 4311 
Q 3641 3956 3641 3272 
Q 3641 2581 3239 2228 
Q 2838 1875 2053 1875 
L 1259 1875 
L 1259 0 
L 628 0 
L 628 4666 
z
" transform="scale(0.015625)"/>
      <path id="DejaVuSans-67" d="M 2906 1791 
Q 2906 2416 2648 2759 
Q 2391 3103 1925 3103 
Q 1463 3103 1205 2759 
Q 947 2416 947 1791 
Q 947 1169 1205 825 
Q 1463 481 1925 481 
Q 2391 481 2648 825 
Q 2906 1169 2906 1791 
z
M 3481 434 
Q 3481 -459 3084 -895 
Q 2688 -1331 1869 -1331 
Q 1566 -1331 1297 -1286 
Q 1028 -1241 775 -1147 
L 775 -588 
Q 1028 -725 1275 -790 
Q 1522 -856 1778 -856 
Q 2344 -856 2625 -561 
Q 2906 -266 2906 331 
L 2906 616 
Q 2728 306 2450 153 
Q 2172 0 1784 0 
Q 1141 0 747 490 
Q 353 981 353 1791 
Q 353 2603 747 3093 
Q 1141 3584 1784 3584 
Q 2172 3584 2450 3431 
Q 2728 3278 2906 2969 
L 2906 3500 
L 3481 3500 
L 3481 434 
z
" transform="scale(0.015625)"/>
     </defs>
     <use xlink:href="#DejaVuSans-5a"/>
     <use xlink:href="#DejaVuSans-65" transform="translate(68.505859 0)"/>
     <use xlink:href="#DejaVuSans-72" transform="translate(130.029297 0)"/>
     <use xlink:href="#DejaVuSans-6f" transform="translate(168.892578 0)"/>
     <use xlink:href="#DejaVuSans-20" transform="translate(230.074219 0)"/>
     <use xlink:href="#DejaVuSans-63" transform="translate(261.861328 0)"/>
     <use xlink:href="#DejaVuSans-6f" transform="translate(316.841797 0)"/>
     <use xlink:href="#DejaVuSans-75" transform="translate(378.023438 0)"/>
     <use xlink:href="#DejaVuSans-6e" transform="translate(441.402344 0)"/>
     <use xlink:href="#DejaVuSans-74" transform="translate(504.78125 0)"/>
     <use xlink:href="#DejaVuSans-20" transform="translate(543.990234 0)"/>
     <use xlink:href="#DejaVuSans-50" transform="translate(575.777344 0)"/>
     <use xlink:href="#DejaVuSans-65" transform="translate(632.455078 0)"/>
     <use xlink:href="#DejaVuSans-72" transform="translate(693.978516 0)"/>
     <use xlink:href="#DejaVuSans-63" transform="translate(732.841797 0)"/>
     <use xlink:href="#DejaVuSans-65" transform="translate(787.822266 0)"/>
     <use xlink:href="#DejaVuSans-6e" transform="translate(849.345703 0)"/>
     <use xlink:href="#DejaVuSans-74" transform="translate(912.724609 0)"/>
     <use xlink:href="#DejaVuSans-61" transform="translate(951.933594 0)"/>
     <use xlink:href="#DejaVuSans-67" transform="translate(1013.212891 0)"/>
     <use xlink:href="#DejaVuSans-65" transform="translate(1076.689453 0)"/>
    </g>
   </g>
  </g>
  <g id="axes_4">
   <g id="patch_20">
    <path d="M 597.1325 245.93875 
L 853.2 245.93875 
L 853.2 26.88 
L 597.1325 26.88 
z
" style="fill: #ffffff"/>
   </g>
   <g id="FillBetweenPolyCollection_1">
    <defs>
     <path id="mf0085d74a8" d="M 608.771932 -42.088918 
L 608.771932 -42.06125 
L 609.941724 -42.06125 
L 611.111516 -42.06125 
L 612.281308 -42.06125 
L 613.4511 -42.06125 
L 614.620893 -42.06125 
L 615.790685 -42.06125 
L 616.960477 -42.06125 
L 618.130269 -42.06125 
L 619.300061 -42.06125 
L 620.469853 -42.06125 
L 621.639645 -42.06125 
L 622.809438 -42.06125 
L 623.97923 -42.06125 
L 625.149022 -42.06125 
L 626.318814 -42.06125 
L 627.488606 -42.06125 
L 628.658398 -42.06125 
L 629.82819 -42.06125 
L 630.997983 -42.06125 
L 632.167775 -42.06125 
L 633.337567 -42.06125 
L 634.507359 -42.06125 
L 635.677151 -42.06125 
L 636.846943 -42.06125 
L 638.016735 -42.06125 
L 639.186528 -42.06125 
L 640.35632 -42.06125 
L 641.526112 -42.06125 
L 642.695904 -42.06125 
L 643.865696 -42.06125 
L 645.035488 -42.06125 
L 646.20528 -42.06125 
L 647.375073 -42.06125 
L 648.544865 -42.06125 
L 649.714657 -42.06125 
L 650.884449 -42.06125 
L 652.054241 -42.06125 
L 653.224033 -42.06125 
L 654.393825 -42.06125 
L 655.563618 -42.06125 
L 656.73341 -42.06125 
L 657.903202 -42.06125 
L 659.072994 -42.06125 
L 660.242786 -42.06125 
L 661.412578 -42.06125 
L 662.58237 -42.06125 
L 663.752163 -42.06125 
L 664.921955 -42.06125 
L 666.091747 -42.06125 
L 667.261539 -42.06125 
L 668.431331 -42.06125 
L 669.601123 -42.06125 
L 670.770915 -42.06125 
L 671.940708 -42.06125 
L 673.1105 -42.06125 
L 674.280292 -42.06125 
L 675.450084 -42.06125 
L 676.619876 -42.06125 
L 677.789668 -42.06125 
L 678.95946 -42.06125 
L 680.129253 -42.06125 
L 681.299045 -42.06125 
L 682.468837 -42.06125 
L 683.638629 -42.06125 
L 684.808421 -42.06125 
L 685.978213 -42.06125 
L 687.148005 -42.06125 
L 688.317798 -42.06125 
L 689.48759 -42.06125 
L 690.657382 -42.06125 
L 691.827174 -42.06125 
L 692.996966 -42.06125 
L 694.166758 -42.06125 
L 695.33655 -42.06125 
L 696.506343 -42.06125 
L 697.676135 -42.06125 
L 698.845927 -42.06125 
L 700.015719 -42.06125 
L 701.185511 -42.06125 
L 702.355303 -42.06125 
L 703.525095 -42.06125 
L 704.694888 -42.06125 
L 705.86468 -42.06125 
L 707.034472 -42.06125 
L 708.204264 -42.06125 
L 709.374056 -42.06125 
L 710.543848 -42.06125 
L 711.71364 -42.06125 
L 712.883433 -42.06125 
L 714.053225 -42.06125 
L 715.223017 -42.06125 
L 716.392809 -42.06125 
L 717.562601 -42.06125 
L 718.732393 -42.06125 
L 719.902185 -42.06125 
L 721.071978 -42.06125 
L 722.24177 -42.06125 
L 723.411562 -42.06125 
L 724.581354 -42.06125 
L 725.751146 -42.06125 
L 726.920938 -42.06125 
L 728.09073 -42.06125 
L 729.260522 -42.06125 
L 730.430315 -42.06125 
L 731.600107 -42.06125 
L 732.769899 -42.06125 
L 733.939691 -42.06125 
L 735.109483 -42.06125 
L 736.279275 -42.06125 
L 737.449067 -42.06125 
L 738.61886 -42.06125 
L 739.788652 -42.06125 
L 740.958444 -42.06125 
L 742.128236 -42.06125 
L 743.298028 -42.06125 
L 744.46782 -42.06125 
L 745.637612 -42.06125 
L 746.807405 -42.06125 
L 747.977197 -42.06125 
L 749.146989 -42.06125 
L 750.316781 -42.06125 
L 751.486573 -42.06125 
L 752.656365 -42.06125 
L 753.826157 -42.06125 
L 754.99595 -42.06125 
L 756.165742 -42.06125 
L 757.335534 -42.06125 
L 758.505326 -42.06125 
L 759.675118 -42.06125 
L 760.84491 -42.06125 
L 762.014702 -42.06125 
L 763.184495 -42.06125 
L 764.354287 -42.06125 
L 765.524079 -42.06125 
L 766.693871 -42.06125 
L 767.863663 -42.06125 
L 769.033455 -42.06125 
L 770.203247 -42.06125 
L 771.37304 -42.06125 
L 772.542832 -42.06125 
L 773.712624 -42.06125 
L 774.882416 -42.06125 
L 776.052208 -42.06125 
L 777.222 -42.06125 
L 778.391792 -42.06125 
L 779.561585 -42.06125 
L 780.731377 -42.06125 
L 781.901169 -42.06125 
L 783.070961 -42.06125 
L 784.240753 -42.06125 
L 785.410545 -42.06125 
L 786.580337 -42.06125 
L 787.75013 -42.06125 
L 788.919922 -42.06125 
L 790.089714 -42.06125 
L 791.259506 -42.06125 
L 792.429298 -42.06125 
L 793.59909 -42.06125 
L 794.768882 -42.06125 
L 795.938675 -42.06125 
L 797.108467 -42.06125 
L 798.278259 -42.06125 
L 799.448051 -42.06125 
L 800.617843 -42.06125 
L 801.787635 -42.06125 
L 802.957427 -42.06125 
L 804.12722 -42.06125 
L 805.297012 -42.06125 
L 806.466804 -42.06125 
L 807.636596 -42.06125 
L 808.806388 -42.06125 
L 809.97618 -42.06125 
L 811.145972 -42.06125 
L 812.315765 -42.06125 
L 813.485557 -42.06125 
L 814.655349 -42.06125 
L 815.825141 -42.06125 
L 816.994933 -42.06125 
L 818.164725 -42.06125 
L 819.334517 -42.06125 
L 820.50431 -42.06125 
L 821.674102 -42.06125 
L 822.843894 -42.06125 
L 824.013686 -42.06125 
L 825.183478 -42.06125 
L 826.35327 -42.06125 
L 827.523062 -42.06125 
L 828.692855 -42.06125 
L 829.862647 -42.06125 
L 831.032439 -42.06125 
L 832.202231 -42.06125 
L 833.372023 -42.06125 
L 834.541815 -42.06125 
L 835.711607 -42.06125 
L 836.8814 -42.06125 
L 838.051192 -42.06125 
L 839.220984 -42.06125 
L 840.390776 -42.06125 
L 841.560568 -42.06125 
L 841.560568 -42.090653 
L 841.560568 -42.090653 
L 840.390776 -42.104879 
L 839.220984 -42.124941 
L 838.051192 -42.152727 
L 836.8814 -42.190526 
L 835.711607 -42.241024 
L 834.541815 -42.307275 
L 833.372023 -42.392631 
L 832.202231 -42.50061 
L 831.032439 -42.634734 
L 829.862647 -42.798302 
L 828.692855 -42.994136 
L 827.523062 -43.224304 
L 826.35327 -43.48985 
L 825.183478 -43.790555 
L 824.013686 -44.124752 
L 822.843894 -44.489243 
L 821.674102 -44.879304 
L 820.50431 -45.288817 
L 819.334517 -45.710509 
L 818.164725 -46.136282 
L 816.994933 -46.557607 
L 815.825141 -46.965956 
L 814.655349 -47.353207 
L 813.485557 -47.712019 
L 812.315765 -48.03612 
L 811.145972 -48.320512 
L 809.97618 -48.561571 
L 808.806388 -48.757068 
L 807.636596 -48.90611 
L 806.466804 -49.009034 
L 805.297012 -49.067278 
L 804.12722 -49.083229 
L 802.957427 -49.060087 
L 801.787635 -49.001728 
L 800.617843 -48.912573 
L 799.448051 -48.79747 
L 798.278259 -48.661572 
L 797.108467 -48.510213 
L 795.938675 -48.348794 
L 794.768882 -48.18267 
L 793.59909 -48.017069 
L 792.429298 -47.857024 
L 791.259506 -47.707353 
L 790.089714 -47.572671 
L 788.919922 -47.45744 
L 787.75013 -47.366032 
L 786.580337 -47.302809 
L 785.410545 -47.27218 
L 784.240753 -47.278623 
L 783.070961 -47.326655 
L 781.901169 -47.420733 
L 780.731377 -47.565086 
L 779.561585 -47.763482 
L 778.391792 -48.018943 
L 777.222 -48.333429 
L 776.052208 -48.707522 
L 774.882416 -49.140135 
L 773.712624 -49.62829 
L 772.542832 -50.166975 
L 771.37304 -50.749131 
L 770.203247 -51.365764 
L 769.033455 -52.006212 
L 767.863663 -52.658562 
L 766.693871 -53.3102 
L 765.524079 -53.948493 
L 764.354287 -54.561545 
L 763.184495 -55.139012 
L 762.014702 -55.672912 
L 760.84491 -56.158381 
L 759.675118 -56.594322 
L 758.505326 -56.983901 
L 757.335534 -57.33484 
L 756.165742 -57.659474 
L 754.99595 -57.974557 
L 753.826157 -58.300796 
L 752.656365 -58.662131 
L 751.486573 -59.084781 
L 750.316781 -59.596081 
L 749.146989 -60.223174 
L 747.977197 -60.991604 
L 746.807405 -61.923899 
L 745.637612 -63.0382 
L 744.46782 -64.347042 
L 743.298028 -65.856355 
L 742.128236 -67.564758 
L 740.958444 -69.463234 
L 739.788652 -71.535214 
L 738.61886 -73.757098 
L 737.449067 -76.099231 
L 736.279275 -78.527274 
L 735.109483 -81.003914 
L 733.939691 -83.490809 
L 732.769899 -85.950629 
L 731.600107 -88.349053 
L 730.430315 -90.656561 
L 729.260522 -92.84988 
L 728.09073 -94.912981 
L 726.920938 -96.837553 
L 725.751146 -98.622954 
L 724.581354 -100.275695 
L 723.411562 -101.80856 
L 722.24177 -103.239521 
L 721.071978 -104.590608 
L 719.902185 -105.886885 
L 718.732393 -107.155656 
L 717.562601 -108.425942 
L 716.392809 -109.728226 
L 715.223017 -111.094367 
L 714.053225 -112.557547 
L 712.883433 -114.152087 
L 711.71364 -115.912966 
L 710.543848 -117.874946 
L 709.374056 -120.071232 
L 708.204264 -122.531757 
L 707.034472 -125.281193 
L 705.86468 -128.33693 
L 704.694888 -131.707266 
L 703.525095 -135.390089 
L 702.355303 -139.372249 
L 701.185511 -143.629802 
L 700.015719 -148.129146 
L 698.845927 -152.828996 
L 697.676135 -157.68302 
L 696.506343 -162.642882 
L 695.33655 -167.661385 
L 694.166758 -172.695396 
L 692.996966 -177.708267 
L 691.827174 -182.671506 
L 690.657382 -187.565564 
L 689.48759 -192.379656 
L 688.317798 -197.110646 
L 687.148005 -201.761094 
L 685.978213 -206.336635 
L 684.808421 -210.8429 
L 683.638629 -215.282236 
L 682.468837 -219.65049 
L 681.299045 -223.934134 
L 680.129253 -228.107986 
L 678.95946 -232.133752 
L 677.789668 -235.95956 
L 676.619876 -239.520591 
L 675.450084 -242.740802 
L 674.280292 -245.53567 
L 673.1105 -247.81577 
L 671.940708 -249.490935 
L 670.770915 -250.474689 
L 669.601123 -250.688631 
L 668.431331 -250.066462 
L 667.261539 -248.557387 
L 666.091747 -246.128719 
L 664.921955 -242.767561 
L 663.752163 -238.481559 
L 662.58237 -233.298753 
L 661.412578 -227.266631 
L 660.242786 -220.450504 
L 659.072994 -212.931327 
L 657.903202 -204.803105 
L 656.73341 -196.169993 
L 655.563618 -187.143209 
L 654.393825 -177.837853 
L 653.224033 -168.369752 
L 652.054241 -158.852417 
L 650.884449 -149.394223 
L 649.714657 -140.095921 
L 648.544865 -131.048553 
L 647.375073 -122.331842 
L 646.20528 -114.013103 
L 645.035488 -106.146666 
L 643.865696 -98.773801 
L 642.695904 -91.923083 
L 641.526112 -85.611132 
L 640.35632 -79.843632 
L 639.186528 -74.616558 
L 638.016735 -69.917517 
L 636.846943 -65.727135 
L 635.677151 -62.020432 
L 634.507359 -58.768137 
L 633.337567 -55.937916 
L 632.167775 -53.495482 
L 630.997983 -51.405585 
L 629.82819 -49.632873 
L 628.658398 -48.142618 
L 627.488606 -46.901316 
L 626.318814 -45.877176 
L 625.149022 -45.040475 
L 623.97923 -44.363827 
L 622.809438 -43.822348 
L 621.639645 -43.39373 
L 620.469853 -43.058252 
L 619.300061 -42.798714 
L 618.130269 -42.600325 
L 616.960477 -42.450544 
L 615.790685 -42.338895 
L 614.620893 -42.256752 
L 613.4511 -42.197123 
L 612.281308 -42.154429 
L 611.111516 -42.124287 
L 609.941724 -42.103308 
L 608.771932 -42.088918 
z
" style="stroke: #1f77b4"/>
    </defs>
    <g clip-path="url(#p3a92a22750)">
     <use xlink:href="#mf0085d74a8" x="0" y="288" style="fill: #1f77b4; fill-opacity: 0.25; stroke: #1f77b4"/>
    </g>
   </g>
   <g id="matplotlib.axis_7">
    <g id="xtick_4">
     <g id="line2d_40">
      <g>
       <use xlink:href="#m16ae0aaf13" x="630.811016" y="245.93875" style="stroke: #000000; stroke-width: 0.8"/>
      </g>
     </g>
     <g id="text_31">
      <!-- 5 -->
      <g transform="translate(627.629766 260.537188) scale(0.1 -0.1)">
       <defs>
        <path id="DejaVuSans-35" d="M 691 4666 
L 3169 4666 
L 3169 4134 
L 1269 4134 
L 1269 2991 
Q 1406 3038 1543 3061 
Q 1681 3084 1819 3084 
Q 2600 3084 3056 2656 
Q 3513 2228 3513 1497 
Q 3513 744 3044 326 
Q 2575 -91 1722 -91 
Q 1428 -91 1123 -41 
Q 819 9 494 109 
L 494 744 
Q 775 591 1075 516 
Q 1375 441 1709 441 
Q 2250 441 2565 725 
Q 2881 1009 2881 1497 
Q 2881 1984 2565 2268 
Q 2250 2553 1709 2553 
Q 1456 2553 1204 2497 
Q 953 2441 691 2322 
L 691 4666 
z
" transform="scale(0.015625)"/>
       </defs>
       <use xlink:href="#DejaVuSans-35"/>
      </g>
     </g>
    </g>
    <g id="xtick_5">
     <g id="line2d_41">
      <g>
       <use xlink:href="#m16ae0aaf13" x="668.466547" y="245.93875" style="stroke: #000000; stroke-width: 0.8"/>
      </g>
     </g>
     <g id="text_32">
      <!-- 10 -->
      <g transform="translate(662.104047 260.537188) scale(0.1 -0.1)">
       <use xlink:href="#DejaVuSans-31"/>
       <use xlink:href="#DejaVuSans-30" transform="translate(63.623047 0)"/>
      </g>
     </g>
    </g>
    <g id="xtick_6">
     <g id="line2d_42">
      <g>
       <use xlink:href="#m16ae0aaf13" x="706.122078" y="245.93875" style="stroke: #000000; stroke-width: 0.8"/>
      </g>
     </g>
     <g id="text_33">
      <!-- 15 -->
      <g transform="translate(699.759578 260.537188) scale(0.1 -0.1)">
       <use xlink:href="#DejaVuSans-31"/>
       <use xlink:href="#DejaVuSans-35" transform="translate(63.623047 0)"/>
      </g>
     </g>
    </g>
    <g id="xtick_7">
     <g id="line2d_43">
      <g>
       <use xlink:href="#m16ae0aaf13" x="743.777609" y="245.93875" style="stroke: #000000; stroke-width: 0.8"/>
      </g>
     </g>
     <g id="text_34">
      <!-- 20 -->
      <g transform="translate(737.415109 260.537188) scale(0.1 -0.1)">
       <use xlink:href="#DejaVuSans-32"/>
       <use xlink:href="#DejaVuSans-30" transform="translate(63.623047 0)"/>
      </g>
     </g>
    </g>
    <g id="xtick_8">
     <g id="line2d_44">
      <g>
       <use xlink:href="#m16ae0aaf13" x="781.43314" y="245.93875" style="stroke: #000000; stroke-width: 0.8"/>
      </g>
     </g>
     <g id="text_35">
      <!-- 25 -->
      <g transform="translate(775.07064 260.537188) scale(0.1 -0.1)">
       <use xlink:href="#DejaVuSans-32"/>
       <use xlink:href="#DejaVuSans-35" transform="translate(63.623047 0)"/>
      </g>
     </g>
    </g>
    <g id="xtick_9">
     <g id="line2d_45">
      <g>
       <use xlink:href="#m16ae0aaf13" x="819.088671" y="245.93875" style="stroke: #000000; stroke-width: 0.8"/>
      </g>
     </g>
     <g id="text_36">
      <!-- 30 -->
      <g transform="translate(812.726171 260.537188) scale(0.1 -0.1)">
       <defs>
        <path id="DejaVuSans-33" d="M 2597 2516 
Q 3050 2419 3304 2112 
Q 3559 1806 3559 1356 
Q 3559 666 3084 287 
Q 2609 -91 1734 -91 
Q 1441 -91 1130 -33 
Q 819 25 488 141 
L 488 750 
Q 750 597 1062 519 
Q 1375 441 1716 441 
Q 2309 441 2620 675 
Q 2931 909 2931 1356 
Q 2931 1769 2642 2001 
Q 2353 2234 1838 2234 
L 1294 2234 
L 1294 2753 
L 1863 2753 
Q 2328 2753 2575 2939 
Q 2822 3125 2822 3475 
Q 2822 3834 2567 4026 
Q 2313 4219 1838 4219 
Q 1578 4219 1281 4162 
Q 984 4106 628 3988 
L 628 4550 
Q 988 4650 1302 4700 
Q 1616 4750 1894 4750 
Q 2613 4750 3031 4423 
Q 3450 4097 3450 3541 
Q 3450 3153 3228 2886 
Q 3006 2619 2597 2516 
z
" transform="scale(0.015625)"/>
       </defs>
       <use xlink:href="#DejaVuSans-33"/>
       <use xlink:href="#DejaVuSans-30" transform="translate(63.623047 0)"/>
      </g>
     </g>
    </g>
    <g id="text_37">
     <!-- count_skew -->
     <g transform="translate(696.075625 274.215312) scale(0.1 -0.1)">
      <defs>
       <path id="DejaVuSans-6b" d="M 581 4863 
L 1159 4863 
L 1159 1991 
L 2875 3500 
L 3609 3500 
L 1753 1863 
L 3688 0 
L 2938 0 
L 1159 1709 
L 1159 0 
L 581 0 
L 581 4863 
z
" transform="scale(0.015625)"/>
       <path id="DejaVuSans-77" d="M 269 3500 
L 844 3500 
L 1563 769 
L 2278 3500 
L 2956 3500 
L 3675 769 
L 4391 3500 
L 4966 3500 
L 4050 0 
L 3372 0 
L 2619 2869 
L 1863 0 
L 1184 0 
L 269 3500 
z
" transform="scale(0.015625)"/>
      </defs>
      <use xlink:href="#DejaVuSans-63"/>
      <use xlink:href="#DejaVuSans-6f" transform="translate(54.980469 0)"/>
      <use xlink:href="#DejaVuSans-75" transform="translate(116.162109 0)"/>
      <use xlink:href="#DejaVuSans-6e" transform="translate(179.541016 0)"/>
      <use xlink:href="#DejaVuSans-74" transform="translate(242.919922 0)"/>
      <use xlink:href="#DejaVuSans-5f" transform="translate(282.128906 0)"/>
      <use xlink:href="#DejaVuSans-73" transform="translate(332.128906 0)"/>
      <use xlink:href="#DejaVuSans-6b" transform="translate(384.228516 0)"/>
      <use xlink:href="#DejaVuSans-65" transform="translate(438.513672 0)"/>
      <use xlink:href="#DejaVuSans-77" transform="translate(500.037109 0)"/>
     </g>
    </g>
   </g>
   <g id="matplotlib.axis_8">
    <g id="ytick_19">
     <g id="line2d_46">
      <g>
       <use xlink:href="#me29c94d9c1" x="597.1325" y="245.93875" style="stroke: #000000; stroke-width: 0.8"/>
      </g>
     </g>
     <g id="text_38">
      <!-- 0.00 -->
      <g transform="translate(567.866875 249.737969) scale(0.1 -0.1)">
       <defs>
        <path id="DejaVuSans-2e" d="M 684 794 
L 1344 794 
L 1344 0 
L 684 0 
L 684 794 
z
" transform="scale(0.015625)"/>
       </defs>
       <use xlink:href="#DejaVuSans-30"/>
       <use xlink:href="#DejaVuSans-2e" transform="translate(63.623047 0)"/>
       <use xlink:href="#DejaVuSans-30" transform="translate(95.410156 0)"/>
       <use xlink:href="#DejaVuSans-30" transform="translate(159.033203 0)"/>
      </g>
     </g>
    </g>
    <g id="ytick_20">
     <g id="line2d_47">
      <g>
       <use xlink:href="#me29c94d9c1" x="597.1325" y="212.459635" style="stroke: #000000; stroke-width: 0.8"/>
      </g>
     </g>
     <g id="text_39">
      <!-- 0.02 -->
      <g transform="translate(567.866875 216.258854) scale(0.1 -0.1)">
       <use xlink:href="#DejaVuSans-30"/>
       <use xlink:href="#DejaVuSans-2e" transform="translate(63.623047 0)"/>
       <use xlink:href="#DejaVuSans-30" transform="translate(95.410156 0)"/>
       <use xlink:href="#DejaVuSans-32" transform="translate(159.033203 0)"/>
      </g>
     </g>
    </g>
    <g id="ytick_21">
     <g id="line2d_48">
      <g>
       <use xlink:href="#me29c94d9c1" x="597.1325" y="178.98052" style="stroke: #000000; stroke-width: 0.8"/>
      </g>
     </g>
     <g id="text_40">
      <!-- 0.04 -->
      <g transform="translate(567.866875 182.779739) scale(0.1 -0.1)">
       <use xlink:href="#DejaVuSans-30"/>
       <use xlink:href="#DejaVuSans-2e" transform="translate(63.623047 0)"/>
       <use xlink:href="#DejaVuSans-30" transform="translate(95.410156 0)"/>
       <use xlink:href="#DejaVuSans-34" transform="translate(159.033203 0)"/>
      </g>
     </g>
    </g>
    <g id="ytick_22">
     <g id="line2d_49">
      <g>
       <use xlink:href="#me29c94d9c1" x="597.1325" y="145.501405" style="stroke: #000000; stroke-width: 0.8"/>
      </g>
     </g>
     <g id="text_41">
      <!-- 0.06 -->
      <g transform="translate(567.866875 149.300624) scale(0.1 -0.1)">
       <use xlink:href="#DejaVuSans-30"/>
       <use xlink:href="#DejaVuSans-2e" transform="translate(63.623047 0)"/>
       <use xlink:href="#DejaVuSans-30" transform="translate(95.410156 0)"/>
       <use xlink:href="#DejaVuSans-36" transform="translate(159.033203 0)"/>
      </g>
     </g>
    </g>
    <g id="ytick_23">
     <g id="line2d_50">
      <g>
       <use xlink:href="#me29c94d9c1" x="597.1325" y="112.02229" style="stroke: #000000; stroke-width: 0.8"/>
      </g>
     </g>
     <g id="text_42">
      <!-- 0.08 -->
      <g transform="translate(567.866875 115.821509) scale(0.1 -0.1)">
       <use xlink:href="#DejaVuSans-30"/>
       <use xlink:href="#DejaVuSans-2e" transform="translate(63.623047 0)"/>
       <use xlink:href="#DejaVuSans-30" transform="translate(95.410156 0)"/>
       <use xlink:href="#DejaVuSans-38" transform="translate(159.033203 0)"/>
      </g>
     </g>
    </g>
    <g id="ytick_24">
     <g id="line2d_51">
      <g>
       <use xlink:href="#me29c94d9c1" x="597.1325" y="78.543175" style="stroke: #000000; stroke-width: 0.8"/>
      </g>
     </g>
     <g id="text_43">
      <!-- 0.10 -->
      <g transform="translate(567.866875 82.342394) scale(0.1 -0.1)">
       <use xlink:href="#DejaVuSans-30"/>
       <use xlink:href="#DejaVuSans-2e" transform="translate(63.623047 0)"/>
       <use xlink:href="#DejaVuSans-31" transform="translate(95.410156 0)"/>
       <use xlink:href="#DejaVuSans-30" transform="translate(159.033203 0)"/>
      </g>
     </g>
    </g>
    <g id="ytick_25">
     <g id="line2d_52">
      <g>
       <use xlink:href="#me29c94d9c1" x="597.1325" y="45.06406" style="stroke: #000000; stroke-width: 0.8"/>
      </g>
     </g>
     <g id="text_44">
      <!-- 0.12 -->
      <g transform="translate(567.866875 48.863279) scale(0.1 -0.1)">
       <use xlink:href="#DejaVuSans-30"/>
       <use xlink:href="#DejaVuSans-2e" transform="translate(63.623047 0)"/>
       <use xlink:href="#DejaVuSans-31" transform="translate(95.410156 0)"/>
       <use xlink:href="#DejaVuSans-32" transform="translate(159.033203 0)"/>
      </g>
     </g>
    </g>
    <g id="text_45">
     <!-- Density -->
     <g transform="translate(561.787187 155.417969) rotate(-90) scale(0.1 -0.1)">
      <use xlink:href="#DejaVuSans-44"/>
      <use xlink:href="#DejaVuSans-65" transform="translate(77.001953 0)"/>
      <use xlink:href="#DejaVuSans-6e" transform="translate(138.525391 0)"/>
      <use xlink:href="#DejaVuSans-73" transform="translate(201.904297 0)"/>
      <use xlink:href="#DejaVuSans-69" transform="translate(254.003906 0)"/>
      <use xlink:href="#DejaVuSans-74" transform="translate(281.787109 0)"/>
      <use xlink:href="#DejaVuSans-79" transform="translate(320.996094 0)"/>
     </g>
    </g>
   </g>
   <g id="patch_21">
    <path d="M 597.1325 245.93875 
L 597.1325 26.88 
" style="fill: none; stroke: #000000; stroke-width: 0.8; stroke-linejoin: miter; stroke-linecap: square"/>
   </g>
   <g id="patch_22">
    <path d="M 853.2 245.93875 
L 853.2 26.88 
" style="fill: none; stroke: #000000; stroke-width: 0.8; stroke-linejoin: miter; stroke-linecap: square"/>
   </g>
   <g id="patch_23">
    <path d="M 597.1325 245.93875 
L 853.2 245.93875 
" style="fill: none; stroke: #000000; stroke-width: 0.8; stroke-linejoin: miter; stroke-linecap: square"/>
   </g>
   <g id="patch_24">
    <path d="M 597.1325 26.88 
L 853.2 26.88 
" style="fill: none; stroke: #000000; stroke-width: 0.8; stroke-linejoin: miter; stroke-linecap: square"/>
   </g>
   <g id="text_46">
    <!-- Gene Frequency Skewness Distribution -->
    <g transform="translate(608.201875 20.88) scale(0.12 -0.12)">
     <defs>
      <path id="DejaVuSans-47" d="M 3809 666 
L 3809 1919 
L 2778 1919 
L 2778 2438 
L 4434 2438 
L 4434 434 
Q 4069 175 3628 42 
Q 3188 -91 2688 -91 
Q 1594 -91 976 548 
Q 359 1188 359 2328 
Q 359 3472 976 4111 
Q 1594 4750 2688 4750 
Q 3144 4750 3555 4637 
Q 3966 4525 4313 4306 
L 4313 3634 
Q 3963 3931 3569 4081 
Q 3175 4231 2741 4231 
Q 1884 4231 1454 3753 
Q 1025 3275 1025 2328 
Q 1025 1384 1454 906 
Q 1884 428 2741 428 
Q 3075 428 3337 486 
Q 3600 544 3809 666 
z
" transform="scale(0.015625)"/>
      <path id="DejaVuSans-46" d="M 628 4666 
L 3309 4666 
L 3309 4134 
L 1259 4134 
L 1259 2759 
L 3109 2759 
L 3109 2228 
L 1259 2228 
L 1259 0 
L 628 0 
L 628 4666 
z
" transform="scale(0.015625)"/>
      <path id="DejaVuSans-71" d="M 947 1747 
Q 947 1113 1208 752 
Q 1469 391 1925 391 
Q 2381 391 2643 752 
Q 2906 1113 2906 1747 
Q 2906 2381 2643 2742 
Q 2381 3103 1925 3103 
Q 1469 3103 1208 2742 
Q 947 2381 947 1747 
z
M 2906 525 
Q 2725 213 2448 61 
Q 2172 -91 1784 -91 
Q 1150 -91 751 415 
Q 353 922 353 1747 
Q 353 2572 751 3078 
Q 1150 3584 1784 3584 
Q 2172 3584 2448 3432 
Q 2725 3281 2906 2969 
L 2906 3500 
L 3481 3500 
L 3481 -1331 
L 2906 -1331 
L 2906 525 
z
" transform="scale(0.015625)"/>
      <path id="DejaVuSans-53" d="M 3425 4513 
L 3425 3897 
Q 3066 4069 2747 4153 
Q 2428 4238 2131 4238 
Q 1616 4238 1336 4038 
Q 1056 3838 1056 3469 
Q 1056 3159 1242 3001 
Q 1428 2844 1947 2747 
L 2328 2669 
Q 3034 2534 3370 2195 
Q 3706 1856 3706 1288 
Q 3706 609 3251 259 
Q 2797 -91 1919 -91 
Q 1588 -91 1214 -16 
Q 841 59 441 206 
L 441 856 
Q 825 641 1194 531 
Q 1563 422 1919 422 
Q 2459 422 2753 634 
Q 3047 847 3047 1241 
Q 3047 1584 2836 1778 
Q 2625 1972 2144 2069 
L 1759 2144 
Q 1053 2284 737 2584 
Q 422 2884 422 3419 
Q 422 4038 858 4394 
Q 1294 4750 2059 4750 
Q 2388 4750 2728 4690 
Q 3069 4631 3425 4513 
z
" transform="scale(0.015625)"/>
      <path id="DejaVuSans-62" d="M 3116 1747 
Q 3116 2381 2855 2742 
Q 2594 3103 2138 3103 
Q 1681 3103 1420 2742 
Q 1159 2381 1159 1747 
Q 1159 1113 1420 752 
Q 1681 391 2138 391 
Q 2594 391 2855 752 
Q 3116 1113 3116 1747 
z
M 1159 2969 
Q 1341 3281 1617 3432 
Q 1894 3584 2278 3584 
Q 2916 3584 3314 3078 
Q 3713 2572 3713 1747 
Q 3713 922 3314 415 
Q 2916 -91 2278 -91 
Q 1894 -91 1617 61 
Q 1341 213 1159 525 
L 1159 0 
L 581 0 
L 581 4863 
L 1159 4863 
L 1159 2969 
z
" transform="scale(0.015625)"/>
     </defs>
     <use xlink:href="#DejaVuSans-47"/>
     <use xlink:href="#DejaVuSans-65" transform="translate(77.490234 0)"/>
     <use xlink:href="#DejaVuSans-6e" transform="translate(139.013672 0)"/>
     <use xlink:href="#DejaVuSans-65" transform="translate(202.392578 0)"/>
     <use xlink:href="#DejaVuSans-20" transform="translate(263.916016 0)"/>
     <use xlink:href="#DejaVuSans-46" transform="translate(295.703125 0)"/>
     <use xlink:href="#DejaVuSans-72" transform="translate(345.972656 0)"/>
     <use xlink:href="#DejaVuSans-65" transform="translate(384.835938 0)"/>
     <use xlink:href="#DejaVuSans-71" transform="translate(446.359375 0)"/>
     <use xlink:href="#DejaVuSans-75" transform="translate(509.835938 0)"/>
     <use xlink:href="#DejaVuSans-65" transform="translate(573.214844 0)"/>
     <use xlink:href="#DejaVuSans-6e" transform="translate(634.738281 0)"/>
     <use xlink:href="#DejaVuSans-63" transform="translate(698.117188 0)"/>
     <use xlink:href="#DejaVuSans-79" transform="translate(753.097656 0)"/>
     <use xlink:href="#DejaVuSans-20" transform="translate(812.277344 0)"/>
     <use xlink:href="#DejaVuSans-53" transform="translate(844.064453 0)"/>
     <use xlink:href="#DejaVuSans-6b" transform="translate(907.541016 0)"/>
     <use xlink:href="#DejaVuSans-65" transform="translate(961.826172 0)"/>
     <use xlink:href="#DejaVuSans-77" transform="translate(1023.349609 0)"/>
     <use xlink:href="#DejaVuSans-6e" transform="translate(1105.136719 0)"/>
     <use xlink:href="#DejaVuSans-65" transform="translate(1168.515625 0)"/>
     <use xlink:href="#DejaVuSans-73" transform="translate(1230.039062 0)"/>
     <use xlink:href="#DejaVuSans-73" transform="translate(1282.138672 0)"/>
     <use xlink:href="#DejaVuSans-20" transform="translate(1334.238281 0)"/>
     <use xlink:href="#DejaVuSans-44" transform="translate(1366.025391 0)"/>
     <use xlink:href="#DejaVuSans-69" transform="translate(1443.027344 0)"/>
     <use xlink:href="#DejaVuSans-73" transform="translate(1470.810547 0)"/>
     <use xlink:href="#DejaVuSans-74" transform="translate(1522.910156 0)"/>
     <use xlink:href="#DejaVuSans-72" transform="translate(1562.119141 0)"/>
     <use xlink:href="#DejaVuSans-69" transform="translate(1603.232422 0)"/>
     <use xlink:href="#DejaVuSans-62" transform="translate(1631.015625 0)"/>
     <use xlink:href="#DejaVuSans-75" transform="translate(1694.492188 0)"/>
     <use xlink:href="#DejaVuSans-74" transform="translate(1757.871094 0)"/>
     <use xlink:href="#DejaVuSans-69" transform="translate(1797.080078 0)"/>
     <use xlink:href="#DejaVuSans-6f" transform="translate(1824.863281 0)"/>
     <use xlink:href="#DejaVuSans-6e" transform="translate(1886.044922 0)"/>
    </g>
   </g>
   <g id="legend_1">
    <g id="patch_25">
     <path d="M 794.067187 64.23625 
L 846.2 64.23625 
Q 848.2 64.23625 848.2 62.23625 
L 848.2 33.88 
Q 848.2 31.88 846.2 31.88 
L 794.067187 31.88 
Q 792.067187 31.88 792.067187 33.88 
L 792.067187 62.23625 
Q 792.067187 64.23625 794.067187 64.23625 
z
" style="fill: #ffffff; opacity: 0.8; stroke: #cccccc; stroke-linejoin: miter"/>
    </g>
    <g id="text_47">
     <!-- dataset -->
     <g transform="translate(801.229687 43.478438) scale(0.1 -0.1)">
      <use xlink:href="#DejaVuSans-64"/>
      <use xlink:href="#DejaVuSans-61" transform="translate(63.476562 0)"/>
      <use xlink:href="#DejaVuSans-74" transform="translate(124.755859 0)"/>
      <use xlink:href="#DejaVuSans-61" transform="translate(163.964844 0)"/>
      <use xlink:href="#DejaVuSans-73" transform="translate(225.244141 0)"/>
      <use xlink:href="#DejaVuSans-65" transform="translate(277.34375 0)"/>
      <use xlink:href="#DejaVuSans-74" transform="translate(338.867188 0)"/>
     </g>
    </g>
    <g id="patch_26">
     <path d="M 796.067187 58.156563 
L 816.067187 58.156563 
L 816.067187 51.156563 
L 796.067187 51.156563 
z
" style="fill: #1f77b4; fill-opacity: 0.25; stroke: #1f77b4; stroke-linejoin: miter"/>
    </g>
    <g id="text_48">
     <!-- BLD -->
     <g transform="translate(824.067187 58.156563) scale(0.1 -0.1)">
      <use xlink:href="#DejaVuSans-42"/>
      <use xlink:href="#DejaVuSans-4c" transform="translate(68.603516 0)"/>
      <use xlink:href="#DejaVuSans-44" transform="translate(124.316406 0)"/>
     </g>
    </g>
   </g>
  </g>
 </g>
 <defs>
  <clipPath id="p3b3fd39d45">
   <rect x="50.97125" y="26.88" width="128.03375" height="219.05875"/>
  </clipPath>
  <clipPath id="p469be93ed2">
   <rect x="233.025" y="26.88" width="128.03375" height="219.05875"/>
  </clipPath>
  <clipPath id="p851e1dbc34">
   <rect x="415.07875" y="26.88" width="128.03375" height="219.05875"/>
  </clipPath>
  <clipPath id="p3a92a22750">
   <rect x="597.1325" y="26.88" width="256.0675" height="219.05875"/>
  </clipPath>
 </defs>
</svg>
