<?xml version="1.0" encoding="utf-8" standalone="no"?>
<!DOCTYPE svg PUBLIC "-//W3C//DTD SVG 1.1//EN"
  "http://www.w3.org/Graphics/SVG/1.1/DTD/svg11.dtd">
<svg xmlns:xlink="http://www.w3.org/1999/xlink" width="720pt" height="216pt" viewBox="0 0 720 216" xmlns="http://www.w3.org/2000/svg" version="1.1">
 <metadata>
  <rdf:RDF xmlns:dc="http://purl.org/dc/elements/1.1/" xmlns:cc="http://creativecommons.org/ns#" xmlns:rdf="http://www.w3.org/1999/02/22-rdf-syntax-ns#">
   <cc:Work>
    <dc:type rdf:resource="http://purl.org/dc/dcmitype/StillImage"/>
    <dc:date>2026-05-17T09:26:22.276909</dc:date>
    <dc:format>image/svg+xml</dc:format>
    <dc:creator>
     <cc:Agent>
      <dc:title>Matplotlib v3.10.9, https://matplotlib.org/</dc:title>
     </cc:Agent>
    </dc:creator>
   </cc:Work>
  </rdf:RDF>
 </metadata>
 <defs>
  <style type="text/css">*{stroke-linejoin: round; stroke-linecap: butt}</style>
 </defs>
 <g id="figure_1">
  <g id="patch_1">
   <path d="M 0 216 
L 720 216 
L 720 0 
L 0 0 
z
" style="fill: #ffffff"/>
  </g>
  <g id="axes_1">
   <g id="patch_2">
    <path d="M 50.87 173.93875 
L 149.292971 173.93875 
L 149.292971 26.88 
L 50.87 26.88 
z
" style="fill: #ffffff"/>
   </g>
   <g id="matplotlib.axis_1">
    <g id="xtick_1">
     <g id="line2d_1">
      <defs>
       <path id="mf5a302c85e" d="M 0 0 
L 0 3.5 
" style="stroke: #000000; stroke-width: 0.8"/>
      </defs>
      <g>
       <use xlink:href="#mf5a302c85e" x="100.081485" y="173.93875" style="stroke: #000000; stroke-width: 0.8"/>
      </g>
     </g>
     <g id="text_1">
      <!-- PIT -->
      <g transform="translate(92.537735 188.537188) scale(0.1 -0.1)">
       <defs>
        <path id="DejaVuSans-50" d="M 1259 4147 
L 1259 2394 
L 2053 2394 
Q 2494 2394 2734 2622 
Q 2975 2850 2975 3272 
Q 2975 3691 2734 3919 
Q 2494 4147 2053 4147 
L 1259 4147 
z
M 628 4666 
L 2053 4666 
Q 2838 4666 3239 4311 
Q 3641 3956 3641 3272 
Q 3641 2581 3239 2228 
Q 2838 1875 2053 1875 
L 1259 1875 
L 1259 0 
L 628 0 
L 628 4666 
z
" transform="scale(0.015625)"/>
        <path id="DejaVuSans-49" d="M 628 4666 
L 1259 4666 
L 1259 0 
L 628 0 
L 628 4666 
z
" transform="scale(0.015625)"/>
        <path id="DejaVuSans-54" d="M -19 4666 
L 3928 4666 
L 3928 4134 
L 2272 4134 
L 2272 0 
L 1638 0 
L 1638 4134 
L -19 4134 
L -19 4666 
z
" transform="scale(0.015625)"/>
       </defs>
       <use xlink:href="#DejaVuSans-50"/>
       <use xlink:href="#DejaVuSans-49" transform="translate(60.302734 0)"/>
       <use xlink:href="#DejaVuSans-54" transform="translate(89.794922 0)"/>
      </g>
     </g>
    </g>
    <g id="text_2">
     <!-- dataset -->
     <g transform="translate(81.177579 202.215313) scale(0.1 -0.1)">
      <defs>
       <path id="DejaVuSans-64" d="M 2906 2969 
L 2906 4863 
L 3481 4863 
L 3481 0 
L 2906 0 
L 2906 525 
Q 2725 213 2448 61 
Q 2172 -91 1784 -91 
Q 1150 -91 751 415 
Q 353 922 353 1747 
Q 353 2572 751 3078 
Q 1150 3584 1784 3584 
Q 2172 3584 2448 3432 
Q 2725 3281 2906 2969 
z
M 947 1747 
Q 947 1113 1208 752 
Q 1469 391 1925 391 
Q 2381 391 2643 752 
Q 2906 1113 2906 1747 
Q 2906 2381 2643 2742 
Q 2381 3103 1925 3103 
Q 1469 3103 1208 2742 
Q 947 2381 947 1747 
z
" transform="scale(0.015625)"/>
       <path id="DejaVuSans-61" d="M 2194 1759 
Q 1497 1759 1228 1600 
Q 959 1441 959 1056 
Q 959 750 1161 570 
Q 1363 391 1709 391 
Q 2188 391 2477 730 
Q 2766 1069 2766 1631 
L 2766 1759 
L 2194 1759 
z
M 3341 1997 
L 3341 0 
L 2766 0 
L 2766 531 
Q 2569 213 2275 61 
Q 1981 -91 1556 -91 
Q 1019 -91 701 211 
Q 384 513 384 1019 
Q 384 1609 779 1909 
Q 1175 2209 1959 2209 
L 2766 2209 
L 2766 2266 
Q 2766 2663 2505 2880 
Q 2244 3097 1772 3097 
Q 1472 3097 1187 3025 
Q 903 2953 641 2809 
L 641 3341 
Q 956 3463 1253 3523 
Q 1550 3584 1831 3584 
Q 2591 3584 2966 3190 
Q 3341 2797 3341 1997 
z
" transform="scale(0.015625)"/>
       <path id="DejaVuSans-74" d="M 1172 4494 
L 1172 3500 
L 2356 3500 
L 2356 3053 
L 1172 3053 
L 1172 1153 
Q 1172 725 1289 603 
Q 1406 481 1766 481 
L 2356 481 
L 2356 0 
L 1766 0 
Q 1100 0 847 248 
Q 594 497 594 1153 
L 594 3053 
L 172 3053 
L 172 3500 
L 594 3500 
L 594 4494 
L 1172 4494 
z
" transform="scale(0.015625)"/>
       <path id="DejaVuSans-73" d="M 2834 3397 
L 2834 2853 
Q 2591 2978 2328 3040 
Q 2066 3103 1784 3103 
Q 1356 3103 1142 2972 
Q 928 2841 928 2578 
Q 928 2378 1081 2264 
Q 1234 2150 1697 2047 
L 1894 2003 
Q 2506 1872 2764 1633 
Q 3022 1394 3022 966 
Q 3022 478 2636 193 
Q 2250 -91 1575 -91 
Q 1294 -91 989 -36 
Q 684 19 347 128 
L 347 722 
Q 666 556 975 473 
Q 1284 391 1588 391 
Q 1994 391 2212 530 
Q 2431 669 2431 922 
Q 2431 1156 2273 1281 
Q 2116 1406 1581 1522 
L 1381 1569 
Q 847 1681 609 1914 
Q 372 2147 372 2553 
Q 372 3047 722 3315 
Q 1072 3584 1716 3584 
Q 2034 3584 2315 3537 
Q 2597 3491 2834 3397 
z
" transform="scale(0.015625)"/>
       <path id="DejaVuSans-65" d="M 3597 1894 
L 3597 1613 
L 953 1613 
Q 991 1019 1311 708 
Q 1631 397 2203 397 
Q 2534 397 2845 478 
Q 3156 559 3463 722 
L 3463 178 
Q 3153 47 2828 -22 
Q 2503 -91 2169 -91 
Q 1331 -91 842 396 
Q 353 884 353 1716 
Q 353 2575 817 3079 
Q 1281 3584 2069 3584 
Q 2775 3584 3186 3129 
Q 3597 2675 3597 1894 
z
M 3022 2063 
Q 3016 2534 2758 2815 
Q 2500 3097 2075 3097 
Q 1594 3097 1305 2825 
Q 1016 2553 972 2059 
L 3022 2063 
z
" transform="scale(0.015625)"/>
      </defs>
      <use xlink:href="#DejaVuSans-64"/>
      <use xlink:href="#DejaVuSans-61" transform="translate(63.476562 0)"/>
      <use xlink:href="#DejaVuSans-74" transform="translate(124.755859 0)"/>
      <use xlink:href="#DejaVuSans-61" transform="translate(163.964844 0)"/>
      <use xlink:href="#DejaVuSans-73" transform="translate(225.244141 0)"/>
      <use xlink:href="#DejaVuSans-65" transform="translate(277.34375 0)"/>
      <use xlink:href="#DejaVuSans-74" transform="translate(338.867188 0)"/>
     </g>
    </g>
   </g>
   <g id="matplotlib.axis_2">
    <g id="ytick_1">
     <g id="line2d_2">
      <defs>
       <path id="m09698c36e3" d="M 0 0 
L -3.5 0 
" style="stroke: #000000; stroke-width: 0.8"/>
      </defs>
      <g>
       <use xlink:href="#m09698c36e3" x="50.87" y="167.909603" style="stroke: #000000; stroke-width: 0.8"/>
      </g>
     </g>
     <g id="text_3">
      <!-- 0 -->
      <g transform="translate(37.5075 171.708822) scale(0.1 -0.1)">
       <defs>
        <path id="DejaVuSans-30" d="M 2034 4250 
Q 1547 4250 1301 3770 
Q 1056 3291 1056 2328 
Q 1056 1369 1301 889 
Q 1547 409 2034 409 
Q 2525 409 2770 889 
Q 3016 1369 3016 2328 
Q 3016 3291 2770 3770 
Q 2525 4250 2034 4250 
z
M 2034 4750 
Q 2819 4750 3233 4129 
Q 3647 3509 3647 2328 
Q 3647 1150 3233 529 
Q 2819 -91 2034 -91 
Q 1250 -91 836 529 
Q 422 1150 422 2328 
Q 422 3509 836 4129 
Q 1250 4750 2034 4750 
z
" transform="scale(0.015625)"/>
       </defs>
       <use xlink:href="#DejaVuSans-30"/>
      </g>
     </g>
    </g>
    <g id="ytick_2">
     <g id="line2d_3">
      <g>
       <use xlink:href="#m09698c36e3" x="50.87" y="135.142502" style="stroke: #000000; stroke-width: 0.8"/>
      </g>
     </g>
     <g id="text_4">
      <!-- 50 -->
      <g transform="translate(31.145 138.941721) scale(0.1 -0.1)">
       <defs>
        <path id="DejaVuSans-35" d="M 691 4666 
L 3169 4666 
L 3169 4134 
L 1269 4134 
L 1269 2991 
Q 1406 3038 1543 3061 
Q 1681 3084 1819 3084 
Q 2600 3084 3056 2656 
Q 3513 2228 3513 1497 
Q 3513 744 3044 326 
Q 2575 -91 1722 -91 
Q 1428 -91 1123 -41 
Q 819 9 494 109 
L 494 744 
Q 775 591 1075 516 
Q 1375 441 1709 441 
Q 2250 441 2565 725 
Q 2881 1009 2881 1497 
Q 2881 1984 2565 2268 
Q 2250 2553 1709 2553 
Q 1456 2553 1204 2497 
Q 953 2441 691 2322 
L 691 4666 
z
" transform="scale(0.015625)"/>
       </defs>
       <use xlink:href="#DejaVuSans-35"/>
       <use xlink:href="#DejaVuSans-30" transform="translate(63.623047 0)"/>
      </g>
     </g>
    </g>
    <g id="ytick_3">
     <g id="line2d_4">
      <g>
       <use xlink:href="#m09698c36e3" x="50.87" y="102.375401" style="stroke: #000000; stroke-width: 0.8"/>
      </g>
     </g>
     <g id="text_5">
      <!-- 100 -->
      <g transform="translate(24.7825 106.17462) scale(0.1 -0.1)">
       <defs>
        <path id="DejaVuSans-31" d="M 794 531 
L 1825 531 
L 1825 4091 
L 703 3866 
L 703 4441 
L 1819 4666 
L 2450 4666 
L 2450 531 
L 3481 531 
L 3481 0 
L 794 0 
L 794 531 
z
" transform="scale(0.015625)"/>
       </defs>
       <use xlink:href="#DejaVuSans-31"/>
       <use xlink:href="#DejaVuSans-30" transform="translate(63.623047 0)"/>
       <use xlink:href="#DejaVuSans-30" transform="translate(127.246094 0)"/>
      </g>
     </g>
    </g>
    <g id="ytick_4">
     <g id="line2d_5">
      <g>
       <use xlink:href="#m09698c36e3" x="50.87" y="69.6083" style="stroke: #000000; stroke-width: 0.8"/>
      </g>
     </g>
     <g id="text_6">
      <!-- 150 -->
      <g transform="translate(24.7825 73.407519) scale(0.1 -0.1)">
       <use xlink:href="#DejaVuSans-31"/>
       <use xlink:href="#DejaVuSans-35" transform="translate(63.623047 0)"/>
       <use xlink:href="#DejaVuSans-30" transform="translate(127.246094 0)"/>
      </g>
     </g>
    </g>
    <g id="ytick_5">
     <g id="line2d_6">
      <g>
       <use xlink:href="#m09698c36e3" x="50.87" y="36.841199" style="stroke: #000000; stroke-width: 0.8"/>
      </g>
     </g>
     <g id="text_7">
      <!-- 200 -->
      <g transform="translate(24.7825 40.640418) scale(0.1 -0.1)">
       <defs>
        <path id="DejaVuSans-32" d="M 1228 531 
L 3431 531 
L 3431 0 
L 469 0 
L 469 531 
Q 828 903 1448 1529 
Q 2069 2156 2228 2338 
Q 2531 2678 2651 2914 
Q 2772 3150 2772 3378 
Q 2772 3750 2511 3984 
Q 2250 4219 1831 4219 
Q 1534 4219 1204 4116 
Q 875 4013 500 3803 
L 500 4441 
Q 881 4594 1212 4672 
Q 1544 4750 1819 4750 
Q 2544 4750 2975 4387 
Q 3406 4025 3406 3419 
Q 3406 3131 3298 2873 
Q 3191 2616 2906 2266 
Q 2828 2175 2409 1742 
Q 1991 1309 1228 531 
z
" transform="scale(0.015625)"/>
       </defs>
       <use xlink:href="#DejaVuSans-32"/>
       <use xlink:href="#DejaVuSans-30" transform="translate(63.623047 0)"/>
       <use xlink:href="#DejaVuSans-30" transform="translate(127.246094 0)"/>
      </g>
     </g>
    </g>
    <g id="text_8">
     <!-- Count -->
     <g transform="translate(18.702813 115.257812) rotate(-90) scale(0.1 -0.1)">
      <defs>
       <path id="DejaVuSans-43" d="M 4122 4306 
L 4122 3641 
Q 3803 3938 3442 4084 
Q 3081 4231 2675 4231 
Q 1875 4231 1450 3742 
Q 1025 3253 1025 2328 
Q 1025 1406 1450 917 
Q 1875 428 2675 428 
Q 3081 428 3442 575 
Q 3803 722 4122 1019 
L 4122 359 
Q 3791 134 3420 21 
Q 3050 -91 2638 -91 
Q 1578 -91 968 557 
Q 359 1206 359 2328 
Q 359 3453 968 4101 
Q 1578 4750 2638 4750 
Q 3056 4750 3426 4639 
Q 3797 4528 4122 4306 
z
" transform="scale(0.015625)"/>
       <path id="DejaVuSans-6f" d="M 1959 3097 
Q 1497 3097 1228 2736 
Q 959 2375 959 1747 
Q 959 1119 1226 758 
Q 1494 397 1959 397 
Q 2419 397 2687 759 
Q 2956 1122 2956 1747 
Q 2956 2369 2687 2733 
Q 2419 3097 1959 3097 
z
M 1959 3584 
Q 2709 3584 3137 3096 
Q 3566 2609 3566 1747 
Q 3566 888 3137 398 
Q 2709 -91 1959 -91 
Q 1206 -91 779 398 
Q 353 888 353 1747 
Q 353 2609 779 3096 
Q 1206 3584 1959 3584 
z
" transform="scale(0.015625)"/>
       <path id="DejaVuSans-75" d="M 544 1381 
L 544 3500 
L 1119 3500 
L 1119 1403 
Q 1119 906 1312 657 
Q 1506 409 1894 409 
Q 2359 409 2629 706 
Q 2900 1003 2900 1516 
L 2900 3500 
L 3475 3500 
L 3475 0 
L 2900 0 
L 2900 538 
Q 2691 219 2414 64 
Q 2138 -91 1772 -91 
Q 1169 -91 856 284 
Q 544 659 544 1381 
z
M 1991 3584 
L 1991 3584 
z
" transform="scale(0.015625)"/>
       <path id="DejaVuSans-6e" d="M 3513 2113 
L 3513 0 
L 2938 0 
L 2938 2094 
Q 2938 2591 2744 2837 
Q 2550 3084 2163 3084 
Q 1697 3084 1428 2787 
Q 1159 2491 1159 1978 
L 1159 0 
L 581 0 
L 581 3500 
L 1159 3500 
L 1159 2956 
Q 1366 3272 1645 3428 
Q 1925 3584 2291 3584 
Q 2894 3584 3203 3211 
Q 3513 2838 3513 2113 
z
" transform="scale(0.015625)"/>
      </defs>
      <use xlink:href="#DejaVuSans-43"/>
      <use xlink:href="#DejaVuSans-6f" transform="translate(69.824219 0)"/>
      <use xlink:href="#DejaVuSans-75" transform="translate(131.005859 0)"/>
      <use xlink:href="#DejaVuSans-6e" transform="translate(194.384766 0)"/>
      <use xlink:href="#DejaVuSans-74" transform="translate(257.763672 0)"/>
     </g>
    </g>
   </g>
   <g id="patch_3">
    <path d="M 60.712297 160.700841 
L 139.450673 160.700841 
L 139.450673 139.729896 
L 60.712297 139.729896 
L 60.712297 160.700841 
z
" clip-path="url(#p5f66d72f97)" style="fill: #3274a1; stroke: #3f3f3f; stroke-linejoin: miter"/>
   </g>
   <g id="line2d_7">
    <path d="M 100.081485 160.700841 
L 100.081485 167.254261 
" clip-path="url(#p5f66d72f97)" style="fill: none; stroke: #3f3f3f"/>
   </g>
   <g id="line2d_8">
    <path d="M 100.081485 139.729896 
L 100.081485 108.928821 
" clip-path="url(#p5f66d72f97)" style="fill: none; stroke: #3f3f3f"/>
   </g>
   <g id="line2d_9">
    <path d="M 80.396891 167.254261 
L 119.766079 167.254261 
" clip-path="url(#p5f66d72f97)" style="fill: none; stroke: #3f3f3f; stroke-linecap: square"/>
   </g>
   <g id="line2d_10">
    <path d="M 80.396891 108.928821 
L 119.766079 108.928821 
" clip-path="url(#p5f66d72f97)" style="fill: none; stroke: #3f3f3f; stroke-linecap: square"/>
   </g>
   <g id="line2d_11">
    <defs>
     <path id="m74777ca1df" d="M 0 3 
C 0.795609 3 1.55874 2.683901 2.12132 2.12132 
C 2.683901 1.55874 3 0.795609 3 0 
C 3 -0.795609 2.683901 -1.55874 2.12132 -2.12132 
C 1.55874 -2.683901 0.795609 -3 0 -3 
C -0.795609 -3 -1.55874 -2.683901 -2.12132 -2.12132 
C -2.683901 -1.55874 -3 -0.795609 -3 0 
C -3 0.795609 -2.683901 1.55874 -2.12132 2.12132 
C -1.55874 2.683901 -0.795609 3 0 3 
z
" style="stroke: #3f3f3f"/>
    </defs>
    <g clip-path="url(#p5f66d72f97)">
     <use xlink:href="#m74777ca1df" x="100.081485" y="97.132665" style="fill-opacity: 0; stroke: #3f3f3f"/>
     <use xlink:href="#m74777ca1df" x="100.081485" y="101.064717" style="fill-opacity: 0; stroke: #3f3f3f"/>
     <use xlink:href="#m74777ca1df" x="100.081485" y="93.200613" style="fill-opacity: 0; stroke: #3f3f3f"/>
     <use xlink:href="#m74777ca1df" x="100.081485" y="91.889929" style="fill-opacity: 0; stroke: #3f3f3f"/>
     <use xlink:href="#m74777ca1df" x="100.081485" y="101.720059" style="fill-opacity: 0; stroke: #3f3f3f"/>
     <use xlink:href="#m74777ca1df" x="100.081485" y="101.064717" style="fill-opacity: 0; stroke: #3f3f3f"/>
     <use xlink:href="#m74777ca1df" x="100.081485" y="90.579245" style="fill-opacity: 0; stroke: #3f3f3f"/>
     <use xlink:href="#m74777ca1df" x="100.081485" y="96.477323" style="fill-opacity: 0; stroke: #3f3f3f"/>
     <use xlink:href="#m74777ca1df" x="100.081485" y="93.200613" style="fill-opacity: 0; stroke: #3f3f3f"/>
     <use xlink:href="#m74777ca1df" x="100.081485" y="85.99185" style="fill-opacity: 0; stroke: #3f3f3f"/>
     <use xlink:href="#m74777ca1df" x="100.081485" y="101.720059" style="fill-opacity: 0; stroke: #3f3f3f"/>
     <use xlink:href="#m74777ca1df" x="100.081485" y="106.962795" style="fill-opacity: 0; stroke: #3f3f3f"/>
     <use xlink:href="#m74777ca1df" x="100.081485" y="106.307453" style="fill-opacity: 0; stroke: #3f3f3f"/>
     <use xlink:href="#m74777ca1df" x="100.081485" y="106.962795" style="fill-opacity: 0; stroke: #3f3f3f"/>
     <use xlink:href="#m74777ca1df" x="100.081485" y="93.200613" style="fill-opacity: 0; stroke: #3f3f3f"/>
     <use xlink:href="#m74777ca1df" x="100.081485" y="91.889929" style="fill-opacity: 0; stroke: #3f3f3f"/>
     <use xlink:href="#m74777ca1df" x="100.081485" y="33.564489" style="fill-opacity: 0; stroke: #3f3f3f"/>
     <use xlink:href="#m74777ca1df" x="100.081485" y="75.506378" style="fill-opacity: 0; stroke: #3f3f3f"/>
     <use xlink:href="#m74777ca1df" x="100.081485" y="93.200613" style="fill-opacity: 0; stroke: #3f3f3f"/>
     <use xlink:href="#m74777ca1df" x="100.081485" y="86.647193" style="fill-opacity: 0; stroke: #3f3f3f"/>
     <use xlink:href="#m74777ca1df" x="100.081485" y="87.957877" style="fill-opacity: 0; stroke: #3f3f3f"/>
    </g>
   </g>
   <g id="line2d_12">
    <path d="M 60.712297 152.181395 
L 139.450673 152.181395 
" clip-path="url(#p5f66d72f97)" style="fill: none; stroke: #3f3f3f"/>
   </g>
   <g id="patch_4">
    <path d="M 50.87 173.93875 
L 50.87 26.88 
" style="fill: none; stroke: #000000; stroke-width: 0.8; stroke-linejoin: miter; stroke-linecap: square"/>
   </g>
   <g id="patch_5">
    <path d="M 149.292971 173.93875 
L 149.292971 26.88 
" style="fill: none; stroke: #000000; stroke-width: 0.8; stroke-linejoin: miter; stroke-linecap: square"/>
   </g>
   <g id="patch_6">
    <path d="M 50.87 173.93875 
L 149.292971 173.93875 
" style="fill: none; stroke: #000000; stroke-width: 0.8; stroke-linejoin: miter; stroke-linecap: square"/>
   </g>
   <g id="patch_7">
    <path d="M 50.87 26.88 
L 149.292971 26.88 
" style="fill: none; stroke: #000000; stroke-width: 0.8; stroke-linejoin: miter; stroke-linecap: square"/>
   </g>
   <g id="text_9">
    <!-- Root node count -->
    <g transform="translate(50.771798 20.88) scale(0.12 -0.12)">
     <defs>
      <path id="DejaVuSans-52" d="M 2841 2188 
Q 3044 2119 3236 1894 
Q 3428 1669 3622 1275 
L 4263 0 
L 3584 0 
L 2988 1197 
Q 2756 1666 2539 1819 
Q 2322 1972 1947 1972 
L 1259 1972 
L 1259 0 
L 628 0 
L 628 4666 
L 2053 4666 
Q 2853 4666 3247 4331 
Q 3641 3997 3641 3322 
Q 3641 2881 3436 2590 
Q 3231 2300 2841 2188 
z
M 1259 4147 
L 1259 2491 
L 2053 2491 
Q 2509 2491 2742 2702 
Q 2975 2913 2975 3322 
Q 2975 3731 2742 3939 
Q 2509 4147 2053 4147 
L 1259 4147 
z
" transform="scale(0.015625)"/>
      <path id="DejaVuSans-20" transform="scale(0.015625)"/>
      <path id="DejaVuSans-63" d="M 3122 3366 
L 3122 2828 
Q 2878 2963 2633 3030 
Q 2388 3097 2138 3097 
Q 1578 3097 1268 2742 
Q 959 2388 959 1747 
Q 959 1106 1268 751 
Q 1578 397 2138 397 
Q 2388 397 2633 464 
Q 2878 531 3122 666 
L 3122 134 
Q 2881 22 2623 -34 
Q 2366 -91 2075 -91 
Q 1284 -91 818 406 
Q 353 903 353 1747 
Q 353 2603 823 3093 
Q 1294 3584 2113 3584 
Q 2378 3584 2631 3529 
Q 2884 3475 3122 3366 
z
" transform="scale(0.015625)"/>
     </defs>
     <use xlink:href="#DejaVuSans-52"/>
     <use xlink:href="#DejaVuSans-6f" transform="translate(64.982422 0)"/>
     <use xlink:href="#DejaVuSans-6f" transform="translate(126.164062 0)"/>
     <use xlink:href="#DejaVuSans-74" transform="translate(187.345703 0)"/>
     <use xlink:href="#DejaVuSans-20" transform="translate(226.554688 0)"/>
     <use xlink:href="#DejaVuSans-6e" transform="translate(258.341797 0)"/>
     <use xlink:href="#DejaVuSans-6f" transform="translate(321.720703 0)"/>
     <use xlink:href="#DejaVuSans-64" transform="translate(382.902344 0)"/>
     <use xlink:href="#DejaVuSans-65" transform="translate(446.378906 0)"/>
     <use xlink:href="#DejaVuSans-20" transform="translate(507.902344 0)"/>
     <use xlink:href="#DejaVuSans-63" transform="translate(539.689453 0)"/>
     <use xlink:href="#DejaVuSans-6f" transform="translate(594.669922 0)"/>
     <use xlink:href="#DejaVuSans-75" transform="translate(655.851562 0)"/>
     <use xlink:href="#DejaVuSans-6e" transform="translate(719.230469 0)"/>
     <use xlink:href="#DejaVuSans-74" transform="translate(782.609375 0)"/>
    </g>
   </g>
  </g>
  <g id="axes_2">
   <g id="patch_8">
    <path d="M 203.312971 173.93875 
L 301.735941 173.93875 
L 301.735941 26.88 
L 203.312971 26.88 
z
" style="fill: #ffffff"/>
   </g>
   <g id="matplotlib.axis_3">
    <g id="xtick_2">
     <g id="line2d_13">
      <g>
       <use xlink:href="#mf5a302c85e" x="252.524456" y="173.93875" style="stroke: #000000; stroke-width: 0.8"/>
      </g>
     </g>
     <g id="text_10">
      <!-- PIT -->
      <g transform="translate(244.980706 188.537188) scale(0.1 -0.1)">
       <use xlink:href="#DejaVuSans-50"/>
       <use xlink:href="#DejaVuSans-49" transform="translate(60.302734 0)"/>
       <use xlink:href="#DejaVuSans-54" transform="translate(89.794922 0)"/>
      </g>
     </g>
    </g>
    <g id="text_11">
     <!-- dataset -->
     <g transform="translate(233.62055 202.215313) scale(0.1 -0.1)">
      <use xlink:href="#DejaVuSans-64"/>
      <use xlink:href="#DejaVuSans-61" transform="translate(63.476562 0)"/>
      <use xlink:href="#DejaVuSans-74" transform="translate(124.755859 0)"/>
      <use xlink:href="#DejaVuSans-61" transform="translate(163.964844 0)"/>
      <use xlink:href="#DejaVuSans-73" transform="translate(225.244141 0)"/>
      <use xlink:href="#DejaVuSans-65" transform="translate(277.34375 0)"/>
      <use xlink:href="#DejaVuSans-74" transform="translate(338.867188 0)"/>
     </g>
    </g>
   </g>
   <g id="matplotlib.axis_4">
    <g id="ytick_6">
     <g id="line2d_14">
      <g>
       <use xlink:href="#m09698c36e3" x="203.312971" y="147.579875" style="stroke: #000000; stroke-width: 0.8"/>
      </g>
     </g>
     <g id="text_12">
      <!-- 7.6 -->
      <g transform="translate(180.409846 151.379093) scale(0.1 -0.1)">
       <defs>
        <path id="DejaVuSans-37" d="M 525 4666 
L 3525 4666 
L 3525 4397 
L 1831 0 
L 1172 0 
L 2766 4134 
L 525 4134 
L 525 4666 
z
" transform="scale(0.015625)"/>
        <path id="DejaVuSans-2e" d="M 684 794 
L 1344 794 
L 1344 0 
L 684 0 
L 684 794 
z
" transform="scale(0.015625)"/>
        <path id="DejaVuSans-36" d="M 2113 2584 
Q 1688 2584 1439 2293 
Q 1191 2003 1191 1497 
Q 1191 994 1439 701 
Q 1688 409 2113 409 
Q 2538 409 2786 701 
Q 3034 994 3034 1497 
Q 3034 2003 2786 2293 
Q 2538 2584 2113 2584 
z
M 3366 4563 
L 3366 3988 
Q 3128 4100 2886 4159 
Q 2644 4219 2406 4219 
Q 1781 4219 1451 3797 
Q 1122 3375 1075 2522 
Q 1259 2794 1537 2939 
Q 1816 3084 2150 3084 
Q 2853 3084 3261 2657 
Q 3669 2231 3669 1497 
Q 3669 778 3244 343 
Q 2819 -91 2113 -91 
Q 1303 -91 875 529 
Q 447 1150 447 2328 
Q 447 3434 972 4092 
Q 1497 4750 2381 4750 
Q 2619 4750 2861 4703 
Q 3103 4656 3366 4563 
z
" transform="scale(0.015625)"/>
       </defs>
       <use xlink:href="#DejaVuSans-37"/>
       <use xlink:href="#DejaVuSans-2e" transform="translate(63.623047 0)"/>
       <use xlink:href="#DejaVuSans-36" transform="translate(95.410156 0)"/>
      </g>
     </g>
    </g>
    <g id="ytick_7">
     <g id="line2d_15">
      <g>
       <use xlink:href="#m09698c36e3" x="203.312971" y="113.274057" style="stroke: #000000; stroke-width: 0.8"/>
      </g>
     </g>
     <g id="text_13">
      <!-- 7.8 -->
      <g transform="translate(180.409846 117.073275) scale(0.1 -0.1)">
       <defs>
        <path id="DejaVuSans-38" d="M 2034 2216 
Q 1584 2216 1326 1975 
Q 1069 1734 1069 1313 
Q 1069 891 1326 650 
Q 1584 409 2034 409 
Q 2484 409 2743 651 
Q 3003 894 3003 1313 
Q 3003 1734 2745 1975 
Q 2488 2216 2034 2216 
z
M 1403 2484 
Q 997 2584 770 2862 
Q 544 3141 544 3541 
Q 544 4100 942 4425 
Q 1341 4750 2034 4750 
Q 2731 4750 3128 4425 
Q 3525 4100 3525 3541 
Q 3525 3141 3298 2862 
Q 3072 2584 2669 2484 
Q 3125 2378 3379 2068 
Q 3634 1759 3634 1313 
Q 3634 634 3220 271 
Q 2806 -91 2034 -91 
Q 1263 -91 848 271 
Q 434 634 434 1313 
Q 434 1759 690 2068 
Q 947 2378 1403 2484 
z
M 1172 3481 
Q 1172 3119 1398 2916 
Q 1625 2713 2034 2713 
Q 2441 2713 2670 2916 
Q 2900 3119 2900 3481 
Q 2900 3844 2670 4047 
Q 2441 4250 2034 4250 
Q 1625 4250 1398 4047 
Q 1172 3844 1172 3481 
z
" transform="scale(0.015625)"/>
       </defs>
       <use xlink:href="#DejaVuSans-37"/>
       <use xlink:href="#DejaVuSans-2e" transform="translate(63.623047 0)"/>
       <use xlink:href="#DejaVuSans-38" transform="translate(95.410156 0)"/>
      </g>
     </g>
    </g>
    <g id="ytick_8">
     <g id="line2d_16">
      <g>
       <use xlink:href="#m09698c36e3" x="203.312971" y="78.968239" style="stroke: #000000; stroke-width: 0.8"/>
      </g>
     </g>
     <g id="text_14">
      <!-- 8.0 -->
      <g transform="translate(180.409846 82.767458) scale(0.1 -0.1)">
       <use xlink:href="#DejaVuSans-38"/>
       <use xlink:href="#DejaVuSans-2e" transform="translate(63.623047 0)"/>
       <use xlink:href="#DejaVuSans-30" transform="translate(95.410156 0)"/>
      </g>
     </g>
    </g>
    <g id="ytick_9">
     <g id="line2d_17">
      <g>
       <use xlink:href="#m09698c36e3" x="203.312971" y="44.662421" style="stroke: #000000; stroke-width: 0.8"/>
      </g>
     </g>
     <g id="text_15">
      <!-- 8.2 -->
      <g transform="translate(180.409846 48.46164) scale(0.1 -0.1)">
       <use xlink:href="#DejaVuSans-38"/>
       <use xlink:href="#DejaVuSans-2e" transform="translate(63.623047 0)"/>
       <use xlink:href="#DejaVuSans-32" transform="translate(95.410156 0)"/>
      </g>
     </g>
    </g>
    <g id="text_16">
     <!-- Time(Seconds) -->
     <g transform="translate(174.330158 137.551562) rotate(-90) scale(0.1 -0.1)">
      <defs>
       <path id="DejaVuSans-69" d="M 603 3500 
L 1178 3500 
L 1178 0 
L 603 0 
L 603 3500 
z
M 603 4863 
L 1178 4863 
L 1178 4134 
L 603 4134 
L 603 4863 
z
" transform="scale(0.015625)"/>
       <path id="DejaVuSans-6d" d="M 3328 2828 
Q 3544 3216 3844 3400 
Q 4144 3584 4550 3584 
Q 5097 3584 5394 3201 
Q 5691 2819 5691 2113 
L 5691 0 
L 5113 0 
L 5113 2094 
Q 5113 2597 4934 2840 
Q 4756 3084 4391 3084 
Q 3944 3084 3684 2787 
Q 3425 2491 3425 1978 
L 3425 0 
L 2847 0 
L 2847 2094 
Q 2847 2600 2669 2842 
Q 2491 3084 2119 3084 
Q 1678 3084 1418 2786 
Q 1159 2488 1159 1978 
L 1159 0 
L 581 0 
L 581 3500 
L 1159 3500 
L 1159 2956 
Q 1356 3278 1631 3431 
Q 1906 3584 2284 3584 
Q 2666 3584 2933 3390 
Q 3200 3197 3328 2828 
z
" transform="scale(0.015625)"/>
       <path id="DejaVuSans-28" d="M 1984 4856 
Q 1566 4138 1362 3434 
Q 1159 2731 1159 2009 
Q 1159 1288 1364 580 
Q 1569 -128 1984 -844 
L 1484 -844 
Q 1016 -109 783 600 
Q 550 1309 550 2009 
Q 550 2706 781 3412 
Q 1013 4119 1484 4856 
L 1984 4856 
z
" transform="scale(0.015625)"/>
       <path id="DejaVuSans-53" d="M 3425 4513 
L 3425 3897 
Q 3066 4069 2747 4153 
Q 2428 4238 2131 4238 
Q 1616 4238 1336 4038 
Q 1056 3838 1056 3469 
Q 1056 3159 1242 3001 
Q 1428 2844 1947 2747 
L 2328 2669 
Q 3034 2534 3370 2195 
Q 3706 1856 3706 1288 
Q 3706 609 3251 259 
Q 2797 -91 1919 -91 
Q 1588 -91 1214 -16 
Q 841 59 441 206 
L 441 856 
Q 825 641 1194 531 
Q 1563 422 1919 422 
Q 2459 422 2753 634 
Q 3047 847 3047 1241 
Q 3047 1584 2836 1778 
Q 2625 1972 2144 2069 
L 1759 2144 
Q 1053 2284 737 2584 
Q 422 2884 422 3419 
Q 422 4038 858 4394 
Q 1294 4750 2059 4750 
Q 2388 4750 2728 4690 
Q 3069 4631 3425 4513 
z
" transform="scale(0.015625)"/>
       <path id="DejaVuSans-29" d="M 513 4856 
L 1013 4856 
Q 1481 4119 1714 3412 
Q 1947 2706 1947 2009 
Q 1947 1309 1714 600 
Q 1481 -109 1013 -844 
L 513 -844 
Q 928 -128 1133 580 
Q 1338 1288 1338 2009 
Q 1338 2731 1133 3434 
Q 928 4138 513 4856 
z
" transform="scale(0.015625)"/>
      </defs>
      <use xlink:href="#DejaVuSans-54"/>
      <use xlink:href="#DejaVuSans-69" transform="translate(57.958984 0)"/>
      <use xlink:href="#DejaVuSans-6d" transform="translate(85.742188 0)"/>
      <use xlink:href="#DejaVuSans-65" transform="translate(183.154297 0)"/>
      <use xlink:href="#DejaVuSans-28" transform="translate(244.677734 0)"/>
      <use xlink:href="#DejaVuSans-53" transform="translate(283.691406 0)"/>
      <use xlink:href="#DejaVuSans-65" transform="translate(347.167969 0)"/>
      <use xlink:href="#DejaVuSans-63" transform="translate(408.691406 0)"/>
      <use xlink:href="#DejaVuSans-6f" transform="translate(463.671875 0)"/>
      <use xlink:href="#DejaVuSans-6e" transform="translate(524.853516 0)"/>
      <use xlink:href="#DejaVuSans-64" transform="translate(588.232422 0)"/>
      <use xlink:href="#DejaVuSans-73" transform="translate(651.708984 0)"/>
      <use xlink:href="#DejaVuSans-29" transform="translate(703.808594 0)"/>
     </g>
    </g>
   </g>
   <g id="patch_9">
    <path d="M 213.155268 126.615589 
L 291.893644 126.615589 
L 291.893644 94.897288 
L 213.155268 94.897288 
L 213.155268 126.615589 
z
" clip-path="url(#pfade767102)" style="fill: #3274a1; stroke: #3f3f3f; stroke-linejoin: miter"/>
   </g>
   <g id="line2d_18">
    <path d="M 252.524456 126.615589 
L 252.524456 167.254261 
" clip-path="url(#pfade767102)" style="fill: none; stroke: #3f3f3f"/>
   </g>
   <g id="line2d_19">
    <path d="M 252.524456 94.897288 
L 252.524456 47.840855 
" clip-path="url(#pfade767102)" style="fill: none; stroke: #3f3f3f"/>
   </g>
   <g id="line2d_20">
    <path d="M 232.839862 167.254261 
L 272.20905 167.254261 
" clip-path="url(#pfade767102)" style="fill: none; stroke: #3f3f3f; stroke-linecap: square"/>
   </g>
   <g id="line2d_21">
    <path d="M 232.839862 47.840855 
L 272.20905 47.840855 
" clip-path="url(#pfade767102)" style="fill: none; stroke: #3f3f3f; stroke-linecap: square"/>
   </g>
   <g id="line2d_22">
    <g clip-path="url(#pfade767102)">
     <use xlink:href="#m74777ca1df" x="252.524456" y="37.175176" style="fill-opacity: 0; stroke: #3f3f3f"/>
     <use xlink:href="#m74777ca1df" x="252.524456" y="36.627998" style="fill-opacity: 0; stroke: #3f3f3f"/>
     <use xlink:href="#m74777ca1df" x="252.524456" y="36.945327" style="fill-opacity: 0; stroke: #3f3f3f"/>
     <use xlink:href="#m74777ca1df" x="252.524456" y="33.564489" style="fill-opacity: 0; stroke: #3f3f3f"/>
    </g>
   </g>
   <g id="line2d_23">
    <path d="M 213.155268 111.37866 
L 291.893644 111.37866 
" clip-path="url(#pfade767102)" style="fill: none; stroke: #3f3f3f"/>
   </g>
   <g id="patch_10">
    <path d="M 203.312971 173.93875 
L 203.312971 26.88 
" style="fill: none; stroke: #000000; stroke-width: 0.8; stroke-linejoin: miter; stroke-linecap: square"/>
   </g>
   <g id="patch_11">
    <path d="M 301.735941 173.93875 
L 301.735941 26.88 
" style="fill: none; stroke: #000000; stroke-width: 0.8; stroke-linejoin: miter; stroke-linecap: square"/>
   </g>
   <g id="patch_12">
    <path d="M 203.312971 173.93875 
L 301.735941 173.93875 
" style="fill: none; stroke: #000000; stroke-width: 0.8; stroke-linejoin: miter; stroke-linecap: square"/>
   </g>
   <g id="patch_13">
    <path d="M 203.312971 26.88 
L 301.735941 26.88 
" style="fill: none; stroke: #000000; stroke-width: 0.8; stroke-linejoin: miter; stroke-linecap: square"/>
   </g>
   <g id="text_17">
    <!-- Run time -->
    <g transform="translate(225.558206 20.88) scale(0.12 -0.12)">
     <use xlink:href="#DejaVuSans-52"/>
     <use xlink:href="#DejaVuSans-75" transform="translate(64.982422 0)"/>
     <use xlink:href="#DejaVuSans-6e" transform="translate(128.361328 0)"/>
     <use xlink:href="#DejaVuSans-20" transform="translate(191.740234 0)"/>
     <use xlink:href="#DejaVuSans-74" transform="translate(223.527344 0)"/>
     <use xlink:href="#DejaVuSans-69" transform="translate(262.736328 0)"/>
     <use xlink:href="#DejaVuSans-6d" transform="translate(290.519531 0)"/>
     <use xlink:href="#DejaVuSans-65" transform="translate(387.931641 0)"/>
    </g>
   </g>
  </g>
  <g id="axes_3">
   <g id="patch_14">
    <path d="M 355.755941 173.93875 
L 454.178912 173.93875 
L 454.178912 26.88 
L 355.755941 26.88 
z
" style="fill: #ffffff"/>
   </g>
   <g id="matplotlib.axis_5">
    <g id="xtick_3">
     <g id="line2d_24">
      <g>
       <use xlink:href="#mf5a302c85e" x="404.967426" y="173.93875" style="stroke: #000000; stroke-width: 0.8"/>
      </g>
     </g>
     <g id="text_18">
      <!-- PIT -->
      <g transform="translate(397.423676 188.537188) scale(0.1 -0.1)">
       <use xlink:href="#DejaVuSans-50"/>
       <use xlink:href="#DejaVuSans-49" transform="translate(60.302734 0)"/>
       <use xlink:href="#DejaVuSans-54" transform="translate(89.794922 0)"/>
      </g>
     </g>
    </g>
    <g id="text_19">
     <!-- dataset -->
     <g transform="translate(386.06352 202.215313) scale(0.1 -0.1)">
      <use xlink:href="#DejaVuSans-64"/>
      <use xlink:href="#DejaVuSans-61" transform="translate(63.476562 0)"/>
      <use xlink:href="#DejaVuSans-74" transform="translate(124.755859 0)"/>
      <use xlink:href="#DejaVuSans-61" transform="translate(163.964844 0)"/>
      <use xlink:href="#DejaVuSans-73" transform="translate(225.244141 0)"/>
      <use xlink:href="#DejaVuSans-65" transform="translate(277.34375 0)"/>
      <use xlink:href="#DejaVuSans-74" transform="translate(338.867188 0)"/>
     </g>
    </g>
   </g>
   <g id="matplotlib.axis_6">
    <g id="ytick_10">
     <g id="line2d_25">
      <g>
       <use xlink:href="#m09698c36e3" x="355.755941" y="170.108021" style="stroke: #000000; stroke-width: 0.8"/>
      </g>
     </g>
     <g id="text_20">
      <!-- 0 -->
      <g transform="translate(342.393441 173.90724) scale(0.1 -0.1)">
       <use xlink:href="#DejaVuSans-30"/>
      </g>
     </g>
    </g>
    <g id="ytick_11">
     <g id="line2d_26">
      <g>
       <use xlink:href="#m09698c36e3" x="355.755941" y="142.799315" style="stroke: #000000; stroke-width: 0.8"/>
      </g>
     </g>
     <g id="text_21">
      <!-- 20 -->
      <g transform="translate(336.030941 146.598533) scale(0.1 -0.1)">
       <use xlink:href="#DejaVuSans-32"/>
       <use xlink:href="#DejaVuSans-30" transform="translate(63.623047 0)"/>
      </g>
     </g>
    </g>
    <g id="ytick_12">
     <g id="line2d_27">
      <g>
       <use xlink:href="#m09698c36e3" x="355.755941" y="115.490608" style="stroke: #000000; stroke-width: 0.8"/>
      </g>
     </g>
     <g id="text_22">
      <!-- 40 -->
      <g transform="translate(336.030941 119.289827) scale(0.1 -0.1)">
       <defs>
        <path id="DejaVuSans-34" d="M 2419 4116 
L 825 1625 
L 2419 1625 
L 2419 4116 
z
M 2253 4666 
L 3047 4666 
L 3047 1625 
L 3713 1625 
L 3713 1100 
L 3047 1100 
L 3047 0 
L 2419 0 
L 2419 1100 
L 313 1100 
L 313 1709 
L 2253 4666 
z
" transform="scale(0.015625)"/>
       </defs>
       <use xlink:href="#DejaVuSans-34"/>
       <use xlink:href="#DejaVuSans-30" transform="translate(63.623047 0)"/>
      </g>
     </g>
    </g>
    <g id="ytick_13">
     <g id="line2d_28">
      <g>
       <use xlink:href="#m09698c36e3" x="355.755941" y="88.181902" style="stroke: #000000; stroke-width: 0.8"/>
      </g>
     </g>
     <g id="text_23">
      <!-- 60 -->
      <g transform="translate(336.030941 91.98112) scale(0.1 -0.1)">
       <use xlink:href="#DejaVuSans-36"/>
       <use xlink:href="#DejaVuSans-30" transform="translate(63.623047 0)"/>
      </g>
     </g>
    </g>
    <g id="ytick_14">
     <g id="line2d_29">
      <g>
       <use xlink:href="#m09698c36e3" x="355.755941" y="60.873195" style="stroke: #000000; stroke-width: 0.8"/>
      </g>
     </g>
     <g id="text_24">
      <!-- 80 -->
      <g transform="translate(336.030941 64.672414) scale(0.1 -0.1)">
       <use xlink:href="#DejaVuSans-38"/>
       <use xlink:href="#DejaVuSans-30" transform="translate(63.623047 0)"/>
      </g>
     </g>
    </g>
    <g id="ytick_15">
     <g id="line2d_30">
      <g>
       <use xlink:href="#m09698c36e3" x="355.755941" y="33.564489" style="stroke: #000000; stroke-width: 0.8"/>
      </g>
     </g>
     <g id="text_25">
      <!-- 100 -->
      <g transform="translate(329.668441 37.363707) scale(0.1 -0.1)">
       <use xlink:href="#DejaVuSans-31"/>
       <use xlink:href="#DejaVuSans-30" transform="translate(63.623047 0)"/>
       <use xlink:href="#DejaVuSans-30" transform="translate(127.246094 0)"/>
      </g>
     </g>
    </g>
    <g id="text_26">
     <!-- Percent -->
     <g transform="translate(323.588754 119.217187) rotate(-90) scale(0.1 -0.1)">
      <defs>
       <path id="DejaVuSans-72" d="M 2631 2963 
Q 2534 3019 2420 3045 
Q 2306 3072 2169 3072 
Q 1681 3072 1420 2755 
Q 1159 2438 1159 1844 
L 1159 0 
L 581 0 
L 581 3500 
L 1159 3500 
L 1159 2956 
Q 1341 3275 1631 3429 
Q 1922 3584 2338 3584 
Q 2397 3584 2469 3576 
Q 2541 3569 2628 3553 
L 2631 2963 
z
" transform="scale(0.015625)"/>
      </defs>
      <use xlink:href="#DejaVuSans-50"/>
      <use xlink:href="#DejaVuSans-65" transform="translate(56.677734 0)"/>
      <use xlink:href="#DejaVuSans-72" transform="translate(118.201172 0)"/>
      <use xlink:href="#DejaVuSans-63" transform="translate(157.064453 0)"/>
      <use xlink:href="#DejaVuSans-65" transform="translate(212.044922 0)"/>
      <use xlink:href="#DejaVuSans-6e" transform="translate(273.568359 0)"/>
      <use xlink:href="#DejaVuSans-74" transform="translate(336.947266 0)"/>
     </g>
    </g>
   </g>
   <g id="patch_15">
    <path d="M 365.598238 158.925106 
L 444.336615 158.925106 
L 444.336615 143.673193 
L 365.598238 143.673193 
L 365.598238 158.925106 
z
" clip-path="url(#p02bb9d981e)" style="fill: #3274a1; stroke: #3f3f3f; stroke-linejoin: miter"/>
   </g>
   <g id="line2d_31">
    <path d="M 404.967426 158.925106 
L 404.967426 167.254261 
" clip-path="url(#p02bb9d981e)" style="fill: none; stroke: #3f3f3f"/>
   </g>
   <g id="line2d_32">
    <path d="M 404.967426 143.673193 
L 404.967426 121.088893 
" clip-path="url(#p02bb9d981e)" style="fill: none; stroke: #3f3f3f"/>
   </g>
   <g id="line2d_33">
    <path d="M 385.282832 167.254261 
L 424.65202 167.254261 
" clip-path="url(#p02bb9d981e)" style="fill: none; stroke: #3f3f3f; stroke-linecap: square"/>
   </g>
   <g id="line2d_34">
    <path d="M 385.282832 121.088893 
L 424.65202 121.088893 
" clip-path="url(#p02bb9d981e)" style="fill: none; stroke: #3f3f3f; stroke-linecap: square"/>
   </g>
   <g id="line2d_35">
    <g clip-path="url(#p02bb9d981e)">
     <use xlink:href="#m74777ca1df" x="404.967426" y="110.2883" style="fill-opacity: 0; stroke: #3f3f3f"/>
     <use xlink:href="#m74777ca1df" x="404.967426" y="119.846347" style="fill-opacity: 0; stroke: #3f3f3f"/>
     <use xlink:href="#m74777ca1df" x="404.967426" y="101.808946" style="fill-opacity: 0; stroke: #3f3f3f"/>
     <use xlink:href="#m74777ca1df" x="404.967426" y="101.372007" style="fill-opacity: 0; stroke: #3f3f3f"/>
     <use xlink:href="#m74777ca1df" x="404.967426" y="110.629658" style="fill-opacity: 0; stroke: #3f3f3f"/>
     <use xlink:href="#m74777ca1df" x="404.967426" y="33.564489" style="fill-opacity: 0; stroke: #3f3f3f"/>
     <use xlink:href="#m74777ca1df" x="404.967426" y="120.761189" style="fill-opacity: 0; stroke: #3f3f3f"/>
     <use xlink:href="#m74777ca1df" x="404.967426" y="33.564489" style="fill-opacity: 0; stroke: #3f3f3f"/>
     <use xlink:href="#m74777ca1df" x="404.967426" y="109.195951" style="fill-opacity: 0; stroke: #3f3f3f"/>
     <use xlink:href="#m74777ca1df" x="404.967426" y="75.674514" style="fill-opacity: 0; stroke: #3f3f3f"/>
     <use xlink:href="#m74777ca1df" x="404.967426" y="108.472271" style="fill-opacity: 0; stroke: #3f3f3f"/>
     <use xlink:href="#m74777ca1df" x="404.967426" y="73.954066" style="fill-opacity: 0; stroke: #3f3f3f"/>
     <use xlink:href="#m74777ca1df" x="404.967426" y="89.301559" style="fill-opacity: 0; stroke: #3f3f3f"/>
     <use xlink:href="#m74777ca1df" x="404.967426" y="113.783814" style="fill-opacity: 0; stroke: #3f3f3f"/>
     <use xlink:href="#m74777ca1df" x="404.967426" y="72.998261" style="fill-opacity: 0; stroke: #3f3f3f"/>
     <use xlink:href="#m74777ca1df" x="404.967426" y="116.678537" style="fill-opacity: 0; stroke: #3f3f3f"/>
     <use xlink:href="#m74777ca1df" x="404.967426" y="99.515015" style="fill-opacity: 0; stroke: #3f3f3f"/>
     <use xlink:href="#m74777ca1df" x="404.967426" y="83.443841" style="fill-opacity: 0; stroke: #3f3f3f"/>
     <use xlink:href="#m74777ca1df" x="404.967426" y="33.564489" style="fill-opacity: 0; stroke: #3f3f3f"/>
     <use xlink:href="#m74777ca1df" x="404.967426" y="89.861387" style="fill-opacity: 0; stroke: #3f3f3f"/>
     <use xlink:href="#m74777ca1df" x="404.967426" y="108.895556" style="fill-opacity: 0; stroke: #3f3f3f"/>
     <use xlink:href="#m74777ca1df" x="404.967426" y="107.74859" style="fill-opacity: 0; stroke: #3f3f3f"/>
     <use xlink:href="#m74777ca1df" x="404.967426" y="33.564489" style="fill-opacity: 0; stroke: #3f3f3f"/>
     <use xlink:href="#m74777ca1df" x="404.967426" y="98.381704" style="fill-opacity: 0; stroke: #3f3f3f"/>
     <use xlink:href="#m74777ca1df" x="404.967426" y="111.257759" style="fill-opacity: 0; stroke: #3f3f3f"/>
     <use xlink:href="#m74777ca1df" x="404.967426" y="33.564489" style="fill-opacity: 0; stroke: #3f3f3f"/>
     <use xlink:href="#m74777ca1df" x="404.967426" y="115.476954" style="fill-opacity: 0; stroke: #3f3f3f"/>
     <use xlink:href="#m74777ca1df" x="404.967426" y="107.407231" style="fill-opacity: 0; stroke: #3f3f3f"/>
     <use xlink:href="#m74777ca1df" x="404.967426" y="96.292587" style="fill-opacity: 0; stroke: #3f3f3f"/>
     <use xlink:href="#m74777ca1df" x="404.967426" y="113.906703" style="fill-opacity: 0; stroke: #3f3f3f"/>
     <use xlink:href="#m74777ca1df" x="404.967426" y="33.564489" style="fill-opacity: 0; stroke: #3f3f3f"/>
     <use xlink:href="#m74777ca1df" x="404.967426" y="117.197402" style="fill-opacity: 0; stroke: #3f3f3f"/>
     <use xlink:href="#m74777ca1df" x="404.967426" y="99.146347" style="fill-opacity: 0; stroke: #3f3f3f"/>
     <use xlink:href="#m74777ca1df" x="404.967426" y="109.933286" style="fill-opacity: 0; stroke: #3f3f3f"/>
     <use xlink:href="#m74777ca1df" x="404.967426" y="120.529065" style="fill-opacity: 0; stroke: #3f3f3f"/>
     <use xlink:href="#m74777ca1df" x="404.967426" y="108.772666" style="fill-opacity: 0; stroke: #3f3f3f"/>
     <use xlink:href="#m74777ca1df" x="404.967426" y="33.564489" style="fill-opacity: 0; stroke: #3f3f3f"/>
     <use xlink:href="#m74777ca1df" x="404.967426" y="115.613497" style="fill-opacity: 0; stroke: #3f3f3f"/>
     <use xlink:href="#m74777ca1df" x="404.967426" y="50.113565" style="fill-opacity: 0; stroke: #3f3f3f"/>
     <use xlink:href="#m74777ca1df" x="404.967426" y="120.41983" style="fill-opacity: 0; stroke: #3f3f3f"/>
    </g>
   </g>
   <g id="line2d_36">
    <path d="M 365.598238 153.463365 
L 444.336615 153.463365 
" clip-path="url(#p02bb9d981e)" style="fill: none; stroke: #3f3f3f"/>
   </g>
   <g id="patch_16">
    <path d="M 355.755941 173.93875 
L 355.755941 26.88 
" style="fill: none; stroke: #000000; stroke-width: 0.8; stroke-linejoin: miter; stroke-linecap: square"/>
   </g>
   <g id="patch_17">
    <path d="M 454.178912 173.93875 
L 454.178912 26.88 
" style="fill: none; stroke: #000000; stroke-width: 0.8; stroke-linejoin: miter; stroke-linecap: square"/>
   </g>
   <g id="patch_18">
    <path d="M 355.755941 173.93875 
L 454.178912 173.93875 
" style="fill: none; stroke: #000000; stroke-width: 0.8; stroke-linejoin: miter; stroke-linecap: square"/>
   </g>
   <g id="patch_19">
    <path d="M 355.755941 26.88 
L 454.178912 26.88 
" style="fill: none; stroke: #000000; stroke-width: 0.8; stroke-linejoin: miter; stroke-linecap: square"/>
   </g>
   <g id="text_27">
    <!-- Gene Frequency Coverage -->
    <g transform="translate(325.574301 20.88) scale(0.12 -0.12)">
     <defs>
      <path id="DejaVuSans-47" d="M 3809 666 
L 3809 1919 
L 2778 1919 
L 2778 2438 
L 4434 2438 
L 4434 434 
Q 4069 175 3628 42 
Q 3188 -91 2688 -91 
Q 1594 -91 976 548 
Q 359 1188 359 2328 
Q 359 3472 976 4111 
Q 1594 4750 2688 4750 
Q 3144 4750 3555 4637 
Q 3966 4525 4313 4306 
L 4313 3634 
Q 3963 3931 3569 4081 
Q 3175 4231 2741 4231 
Q 1884 4231 1454 3753 
Q 1025 3275 1025 2328 
Q 1025 1384 1454 906 
Q 1884 428 2741 428 
Q 3075 428 3337 486 
Q 3600 544 3809 666 
z
" transform="scale(0.015625)"/>
      <path id="DejaVuSans-46" d="M 628 4666 
L 3309 4666 
L 3309 4134 
L 1259 4134 
L 1259 2759 
L 3109 2759 
L 3109 2228 
L 1259 2228 
L 1259 0 
L 628 0 
L 628 4666 
z
" transform="scale(0.015625)"/>
      <path id="DejaVuSans-71" d="M 947 1747 
Q 947 1113 1208 752 
Q 1469 391 1925 391 
Q 2381 391 2643 752 
Q 2906 1113 2906 1747 
Q 2906 2381 2643 2742 
Q 2381 3103 1925 3103 
Q 1469 3103 1208 2742 
Q 947 2381 947 1747 
z
M 2906 525 
Q 2725 213 2448 61 
Q 2172 -91 1784 -91 
Q 1150 -91 751 415 
Q 353 922 353 1747 
Q 353 2572 751 3078 
Q 1150 3584 1784 3584 
Q 2172 3584 2448 3432 
Q 2725 3281 2906 2969 
L 2906 3500 
L 3481 3500 
L 3481 -1331 
L 2906 -1331 
L 2906 525 
z
" transform="scale(0.015625)"/>
      <path id="DejaVuSans-79" d="M 2059 -325 
Q 1816 -950 1584 -1140 
Q 1353 -1331 966 -1331 
L 506 -1331 
L 506 -850 
L 844 -850 
Q 1081 -850 1212 -737 
Q 1344 -625 1503 -206 
L 1606 56 
L 191 3500 
L 800 3500 
L 1894 763 
L 2988 3500 
L 3597 3500 
L 2059 -325 
z
" transform="scale(0.015625)"/>
      <path id="DejaVuSans-76" d="M 191 3500 
L 800 3500 
L 1894 563 
L 2988 3500 
L 3597 3500 
L 2284 0 
L 1503 0 
L 191 3500 
z
" transform="scale(0.015625)"/>
      <path id="DejaVuSans-67" d="M 2906 1791 
Q 2906 2416 2648 2759 
Q 2391 3103 1925 3103 
Q 1463 3103 1205 2759 
Q 947 2416 947 1791 
Q 947 1169 1205 825 
Q 1463 481 1925 481 
Q 2391 481 2648 825 
Q 2906 1169 2906 1791 
z
M 3481 434 
Q 3481 -459 3084 -895 
Q 2688 -1331 1869 -1331 
Q 1566 -1331 1297 -1286 
Q 1028 -1241 775 -1147 
L 775 -588 
Q 1028 -725 1275 -790 
Q 1522 -856 1778 -856 
Q 2344 -856 2625 -561 
Q 2906 -266 2906 331 
L 2906 616 
Q 2728 306 2450 153 
Q 2172 0 1784 0 
Q 1141 0 747 490 
Q 353 981 353 1791 
Q 353 2603 747 3093 
Q 1141 3584 1784 3584 
Q 2172 3584 2450 3431 
Q 2728 3278 2906 2969 
L 2906 3500 
L 3481 3500 
L 3481 434 
z
" transform="scale(0.015625)"/>
     </defs>
     <use xlink:href="#DejaVuSans-47"/>
     <use xlink:href="#DejaVuSans-65" transform="translate(77.490234 0)"/>
     <use xlink:href="#DejaVuSans-6e" transform="translate(139.013672 0)"/>
     <use xlink:href="#DejaVuSans-65" transform="translate(202.392578 0)"/>
     <use xlink:href="#DejaVuSans-20" transform="translate(263.916016 0)"/>
     <use xlink:href="#DejaVuSans-46" transform="translate(295.703125 0)"/>
     <use xlink:href="#DejaVuSans-72" transform="translate(345.972656 0)"/>
     <use xlink:href="#DejaVuSans-65" transform="translate(384.835938 0)"/>
     <use xlink:href="#DejaVuSans-71" transform="translate(446.359375 0)"/>
     <use xlink:href="#DejaVuSans-75" transform="translate(509.835938 0)"/>
     <use xlink:href="#DejaVuSans-65" transform="translate(573.214844 0)"/>
     <use xlink:href="#DejaVuSans-6e" transform="translate(634.738281 0)"/>
     <use xlink:href="#DejaVuSans-63" transform="translate(698.117188 0)"/>
     <use xlink:href="#DejaVuSans-79" transform="translate(753.097656 0)"/>
     <use xlink:href="#DejaVuSans-20" transform="translate(812.277344 0)"/>
     <use xlink:href="#DejaVuSans-43" transform="translate(844.064453 0)"/>
     <use xlink:href="#DejaVuSans-6f" transform="translate(913.888672 0)"/>
     <use xlink:href="#DejaVuSans-76" transform="translate(975.070312 0)"/>
     <use xlink:href="#DejaVuSans-65" transform="translate(1034.25 0)"/>
     <use xlink:href="#DejaVuSans-72" transform="translate(1095.773438 0)"/>
     <use xlink:href="#DejaVuSans-61" transform="translate(1136.886719 0)"/>
     <use xlink:href="#DejaVuSans-67" transform="translate(1198.166016 0)"/>
     <use xlink:href="#DejaVuSans-65" transform="translate(1261.642578 0)"/>
    </g>
   </g>
  </g>
  <g id="axes_4">
   <g id="patch_20">
    <path d="M 508.198912 173.93875 
L 705.044853 173.93875 
L 705.044853 26.88 
L 508.198912 26.88 
z
" style="fill: #ffffff"/>
   </g>
   <g id="FillBetweenPolyCollection_1">
    <defs>
     <path id="m8ae95c7f2f" d="M 517.146454 -42.070637 
L 517.146454 -42.06125 
L 518.045705 -42.06125 
L 518.944955 -42.06125 
L 519.844206 -42.06125 
L 520.743456 -42.06125 
L 521.642707 -42.06125 
L 522.541958 -42.06125 
L 523.441208 -42.06125 
L 524.340459 -42.06125 
L 525.239709 -42.06125 
L 526.13896 -42.06125 
L 527.03821 -42.06125 
L 527.937461 -42.06125 
L 528.836711 -42.06125 
L 529.735962 -42.06125 
L 530.635212 -42.06125 
L 531.534463 -42.06125 
L 532.433713 -42.06125 
L 533.332964 -42.06125 
L 534.232214 -42.06125 
L 535.131465 -42.06125 
L 536.030715 -42.06125 
L 536.929966 -42.06125 
L 537.829217 -42.06125 
L 538.728467 -42.06125 
L 539.627718 -42.06125 
L 540.526968 -42.06125 
L 541.426219 -42.06125 
L 542.325469 -42.06125 
L 543.22472 -42.06125 
L 544.12397 -42.06125 
L 545.023221 -42.06125 
L 545.922471 -42.06125 
L 546.821722 -42.06125 
L 547.720972 -42.06125 
L 548.620223 -42.06125 
L 549.519473 -42.06125 
L 550.418724 -42.06125 
L 551.317974 -42.06125 
L 552.217225 -42.06125 
L 553.116476 -42.06125 
L 554.015726 -42.06125 
L 554.914977 -42.06125 
L 555.814227 -42.06125 
L 556.713478 -42.06125 
L 557.612728 -42.06125 
L 558.511979 -42.06125 
L 559.411229 -42.06125 
L 560.31048 -42.06125 
L 561.20973 -42.06125 
L 562.108981 -42.06125 
L 563.008231 -42.06125 
L 563.907482 -42.06125 
L 564.806732 -42.06125 
L 565.705983 -42.06125 
L 566.605233 -42.06125 
L 567.504484 -42.06125 
L 568.403735 -42.06125 
L 569.302985 -42.06125 
L 570.202236 -42.06125 
L 571.101486 -42.06125 
L 572.000737 -42.06125 
L 572.899987 -42.06125 
L 573.799238 -42.06125 
L 574.698488 -42.06125 
L 575.597739 -42.06125 
L 576.496989 -42.06125 
L 577.39624 -42.06125 
L 578.29549 -42.06125 
L 579.194741 -42.06125 
L 580.093991 -42.06125 
L 580.993242 -42.06125 
L 581.892492 -42.06125 
L 582.791743 -42.06125 
L 583.690994 -42.06125 
L 584.590244 -42.06125 
L 585.489495 -42.06125 
L 586.388745 -42.06125 
L 587.287996 -42.06125 
L 588.187246 -42.06125 
L 589.086497 -42.06125 
L 589.985747 -42.06125 
L 590.884998 -42.06125 
L 591.784248 -42.06125 
L 592.683499 -42.06125 
L 593.582749 -42.06125 
L 594.482 -42.06125 
L 595.38125 -42.06125 
L 596.280501 -42.06125 
L 597.179752 -42.06125 
L 598.079002 -42.06125 
L 598.978253 -42.06125 
L 599.877503 -42.06125 
L 600.776754 -42.06125 
L 601.676004 -42.06125 
L 602.575255 -42.06125 
L 603.474505 -42.06125 
L 604.373756 -42.06125 
L 605.273006 -42.06125 
L 606.172257 -42.06125 
L 607.071507 -42.06125 
L 607.970758 -42.06125 
L 608.870008 -42.06125 
L 609.769259 -42.06125 
L 610.668509 -42.06125 
L 611.56776 -42.06125 
L 612.467011 -42.06125 
L 613.366261 -42.06125 
L 614.265512 -42.06125 
L 615.164762 -42.06125 
L 616.064013 -42.06125 
L 616.963263 -42.06125 
L 617.862514 -42.06125 
L 618.761764 -42.06125 
L 619.661015 -42.06125 
L 620.560265 -42.06125 
L 621.459516 -42.06125 
L 622.358766 -42.06125 
L 623.258017 -42.06125 
L 624.157267 -42.06125 
L 625.056518 -42.06125 
L 625.955768 -42.06125 
L 626.855019 -42.06125 
L 627.75427 -42.06125 
L 628.65352 -42.06125 
L 629.552771 -42.06125 
L 630.452021 -42.06125 
L 631.351272 -42.06125 
L 632.250522 -42.06125 
L 633.149773 -42.06125 
L 634.049023 -42.06125 
L 634.948274 -42.06125 
L 635.847524 -42.06125 
L 636.746775 -42.06125 
L 637.646025 -42.06125 
L 638.545276 -42.06125 
L 639.444526 -42.06125 
L 640.343777 -42.06125 
L 641.243027 -42.06125 
L 642.142278 -42.06125 
L 643.041529 -42.06125 
L 643.940779 -42.06125 
L 644.84003 -42.06125 
L 645.73928 -42.06125 
L 646.638531 -42.06125 
L 647.537781 -42.06125 
L 648.437032 -42.06125 
L 649.336282 -42.06125 
L 650.235533 -42.06125 
L 651.134783 -42.06125 
L 652.034034 -42.06125 
L 652.933284 -42.06125 
L 653.832535 -42.06125 
L 654.731785 -42.06125 
L 655.631036 -42.06125 
L 656.530286 -42.06125 
L 657.429537 -42.06125 
L 658.328788 -42.06125 
L 659.228038 -42.06125 
L 660.127289 -42.06125 
L 661.026539 -42.06125 
L 661.92579 -42.06125 
L 662.82504 -42.06125 
L 663.724291 -42.06125 
L 664.623541 -42.06125 
L 665.522792 -42.06125 
L 666.422042 -42.06125 
L 667.321293 -42.06125 
L 668.220543 -42.06125 
L 669.119794 -42.06125 
L 670.019044 -42.06125 
L 670.918295 -42.06125 
L 671.817546 -42.06125 
L 672.716796 -42.06125 
L 673.616047 -42.06125 
L 674.515297 -42.06125 
L 675.414548 -42.06125 
L 676.313798 -42.06125 
L 677.213049 -42.06125 
L 678.112299 -42.06125 
L 679.01155 -42.06125 
L 679.9108 -42.06125 
L 680.810051 -42.06125 
L 681.709301 -42.06125 
L 682.608552 -42.06125 
L 683.507802 -42.06125 
L 684.407053 -42.06125 
L 685.306303 -42.06125 
L 686.205554 -42.06125 
L 687.104805 -42.06125 
L 688.004055 -42.06125 
L 688.903306 -42.06125 
L 689.802556 -42.06125 
L 690.701807 -42.06125 
L 691.601057 -42.06125 
L 692.500308 -42.06125 
L 693.399558 -42.06125 
L 694.298809 -42.06125 
L 695.198059 -42.06125 
L 696.09731 -42.06125 
L 696.09731 -42.070629 
L 696.09731 -42.070629 
L 695.198059 -42.075936 
L 694.298809 -42.08371 
L 693.399558 -42.094803 
L 692.500308 -42.110209 
L 691.601057 -42.131031 
L 690.701807 -42.158402 
L 689.802556 -42.193376 
L 688.903306 -42.236781 
L 688.004055 -42.289059 
L 687.104805 -42.350099 
L 686.205554 -42.419091 
L 685.306303 -42.494448 
L 684.407053 -42.573806 
L 683.507802 -42.654131 
L 682.608552 -42.731943 
L 681.709301 -42.803641 
L 680.810051 -42.865897 
L 679.9108 -42.916057 
L 679.01155 -42.952507 
L 678.112299 -42.974919 
L 677.213049 -42.984335 
L 676.313798 -42.983065 
L 675.414548 -42.974396 
L 674.515297 -42.962139 
L 673.616047 -42.9501 
L 672.716796 -42.941533 
L 671.817546 -42.938679 
L 670.918295 -42.942461 
L 670.019044 -42.952391 
L 669.119794 -42.966712 
L 668.220543 -42.982753 
L 667.321293 -42.99745 
L 666.422042 -43.007956 
L 665.522792 -43.012244 
L 664.623541 -43.009616 
L 663.724291 -43.001043 
L 662.82504 -42.98928 
L 661.92579 -42.978748 
L 661.026539 -42.975191 
L 660.127289 -42.985151 
L 659.228038 -43.015336 
L 658.328788 -43.071952 
L 657.429537 -43.160072 
L 656.530286 -43.283133 
L 655.631036 -43.442585 
L 654.731785 -43.637755 
L 653.832535 -43.865924 
L 652.933284 -44.12259 
L 652.034034 -44.401916 
L 651.134783 -44.697271 
L 650.235533 -45.001848 
L 649.336282 -45.309264 
L 648.437032 -45.614119 
L 647.537781 -45.912452 
L 646.638531 -46.202083 
L 645.73928 -46.482822 
L 644.84003 -46.756535 
L 643.940779 -47.027064 
L 643.041529 -47.300008 
L 642.142278 -47.582353 
L 641.243027 -47.881965 
L 640.343777 -48.206976 
L 639.444526 -48.565079 
L 638.545276 -48.96282 
L 637.646025 -49.404952 
L 636.746775 -49.893946 
L 635.847524 -50.429729 
L 634.948274 -51.009741 
L 634.049023 -51.629297 
L 633.149773 -52.282267 
L 632.250522 -52.961979 
L 631.351272 -53.662256 
L 630.452021 -54.378417 
L 629.552771 -55.108118 
L 628.65352 -55.851888 
L 627.75427 -56.613255 
L 626.855019 -57.398439 
L 625.955768 -58.215617 
L 625.056518 -59.073865 
L 624.157267 -59.981915 
L 623.258017 -60.946889 
L 622.358766 -61.973206 
L 621.459516 -63.061781 
L 620.560265 -64.209649 
L 619.661015 -65.410015 
L 618.761764 -66.65273 
L 617.862514 -67.925117 
L 616.963263 -69.21303 
L 616.064013 -70.50207 
L 615.164762 -71.778824 
L 614.265512 -73.032091 
L 613.366261 -74.254006 
L 612.467011 -75.441041 
L 611.56776 -76.594818 
L 610.668509 -77.722673 
L 609.769259 -78.837887 
L 608.870008 -79.959492 
L 607.970758 -81.11156 
L 607.071507 -82.321944 
L 606.172257 -83.620468 
L 605.273006 -85.036705 
L 604.373756 -86.597522 
L 603.474505 -88.324681 
L 602.575255 -90.232829 
L 601.676004 -92.328154 
L 600.776754 -94.607971 
L 599.877503 -97.061305 
L 598.978253 -99.670443 
L 598.079002 -102.413226 
L 597.179752 -105.265754 
L 596.280501 -108.2051 
L 595.38125 -111.211658 
L 594.482 -114.2708 
L 593.582749 -117.373694 
L 592.683499 -120.517228 
L 591.784248 -123.703161 
L 590.884998 -126.936682 
L 589.985747 -130.224609 
L 589.086497 -133.573431 
L 588.187246 -136.987357 
L 587.287996 -140.466502 
L 586.388745 -144.005269 
L 585.489495 -147.59103 
L 584.590244 -151.203197 
L 583.690994 -154.812823 
L 582.791743 -158.382875 
L 581.892492 -161.869287 
L 580.993242 -165.222833 
L 580.093991 -168.391697 
L 579.194741 -171.324495 
L 578.29549 -173.973339 
L 577.39624 -176.296486 
L 576.496989 -178.260111 
L 575.597739 -179.838888 
L 574.698488 -181.015257 
L 573.799238 -181.777525 
L 572.899987 -182.117202 
L 572.000737 -182.026138 
L 571.101486 -181.494098 
L 570.202236 -180.507354 
L 569.302985 -179.048659 
L 568.403735 -177.098701 
L 567.504484 -174.638864 
L 566.605233 -171.65483 
L 565.705983 -168.140443 
L 564.806732 -164.101187 
L 563.907482 -159.556732 
L 563.008231 -154.542171 
L 562.108981 -149.107793 
L 561.20973 -143.317463 
L 560.31048 -137.245861 
L 559.411229 -130.974939 
L 558.511979 -124.590027 
L 557.612728 -118.175963 
L 556.713478 -111.813582 
L 555.814227 -105.57682 
L 554.914977 -99.530553 
L 554.015726 -93.72926 
L 553.116476 -88.216467 
L 552.217225 -83.024901 
L 551.317974 -78.177231 
L 550.418724 -73.687212 
L 549.519473 -69.561065 
L 548.620223 -65.798913 
L 547.720972 -62.396098 
L 546.821722 -59.344275 
L 545.922471 -56.632194 
L 545.023221 -54.246171 
L 544.12397 -52.170285 
L 543.22472 -50.386401 
L 542.325469 -48.874126 
L 541.426219 -47.610827 
L 540.526968 -46.57182 
L 539.627718 -45.730771 
L 538.728467 -45.060345 
L 537.829217 -44.533057 
L 536.929966 -44.122231 
L 536.030715 -43.802976 
L 535.131465 -43.553051 
L 534.232214 -43.353522 
L 533.332964 -43.18913 
L 532.433713 -43.048365 
L 531.534463 -42.923234 
L 530.635212 -42.808797 
L 529.735962 -42.70254 
L 528.836711 -42.603683 
L 527.937461 -42.512511 
L 527.03821 -42.429785 
L 526.13896 -42.356298 
L 525.239709 -42.292577 
L 524.340459 -42.238734 
L 523.441208 -42.194437 
L 522.541958 -42.158967 
L 521.642707 -42.131325 
L 520.743456 -42.110358 
L 519.844206 -42.094877 
L 518.944955 -42.083746 
L 518.045705 -42.075953 
L 517.146454 -42.070637 
z
" style="stroke: #1f77b4"/>
    </defs>
    <g clip-path="url(#pc19ee83b67)">
     <use xlink:href="#m8ae95c7f2f" x="0" y="216" style="fill: #1f77b4; fill-opacity: 0.25; stroke: #1f77b4"/>
    </g>
   </g>
   <g id="matplotlib.axis_7">
    <g id="xtick_4">
     <g id="line2d_37">
      <g>
       <use xlink:href="#mf5a302c85e" x="524.572532" y="173.93875" style="stroke: #000000; stroke-width: 0.8"/>
      </g>
     </g>
     <g id="text_28">
      <!-- 0 -->
      <g transform="translate(521.391282 188.537188) scale(0.1 -0.1)">
       <use xlink:href="#DejaVuSans-30"/>
      </g>
     </g>
    </g>
    <g id="xtick_5">
     <g id="line2d_38">
      <g>
       <use xlink:href="#mf5a302c85e" x="569.146777" y="173.93875" style="stroke: #000000; stroke-width: 0.8"/>
      </g>
     </g>
     <g id="text_29">
      <!-- 10 -->
      <g transform="translate(562.784277 188.537188) scale(0.1 -0.1)">
       <use xlink:href="#DejaVuSans-31"/>
       <use xlink:href="#DejaVuSans-30" transform="translate(63.623047 0)"/>
      </g>
     </g>
    </g>
    <g id="xtick_6">
     <g id="line2d_39">
      <g>
       <use xlink:href="#mf5a302c85e" x="613.721021" y="173.93875" style="stroke: #000000; stroke-width: 0.8"/>
      </g>
     </g>
     <g id="text_30">
      <!-- 20 -->
      <g transform="translate(607.358521 188.537188) scale(0.1 -0.1)">
       <use xlink:href="#DejaVuSans-32"/>
       <use xlink:href="#DejaVuSans-30" transform="translate(63.623047 0)"/>
      </g>
     </g>
    </g>
    <g id="xtick_7">
     <g id="line2d_40">
      <g>
       <use xlink:href="#mf5a302c85e" x="658.295266" y="173.93875" style="stroke: #000000; stroke-width: 0.8"/>
      </g>
     </g>
     <g id="text_31">
      <!-- 30 -->
      <g transform="translate(651.932766 188.537188) scale(0.1 -0.1)">
       <defs>
        <path id="DejaVuSans-33" d="M 2597 2516 
Q 3050 2419 3304 2112 
Q 3559 1806 3559 1356 
Q 3559 666 3084 287 
Q 2609 -91 1734 -91 
Q 1441 -91 1130 -33 
Q 819 25 488 141 
L 488 750 
Q 750 597 1062 519 
Q 1375 441 1716 441 
Q 2309 441 2620 675 
Q 2931 909 2931 1356 
Q 2931 1769 2642 2001 
Q 2353 2234 1838 2234 
L 1294 2234 
L 1294 2753 
L 1863 2753 
Q 2328 2753 2575 2939 
Q 2822 3125 2822 3475 
Q 2822 3834 2567 4026 
Q 2313 4219 1838 4219 
Q 1578 4219 1281 4162 
Q 984 4106 628 3988 
L 628 4550 
Q 988 4650 1302 4700 
Q 1616 4750 1894 4750 
Q 2613 4750 3031 4423 
Q 3450 4097 3450 3541 
Q 3450 3153 3228 2886 
Q 3006 2619 2597 2516 
z
" transform="scale(0.015625)"/>
       </defs>
       <use xlink:href="#DejaVuSans-33"/>
       <use xlink:href="#DejaVuSans-30" transform="translate(63.623047 0)"/>
      </g>
     </g>
    </g>
    <g id="xtick_8">
     <g id="line2d_41">
      <g>
       <use xlink:href="#mf5a302c85e" x="702.86951" y="173.93875" style="stroke: #000000; stroke-width: 0.8"/>
      </g>
     </g>
     <g id="text_32">
      <!-- 40 -->
      <g transform="translate(696.50701 188.537188) scale(0.1 -0.1)">
       <use xlink:href="#DejaVuSans-34"/>
       <use xlink:href="#DejaVuSans-30" transform="translate(63.623047 0)"/>
      </g>
     </g>
    </g>
    <g id="text_33">
     <!-- gf.count_skew -->
     <g transform="translate(571.37032 202.215313) scale(0.1 -0.1)">
      <defs>
       <path id="DejaVuSans-66" d="M 2375 4863 
L 2375 4384 
L 1825 4384 
Q 1516 4384 1395 4259 
Q 1275 4134 1275 3809 
L 1275 3500 
L 2222 3500 
L 2222 3053 
L 1275 3053 
L 1275 0 
L 697 0 
L 697 3053 
L 147 3053 
L 147 3500 
L 697 3500 
L 697 3744 
Q 697 4328 969 4595 
Q 1241 4863 1831 4863 
L 2375 4863 
z
" transform="scale(0.015625)"/>
       <path id="DejaVuSans-5f" d="M 3263 -1063 
L 3263 -1509 
L -63 -1509 
L -63 -1063 
L 3263 -1063 
z
" transform="scale(0.015625)"/>
       <path id="DejaVuSans-6b" d="M 581 4863 
L 1159 4863 
L 1159 1991 
L 2875 3500 
L 3609 3500 
L 1753 1863 
L 3688 0 
L 2938 0 
L 1159 1709 
L 1159 0 
L 581 0 
L 581 4863 
z
" transform="scale(0.015625)"/>
       <path id="DejaVuSans-77" d="M 269 3500 
L 844 3500 
L 1563 769 
L 2278 3500 
L 2956 3500 
L 3675 769 
L 4391 3500 
L 4966 3500 
L 4050 0 
L 3372 0 
L 2619 2869 
L 1863 0 
L 1184 0 
L 269 3500 
z
" transform="scale(0.015625)"/>
      </defs>
      <use xlink:href="#DejaVuSans-67"/>
      <use xlink:href="#DejaVuSans-66" transform="translate(63.476562 0)"/>
      <use xlink:href="#DejaVuSans-2e" transform="translate(91.431641 0)"/>
      <use xlink:href="#DejaVuSans-63" transform="translate(123.21875 0)"/>
      <use xlink:href="#DejaVuSans-6f" transform="translate(178.199219 0)"/>
      <use xlink:href="#DejaVuSans-75" transform="translate(239.380859 0)"/>
      <use xlink:href="#DejaVuSans-6e" transform="translate(302.759766 0)"/>
      <use xlink:href="#DejaVuSans-74" transform="translate(366.138672 0)"/>
      <use xlink:href="#DejaVuSans-5f" transform="translate(405.347656 0)"/>
      <use xlink:href="#DejaVuSans-73" transform="translate(455.347656 0)"/>
      <use xlink:href="#DejaVuSans-6b" transform="translate(507.447266 0)"/>
      <use xlink:href="#DejaVuSans-65" transform="translate(561.732422 0)"/>
      <use xlink:href="#DejaVuSans-77" transform="translate(623.255859 0)"/>
     </g>
    </g>
   </g>
   <g id="matplotlib.axis_8">
    <g id="ytick_16">
     <g id="line2d_42">
      <g>
       <use xlink:href="#m09698c36e3" x="508.198912" y="173.93875" style="stroke: #000000; stroke-width: 0.8"/>
      </g>
     </g>
     <g id="text_34">
      <!-- 0.00 -->
      <g transform="translate(478.933287 177.737969) scale(0.1 -0.1)">
       <use xlink:href="#DejaVuSans-30"/>
       <use xlink:href="#DejaVuSans-2e" transform="translate(63.623047 0)"/>
       <use xlink:href="#DejaVuSans-30" transform="translate(95.410156 0)"/>
       <use xlink:href="#DejaVuSans-30" transform="translate(159.033203 0)"/>
      </g>
     </g>
    </g>
    <g id="ytick_17">
     <g id="line2d_43">
      <g>
       <use xlink:href="#m09698c36e3" x="508.198912" y="146.157618" style="stroke: #000000; stroke-width: 0.8"/>
      </g>
     </g>
     <g id="text_35">
      <!-- 0.02 -->
      <g transform="translate(478.933287 149.956837) scale(0.1 -0.1)">
       <use xlink:href="#DejaVuSans-30"/>
       <use xlink:href="#DejaVuSans-2e" transform="translate(63.623047 0)"/>
       <use xlink:href="#DejaVuSans-30" transform="translate(95.410156 0)"/>
       <use xlink:href="#DejaVuSans-32" transform="translate(159.033203 0)"/>
      </g>
     </g>
    </g>
    <g id="ytick_18">
     <g id="line2d_44">
      <g>
       <use xlink:href="#m09698c36e3" x="508.198912" y="118.376487" style="stroke: #000000; stroke-width: 0.8"/>
      </g>
     </g>
     <g id="text_36">
      <!-- 0.04 -->
      <g transform="translate(478.933287 122.175705) scale(0.1 -0.1)">
       <use xlink:href="#DejaVuSans-30"/>
       <use xlink:href="#DejaVuSans-2e" transform="translate(63.623047 0)"/>
       <use xlink:href="#DejaVuSans-30" transform="translate(95.410156 0)"/>
       <use xlink:href="#DejaVuSans-34" transform="translate(159.033203 0)"/>
      </g>
     </g>
    </g>
    <g id="ytick_19">
     <g id="line2d_45">
      <g>
       <use xlink:href="#m09698c36e3" x="508.198912" y="90.595355" style="stroke: #000000; stroke-width: 0.8"/>
      </g>
     </g>
     <g id="text_37">
      <!-- 0.06 -->
      <g transform="translate(478.933287 94.394574) scale(0.1 -0.1)">
       <use xlink:href="#DejaVuSans-30"/>
       <use xlink:href="#DejaVuSans-2e" transform="translate(63.623047 0)"/>
       <use xlink:href="#DejaVuSans-30" transform="translate(95.410156 0)"/>
       <use xlink:href="#DejaVuSans-36" transform="translate(159.033203 0)"/>
      </g>
     </g>
    </g>
    <g id="ytick_20">
     <g id="line2d_46">
      <g>
       <use xlink:href="#m09698c36e3" x="508.198912" y="62.814223" style="stroke: #000000; stroke-width: 0.8"/>
      </g>
     </g>
     <g id="text_38">
      <!-- 0.08 -->
      <g transform="translate(478.933287 66.613442) scale(0.1 -0.1)">
       <use xlink:href="#DejaVuSans-30"/>
       <use xlink:href="#DejaVuSans-2e" transform="translate(63.623047 0)"/>
       <use xlink:href="#DejaVuSans-30" transform="translate(95.410156 0)"/>
       <use xlink:href="#DejaVuSans-38" transform="translate(159.033203 0)"/>
      </g>
     </g>
    </g>
    <g id="ytick_21">
     <g id="line2d_47">
      <g>
       <use xlink:href="#m09698c36e3" x="508.198912" y="35.033092" style="stroke: #000000; stroke-width: 0.8"/>
      </g>
     </g>
     <g id="text_39">
      <!-- 0.10 -->
      <g transform="translate(478.933287 38.832311) scale(0.1 -0.1)">
       <use xlink:href="#DejaVuSans-30"/>
       <use xlink:href="#DejaVuSans-2e" transform="translate(63.623047 0)"/>
       <use xlink:href="#DejaVuSans-31" transform="translate(95.410156 0)"/>
       <use xlink:href="#DejaVuSans-30" transform="translate(159.033203 0)"/>
      </g>
     </g>
    </g>
    <g id="text_40">
     <!-- Density -->
     <g transform="translate(472.853599 119.417969) rotate(-90) scale(0.1 -0.1)">
      <defs>
       <path id="DejaVuSans-44" d="M 1259 4147 
L 1259 519 
L 2022 519 
Q 2988 519 3436 956 
Q 3884 1394 3884 2338 
Q 3884 3275 3436 3711 
Q 2988 4147 2022 4147 
L 1259 4147 
z
M 628 4666 
L 1925 4666 
Q 3281 4666 3915 4102 
Q 4550 3538 4550 2338 
Q 4550 1131 3912 565 
Q 3275 0 1925 0 
L 628 0 
L 628 4666 
z
" transform="scale(0.015625)"/>
      </defs>
      <use xlink:href="#DejaVuSans-44"/>
      <use xlink:href="#DejaVuSans-65" transform="translate(77.001953 0)"/>
      <use xlink:href="#DejaVuSans-6e" transform="translate(138.525391 0)"/>
      <use xlink:href="#DejaVuSans-73" transform="translate(201.904297 0)"/>
      <use xlink:href="#DejaVuSans-69" transform="translate(254.003906 0)"/>
      <use xlink:href="#DejaVuSans-74" transform="translate(281.787109 0)"/>
      <use xlink:href="#DejaVuSans-79" transform="translate(320.996094 0)"/>
     </g>
    </g>
   </g>
   <g id="patch_21">
    <path d="M 508.198912 173.93875 
L 508.198912 26.88 
" style="fill: none; stroke: #000000; stroke-width: 0.8; stroke-linejoin: miter; stroke-linecap: square"/>
   </g>
   <g id="patch_22">
    <path d="M 705.044853 173.93875 
L 705.044853 26.88 
" style="fill: none; stroke: #000000; stroke-width: 0.8; stroke-linejoin: miter; stroke-linecap: square"/>
   </g>
   <g id="patch_23">
    <path d="M 508.198912 173.93875 
L 705.044853 173.93875 
" style="fill: none; stroke: #000000; stroke-width: 0.8; stroke-linejoin: miter; stroke-linecap: square"/>
   </g>
   <g id="patch_24">
    <path d="M 508.198912 26.88 
L 705.044853 26.88 
" style="fill: none; stroke: #000000; stroke-width: 0.8; stroke-linejoin: miter; stroke-linecap: square"/>
   </g>
   <g id="text_41">
    <!-- Gene Frequency Skewness -->
    <g transform="translate(526.566882 20.88) scale(0.12 -0.12)">
     <use xlink:href="#DejaVuSans-47"/>
     <use xlink:href="#DejaVuSans-65" transform="translate(77.490234 0)"/>
     <use xlink:href="#DejaVuSans-6e" transform="translate(139.013672 0)"/>
     <use xlink:href="#DejaVuSans-65" transform="translate(202.392578 0)"/>
     <use xlink:href="#DejaVuSans-20" transform="translate(263.916016 0)"/>
     <use xlink:href="#DejaVuSans-46" transform="translate(295.703125 0)"/>
     <use xlink:href="#DejaVuSans-72" transform="translate(345.972656 0)"/>
     <use xlink:href="#DejaVuSans-65" transform="translate(384.835938 0)"/>
     <use xlink:href="#DejaVuSans-71" transform="translate(446.359375 0)"/>
     <use xlink:href="#DejaVuSans-75" transform="translate(509.835938 0)"/>
     <use xlink:href="#DejaVuSans-65" transform="translate(573.214844 0)"/>
     <use xlink:href="#DejaVuSans-6e" transform="translate(634.738281 0)"/>
     <use xlink:href="#DejaVuSans-63" transform="translate(698.117188 0)"/>
     <use xlink:href="#DejaVuSans-79" transform="translate(753.097656 0)"/>
     <use xlink:href="#DejaVuSans-20" transform="translate(812.277344 0)"/>
     <use xlink:href="#DejaVuSans-53" transform="translate(844.064453 0)"/>
     <use xlink:href="#DejaVuSans-6b" transform="translate(907.541016 0)"/>
     <use xlink:href="#DejaVuSans-65" transform="translate(961.826172 0)"/>
     <use xlink:href="#DejaVuSans-77" transform="translate(1023.349609 0)"/>
     <use xlink:href="#DejaVuSans-6e" transform="translate(1105.136719 0)"/>
     <use xlink:href="#DejaVuSans-65" transform="translate(1168.515625 0)"/>
     <use xlink:href="#DejaVuSans-73" transform="translate(1230.039062 0)"/>
     <use xlink:href="#DejaVuSans-73" transform="translate(1282.138672 0)"/>
    </g>
   </g>
   <g id="legend_1">
    <g id="text_42">
     <!-- dataset -->
     <g transform="translate(662.23704 39.478438) scale(0.1 -0.1)">
      <use xlink:href="#DejaVuSans-64"/>
      <use xlink:href="#DejaVuSans-61" transform="translate(63.476562 0)"/>
      <use xlink:href="#DejaVuSans-74" transform="translate(124.755859 0)"/>
      <use xlink:href="#DejaVuSans-61" transform="translate(163.964844 0)"/>
      <use xlink:href="#DejaVuSans-73" transform="translate(225.244141 0)"/>
      <use xlink:href="#DejaVuSans-65" transform="translate(277.34375 0)"/>
      <use xlink:href="#DejaVuSans-74" transform="translate(338.867188 0)"/>
     </g>
    </g>
    <g id="patch_25">
     <path d="M 666.097196 55.508125 
L 676.097196 55.508125 
L 676.097196 46.558125 
L 666.097196 46.558125 
z
" style="fill: #1f77b4; fill-opacity: 0.25; stroke: #1f77b4; stroke-linejoin: miter"/>
    </g>
    <g id="text_43">
     <!-- PIT -->
     <g transform="translate(681.097196 54.458125) scale(0.1 -0.1)">
      <use xlink:href="#DejaVuSans-50"/>
      <use xlink:href="#DejaVuSans-49" transform="translate(60.302734 0)"/>
      <use xlink:href="#DejaVuSans-54" transform="translate(89.794922 0)"/>
     </g>
    </g>
   </g>
  </g>
 </g>
 <defs>
  <clipPath id="p5f66d72f97">
   <rect x="50.87" y="26.88" width="98.422971" height="147.05875"/>
  </clipPath>
  <clipPath id="pfade767102">
   <rect x="203.312971" y="26.88" width="98.422971" height="147.05875"/>
  </clipPath>
  <clipPath id="p02bb9d981e">
   <rect x="355.755941" y="26.88" width="98.422971" height="147.05875"/>
  </clipPath>
  <clipPath id="pc19ee83b67">
   <rect x="508.198912" y="26.88" width="196.845941" height="147.05875"/>
  </clipPath>
 </defs>
</svg>
