<?xml version="1.0" encoding="utf-8" standalone="no"?>
<!DOCTYPE svg PUBLIC "-//W3C//DTD SVG 1.1//EN"
  "http://www.w3.org/Graphics/SVG/1.1/DTD/svg11.dtd">
<svg xmlns:xlink="http://www.w3.org/1999/xlink" width="864pt" height="288pt" viewBox="0 0 864 288" xmlns="http://www.w3.org/2000/svg" version="1.1">
 <metadata>
  <rdf:RDF xmlns:dc="http://purl.org/dc/elements/1.1/" xmlns:cc="http://creativecommons.org/ns#" xmlns:rdf="http://www.w3.org/1999/02/22-rdf-syntax-ns#">
   <cc:Work>
    <dc:type rdf:resource="http://purl.org/dc/dcmitype/StillImage"/>
    <dc:date>2026-05-07T16:10:28.387559</dc:date>
    <dc:format>image/svg+xml</dc:format>
    <dc:creator>
     <cc:Agent>
      <dc:title>Matplotlib v3.10.9, https://matplotlib.org/</dc:title>
     </cc:Agent>
    </dc:creator>
   </cc:Work>
  </rdf:RDF>
 </metadata>
 <defs>
  <style type="text/css">*{stroke-linejoin: round; stroke-linecap: butt}</style>
 </defs>
 <g id="figure_1">
  <g id="patch_1">
   <path d="M 0 288 
L 864 288 
L 864 0 
L 0 0 
z
" style="fill: #ffffff"/>
  </g>
  <g id="axes_1">
   <g id="patch_2">
    <path d="M 51.06125 245.93875 
L 179.077 245.93875 
L 179.077 26.88 
L 51.06125 26.88 
z
" style="fill: #ffffff"/>
   </g>
   <g id="matplotlib.axis_1">
    <g id="xtick_1">
     <g id="line2d_1">
      <defs>
       <path id="m7d51e57135" d="M 0 0 
L 0 3.5 
" style="stroke: #000000; stroke-width: 0.8"/>
      </defs>
      <g>
       <use xlink:href="#m7d51e57135" x="115.069125" y="245.93875" style="stroke: #000000; stroke-width: 0.8"/>
      </g>
     </g>
     <g id="text_1">
      <!-- BRE -->
      <g transform="translate(105.005063 260.537188) scale(0.1 -0.1)">
       <defs>
        <path id="DejaVuSans-42" d="M 1259 2228 
L 1259 519 
L 2272 519 
Q 2781 519 3026 730 
Q 3272 941 3272 1375 
Q 3272 1813 3026 2020 
Q 2781 2228 2272 2228 
L 1259 2228 
z
M 1259 4147 
L 1259 2741 
L 2194 2741 
Q 2656 2741 2882 2914 
Q 3109 3088 3109 3444 
Q 3109 3797 2882 3972 
Q 2656 4147 2194 4147 
L 1259 4147 
z
M 628 4666 
L 2241 4666 
Q 2963 4666 3353 4366 
Q 3744 4066 3744 3513 
Q 3744 3084 3544 2831 
Q 3344 2578 2956 2516 
Q 3422 2416 3680 2098 
Q 3938 1781 3938 1306 
Q 3938 681 3513 340 
Q 3088 0 2303 0 
L 628 0 
L 628 4666 
z
" transform="scale(0.015625)"/>
        <path id="DejaVuSans-52" d="M 2841 2188 
Q 3044 2119 3236 1894 
Q 3428 1669 3622 1275 
L 4263 0 
L 3584 0 
L 2988 1197 
Q 2756 1666 2539 1819 
Q 2322 1972 1947 1972 
L 1259 1972 
L 1259 0 
L 628 0 
L 628 4666 
L 2053 4666 
Q 2853 4666 3247 4331 
Q 3641 3997 3641 3322 
Q 3641 2881 3436 2590 
Q 3231 2300 2841 2188 
z
M 1259 4147 
L 1259 2491 
L 2053 2491 
Q 2509 2491 2742 2702 
Q 2975 2913 2975 3322 
Q 2975 3731 2742 3939 
Q 2509 4147 2053 4147 
L 1259 4147 
z
" transform="scale(0.015625)"/>
        <path id="DejaVuSans-45" d="M 628 4666 
L 3578 4666 
L 3578 4134 
L 1259 4134 
L 1259 2753 
L 3481 2753 
L 3481 2222 
L 1259 2222 
L 1259 531 
L 3634 531 
L 3634 0 
L 628 0 
L 628 4666 
z
" transform="scale(0.015625)"/>
       </defs>
       <use xlink:href="#DejaVuSans-42"/>
       <use xlink:href="#DejaVuSans-52" transform="translate(68.603516 0)"/>
       <use xlink:href="#DejaVuSans-45" transform="translate(138.085938 0)"/>
      </g>
     </g>
    </g>
    <g id="text_2">
     <!-- dataset -->
     <g transform="translate(96.165219 274.215312) scale(0.1 -0.1)">
      <defs>
       <path id="DejaVuSans-64" d="M 2906 2969 
L 2906 4863 
L 3481 4863 
L 3481 0 
L 2906 0 
L 2906 525 
Q 2725 213 2448 61 
Q 2172 -91 1784 -91 
Q 1150 -91 751 415 
Q 353 922 353 1747 
Q 353 2572 751 3078 
Q 1150 3584 1784 3584 
Q 2172 3584 2448 3432 
Q 2725 3281 2906 2969 
z
M 947 1747 
Q 947 1113 1208 752 
Q 1469 391 1925 391 
Q 2381 391 2643 752 
Q 2906 1113 2906 1747 
Q 2906 2381 2643 2742 
Q 2381 3103 1925 3103 
Q 1469 3103 1208 2742 
Q 947 2381 947 1747 
z
" transform="scale(0.015625)"/>
       <path id="DejaVuSans-61" d="M 2194 1759 
Q 1497 1759 1228 1600 
Q 959 1441 959 1056 
Q 959 750 1161 570 
Q 1363 391 1709 391 
Q 2188 391 2477 730 
Q 2766 1069 2766 1631 
L 2766 1759 
L 2194 1759 
z
M 3341 1997 
L 3341 0 
L 2766 0 
L 2766 531 
Q 2569 213 2275 61 
Q 1981 -91 1556 -91 
Q 1019 -91 701 211 
Q 384 513 384 1019 
Q 384 1609 779 1909 
Q 1175 2209 1959 2209 
L 2766 2209 
L 2766 2266 
Q 2766 2663 2505 2880 
Q 2244 3097 1772 3097 
Q 1472 3097 1187 3025 
Q 903 2953 641 2809 
L 641 3341 
Q 956 3463 1253 3523 
Q 1550 3584 1831 3584 
Q 2591 3584 2966 3190 
Q 3341 2797 3341 1997 
z
" transform="scale(0.015625)"/>
       <path id="DejaVuSans-74" d="M 1172 4494 
L 1172 3500 
L 2356 3500 
L 2356 3053 
L 1172 3053 
L 1172 1153 
Q 1172 725 1289 603 
Q 1406 481 1766 481 
L 2356 481 
L 2356 0 
L 1766 0 
Q 1100 0 847 248 
Q 594 497 594 1153 
L 594 3053 
L 172 3053 
L 172 3500 
L 594 3500 
L 594 4494 
L 1172 4494 
z
" transform="scale(0.015625)"/>
       <path id="DejaVuSans-73" d="M 2834 3397 
L 2834 2853 
Q 2591 2978 2328 3040 
Q 2066 3103 1784 3103 
Q 1356 3103 1142 2972 
Q 928 2841 928 2578 
Q 928 2378 1081 2264 
Q 1234 2150 1697 2047 
L 1894 2003 
Q 2506 1872 2764 1633 
Q 3022 1394 3022 966 
Q 3022 478 2636 193 
Q 2250 -91 1575 -91 
Q 1294 -91 989 -36 
Q 684 19 347 128 
L 347 722 
Q 666 556 975 473 
Q 1284 391 1588 391 
Q 1994 391 2212 530 
Q 2431 669 2431 922 
Q 2431 1156 2273 1281 
Q 2116 1406 1581 1522 
L 1381 1569 
Q 847 1681 609 1914 
Q 372 2147 372 2553 
Q 372 3047 722 3315 
Q 1072 3584 1716 3584 
Q 2034 3584 2315 3537 
Q 2597 3491 2834 3397 
z
" transform="scale(0.015625)"/>
       <path id="DejaVuSans-65" d="M 3597 1894 
L 3597 1613 
L 953 1613 
Q 991 1019 1311 708 
Q 1631 397 2203 397 
Q 2534 397 2845 478 
Q 3156 559 3463 722 
L 3463 178 
Q 3153 47 2828 -22 
Q 2503 -91 2169 -91 
Q 1331 -91 842 396 
Q 353 884 353 1716 
Q 353 2575 817 3079 
Q 1281 3584 2069 3584 
Q 2775 3584 3186 3129 
Q 3597 2675 3597 1894 
z
M 3022 2063 
Q 3016 2534 2758 2815 
Q 2500 3097 2075 3097 
Q 1594 3097 1305 2825 
Q 1016 2553 972 2059 
L 3022 2063 
z
" transform="scale(0.015625)"/>
      </defs>
      <use xlink:href="#DejaVuSans-64"/>
      <use xlink:href="#DejaVuSans-61" transform="translate(63.476562 0)"/>
      <use xlink:href="#DejaVuSans-74" transform="translate(124.755859 0)"/>
      <use xlink:href="#DejaVuSans-61" transform="translate(163.964844 0)"/>
      <use xlink:href="#DejaVuSans-73" transform="translate(225.244141 0)"/>
      <use xlink:href="#DejaVuSans-65" transform="translate(277.34375 0)"/>
      <use xlink:href="#DejaVuSans-74" transform="translate(338.867188 0)"/>
     </g>
    </g>
   </g>
   <g id="matplotlib.axis_2">
    <g id="ytick_1">
     <g id="line2d_2">
      <defs>
       <path id="m0e8bb90a1b" d="M 0 0 
L -3.5 0 
" style="stroke: #000000; stroke-width: 0.8"/>
      </defs>
      <g>
       <use xlink:href="#m0e8bb90a1b" x="51.06125" y="237.274679" style="stroke: #000000; stroke-width: 0.8"/>
      </g>
     </g>
     <g id="text_3">
      <!-- 0 -->
      <g transform="translate(37.69875 241.073898) scale(0.1 -0.1)">
       <defs>
        <path id="DejaVuSans-30" d="M 2034 4250 
Q 1547 4250 1301 3770 
Q 1056 3291 1056 2328 
Q 1056 1369 1301 889 
Q 1547 409 2034 409 
Q 2525 409 2770 889 
Q 3016 1369 3016 2328 
Q 3016 3291 2770 3770 
Q 2525 4250 2034 4250 
z
M 2034 4750 
Q 2819 4750 3233 4129 
Q 3647 3509 3647 2328 
Q 3647 1150 3233 529 
Q 2819 -91 2034 -91 
Q 1250 -91 836 529 
Q 422 1150 422 2328 
Q 422 3509 836 4129 
Q 1250 4750 2034 4750 
z
" transform="scale(0.015625)"/>
       </defs>
       <use xlink:href="#DejaVuSans-30"/>
      </g>
     </g>
    </g>
    <g id="ytick_2">
     <g id="line2d_3">
      <g>
       <use xlink:href="#m0e8bb90a1b" x="51.06125" y="211.411781" style="stroke: #000000; stroke-width: 0.8"/>
      </g>
     </g>
     <g id="text_4">
      <!-- 20 -->
      <g transform="translate(31.33625 215.210999) scale(0.1 -0.1)">
       <defs>
        <path id="DejaVuSans-32" d="M 1228 531 
L 3431 531 
L 3431 0 
L 469 0 
L 469 531 
Q 828 903 1448 1529 
Q 2069 2156 2228 2338 
Q 2531 2678 2651 2914 
Q 2772 3150 2772 3378 
Q 2772 3750 2511 3984 
Q 2250 4219 1831 4219 
Q 1534 4219 1204 4116 
Q 875 4013 500 3803 
L 500 4441 
Q 881 4594 1212 4672 
Q 1544 4750 1819 4750 
Q 2544 4750 2975 4387 
Q 3406 4025 3406 3419 
Q 3406 3131 3298 2873 
Q 3191 2616 2906 2266 
Q 2828 2175 2409 1742 
Q 1991 1309 1228 531 
z
" transform="scale(0.015625)"/>
       </defs>
       <use xlink:href="#DejaVuSans-32"/>
       <use xlink:href="#DejaVuSans-30" transform="translate(63.623047 0)"/>
      </g>
     </g>
    </g>
    <g id="ytick_3">
     <g id="line2d_4">
      <g>
       <use xlink:href="#m0e8bb90a1b" x="51.06125" y="185.548882" style="stroke: #000000; stroke-width: 0.8"/>
      </g>
     </g>
     <g id="text_5">
      <!-- 40 -->
      <g transform="translate(31.33625 189.348101) scale(0.1 -0.1)">
       <defs>
        <path id="DejaVuSans-34" d="M 2419 4116 
L 825 1625 
L 2419 1625 
L 2419 4116 
z
M 2253 4666 
L 3047 4666 
L 3047 1625 
L 3713 1625 
L 3713 1100 
L 3047 1100 
L 3047 0 
L 2419 0 
L 2419 1100 
L 313 1100 
L 313 1709 
L 2253 4666 
z
" transform="scale(0.015625)"/>
       </defs>
       <use xlink:href="#DejaVuSans-34"/>
       <use xlink:href="#DejaVuSans-30" transform="translate(63.623047 0)"/>
      </g>
     </g>
    </g>
    <g id="ytick_4">
     <g id="line2d_5">
      <g>
       <use xlink:href="#m0e8bb90a1b" x="51.06125" y="159.685984" style="stroke: #000000; stroke-width: 0.8"/>
      </g>
     </g>
     <g id="text_6">
      <!-- 60 -->
      <g transform="translate(31.33625 163.485202) scale(0.1 -0.1)">
       <defs>
        <path id="DejaVuSans-36" d="M 2113 2584 
Q 1688 2584 1439 2293 
Q 1191 2003 1191 1497 
Q 1191 994 1439 701 
Q 1688 409 2113 409 
Q 2538 409 2786 701 
Q 3034 994 3034 1497 
Q 3034 2003 2786 2293 
Q 2538 2584 2113 2584 
z
M 3366 4563 
L 3366 3988 
Q 3128 4100 2886 4159 
Q 2644 4219 2406 4219 
Q 1781 4219 1451 3797 
Q 1122 3375 1075 2522 
Q 1259 2794 1537 2939 
Q 1816 3084 2150 3084 
Q 2853 3084 3261 2657 
Q 3669 2231 3669 1497 
Q 3669 778 3244 343 
Q 2819 -91 2113 -91 
Q 1303 -91 875 529 
Q 447 1150 447 2328 
Q 447 3434 972 4092 
Q 1497 4750 2381 4750 
Q 2619 4750 2861 4703 
Q 3103 4656 3366 4563 
z
" transform="scale(0.015625)"/>
       </defs>
       <use xlink:href="#DejaVuSans-36"/>
       <use xlink:href="#DejaVuSans-30" transform="translate(63.623047 0)"/>
      </g>
     </g>
    </g>
    <g id="ytick_5">
     <g id="line2d_6">
      <g>
       <use xlink:href="#m0e8bb90a1b" x="51.06125" y="133.823085" style="stroke: #000000; stroke-width: 0.8"/>
      </g>
     </g>
     <g id="text_7">
      <!-- 80 -->
      <g transform="translate(31.33625 137.622304) scale(0.1 -0.1)">
       <defs>
        <path id="DejaVuSans-38" d="M 2034 2216 
Q 1584 2216 1326 1975 
Q 1069 1734 1069 1313 
Q 1069 891 1326 650 
Q 1584 409 2034 409 
Q 2484 409 2743 651 
Q 3003 894 3003 1313 
Q 3003 1734 2745 1975 
Q 2488 2216 2034 2216 
z
M 1403 2484 
Q 997 2584 770 2862 
Q 544 3141 544 3541 
Q 544 4100 942 4425 
Q 1341 4750 2034 4750 
Q 2731 4750 3128 4425 
Q 3525 4100 3525 3541 
Q 3525 3141 3298 2862 
Q 3072 2584 2669 2484 
Q 3125 2378 3379 2068 
Q 3634 1759 3634 1313 
Q 3634 634 3220 271 
Q 2806 -91 2034 -91 
Q 1263 -91 848 271 
Q 434 634 434 1313 
Q 434 1759 690 2068 
Q 947 2378 1403 2484 
z
M 1172 3481 
Q 1172 3119 1398 2916 
Q 1625 2713 2034 2713 
Q 2441 2713 2670 2916 
Q 2900 3119 2900 3481 
Q 2900 3844 2670 4047 
Q 2441 4250 2034 4250 
Q 1625 4250 1398 4047 
Q 1172 3844 1172 3481 
z
" transform="scale(0.015625)"/>
       </defs>
       <use xlink:href="#DejaVuSans-38"/>
       <use xlink:href="#DejaVuSans-30" transform="translate(63.623047 0)"/>
      </g>
     </g>
    </g>
    <g id="ytick_6">
     <g id="line2d_7">
      <g>
       <use xlink:href="#m0e8bb90a1b" x="51.06125" y="107.960187" style="stroke: #000000; stroke-width: 0.8"/>
      </g>
     </g>
     <g id="text_8">
      <!-- 100 -->
      <g transform="translate(24.97375 111.759405) scale(0.1 -0.1)">
       <defs>
        <path id="DejaVuSans-31" d="M 794 531 
L 1825 531 
L 1825 4091 
L 703 3866 
L 703 4441 
L 1819 4666 
L 2450 4666 
L 2450 531 
L 3481 531 
L 3481 0 
L 794 0 
L 794 531 
z
" transform="scale(0.015625)"/>
       </defs>
       <use xlink:href="#DejaVuSans-31"/>
       <use xlink:href="#DejaVuSans-30" transform="translate(63.623047 0)"/>
       <use xlink:href="#DejaVuSans-30" transform="translate(127.246094 0)"/>
      </g>
     </g>
    </g>
    <g id="ytick_7">
     <g id="line2d_8">
      <g>
       <use xlink:href="#m0e8bb90a1b" x="51.06125" y="82.097288" style="stroke: #000000; stroke-width: 0.8"/>
      </g>
     </g>
     <g id="text_9">
      <!-- 120 -->
      <g transform="translate(24.97375 85.896507) scale(0.1 -0.1)">
       <use xlink:href="#DejaVuSans-31"/>
       <use xlink:href="#DejaVuSans-32" transform="translate(63.623047 0)"/>
       <use xlink:href="#DejaVuSans-30" transform="translate(127.246094 0)"/>
      </g>
     </g>
    </g>
    <g id="ytick_8">
     <g id="line2d_9">
      <g>
       <use xlink:href="#m0e8bb90a1b" x="51.06125" y="56.23439" style="stroke: #000000; stroke-width: 0.8"/>
      </g>
     </g>
     <g id="text_10">
      <!-- 140 -->
      <g transform="translate(24.97375 60.033609) scale(0.1 -0.1)">
       <use xlink:href="#DejaVuSans-31"/>
       <use xlink:href="#DejaVuSans-34" transform="translate(63.623047 0)"/>
       <use xlink:href="#DejaVuSans-30" transform="translate(127.246094 0)"/>
      </g>
     </g>
    </g>
    <g id="ytick_9">
     <g id="line2d_10">
      <g>
       <use xlink:href="#m0e8bb90a1b" x="51.06125" y="30.371491" style="stroke: #000000; stroke-width: 0.8"/>
      </g>
     </g>
     <g id="text_11">
      <!-- 160 -->
      <g transform="translate(24.97375 34.17071) scale(0.1 -0.1)">
       <use xlink:href="#DejaVuSans-31"/>
       <use xlink:href="#DejaVuSans-36" transform="translate(63.623047 0)"/>
       <use xlink:href="#DejaVuSans-30" transform="translate(127.246094 0)"/>
      </g>
     </g>
    </g>
    <g id="text_12">
     <!-- total_root_nodes -->
     <g transform="translate(18.615938 177.947656) rotate(-90) scale(0.1 -0.1)">
      <defs>
       <path id="DejaVuSans-6f" d="M 1959 3097 
Q 1497 3097 1228 2736 
Q 959 2375 959 1747 
Q 959 1119 1226 758 
Q 1494 397 1959 397 
Q 2419 397 2687 759 
Q 2956 1122 2956 1747 
Q 2956 2369 2687 2733 
Q 2419 3097 1959 3097 
z
M 1959 3584 
Q 2709 3584 3137 3096 
Q 3566 2609 3566 1747 
Q 3566 888 3137 398 
Q 2709 -91 1959 -91 
Q 1206 -91 779 398 
Q 353 888 353 1747 
Q 353 2609 779 3096 
Q 1206 3584 1959 3584 
z
" transform="scale(0.015625)"/>
       <path id="DejaVuSans-6c" d="M 603 4863 
L 1178 4863 
L 1178 0 
L 603 0 
L 603 4863 
z
" transform="scale(0.015625)"/>
       <path id="DejaVuSans-5f" d="M 3263 -1063 
L 3263 -1509 
L -63 -1509 
L -63 -1063 
L 3263 -1063 
z
" transform="scale(0.015625)"/>
       <path id="DejaVuSans-72" d="M 2631 2963 
Q 2534 3019 2420 3045 
Q 2306 3072 2169 3072 
Q 1681 3072 1420 2755 
Q 1159 2438 1159 1844 
L 1159 0 
L 581 0 
L 581 3500 
L 1159 3500 
L 1159 2956 
Q 1341 3275 1631 3429 
Q 1922 3584 2338 3584 
Q 2397 3584 2469 3576 
Q 2541 3569 2628 3553 
L 2631 2963 
z
" transform="scale(0.015625)"/>
       <path id="DejaVuSans-6e" d="M 3513 2113 
L 3513 0 
L 2938 0 
L 2938 2094 
Q 2938 2591 2744 2837 
Q 2550 3084 2163 3084 
Q 1697 3084 1428 2787 
Q 1159 2491 1159 1978 
L 1159 0 
L 581 0 
L 581 3500 
L 1159 3500 
L 1159 2956 
Q 1366 3272 1645 3428 
Q 1925 3584 2291 3584 
Q 2894 3584 3203 3211 
Q 3513 2838 3513 2113 
z
" transform="scale(0.015625)"/>
      </defs>
      <use xlink:href="#DejaVuSans-74"/>
      <use xlink:href="#DejaVuSans-6f" transform="translate(39.208984 0)"/>
      <use xlink:href="#DejaVuSans-74" transform="translate(100.390625 0)"/>
      <use xlink:href="#DejaVuSans-61" transform="translate(139.599609 0)"/>
      <use xlink:href="#DejaVuSans-6c" transform="translate(200.878906 0)"/>
      <use xlink:href="#DejaVuSans-5f" transform="translate(228.662109 0)"/>
      <use xlink:href="#DejaVuSans-72" transform="translate(278.662109 0)"/>
      <use xlink:href="#DejaVuSans-6f" transform="translate(317.525391 0)"/>
      <use xlink:href="#DejaVuSans-6f" transform="translate(378.707031 0)"/>
      <use xlink:href="#DejaVuSans-74" transform="translate(439.888672 0)"/>
      <use xlink:href="#DejaVuSans-5f" transform="translate(479.097656 0)"/>
      <use xlink:href="#DejaVuSans-6e" transform="translate(529.097656 0)"/>
      <use xlink:href="#DejaVuSans-6f" transform="translate(592.476562 0)"/>
      <use xlink:href="#DejaVuSans-64" transform="translate(653.658203 0)"/>
      <use xlink:href="#DejaVuSans-65" transform="translate(717.134766 0)"/>
      <use xlink:href="#DejaVuSans-73" transform="translate(778.658203 0)"/>
     </g>
    </g>
   </g>
   <g id="patch_3">
    <path d="M 63.862825 234.688389 
L 166.275425 234.688389 
L 166.275425 210.118636 
L 63.862825 210.118636 
L 63.862825 234.688389 
z
" clip-path="url(#p8b09f72c3c)" style="fill: #3274a1; stroke: #3f3f3f; stroke-linejoin: miter"/>
   </g>
   <g id="line2d_11">
    <path d="M 115.069125 234.688389 
L 115.069125 235.981534 
" clip-path="url(#p8b09f72c3c)" style="fill: none; stroke: #3f3f3f"/>
   </g>
   <g id="line2d_12">
    <path d="M 115.069125 210.118636 
L 115.069125 175.203723 
" clip-path="url(#p8b09f72c3c)" style="fill: none; stroke: #3f3f3f"/>
   </g>
   <g id="line2d_13">
    <path d="M 89.465975 235.981534 
L 140.672275 235.981534 
" clip-path="url(#p8b09f72c3c)" style="fill: none; stroke: #3f3f3f; stroke-linecap: square"/>
   </g>
   <g id="line2d_14">
    <path d="M 89.465975 175.203723 
L 140.672275 175.203723 
" clip-path="url(#p8b09f72c3c)" style="fill: none; stroke: #3f3f3f; stroke-linecap: square"/>
   </g>
   <g id="line2d_15">
    <defs>
     <path id="me193ef0910" d="M 0 3 
C 0.795609 3 1.55874 2.683901 2.12132 2.12132 
C 2.683901 1.55874 3 0.795609 3 0 
C 3 -0.795609 2.683901 -1.55874 2.12132 -2.12132 
C 1.55874 -2.683901 0.795609 -3 0 -3 
C -0.795609 -3 -1.55874 -2.683901 -2.12132 -2.12132 
C -2.683901 -1.55874 -3 -0.795609 -3 0 
C -3 0.795609 -2.683901 1.55874 -2.12132 2.12132 
C -1.55874 2.683901 -0.795609 3 0 3 
z
" style="stroke: #3f3f3f"/>
    </defs>
    <g clip-path="url(#p8b09f72c3c)">
     <use xlink:href="#me193ef0910" x="115.069125" y="109.253332" style="fill-opacity: 0; stroke: #3f3f3f"/>
     <use xlink:href="#me193ef0910" x="115.069125" y="155.806549" style="fill-opacity: 0; stroke: #3f3f3f"/>
     <use xlink:href="#me193ef0910" x="115.069125" y="36.837216" style="fill-opacity: 0; stroke: #3f3f3f"/>
     <use xlink:href="#me193ef0910" x="115.069125" y="91.149303" style="fill-opacity: 0; stroke: #3f3f3f"/>
     <use xlink:href="#me193ef0910" x="115.069125" y="45.88923" style="fill-opacity: 0; stroke: #3f3f3f"/>
     <use xlink:href="#me193ef0910" x="115.069125" y="163.565418" style="fill-opacity: 0; stroke: #3f3f3f"/>
     <use xlink:href="#me193ef0910" x="115.069125" y="168.737998" style="fill-opacity: 0; stroke: #3f3f3f"/>
     <use xlink:href="#me193ef0910" x="115.069125" y="170.031143" style="fill-opacity: 0; stroke: #3f3f3f"/>
     <use xlink:href="#me193ef0910" x="115.069125" y="145.461389" style="fill-opacity: 0; stroke: #3f3f3f"/>
     <use xlink:href="#me193ef0910" x="115.069125" y="154.513404" style="fill-opacity: 0; stroke: #3f3f3f"/>
     <use xlink:href="#me193ef0910" x="115.069125" y="171.324288" style="fill-opacity: 0; stroke: #3f3f3f"/>
     <use xlink:href="#me193ef0910" x="115.069125" y="163.565418" style="fill-opacity: 0; stroke: #3f3f3f"/>
    </g>
   </g>
   <g id="line2d_16">
    <path d="M 63.862825 225.636375 
L 166.275425 225.636375 
" clip-path="url(#p8b09f72c3c)" style="fill: none; stroke: #3f3f3f"/>
   </g>
   <g id="patch_4">
    <path d="M 51.06125 245.93875 
L 51.06125 26.88 
" style="fill: none; stroke: #000000; stroke-width: 0.8; stroke-linejoin: miter; stroke-linecap: square"/>
   </g>
   <g id="patch_5">
    <path d="M 179.077 245.93875 
L 179.077 26.88 
" style="fill: none; stroke: #000000; stroke-width: 0.8; stroke-linejoin: miter; stroke-linecap: square"/>
   </g>
   <g id="patch_6">
    <path d="M 51.06125 245.93875 
L 179.077 245.93875 
" style="fill: none; stroke: #000000; stroke-width: 0.8; stroke-linejoin: miter; stroke-linecap: square"/>
   </g>
   <g id="patch_7">
    <path d="M 51.06125 26.88 
L 179.077 26.88 
" style="fill: none; stroke: #000000; stroke-width: 0.8; stroke-linejoin: miter; stroke-linecap: square"/>
   </g>
   <g id="text_13">
    <!-- Root node count -->
    <g transform="translate(65.759438 20.88) scale(0.12 -0.12)">
     <defs>
      <path id="DejaVuSans-20" transform="scale(0.015625)"/>
      <path id="DejaVuSans-63" d="M 3122 3366 
L 3122 2828 
Q 2878 2963 2633 3030 
Q 2388 3097 2138 3097 
Q 1578 3097 1268 2742 
Q 959 2388 959 1747 
Q 959 1106 1268 751 
Q 1578 397 2138 397 
Q 2388 397 2633 464 
Q 2878 531 3122 666 
L 3122 134 
Q 2881 22 2623 -34 
Q 2366 -91 2075 -91 
Q 1284 -91 818 406 
Q 353 903 353 1747 
Q 353 2603 823 3093 
Q 1294 3584 2113 3584 
Q 2378 3584 2631 3529 
Q 2884 3475 3122 3366 
z
" transform="scale(0.015625)"/>
      <path id="DejaVuSans-75" d="M 544 1381 
L 544 3500 
L 1119 3500 
L 1119 1403 
Q 1119 906 1312 657 
Q 1506 409 1894 409 
Q 2359 409 2629 706 
Q 2900 1003 2900 1516 
L 2900 3500 
L 3475 3500 
L 3475 0 
L 2900 0 
L 2900 538 
Q 2691 219 2414 64 
Q 2138 -91 1772 -91 
Q 1169 -91 856 284 
Q 544 659 544 1381 
z
M 1991 3584 
L 1991 3584 
z
" transform="scale(0.015625)"/>
     </defs>
     <use xlink:href="#DejaVuSans-52"/>
     <use xlink:href="#DejaVuSans-6f" transform="translate(64.982422 0)"/>
     <use xlink:href="#DejaVuSans-6f" transform="translate(126.164062 0)"/>
     <use xlink:href="#DejaVuSans-74" transform="translate(187.345703 0)"/>
     <use xlink:href="#DejaVuSans-20" transform="translate(226.554688 0)"/>
     <use xlink:href="#DejaVuSans-6e" transform="translate(258.341797 0)"/>
     <use xlink:href="#DejaVuSans-6f" transform="translate(321.720703 0)"/>
     <use xlink:href="#DejaVuSans-64" transform="translate(382.902344 0)"/>
     <use xlink:href="#DejaVuSans-65" transform="translate(446.378906 0)"/>
     <use xlink:href="#DejaVuSans-20" transform="translate(507.902344 0)"/>
     <use xlink:href="#DejaVuSans-63" transform="translate(539.689453 0)"/>
     <use xlink:href="#DejaVuSans-6f" transform="translate(594.669922 0)"/>
     <use xlink:href="#DejaVuSans-75" transform="translate(655.851562 0)"/>
     <use xlink:href="#DejaVuSans-6e" transform="translate(719.230469 0)"/>
     <use xlink:href="#DejaVuSans-74" transform="translate(782.609375 0)"/>
    </g>
   </g>
  </g>
  <g id="axes_2">
   <g id="patch_8">
    <path d="M 233.097 245.93875 
L 361.11275 245.93875 
L 361.11275 26.88 
L 233.097 26.88 
z
" style="fill: #ffffff"/>
   </g>
   <g id="matplotlib.axis_3">
    <g id="xtick_2">
     <g id="line2d_17">
      <g>
       <use xlink:href="#m7d51e57135" x="297.104875" y="245.93875" style="stroke: #000000; stroke-width: 0.8"/>
      </g>
     </g>
     <g id="text_14">
      <!-- BRE -->
      <g transform="translate(287.040813 260.537188) scale(0.1 -0.1)">
       <use xlink:href="#DejaVuSans-42"/>
       <use xlink:href="#DejaVuSans-52" transform="translate(68.603516 0)"/>
       <use xlink:href="#DejaVuSans-45" transform="translate(138.085938 0)"/>
      </g>
     </g>
    </g>
    <g id="text_15">
     <!-- dataset -->
     <g transform="translate(278.200969 274.215312) scale(0.1 -0.1)">
      <use xlink:href="#DejaVuSans-64"/>
      <use xlink:href="#DejaVuSans-61" transform="translate(63.476562 0)"/>
      <use xlink:href="#DejaVuSans-74" transform="translate(124.755859 0)"/>
      <use xlink:href="#DejaVuSans-61" transform="translate(163.964844 0)"/>
      <use xlink:href="#DejaVuSans-73" transform="translate(225.244141 0)"/>
      <use xlink:href="#DejaVuSans-65" transform="translate(277.34375 0)"/>
      <use xlink:href="#DejaVuSans-74" transform="translate(338.867188 0)"/>
     </g>
    </g>
   </g>
   <g id="matplotlib.axis_4">
    <g id="ytick_10">
     <g id="line2d_18">
      <g>
       <use xlink:href="#m0e8bb90a1b" x="233.097" y="216.067102" style="stroke: #000000; stroke-width: 0.8"/>
      </g>
     </g>
     <g id="text_16">
      <!-- 96 -->
      <g transform="translate(213.372 219.866321) scale(0.1 -0.1)">
       <defs>
        <path id="DejaVuSans-39" d="M 703 97 
L 703 672 
Q 941 559 1184 500 
Q 1428 441 1663 441 
Q 2288 441 2617 861 
Q 2947 1281 2994 2138 
Q 2813 1869 2534 1725 
Q 2256 1581 1919 1581 
Q 1219 1581 811 2004 
Q 403 2428 403 3163 
Q 403 3881 828 4315 
Q 1253 4750 1959 4750 
Q 2769 4750 3195 4129 
Q 3622 3509 3622 2328 
Q 3622 1225 3098 567 
Q 2575 -91 1691 -91 
Q 1453 -91 1209 -44 
Q 966 3 703 97 
z
M 1959 2075 
Q 2384 2075 2632 2365 
Q 2881 2656 2881 3163 
Q 2881 3666 2632 3958 
Q 2384 4250 1959 4250 
Q 1534 4250 1286 3958 
Q 1038 3666 1038 3163 
Q 1038 2656 1286 2365 
Q 1534 2075 1959 2075 
z
" transform="scale(0.015625)"/>
       </defs>
       <use xlink:href="#DejaVuSans-39"/>
       <use xlink:href="#DejaVuSans-36" transform="translate(63.623047 0)"/>
      </g>
     </g>
    </g>
    <g id="ytick_11">
     <g id="line2d_19">
      <g>
       <use xlink:href="#m0e8bb90a1b" x="233.097" y="176.238239" style="stroke: #000000; stroke-width: 0.8"/>
      </g>
     </g>
     <g id="text_17">
      <!-- 98 -->
      <g transform="translate(213.372 180.037457) scale(0.1 -0.1)">
       <use xlink:href="#DejaVuSans-39"/>
       <use xlink:href="#DejaVuSans-38" transform="translate(63.623047 0)"/>
      </g>
     </g>
    </g>
    <g id="ytick_12">
     <g id="line2d_20">
      <g>
       <use xlink:href="#m0e8bb90a1b" x="233.097" y="136.409375" style="stroke: #000000; stroke-width: 0.8"/>
      </g>
     </g>
     <g id="text_18">
      <!-- 100 -->
      <g transform="translate(207.0095 140.208594) scale(0.1 -0.1)">
       <use xlink:href="#DejaVuSans-31"/>
       <use xlink:href="#DejaVuSans-30" transform="translate(63.623047 0)"/>
       <use xlink:href="#DejaVuSans-30" transform="translate(127.246094 0)"/>
      </g>
     </g>
    </g>
    <g id="ytick_13">
     <g id="line2d_21">
      <g>
       <use xlink:href="#m0e8bb90a1b" x="233.097" y="96.580511" style="stroke: #000000; stroke-width: 0.8"/>
      </g>
     </g>
     <g id="text_19">
      <!-- 102 -->
      <g transform="translate(207.0095 100.37973) scale(0.1 -0.1)">
       <use xlink:href="#DejaVuSans-31"/>
       <use xlink:href="#DejaVuSans-30" transform="translate(63.623047 0)"/>
       <use xlink:href="#DejaVuSans-32" transform="translate(127.246094 0)"/>
      </g>
     </g>
    </g>
    <g id="ytick_14">
     <g id="line2d_22">
      <g>
       <use xlink:href="#m0e8bb90a1b" x="233.097" y="56.751648" style="stroke: #000000; stroke-width: 0.8"/>
      </g>
     </g>
     <g id="text_20">
      <!-- 104 -->
      <g transform="translate(207.0095 60.550866) scale(0.1 -0.1)">
       <use xlink:href="#DejaVuSans-31"/>
       <use xlink:href="#DejaVuSans-30" transform="translate(63.623047 0)"/>
       <use xlink:href="#DejaVuSans-34" transform="translate(127.246094 0)"/>
      </g>
     </g>
    </g>
    <g id="text_21">
     <!-- active_source_pcr -->
     <g transform="translate(200.651687 181.188281) rotate(-90) scale(0.1 -0.1)">
      <defs>
       <path id="DejaVuSans-69" d="M 603 3500 
L 1178 3500 
L 1178 0 
L 603 0 
L 603 3500 
z
M 603 4863 
L 1178 4863 
L 1178 4134 
L 603 4134 
L 603 4863 
z
" transform="scale(0.015625)"/>
       <path id="DejaVuSans-76" d="M 191 3500 
L 800 3500 
L 1894 563 
L 2988 3500 
L 3597 3500 
L 2284 0 
L 1503 0 
L 191 3500 
z
" transform="scale(0.015625)"/>
       <path id="DejaVuSans-70" d="M 1159 525 
L 1159 -1331 
L 581 -1331 
L 581 3500 
L 1159 3500 
L 1159 2969 
Q 1341 3281 1617 3432 
Q 1894 3584 2278 3584 
Q 2916 3584 3314 3078 
Q 3713 2572 3713 1747 
Q 3713 922 3314 415 
Q 2916 -91 2278 -91 
Q 1894 -91 1617 61 
Q 1341 213 1159 525 
z
M 3116 1747 
Q 3116 2381 2855 2742 
Q 2594 3103 2138 3103 
Q 1681 3103 1420 2742 
Q 1159 2381 1159 1747 
Q 1159 1113 1420 752 
Q 1681 391 2138 391 
Q 2594 391 2855 752 
Q 3116 1113 3116 1747 
z
" transform="scale(0.015625)"/>
      </defs>
      <use xlink:href="#DejaVuSans-61"/>
      <use xlink:href="#DejaVuSans-63" transform="translate(61.279297 0)"/>
      <use xlink:href="#DejaVuSans-74" transform="translate(116.259766 0)"/>
      <use xlink:href="#DejaVuSans-69" transform="translate(155.46875 0)"/>
      <use xlink:href="#DejaVuSans-76" transform="translate(183.251953 0)"/>
      <use xlink:href="#DejaVuSans-65" transform="translate(242.431641 0)"/>
      <use xlink:href="#DejaVuSans-5f" transform="translate(303.955078 0)"/>
      <use xlink:href="#DejaVuSans-73" transform="translate(353.955078 0)"/>
      <use xlink:href="#DejaVuSans-6f" transform="translate(406.054688 0)"/>
      <use xlink:href="#DejaVuSans-75" transform="translate(467.236328 0)"/>
      <use xlink:href="#DejaVuSans-72" transform="translate(530.615234 0)"/>
      <use xlink:href="#DejaVuSans-63" transform="translate(569.478516 0)"/>
      <use xlink:href="#DejaVuSans-65" transform="translate(624.458984 0)"/>
      <use xlink:href="#DejaVuSans-5f" transform="translate(685.982422 0)"/>
      <use xlink:href="#DejaVuSans-70" transform="translate(735.982422 0)"/>
      <use xlink:href="#DejaVuSans-63" transform="translate(799.458984 0)"/>
      <use xlink:href="#DejaVuSans-72" transform="translate(854.439453 0)"/>
     </g>
    </g>
   </g>
   <g id="patch_9">
    <path d="M 245.898575 136.409375 
L 348.311175 136.409375 
L 348.311175 136.409375 
L 245.898575 136.409375 
L 245.898575 136.409375 
z
" clip-path="url(#pd24e5d71bc)" style="fill: #3274a1; stroke: #3f3f3f; stroke-linejoin: miter"/>
   </g>
   <g id="line2d_23">
    <path d="M 297.104875 136.409375 
L 297.104875 136.409375 
" clip-path="url(#pd24e5d71bc)" style="fill: none; stroke: #3f3f3f"/>
   </g>
   <g id="line2d_24">
    <path d="M 297.104875 136.409375 
L 297.104875 136.409375 
" clip-path="url(#pd24e5d71bc)" style="fill: none; stroke: #3f3f3f"/>
   </g>
   <g id="line2d_25">
    <path d="M 271.501725 136.409375 
L 322.708025 136.409375 
" clip-path="url(#pd24e5d71bc)" style="fill: none; stroke: #3f3f3f; stroke-linecap: square"/>
   </g>
   <g id="line2d_26">
    <path d="M 271.501725 136.409375 
L 322.708025 136.409375 
" clip-path="url(#pd24e5d71bc)" style="fill: none; stroke: #3f3f3f; stroke-linecap: square"/>
   </g>
   <g id="line2d_27"/>
   <g id="line2d_28">
    <path d="M 245.898575 136.409375 
L 348.311175 136.409375 
" clip-path="url(#pd24e5d71bc)" style="fill: none; stroke: #3f3f3f"/>
   </g>
   <g id="patch_10">
    <path d="M 233.097 245.93875 
L 233.097 26.88 
" style="fill: none; stroke: #000000; stroke-width: 0.8; stroke-linejoin: miter; stroke-linecap: square"/>
   </g>
   <g id="patch_11">
    <path d="M 361.11275 245.93875 
L 361.11275 26.88 
" style="fill: none; stroke: #000000; stroke-width: 0.8; stroke-linejoin: miter; stroke-linecap: square"/>
   </g>
   <g id="patch_12">
    <path d="M 233.097 245.93875 
L 361.11275 245.93875 
" style="fill: none; stroke: #000000; stroke-width: 0.8; stroke-linejoin: miter; stroke-linecap: square"/>
   </g>
   <g id="patch_13">
    <path d="M 233.097 26.88 
L 361.11275 26.88 
" style="fill: none; stroke: #000000; stroke-width: 0.8; stroke-linejoin: miter; stroke-linecap: square"/>
   </g>
   <g id="text_22">
    <!-- Active sources in context(%) -->
    <g transform="translate(211.308625 20.88) scale(0.12 -0.12)">
     <defs>
      <path id="DejaVuSans-41" d="M 2188 4044 
L 1331 1722 
L 3047 1722 
L 2188 4044 
z
M 1831 4666 
L 2547 4666 
L 4325 0 
L 3669 0 
L 3244 1197 
L 1141 1197 
L 716 0 
L 50 0 
L 1831 4666 
z
" transform="scale(0.015625)"/>
      <path id="DejaVuSans-78" d="M 3513 3500 
L 2247 1797 
L 3578 0 
L 2900 0 
L 1881 1375 
L 863 0 
L 184 0 
L 1544 1831 
L 300 3500 
L 978 3500 
L 1906 2253 
L 2834 3500 
L 3513 3500 
z
" transform="scale(0.015625)"/>
      <path id="DejaVuSans-28" d="M 1984 4856 
Q 1566 4138 1362 3434 
Q 1159 2731 1159 2009 
Q 1159 1288 1364 580 
Q 1569 -128 1984 -844 
L 1484 -844 
Q 1016 -109 783 600 
Q 550 1309 550 2009 
Q 550 2706 781 3412 
Q 1013 4119 1484 4856 
L 1984 4856 
z
" transform="scale(0.015625)"/>
      <path id="DejaVuSans-25" d="M 4653 2053 
Q 4381 2053 4226 1822 
Q 4072 1591 4072 1178 
Q 4072 772 4226 539 
Q 4381 306 4653 306 
Q 4919 306 5073 539 
Q 5228 772 5228 1178 
Q 5228 1588 5073 1820 
Q 4919 2053 4653 2053 
z
M 4653 2450 
Q 5147 2450 5437 2106 
Q 5728 1763 5728 1178 
Q 5728 594 5436 251 
Q 5144 -91 4653 -91 
Q 4153 -91 3862 251 
Q 3572 594 3572 1178 
Q 3572 1766 3864 2108 
Q 4156 2450 4653 2450 
z
M 1428 4353 
Q 1159 4353 1004 4120 
Q 850 3888 850 3481 
Q 850 3069 1003 2837 
Q 1156 2606 1428 2606 
Q 1700 2606 1854 2837 
Q 2009 3069 2009 3481 
Q 2009 3884 1853 4118 
Q 1697 4353 1428 4353 
z
M 4250 4750 
L 4750 4750 
L 1831 -91 
L 1331 -91 
L 4250 4750 
z
M 1428 4750 
Q 1922 4750 2215 4408 
Q 2509 4066 2509 3481 
Q 2509 2891 2217 2550 
Q 1925 2209 1428 2209 
Q 931 2209 642 2551 
Q 353 2894 353 3481 
Q 353 4063 643 4406 
Q 934 4750 1428 4750 
z
" transform="scale(0.015625)"/>
      <path id="DejaVuSans-29" d="M 513 4856 
L 1013 4856 
Q 1481 4119 1714 3412 
Q 1947 2706 1947 2009 
Q 1947 1309 1714 600 
Q 1481 -109 1013 -844 
L 513 -844 
Q 928 -128 1133 580 
Q 1338 1288 1338 2009 
Q 1338 2731 1133 3434 
Q 928 4138 513 4856 
z
" transform="scale(0.015625)"/>
     </defs>
     <use xlink:href="#DejaVuSans-41"/>
     <use xlink:href="#DejaVuSans-63" transform="translate(66.658203 0)"/>
     <use xlink:href="#DejaVuSans-74" transform="translate(121.638672 0)"/>
     <use xlink:href="#DejaVuSans-69" transform="translate(160.847656 0)"/>
     <use xlink:href="#DejaVuSans-76" transform="translate(188.630859 0)"/>
     <use xlink:href="#DejaVuSans-65" transform="translate(247.810547 0)"/>
     <use xlink:href="#DejaVuSans-20" transform="translate(309.333984 0)"/>
     <use xlink:href="#DejaVuSans-73" transform="translate(341.121094 0)"/>
     <use xlink:href="#DejaVuSans-6f" transform="translate(393.220703 0)"/>
     <use xlink:href="#DejaVuSans-75" transform="translate(454.402344 0)"/>
     <use xlink:href="#DejaVuSans-72" transform="translate(517.78125 0)"/>
     <use xlink:href="#DejaVuSans-63" transform="translate(556.644531 0)"/>
     <use xlink:href="#DejaVuSans-65" transform="translate(611.625 0)"/>
     <use xlink:href="#DejaVuSans-73" transform="translate(673.148438 0)"/>
     <use xlink:href="#DejaVuSans-20" transform="translate(725.248047 0)"/>
     <use xlink:href="#DejaVuSans-69" transform="translate(757.035156 0)"/>
     <use xlink:href="#DejaVuSans-6e" transform="translate(784.818359 0)"/>
     <use xlink:href="#DejaVuSans-20" transform="translate(848.197266 0)"/>
     <use xlink:href="#DejaVuSans-63" transform="translate(879.984375 0)"/>
     <use xlink:href="#DejaVuSans-6f" transform="translate(934.964844 0)"/>
     <use xlink:href="#DejaVuSans-6e" transform="translate(996.146484 0)"/>
     <use xlink:href="#DejaVuSans-74" transform="translate(1059.525391 0)"/>
     <use xlink:href="#DejaVuSans-65" transform="translate(1098.734375 0)"/>
     <use xlink:href="#DejaVuSans-78" transform="translate(1158.507812 0)"/>
     <use xlink:href="#DejaVuSans-74" transform="translate(1217.6875 0)"/>
     <use xlink:href="#DejaVuSans-28" transform="translate(1256.896484 0)"/>
     <use xlink:href="#DejaVuSans-25" transform="translate(1295.910156 0)"/>
     <use xlink:href="#DejaVuSans-29" transform="translate(1390.929688 0)"/>
    </g>
   </g>
  </g>
  <g id="axes_3">
   <g id="patch_14">
    <path d="M 415.13275 245.93875 
L 543.1485 245.93875 
L 543.1485 26.88 
L 415.13275 26.88 
z
" style="fill: #ffffff"/>
   </g>
   <g id="matplotlib.axis_5">
    <g id="xtick_3">
     <g id="line2d_29">
      <g>
       <use xlink:href="#m7d51e57135" x="479.140625" y="245.93875" style="stroke: #000000; stroke-width: 0.8"/>
      </g>
     </g>
     <g id="text_23">
      <!-- BRE -->
      <g transform="translate(469.076562 260.537188) scale(0.1 -0.1)">
       <use xlink:href="#DejaVuSans-42"/>
       <use xlink:href="#DejaVuSans-52" transform="translate(68.603516 0)"/>
       <use xlink:href="#DejaVuSans-45" transform="translate(138.085938 0)"/>
      </g>
     </g>
    </g>
    <g id="text_24">
     <!-- dataset -->
     <g transform="translate(460.236719 274.215312) scale(0.1 -0.1)">
      <use xlink:href="#DejaVuSans-64"/>
      <use xlink:href="#DejaVuSans-61" transform="translate(63.476562 0)"/>
      <use xlink:href="#DejaVuSans-74" transform="translate(124.755859 0)"/>
      <use xlink:href="#DejaVuSans-61" transform="translate(163.964844 0)"/>
      <use xlink:href="#DejaVuSans-73" transform="translate(225.244141 0)"/>
      <use xlink:href="#DejaVuSans-65" transform="translate(277.34375 0)"/>
      <use xlink:href="#DejaVuSans-74" transform="translate(338.867188 0)"/>
     </g>
    </g>
   </g>
   <g id="matplotlib.axis_6">
    <g id="ytick_15">
     <g id="line2d_30">
      <g>
       <use xlink:href="#m0e8bb90a1b" x="415.13275" y="235.981534" style="stroke: #000000; stroke-width: 0.8"/>
      </g>
     </g>
     <g id="text_25">
      <!-- 0 -->
      <g transform="translate(401.77025 239.780753) scale(0.1 -0.1)">
       <use xlink:href="#DejaVuSans-30"/>
      </g>
     </g>
    </g>
    <g id="ytick_16">
     <g id="line2d_31">
      <g>
       <use xlink:href="#m0e8bb90a1b" x="415.13275" y="195.348129" style="stroke: #000000; stroke-width: 0.8"/>
      </g>
     </g>
     <g id="text_26">
      <!-- 20 -->
      <g transform="translate(395.40775 199.147348) scale(0.1 -0.1)">
       <use xlink:href="#DejaVuSans-32"/>
       <use xlink:href="#DejaVuSans-30" transform="translate(63.623047 0)"/>
      </g>
     </g>
    </g>
    <g id="ytick_17">
     <g id="line2d_32">
      <g>
       <use xlink:href="#m0e8bb90a1b" x="415.13275" y="154.714724" style="stroke: #000000; stroke-width: 0.8"/>
      </g>
     </g>
     <g id="text_27">
      <!-- 40 -->
      <g transform="translate(395.40775 158.513943) scale(0.1 -0.1)">
       <use xlink:href="#DejaVuSans-34"/>
       <use xlink:href="#DejaVuSans-30" transform="translate(63.623047 0)"/>
      </g>
     </g>
    </g>
    <g id="ytick_18">
     <g id="line2d_33">
      <g>
       <use xlink:href="#m0e8bb90a1b" x="415.13275" y="114.081319" style="stroke: #000000; stroke-width: 0.8"/>
      </g>
     </g>
     <g id="text_28">
      <!-- 60 -->
      <g transform="translate(395.40775 117.880538) scale(0.1 -0.1)">
       <use xlink:href="#DejaVuSans-36"/>
       <use xlink:href="#DejaVuSans-30" transform="translate(63.623047 0)"/>
      </g>
     </g>
    </g>
    <g id="ytick_19">
     <g id="line2d_34">
      <g>
       <use xlink:href="#m0e8bb90a1b" x="415.13275" y="73.447914" style="stroke: #000000; stroke-width: 0.8"/>
      </g>
     </g>
     <g id="text_29">
      <!-- 80 -->
      <g transform="translate(395.40775 77.247133) scale(0.1 -0.1)">
       <use xlink:href="#DejaVuSans-38"/>
       <use xlink:href="#DejaVuSans-30" transform="translate(63.623047 0)"/>
      </g>
     </g>
    </g>
    <g id="ytick_20">
     <g id="line2d_35">
      <g>
       <use xlink:href="#m0e8bb90a1b" x="415.13275" y="32.814509" style="stroke: #000000; stroke-width: 0.8"/>
      </g>
     </g>
     <g id="text_30">
      <!-- 100 -->
      <g transform="translate(389.04525 36.613728) scale(0.1 -0.1)">
       <use xlink:href="#DejaVuSans-31"/>
       <use xlink:href="#DejaVuSans-30" transform="translate(63.623047 0)"/>
       <use xlink:href="#DejaVuSans-30" transform="translate(127.246094 0)"/>
      </g>
     </g>
    </g>
    <g id="text_31">
     <!-- sparsity_pcr -->
     <g transform="translate(382.687437 166.7) rotate(-90) scale(0.1 -0.1)">
      <defs>
       <path id="DejaVuSans-79" d="M 2059 -325 
Q 1816 -950 1584 -1140 
Q 1353 -1331 966 -1331 
L 506 -1331 
L 506 -850 
L 844 -850 
Q 1081 -850 1212 -737 
Q 1344 -625 1503 -206 
L 1606 56 
L 191 3500 
L 800 3500 
L 1894 763 
L 2988 3500 
L 3597 3500 
L 2059 -325 
z
" transform="scale(0.015625)"/>
      </defs>
      <use xlink:href="#DejaVuSans-73"/>
      <use xlink:href="#DejaVuSans-70" transform="translate(52.099609 0)"/>
      <use xlink:href="#DejaVuSans-61" transform="translate(115.576172 0)"/>
      <use xlink:href="#DejaVuSans-72" transform="translate(176.855469 0)"/>
      <use xlink:href="#DejaVuSans-73" transform="translate(217.96875 0)"/>
      <use xlink:href="#DejaVuSans-69" transform="translate(270.068359 0)"/>
      <use xlink:href="#DejaVuSans-74" transform="translate(297.851562 0)"/>
      <use xlink:href="#DejaVuSans-79" transform="translate(337.060547 0)"/>
      <use xlink:href="#DejaVuSans-5f" transform="translate(396.240234 0)"/>
      <use xlink:href="#DejaVuSans-70" transform="translate(446.240234 0)"/>
      <use xlink:href="#DejaVuSans-63" transform="translate(509.716797 0)"/>
      <use xlink:href="#DejaVuSans-72" transform="translate(564.697266 0)"/>
     </g>
    </g>
   </g>
   <g id="patch_15">
    <path d="M 427.934325 135.190373 
L 530.346925 135.190373 
L 530.346925 56.828851 
L 427.934325 56.828851 
L 427.934325 135.190373 
z
" clip-path="url(#pde61e7a9cd)" style="fill: #3274a1; stroke: #3f3f3f; stroke-linejoin: miter"/>
   </g>
   <g id="line2d_36">
    <path d="M 479.140625 135.190373 
L 479.140625 235.981534 
" clip-path="url(#pde61e7a9cd)" style="fill: none; stroke: #3f3f3f"/>
   </g>
   <g id="line2d_37">
    <path d="M 479.140625 56.828851 
L 479.140625 36.837216 
" clip-path="url(#pde61e7a9cd)" style="fill: none; stroke: #3f3f3f"/>
   </g>
   <g id="line2d_38">
    <path d="M 453.537475 235.981534 
L 504.743775 235.981534 
" clip-path="url(#pde61e7a9cd)" style="fill: none; stroke: #3f3f3f; stroke-linecap: square"/>
   </g>
   <g id="line2d_39">
    <path d="M 453.537475 36.837216 
L 504.743775 36.837216 
" clip-path="url(#pde61e7a9cd)" style="fill: none; stroke: #3f3f3f; stroke-linecap: square"/>
   </g>
   <g id="line2d_40"/>
   <g id="line2d_41">
    <path d="M 427.934325 75.804651 
L 530.346925 75.804651 
" clip-path="url(#pde61e7a9cd)" style="fill: none; stroke: #3f3f3f"/>
   </g>
   <g id="patch_16">
    <path d="M 415.13275 245.93875 
L 415.13275 26.88 
" style="fill: none; stroke: #000000; stroke-width: 0.8; stroke-linejoin: miter; stroke-linecap: square"/>
   </g>
   <g id="patch_17">
    <path d="M 543.1485 245.93875 
L 543.1485 26.88 
" style="fill: none; stroke: #000000; stroke-width: 0.8; stroke-linejoin: miter; stroke-linecap: square"/>
   </g>
   <g id="patch_18">
    <path d="M 415.13275 245.93875 
L 543.1485 245.93875 
" style="fill: none; stroke: #000000; stroke-width: 0.8; stroke-linejoin: miter; stroke-linecap: square"/>
   </g>
   <g id="patch_19">
    <path d="M 415.13275 26.88 
L 543.1485 26.88 
" style="fill: none; stroke: #000000; stroke-width: 0.8; stroke-linejoin: miter; stroke-linecap: square"/>
   </g>
   <g id="text_32">
    <!-- Zero count Percentage -->
    <g transform="translate(410.8475 20.88) scale(0.12 -0.12)">
     <defs>
      <path id="DejaVuSans-5a" d="M 359 4666 
L 4025 4666 
L 4025 4184 
L 1075 531 
L 4097 531 
L 4097 0 
L 288 0 
L 288 481 
L 3238 4134 
L 359 4134 
L 359 4666 
z
" transform="scale(0.015625)"/>
      <path id="DejaVuSans-50" d="M 1259 4147 
L 1259 2394 
L 2053 2394 
Q 2494 2394 2734 2622 
Q 2975 2850 2975 3272 
Q 2975 3691 2734 3919 
Q 2494 4147 2053 4147 
L 1259 4147 
z
M 628 4666 
L 2053 4666 
Q 2838 4666 3239 4311 
Q 3641 3956 3641 3272 
Q 3641 2581 3239 2228 
Q 2838 1875 2053 1875 
L 1259 1875 
L 1259 0 
L 628 0 
L 628 4666 
z
" transform="scale(0.015625)"/>
      <path id="DejaVuSans-67" d="M 2906 1791 
Q 2906 2416 2648 2759 
Q 2391 3103 1925 3103 
Q 1463 3103 1205 2759 
Q 947 2416 947 1791 
Q 947 1169 1205 825 
Q 1463 481 1925 481 
Q 2391 481 2648 825 
Q 2906 1169 2906 1791 
z
M 3481 434 
Q 3481 -459 3084 -895 
Q 2688 -1331 1869 -1331 
Q 1566 -1331 1297 -1286 
Q 1028 -1241 775 -1147 
L 775 -588 
Q 1028 -725 1275 -790 
Q 1522 -856 1778 -856 
Q 2344 -856 2625 -561 
Q 2906 -266 2906 331 
L 2906 616 
Q 2728 306 2450 153 
Q 2172 0 1784 0 
Q 1141 0 747 490 
Q 353 981 353 1791 
Q 353 2603 747 3093 
Q 1141 3584 1784 3584 
Q 2172 3584 2450 3431 
Q 2728 3278 2906 2969 
L 2906 3500 
L 3481 3500 
L 3481 434 
z
" transform="scale(0.015625)"/>
     </defs>
     <use xlink:href="#DejaVuSans-5a"/>
     <use xlink:href="#DejaVuSans-65" transform="translate(68.505859 0)"/>
     <use xlink:href="#DejaVuSans-72" transform="translate(130.029297 0)"/>
     <use xlink:href="#DejaVuSans-6f" transform="translate(168.892578 0)"/>
     <use xlink:href="#DejaVuSans-20" transform="translate(230.074219 0)"/>
     <use xlink:href="#DejaVuSans-63" transform="translate(261.861328 0)"/>
     <use xlink:href="#DejaVuSans-6f" transform="translate(316.841797 0)"/>
     <use xlink:href="#DejaVuSans-75" transform="translate(378.023438 0)"/>
     <use xlink:href="#DejaVuSans-6e" transform="translate(441.402344 0)"/>
     <use xlink:href="#DejaVuSans-74" transform="translate(504.78125 0)"/>
     <use xlink:href="#DejaVuSans-20" transform="translate(543.990234 0)"/>
     <use xlink:href="#DejaVuSans-50" transform="translate(575.777344 0)"/>
     <use xlink:href="#DejaVuSans-65" transform="translate(632.455078 0)"/>
     <use xlink:href="#DejaVuSans-72" transform="translate(693.978516 0)"/>
     <use xlink:href="#DejaVuSans-63" transform="translate(732.841797 0)"/>
     <use xlink:href="#DejaVuSans-65" transform="translate(787.822266 0)"/>
     <use xlink:href="#DejaVuSans-6e" transform="translate(849.345703 0)"/>
     <use xlink:href="#DejaVuSans-74" transform="translate(912.724609 0)"/>
     <use xlink:href="#DejaVuSans-61" transform="translate(951.933594 0)"/>
     <use xlink:href="#DejaVuSans-67" transform="translate(1013.212891 0)"/>
     <use xlink:href="#DejaVuSans-65" transform="translate(1076.689453 0)"/>
    </g>
   </g>
  </g>
  <g id="axes_4">
   <g id="patch_20">
    <path d="M 597.1685 245.93875 
L 853.2 245.93875 
L 853.2 26.88 
L 597.1685 26.88 
z
" style="fill: #ffffff"/>
   </g>
   <g id="FillBetweenPolyCollection_1">
    <defs>
     <path id="m7e9849684e" d="M 608.806295 -42.263613 
L 608.806295 -42.06125 
L 609.975923 -42.06125 
L 611.145551 -42.06125 
L 612.315179 -42.06125 
L 613.484806 -42.06125 
L 614.654434 -42.06125 
L 615.824062 -42.06125 
L 616.993689 -42.06125 
L 618.163317 -42.06125 
L 619.332945 -42.06125 
L 620.502572 -42.06125 
L 621.6722 -42.06125 
L 622.841828 -42.06125 
L 624.011455 -42.06125 
L 625.181083 -42.06125 
L 626.350711 -42.06125 
L 627.520338 -42.06125 
L 628.689966 -42.06125 
L 629.859594 -42.06125 
L 631.029221 -42.06125 
L 632.198849 -42.06125 
L 633.368477 -42.06125 
L 634.538104 -42.06125 
L 635.707732 -42.06125 
L 636.87736 -42.06125 
L 638.046988 -42.06125 
L 639.216615 -42.06125 
L 640.386243 -42.06125 
L 641.555871 -42.06125 
L 642.725498 -42.06125 
L 643.895126 -42.06125 
L 645.064754 -42.06125 
L 646.234381 -42.06125 
L 647.404009 -42.06125 
L 648.573637 -42.06125 
L 649.743264 -42.06125 
L 650.912892 -42.06125 
L 652.08252 -42.06125 
L 653.252147 -42.06125 
L 654.421775 -42.06125 
L 655.591403 -42.06125 
L 656.76103 -42.06125 
L 657.930658 -42.06125 
L 659.100286 -42.06125 
L 660.269914 -42.06125 
L 661.439541 -42.06125 
L 662.609169 -42.06125 
L 663.778797 -42.06125 
L 664.948424 -42.06125 
L 666.118052 -42.06125 
L 667.28768 -42.06125 
L 668.457307 -42.06125 
L 669.626935 -42.06125 
L 670.796563 -42.06125 
L 671.96619 -42.06125 
L 673.135818 -42.06125 
L 674.305446 -42.06125 
L 675.475073 -42.06125 
L 676.644701 -42.06125 
L 677.814329 -42.06125 
L 678.983956 -42.06125 
L 680.153584 -42.06125 
L 681.323212 -42.06125 
L 682.49284 -42.06125 
L 683.662467 -42.06125 
L 684.832095 -42.06125 
L 686.001723 -42.06125 
L 687.17135 -42.06125 
L 688.340978 -42.06125 
L 689.510606 -42.06125 
L 690.680233 -42.06125 
L 691.849861 -42.06125 
L 693.019489 -42.06125 
L 694.189116 -42.06125 
L 695.358744 -42.06125 
L 696.528372 -42.06125 
L 697.697999 -42.06125 
L 698.867627 -42.06125 
L 700.037255 -42.06125 
L 701.206882 -42.06125 
L 702.37651 -42.06125 
L 703.546138 -42.06125 
L 704.715766 -42.06125 
L 705.885393 -42.06125 
L 707.055021 -42.06125 
L 708.224649 -42.06125 
L 709.394276 -42.06125 
L 710.563904 -42.06125 
L 711.733532 -42.06125 
L 712.903159 -42.06125 
L 714.072787 -42.06125 
L 715.242415 -42.06125 
L 716.412042 -42.06125 
L 717.58167 -42.06125 
L 718.751298 -42.06125 
L 719.920925 -42.06125 
L 721.090553 -42.06125 
L 722.260181 -42.06125 
L 723.429808 -42.06125 
L 724.599436 -42.06125 
L 725.769064 -42.06125 
L 726.938692 -42.06125 
L 728.108319 -42.06125 
L 729.277947 -42.06125 
L 730.447575 -42.06125 
L 731.617202 -42.06125 
L 732.78683 -42.06125 
L 733.956458 -42.06125 
L 735.126085 -42.06125 
L 736.295713 -42.06125 
L 737.465341 -42.06125 
L 738.634968 -42.06125 
L 739.804596 -42.06125 
L 740.974224 -42.06125 
L 742.143851 -42.06125 
L 743.313479 -42.06125 
L 744.483107 -42.06125 
L 745.652734 -42.06125 
L 746.822362 -42.06125 
L 747.99199 -42.06125 
L 749.161618 -42.06125 
L 750.331245 -42.06125 
L 751.500873 -42.06125 
L 752.670501 -42.06125 
L 753.840128 -42.06125 
L 755.009756 -42.06125 
L 756.179384 -42.06125 
L 757.349011 -42.06125 
L 758.518639 -42.06125 
L 759.688267 -42.06125 
L 760.857894 -42.06125 
L 762.027522 -42.06125 
L 763.19715 -42.06125 
L 764.366777 -42.06125 
L 765.536405 -42.06125 
L 766.706033 -42.06125 
L 767.87566 -42.06125 
L 769.045288 -42.06125 
L 770.214916 -42.06125 
L 771.384544 -42.06125 
L 772.554171 -42.06125 
L 773.723799 -42.06125 
L 774.893427 -42.06125 
L 776.063054 -42.06125 
L 777.232682 -42.06125 
L 778.40231 -42.06125 
L 779.571937 -42.06125 
L 780.741565 -42.06125 
L 781.911193 -42.06125 
L 783.08082 -42.06125 
L 784.250448 -42.06125 
L 785.420076 -42.06125 
L 786.589703 -42.06125 
L 787.759331 -42.06125 
L 788.928959 -42.06125 
L 790.098586 -42.06125 
L 791.268214 -42.06125 
L 792.437842 -42.06125 
L 793.60747 -42.06125 
L 794.777097 -42.06125 
L 795.946725 -42.06125 
L 797.116353 -42.06125 
L 798.28598 -42.06125 
L 799.455608 -42.06125 
L 800.625236 -42.06125 
L 801.794863 -42.06125 
L 802.964491 -42.06125 
L 804.134119 -42.06125 
L 805.303746 -42.06125 
L 806.473374 -42.06125 
L 807.643002 -42.06125 
L 808.812629 -42.06125 
L 809.982257 -42.06125 
L 811.151885 -42.06125 
L 812.321512 -42.06125 
L 813.49114 -42.06125 
L 814.660768 -42.06125 
L 815.830396 -42.06125 
L 817.000023 -42.06125 
L 818.169651 -42.06125 
L 819.339279 -42.06125 
L 820.508906 -42.06125 
L 821.678534 -42.06125 
L 822.848162 -42.06125 
L 824.017789 -42.06125 
L 825.187417 -42.06125 
L 826.357045 -42.06125 
L 827.526672 -42.06125 
L 828.6963 -42.06125 
L 829.865928 -42.06125 
L 831.035555 -42.06125 
L 832.205183 -42.06125 
L 833.374811 -42.06125 
L 834.544438 -42.06125 
L 835.714066 -42.06125 
L 836.883694 -42.06125 
L 838.053321 -42.06125 
L 839.222949 -42.06125 
L 840.392577 -42.06125 
L 841.562205 -42.06125 
L 841.562205 -42.086997 
L 841.562205 -42.086997 
L 840.392577 -42.095983 
L 839.222949 -42.107687 
L 838.053321 -42.122785 
L 836.883694 -42.142075 
L 835.714066 -42.166485 
L 834.544438 -42.197081 
L 833.374811 -42.235065 
L 832.205183 -42.281777 
L 831.035555 -42.338684 
L 829.865928 -42.407361 
L 828.6963 -42.489475 
L 827.526672 -42.586749 
L 826.357045 -42.700928 
L 825.187417 -42.833733 
L 824.017789 -42.986815 
L 822.848162 -43.161702 
L 821.678534 -43.359745 
L 820.508906 -43.582069 
L 819.339279 -43.829523 
L 818.169651 -44.102648 
L 817.000023 -44.401637 
L 815.830396 -44.726329 
L 814.660768 -45.076204 
L 813.49114 -45.450394 
L 812.321512 -45.847717 
L 811.151885 -46.266722 
L 809.982257 -46.705746 
L 808.812629 -47.162985 
L 807.643002 -47.636571 
L 806.473374 -48.124647 
L 805.303746 -48.62545 
L 804.134119 -49.137378 
L 802.964491 -49.65905 
L 801.794863 -50.189353 
L 800.625236 -50.727467 
L 799.455608 -51.272878 
L 798.28598 -51.825366 
L 797.116353 -52.38498 
L 795.946725 -52.951999 
L 794.777097 -53.526883 
L 793.60747 -54.110223 
L 792.437842 -54.702688 
L 791.268214 -55.304989 
L 790.098586 -55.917852 
L 788.928959 -56.542013 
L 787.759331 -57.178236 
L 786.589703 -57.827358 
L 785.420076 -58.490351 
L 784.250448 -59.168418 
L 783.08082 -59.863093 
L 781.911193 -60.576354 
L 780.741565 -61.310733 
L 779.571937 -62.069416 
L 778.40231 -62.856316 
L 777.232682 -63.6761 
L 776.063054 -64.534181 
L 774.893427 -65.436639 
L 773.723799 -66.390077 
L 772.554171 -67.401406 
L 771.384544 -68.477563 
L 770.214916 -69.625156 
L 769.045288 -70.850068 
L 767.87566 -72.157012 
L 766.706033 -73.549088 
L 765.536405 -75.027343 
L 764.366777 -76.590386 
L 763.19715 -78.234067 
L 762.027522 -79.951278 
L 760.857894 -81.731867 
L 759.688267 -83.562721 
L 758.518639 -85.427989 
L 757.349011 -87.309484 
L 756.179384 -89.18722 
L 755.009756 -91.040082 
L 753.840128 -92.846583 
L 752.670501 -94.585672 
L 751.500873 -96.237551 
L 750.331245 -97.784441 
L 749.161618 -99.211257 
L 747.99199 -100.506164 
L 746.822362 -101.660961 
L 745.652734 -102.671296 
L 744.483107 -103.536693 
L 743.313479 -104.260417 
L 742.143851 -104.849181 
L 740.974224 -105.31274 
L 739.804596 -105.66341 
L 738.634968 -105.915547 
L 737.465341 -106.085032 
L 736.295713 -106.188809 
L 735.126085 -106.244477 
L 733.956458 -106.269986 
L 732.78683 -106.283412 
L 731.617202 -106.302833 
L 730.447575 -106.346269 
L 729.277947 -106.431674 
L 728.108319 -106.576945 
L 726.938692 -106.799929 
L 725.769064 -107.118381 
L 724.599436 -107.549883 
L 723.429808 -108.111674 
L 722.260181 -108.820418 
L 721.090553 -109.691902 
L 719.920925 -110.740683 
L 718.751298 -111.979705 
L 717.58167 -113.41993 
L 716.412042 -115.069989 
L 715.242415 -116.935912 
L 714.072787 -119.020943 
L 712.903159 -121.325472 
L 711.733532 -123.847081 
L 710.563904 -126.580724 
L 709.394276 -129.519005 
L 708.224649 -132.652554 
L 707.055021 -135.970461 
L 705.885393 -139.460738 
L 704.715766 -143.110761 
L 703.546138 -146.907677 
L 702.37651 -150.838718 
L 701.206882 -154.891419 
L 700.037255 -159.053708 
L 698.867627 -163.313873 
L 697.697999 -167.660407 
L 696.528372 -172.081755 
L 695.358744 -176.565985 
L 694.189116 -181.100414 
L 693.019489 -185.671241 
L 691.849861 -190.263209 
L 690.680233 -194.859335 
L 689.510606 -199.440743 
L 688.340978 -203.986607 
L 687.17135 -208.474213 
L 686.001723 -212.879137 
L 684.832095 -217.175518 
L 683.662467 -221.336398 
L 682.49284 -225.334091 
L 681.323212 -229.14056 
L 680.153584 -232.72774 
L 678.983956 -236.067805 
L 677.814329 -239.133338 
L 676.644701 -241.897405 
L 675.475073 -244.33354 
L 674.305446 -246.415655 
L 673.135818 -248.117913 
L 671.96619 -249.414598 
L 670.796563 -250.28004 
L 669.626935 -250.688631 
L 668.457307 -250.614979 
L 667.28768 -250.034242 
L 666.118052 -248.922642 
L 664.948424 -247.258188 
L 663.778797 -245.021561 
L 662.609169 -242.197155 
L 661.439541 -238.774207 
L 660.269914 -234.747951 
L 659.100286 -230.120733 
L 657.930658 -224.902996 
L 656.76103 -219.114068 
L 655.591403 -212.782685 
L 654.421775 -205.94719 
L 653.252147 -198.655375 
L 652.08252 -190.963941 
L 650.912892 -182.937599 
L 649.743264 -174.647808 
L 648.573637 -166.171231 
L 647.404009 -157.587941 
L 646.234381 -148.979475 
L 645.064754 -140.426818 
L 643.895126 -132.008394 
L 642.725498 -123.798166 
L 641.555871 -115.863915 
L 640.386243 -108.265777 
L 639.216615 -101.055071 
L 638.046988 -94.273487 
L 636.87736 -87.952616 
L 635.707732 -82.11385 
L 634.538104 -76.768617 
L 633.368477 -71.918928 
L 632.198849 -67.558177 
L 631.029221 -63.672156 
L 629.859594 -60.240211 
L 628.689966 -57.236484 
L 627.520338 -54.631183 
L 626.350711 -52.39182 
L 625.181083 -50.484379 
L 624.011455 -48.874369 
L 622.841828 -47.527746 
L 621.6722 -46.411667 
L 620.502572 -45.495101 
L 619.332945 -44.749267 
L 618.163317 -44.147925 
L 616.993689 -43.667538 
L 615.824062 -43.287315 
L 614.654434 -42.989148 
L 613.484806 -42.757494 
L 612.315179 -42.579185 
L 611.145551 -42.443213 
L 609.975923 -42.340491 
L 608.806295 -42.263613 
z
" style="stroke: #1f77b4"/>
    </defs>
    <g clip-path="url(#pb62d9221d1)">
     <use xlink:href="#m7e9849684e" x="0" y="288" style="fill: #1f77b4; fill-opacity: 0.25; stroke: #1f77b4"/>
    </g>
   </g>
   <g id="matplotlib.axis_7">
    <g id="xtick_4">
     <g id="line2d_42">
      <g>
       <use xlink:href="#m7d51e57135" x="602.267737" y="245.93875" style="stroke: #000000; stroke-width: 0.8"/>
      </g>
     </g>
     <g id="text_33">
      <!-- 0 -->
      <g transform="translate(599.086487 260.537188) scale(0.1 -0.1)">
       <use xlink:href="#DejaVuSans-30"/>
      </g>
     </g>
    </g>
    <g id="xtick_5">
     <g id="line2d_43">
      <g>
       <use xlink:href="#m7d51e57135" x="659.276251" y="245.93875" style="stroke: #000000; stroke-width: 0.8"/>
      </g>
     </g>
     <g id="text_34">
      <!-- 10 -->
      <g transform="translate(652.913751 260.537188) scale(0.1 -0.1)">
       <use xlink:href="#DejaVuSans-31"/>
       <use xlink:href="#DejaVuSans-30" transform="translate(63.623047 0)"/>
      </g>
     </g>
    </g>
    <g id="xtick_6">
     <g id="line2d_44">
      <g>
       <use xlink:href="#m7d51e57135" x="716.284765" y="245.93875" style="stroke: #000000; stroke-width: 0.8"/>
      </g>
     </g>
     <g id="text_35">
      <!-- 20 -->
      <g transform="translate(709.922265 260.537188) scale(0.1 -0.1)">
       <use xlink:href="#DejaVuSans-32"/>
       <use xlink:href="#DejaVuSans-30" transform="translate(63.623047 0)"/>
      </g>
     </g>
    </g>
    <g id="xtick_7">
     <g id="line2d_45">
      <g>
       <use xlink:href="#m7d51e57135" x="773.293279" y="245.93875" style="stroke: #000000; stroke-width: 0.8"/>
      </g>
     </g>
     <g id="text_36">
      <!-- 30 -->
      <g transform="translate(766.930779 260.537188) scale(0.1 -0.1)">
       <defs>
        <path id="DejaVuSans-33" d="M 2597 2516 
Q 3050 2419 3304 2112 
Q 3559 1806 3559 1356 
Q 3559 666 3084 287 
Q 2609 -91 1734 -91 
Q 1441 -91 1130 -33 
Q 819 25 488 141 
L 488 750 
Q 750 597 1062 519 
Q 1375 441 1716 441 
Q 2309 441 2620 675 
Q 2931 909 2931 1356 
Q 2931 1769 2642 2001 
Q 2353 2234 1838 2234 
L 1294 2234 
L 1294 2753 
L 1863 2753 
Q 2328 2753 2575 2939 
Q 2822 3125 2822 3475 
Q 2822 3834 2567 4026 
Q 2313 4219 1838 4219 
Q 1578 4219 1281 4162 
Q 984 4106 628 3988 
L 628 4550 
Q 988 4650 1302 4700 
Q 1616 4750 1894 4750 
Q 2613 4750 3031 4423 
Q 3450 4097 3450 3541 
Q 3450 3153 3228 2886 
Q 3006 2619 2597 2516 
z
" transform="scale(0.015625)"/>
       </defs>
       <use xlink:href="#DejaVuSans-33"/>
       <use xlink:href="#DejaVuSans-30" transform="translate(63.623047 0)"/>
      </g>
     </g>
    </g>
    <g id="xtick_8">
     <g id="line2d_46">
      <g>
       <use xlink:href="#m7d51e57135" x="830.301793" y="245.93875" style="stroke: #000000; stroke-width: 0.8"/>
      </g>
     </g>
     <g id="text_37">
      <!-- 40 -->
      <g transform="translate(823.939293 260.537188) scale(0.1 -0.1)">
       <use xlink:href="#DejaVuSans-34"/>
       <use xlink:href="#DejaVuSans-30" transform="translate(63.623047 0)"/>
      </g>
     </g>
    </g>
    <g id="text_38">
     <!-- count_skew -->
     <g transform="translate(696.093625 274.215312) scale(0.1 -0.1)">
      <defs>
       <path id="DejaVuSans-6b" d="M 581 4863 
L 1159 4863 
L 1159 1991 
L 2875 3500 
L 3609 3500 
L 1753 1863 
L 3688 0 
L 2938 0 
L 1159 1709 
L 1159 0 
L 581 0 
L 581 4863 
z
" transform="scale(0.015625)"/>
       <path id="DejaVuSans-77" d="M 269 3500 
L 844 3500 
L 1563 769 
L 2278 3500 
L 2956 3500 
L 3675 769 
L 4391 3500 
L 4966 3500 
L 4050 0 
L 3372 0 
L 2619 2869 
L 1863 0 
L 1184 0 
L 269 3500 
z
" transform="scale(0.015625)"/>
      </defs>
      <use xlink:href="#DejaVuSans-63"/>
      <use xlink:href="#DejaVuSans-6f" transform="translate(54.980469 0)"/>
      <use xlink:href="#DejaVuSans-75" transform="translate(116.162109 0)"/>
      <use xlink:href="#DejaVuSans-6e" transform="translate(179.541016 0)"/>
      <use xlink:href="#DejaVuSans-74" transform="translate(242.919922 0)"/>
      <use xlink:href="#DejaVuSans-5f" transform="translate(282.128906 0)"/>
      <use xlink:href="#DejaVuSans-73" transform="translate(332.128906 0)"/>
      <use xlink:href="#DejaVuSans-6b" transform="translate(384.228516 0)"/>
      <use xlink:href="#DejaVuSans-65" transform="translate(438.513672 0)"/>
      <use xlink:href="#DejaVuSans-77" transform="translate(500.037109 0)"/>
     </g>
    </g>
   </g>
   <g id="matplotlib.axis_8">
    <g id="ytick_21">
     <g id="line2d_47">
      <g>
       <use xlink:href="#m0e8bb90a1b" x="597.1685" y="245.93875" style="stroke: #000000; stroke-width: 0.8"/>
      </g>
     </g>
     <g id="text_39">
      <!-- 0.00 -->
      <g transform="translate(567.902875 249.737969) scale(0.1 -0.1)">
       <defs>
        <path id="DejaVuSans-2e" d="M 684 794 
L 1344 794 
L 1344 0 
L 684 0 
L 684 794 
z
" transform="scale(0.015625)"/>
       </defs>
       <use xlink:href="#DejaVuSans-30"/>
       <use xlink:href="#DejaVuSans-2e" transform="translate(63.623047 0)"/>
       <use xlink:href="#DejaVuSans-30" transform="translate(95.410156 0)"/>
       <use xlink:href="#DejaVuSans-30" transform="translate(159.033203 0)"/>
      </g>
     </g>
    </g>
    <g id="ytick_22">
     <g id="line2d_48">
      <g>
       <use xlink:href="#m0e8bb90a1b" x="597.1685" y="218.914094" style="stroke: #000000; stroke-width: 0.8"/>
      </g>
     </g>
     <g id="text_40">
      <!-- 0.01 -->
      <g transform="translate(567.902875 222.713313) scale(0.1 -0.1)">
       <use xlink:href="#DejaVuSans-30"/>
       <use xlink:href="#DejaVuSans-2e" transform="translate(63.623047 0)"/>
       <use xlink:href="#DejaVuSans-30" transform="translate(95.410156 0)"/>
       <use xlink:href="#DejaVuSans-31" transform="translate(159.033203 0)"/>
      </g>
     </g>
    </g>
    <g id="ytick_23">
     <g id="line2d_49">
      <g>
       <use xlink:href="#m0e8bb90a1b" x="597.1685" y="191.889439" style="stroke: #000000; stroke-width: 0.8"/>
      </g>
     </g>
     <g id="text_41">
      <!-- 0.02 -->
      <g transform="translate(567.902875 195.688658) scale(0.1 -0.1)">
       <use xlink:href="#DejaVuSans-30"/>
       <use xlink:href="#DejaVuSans-2e" transform="translate(63.623047 0)"/>
       <use xlink:href="#DejaVuSans-30" transform="translate(95.410156 0)"/>
       <use xlink:href="#DejaVuSans-32" transform="translate(159.033203 0)"/>
      </g>
     </g>
    </g>
    <g id="ytick_24">
     <g id="line2d_50">
      <g>
       <use xlink:href="#m0e8bb90a1b" x="597.1685" y="164.864783" style="stroke: #000000; stroke-width: 0.8"/>
      </g>
     </g>
     <g id="text_42">
      <!-- 0.03 -->
      <g transform="translate(567.902875 168.664002) scale(0.1 -0.1)">
       <use xlink:href="#DejaVuSans-30"/>
       <use xlink:href="#DejaVuSans-2e" transform="translate(63.623047 0)"/>
       <use xlink:href="#DejaVuSans-30" transform="translate(95.410156 0)"/>
       <use xlink:href="#DejaVuSans-33" transform="translate(159.033203 0)"/>
      </g>
     </g>
    </g>
    <g id="ytick_25">
     <g id="line2d_51">
      <g>
       <use xlink:href="#m0e8bb90a1b" x="597.1685" y="137.840128" style="stroke: #000000; stroke-width: 0.8"/>
      </g>
     </g>
     <g id="text_43">
      <!-- 0.04 -->
      <g transform="translate(567.902875 141.639347) scale(0.1 -0.1)">
       <use xlink:href="#DejaVuSans-30"/>
       <use xlink:href="#DejaVuSans-2e" transform="translate(63.623047 0)"/>
       <use xlink:href="#DejaVuSans-30" transform="translate(95.410156 0)"/>
       <use xlink:href="#DejaVuSans-34" transform="translate(159.033203 0)"/>
      </g>
     </g>
    </g>
    <g id="ytick_26">
     <g id="line2d_52">
      <g>
       <use xlink:href="#m0e8bb90a1b" x="597.1685" y="110.815472" style="stroke: #000000; stroke-width: 0.8"/>
      </g>
     </g>
     <g id="text_44">
      <!-- 0.05 -->
      <g transform="translate(567.902875 114.614691) scale(0.1 -0.1)">
       <defs>
        <path id="DejaVuSans-35" d="M 691 4666 
L 3169 4666 
L 3169 4134 
L 1269 4134 
L 1269 2991 
Q 1406 3038 1543 3061 
Q 1681 3084 1819 3084 
Q 2600 3084 3056 2656 
Q 3513 2228 3513 1497 
Q 3513 744 3044 326 
Q 2575 -91 1722 -91 
Q 1428 -91 1123 -41 
Q 819 9 494 109 
L 494 744 
Q 775 591 1075 516 
Q 1375 441 1709 441 
Q 2250 441 2565 725 
Q 2881 1009 2881 1497 
Q 2881 1984 2565 2268 
Q 2250 2553 1709 2553 
Q 1456 2553 1204 2497 
Q 953 2441 691 2322 
L 691 4666 
z
" transform="scale(0.015625)"/>
       </defs>
       <use xlink:href="#DejaVuSans-30"/>
       <use xlink:href="#DejaVuSans-2e" transform="translate(63.623047 0)"/>
       <use xlink:href="#DejaVuSans-30" transform="translate(95.410156 0)"/>
       <use xlink:href="#DejaVuSans-35" transform="translate(159.033203 0)"/>
      </g>
     </g>
    </g>
    <g id="ytick_27">
     <g id="line2d_53">
      <g>
       <use xlink:href="#m0e8bb90a1b" x="597.1685" y="83.790817" style="stroke: #000000; stroke-width: 0.8"/>
      </g>
     </g>
     <g id="text_45">
      <!-- 0.06 -->
      <g transform="translate(567.902875 87.590036) scale(0.1 -0.1)">
       <use xlink:href="#DejaVuSans-30"/>
       <use xlink:href="#DejaVuSans-2e" transform="translate(63.623047 0)"/>
       <use xlink:href="#DejaVuSans-30" transform="translate(95.410156 0)"/>
       <use xlink:href="#DejaVuSans-36" transform="translate(159.033203 0)"/>
      </g>
     </g>
    </g>
    <g id="ytick_28">
     <g id="line2d_54">
      <g>
       <use xlink:href="#m0e8bb90a1b" x="597.1685" y="56.766161" style="stroke: #000000; stroke-width: 0.8"/>
      </g>
     </g>
     <g id="text_46">
      <!-- 0.07 -->
      <g transform="translate(567.902875 60.56538) scale(0.1 -0.1)">
       <defs>
        <path id="DejaVuSans-37" d="M 525 4666 
L 3525 4666 
L 3525 4397 
L 1831 0 
L 1172 0 
L 2766 4134 
L 525 4134 
L 525 4666 
z
" transform="scale(0.015625)"/>
       </defs>
       <use xlink:href="#DejaVuSans-30"/>
       <use xlink:href="#DejaVuSans-2e" transform="translate(63.623047 0)"/>
       <use xlink:href="#DejaVuSans-30" transform="translate(95.410156 0)"/>
       <use xlink:href="#DejaVuSans-37" transform="translate(159.033203 0)"/>
      </g>
     </g>
    </g>
    <g id="ytick_29">
     <g id="line2d_55">
      <g>
       <use xlink:href="#m0e8bb90a1b" x="597.1685" y="29.741506" style="stroke: #000000; stroke-width: 0.8"/>
      </g>
     </g>
     <g id="text_47">
      <!-- 0.08 -->
      <g transform="translate(567.902875 33.540724) scale(0.1 -0.1)">
       <use xlink:href="#DejaVuSans-30"/>
       <use xlink:href="#DejaVuSans-2e" transform="translate(63.623047 0)"/>
       <use xlink:href="#DejaVuSans-30" transform="translate(95.410156 0)"/>
       <use xlink:href="#DejaVuSans-38" transform="translate(159.033203 0)"/>
      </g>
     </g>
    </g>
    <g id="text_48">
     <!-- Density -->
     <g transform="translate(561.823187 155.417969) rotate(-90) scale(0.1 -0.1)">
      <defs>
       <path id="DejaVuSans-44" d="M 1259 4147 
L 1259 519 
L 2022 519 
Q 2988 519 3436 956 
Q 3884 1394 3884 2338 
Q 3884 3275 3436 3711 
Q 2988 4147 2022 4147 
L 1259 4147 
z
M 628 4666 
L 1925 4666 
Q 3281 4666 3915 4102 
Q 4550 3538 4550 2338 
Q 4550 1131 3912 565 
Q 3275 0 1925 0 
L 628 0 
L 628 4666 
z
" transform="scale(0.015625)"/>
      </defs>
      <use xlink:href="#DejaVuSans-44"/>
      <use xlink:href="#DejaVuSans-65" transform="translate(77.001953 0)"/>
      <use xlink:href="#DejaVuSans-6e" transform="translate(138.525391 0)"/>
      <use xlink:href="#DejaVuSans-73" transform="translate(201.904297 0)"/>
      <use xlink:href="#DejaVuSans-69" transform="translate(254.003906 0)"/>
      <use xlink:href="#DejaVuSans-74" transform="translate(281.787109 0)"/>
      <use xlink:href="#DejaVuSans-79" transform="translate(320.996094 0)"/>
     </g>
    </g>
   </g>
   <g id="patch_21">
    <path d="M 597.1685 245.93875 
L 597.1685 26.88 
" style="fill: none; stroke: #000000; stroke-width: 0.8; stroke-linejoin: miter; stroke-linecap: square"/>
   </g>
   <g id="patch_22">
    <path d="M 853.2 245.93875 
L 853.2 26.88 
" style="fill: none; stroke: #000000; stroke-width: 0.8; stroke-linejoin: miter; stroke-linecap: square"/>
   </g>
   <g id="patch_23">
    <path d="M 597.1685 245.93875 
L 853.2 245.93875 
" style="fill: none; stroke: #000000; stroke-width: 0.8; stroke-linejoin: miter; stroke-linecap: square"/>
   </g>
   <g id="patch_24">
    <path d="M 597.1685 26.88 
L 853.2 26.88 
" style="fill: none; stroke: #000000; stroke-width: 0.8; stroke-linejoin: miter; stroke-linecap: square"/>
   </g>
   <g id="text_49">
    <!-- Gene Frequency Skewness Distribution -->
    <g transform="translate(608.219875 20.88) scale(0.12 -0.12)">
     <defs>
      <path id="DejaVuSans-47" d="M 3809 666 
L 3809 1919 
L 2778 1919 
L 2778 2438 
L 4434 2438 
L 4434 434 
Q 4069 175 3628 42 
Q 3188 -91 2688 -91 
Q 1594 -91 976 548 
Q 359 1188 359 2328 
Q 359 3472 976 4111 
Q 1594 4750 2688 4750 
Q 3144 4750 3555 4637 
Q 3966 4525 4313 4306 
L 4313 3634 
Q 3963 3931 3569 4081 
Q 3175 4231 2741 4231 
Q 1884 4231 1454 3753 
Q 1025 3275 1025 2328 
Q 1025 1384 1454 906 
Q 1884 428 2741 428 
Q 3075 428 3337 486 
Q 3600 544 3809 666 
z
" transform="scale(0.015625)"/>
      <path id="DejaVuSans-46" d="M 628 4666 
L 3309 4666 
L 3309 4134 
L 1259 4134 
L 1259 2759 
L 3109 2759 
L 3109 2228 
L 1259 2228 
L 1259 0 
L 628 0 
L 628 4666 
z
" transform="scale(0.015625)"/>
      <path id="DejaVuSans-71" d="M 947 1747 
Q 947 1113 1208 752 
Q 1469 391 1925 391 
Q 2381 391 2643 752 
Q 2906 1113 2906 1747 
Q 2906 2381 2643 2742 
Q 2381 3103 1925 3103 
Q 1469 3103 1208 2742 
Q 947 2381 947 1747 
z
M 2906 525 
Q 2725 213 2448 61 
Q 2172 -91 1784 -91 
Q 1150 -91 751 415 
Q 353 922 353 1747 
Q 353 2572 751 3078 
Q 1150 3584 1784 3584 
Q 2172 3584 2448 3432 
Q 2725 3281 2906 2969 
L 2906 3500 
L 3481 3500 
L 3481 -1331 
L 2906 -1331 
L 2906 525 
z
" transform="scale(0.015625)"/>
      <path id="DejaVuSans-53" d="M 3425 4513 
L 3425 3897 
Q 3066 4069 2747 4153 
Q 2428 4238 2131 4238 
Q 1616 4238 1336 4038 
Q 1056 3838 1056 3469 
Q 1056 3159 1242 3001 
Q 1428 2844 1947 2747 
L 2328 2669 
Q 3034 2534 3370 2195 
Q 3706 1856 3706 1288 
Q 3706 609 3251 259 
Q 2797 -91 1919 -91 
Q 1588 -91 1214 -16 
Q 841 59 441 206 
L 441 856 
Q 825 641 1194 531 
Q 1563 422 1919 422 
Q 2459 422 2753 634 
Q 3047 847 3047 1241 
Q 3047 1584 2836 1778 
Q 2625 1972 2144 2069 
L 1759 2144 
Q 1053 2284 737 2584 
Q 422 2884 422 3419 
Q 422 4038 858 4394 
Q 1294 4750 2059 4750 
Q 2388 4750 2728 4690 
Q 3069 4631 3425 4513 
z
" transform="scale(0.015625)"/>
      <path id="DejaVuSans-62" d="M 3116 1747 
Q 3116 2381 2855 2742 
Q 2594 3103 2138 3103 
Q 1681 3103 1420 2742 
Q 1159 2381 1159 1747 
Q 1159 1113 1420 752 
Q 1681 391 2138 391 
Q 2594 391 2855 752 
Q 3116 1113 3116 1747 
z
M 1159 2969 
Q 1341 3281 1617 3432 
Q 1894 3584 2278 3584 
Q 2916 3584 3314 3078 
Q 3713 2572 3713 1747 
Q 3713 922 3314 415 
Q 2916 -91 2278 -91 
Q 1894 -91 1617 61 
Q 1341 213 1159 525 
L 1159 0 
L 581 0 
L 581 4863 
L 1159 4863 
L 1159 2969 
z
" transform="scale(0.015625)"/>
     </defs>
     <use xlink:href="#DejaVuSans-47"/>
     <use xlink:href="#DejaVuSans-65" transform="translate(77.490234 0)"/>
     <use xlink:href="#DejaVuSans-6e" transform="translate(139.013672 0)"/>
     <use xlink:href="#DejaVuSans-65" transform="translate(202.392578 0)"/>
     <use xlink:href="#DejaVuSans-20" transform="translate(263.916016 0)"/>
     <use xlink:href="#DejaVuSans-46" transform="translate(295.703125 0)"/>
     <use xlink:href="#DejaVuSans-72" transform="translate(345.972656 0)"/>
     <use xlink:href="#DejaVuSans-65" transform="translate(384.835938 0)"/>
     <use xlink:href="#DejaVuSans-71" transform="translate(446.359375 0)"/>
     <use xlink:href="#DejaVuSans-75" transform="translate(509.835938 0)"/>
     <use xlink:href="#DejaVuSans-65" transform="translate(573.214844 0)"/>
     <use xlink:href="#DejaVuSans-6e" transform="translate(634.738281 0)"/>
     <use xlink:href="#DejaVuSans-63" transform="translate(698.117188 0)"/>
     <use xlink:href="#DejaVuSans-79" transform="translate(753.097656 0)"/>
     <use xlink:href="#DejaVuSans-20" transform="translate(812.277344 0)"/>
     <use xlink:href="#DejaVuSans-53" transform="translate(844.064453 0)"/>
     <use xlink:href="#DejaVuSans-6b" transform="translate(907.541016 0)"/>
     <use xlink:href="#DejaVuSans-65" transform="translate(961.826172 0)"/>
     <use xlink:href="#DejaVuSans-77" transform="translate(1023.349609 0)"/>
     <use xlink:href="#DejaVuSans-6e" transform="translate(1105.136719 0)"/>
     <use xlink:href="#DejaVuSans-65" transform="translate(1168.515625 0)"/>
     <use xlink:href="#DejaVuSans-73" transform="translate(1230.039062 0)"/>
     <use xlink:href="#DejaVuSans-73" transform="translate(1282.138672 0)"/>
     <use xlink:href="#DejaVuSans-20" transform="translate(1334.238281 0)"/>
     <use xlink:href="#DejaVuSans-44" transform="translate(1366.025391 0)"/>
     <use xlink:href="#DejaVuSans-69" transform="translate(1443.027344 0)"/>
     <use xlink:href="#DejaVuSans-73" transform="translate(1470.810547 0)"/>
     <use xlink:href="#DejaVuSans-74" transform="translate(1522.910156 0)"/>
     <use xlink:href="#DejaVuSans-72" transform="translate(1562.119141 0)"/>
     <use xlink:href="#DejaVuSans-69" transform="translate(1603.232422 0)"/>
     <use xlink:href="#DejaVuSans-62" transform="translate(1631.015625 0)"/>
     <use xlink:href="#DejaVuSans-75" transform="translate(1694.492188 0)"/>
     <use xlink:href="#DejaVuSans-74" transform="translate(1757.871094 0)"/>
     <use xlink:href="#DejaVuSans-69" transform="translate(1797.080078 0)"/>
     <use xlink:href="#DejaVuSans-6f" transform="translate(1824.863281 0)"/>
     <use xlink:href="#DejaVuSans-6e" transform="translate(1886.044922 0)"/>
    </g>
   </g>
   <g id="legend_1">
    <g id="patch_25">
     <path d="M 794.071875 64.23625 
L 846.2 64.23625 
Q 848.2 64.23625 848.2 62.23625 
L 848.2 33.88 
Q 848.2 31.88 846.2 31.88 
L 794.071875 31.88 
Q 792.071875 31.88 792.071875 33.88 
L 792.071875 62.23625 
Q 792.071875 64.23625 794.071875 64.23625 
z
" style="fill: #ffffff; opacity: 0.8; stroke: #cccccc; stroke-linejoin: miter"/>
    </g>
    <g id="text_50">
     <!-- dataset -->
     <g transform="translate(801.232031 43.478438) scale(0.1 -0.1)">
      <use xlink:href="#DejaVuSans-64"/>
      <use xlink:href="#DejaVuSans-61" transform="translate(63.476562 0)"/>
      <use xlink:href="#DejaVuSans-74" transform="translate(124.755859 0)"/>
      <use xlink:href="#DejaVuSans-61" transform="translate(163.964844 0)"/>
      <use xlink:href="#DejaVuSans-73" transform="translate(225.244141 0)"/>
      <use xlink:href="#DejaVuSans-65" transform="translate(277.34375 0)"/>
      <use xlink:href="#DejaVuSans-74" transform="translate(338.867188 0)"/>
     </g>
    </g>
    <g id="patch_26">
     <path d="M 796.071875 58.156563 
L 816.071875 58.156563 
L 816.071875 51.156563 
L 796.071875 51.156563 
z
" style="fill: #1f77b4; fill-opacity: 0.25; stroke: #1f77b4; stroke-linejoin: miter"/>
    </g>
    <g id="text_51">
     <!-- BRE -->
     <g transform="translate(824.071875 58.156563) scale(0.1 -0.1)">
      <use xlink:href="#DejaVuSans-42"/>
      <use xlink:href="#DejaVuSans-52" transform="translate(68.603516 0)"/>
      <use xlink:href="#DejaVuSans-45" transform="translate(138.085938 0)"/>
     </g>
    </g>
   </g>
  </g>
 </g>
 <defs>
  <clipPath id="p8b09f72c3c">
   <rect x="51.06125" y="26.88" width="128.01575" height="219.05875"/>
  </clipPath>
  <clipPath id="pd24e5d71bc">
   <rect x="233.097" y="26.88" width="128.01575" height="219.05875"/>
  </clipPath>
  <clipPath id="pde61e7a9cd">
   <rect x="415.13275" y="26.88" width="128.01575" height="219.05875"/>
  </clipPath>
  <clipPath id="pb62d9221d1">
   <rect x="597.1685" y="26.88" width="256.0315" height="219.05875"/>
  </clipPath>
 </defs>
</svg>
