<?xml version="1.0" encoding="utf-8" standalone="no"?>
<!DOCTYPE svg PUBLIC "-//W3C//DTD SVG 1.1//EN"
  "http://www.w3.org/Graphics/SVG/1.1/DTD/svg11.dtd">
<svg xmlns:xlink="http://www.w3.org/1999/xlink" width="720pt" height="216pt" viewBox="0 0 720 216" xmlns="http://www.w3.org/2000/svg" version="1.1">
 <metadata>
  <rdf:RDF xmlns:dc="http://purl.org/dc/elements/1.1/" xmlns:cc="http://creativecommons.org/ns#" xmlns:rdf="http://www.w3.org/1999/02/22-rdf-syntax-ns#">
   <cc:Work>
    <dc:type rdf:resource="http://purl.org/dc/dcmitype/StillImage"/>
    <dc:date>2026-05-17T09:23:37.603551</dc:date>
    <dc:format>image/svg+xml</dc:format>
    <dc:creator>
     <cc:Agent>
      <dc:title>Matplotlib v3.10.9, https://matplotlib.org/</dc:title>
     </cc:Agent>
    </dc:creator>
   </cc:Work>
  </rdf:RDF>
 </metadata>
 <defs>
  <style type="text/css">*{stroke-linejoin: round; stroke-linecap: butt}</style>
 </defs>
 <g id="figure_1">
  <g id="patch_1">
   <path d="M 0 216 
L 720 216 
L 720 0 
L 0 0 
z
" style="fill: #ffffff"/>
  </g>
  <g id="axes_1">
   <g id="patch_2">
    <path d="M 50.87 173.93875 
L 150.07 173.93875 
L 150.07 26.88 
L 50.87 26.88 
z
" style="fill: #ffffff"/>
   </g>
   <g id="matplotlib.axis_1">
    <g id="xtick_1">
     <g id="line2d_1">
      <defs>
       <path id="m09281dbaa7" d="M 0 0 
L 0 3.5 
" style="stroke: #000000; stroke-width: 0.8"/>
      </defs>
      <g>
       <use xlink:href="#m09281dbaa7" x="100.47" y="173.93875" style="stroke: #000000; stroke-width: 0.8"/>
      </g>
     </g>
     <g id="text_1">
      <!-- HRA -->
      <g transform="translate(90.015312 188.537188) scale(0.1 -0.1)">
       <defs>
        <path id="DejaVuSans-48" d="M 628 4666 
L 1259 4666 
L 1259 2753 
L 3553 2753 
L 3553 4666 
L 4184 4666 
L 4184 0 
L 3553 0 
L 3553 2222 
L 1259 2222 
L 1259 0 
L 628 0 
L 628 4666 
z
" transform="scale(0.015625)"/>
        <path id="DejaVuSans-52" d="M 2841 2188 
Q 3044 2119 3236 1894 
Q 3428 1669 3622 1275 
L 4263 0 
L 3584 0 
L 2988 1197 
Q 2756 1666 2539 1819 
Q 2322 1972 1947 1972 
L 1259 1972 
L 1259 0 
L 628 0 
L 628 4666 
L 2053 4666 
Q 2853 4666 3247 4331 
Q 3641 3997 3641 3322 
Q 3641 2881 3436 2590 
Q 3231 2300 2841 2188 
z
M 1259 4147 
L 1259 2491 
L 2053 2491 
Q 2509 2491 2742 2702 
Q 2975 2913 2975 3322 
Q 2975 3731 2742 3939 
Q 2509 4147 2053 4147 
L 1259 4147 
z
" transform="scale(0.015625)"/>
        <path id="DejaVuSans-41" d="M 2188 4044 
L 1331 1722 
L 3047 1722 
L 2188 4044 
z
M 1831 4666 
L 2547 4666 
L 4325 0 
L 3669 0 
L 3244 1197 
L 1141 1197 
L 716 0 
L 50 0 
L 1831 4666 
z
" transform="scale(0.015625)"/>
       </defs>
       <use xlink:href="#DejaVuSans-48"/>
       <use xlink:href="#DejaVuSans-52" transform="translate(75.195312 0)"/>
       <use xlink:href="#DejaVuSans-41" transform="translate(140.677734 0)"/>
      </g>
     </g>
    </g>
    <g id="text_2">
     <!-- dataset -->
     <g transform="translate(81.566094 202.215313) scale(0.1 -0.1)">
      <defs>
       <path id="DejaVuSans-64" d="M 2906 2969 
L 2906 4863 
L 3481 4863 
L 3481 0 
L 2906 0 
L 2906 525 
Q 2725 213 2448 61 
Q 2172 -91 1784 -91 
Q 1150 -91 751 415 
Q 353 922 353 1747 
Q 353 2572 751 3078 
Q 1150 3584 1784 3584 
Q 2172 3584 2448 3432 
Q 2725 3281 2906 2969 
z
M 947 1747 
Q 947 1113 1208 752 
Q 1469 391 1925 391 
Q 2381 391 2643 752 
Q 2906 1113 2906 1747 
Q 2906 2381 2643 2742 
Q 2381 3103 1925 3103 
Q 1469 3103 1208 2742 
Q 947 2381 947 1747 
z
" transform="scale(0.015625)"/>
       <path id="DejaVuSans-61" d="M 2194 1759 
Q 1497 1759 1228 1600 
Q 959 1441 959 1056 
Q 959 750 1161 570 
Q 1363 391 1709 391 
Q 2188 391 2477 730 
Q 2766 1069 2766 1631 
L 2766 1759 
L 2194 1759 
z
M 3341 1997 
L 3341 0 
L 2766 0 
L 2766 531 
Q 2569 213 2275 61 
Q 1981 -91 1556 -91 
Q 1019 -91 701 211 
Q 384 513 384 1019 
Q 384 1609 779 1909 
Q 1175 2209 1959 2209 
L 2766 2209 
L 2766 2266 
Q 2766 2663 2505 2880 
Q 2244 3097 1772 3097 
Q 1472 3097 1187 3025 
Q 903 2953 641 2809 
L 641 3341 
Q 956 3463 1253 3523 
Q 1550 3584 1831 3584 
Q 2591 3584 2966 3190 
Q 3341 2797 3341 1997 
z
" transform="scale(0.015625)"/>
       <path id="DejaVuSans-74" d="M 1172 4494 
L 1172 3500 
L 2356 3500 
L 2356 3053 
L 1172 3053 
L 1172 1153 
Q 1172 725 1289 603 
Q 1406 481 1766 481 
L 2356 481 
L 2356 0 
L 1766 0 
Q 1100 0 847 248 
Q 594 497 594 1153 
L 594 3053 
L 172 3053 
L 172 3500 
L 594 3500 
L 594 4494 
L 1172 4494 
z
" transform="scale(0.015625)"/>
       <path id="DejaVuSans-73" d="M 2834 3397 
L 2834 2853 
Q 2591 2978 2328 3040 
Q 2066 3103 1784 3103 
Q 1356 3103 1142 2972 
Q 928 2841 928 2578 
Q 928 2378 1081 2264 
Q 1234 2150 1697 2047 
L 1894 2003 
Q 2506 1872 2764 1633 
Q 3022 1394 3022 966 
Q 3022 478 2636 193 
Q 2250 -91 1575 -91 
Q 1294 -91 989 -36 
Q 684 19 347 128 
L 347 722 
Q 666 556 975 473 
Q 1284 391 1588 391 
Q 1994 391 2212 530 
Q 2431 669 2431 922 
Q 2431 1156 2273 1281 
Q 2116 1406 1581 1522 
L 1381 1569 
Q 847 1681 609 1914 
Q 372 2147 372 2553 
Q 372 3047 722 3315 
Q 1072 3584 1716 3584 
Q 2034 3584 2315 3537 
Q 2597 3491 2834 3397 
z
" transform="scale(0.015625)"/>
       <path id="DejaVuSans-65" d="M 3597 1894 
L 3597 1613 
L 953 1613 
Q 991 1019 1311 708 
Q 1631 397 2203 397 
Q 2534 397 2845 478 
Q 3156 559 3463 722 
L 3463 178 
Q 3153 47 2828 -22 
Q 2503 -91 2169 -91 
Q 1331 -91 842 396 
Q 353 884 353 1716 
Q 353 2575 817 3079 
Q 1281 3584 2069 3584 
Q 2775 3584 3186 3129 
Q 3597 2675 3597 1894 
z
M 3022 2063 
Q 3016 2534 2758 2815 
Q 2500 3097 2075 3097 
Q 1594 3097 1305 2825 
Q 1016 2553 972 2059 
L 3022 2063 
z
" transform="scale(0.015625)"/>
      </defs>
      <use xlink:href="#DejaVuSans-64"/>
      <use xlink:href="#DejaVuSans-61" transform="translate(63.476562 0)"/>
      <use xlink:href="#DejaVuSans-74" transform="translate(124.755859 0)"/>
      <use xlink:href="#DejaVuSans-61" transform="translate(163.964844 0)"/>
      <use xlink:href="#DejaVuSans-73" transform="translate(225.244141 0)"/>
      <use xlink:href="#DejaVuSans-65" transform="translate(277.34375 0)"/>
      <use xlink:href="#DejaVuSans-74" transform="translate(338.867188 0)"/>
     </g>
    </g>
   </g>
   <g id="matplotlib.axis_2">
    <g id="ytick_1">
     <g id="line2d_2">
      <defs>
       <path id="m1979ea3e10" d="M 0 0 
L -3.5 0 
" style="stroke: #000000; stroke-width: 0.8"/>
      </defs>
      <g>
       <use xlink:href="#m1979ea3e10" x="50.87" y="167.965377" style="stroke: #000000; stroke-width: 0.8"/>
      </g>
     </g>
     <g id="text_3">
      <!-- 0 -->
      <g transform="translate(37.5075 171.764596) scale(0.1 -0.1)">
       <defs>
        <path id="DejaVuSans-30" d="M 2034 4250 
Q 1547 4250 1301 3770 
Q 1056 3291 1056 2328 
Q 1056 1369 1301 889 
Q 1547 409 2034 409 
Q 2525 409 2770 889 
Q 3016 1369 3016 2328 
Q 3016 3291 2770 3770 
Q 2525 4250 2034 4250 
z
M 2034 4750 
Q 2819 4750 3233 4129 
Q 3647 3509 3647 2328 
Q 3647 1150 3233 529 
Q 2819 -91 2034 -91 
Q 1250 -91 836 529 
Q 422 1150 422 2328 
Q 422 3509 836 4129 
Q 1250 4750 2034 4750 
z
" transform="scale(0.015625)"/>
       </defs>
       <use xlink:href="#DejaVuSans-30"/>
      </g>
     </g>
    </g>
    <g id="ytick_2">
     <g id="line2d_3">
      <g>
       <use xlink:href="#m1979ea3e10" x="50.87" y="132.409587" style="stroke: #000000; stroke-width: 0.8"/>
      </g>
     </g>
     <g id="text_4">
      <!-- 50 -->
      <g transform="translate(31.145 136.208805) scale(0.1 -0.1)">
       <defs>
        <path id="DejaVuSans-35" d="M 691 4666 
L 3169 4666 
L 3169 4134 
L 1269 4134 
L 1269 2991 
Q 1406 3038 1543 3061 
Q 1681 3084 1819 3084 
Q 2600 3084 3056 2656 
Q 3513 2228 3513 1497 
Q 3513 744 3044 326 
Q 2575 -91 1722 -91 
Q 1428 -91 1123 -41 
Q 819 9 494 109 
L 494 744 
Q 775 591 1075 516 
Q 1375 441 1709 441 
Q 2250 441 2565 725 
Q 2881 1009 2881 1497 
Q 2881 1984 2565 2268 
Q 2250 2553 1709 2553 
Q 1456 2553 1204 2497 
Q 953 2441 691 2322 
L 691 4666 
z
" transform="scale(0.015625)"/>
       </defs>
       <use xlink:href="#DejaVuSans-35"/>
       <use xlink:href="#DejaVuSans-30" transform="translate(63.623047 0)"/>
      </g>
     </g>
    </g>
    <g id="ytick_3">
     <g id="line2d_4">
      <g>
       <use xlink:href="#m1979ea3e10" x="50.87" y="96.853796" style="stroke: #000000; stroke-width: 0.8"/>
      </g>
     </g>
     <g id="text_5">
      <!-- 100 -->
      <g transform="translate(24.7825 100.653015) scale(0.1 -0.1)">
       <defs>
        <path id="DejaVuSans-31" d="M 794 531 
L 1825 531 
L 1825 4091 
L 703 3866 
L 703 4441 
L 1819 4666 
L 2450 4666 
L 2450 531 
L 3481 531 
L 3481 0 
L 794 0 
L 794 531 
z
" transform="scale(0.015625)"/>
       </defs>
       <use xlink:href="#DejaVuSans-31"/>
       <use xlink:href="#DejaVuSans-30" transform="translate(63.623047 0)"/>
       <use xlink:href="#DejaVuSans-30" transform="translate(127.246094 0)"/>
      </g>
     </g>
    </g>
    <g id="ytick_4">
     <g id="line2d_5">
      <g>
       <use xlink:href="#m1979ea3e10" x="50.87" y="61.298005" style="stroke: #000000; stroke-width: 0.8"/>
      </g>
     </g>
     <g id="text_6">
      <!-- 150 -->
      <g transform="translate(24.7825 65.097224) scale(0.1 -0.1)">
       <use xlink:href="#DejaVuSans-31"/>
       <use xlink:href="#DejaVuSans-35" transform="translate(63.623047 0)"/>
       <use xlink:href="#DejaVuSans-30" transform="translate(127.246094 0)"/>
      </g>
     </g>
    </g>
    <g id="text_7">
     <!-- Count -->
     <g transform="translate(18.702813 115.257812) rotate(-90) scale(0.1 -0.1)">
      <defs>
       <path id="DejaVuSans-43" d="M 4122 4306 
L 4122 3641 
Q 3803 3938 3442 4084 
Q 3081 4231 2675 4231 
Q 1875 4231 1450 3742 
Q 1025 3253 1025 2328 
Q 1025 1406 1450 917 
Q 1875 428 2675 428 
Q 3081 428 3442 575 
Q 3803 722 4122 1019 
L 4122 359 
Q 3791 134 3420 21 
Q 3050 -91 2638 -91 
Q 1578 -91 968 557 
Q 359 1206 359 2328 
Q 359 3453 968 4101 
Q 1578 4750 2638 4750 
Q 3056 4750 3426 4639 
Q 3797 4528 4122 4306 
z
" transform="scale(0.015625)"/>
       <path id="DejaVuSans-6f" d="M 1959 3097 
Q 1497 3097 1228 2736 
Q 959 2375 959 1747 
Q 959 1119 1226 758 
Q 1494 397 1959 397 
Q 2419 397 2687 759 
Q 2956 1122 2956 1747 
Q 2956 2369 2687 2733 
Q 2419 3097 1959 3097 
z
M 1959 3584 
Q 2709 3584 3137 3096 
Q 3566 2609 3566 1747 
Q 3566 888 3137 398 
Q 2709 -91 1959 -91 
Q 1206 -91 779 398 
Q 353 888 353 1747 
Q 353 2609 779 3096 
Q 1206 3584 1959 3584 
z
" transform="scale(0.015625)"/>
       <path id="DejaVuSans-75" d="M 544 1381 
L 544 3500 
L 1119 3500 
L 1119 1403 
Q 1119 906 1312 657 
Q 1506 409 1894 409 
Q 2359 409 2629 706 
Q 2900 1003 2900 1516 
L 2900 3500 
L 3475 3500 
L 3475 0 
L 2900 0 
L 2900 538 
Q 2691 219 2414 64 
Q 2138 -91 1772 -91 
Q 1169 -91 856 284 
Q 544 659 544 1381 
z
M 1991 3584 
L 1991 3584 
z
" transform="scale(0.015625)"/>
       <path id="DejaVuSans-6e" d="M 3513 2113 
L 3513 0 
L 2938 0 
L 2938 2094 
Q 2938 2591 2744 2837 
Q 2550 3084 2163 3084 
Q 1697 3084 1428 2787 
Q 1159 2491 1159 1978 
L 1159 0 
L 581 0 
L 581 3500 
L 1159 3500 
L 1159 2956 
Q 1366 3272 1645 3428 
Q 1925 3584 2291 3584 
Q 2894 3584 3203 3211 
Q 3513 2838 3513 2113 
z
" transform="scale(0.015625)"/>
      </defs>
      <use xlink:href="#DejaVuSans-43"/>
      <use xlink:href="#DejaVuSans-6f" transform="translate(69.824219 0)"/>
      <use xlink:href="#DejaVuSans-75" transform="translate(131.005859 0)"/>
      <use xlink:href="#DejaVuSans-6e" transform="translate(194.384766 0)"/>
      <use xlink:href="#DejaVuSans-74" transform="translate(257.763672 0)"/>
     </g>
    </g>
   </g>
   <g id="patch_3">
    <path d="M 60.79 164.409798 
L 140.15 164.409798 
L 140.15 148.943029 
L 60.79 148.943029 
L 60.79 164.409798 
z
" clip-path="url(#p9f497d0d3a)" style="fill: #3274a1; stroke: #3f3f3f; stroke-linejoin: miter"/>
   </g>
   <g id="line2d_6">
    <path d="M 100.47 164.409798 
L 100.47 167.254261 
" clip-path="url(#p9f497d0d3a)" style="fill: none; stroke: #3f3f3f"/>
   </g>
   <g id="line2d_7">
    <path d="M 100.47 148.943029 
L 100.47 126.72066 
" clip-path="url(#p9f497d0d3a)" style="fill: none; stroke: #3f3f3f"/>
   </g>
   <g id="line2d_8">
    <path d="M 80.63 167.254261 
L 120.31 167.254261 
" clip-path="url(#p9f497d0d3a)" style="fill: none; stroke: #3f3f3f; stroke-linecap: square"/>
   </g>
   <g id="line2d_9">
    <path d="M 80.63 126.72066 
L 120.31 126.72066 
" clip-path="url(#p9f497d0d3a)" style="fill: none; stroke: #3f3f3f; stroke-linecap: square"/>
   </g>
   <g id="line2d_10">
    <defs>
     <path id="meb0669c367" d="M 0 3 
C 0.795609 3 1.55874 2.683901 2.12132 2.12132 
C 2.683901 1.55874 3 0.795609 3 0 
C 3 -0.795609 2.683901 -1.55874 2.12132 -2.12132 
C 1.55874 -2.683901 0.795609 -3 0 -3 
C -0.795609 -3 -1.55874 -2.683901 -2.12132 -2.12132 
C -2.683901 -1.55874 -3 -0.795609 -3 0 
C -3 0.795609 -2.683901 1.55874 -2.12132 2.12132 
C -1.55874 2.683901 -0.795609 3 0 3 
z
" style="stroke: #3f3f3f"/>
    </defs>
    <g clip-path="url(#p9f497d0d3a)">
     <use xlink:href="#meb0669c367" x="100.47" y="114.631691" style="fill-opacity: 0; stroke: #3f3f3f"/>
     <use xlink:href="#meb0669c367" x="100.47" y="91.164869" style="fill-opacity: 0; stroke: #3f3f3f"/>
     <use xlink:href="#meb0669c367" x="100.47" y="104.67607" style="fill-opacity: 0; stroke: #3f3f3f"/>
     <use xlink:href="#meb0669c367" x="100.47" y="110.364996" style="fill-opacity: 0; stroke: #3f3f3f"/>
     <use xlink:href="#meb0669c367" x="100.47" y="112.498344" style="fill-opacity: 0; stroke: #3f3f3f"/>
     <use xlink:href="#meb0669c367" x="100.47" y="116.053923" style="fill-opacity: 0; stroke: #3f3f3f"/>
     <use xlink:href="#meb0669c367" x="100.47" y="96.14268" style="fill-opacity: 0; stroke: #3f3f3f"/>
     <use xlink:href="#meb0669c367" x="100.47" y="50.631268" style="fill-opacity: 0; stroke: #3f3f3f"/>
     <use xlink:href="#meb0669c367" x="100.47" y="88.320406" style="fill-opacity: 0; stroke: #3f3f3f"/>
     <use xlink:href="#meb0669c367" x="100.47" y="124.587313" style="fill-opacity: 0; stroke: #3f3f3f"/>
     <use xlink:href="#meb0669c367" x="100.47" y="123.165081" style="fill-opacity: 0; stroke: #3f3f3f"/>
     <use xlink:href="#meb0669c367" x="100.47" y="101.831607" style="fill-opacity: 0; stroke: #3f3f3f"/>
     <use xlink:href="#meb0669c367" x="100.47" y="121.742849" style="fill-opacity: 0; stroke: #3f3f3f"/>
     <use xlink:href="#meb0669c367" x="100.47" y="33.564489" style="fill-opacity: 0; stroke: #3f3f3f"/>
     <use xlink:href="#meb0669c367" x="100.47" y="122.453965" style="fill-opacity: 0; stroke: #3f3f3f"/>
     <use xlink:href="#meb0669c367" x="100.47" y="114.631691" style="fill-opacity: 0; stroke: #3f3f3f"/>
     <use xlink:href="#meb0669c367" x="100.47" y="121.031734" style="fill-opacity: 0; stroke: #3f3f3f"/>
     <use xlink:href="#meb0669c367" x="100.47" y="123.165081" style="fill-opacity: 0; stroke: #3f3f3f"/>
     <use xlink:href="#meb0669c367" x="100.47" y="124.587313" style="fill-opacity: 0; stroke: #3f3f3f"/>
     <use xlink:href="#meb0669c367" x="100.47" y="94.009333" style="fill-opacity: 0; stroke: #3f3f3f"/>
     <use xlink:href="#meb0669c367" x="100.47" y="109.653881" style="fill-opacity: 0; stroke: #3f3f3f"/>
     <use xlink:href="#meb0669c367" x="100.47" y="84.764827" style="fill-opacity: 0; stroke: #3f3f3f"/>
    </g>
   </g>
   <g id="line2d_11">
    <path d="M 60.79 158.009756 
L 140.15 158.009756 
" clip-path="url(#p9f497d0d3a)" style="fill: none; stroke: #3f3f3f"/>
   </g>
   <g id="patch_4">
    <path d="M 50.87 173.93875 
L 50.87 26.88 
" style="fill: none; stroke: #000000; stroke-width: 0.8; stroke-linejoin: miter; stroke-linecap: square"/>
   </g>
   <g id="patch_5">
    <path d="M 150.07 173.93875 
L 150.07 26.88 
" style="fill: none; stroke: #000000; stroke-width: 0.8; stroke-linejoin: miter; stroke-linecap: square"/>
   </g>
   <g id="patch_6">
    <path d="M 50.87 173.93875 
L 150.07 173.93875 
" style="fill: none; stroke: #000000; stroke-width: 0.8; stroke-linejoin: miter; stroke-linecap: square"/>
   </g>
   <g id="patch_7">
    <path d="M 50.87 26.88 
L 150.07 26.88 
" style="fill: none; stroke: #000000; stroke-width: 0.8; stroke-linejoin: miter; stroke-linecap: square"/>
   </g>
   <g id="text_8">
    <!-- Root node count -->
    <g transform="translate(51.160313 20.88) scale(0.12 -0.12)">
     <defs>
      <path id="DejaVuSans-20" transform="scale(0.015625)"/>
      <path id="DejaVuSans-63" d="M 3122 3366 
L 3122 2828 
Q 2878 2963 2633 3030 
Q 2388 3097 2138 3097 
Q 1578 3097 1268 2742 
Q 959 2388 959 1747 
Q 959 1106 1268 751 
Q 1578 397 2138 397 
Q 2388 397 2633 464 
Q 2878 531 3122 666 
L 3122 134 
Q 2881 22 2623 -34 
Q 2366 -91 2075 -91 
Q 1284 -91 818 406 
Q 353 903 353 1747 
Q 353 2603 823 3093 
Q 1294 3584 2113 3584 
Q 2378 3584 2631 3529 
Q 2884 3475 3122 3366 
z
" transform="scale(0.015625)"/>
     </defs>
     <use xlink:href="#DejaVuSans-52"/>
     <use xlink:href="#DejaVuSans-6f" transform="translate(64.982422 0)"/>
     <use xlink:href="#DejaVuSans-6f" transform="translate(126.164062 0)"/>
     <use xlink:href="#DejaVuSans-74" transform="translate(187.345703 0)"/>
     <use xlink:href="#DejaVuSans-20" transform="translate(226.554688 0)"/>
     <use xlink:href="#DejaVuSans-6e" transform="translate(258.341797 0)"/>
     <use xlink:href="#DejaVuSans-6f" transform="translate(321.720703 0)"/>
     <use xlink:href="#DejaVuSans-64" transform="translate(382.902344 0)"/>
     <use xlink:href="#DejaVuSans-65" transform="translate(446.378906 0)"/>
     <use xlink:href="#DejaVuSans-20" transform="translate(507.902344 0)"/>
     <use xlink:href="#DejaVuSans-63" transform="translate(539.689453 0)"/>
     <use xlink:href="#DejaVuSans-6f" transform="translate(594.669922 0)"/>
     <use xlink:href="#DejaVuSans-75" transform="translate(655.851562 0)"/>
     <use xlink:href="#DejaVuSans-6e" transform="translate(719.230469 0)"/>
     <use xlink:href="#DejaVuSans-74" transform="translate(782.609375 0)"/>
    </g>
   </g>
  </g>
  <g id="axes_2">
   <g id="patch_8">
    <path d="M 204.18 173.93875 
L 303.38 173.93875 
L 303.38 26.88 
L 204.18 26.88 
z
" style="fill: #ffffff"/>
   </g>
   <g id="matplotlib.axis_3">
    <g id="xtick_2">
     <g id="line2d_12">
      <g>
       <use xlink:href="#m09281dbaa7" x="253.78" y="173.93875" style="stroke: #000000; stroke-width: 0.8"/>
      </g>
     </g>
     <g id="text_9">
      <!-- HRA -->
      <g transform="translate(243.325312 188.537188) scale(0.1 -0.1)">
       <use xlink:href="#DejaVuSans-48"/>
       <use xlink:href="#DejaVuSans-52" transform="translate(75.195312 0)"/>
       <use xlink:href="#DejaVuSans-41" transform="translate(140.677734 0)"/>
      </g>
     </g>
    </g>
    <g id="text_10">
     <!-- dataset -->
     <g transform="translate(234.876094 202.215313) scale(0.1 -0.1)">
      <use xlink:href="#DejaVuSans-64"/>
      <use xlink:href="#DejaVuSans-61" transform="translate(63.476562 0)"/>
      <use xlink:href="#DejaVuSans-74" transform="translate(124.755859 0)"/>
      <use xlink:href="#DejaVuSans-61" transform="translate(163.964844 0)"/>
      <use xlink:href="#DejaVuSans-73" transform="translate(225.244141 0)"/>
      <use xlink:href="#DejaVuSans-65" transform="translate(277.34375 0)"/>
      <use xlink:href="#DejaVuSans-74" transform="translate(338.867188 0)"/>
     </g>
    </g>
   </g>
   <g id="matplotlib.axis_4">
    <g id="ytick_5">
     <g id="line2d_13">
      <g>
       <use xlink:href="#m1979ea3e10" x="204.18" y="161.916154" style="stroke: #000000; stroke-width: 0.8"/>
      </g>
     </g>
     <g id="text_11">
      <!-- 9.75 -->
      <g transform="translate(174.914375 165.715373) scale(0.1 -0.1)">
       <defs>
        <path id="DejaVuSans-39" d="M 703 97 
L 703 672 
Q 941 559 1184 500 
Q 1428 441 1663 441 
Q 2288 441 2617 861 
Q 2947 1281 2994 2138 
Q 2813 1869 2534 1725 
Q 2256 1581 1919 1581 
Q 1219 1581 811 2004 
Q 403 2428 403 3163 
Q 403 3881 828 4315 
Q 1253 4750 1959 4750 
Q 2769 4750 3195 4129 
Q 3622 3509 3622 2328 
Q 3622 1225 3098 567 
Q 2575 -91 1691 -91 
Q 1453 -91 1209 -44 
Q 966 3 703 97 
z
M 1959 2075 
Q 2384 2075 2632 2365 
Q 2881 2656 2881 3163 
Q 2881 3666 2632 3958 
Q 2384 4250 1959 4250 
Q 1534 4250 1286 3958 
Q 1038 3666 1038 3163 
Q 1038 2656 1286 2365 
Q 1534 2075 1959 2075 
z
" transform="scale(0.015625)"/>
        <path id="DejaVuSans-2e" d="M 684 794 
L 1344 794 
L 1344 0 
L 684 0 
L 684 794 
z
" transform="scale(0.015625)"/>
        <path id="DejaVuSans-37" d="M 525 4666 
L 3525 4666 
L 3525 4397 
L 1831 0 
L 1172 0 
L 2766 4134 
L 525 4134 
L 525 4666 
z
" transform="scale(0.015625)"/>
       </defs>
       <use xlink:href="#DejaVuSans-39"/>
       <use xlink:href="#DejaVuSans-2e" transform="translate(63.623047 0)"/>
       <use xlink:href="#DejaVuSans-37" transform="translate(95.410156 0)"/>
       <use xlink:href="#DejaVuSans-35" transform="translate(159.033203 0)"/>
      </g>
     </g>
    </g>
    <g id="ytick_6">
     <g id="line2d_14">
      <g>
       <use xlink:href="#m1979ea3e10" x="204.18" y="138.763363" style="stroke: #000000; stroke-width: 0.8"/>
      </g>
     </g>
     <g id="text_12">
      <!-- 10.00 -->
      <g transform="translate(168.551875 142.562581) scale(0.1 -0.1)">
       <use xlink:href="#DejaVuSans-31"/>
       <use xlink:href="#DejaVuSans-30" transform="translate(63.623047 0)"/>
       <use xlink:href="#DejaVuSans-2e" transform="translate(127.246094 0)"/>
       <use xlink:href="#DejaVuSans-30" transform="translate(159.033203 0)"/>
       <use xlink:href="#DejaVuSans-30" transform="translate(222.65625 0)"/>
      </g>
     </g>
    </g>
    <g id="ytick_7">
     <g id="line2d_15">
      <g>
       <use xlink:href="#m1979ea3e10" x="204.18" y="115.610572" style="stroke: #000000; stroke-width: 0.8"/>
      </g>
     </g>
     <g id="text_13">
      <!-- 10.25 -->
      <g transform="translate(168.551875 119.40979) scale(0.1 -0.1)">
       <defs>
        <path id="DejaVuSans-32" d="M 1228 531 
L 3431 531 
L 3431 0 
L 469 0 
L 469 531 
Q 828 903 1448 1529 
Q 2069 2156 2228 2338 
Q 2531 2678 2651 2914 
Q 2772 3150 2772 3378 
Q 2772 3750 2511 3984 
Q 2250 4219 1831 4219 
Q 1534 4219 1204 4116 
Q 875 4013 500 3803 
L 500 4441 
Q 881 4594 1212 4672 
Q 1544 4750 1819 4750 
Q 2544 4750 2975 4387 
Q 3406 4025 3406 3419 
Q 3406 3131 3298 2873 
Q 3191 2616 2906 2266 
Q 2828 2175 2409 1742 
Q 1991 1309 1228 531 
z
" transform="scale(0.015625)"/>
       </defs>
       <use xlink:href="#DejaVuSans-31"/>
       <use xlink:href="#DejaVuSans-30" transform="translate(63.623047 0)"/>
       <use xlink:href="#DejaVuSans-2e" transform="translate(127.246094 0)"/>
       <use xlink:href="#DejaVuSans-32" transform="translate(159.033203 0)"/>
       <use xlink:href="#DejaVuSans-35" transform="translate(222.65625 0)"/>
      </g>
     </g>
    </g>
    <g id="ytick_8">
     <g id="line2d_16">
      <g>
       <use xlink:href="#m1979ea3e10" x="204.18" y="92.45778" style="stroke: #000000; stroke-width: 0.8"/>
      </g>
     </g>
     <g id="text_14">
      <!-- 10.50 -->
      <g transform="translate(168.551875 96.256999) scale(0.1 -0.1)">
       <use xlink:href="#DejaVuSans-31"/>
       <use xlink:href="#DejaVuSans-30" transform="translate(63.623047 0)"/>
       <use xlink:href="#DejaVuSans-2e" transform="translate(127.246094 0)"/>
       <use xlink:href="#DejaVuSans-35" transform="translate(159.033203 0)"/>
       <use xlink:href="#DejaVuSans-30" transform="translate(222.65625 0)"/>
      </g>
     </g>
    </g>
    <g id="ytick_9">
     <g id="line2d_17">
      <g>
       <use xlink:href="#m1979ea3e10" x="204.18" y="69.304989" style="stroke: #000000; stroke-width: 0.8"/>
      </g>
     </g>
     <g id="text_15">
      <!-- 10.75 -->
      <g transform="translate(168.551875 73.104208) scale(0.1 -0.1)">
       <use xlink:href="#DejaVuSans-31"/>
       <use xlink:href="#DejaVuSans-30" transform="translate(63.623047 0)"/>
       <use xlink:href="#DejaVuSans-2e" transform="translate(127.246094 0)"/>
       <use xlink:href="#DejaVuSans-37" transform="translate(159.033203 0)"/>
       <use xlink:href="#DejaVuSans-35" transform="translate(222.65625 0)"/>
      </g>
     </g>
    </g>
    <g id="ytick_10">
     <g id="line2d_18">
      <g>
       <use xlink:href="#m1979ea3e10" x="204.18" y="46.152198" style="stroke: #000000; stroke-width: 0.8"/>
      </g>
     </g>
     <g id="text_16">
      <!-- 11.00 -->
      <g transform="translate(168.551875 49.951417) scale(0.1 -0.1)">
       <use xlink:href="#DejaVuSans-31"/>
       <use xlink:href="#DejaVuSans-31" transform="translate(63.623047 0)"/>
       <use xlink:href="#DejaVuSans-2e" transform="translate(127.246094 0)"/>
       <use xlink:href="#DejaVuSans-30" transform="translate(159.033203 0)"/>
       <use xlink:href="#DejaVuSans-30" transform="translate(222.65625 0)"/>
      </g>
     </g>
    </g>
    <g id="text_17">
     <!-- Time(Seconds) -->
     <g transform="translate(162.472187 137.551562) rotate(-90) scale(0.1 -0.1)">
      <defs>
       <path id="DejaVuSans-54" d="M -19 4666 
L 3928 4666 
L 3928 4134 
L 2272 4134 
L 2272 0 
L 1638 0 
L 1638 4134 
L -19 4134 
L -19 4666 
z
" transform="scale(0.015625)"/>
       <path id="DejaVuSans-69" d="M 603 3500 
L 1178 3500 
L 1178 0 
L 603 0 
L 603 3500 
z
M 603 4863 
L 1178 4863 
L 1178 4134 
L 603 4134 
L 603 4863 
z
" transform="scale(0.015625)"/>
       <path id="DejaVuSans-6d" d="M 3328 2828 
Q 3544 3216 3844 3400 
Q 4144 3584 4550 3584 
Q 5097 3584 5394 3201 
Q 5691 2819 5691 2113 
L 5691 0 
L 5113 0 
L 5113 2094 
Q 5113 2597 4934 2840 
Q 4756 3084 4391 3084 
Q 3944 3084 3684 2787 
Q 3425 2491 3425 1978 
L 3425 0 
L 2847 0 
L 2847 2094 
Q 2847 2600 2669 2842 
Q 2491 3084 2119 3084 
Q 1678 3084 1418 2786 
Q 1159 2488 1159 1978 
L 1159 0 
L 581 0 
L 581 3500 
L 1159 3500 
L 1159 2956 
Q 1356 3278 1631 3431 
Q 1906 3584 2284 3584 
Q 2666 3584 2933 3390 
Q 3200 3197 3328 2828 
z
" transform="scale(0.015625)"/>
       <path id="DejaVuSans-28" d="M 1984 4856 
Q 1566 4138 1362 3434 
Q 1159 2731 1159 2009 
Q 1159 1288 1364 580 
Q 1569 -128 1984 -844 
L 1484 -844 
Q 1016 -109 783 600 
Q 550 1309 550 2009 
Q 550 2706 781 3412 
Q 1013 4119 1484 4856 
L 1984 4856 
z
" transform="scale(0.015625)"/>
       <path id="DejaVuSans-53" d="M 3425 4513 
L 3425 3897 
Q 3066 4069 2747 4153 
Q 2428 4238 2131 4238 
Q 1616 4238 1336 4038 
Q 1056 3838 1056 3469 
Q 1056 3159 1242 3001 
Q 1428 2844 1947 2747 
L 2328 2669 
Q 3034 2534 3370 2195 
Q 3706 1856 3706 1288 
Q 3706 609 3251 259 
Q 2797 -91 1919 -91 
Q 1588 -91 1214 -16 
Q 841 59 441 206 
L 441 856 
Q 825 641 1194 531 
Q 1563 422 1919 422 
Q 2459 422 2753 634 
Q 3047 847 3047 1241 
Q 3047 1584 2836 1778 
Q 2625 1972 2144 2069 
L 1759 2144 
Q 1053 2284 737 2584 
Q 422 2884 422 3419 
Q 422 4038 858 4394 
Q 1294 4750 2059 4750 
Q 2388 4750 2728 4690 
Q 3069 4631 3425 4513 
z
" transform="scale(0.015625)"/>
       <path id="DejaVuSans-29" d="M 513 4856 
L 1013 4856 
Q 1481 4119 1714 3412 
Q 1947 2706 1947 2009 
Q 1947 1309 1714 600 
Q 1481 -109 1013 -844 
L 513 -844 
Q 928 -128 1133 580 
Q 1338 1288 1338 2009 
Q 1338 2731 1133 3434 
Q 928 4138 513 4856 
z
" transform="scale(0.015625)"/>
      </defs>
      <use xlink:href="#DejaVuSans-54"/>
      <use xlink:href="#DejaVuSans-69" transform="translate(57.958984 0)"/>
      <use xlink:href="#DejaVuSans-6d" transform="translate(85.742188 0)"/>
      <use xlink:href="#DejaVuSans-65" transform="translate(183.154297 0)"/>
      <use xlink:href="#DejaVuSans-28" transform="translate(244.677734 0)"/>
      <use xlink:href="#DejaVuSans-53" transform="translate(283.691406 0)"/>
      <use xlink:href="#DejaVuSans-65" transform="translate(347.167969 0)"/>
      <use xlink:href="#DejaVuSans-63" transform="translate(408.691406 0)"/>
      <use xlink:href="#DejaVuSans-6f" transform="translate(463.671875 0)"/>
      <use xlink:href="#DejaVuSans-6e" transform="translate(524.853516 0)"/>
      <use xlink:href="#DejaVuSans-64" transform="translate(588.232422 0)"/>
      <use xlink:href="#DejaVuSans-73" transform="translate(651.708984 0)"/>
      <use xlink:href="#DejaVuSans-29" transform="translate(703.808594 0)"/>
     </g>
    </g>
   </g>
   <g id="patch_9">
    <path d="M 214.1 135.995447 
L 293.46 135.995447 
L 293.46 112.740552 
L 214.1 112.740552 
L 214.1 135.995447 
z
" clip-path="url(#p8fa7da8662)" style="fill: #3274a1; stroke: #3f3f3f; stroke-linejoin: miter"/>
   </g>
   <g id="line2d_19">
    <path d="M 253.78 135.995447 
L 253.78 167.254261 
" clip-path="url(#p8fa7da8662)" style="fill: none; stroke: #3f3f3f"/>
   </g>
   <g id="line2d_20">
    <path d="M 253.78 112.740552 
L 253.78 79.408867 
" clip-path="url(#p8fa7da8662)" style="fill: none; stroke: #3f3f3f"/>
   </g>
   <g id="line2d_21">
    <path d="M 233.94 167.254261 
L 273.62 167.254261 
" clip-path="url(#p8fa7da8662)" style="fill: none; stroke: #3f3f3f; stroke-linecap: square"/>
   </g>
   <g id="line2d_22">
    <path d="M 233.94 79.408867 
L 273.62 79.408867 
" clip-path="url(#p8fa7da8662)" style="fill: none; stroke: #3f3f3f; stroke-linecap: square"/>
   </g>
   <g id="line2d_23">
    <g clip-path="url(#p8fa7da8662)">
     <use xlink:href="#meb0669c367" x="253.78" y="67.823211" style="fill-opacity: 0; stroke: #3f3f3f"/>
     <use xlink:href="#meb0669c367" x="253.78" y="33.564489" style="fill-opacity: 0; stroke: #3f3f3f"/>
     <use xlink:href="#meb0669c367" x="253.78" y="71.686022" style="fill-opacity: 0; stroke: #3f3f3f"/>
     <use xlink:href="#meb0669c367" x="253.78" y="65.51071" style="fill-opacity: 0; stroke: #3f3f3f"/>
     <use xlink:href="#meb0669c367" x="253.78" y="65.674632" style="fill-opacity: 0; stroke: #3f3f3f"/>
     <use xlink:href="#meb0669c367" x="253.78" y="47.950707" style="fill-opacity: 0; stroke: #3f3f3f"/>
     <use xlink:href="#meb0669c367" x="253.78" y="76.36196" style="fill-opacity: 0; stroke: #3f3f3f"/>
     <use xlink:href="#meb0669c367" x="253.78" y="57.571155" style="fill-opacity: 0; stroke: #3f3f3f"/>
     <use xlink:href="#meb0669c367" x="253.78" y="70.662669" style="fill-opacity: 0; stroke: #3f3f3f"/>
     <use xlink:href="#meb0669c367" x="253.78" y="75.618292" style="fill-opacity: 0; stroke: #3f3f3f"/>
     <use xlink:href="#meb0669c367" x="253.78" y="66.270121" style="fill-opacity: 0; stroke: #3f3f3f"/>
     <use xlink:href="#meb0669c367" x="253.78" y="74.177263" style="fill-opacity: 0; stroke: #3f3f3f"/>
     <use xlink:href="#meb0669c367" x="253.78" y="69.243866" style="fill-opacity: 0; stroke: #3f3f3f"/>
    </g>
   </g>
   <g id="line2d_24">
    <path d="M 214.1 125.149058 
L 293.46 125.149058 
" clip-path="url(#p8fa7da8662)" style="fill: none; stroke: #3f3f3f"/>
   </g>
   <g id="patch_10">
    <path d="M 204.18 173.93875 
L 204.18 26.88 
" style="fill: none; stroke: #000000; stroke-width: 0.8; stroke-linejoin: miter; stroke-linecap: square"/>
   </g>
   <g id="patch_11">
    <path d="M 303.38 173.93875 
L 303.38 26.88 
" style="fill: none; stroke: #000000; stroke-width: 0.8; stroke-linejoin: miter; stroke-linecap: square"/>
   </g>
   <g id="patch_12">
    <path d="M 204.18 173.93875 
L 303.38 173.93875 
" style="fill: none; stroke: #000000; stroke-width: 0.8; stroke-linejoin: miter; stroke-linecap: square"/>
   </g>
   <g id="patch_13">
    <path d="M 204.18 26.88 
L 303.38 26.88 
" style="fill: none; stroke: #000000; stroke-width: 0.8; stroke-linejoin: miter; stroke-linecap: square"/>
   </g>
   <g id="text_18">
    <!-- Run time -->
    <g transform="translate(226.81375 20.88) scale(0.12 -0.12)">
     <use xlink:href="#DejaVuSans-52"/>
     <use xlink:href="#DejaVuSans-75" transform="translate(64.982422 0)"/>
     <use xlink:href="#DejaVuSans-6e" transform="translate(128.361328 0)"/>
     <use xlink:href="#DejaVuSans-20" transform="translate(191.740234 0)"/>
     <use xlink:href="#DejaVuSans-74" transform="translate(223.527344 0)"/>
     <use xlink:href="#DejaVuSans-69" transform="translate(262.736328 0)"/>
     <use xlink:href="#DejaVuSans-6d" transform="translate(290.519531 0)"/>
     <use xlink:href="#DejaVuSans-65" transform="translate(387.931641 0)"/>
    </g>
   </g>
  </g>
  <g id="axes_3">
   <g id="patch_14">
    <path d="M 357.49 173.93875 
L 456.69 173.93875 
L 456.69 26.88 
L 357.49 26.88 
z
" style="fill: #ffffff"/>
   </g>
   <g id="matplotlib.axis_5">
    <g id="xtick_3">
     <g id="line2d_25">
      <g>
       <use xlink:href="#m09281dbaa7" x="407.09" y="173.93875" style="stroke: #000000; stroke-width: 0.8"/>
      </g>
     </g>
     <g id="text_19">
      <!-- HRA -->
      <g transform="translate(396.635313 188.537188) scale(0.1 -0.1)">
       <use xlink:href="#DejaVuSans-48"/>
       <use xlink:href="#DejaVuSans-52" transform="translate(75.195312 0)"/>
       <use xlink:href="#DejaVuSans-41" transform="translate(140.677734 0)"/>
      </g>
     </g>
    </g>
    <g id="text_20">
     <!-- dataset -->
     <g transform="translate(388.186094 202.215313) scale(0.1 -0.1)">
      <use xlink:href="#DejaVuSans-64"/>
      <use xlink:href="#DejaVuSans-61" transform="translate(63.476562 0)"/>
      <use xlink:href="#DejaVuSans-74" transform="translate(124.755859 0)"/>
      <use xlink:href="#DejaVuSans-61" transform="translate(163.964844 0)"/>
      <use xlink:href="#DejaVuSans-73" transform="translate(225.244141 0)"/>
      <use xlink:href="#DejaVuSans-65" transform="translate(277.34375 0)"/>
      <use xlink:href="#DejaVuSans-74" transform="translate(338.867188 0)"/>
     </g>
    </g>
   </g>
   <g id="matplotlib.axis_6">
    <g id="ytick_11">
     <g id="line2d_26">
      <g>
       <use xlink:href="#m1979ea3e10" x="357.49" y="170.457559" style="stroke: #000000; stroke-width: 0.8"/>
      </g>
     </g>
     <g id="text_21">
      <!-- 0 -->
      <g transform="translate(344.1275 174.256778) scale(0.1 -0.1)">
       <use xlink:href="#DejaVuSans-30"/>
      </g>
     </g>
    </g>
    <g id="ytick_12">
     <g id="line2d_27">
      <g>
       <use xlink:href="#m1979ea3e10" x="357.49" y="143.078945" style="stroke: #000000; stroke-width: 0.8"/>
      </g>
     </g>
     <g id="text_22">
      <!-- 20 -->
      <g transform="translate(337.765 146.878164) scale(0.1 -0.1)">
       <use xlink:href="#DejaVuSans-32"/>
       <use xlink:href="#DejaVuSans-30" transform="translate(63.623047 0)"/>
      </g>
     </g>
    </g>
    <g id="ytick_13">
     <g id="line2d_28">
      <g>
       <use xlink:href="#m1979ea3e10" x="357.49" y="115.700331" style="stroke: #000000; stroke-width: 0.8"/>
      </g>
     </g>
     <g id="text_23">
      <!-- 40 -->
      <g transform="translate(337.765 119.49955) scale(0.1 -0.1)">
       <defs>
        <path id="DejaVuSans-34" d="M 2419 4116 
L 825 1625 
L 2419 1625 
L 2419 4116 
z
M 2253 4666 
L 3047 4666 
L 3047 1625 
L 3713 1625 
L 3713 1100 
L 3047 1100 
L 3047 0 
L 2419 0 
L 2419 1100 
L 313 1100 
L 313 1709 
L 2253 4666 
z
" transform="scale(0.015625)"/>
       </defs>
       <use xlink:href="#DejaVuSans-34"/>
       <use xlink:href="#DejaVuSans-30" transform="translate(63.623047 0)"/>
      </g>
     </g>
    </g>
    <g id="ytick_14">
     <g id="line2d_29">
      <g>
       <use xlink:href="#m1979ea3e10" x="357.49" y="88.321717" style="stroke: #000000; stroke-width: 0.8"/>
      </g>
     </g>
     <g id="text_24">
      <!-- 60 -->
      <g transform="translate(337.765 92.120936) scale(0.1 -0.1)">
       <defs>
        <path id="DejaVuSans-36" d="M 2113 2584 
Q 1688 2584 1439 2293 
Q 1191 2003 1191 1497 
Q 1191 994 1439 701 
Q 1688 409 2113 409 
Q 2538 409 2786 701 
Q 3034 994 3034 1497 
Q 3034 2003 2786 2293 
Q 2538 2584 2113 2584 
z
M 3366 4563 
L 3366 3988 
Q 3128 4100 2886 4159 
Q 2644 4219 2406 4219 
Q 1781 4219 1451 3797 
Q 1122 3375 1075 2522 
Q 1259 2794 1537 2939 
Q 1816 3084 2150 3084 
Q 2853 3084 3261 2657 
Q 3669 2231 3669 1497 
Q 3669 778 3244 343 
Q 2819 -91 2113 -91 
Q 1303 -91 875 529 
Q 447 1150 447 2328 
Q 447 3434 972 4092 
Q 1497 4750 2381 4750 
Q 2619 4750 2861 4703 
Q 3103 4656 3366 4563 
z
" transform="scale(0.015625)"/>
       </defs>
       <use xlink:href="#DejaVuSans-36"/>
       <use xlink:href="#DejaVuSans-30" transform="translate(63.623047 0)"/>
      </g>
     </g>
    </g>
    <g id="ytick_15">
     <g id="line2d_30">
      <g>
       <use xlink:href="#m1979ea3e10" x="357.49" y="60.943103" style="stroke: #000000; stroke-width: 0.8"/>
      </g>
     </g>
     <g id="text_25">
      <!-- 80 -->
      <g transform="translate(337.765 64.742322) scale(0.1 -0.1)">
       <defs>
        <path id="DejaVuSans-38" d="M 2034 2216 
Q 1584 2216 1326 1975 
Q 1069 1734 1069 1313 
Q 1069 891 1326 650 
Q 1584 409 2034 409 
Q 2484 409 2743 651 
Q 3003 894 3003 1313 
Q 3003 1734 2745 1975 
Q 2488 2216 2034 2216 
z
M 1403 2484 
Q 997 2584 770 2862 
Q 544 3141 544 3541 
Q 544 4100 942 4425 
Q 1341 4750 2034 4750 
Q 2731 4750 3128 4425 
Q 3525 4100 3525 3541 
Q 3525 3141 3298 2862 
Q 3072 2584 2669 2484 
Q 3125 2378 3379 2068 
Q 3634 1759 3634 1313 
Q 3634 634 3220 271 
Q 2806 -91 2034 -91 
Q 1263 -91 848 271 
Q 434 634 434 1313 
Q 434 1759 690 2068 
Q 947 2378 1403 2484 
z
M 1172 3481 
Q 1172 3119 1398 2916 
Q 1625 2713 2034 2713 
Q 2441 2713 2670 2916 
Q 2900 3119 2900 3481 
Q 2900 3844 2670 4047 
Q 2441 4250 2034 4250 
Q 1625 4250 1398 4047 
Q 1172 3844 1172 3481 
z
" transform="scale(0.015625)"/>
       </defs>
       <use xlink:href="#DejaVuSans-38"/>
       <use xlink:href="#DejaVuSans-30" transform="translate(63.623047 0)"/>
      </g>
     </g>
    </g>
    <g id="ytick_16">
     <g id="line2d_31">
      <g>
       <use xlink:href="#m1979ea3e10" x="357.49" y="33.564489" style="stroke: #000000; stroke-width: 0.8"/>
      </g>
     </g>
     <g id="text_26">
      <!-- 100 -->
      <g transform="translate(331.4025 37.363707) scale(0.1 -0.1)">
       <use xlink:href="#DejaVuSans-31"/>
       <use xlink:href="#DejaVuSans-30" transform="translate(63.623047 0)"/>
       <use xlink:href="#DejaVuSans-30" transform="translate(127.246094 0)"/>
      </g>
     </g>
    </g>
    <g id="text_27">
     <!-- Percent -->
     <g transform="translate(325.322813 119.217187) rotate(-90) scale(0.1 -0.1)">
      <defs>
       <path id="DejaVuSans-50" d="M 1259 4147 
L 1259 2394 
L 2053 2394 
Q 2494 2394 2734 2622 
Q 2975 2850 2975 3272 
Q 2975 3691 2734 3919 
Q 2494 4147 2053 4147 
L 1259 4147 
z
M 628 4666 
L 2053 4666 
Q 2838 4666 3239 4311 
Q 3641 3956 3641 3272 
Q 3641 2581 3239 2228 
Q 2838 1875 2053 1875 
L 1259 1875 
L 1259 0 
L 628 0 
L 628 4666 
z
" transform="scale(0.015625)"/>
       <path id="DejaVuSans-72" d="M 2631 2963 
Q 2534 3019 2420 3045 
Q 2306 3072 2169 3072 
Q 1681 3072 1420 2755 
Q 1159 2438 1159 1844 
L 1159 0 
L 581 0 
L 581 3500 
L 1159 3500 
L 1159 2956 
Q 1341 3275 1631 3429 
Q 1922 3584 2338 3584 
Q 2397 3584 2469 3576 
Q 2541 3569 2628 3553 
L 2631 2963 
z
" transform="scale(0.015625)"/>
      </defs>
      <use xlink:href="#DejaVuSans-50"/>
      <use xlink:href="#DejaVuSans-65" transform="translate(56.677734 0)"/>
      <use xlink:href="#DejaVuSans-72" transform="translate(118.201172 0)"/>
      <use xlink:href="#DejaVuSans-63" transform="translate(157.064453 0)"/>
      <use xlink:href="#DejaVuSans-65" transform="translate(212.044922 0)"/>
      <use xlink:href="#DejaVuSans-6e" transform="translate(273.568359 0)"/>
      <use xlink:href="#DejaVuSans-74" transform="translate(336.947266 0)"/>
     </g>
    </g>
   </g>
   <g id="patch_15">
    <path d="M 367.41 155.803156 
L 446.77 155.803156 
L 446.77 131.261651 
L 367.41 131.261651 
L 367.41 155.803156 
z
" clip-path="url(#pd80cbacd34)" style="fill: #3274a1; stroke: #3f3f3f; stroke-linejoin: miter"/>
   </g>
   <g id="line2d_32">
    <path d="M 407.09 155.803156 
L 407.09 167.254261 
" clip-path="url(#pd80cbacd34)" style="fill: none; stroke: #3f3f3f"/>
   </g>
   <g id="line2d_33">
    <path d="M 407.09 131.261651 
L 407.09 95.084235 
" clip-path="url(#pd80cbacd34)" style="fill: none; stroke: #3f3f3f"/>
   </g>
   <g id="line2d_34">
    <path d="M 387.25 167.254261 
L 426.93 167.254261 
" clip-path="url(#pd80cbacd34)" style="fill: none; stroke: #3f3f3f; stroke-linecap: square"/>
   </g>
   <g id="line2d_35">
    <path d="M 387.25 95.084235 
L 426.93 95.084235 
" clip-path="url(#pd80cbacd34)" style="fill: none; stroke: #3f3f3f; stroke-linecap: square"/>
   </g>
   <g id="line2d_36">
    <g clip-path="url(#pd80cbacd34)">
     <use xlink:href="#meb0669c367" x="407.09" y="76.507845" style="fill-opacity: 0; stroke: #3f3f3f"/>
     <use xlink:href="#meb0669c367" x="407.09" y="84.570847" style="fill-opacity: 0; stroke: #3f3f3f"/>
     <use xlink:href="#meb0669c367" x="407.09" y="81.367549" style="fill-opacity: 0; stroke: #3f3f3f"/>
     <use xlink:href="#meb0669c367" x="407.09" y="33.564489" style="fill-opacity: 0; stroke: #3f3f3f"/>
     <use xlink:href="#meb0669c367" x="407.09" y="33.564489" style="fill-opacity: 0; stroke: #3f3f3f"/>
     <use xlink:href="#meb0669c367" x="407.09" y="67.691931" style="fill-opacity: 0; stroke: #3f3f3f"/>
     <use xlink:href="#meb0669c367" x="407.09" y="87.144436" style="fill-opacity: 0; stroke: #3f3f3f"/>
     <use xlink:href="#meb0669c367" x="407.09" y="92.579091" style="fill-opacity: 0; stroke: #3f3f3f"/>
     <use xlink:href="#meb0669c367" x="407.09" y="33.564489" style="fill-opacity: 0; stroke: #3f3f3f"/>
     <use xlink:href="#meb0669c367" x="407.09" y="92.141034" style="fill-opacity: 0; stroke: #3f3f3f"/>
     <use xlink:href="#meb0669c367" x="407.09" y="89.485308" style="fill-opacity: 0; stroke: #3f3f3f"/>
     <use xlink:href="#meb0669c367" x="407.09" y="61.723393" style="fill-opacity: 0; stroke: #3f3f3f"/>
     <use xlink:href="#meb0669c367" x="407.09" y="33.564489" style="fill-opacity: 0; stroke: #3f3f3f"/>
     <use xlink:href="#meb0669c367" x="407.09" y="76.562602" style="fill-opacity: 0; stroke: #3f3f3f"/>
     <use xlink:href="#meb0669c367" x="407.09" y="33.564489" style="fill-opacity: 0; stroke: #3f3f3f"/>
     <use xlink:href="#meb0669c367" x="407.09" y="33.564489" style="fill-opacity: 0; stroke: #3f3f3f"/>
     <use xlink:href="#meb0669c367" x="407.09" y="33.564489" style="fill-opacity: 0; stroke: #3f3f3f"/>
     <use xlink:href="#meb0669c367" x="407.09" y="82.832305" style="fill-opacity: 0; stroke: #3f3f3f"/>
     <use xlink:href="#meb0669c367" x="407.09" y="62.106694" style="fill-opacity: 0; stroke: #3f3f3f"/>
     <use xlink:href="#meb0669c367" x="407.09" y="93.564721" style="fill-opacity: 0; stroke: #3f3f3f"/>
     <use xlink:href="#meb0669c367" x="407.09" y="91.059578" style="fill-opacity: 0; stroke: #3f3f3f"/>
     <use xlink:href="#meb0669c367" x="407.09" y="75.61804" style="fill-opacity: 0; stroke: #3f3f3f"/>
     <use xlink:href="#meb0669c367" x="407.09" y="94.331323" style="fill-opacity: 0; stroke: #3f3f3f"/>
     <use xlink:href="#meb0669c367" x="407.09" y="33.564489" style="fill-opacity: 0; stroke: #3f3f3f"/>
    </g>
   </g>
   <g id="line2d_37">
    <path d="M 367.41 148.335639 
L 446.77 148.335639 
" clip-path="url(#pd80cbacd34)" style="fill: none; stroke: #3f3f3f"/>
   </g>
   <g id="patch_16">
    <path d="M 357.49 173.93875 
L 357.49 26.88 
" style="fill: none; stroke: #000000; stroke-width: 0.8; stroke-linejoin: miter; stroke-linecap: square"/>
   </g>
   <g id="patch_17">
    <path d="M 456.69 173.93875 
L 456.69 26.88 
" style="fill: none; stroke: #000000; stroke-width: 0.8; stroke-linejoin: miter; stroke-linecap: square"/>
   </g>
   <g id="patch_18">
    <path d="M 357.49 173.93875 
L 456.69 173.93875 
" style="fill: none; stroke: #000000; stroke-width: 0.8; stroke-linejoin: miter; stroke-linecap: square"/>
   </g>
   <g id="patch_19">
    <path d="M 357.49 26.88 
L 456.69 26.88 
" style="fill: none; stroke: #000000; stroke-width: 0.8; stroke-linejoin: miter; stroke-linecap: square"/>
   </g>
   <g id="text_28">
    <!-- Gene Frequency Coverage -->
    <g transform="translate(327.696875 20.88) scale(0.12 -0.12)">
     <defs>
      <path id="DejaVuSans-47" d="M 3809 666 
L 3809 1919 
L 2778 1919 
L 2778 2438 
L 4434 2438 
L 4434 434 
Q 4069 175 3628 42 
Q 3188 -91 2688 -91 
Q 1594 -91 976 548 
Q 359 1188 359 2328 
Q 359 3472 976 4111 
Q 1594 4750 2688 4750 
Q 3144 4750 3555 4637 
Q 3966 4525 4313 4306 
L 4313 3634 
Q 3963 3931 3569 4081 
Q 3175 4231 2741 4231 
Q 1884 4231 1454 3753 
Q 1025 3275 1025 2328 
Q 1025 1384 1454 906 
Q 1884 428 2741 428 
Q 3075 428 3337 486 
Q 3600 544 3809 666 
z
" transform="scale(0.015625)"/>
      <path id="DejaVuSans-46" d="M 628 4666 
L 3309 4666 
L 3309 4134 
L 1259 4134 
L 1259 2759 
L 3109 2759 
L 3109 2228 
L 1259 2228 
L 1259 0 
L 628 0 
L 628 4666 
z
" transform="scale(0.015625)"/>
      <path id="DejaVuSans-71" d="M 947 1747 
Q 947 1113 1208 752 
Q 1469 391 1925 391 
Q 2381 391 2643 752 
Q 2906 1113 2906 1747 
Q 2906 2381 2643 2742 
Q 2381 3103 1925 3103 
Q 1469 3103 1208 2742 
Q 947 2381 947 1747 
z
M 2906 525 
Q 2725 213 2448 61 
Q 2172 -91 1784 -91 
Q 1150 -91 751 415 
Q 353 922 353 1747 
Q 353 2572 751 3078 
Q 1150 3584 1784 3584 
Q 2172 3584 2448 3432 
Q 2725 3281 2906 2969 
L 2906 3500 
L 3481 3500 
L 3481 -1331 
L 2906 -1331 
L 2906 525 
z
" transform="scale(0.015625)"/>
      <path id="DejaVuSans-79" d="M 2059 -325 
Q 1816 -950 1584 -1140 
Q 1353 -1331 966 -1331 
L 506 -1331 
L 506 -850 
L 844 -850 
Q 1081 -850 1212 -737 
Q 1344 -625 1503 -206 
L 1606 56 
L 191 3500 
L 800 3500 
L 1894 763 
L 2988 3500 
L 3597 3500 
L 2059 -325 
z
" transform="scale(0.015625)"/>
      <path id="DejaVuSans-76" d="M 191 3500 
L 800 3500 
L 1894 563 
L 2988 3500 
L 3597 3500 
L 2284 0 
L 1503 0 
L 191 3500 
z
" transform="scale(0.015625)"/>
      <path id="DejaVuSans-67" d="M 2906 1791 
Q 2906 2416 2648 2759 
Q 2391 3103 1925 3103 
Q 1463 3103 1205 2759 
Q 947 2416 947 1791 
Q 947 1169 1205 825 
Q 1463 481 1925 481 
Q 2391 481 2648 825 
Q 2906 1169 2906 1791 
z
M 3481 434 
Q 3481 -459 3084 -895 
Q 2688 -1331 1869 -1331 
Q 1566 -1331 1297 -1286 
Q 1028 -1241 775 -1147 
L 775 -588 
Q 1028 -725 1275 -790 
Q 1522 -856 1778 -856 
Q 2344 -856 2625 -561 
Q 2906 -266 2906 331 
L 2906 616 
Q 2728 306 2450 153 
Q 2172 0 1784 0 
Q 1141 0 747 490 
Q 353 981 353 1791 
Q 353 2603 747 3093 
Q 1141 3584 1784 3584 
Q 2172 3584 2450 3431 
Q 2728 3278 2906 2969 
L 2906 3500 
L 3481 3500 
L 3481 434 
z
" transform="scale(0.015625)"/>
     </defs>
     <use xlink:href="#DejaVuSans-47"/>
     <use xlink:href="#DejaVuSans-65" transform="translate(77.490234 0)"/>
     <use xlink:href="#DejaVuSans-6e" transform="translate(139.013672 0)"/>
     <use xlink:href="#DejaVuSans-65" transform="translate(202.392578 0)"/>
     <use xlink:href="#DejaVuSans-20" transform="translate(263.916016 0)"/>
     <use xlink:href="#DejaVuSans-46" transform="translate(295.703125 0)"/>
     <use xlink:href="#DejaVuSans-72" transform="translate(345.972656 0)"/>
     <use xlink:href="#DejaVuSans-65" transform="translate(384.835938 0)"/>
     <use xlink:href="#DejaVuSans-71" transform="translate(446.359375 0)"/>
     <use xlink:href="#DejaVuSans-75" transform="translate(509.835938 0)"/>
     <use xlink:href="#DejaVuSans-65" transform="translate(573.214844 0)"/>
     <use xlink:href="#DejaVuSans-6e" transform="translate(634.738281 0)"/>
     <use xlink:href="#DejaVuSans-63" transform="translate(698.117188 0)"/>
     <use xlink:href="#DejaVuSans-79" transform="translate(753.097656 0)"/>
     <use xlink:href="#DejaVuSans-20" transform="translate(812.277344 0)"/>
     <use xlink:href="#DejaVuSans-43" transform="translate(844.064453 0)"/>
     <use xlink:href="#DejaVuSans-6f" transform="translate(913.888672 0)"/>
     <use xlink:href="#DejaVuSans-76" transform="translate(975.070312 0)"/>
     <use xlink:href="#DejaVuSans-65" transform="translate(1034.25 0)"/>
     <use xlink:href="#DejaVuSans-72" transform="translate(1095.773438 0)"/>
     <use xlink:href="#DejaVuSans-61" transform="translate(1136.886719 0)"/>
     <use xlink:href="#DejaVuSans-67" transform="translate(1198.166016 0)"/>
     <use xlink:href="#DejaVuSans-65" transform="translate(1261.642578 0)"/>
    </g>
   </g>
  </g>
  <g id="axes_4">
   <g id="patch_20">
    <path d="M 510.8 173.93875 
L 709.2 173.93875 
L 709.2 26.88 
L 510.8 26.88 
z
" style="fill: #ffffff"/>
   </g>
   <g id="FillBetweenPolyCollection_1">
    <defs>
     <path id="m75be2db291" d="M 519.818182 -42.072722 
L 519.818182 -42.06125 
L 520.724532 -42.06125 
L 521.630882 -42.06125 
L 522.537232 -42.06125 
L 523.443582 -42.06125 
L 524.349931 -42.06125 
L 525.256281 -42.06125 
L 526.162631 -42.06125 
L 527.068981 -42.06125 
L 527.975331 -42.06125 
L 528.881681 -42.06125 
L 529.788031 -42.06125 
L 530.694381 -42.06125 
L 531.600731 -42.06125 
L 532.507081 -42.06125 
L 533.413431 -42.06125 
L 534.319781 -42.06125 
L 535.226131 -42.06125 
L 536.132481 -42.06125 
L 537.038831 -42.06125 
L 537.94518 -42.06125 
L 538.85153 -42.06125 
L 539.75788 -42.06125 
L 540.66423 -42.06125 
L 541.57058 -42.06125 
L 542.47693 -42.06125 
L 543.38328 -42.06125 
L 544.28963 -42.06125 
L 545.19598 -42.06125 
L 546.10233 -42.06125 
L 547.00868 -42.06125 
L 547.91503 -42.06125 
L 548.82138 -42.06125 
L 549.72773 -42.06125 
L 550.634079 -42.06125 
L 551.540429 -42.06125 
L 552.446779 -42.06125 
L 553.353129 -42.06125 
L 554.259479 -42.06125 
L 555.165829 -42.06125 
L 556.072179 -42.06125 
L 556.978529 -42.06125 
L 557.884879 -42.06125 
L 558.791229 -42.06125 
L 559.697579 -42.06125 
L 560.603929 -42.06125 
L 561.510279 -42.06125 
L 562.416629 -42.06125 
L 563.322979 -42.06125 
L 564.229328 -42.06125 
L 565.135678 -42.06125 
L 566.042028 -42.06125 
L 566.948378 -42.06125 
L 567.854728 -42.06125 
L 568.761078 -42.06125 
L 569.667428 -42.06125 
L 570.573778 -42.06125 
L 571.480128 -42.06125 
L 572.386478 -42.06125 
L 573.292828 -42.06125 
L 574.199178 -42.06125 
L 575.105528 -42.06125 
L 576.011878 -42.06125 
L 576.918228 -42.06125 
L 577.824577 -42.06125 
L 578.730927 -42.06125 
L 579.637277 -42.06125 
L 580.543627 -42.06125 
L 581.449977 -42.06125 
L 582.356327 -42.06125 
L 583.262677 -42.06125 
L 584.169027 -42.06125 
L 585.075377 -42.06125 
L 585.981727 -42.06125 
L 586.888077 -42.06125 
L 587.794427 -42.06125 
L 588.700777 -42.06125 
L 589.607127 -42.06125 
L 590.513476 -42.06125 
L 591.419826 -42.06125 
L 592.326176 -42.06125 
L 593.232526 -42.06125 
L 594.138876 -42.06125 
L 595.045226 -42.06125 
L 595.951576 -42.06125 
L 596.857926 -42.06125 
L 597.764276 -42.06125 
L 598.670626 -42.06125 
L 599.576976 -42.06125 
L 600.483326 -42.06125 
L 601.389676 -42.06125 
L 602.296026 -42.06125 
L 603.202376 -42.06125 
L 604.108725 -42.06125 
L 605.015075 -42.06125 
L 605.921425 -42.06125 
L 606.827775 -42.06125 
L 607.734125 -42.06125 
L 608.640475 -42.06125 
L 609.546825 -42.06125 
L 610.453175 -42.06125 
L 611.359525 -42.06125 
L 612.265875 -42.06125 
L 613.172225 -42.06125 
L 614.078575 -42.06125 
L 614.984925 -42.06125 
L 615.891275 -42.06125 
L 616.797624 -42.06125 
L 617.703974 -42.06125 
L 618.610324 -42.06125 
L 619.516674 -42.06125 
L 620.423024 -42.06125 
L 621.329374 -42.06125 
L 622.235724 -42.06125 
L 623.142074 -42.06125 
L 624.048424 -42.06125 
L 624.954774 -42.06125 
L 625.861124 -42.06125 
L 626.767474 -42.06125 
L 627.673824 -42.06125 
L 628.580174 -42.06125 
L 629.486524 -42.06125 
L 630.392873 -42.06125 
L 631.299223 -42.06125 
L 632.205573 -42.06125 
L 633.111923 -42.06125 
L 634.018273 -42.06125 
L 634.924623 -42.06125 
L 635.830973 -42.06125 
L 636.737323 -42.06125 
L 637.643673 -42.06125 
L 638.550023 -42.06125 
L 639.456373 -42.06125 
L 640.362723 -42.06125 
L 641.269073 -42.06125 
L 642.175423 -42.06125 
L 643.081772 -42.06125 
L 643.988122 -42.06125 
L 644.894472 -42.06125 
L 645.800822 -42.06125 
L 646.707172 -42.06125 
L 647.613522 -42.06125 
L 648.519872 -42.06125 
L 649.426222 -42.06125 
L 650.332572 -42.06125 
L 651.238922 -42.06125 
L 652.145272 -42.06125 
L 653.051622 -42.06125 
L 653.957972 -42.06125 
L 654.864322 -42.06125 
L 655.770672 -42.06125 
L 656.677021 -42.06125 
L 657.583371 -42.06125 
L 658.489721 -42.06125 
L 659.396071 -42.06125 
L 660.302421 -42.06125 
L 661.208771 -42.06125 
L 662.115121 -42.06125 
L 663.021471 -42.06125 
L 663.927821 -42.06125 
L 664.834171 -42.06125 
L 665.740521 -42.06125 
L 666.646871 -42.06125 
L 667.553221 -42.06125 
L 668.459571 -42.06125 
L 669.365921 -42.06125 
L 670.27227 -42.06125 
L 671.17862 -42.06125 
L 672.08497 -42.06125 
L 672.99132 -42.06125 
L 673.89767 -42.06125 
L 674.80402 -42.06125 
L 675.71037 -42.06125 
L 676.61672 -42.06125 
L 677.52307 -42.06125 
L 678.42942 -42.06125 
L 679.33577 -42.06125 
L 680.24212 -42.06125 
L 681.14847 -42.06125 
L 682.05482 -42.06125 
L 682.961169 -42.06125 
L 683.867519 -42.06125 
L 684.773869 -42.06125 
L 685.680219 -42.06125 
L 686.586569 -42.06125 
L 687.492919 -42.06125 
L 688.399269 -42.06125 
L 689.305619 -42.06125 
L 690.211969 -42.06125 
L 691.118319 -42.06125 
L 692.024669 -42.06125 
L 692.931019 -42.06125 
L 693.837369 -42.06125 
L 694.743719 -42.06125 
L 695.650069 -42.06125 
L 696.556418 -42.06125 
L 697.462768 -42.06125 
L 698.369118 -42.06125 
L 699.275468 -42.06125 
L 700.181818 -42.06125 
L 700.181818 -42.071728 
L 700.181818 -42.071728 
L 699.275468 -42.076717 
L 698.369118 -42.083756 
L 697.462768 -42.093532 
L 696.556418 -42.1069 
L 695.650069 -42.124899 
L 694.743719 -42.148759 
L 693.837369 -42.179904 
L 692.931019 -42.219931 
L 692.024669 -42.27058 
L 691.118319 -42.333681 
L 690.211969 -42.411076 
L 689.305619 -42.504525 
L 688.399269 -42.615587 
L 687.492919 -42.745497 
L 686.586569 -42.895029 
L 685.680219 -43.064371 
L 684.773869 -43.253012 
L 683.867519 -43.459671 
L 682.961169 -43.682268 
L 682.05482 -43.917944 
L 681.14847 -44.163167 
L 680.24212 -44.413887 
L 679.33577 -44.665768 
L 678.42942 -44.914475 
L 677.52307 -45.155982 
L 676.61672 -45.386906 
L 675.71037 -45.604804 
L 674.80402 -45.808419 
L 673.89767 -45.997841 
L 672.99132 -46.174552 
L 672.08497 -46.341343 
L 671.17862 -46.502102 
L 670.27227 -46.66148 
L 669.365921 -46.824464 
L 668.459571 -46.995896 
L 667.553221 -47.179986 
L 666.646871 -47.379867 
L 665.740521 -47.597247 
L 664.834171 -47.832185 
L 663.927821 -48.083035 
L 663.021471 -48.34654 
L 662.115121 -48.618093 
L 661.208771 -48.892114 
L 660.302421 -49.162514 
L 659.396071 -49.423194 
L 658.489721 -49.668538 
L 657.583371 -49.893856 
L 656.677021 -50.095742 
L 655.770672 -50.272346 
L 654.864322 -50.423543 
L 653.957972 -50.551024 
L 653.051622 -50.658307 
L 652.145272 -50.750703 
L 651.238922 -50.835226 
L 650.332572 -50.920474 
L 649.426222 -51.016451 
L 648.519872 -51.134335 
L 647.613522 -51.286161 
L 646.707172 -51.484412 
L 645.800822 -51.741513 
L 644.894472 -52.069235 
L 643.988122 -52.478033 
L 643.081772 -52.976376 
L 642.175423 -53.570109 
L 641.269073 -54.261936 
L 640.362723 -55.051073 
L 639.456373 -55.933131 
L 638.550023 -56.900275 
L 637.643673 -57.941655 
L 636.737323 -59.044081 
L 635.830973 -60.192922 
L 634.924623 -61.373106 
L 634.018273 -62.570171 
L 633.111923 -63.771232 
L 632.205573 -64.965792 
L 631.299223 -66.1463 
L 630.392873 -67.308415 
L 629.486524 -68.450935 
L 628.580174 -69.575411 
L 627.673824 -70.685485 
L 626.767474 -71.786008 
L 625.861124 -72.882035 
L 624.954774 -73.977804 
L 624.048424 -75.07579 
L 623.142074 -76.17595 
L 622.235724 -77.275254 
L 621.329374 -78.367554 
L 620.423024 -79.443853 
L 619.516674 -80.492965 
L 618.610324 -81.502548 
L 617.703974 -82.460417 
L 616.797624 -83.356035 
L 615.891275 -84.182033 
L 614.984925 -84.935584 
L 614.078575 -85.619482 
L 613.172225 -86.242757 
L 612.265875 -86.820733 
L 611.359525 -87.374476 
L 610.453175 -87.929653 
L 609.546825 -88.51491 
L 608.640475 -89.159913 
L 607.734125 -89.89329 
L 606.827775 -90.740688 
L 605.921425 -91.723171 
L 605.015075 -92.856143 
L 604.108725 -94.148905 
L 603.202376 -95.604856 
L 602.296026 -97.222282 
L 601.389676 -98.995592 
L 600.483326 -100.916775 
L 599.576976 -102.976878 
L 598.670626 -105.167275 
L 597.764276 -107.480559 
L 596.857926 -109.910964 
L 595.951576 -112.454285 
L 595.045226 -115.107383 
L 594.138876 -117.867372 
L 593.232526 -120.730695 
L 592.326176 -123.692252 
L 591.419826 -126.744736 
L 590.513476 -129.878319 
L 589.607127 -133.080696 
L 588.700777 -136.337496 
L 587.794427 -139.632928 
L 586.888077 -142.950551 
L 585.981727 -146.273966 
L 585.075377 -149.587273 
L 584.169027 -152.875156 
L 583.262677 -156.122519 
L 582.356327 -159.313657 
L 581.449977 -162.431052 
L 580.543627 -165.453917 
L 579.637277 -168.356716 
L 578.730927 -171.107863 
L 577.824577 -173.668862 
L 576.918228 -175.994056 
L 576.011878 -178.031155 
L 575.105528 -179.722582 
L 574.199178 -181.007615 
L 573.292828 -181.825195 
L 572.386478 -182.117202 
L 571.480128 -181.831924 
L 570.573778 -180.927427 
L 569.667428 -179.374548 
L 568.761078 -177.159234 
L 567.854728 -174.284048 
L 566.948378 -170.768721 
L 566.042028 -166.64973 
L 565.135678 -161.978956 
L 564.229328 -156.82157 
L 563.322979 -151.253317 
L 562.416629 -145.357427 
L 561.510279 -139.221363 
L 560.603929 -132.933626 
L 559.697579 -126.580766 
L 558.791229 -120.244751 
L 557.884879 -114.000775 
L 556.978529 -107.91556 
L 556.072179 -102.046165 
L 555.165829 -96.439292 
L 554.259479 -91.131074 
L 553.353129 -86.147285 
L 552.446779 -81.50392 
L 551.540429 -77.208092 
L 550.634079 -73.259153 
L 549.72773 -69.649971 
L 548.82138 -66.368287 
L 547.91503 -63.398046 
L 547.00868 -60.720669 
L 546.10233 -58.316163 
L 545.19598 -56.16406 
L 544.28963 -54.244146 
L 543.38328 -52.536974 
L 542.47693 -51.024189 
L 541.57058 -49.688674 
L 540.66423 -48.514576 
L 539.75788 -47.487231 
L 538.85153 -46.593048 
L 537.94518 -45.819368 
L 537.038831 -45.154335 
L 536.132481 -44.586793 
L 535.226131 -44.106216 
L 534.319781 -43.702674 
L 533.413431 -43.366821 
L 532.507081 -43.089917 
L 531.600731 -42.86385 
L 530.694381 -42.68117 
L 529.788031 -42.535111 
L 528.881681 -42.419608 
L 527.975331 -42.329296 
L 527.068981 -42.259497 
L 526.162631 -42.206191 
L 525.256281 -42.165976 
L 524.349931 -42.136011 
L 523.443582 -42.113968 
L 522.537232 -42.097961 
L 521.630882 -42.08649 
L 520.724532 -42.078379 
L 519.818182 -42.072722 
z
" style="stroke: #1f77b4"/>
    </defs>
    <g clip-path="url(#p16fa2ebf56)">
     <use xlink:href="#m75be2db291" x="0" y="216" style="fill: #1f77b4; fill-opacity: 0.25; stroke: #1f77b4"/>
    </g>
   </g>
   <g id="matplotlib.axis_7">
    <g id="xtick_4">
     <g id="line2d_38">
      <g>
       <use xlink:href="#m09281dbaa7" x="513.533495" y="173.93875" style="stroke: #000000; stroke-width: 0.8"/>
      </g>
     </g>
     <g id="text_29">
      <!-- 0 -->
      <g transform="translate(510.352245 188.537188) scale(0.1 -0.1)">
       <use xlink:href="#DejaVuSans-30"/>
      </g>
     </g>
    </g>
    <g id="xtick_5">
     <g id="line2d_39">
      <g>
       <use xlink:href="#m09281dbaa7" x="565.527822" y="173.93875" style="stroke: #000000; stroke-width: 0.8"/>
      </g>
     </g>
     <g id="text_30">
      <!-- 10 -->
      <g transform="translate(559.165322 188.537188) scale(0.1 -0.1)">
       <use xlink:href="#DejaVuSans-31"/>
       <use xlink:href="#DejaVuSans-30" transform="translate(63.623047 0)"/>
      </g>
     </g>
    </g>
    <g id="xtick_6">
     <g id="line2d_40">
      <g>
       <use xlink:href="#m09281dbaa7" x="617.522149" y="173.93875" style="stroke: #000000; stroke-width: 0.8"/>
      </g>
     </g>
     <g id="text_31">
      <!-- 20 -->
      <g transform="translate(611.159649 188.537188) scale(0.1 -0.1)">
       <use xlink:href="#DejaVuSans-32"/>
       <use xlink:href="#DejaVuSans-30" transform="translate(63.623047 0)"/>
      </g>
     </g>
    </g>
    <g id="xtick_7">
     <g id="line2d_41">
      <g>
       <use xlink:href="#m09281dbaa7" x="669.516476" y="173.93875" style="stroke: #000000; stroke-width: 0.8"/>
      </g>
     </g>
     <g id="text_32">
      <!-- 30 -->
      <g transform="translate(663.153976 188.537188) scale(0.1 -0.1)">
       <defs>
        <path id="DejaVuSans-33" d="M 2597 2516 
Q 3050 2419 3304 2112 
Q 3559 1806 3559 1356 
Q 3559 666 3084 287 
Q 2609 -91 1734 -91 
Q 1441 -91 1130 -33 
Q 819 25 488 141 
L 488 750 
Q 750 597 1062 519 
Q 1375 441 1716 441 
Q 2309 441 2620 675 
Q 2931 909 2931 1356 
Q 2931 1769 2642 2001 
Q 2353 2234 1838 2234 
L 1294 2234 
L 1294 2753 
L 1863 2753 
Q 2328 2753 2575 2939 
Q 2822 3125 2822 3475 
Q 2822 3834 2567 4026 
Q 2313 4219 1838 4219 
Q 1578 4219 1281 4162 
Q 984 4106 628 3988 
L 628 4550 
Q 988 4650 1302 4700 
Q 1616 4750 1894 4750 
Q 2613 4750 3031 4423 
Q 3450 4097 3450 3541 
Q 3450 3153 3228 2886 
Q 3006 2619 2597 2516 
z
" transform="scale(0.015625)"/>
       </defs>
       <use xlink:href="#DejaVuSans-33"/>
       <use xlink:href="#DejaVuSans-30" transform="translate(63.623047 0)"/>
      </g>
     </g>
    </g>
    <g id="text_33">
     <!-- gf.count_skew -->
     <g transform="translate(574.748438 202.215313) scale(0.1 -0.1)">
      <defs>
       <path id="DejaVuSans-66" d="M 2375 4863 
L 2375 4384 
L 1825 4384 
Q 1516 4384 1395 4259 
Q 1275 4134 1275 3809 
L 1275 3500 
L 2222 3500 
L 2222 3053 
L 1275 3053 
L 1275 0 
L 697 0 
L 697 3053 
L 147 3053 
L 147 3500 
L 697 3500 
L 697 3744 
Q 697 4328 969 4595 
Q 1241 4863 1831 4863 
L 2375 4863 
z
" transform="scale(0.015625)"/>
       <path id="DejaVuSans-5f" d="M 3263 -1063 
L 3263 -1509 
L -63 -1509 
L -63 -1063 
L 3263 -1063 
z
" transform="scale(0.015625)"/>
       <path id="DejaVuSans-6b" d="M 581 4863 
L 1159 4863 
L 1159 1991 
L 2875 3500 
L 3609 3500 
L 1753 1863 
L 3688 0 
L 2938 0 
L 1159 1709 
L 1159 0 
L 581 0 
L 581 4863 
z
" transform="scale(0.015625)"/>
       <path id="DejaVuSans-77" d="M 269 3500 
L 844 3500 
L 1563 769 
L 2278 3500 
L 2956 3500 
L 3675 769 
L 4391 3500 
L 4966 3500 
L 4050 0 
L 3372 0 
L 2619 2869 
L 1863 0 
L 1184 0 
L 269 3500 
z
" transform="scale(0.015625)"/>
      </defs>
      <use xlink:href="#DejaVuSans-67"/>
      <use xlink:href="#DejaVuSans-66" transform="translate(63.476562 0)"/>
      <use xlink:href="#DejaVuSans-2e" transform="translate(91.431641 0)"/>
      <use xlink:href="#DejaVuSans-63" transform="translate(123.21875 0)"/>
      <use xlink:href="#DejaVuSans-6f" transform="translate(178.199219 0)"/>
      <use xlink:href="#DejaVuSans-75" transform="translate(239.380859 0)"/>
      <use xlink:href="#DejaVuSans-6e" transform="translate(302.759766 0)"/>
      <use xlink:href="#DejaVuSans-74" transform="translate(366.138672 0)"/>
      <use xlink:href="#DejaVuSans-5f" transform="translate(405.347656 0)"/>
      <use xlink:href="#DejaVuSans-73" transform="translate(455.347656 0)"/>
      <use xlink:href="#DejaVuSans-6b" transform="translate(507.447266 0)"/>
      <use xlink:href="#DejaVuSans-65" transform="translate(561.732422 0)"/>
      <use xlink:href="#DejaVuSans-77" transform="translate(623.255859 0)"/>
     </g>
    </g>
   </g>
   <g id="matplotlib.axis_8">
    <g id="ytick_17">
     <g id="line2d_42">
      <g>
       <use xlink:href="#m1979ea3e10" x="510.8" y="173.93875" style="stroke: #000000; stroke-width: 0.8"/>
      </g>
     </g>
     <g id="text_34">
      <!-- 0.00 -->
      <g transform="translate(481.534375 177.737969) scale(0.1 -0.1)">
       <use xlink:href="#DejaVuSans-30"/>
       <use xlink:href="#DejaVuSans-2e" transform="translate(63.623047 0)"/>
       <use xlink:href="#DejaVuSans-30" transform="translate(95.410156 0)"/>
       <use xlink:href="#DejaVuSans-30" transform="translate(159.033203 0)"/>
      </g>
     </g>
    </g>
    <g id="ytick_18">
     <g id="line2d_43">
      <g>
       <use xlink:href="#m1979ea3e10" x="510.8" y="147.751549" style="stroke: #000000; stroke-width: 0.8"/>
      </g>
     </g>
     <g id="text_35">
      <!-- 0.02 -->
      <g transform="translate(481.534375 151.550768) scale(0.1 -0.1)">
       <use xlink:href="#DejaVuSans-30"/>
       <use xlink:href="#DejaVuSans-2e" transform="translate(63.623047 0)"/>
       <use xlink:href="#DejaVuSans-30" transform="translate(95.410156 0)"/>
       <use xlink:href="#DejaVuSans-32" transform="translate(159.033203 0)"/>
      </g>
     </g>
    </g>
    <g id="ytick_19">
     <g id="line2d_44">
      <g>
       <use xlink:href="#m1979ea3e10" x="510.8" y="121.564348" style="stroke: #000000; stroke-width: 0.8"/>
      </g>
     </g>
     <g id="text_36">
      <!-- 0.04 -->
      <g transform="translate(481.534375 125.363567) scale(0.1 -0.1)">
       <use xlink:href="#DejaVuSans-30"/>
       <use xlink:href="#DejaVuSans-2e" transform="translate(63.623047 0)"/>
       <use xlink:href="#DejaVuSans-30" transform="translate(95.410156 0)"/>
       <use xlink:href="#DejaVuSans-34" transform="translate(159.033203 0)"/>
      </g>
     </g>
    </g>
    <g id="ytick_20">
     <g id="line2d_45">
      <g>
       <use xlink:href="#m1979ea3e10" x="510.8" y="95.377148" style="stroke: #000000; stroke-width: 0.8"/>
      </g>
     </g>
     <g id="text_37">
      <!-- 0.06 -->
      <g transform="translate(481.534375 99.176366) scale(0.1 -0.1)">
       <use xlink:href="#DejaVuSans-30"/>
       <use xlink:href="#DejaVuSans-2e" transform="translate(63.623047 0)"/>
       <use xlink:href="#DejaVuSans-30" transform="translate(95.410156 0)"/>
       <use xlink:href="#DejaVuSans-36" transform="translate(159.033203 0)"/>
      </g>
     </g>
    </g>
    <g id="ytick_21">
     <g id="line2d_46">
      <g>
       <use xlink:href="#m1979ea3e10" x="510.8" y="69.189947" style="stroke: #000000; stroke-width: 0.8"/>
      </g>
     </g>
     <g id="text_38">
      <!-- 0.08 -->
      <g transform="translate(481.534375 72.989165) scale(0.1 -0.1)">
       <use xlink:href="#DejaVuSans-30"/>
       <use xlink:href="#DejaVuSans-2e" transform="translate(63.623047 0)"/>
       <use xlink:href="#DejaVuSans-30" transform="translate(95.410156 0)"/>
       <use xlink:href="#DejaVuSans-38" transform="translate(159.033203 0)"/>
      </g>
     </g>
    </g>
    <g id="ytick_22">
     <g id="line2d_47">
      <g>
       <use xlink:href="#m1979ea3e10" x="510.8" y="43.002746" style="stroke: #000000; stroke-width: 0.8"/>
      </g>
     </g>
     <g id="text_39">
      <!-- 0.10 -->
      <g transform="translate(481.534375 46.801965) scale(0.1 -0.1)">
       <use xlink:href="#DejaVuSans-30"/>
       <use xlink:href="#DejaVuSans-2e" transform="translate(63.623047 0)"/>
       <use xlink:href="#DejaVuSans-31" transform="translate(95.410156 0)"/>
       <use xlink:href="#DejaVuSans-30" transform="translate(159.033203 0)"/>
      </g>
     </g>
    </g>
    <g id="text_40">
     <!-- Density -->
     <g transform="translate(475.454688 119.417969) rotate(-90) scale(0.1 -0.1)">
      <defs>
       <path id="DejaVuSans-44" d="M 1259 4147 
L 1259 519 
L 2022 519 
Q 2988 519 3436 956 
Q 3884 1394 3884 2338 
Q 3884 3275 3436 3711 
Q 2988 4147 2022 4147 
L 1259 4147 
z
M 628 4666 
L 1925 4666 
Q 3281 4666 3915 4102 
Q 4550 3538 4550 2338 
Q 4550 1131 3912 565 
Q 3275 0 1925 0 
L 628 0 
L 628 4666 
z
" transform="scale(0.015625)"/>
      </defs>
      <use xlink:href="#DejaVuSans-44"/>
      <use xlink:href="#DejaVuSans-65" transform="translate(77.001953 0)"/>
      <use xlink:href="#DejaVuSans-6e" transform="translate(138.525391 0)"/>
      <use xlink:href="#DejaVuSans-73" transform="translate(201.904297 0)"/>
      <use xlink:href="#DejaVuSans-69" transform="translate(254.003906 0)"/>
      <use xlink:href="#DejaVuSans-74" transform="translate(281.787109 0)"/>
      <use xlink:href="#DejaVuSans-79" transform="translate(320.996094 0)"/>
     </g>
    </g>
   </g>
   <g id="patch_21">
    <path d="M 510.8 173.93875 
L 510.8 26.88 
" style="fill: none; stroke: #000000; stroke-width: 0.8; stroke-linejoin: miter; stroke-linecap: square"/>
   </g>
   <g id="patch_22">
    <path d="M 709.2 173.93875 
L 709.2 26.88 
" style="fill: none; stroke: #000000; stroke-width: 0.8; stroke-linejoin: miter; stroke-linecap: square"/>
   </g>
   <g id="patch_23">
    <path d="M 510.8 173.93875 
L 709.2 173.93875 
" style="fill: none; stroke: #000000; stroke-width: 0.8; stroke-linejoin: miter; stroke-linecap: square"/>
   </g>
   <g id="patch_24">
    <path d="M 510.8 26.88 
L 709.2 26.88 
" style="fill: none; stroke: #000000; stroke-width: 0.8; stroke-linejoin: miter; stroke-linecap: square"/>
   </g>
   <g id="text_41">
    <!-- Gene Frequency Skewness -->
    <g transform="translate(529.945 20.88) scale(0.12 -0.12)">
     <use xlink:href="#DejaVuSans-47"/>
     <use xlink:href="#DejaVuSans-65" transform="translate(77.490234 0)"/>
     <use xlink:href="#DejaVuSans-6e" transform="translate(139.013672 0)"/>
     <use xlink:href="#DejaVuSans-65" transform="translate(202.392578 0)"/>
     <use xlink:href="#DejaVuSans-20" transform="translate(263.916016 0)"/>
     <use xlink:href="#DejaVuSans-46" transform="translate(295.703125 0)"/>
     <use xlink:href="#DejaVuSans-72" transform="translate(345.972656 0)"/>
     <use xlink:href="#DejaVuSans-65" transform="translate(384.835938 0)"/>
     <use xlink:href="#DejaVuSans-71" transform="translate(446.359375 0)"/>
     <use xlink:href="#DejaVuSans-75" transform="translate(509.835938 0)"/>
     <use xlink:href="#DejaVuSans-65" transform="translate(573.214844 0)"/>
     <use xlink:href="#DejaVuSans-6e" transform="translate(634.738281 0)"/>
     <use xlink:href="#DejaVuSans-63" transform="translate(698.117188 0)"/>
     <use xlink:href="#DejaVuSans-79" transform="translate(753.097656 0)"/>
     <use xlink:href="#DejaVuSans-20" transform="translate(812.277344 0)"/>
     <use xlink:href="#DejaVuSans-53" transform="translate(844.064453 0)"/>
     <use xlink:href="#DejaVuSans-6b" transform="translate(907.541016 0)"/>
     <use xlink:href="#DejaVuSans-65" transform="translate(961.826172 0)"/>
     <use xlink:href="#DejaVuSans-77" transform="translate(1023.349609 0)"/>
     <use xlink:href="#DejaVuSans-6e" transform="translate(1105.136719 0)"/>
     <use xlink:href="#DejaVuSans-65" transform="translate(1168.515625 0)"/>
     <use xlink:href="#DejaVuSans-73" transform="translate(1230.039062 0)"/>
     <use xlink:href="#DejaVuSans-73" transform="translate(1282.138672 0)"/>
    </g>
   </g>
   <g id="legend_1">
    <g id="text_42">
     <!-- dataset -->
     <g transform="translate(666.392188 39.478438) scale(0.1 -0.1)">
      <use xlink:href="#DejaVuSans-64"/>
      <use xlink:href="#DejaVuSans-61" transform="translate(63.476562 0)"/>
      <use xlink:href="#DejaVuSans-74" transform="translate(124.755859 0)"/>
      <use xlink:href="#DejaVuSans-61" transform="translate(163.964844 0)"/>
      <use xlink:href="#DejaVuSans-73" transform="translate(225.244141 0)"/>
      <use xlink:href="#DejaVuSans-65" transform="translate(277.34375 0)"/>
      <use xlink:href="#DejaVuSans-74" transform="translate(338.867188 0)"/>
     </g>
    </g>
    <g id="patch_25">
     <path d="M 667.341406 55.508125 
L 677.341406 55.508125 
L 677.341406 46.558125 
L 667.341406 46.558125 
z
" style="fill: #1f77b4; fill-opacity: 0.25; stroke: #1f77b4; stroke-linejoin: miter"/>
    </g>
    <g id="text_43">
     <!-- HRA -->
     <g transform="translate(682.341406 54.458125) scale(0.1 -0.1)">
      <use xlink:href="#DejaVuSans-48"/>
      <use xlink:href="#DejaVuSans-52" transform="translate(75.195312 0)"/>
      <use xlink:href="#DejaVuSans-41" transform="translate(140.677734 0)"/>
     </g>
    </g>
   </g>
  </g>
 </g>
 <defs>
  <clipPath id="p9f497d0d3a">
   <rect x="50.87" y="26.88" width="99.2" height="147.05875"/>
  </clipPath>
  <clipPath id="p8fa7da8662">
   <rect x="204.18" y="26.88" width="99.2" height="147.05875"/>
  </clipPath>
  <clipPath id="pd80cbacd34">
   <rect x="357.49" y="26.88" width="99.2" height="147.05875"/>
  </clipPath>
  <clipPath id="p16fa2ebf56">
   <rect x="510.8" y="26.88" width="198.4" height="147.05875"/>
  </clipPath>
 </defs>
</svg>
