<?xml version="1.0" encoding="utf-8" standalone="no"?>
<!DOCTYPE svg PUBLIC "-//W3C//DTD SVG 1.1//EN"
  "http://www.w3.org/Graphics/SVG/1.1/DTD/svg11.dtd">
<svg xmlns:xlink="http://www.w3.org/1999/xlink" width="720pt" height="216pt" viewBox="0 0 720 216" xmlns="http://www.w3.org/2000/svg" version="1.1">
 <metadata>
  <rdf:RDF xmlns:dc="http://purl.org/dc/elements/1.1/" xmlns:cc="http://creativecommons.org/ns#" xmlns:rdf="http://www.w3.org/1999/02/22-rdf-syntax-ns#">
   <cc:Work>
    <dc:type rdf:resource="http://purl.org/dc/dcmitype/StillImage"/>
    <dc:date>2026-05-17T09:20:43.861984</dc:date>
    <dc:format>image/svg+xml</dc:format>
    <dc:creator>
     <cc:Agent>
      <dc:title>Matplotlib v3.10.9, https://matplotlib.org/</dc:title>
     </cc:Agent>
    </dc:creator>
   </cc:Work>
  </rdf:RDF>
 </metadata>
 <defs>
  <style type="text/css">*{stroke-linejoin: round; stroke-linecap: butt}</style>
 </defs>
 <g id="figure_1">
  <g id="patch_1">
   <path d="M 0 216 
L 720 216 
L 720 0 
L 0 0 
z
" style="fill: #ffffff"/>
  </g>
  <g id="axes_1">
   <g id="patch_2">
    <path d="M 50.87 173.93875 
L 150.124 173.93875 
L 150.124 26.88 
L 50.87 26.88 
z
" style="fill: #ffffff"/>
   </g>
   <g id="matplotlib.axis_1">
    <g id="xtick_1">
     <g id="line2d_1">
      <defs>
       <path id="md6fe937fc8" d="M 0 0 
L 0 3.5 
" style="stroke: #000000; stroke-width: 0.8"/>
      </defs>
      <g>
       <use xlink:href="#md6fe937fc8" x="100.497" y="173.93875" style="stroke: #000000; stroke-width: 0.8"/>
      </g>
     </g>
     <g id="text_1">
      <!-- KDC -->
      <g transform="translate(89.876688 188.537188) scale(0.1 -0.1)">
       <defs>
        <path id="DejaVuSans-4b" d="M 628 4666 
L 1259 4666 
L 1259 2694 
L 3353 4666 
L 4166 4666 
L 1850 2491 
L 4331 0 
L 3500 0 
L 1259 2247 
L 1259 0 
L 628 0 
L 628 4666 
z
" transform="scale(0.015625)"/>
        <path id="DejaVuSans-44" d="M 1259 4147 
L 1259 519 
L 2022 519 
Q 2988 519 3436 956 
Q 3884 1394 3884 2338 
Q 3884 3275 3436 3711 
Q 2988 4147 2022 4147 
L 1259 4147 
z
M 628 4666 
L 1925 4666 
Q 3281 4666 3915 4102 
Q 4550 3538 4550 2338 
Q 4550 1131 3912 565 
Q 3275 0 1925 0 
L 628 0 
L 628 4666 
z
" transform="scale(0.015625)"/>
        <path id="DejaVuSans-43" d="M 4122 4306 
L 4122 3641 
Q 3803 3938 3442 4084 
Q 3081 4231 2675 4231 
Q 1875 4231 1450 3742 
Q 1025 3253 1025 2328 
Q 1025 1406 1450 917 
Q 1875 428 2675 428 
Q 3081 428 3442 575 
Q 3803 722 4122 1019 
L 4122 359 
Q 3791 134 3420 21 
Q 3050 -91 2638 -91 
Q 1578 -91 968 557 
Q 359 1206 359 2328 
Q 359 3453 968 4101 
Q 1578 4750 2638 4750 
Q 3056 4750 3426 4639 
Q 3797 4528 4122 4306 
z
" transform="scale(0.015625)"/>
       </defs>
       <use xlink:href="#DejaVuSans-4b"/>
       <use xlink:href="#DejaVuSans-44" transform="translate(65.576172 0)"/>
       <use xlink:href="#DejaVuSans-43" transform="translate(142.578125 0)"/>
      </g>
     </g>
    </g>
    <g id="text_2">
     <!-- dataset -->
     <g transform="translate(81.593094 202.215313) scale(0.1 -0.1)">
      <defs>
       <path id="DejaVuSans-64" d="M 2906 2969 
L 2906 4863 
L 3481 4863 
L 3481 0 
L 2906 0 
L 2906 525 
Q 2725 213 2448 61 
Q 2172 -91 1784 -91 
Q 1150 -91 751 415 
Q 353 922 353 1747 
Q 353 2572 751 3078 
Q 1150 3584 1784 3584 
Q 2172 3584 2448 3432 
Q 2725 3281 2906 2969 
z
M 947 1747 
Q 947 1113 1208 752 
Q 1469 391 1925 391 
Q 2381 391 2643 752 
Q 2906 1113 2906 1747 
Q 2906 2381 2643 2742 
Q 2381 3103 1925 3103 
Q 1469 3103 1208 2742 
Q 947 2381 947 1747 
z
" transform="scale(0.015625)"/>
       <path id="DejaVuSans-61" d="M 2194 1759 
Q 1497 1759 1228 1600 
Q 959 1441 959 1056 
Q 959 750 1161 570 
Q 1363 391 1709 391 
Q 2188 391 2477 730 
Q 2766 1069 2766 1631 
L 2766 1759 
L 2194 1759 
z
M 3341 1997 
L 3341 0 
L 2766 0 
L 2766 531 
Q 2569 213 2275 61 
Q 1981 -91 1556 -91 
Q 1019 -91 701 211 
Q 384 513 384 1019 
Q 384 1609 779 1909 
Q 1175 2209 1959 2209 
L 2766 2209 
L 2766 2266 
Q 2766 2663 2505 2880 
Q 2244 3097 1772 3097 
Q 1472 3097 1187 3025 
Q 903 2953 641 2809 
L 641 3341 
Q 956 3463 1253 3523 
Q 1550 3584 1831 3584 
Q 2591 3584 2966 3190 
Q 3341 2797 3341 1997 
z
" transform="scale(0.015625)"/>
       <path id="DejaVuSans-74" d="M 1172 4494 
L 1172 3500 
L 2356 3500 
L 2356 3053 
L 1172 3053 
L 1172 1153 
Q 1172 725 1289 603 
Q 1406 481 1766 481 
L 2356 481 
L 2356 0 
L 1766 0 
Q 1100 0 847 248 
Q 594 497 594 1153 
L 594 3053 
L 172 3053 
L 172 3500 
L 594 3500 
L 594 4494 
L 1172 4494 
z
" transform="scale(0.015625)"/>
       <path id="DejaVuSans-73" d="M 2834 3397 
L 2834 2853 
Q 2591 2978 2328 3040 
Q 2066 3103 1784 3103 
Q 1356 3103 1142 2972 
Q 928 2841 928 2578 
Q 928 2378 1081 2264 
Q 1234 2150 1697 2047 
L 1894 2003 
Q 2506 1872 2764 1633 
Q 3022 1394 3022 966 
Q 3022 478 2636 193 
Q 2250 -91 1575 -91 
Q 1294 -91 989 -36 
Q 684 19 347 128 
L 347 722 
Q 666 556 975 473 
Q 1284 391 1588 391 
Q 1994 391 2212 530 
Q 2431 669 2431 922 
Q 2431 1156 2273 1281 
Q 2116 1406 1581 1522 
L 1381 1569 
Q 847 1681 609 1914 
Q 372 2147 372 2553 
Q 372 3047 722 3315 
Q 1072 3584 1716 3584 
Q 2034 3584 2315 3537 
Q 2597 3491 2834 3397 
z
" transform="scale(0.015625)"/>
       <path id="DejaVuSans-65" d="M 3597 1894 
L 3597 1613 
L 953 1613 
Q 991 1019 1311 708 
Q 1631 397 2203 397 
Q 2534 397 2845 478 
Q 3156 559 3463 722 
L 3463 178 
Q 3153 47 2828 -22 
Q 2503 -91 2169 -91 
Q 1331 -91 842 396 
Q 353 884 353 1716 
Q 353 2575 817 3079 
Q 1281 3584 2069 3584 
Q 2775 3584 3186 3129 
Q 3597 2675 3597 1894 
z
M 3022 2063 
Q 3016 2534 2758 2815 
Q 2500 3097 2075 3097 
Q 1594 3097 1305 2825 
Q 1016 2553 972 2059 
L 3022 2063 
z
" transform="scale(0.015625)"/>
      </defs>
      <use xlink:href="#DejaVuSans-64"/>
      <use xlink:href="#DejaVuSans-61" transform="translate(63.476562 0)"/>
      <use xlink:href="#DejaVuSans-74" transform="translate(124.755859 0)"/>
      <use xlink:href="#DejaVuSans-61" transform="translate(163.964844 0)"/>
      <use xlink:href="#DejaVuSans-73" transform="translate(225.244141 0)"/>
      <use xlink:href="#DejaVuSans-65" transform="translate(277.34375 0)"/>
      <use xlink:href="#DejaVuSans-74" transform="translate(338.867188 0)"/>
     </g>
    </g>
   </g>
   <g id="matplotlib.axis_2">
    <g id="ytick_1">
     <g id="line2d_2">
      <defs>
       <path id="ma871b3ddf0" d="M 0 0 
L -3.5 0 
" style="stroke: #000000; stroke-width: 0.8"/>
      </defs>
      <g>
       <use xlink:href="#ma871b3ddf0" x="50.87" y="170.395796" style="stroke: #000000; stroke-width: 0.8"/>
      </g>
     </g>
     <g id="text_3">
      <!-- 0 -->
      <g transform="translate(37.5075 174.195015) scale(0.1 -0.1)">
       <defs>
        <path id="DejaVuSans-30" d="M 2034 4250 
Q 1547 4250 1301 3770 
Q 1056 3291 1056 2328 
Q 1056 1369 1301 889 
Q 1547 409 2034 409 
Q 2525 409 2770 889 
Q 3016 1369 3016 2328 
Q 3016 3291 2770 3770 
Q 2525 4250 2034 4250 
z
M 2034 4750 
Q 2819 4750 3233 4129 
Q 3647 3509 3647 2328 
Q 3647 1150 3233 529 
Q 2819 -91 2034 -91 
Q 1250 -91 836 529 
Q 422 1150 422 2328 
Q 422 3509 836 4129 
Q 1250 4750 2034 4750 
z
" transform="scale(0.015625)"/>
       </defs>
       <use xlink:href="#DejaVuSans-30"/>
      </g>
     </g>
    </g>
    <g id="ytick_2">
     <g id="line2d_3">
      <g>
       <use xlink:href="#ma871b3ddf0" x="50.87" y="135.489851" style="stroke: #000000; stroke-width: 0.8"/>
      </g>
     </g>
     <g id="text_4">
      <!-- 100 -->
      <g transform="translate(24.7825 139.289069) scale(0.1 -0.1)">
       <defs>
        <path id="DejaVuSans-31" d="M 794 531 
L 1825 531 
L 1825 4091 
L 703 3866 
L 703 4441 
L 1819 4666 
L 2450 4666 
L 2450 531 
L 3481 531 
L 3481 0 
L 794 0 
L 794 531 
z
" transform="scale(0.015625)"/>
       </defs>
       <use xlink:href="#DejaVuSans-31"/>
       <use xlink:href="#DejaVuSans-30" transform="translate(63.623047 0)"/>
       <use xlink:href="#DejaVuSans-30" transform="translate(127.246094 0)"/>
      </g>
     </g>
    </g>
    <g id="ytick_3">
     <g id="line2d_4">
      <g>
       <use xlink:href="#ma871b3ddf0" x="50.87" y="100.583905" style="stroke: #000000; stroke-width: 0.8"/>
      </g>
     </g>
     <g id="text_5">
      <!-- 200 -->
      <g transform="translate(24.7825 104.383123) scale(0.1 -0.1)">
       <defs>
        <path id="DejaVuSans-32" d="M 1228 531 
L 3431 531 
L 3431 0 
L 469 0 
L 469 531 
Q 828 903 1448 1529 
Q 2069 2156 2228 2338 
Q 2531 2678 2651 2914 
Q 2772 3150 2772 3378 
Q 2772 3750 2511 3984 
Q 2250 4219 1831 4219 
Q 1534 4219 1204 4116 
Q 875 4013 500 3803 
L 500 4441 
Q 881 4594 1212 4672 
Q 1544 4750 1819 4750 
Q 2544 4750 2975 4387 
Q 3406 4025 3406 3419 
Q 3406 3131 3298 2873 
Q 3191 2616 2906 2266 
Q 2828 2175 2409 1742 
Q 1991 1309 1228 531 
z
" transform="scale(0.015625)"/>
       </defs>
       <use xlink:href="#DejaVuSans-32"/>
       <use xlink:href="#DejaVuSans-30" transform="translate(63.623047 0)"/>
       <use xlink:href="#DejaVuSans-30" transform="translate(127.246094 0)"/>
      </g>
     </g>
    </g>
    <g id="ytick_4">
     <g id="line2d_5">
      <g>
       <use xlink:href="#ma871b3ddf0" x="50.87" y="65.677959" style="stroke: #000000; stroke-width: 0.8"/>
      </g>
     </g>
     <g id="text_6">
      <!-- 300 -->
      <g transform="translate(24.7825 69.477178) scale(0.1 -0.1)">
       <defs>
        <path id="DejaVuSans-33" d="M 2597 2516 
Q 3050 2419 3304 2112 
Q 3559 1806 3559 1356 
Q 3559 666 3084 287 
Q 2609 -91 1734 -91 
Q 1441 -91 1130 -33 
Q 819 25 488 141 
L 488 750 
Q 750 597 1062 519 
Q 1375 441 1716 441 
Q 2309 441 2620 675 
Q 2931 909 2931 1356 
Q 2931 1769 2642 2001 
Q 2353 2234 1838 2234 
L 1294 2234 
L 1294 2753 
L 1863 2753 
Q 2328 2753 2575 2939 
Q 2822 3125 2822 3475 
Q 2822 3834 2567 4026 
Q 2313 4219 1838 4219 
Q 1578 4219 1281 4162 
Q 984 4106 628 3988 
L 628 4550 
Q 988 4650 1302 4700 
Q 1616 4750 1894 4750 
Q 2613 4750 3031 4423 
Q 3450 4097 3450 3541 
Q 3450 3153 3228 2886 
Q 3006 2619 2597 2516 
z
" transform="scale(0.015625)"/>
       </defs>
       <use xlink:href="#DejaVuSans-33"/>
       <use xlink:href="#DejaVuSans-30" transform="translate(63.623047 0)"/>
       <use xlink:href="#DejaVuSans-30" transform="translate(127.246094 0)"/>
      </g>
     </g>
    </g>
    <g id="ytick_5">
     <g id="line2d_6">
      <g>
       <use xlink:href="#ma871b3ddf0" x="50.87" y="30.772013" style="stroke: #000000; stroke-width: 0.8"/>
      </g>
     </g>
     <g id="text_7">
      <!-- 400 -->
      <g transform="translate(24.7825 34.571232) scale(0.1 -0.1)">
       <defs>
        <path id="DejaVuSans-34" d="M 2419 4116 
L 825 1625 
L 2419 1625 
L 2419 4116 
z
M 2253 4666 
L 3047 4666 
L 3047 1625 
L 3713 1625 
L 3713 1100 
L 3047 1100 
L 3047 0 
L 2419 0 
L 2419 1100 
L 313 1100 
L 313 1709 
L 2253 4666 
z
" transform="scale(0.015625)"/>
       </defs>
       <use xlink:href="#DejaVuSans-34"/>
       <use xlink:href="#DejaVuSans-30" transform="translate(63.623047 0)"/>
       <use xlink:href="#DejaVuSans-30" transform="translate(127.246094 0)"/>
      </g>
     </g>
    </g>
    <g id="text_8">
     <!-- Count -->
     <g transform="translate(18.702813 115.257812) rotate(-90) scale(0.1 -0.1)">
      <defs>
       <path id="DejaVuSans-6f" d="M 1959 3097 
Q 1497 3097 1228 2736 
Q 959 2375 959 1747 
Q 959 1119 1226 758 
Q 1494 397 1959 397 
Q 2419 397 2687 759 
Q 2956 1122 2956 1747 
Q 2956 2369 2687 2733 
Q 2419 3097 1959 3097 
z
M 1959 3584 
Q 2709 3584 3137 3096 
Q 3566 2609 3566 1747 
Q 3566 888 3137 398 
Q 2709 -91 1959 -91 
Q 1206 -91 779 398 
Q 353 888 353 1747 
Q 353 2609 779 3096 
Q 1206 3584 1959 3584 
z
" transform="scale(0.015625)"/>
       <path id="DejaVuSans-75" d="M 544 1381 
L 544 3500 
L 1119 3500 
L 1119 1403 
Q 1119 906 1312 657 
Q 1506 409 1894 409 
Q 2359 409 2629 706 
Q 2900 1003 2900 1516 
L 2900 3500 
L 3475 3500 
L 3475 0 
L 2900 0 
L 2900 538 
Q 2691 219 2414 64 
Q 2138 -91 1772 -91 
Q 1169 -91 856 284 
Q 544 659 544 1381 
z
M 1991 3584 
L 1991 3584 
z
" transform="scale(0.015625)"/>
       <path id="DejaVuSans-6e" d="M 3513 2113 
L 3513 0 
L 2938 0 
L 2938 2094 
Q 2938 2591 2744 2837 
Q 2550 3084 2163 3084 
Q 1697 3084 1428 2787 
Q 1159 2491 1159 1978 
L 1159 0 
L 581 0 
L 581 3500 
L 1159 3500 
L 1159 2956 
Q 1366 3272 1645 3428 
Q 1925 3584 2291 3584 
Q 2894 3584 3203 3211 
Q 3513 2838 3513 2113 
z
" transform="scale(0.015625)"/>
      </defs>
      <use xlink:href="#DejaVuSans-43"/>
      <use xlink:href="#DejaVuSans-6f" transform="translate(69.824219 0)"/>
      <use xlink:href="#DejaVuSans-75" transform="translate(131.005859 0)"/>
      <use xlink:href="#DejaVuSans-6e" transform="translate(194.384766 0)"/>
      <use xlink:href="#DejaVuSans-74" transform="translate(257.763672 0)"/>
     </g>
    </g>
   </g>
   <g id="patch_3">
    <path d="M 60.7954 152.942824 
L 140.1986 152.942824 
L 140.1986 122.92371 
L 60.7954 122.92371 
L 60.7954 152.942824 
z
" clip-path="url(#p926993cc67)" style="fill: #3274a1; stroke: #3f3f3f; stroke-linejoin: miter"/>
   </g>
   <g id="line2d_7">
    <path d="M 100.497 152.942824 
L 100.497 167.254261 
" clip-path="url(#p926993cc67)" style="fill: none; stroke: #3f3f3f"/>
   </g>
   <g id="line2d_8">
    <path d="M 100.497 122.92371 
L 100.497 78.942218 
" clip-path="url(#p926993cc67)" style="fill: none; stroke: #3f3f3f"/>
   </g>
   <g id="line2d_9">
    <path d="M 80.6462 167.254261 
L 120.3478 167.254261 
" clip-path="url(#p926993cc67)" style="fill: none; stroke: #3f3f3f; stroke-linecap: square"/>
   </g>
   <g id="line2d_10">
    <path d="M 80.6462 78.942218 
L 120.3478 78.942218 
" clip-path="url(#p926993cc67)" style="fill: none; stroke: #3f3f3f; stroke-linecap: square"/>
   </g>
   <g id="line2d_11">
    <defs>
     <path id="m71a33f3d86" d="M 0 3 
C 0.795609 3 1.55874 2.683901 2.12132 2.12132 
C 2.683901 1.55874 3 0.795609 3 0 
C 3 -0.795609 2.683901 -1.55874 2.12132 -2.12132 
C 1.55874 -2.683901 0.795609 -3 0 -3 
C -0.795609 -3 -1.55874 -2.683901 -2.12132 -2.12132 
C -2.683901 -1.55874 -3 -0.795609 -3 0 
C -3 0.795609 -2.683901 1.55874 -2.12132 2.12132 
C -1.55874 2.683901 -0.795609 3 0 3 
z
" style="stroke: #3f3f3f"/>
    </defs>
    <g clip-path="url(#p926993cc67)">
     <use xlink:href="#m71a33f3d86" x="100.497" y="61.838305" style="fill-opacity: 0; stroke: #3f3f3f"/>
     <use xlink:href="#m71a33f3d86" x="100.497" y="74.404445" style="fill-opacity: 0; stroke: #3f3f3f"/>
     <use xlink:href="#m71a33f3d86" x="100.497" y="74.753505" style="fill-opacity: 0; stroke: #3f3f3f"/>
     <use xlink:href="#m71a33f3d86" x="100.497" y="77.196921" style="fill-opacity: 0; stroke: #3f3f3f"/>
     <use xlink:href="#m71a33f3d86" x="100.497" y="50.319343" style="fill-opacity: 0; stroke: #3f3f3f"/>
     <use xlink:href="#m71a33f3d86" x="100.497" y="33.564489" style="fill-opacity: 0; stroke: #3f3f3f"/>
     <use xlink:href="#m71a33f3d86" x="100.497" y="50.668402" style="fill-opacity: 0; stroke: #3f3f3f"/>
    </g>
   </g>
   <g id="line2d_12">
    <path d="M 60.7954 140.027624 
L 140.1986 140.027624 
" clip-path="url(#p926993cc67)" style="fill: none; stroke: #3f3f3f"/>
   </g>
   <g id="patch_4">
    <path d="M 50.87 173.93875 
L 50.87 26.88 
" style="fill: none; stroke: #000000; stroke-width: 0.8; stroke-linejoin: miter; stroke-linecap: square"/>
   </g>
   <g id="patch_5">
    <path d="M 150.124 173.93875 
L 150.124 26.88 
" style="fill: none; stroke: #000000; stroke-width: 0.8; stroke-linejoin: miter; stroke-linecap: square"/>
   </g>
   <g id="patch_6">
    <path d="M 50.87 173.93875 
L 150.124 173.93875 
" style="fill: none; stroke: #000000; stroke-width: 0.8; stroke-linejoin: miter; stroke-linecap: square"/>
   </g>
   <g id="patch_7">
    <path d="M 50.87 26.88 
L 150.124 26.88 
" style="fill: none; stroke: #000000; stroke-width: 0.8; stroke-linejoin: miter; stroke-linecap: square"/>
   </g>
   <g id="text_9">
    <!-- Root node count -->
    <g transform="translate(51.187313 20.88) scale(0.12 -0.12)">
     <defs>
      <path id="DejaVuSans-52" d="M 2841 2188 
Q 3044 2119 3236 1894 
Q 3428 1669 3622 1275 
L 4263 0 
L 3584 0 
L 2988 1197 
Q 2756 1666 2539 1819 
Q 2322 1972 1947 1972 
L 1259 1972 
L 1259 0 
L 628 0 
L 628 4666 
L 2053 4666 
Q 2853 4666 3247 4331 
Q 3641 3997 3641 3322 
Q 3641 2881 3436 2590 
Q 3231 2300 2841 2188 
z
M 1259 4147 
L 1259 2491 
L 2053 2491 
Q 2509 2491 2742 2702 
Q 2975 2913 2975 3322 
Q 2975 3731 2742 3939 
Q 2509 4147 2053 4147 
L 1259 4147 
z
" transform="scale(0.015625)"/>
      <path id="DejaVuSans-20" transform="scale(0.015625)"/>
      <path id="DejaVuSans-63" d="M 3122 3366 
L 3122 2828 
Q 2878 2963 2633 3030 
Q 2388 3097 2138 3097 
Q 1578 3097 1268 2742 
Q 959 2388 959 1747 
Q 959 1106 1268 751 
Q 1578 397 2138 397 
Q 2388 397 2633 464 
Q 2878 531 3122 666 
L 3122 134 
Q 2881 22 2623 -34 
Q 2366 -91 2075 -91 
Q 1284 -91 818 406 
Q 353 903 353 1747 
Q 353 2603 823 3093 
Q 1294 3584 2113 3584 
Q 2378 3584 2631 3529 
Q 2884 3475 3122 3366 
z
" transform="scale(0.015625)"/>
     </defs>
     <use xlink:href="#DejaVuSans-52"/>
     <use xlink:href="#DejaVuSans-6f" transform="translate(64.982422 0)"/>
     <use xlink:href="#DejaVuSans-6f" transform="translate(126.164062 0)"/>
     <use xlink:href="#DejaVuSans-74" transform="translate(187.345703 0)"/>
     <use xlink:href="#DejaVuSans-20" transform="translate(226.554688 0)"/>
     <use xlink:href="#DejaVuSans-6e" transform="translate(258.341797 0)"/>
     <use xlink:href="#DejaVuSans-6f" transform="translate(321.720703 0)"/>
     <use xlink:href="#DejaVuSans-64" transform="translate(382.902344 0)"/>
     <use xlink:href="#DejaVuSans-65" transform="translate(446.378906 0)"/>
     <use xlink:href="#DejaVuSans-20" transform="translate(507.902344 0)"/>
     <use xlink:href="#DejaVuSans-63" transform="translate(539.689453 0)"/>
     <use xlink:href="#DejaVuSans-6f" transform="translate(594.669922 0)"/>
     <use xlink:href="#DejaVuSans-75" transform="translate(655.851562 0)"/>
     <use xlink:href="#DejaVuSans-6e" transform="translate(719.230469 0)"/>
     <use xlink:href="#DejaVuSans-74" transform="translate(782.609375 0)"/>
    </g>
   </g>
  </g>
  <g id="axes_2">
   <g id="patch_8">
    <path d="M 204.144 173.93875 
L 303.398 173.93875 
L 303.398 26.88 
L 204.144 26.88 
z
" style="fill: #ffffff"/>
   </g>
   <g id="matplotlib.axis_3">
    <g id="xtick_2">
     <g id="line2d_13">
      <g>
       <use xlink:href="#md6fe937fc8" x="253.771" y="173.93875" style="stroke: #000000; stroke-width: 0.8"/>
      </g>
     </g>
     <g id="text_10">
      <!-- KDC -->
      <g transform="translate(243.150688 188.537188) scale(0.1 -0.1)">
       <use xlink:href="#DejaVuSans-4b"/>
       <use xlink:href="#DejaVuSans-44" transform="translate(65.576172 0)"/>
       <use xlink:href="#DejaVuSans-43" transform="translate(142.578125 0)"/>
      </g>
     </g>
    </g>
    <g id="text_11">
     <!-- dataset -->
     <g transform="translate(234.867094 202.215313) scale(0.1 -0.1)">
      <use xlink:href="#DejaVuSans-64"/>
      <use xlink:href="#DejaVuSans-61" transform="translate(63.476562 0)"/>
      <use xlink:href="#DejaVuSans-74" transform="translate(124.755859 0)"/>
      <use xlink:href="#DejaVuSans-61" transform="translate(163.964844 0)"/>
      <use xlink:href="#DejaVuSans-73" transform="translate(225.244141 0)"/>
      <use xlink:href="#DejaVuSans-65" transform="translate(277.34375 0)"/>
      <use xlink:href="#DejaVuSans-74" transform="translate(338.867188 0)"/>
     </g>
    </g>
   </g>
   <g id="matplotlib.axis_4">
    <g id="ytick_6">
     <g id="line2d_14">
      <g>
       <use xlink:href="#ma871b3ddf0" x="204.144" y="171.288245" style="stroke: #000000; stroke-width: 0.8"/>
      </g>
     </g>
     <g id="text_12">
      <!-- 3.50 -->
      <g transform="translate(174.878375 175.087464) scale(0.1 -0.1)">
       <defs>
        <path id="DejaVuSans-2e" d="M 684 794 
L 1344 794 
L 1344 0 
L 684 0 
L 684 794 
z
" transform="scale(0.015625)"/>
        <path id="DejaVuSans-35" d="M 691 4666 
L 3169 4666 
L 3169 4134 
L 1269 4134 
L 1269 2991 
Q 1406 3038 1543 3061 
Q 1681 3084 1819 3084 
Q 2600 3084 3056 2656 
Q 3513 2228 3513 1497 
Q 3513 744 3044 326 
Q 2575 -91 1722 -91 
Q 1428 -91 1123 -41 
Q 819 9 494 109 
L 494 744 
Q 775 591 1075 516 
Q 1375 441 1709 441 
Q 2250 441 2565 725 
Q 2881 1009 2881 1497 
Q 2881 1984 2565 2268 
Q 2250 2553 1709 2553 
Q 1456 2553 1204 2497 
Q 953 2441 691 2322 
L 691 4666 
z
" transform="scale(0.015625)"/>
       </defs>
       <use xlink:href="#DejaVuSans-33"/>
       <use xlink:href="#DejaVuSans-2e" transform="translate(63.623047 0)"/>
       <use xlink:href="#DejaVuSans-35" transform="translate(95.410156 0)"/>
       <use xlink:href="#DejaVuSans-30" transform="translate(159.033203 0)"/>
      </g>
     </g>
    </g>
    <g id="ytick_7">
     <g id="line2d_15">
      <g>
       <use xlink:href="#ma871b3ddf0" x="204.144" y="149.157547" style="stroke: #000000; stroke-width: 0.8"/>
      </g>
     </g>
     <g id="text_13">
      <!-- 3.75 -->
      <g transform="translate(174.878375 152.956766) scale(0.1 -0.1)">
       <defs>
        <path id="DejaVuSans-37" d="M 525 4666 
L 3525 4666 
L 3525 4397 
L 1831 0 
L 1172 0 
L 2766 4134 
L 525 4134 
L 525 4666 
z
" transform="scale(0.015625)"/>
       </defs>
       <use xlink:href="#DejaVuSans-33"/>
       <use xlink:href="#DejaVuSans-2e" transform="translate(63.623047 0)"/>
       <use xlink:href="#DejaVuSans-37" transform="translate(95.410156 0)"/>
       <use xlink:href="#DejaVuSans-35" transform="translate(159.033203 0)"/>
      </g>
     </g>
    </g>
    <g id="ytick_8">
     <g id="line2d_16">
      <g>
       <use xlink:href="#ma871b3ddf0" x="204.144" y="127.02685" style="stroke: #000000; stroke-width: 0.8"/>
      </g>
     </g>
     <g id="text_14">
      <!-- 4.00 -->
      <g transform="translate(174.878375 130.826069) scale(0.1 -0.1)">
       <use xlink:href="#DejaVuSans-34"/>
       <use xlink:href="#DejaVuSans-2e" transform="translate(63.623047 0)"/>
       <use xlink:href="#DejaVuSans-30" transform="translate(95.410156 0)"/>
       <use xlink:href="#DejaVuSans-30" transform="translate(159.033203 0)"/>
      </g>
     </g>
    </g>
    <g id="ytick_9">
     <g id="line2d_17">
      <g>
       <use xlink:href="#ma871b3ddf0" x="204.144" y="104.896153" style="stroke: #000000; stroke-width: 0.8"/>
      </g>
     </g>
     <g id="text_15">
      <!-- 4.25 -->
      <g transform="translate(174.878375 108.695371) scale(0.1 -0.1)">
       <use xlink:href="#DejaVuSans-34"/>
       <use xlink:href="#DejaVuSans-2e" transform="translate(63.623047 0)"/>
       <use xlink:href="#DejaVuSans-32" transform="translate(95.410156 0)"/>
       <use xlink:href="#DejaVuSans-35" transform="translate(159.033203 0)"/>
      </g>
     </g>
    </g>
    <g id="ytick_10">
     <g id="line2d_18">
      <g>
       <use xlink:href="#ma871b3ddf0" x="204.144" y="82.765455" style="stroke: #000000; stroke-width: 0.8"/>
      </g>
     </g>
     <g id="text_16">
      <!-- 4.50 -->
      <g transform="translate(174.878375 86.564674) scale(0.1 -0.1)">
       <use xlink:href="#DejaVuSans-34"/>
       <use xlink:href="#DejaVuSans-2e" transform="translate(63.623047 0)"/>
       <use xlink:href="#DejaVuSans-35" transform="translate(95.410156 0)"/>
       <use xlink:href="#DejaVuSans-30" transform="translate(159.033203 0)"/>
      </g>
     </g>
    </g>
    <g id="ytick_11">
     <g id="line2d_19">
      <g>
       <use xlink:href="#ma871b3ddf0" x="204.144" y="60.634758" style="stroke: #000000; stroke-width: 0.8"/>
      </g>
     </g>
     <g id="text_17">
      <!-- 4.75 -->
      <g transform="translate(174.878375 64.433976) scale(0.1 -0.1)">
       <use xlink:href="#DejaVuSans-34"/>
       <use xlink:href="#DejaVuSans-2e" transform="translate(63.623047 0)"/>
       <use xlink:href="#DejaVuSans-37" transform="translate(95.410156 0)"/>
       <use xlink:href="#DejaVuSans-35" transform="translate(159.033203 0)"/>
      </g>
     </g>
    </g>
    <g id="ytick_12">
     <g id="line2d_20">
      <g>
       <use xlink:href="#ma871b3ddf0" x="204.144" y="38.50406" style="stroke: #000000; stroke-width: 0.8"/>
      </g>
     </g>
     <g id="text_18">
      <!-- 5.00 -->
      <g transform="translate(174.878375 42.303279) scale(0.1 -0.1)">
       <use xlink:href="#DejaVuSans-35"/>
       <use xlink:href="#DejaVuSans-2e" transform="translate(63.623047 0)"/>
       <use xlink:href="#DejaVuSans-30" transform="translate(95.410156 0)"/>
       <use xlink:href="#DejaVuSans-30" transform="translate(159.033203 0)"/>
      </g>
     </g>
    </g>
    <g id="text_19">
     <!-- Time(Seconds) -->
     <g transform="translate(168.798687 137.551562) rotate(-90) scale(0.1 -0.1)">
      <defs>
       <path id="DejaVuSans-54" d="M -19 4666 
L 3928 4666 
L 3928 4134 
L 2272 4134 
L 2272 0 
L 1638 0 
L 1638 4134 
L -19 4134 
L -19 4666 
z
" transform="scale(0.015625)"/>
       <path id="DejaVuSans-69" d="M 603 3500 
L 1178 3500 
L 1178 0 
L 603 0 
L 603 3500 
z
M 603 4863 
L 1178 4863 
L 1178 4134 
L 603 4134 
L 603 4863 
z
" transform="scale(0.015625)"/>
       <path id="DejaVuSans-6d" d="M 3328 2828 
Q 3544 3216 3844 3400 
Q 4144 3584 4550 3584 
Q 5097 3584 5394 3201 
Q 5691 2819 5691 2113 
L 5691 0 
L 5113 0 
L 5113 2094 
Q 5113 2597 4934 2840 
Q 4756 3084 4391 3084 
Q 3944 3084 3684 2787 
Q 3425 2491 3425 1978 
L 3425 0 
L 2847 0 
L 2847 2094 
Q 2847 2600 2669 2842 
Q 2491 3084 2119 3084 
Q 1678 3084 1418 2786 
Q 1159 2488 1159 1978 
L 1159 0 
L 581 0 
L 581 3500 
L 1159 3500 
L 1159 2956 
Q 1356 3278 1631 3431 
Q 1906 3584 2284 3584 
Q 2666 3584 2933 3390 
Q 3200 3197 3328 2828 
z
" transform="scale(0.015625)"/>
       <path id="DejaVuSans-28" d="M 1984 4856 
Q 1566 4138 1362 3434 
Q 1159 2731 1159 2009 
Q 1159 1288 1364 580 
Q 1569 -128 1984 -844 
L 1484 -844 
Q 1016 -109 783 600 
Q 550 1309 550 2009 
Q 550 2706 781 3412 
Q 1013 4119 1484 4856 
L 1984 4856 
z
" transform="scale(0.015625)"/>
       <path id="DejaVuSans-53" d="M 3425 4513 
L 3425 3897 
Q 3066 4069 2747 4153 
Q 2428 4238 2131 4238 
Q 1616 4238 1336 4038 
Q 1056 3838 1056 3469 
Q 1056 3159 1242 3001 
Q 1428 2844 1947 2747 
L 2328 2669 
Q 3034 2534 3370 2195 
Q 3706 1856 3706 1288 
Q 3706 609 3251 259 
Q 2797 -91 1919 -91 
Q 1588 -91 1214 -16 
Q 841 59 441 206 
L 441 856 
Q 825 641 1194 531 
Q 1563 422 1919 422 
Q 2459 422 2753 634 
Q 3047 847 3047 1241 
Q 3047 1584 2836 1778 
Q 2625 1972 2144 2069 
L 1759 2144 
Q 1053 2284 737 2584 
Q 422 2884 422 3419 
Q 422 4038 858 4394 
Q 1294 4750 2059 4750 
Q 2388 4750 2728 4690 
Q 3069 4631 3425 4513 
z
" transform="scale(0.015625)"/>
       <path id="DejaVuSans-29" d="M 513 4856 
L 1013 4856 
Q 1481 4119 1714 3412 
Q 1947 2706 1947 2009 
Q 1947 1309 1714 600 
Q 1481 -109 1013 -844 
L 513 -844 
Q 928 -128 1133 580 
Q 1338 1288 1338 2009 
Q 1338 2731 1133 3434 
Q 928 4138 513 4856 
z
" transform="scale(0.015625)"/>
      </defs>
      <use xlink:href="#DejaVuSans-54"/>
      <use xlink:href="#DejaVuSans-69" transform="translate(57.958984 0)"/>
      <use xlink:href="#DejaVuSans-6d" transform="translate(85.742188 0)"/>
      <use xlink:href="#DejaVuSans-65" transform="translate(183.154297 0)"/>
      <use xlink:href="#DejaVuSans-28" transform="translate(244.677734 0)"/>
      <use xlink:href="#DejaVuSans-53" transform="translate(283.691406 0)"/>
      <use xlink:href="#DejaVuSans-65" transform="translate(347.167969 0)"/>
      <use xlink:href="#DejaVuSans-63" transform="translate(408.691406 0)"/>
      <use xlink:href="#DejaVuSans-6f" transform="translate(463.671875 0)"/>
      <use xlink:href="#DejaVuSans-6e" transform="translate(524.853516 0)"/>
      <use xlink:href="#DejaVuSans-64" transform="translate(588.232422 0)"/>
      <use xlink:href="#DejaVuSans-73" transform="translate(651.708984 0)"/>
      <use xlink:href="#DejaVuSans-29" transform="translate(703.808594 0)"/>
     </g>
    </g>
   </g>
   <g id="patch_9">
    <path d="M 214.0694 145.49536 
L 293.4726 145.49536 
L 293.4726 126.843608 
L 214.0694 126.843608 
L 214.0694 145.49536 
z
" clip-path="url(#p4f2e420403)" style="fill: #3274a1; stroke: #3f3f3f; stroke-linejoin: miter"/>
   </g>
   <g id="line2d_21">
    <path d="M 253.771 145.49536 
L 253.771 167.254261 
" clip-path="url(#p4f2e420403)" style="fill: none; stroke: #3f3f3f"/>
   </g>
   <g id="line2d_22">
    <path d="M 253.771 126.843608 
L 253.771 99.693668 
" clip-path="url(#p4f2e420403)" style="fill: none; stroke: #3f3f3f"/>
   </g>
   <g id="line2d_23">
    <path d="M 233.9202 167.254261 
L 273.6218 167.254261 
" clip-path="url(#p4f2e420403)" style="fill: none; stroke: #3f3f3f; stroke-linecap: square"/>
   </g>
   <g id="line2d_24">
    <path d="M 233.9202 99.693668 
L 273.6218 99.693668 
" clip-path="url(#p4f2e420403)" style="fill: none; stroke: #3f3f3f; stroke-linecap: square"/>
   </g>
   <g id="line2d_25">
    <g clip-path="url(#p4f2e420403)">
     <use xlink:href="#m71a33f3d86" x="253.771" y="98.634936" style="fill-opacity: 0; stroke: #3f3f3f"/>
     <use xlink:href="#m71a33f3d86" x="253.771" y="96.969822" style="fill-opacity: 0; stroke: #3f3f3f"/>
     <use xlink:href="#m71a33f3d86" x="253.771" y="96.02794" style="fill-opacity: 0; stroke: #3f3f3f"/>
     <use xlink:href="#m71a33f3d86" x="253.771" y="62.616783" style="fill-opacity: 0; stroke: #3f3f3f"/>
     <use xlink:href="#m71a33f3d86" x="253.771" y="97.158376" style="fill-opacity: 0; stroke: #3f3f3f"/>
     <use xlink:href="#m71a33f3d86" x="253.771" y="91.478753" style="fill-opacity: 0; stroke: #3f3f3f"/>
     <use xlink:href="#m71a33f3d86" x="253.771" y="46.876546" style="fill-opacity: 0; stroke: #3f3f3f"/>
     <use xlink:href="#m71a33f3d86" x="253.771" y="81.684592" style="fill-opacity: 0; stroke: #3f3f3f"/>
     <use xlink:href="#m71a33f3d86" x="253.771" y="89.158571" style="fill-opacity: 0; stroke: #3f3f3f"/>
     <use xlink:href="#m71a33f3d86" x="253.771" y="98.557036" style="fill-opacity: 0; stroke: #3f3f3f"/>
     <use xlink:href="#m71a33f3d86" x="253.771" y="33.564489" style="fill-opacity: 0; stroke: #3f3f3f"/>
     <use xlink:href="#m71a33f3d86" x="253.771" y="95.955351" style="fill-opacity: 0; stroke: #3f3f3f"/>
     <use xlink:href="#m71a33f3d86" x="253.771" y="98.121503" style="fill-opacity: 0; stroke: #3f3f3f"/>
    </g>
   </g>
   <g id="line2d_26">
    <path d="M 214.0694 136.183647 
L 293.4726 136.183647 
" clip-path="url(#p4f2e420403)" style="fill: none; stroke: #3f3f3f"/>
   </g>
   <g id="patch_10">
    <path d="M 204.144 173.93875 
L 204.144 26.88 
" style="fill: none; stroke: #000000; stroke-width: 0.8; stroke-linejoin: miter; stroke-linecap: square"/>
   </g>
   <g id="patch_11">
    <path d="M 303.398 173.93875 
L 303.398 26.88 
" style="fill: none; stroke: #000000; stroke-width: 0.8; stroke-linejoin: miter; stroke-linecap: square"/>
   </g>
   <g id="patch_12">
    <path d="M 204.144 173.93875 
L 303.398 173.93875 
" style="fill: none; stroke: #000000; stroke-width: 0.8; stroke-linejoin: miter; stroke-linecap: square"/>
   </g>
   <g id="patch_13">
    <path d="M 204.144 26.88 
L 303.398 26.88 
" style="fill: none; stroke: #000000; stroke-width: 0.8; stroke-linejoin: miter; stroke-linecap: square"/>
   </g>
   <g id="text_20">
    <!-- Run time -->
    <g transform="translate(226.80475 20.88) scale(0.12 -0.12)">
     <use xlink:href="#DejaVuSans-52"/>
     <use xlink:href="#DejaVuSans-75" transform="translate(64.982422 0)"/>
     <use xlink:href="#DejaVuSans-6e" transform="translate(128.361328 0)"/>
     <use xlink:href="#DejaVuSans-20" transform="translate(191.740234 0)"/>
     <use xlink:href="#DejaVuSans-74" transform="translate(223.527344 0)"/>
     <use xlink:href="#DejaVuSans-69" transform="translate(262.736328 0)"/>
     <use xlink:href="#DejaVuSans-6d" transform="translate(290.519531 0)"/>
     <use xlink:href="#DejaVuSans-65" transform="translate(387.931641 0)"/>
    </g>
   </g>
  </g>
  <g id="axes_3">
   <g id="patch_14">
    <path d="M 357.418 173.93875 
L 456.672 173.93875 
L 456.672 26.88 
L 357.418 26.88 
z
" style="fill: #ffffff"/>
   </g>
   <g id="matplotlib.axis_5">
    <g id="xtick_3">
     <g id="line2d_27">
      <g>
       <use xlink:href="#md6fe937fc8" x="407.045" y="173.93875" style="stroke: #000000; stroke-width: 0.8"/>
      </g>
     </g>
     <g id="text_21">
      <!-- KDC -->
      <g transform="translate(396.424687 188.537188) scale(0.1 -0.1)">
       <use xlink:href="#DejaVuSans-4b"/>
       <use xlink:href="#DejaVuSans-44" transform="translate(65.576172 0)"/>
       <use xlink:href="#DejaVuSans-43" transform="translate(142.578125 0)"/>
      </g>
     </g>
    </g>
    <g id="text_22">
     <!-- dataset -->
     <g transform="translate(388.141094 202.215313) scale(0.1 -0.1)">
      <use xlink:href="#DejaVuSans-64"/>
      <use xlink:href="#DejaVuSans-61" transform="translate(63.476562 0)"/>
      <use xlink:href="#DejaVuSans-74" transform="translate(124.755859 0)"/>
      <use xlink:href="#DejaVuSans-61" transform="translate(163.964844 0)"/>
      <use xlink:href="#DejaVuSans-73" transform="translate(225.244141 0)"/>
      <use xlink:href="#DejaVuSans-65" transform="translate(277.34375 0)"/>
      <use xlink:href="#DejaVuSans-74" transform="translate(338.867188 0)"/>
     </g>
    </g>
   </g>
   <g id="matplotlib.axis_6">
    <g id="ytick_13">
     <g id="line2d_28">
      <g>
       <use xlink:href="#ma871b3ddf0" x="357.418" y="137.814399" style="stroke: #000000; stroke-width: 0.8"/>
      </g>
     </g>
     <g id="text_23">
      <!-- 5 -->
      <g transform="translate(344.0555 141.613618) scale(0.1 -0.1)">
       <use xlink:href="#DejaVuSans-35"/>
      </g>
     </g>
    </g>
    <g id="ytick_14">
     <g id="line2d_29">
      <g>
       <use xlink:href="#ma871b3ddf0" x="357.418" y="98.769489" style="stroke: #000000; stroke-width: 0.8"/>
      </g>
     </g>
     <g id="text_24">
      <!-- 10 -->
      <g transform="translate(337.693 102.568708) scale(0.1 -0.1)">
       <use xlink:href="#DejaVuSans-31"/>
       <use xlink:href="#DejaVuSans-30" transform="translate(63.623047 0)"/>
      </g>
     </g>
    </g>
    <g id="ytick_15">
     <g id="line2d_30">
      <g>
       <use xlink:href="#ma871b3ddf0" x="357.418" y="59.724579" style="stroke: #000000; stroke-width: 0.8"/>
      </g>
     </g>
     <g id="text_25">
      <!-- 15 -->
      <g transform="translate(337.693 63.523797) scale(0.1 -0.1)">
       <use xlink:href="#DejaVuSans-31"/>
       <use xlink:href="#DejaVuSans-35" transform="translate(63.623047 0)"/>
      </g>
     </g>
    </g>
    <g id="text_26">
     <!-- Percent -->
     <g transform="translate(331.613313 119.217187) rotate(-90) scale(0.1 -0.1)">
      <defs>
       <path id="DejaVuSans-50" d="M 1259 4147 
L 1259 2394 
L 2053 2394 
Q 2494 2394 2734 2622 
Q 2975 2850 2975 3272 
Q 2975 3691 2734 3919 
Q 2494 4147 2053 4147 
L 1259 4147 
z
M 628 4666 
L 2053 4666 
Q 2838 4666 3239 4311 
Q 3641 3956 3641 3272 
Q 3641 2581 3239 2228 
Q 2838 1875 2053 1875 
L 1259 1875 
L 1259 0 
L 628 0 
L 628 4666 
z
" transform="scale(0.015625)"/>
       <path id="DejaVuSans-72" d="M 2631 2963 
Q 2534 3019 2420 3045 
Q 2306 3072 2169 3072 
Q 1681 3072 1420 2755 
Q 1159 2438 1159 1844 
L 1159 0 
L 581 0 
L 581 3500 
L 1159 3500 
L 1159 2956 
Q 1341 3275 1631 3429 
Q 1922 3584 2338 3584 
Q 2397 3584 2469 3576 
Q 2541 3569 2628 3553 
L 2631 2963 
z
" transform="scale(0.015625)"/>
      </defs>
      <use xlink:href="#DejaVuSans-50"/>
      <use xlink:href="#DejaVuSans-65" transform="translate(56.677734 0)"/>
      <use xlink:href="#DejaVuSans-72" transform="translate(118.201172 0)"/>
      <use xlink:href="#DejaVuSans-63" transform="translate(157.064453 0)"/>
      <use xlink:href="#DejaVuSans-65" transform="translate(212.044922 0)"/>
      <use xlink:href="#DejaVuSans-6e" transform="translate(273.568359 0)"/>
      <use xlink:href="#DejaVuSans-74" transform="translate(336.947266 0)"/>
     </g>
    </g>
   </g>
   <g id="patch_15">
    <path d="M 367.3434 150.38686 
L 446.7466 150.38686 
L 446.7466 125.749522 
L 367.3434 125.749522 
L 367.3434 150.38686 
z
" clip-path="url(#p767168799d)" style="fill: #3274a1; stroke: #3f3f3f; stroke-linejoin: miter"/>
   </g>
   <g id="line2d_31">
    <path d="M 407.045 150.38686 
L 407.045 167.254261 
" clip-path="url(#p767168799d)" style="fill: none; stroke: #3f3f3f"/>
   </g>
   <g id="line2d_32">
    <path d="M 407.045 125.749522 
L 407.045 89.4768 
" clip-path="url(#p767168799d)" style="fill: none; stroke: #3f3f3f"/>
   </g>
   <g id="line2d_33">
    <path d="M 387.1942 167.254261 
L 426.8958 167.254261 
" clip-path="url(#p767168799d)" style="fill: none; stroke: #3f3f3f; stroke-linecap: square"/>
   </g>
   <g id="line2d_34">
    <path d="M 387.1942 89.4768 
L 426.8958 89.4768 
" clip-path="url(#p767168799d)" style="fill: none; stroke: #3f3f3f; stroke-linecap: square"/>
   </g>
   <g id="line2d_35">
    <g clip-path="url(#p767168799d)">
     <use xlink:href="#m71a33f3d86" x="407.045" y="77.529058" style="fill-opacity: 0; stroke: #3f3f3f"/>
     <use xlink:href="#m71a33f3d86" x="407.045" y="86.353207" style="fill-opacity: 0; stroke: #3f3f3f"/>
     <use xlink:href="#m71a33f3d86" x="407.045" y="88.149273" style="fill-opacity: 0; stroke: #3f3f3f"/>
     <use xlink:href="#m71a33f3d86" x="407.045" y="69.173447" style="fill-opacity: 0; stroke: #3f3f3f"/>
     <use xlink:href="#m71a33f3d86" x="407.045" y="85.416129" style="fill-opacity: 0; stroke: #3f3f3f"/>
     <use xlink:href="#m71a33f3d86" x="407.045" y="70.344794" style="fill-opacity: 0; stroke: #3f3f3f"/>
     <use xlink:href="#m71a33f3d86" x="407.045" y="80.262201" style="fill-opacity: 0; stroke: #3f3f3f"/>
     <use xlink:href="#m71a33f3d86" x="407.045" y="73.936926" style="fill-opacity: 0; stroke: #3f3f3f"/>
     <use xlink:href="#m71a33f3d86" x="407.045" y="78.309956" style="fill-opacity: 0; stroke: #3f3f3f"/>
     <use xlink:href="#m71a33f3d86" x="407.045" y="87.368375" style="fill-opacity: 0; stroke: #3f3f3f"/>
     <use xlink:href="#m71a33f3d86" x="407.045" y="33.564489" style="fill-opacity: 0; stroke: #3f3f3f"/>
     <use xlink:href="#m71a33f3d86" x="407.045" y="87.134106" style="fill-opacity: 0; stroke: #3f3f3f"/>
     <use xlink:href="#m71a33f3d86" x="407.045" y="68.626818" style="fill-opacity: 0; stroke: #3f3f3f"/>
     <use xlink:href="#m71a33f3d86" x="407.045" y="72.375129" style="fill-opacity: 0; stroke: #3f3f3f"/>
     <use xlink:href="#m71a33f3d86" x="407.045" y="54.336381" style="fill-opacity: 0; stroke: #3f3f3f"/>
     <use xlink:href="#m71a33f3d86" x="407.045" y="60.115028" style="fill-opacity: 0; stroke: #3f3f3f"/>
    </g>
   </g>
   <g id="line2d_36">
    <path d="M 367.3434 140.547543 
L 446.7466 140.547543 
" clip-path="url(#p767168799d)" style="fill: none; stroke: #3f3f3f"/>
   </g>
   <g id="patch_16">
    <path d="M 357.418 173.93875 
L 357.418 26.88 
" style="fill: none; stroke: #000000; stroke-width: 0.8; stroke-linejoin: miter; stroke-linecap: square"/>
   </g>
   <g id="patch_17">
    <path d="M 456.672 173.93875 
L 456.672 26.88 
" style="fill: none; stroke: #000000; stroke-width: 0.8; stroke-linejoin: miter; stroke-linecap: square"/>
   </g>
   <g id="patch_18">
    <path d="M 357.418 173.93875 
L 456.672 173.93875 
" style="fill: none; stroke: #000000; stroke-width: 0.8; stroke-linejoin: miter; stroke-linecap: square"/>
   </g>
   <g id="patch_19">
    <path d="M 357.418 26.88 
L 456.672 26.88 
" style="fill: none; stroke: #000000; stroke-width: 0.8; stroke-linejoin: miter; stroke-linecap: square"/>
   </g>
   <g id="text_27">
    <!-- Gene Frequency Coverage -->
    <g transform="translate(327.651875 20.88) scale(0.12 -0.12)">
     <defs>
      <path id="DejaVuSans-47" d="M 3809 666 
L 3809 1919 
L 2778 1919 
L 2778 2438 
L 4434 2438 
L 4434 434 
Q 4069 175 3628 42 
Q 3188 -91 2688 -91 
Q 1594 -91 976 548 
Q 359 1188 359 2328 
Q 359 3472 976 4111 
Q 1594 4750 2688 4750 
Q 3144 4750 3555 4637 
Q 3966 4525 4313 4306 
L 4313 3634 
Q 3963 3931 3569 4081 
Q 3175 4231 2741 4231 
Q 1884 4231 1454 3753 
Q 1025 3275 1025 2328 
Q 1025 1384 1454 906 
Q 1884 428 2741 428 
Q 3075 428 3337 486 
Q 3600 544 3809 666 
z
" transform="scale(0.015625)"/>
      <path id="DejaVuSans-46" d="M 628 4666 
L 3309 4666 
L 3309 4134 
L 1259 4134 
L 1259 2759 
L 3109 2759 
L 3109 2228 
L 1259 2228 
L 1259 0 
L 628 0 
L 628 4666 
z
" transform="scale(0.015625)"/>
      <path id="DejaVuSans-71" d="M 947 1747 
Q 947 1113 1208 752 
Q 1469 391 1925 391 
Q 2381 391 2643 752 
Q 2906 1113 2906 1747 
Q 2906 2381 2643 2742 
Q 2381 3103 1925 3103 
Q 1469 3103 1208 2742 
Q 947 2381 947 1747 
z
M 2906 525 
Q 2725 213 2448 61 
Q 2172 -91 1784 -91 
Q 1150 -91 751 415 
Q 353 922 353 1747 
Q 353 2572 751 3078 
Q 1150 3584 1784 3584 
Q 2172 3584 2448 3432 
Q 2725 3281 2906 2969 
L 2906 3500 
L 3481 3500 
L 3481 -1331 
L 2906 -1331 
L 2906 525 
z
" transform="scale(0.015625)"/>
      <path id="DejaVuSans-79" d="M 2059 -325 
Q 1816 -950 1584 -1140 
Q 1353 -1331 966 -1331 
L 506 -1331 
L 506 -850 
L 844 -850 
Q 1081 -850 1212 -737 
Q 1344 -625 1503 -206 
L 1606 56 
L 191 3500 
L 800 3500 
L 1894 763 
L 2988 3500 
L 3597 3500 
L 2059 -325 
z
" transform="scale(0.015625)"/>
      <path id="DejaVuSans-76" d="M 191 3500 
L 800 3500 
L 1894 563 
L 2988 3500 
L 3597 3500 
L 2284 0 
L 1503 0 
L 191 3500 
z
" transform="scale(0.015625)"/>
      <path id="DejaVuSans-67" d="M 2906 1791 
Q 2906 2416 2648 2759 
Q 2391 3103 1925 3103 
Q 1463 3103 1205 2759 
Q 947 2416 947 1791 
Q 947 1169 1205 825 
Q 1463 481 1925 481 
Q 2391 481 2648 825 
Q 2906 1169 2906 1791 
z
M 3481 434 
Q 3481 -459 3084 -895 
Q 2688 -1331 1869 -1331 
Q 1566 -1331 1297 -1286 
Q 1028 -1241 775 -1147 
L 775 -588 
Q 1028 -725 1275 -790 
Q 1522 -856 1778 -856 
Q 2344 -856 2625 -561 
Q 2906 -266 2906 331 
L 2906 616 
Q 2728 306 2450 153 
Q 2172 0 1784 0 
Q 1141 0 747 490 
Q 353 981 353 1791 
Q 353 2603 747 3093 
Q 1141 3584 1784 3584 
Q 2172 3584 2450 3431 
Q 2728 3278 2906 2969 
L 2906 3500 
L 3481 3500 
L 3481 434 
z
" transform="scale(0.015625)"/>
     </defs>
     <use xlink:href="#DejaVuSans-47"/>
     <use xlink:href="#DejaVuSans-65" transform="translate(77.490234 0)"/>
     <use xlink:href="#DejaVuSans-6e" transform="translate(139.013672 0)"/>
     <use xlink:href="#DejaVuSans-65" transform="translate(202.392578 0)"/>
     <use xlink:href="#DejaVuSans-20" transform="translate(263.916016 0)"/>
     <use xlink:href="#DejaVuSans-46" transform="translate(295.703125 0)"/>
     <use xlink:href="#DejaVuSans-72" transform="translate(345.972656 0)"/>
     <use xlink:href="#DejaVuSans-65" transform="translate(384.835938 0)"/>
     <use xlink:href="#DejaVuSans-71" transform="translate(446.359375 0)"/>
     <use xlink:href="#DejaVuSans-75" transform="translate(509.835938 0)"/>
     <use xlink:href="#DejaVuSans-65" transform="translate(573.214844 0)"/>
     <use xlink:href="#DejaVuSans-6e" transform="translate(634.738281 0)"/>
     <use xlink:href="#DejaVuSans-63" transform="translate(698.117188 0)"/>
     <use xlink:href="#DejaVuSans-79" transform="translate(753.097656 0)"/>
     <use xlink:href="#DejaVuSans-20" transform="translate(812.277344 0)"/>
     <use xlink:href="#DejaVuSans-43" transform="translate(844.064453 0)"/>
     <use xlink:href="#DejaVuSans-6f" transform="translate(913.888672 0)"/>
     <use xlink:href="#DejaVuSans-76" transform="translate(975.070312 0)"/>
     <use xlink:href="#DejaVuSans-65" transform="translate(1034.25 0)"/>
     <use xlink:href="#DejaVuSans-72" transform="translate(1095.773438 0)"/>
     <use xlink:href="#DejaVuSans-61" transform="translate(1136.886719 0)"/>
     <use xlink:href="#DejaVuSans-67" transform="translate(1198.166016 0)"/>
     <use xlink:href="#DejaVuSans-65" transform="translate(1261.642578 0)"/>
    </g>
   </g>
  </g>
  <g id="axes_4">
   <g id="patch_20">
    <path d="M 510.692 173.93875 
L 709.2 173.93875 
L 709.2 26.88 
L 510.692 26.88 
z
" style="fill: #ffffff"/>
   </g>
   <g id="FillBetweenPolyCollection_1">
    <defs>
     <path id="m457418c151" d="M 519.715091 -42.092743 
L 519.715091 -42.06125 
L 520.621934 -42.06125 
L 521.528778 -42.06125 
L 522.435621 -42.06125 
L 523.342464 -42.06125 
L 524.249307 -42.06125 
L 525.156151 -42.06125 
L 526.062994 -42.06125 
L 526.969837 -42.06125 
L 527.876681 -42.06125 
L 528.783524 -42.06125 
L 529.690367 -42.06125 
L 530.597211 -42.06125 
L 531.504054 -42.06125 
L 532.410897 -42.06125 
L 533.317741 -42.06125 
L 534.224584 -42.06125 
L 535.131427 -42.06125 
L 536.03827 -42.06125 
L 536.945114 -42.06125 
L 537.851957 -42.06125 
L 538.7588 -42.06125 
L 539.665644 -42.06125 
L 540.572487 -42.06125 
L 541.47933 -42.06125 
L 542.386174 -42.06125 
L 543.293017 -42.06125 
L 544.19986 -42.06125 
L 545.106704 -42.06125 
L 546.013547 -42.06125 
L 546.92039 -42.06125 
L 547.827233 -42.06125 
L 548.734077 -42.06125 
L 549.64092 -42.06125 
L 550.547763 -42.06125 
L 551.454607 -42.06125 
L 552.36145 -42.06125 
L 553.268293 -42.06125 
L 554.175137 -42.06125 
L 555.08198 -42.06125 
L 555.988823 -42.06125 
L 556.895667 -42.06125 
L 557.80251 -42.06125 
L 558.709353 -42.06125 
L 559.616196 -42.06125 
L 560.52304 -42.06125 
L 561.429883 -42.06125 
L 562.336726 -42.06125 
L 563.24357 -42.06125 
L 564.150413 -42.06125 
L 565.057256 -42.06125 
L 565.9641 -42.06125 
L 566.870943 -42.06125 
L 567.777786 -42.06125 
L 568.68463 -42.06125 
L 569.591473 -42.06125 
L 570.498316 -42.06125 
L 571.405159 -42.06125 
L 572.312003 -42.06125 
L 573.218846 -42.06125 
L 574.125689 -42.06125 
L 575.032533 -42.06125 
L 575.939376 -42.06125 
L 576.846219 -42.06125 
L 577.753063 -42.06125 
L 578.659906 -42.06125 
L 579.566749 -42.06125 
L 580.473593 -42.06125 
L 581.380436 -42.06125 
L 582.287279 -42.06125 
L 583.194122 -42.06125 
L 584.100966 -42.06125 
L 585.007809 -42.06125 
L 585.914652 -42.06125 
L 586.821496 -42.06125 
L 587.728339 -42.06125 
L 588.635182 -42.06125 
L 589.542026 -42.06125 
L 590.448869 -42.06125 
L 591.355712 -42.06125 
L 592.262556 -42.06125 
L 593.169399 -42.06125 
L 594.076242 -42.06125 
L 594.983085 -42.06125 
L 595.889929 -42.06125 
L 596.796772 -42.06125 
L 597.703615 -42.06125 
L 598.610459 -42.06125 
L 599.517302 -42.06125 
L 600.424145 -42.06125 
L 601.330989 -42.06125 
L 602.237832 -42.06125 
L 603.144675 -42.06125 
L 604.051519 -42.06125 
L 604.958362 -42.06125 
L 605.865205 -42.06125 
L 606.772048 -42.06125 
L 607.678892 -42.06125 
L 608.585735 -42.06125 
L 609.492578 -42.06125 
L 610.399422 -42.06125 
L 611.306265 -42.06125 
L 612.213108 -42.06125 
L 613.119952 -42.06125 
L 614.026795 -42.06125 
L 614.933638 -42.06125 
L 615.840481 -42.06125 
L 616.747325 -42.06125 
L 617.654168 -42.06125 
L 618.561011 -42.06125 
L 619.467855 -42.06125 
L 620.374698 -42.06125 
L 621.281541 -42.06125 
L 622.188385 -42.06125 
L 623.095228 -42.06125 
L 624.002071 -42.06125 
L 624.908915 -42.06125 
L 625.815758 -42.06125 
L 626.722601 -42.06125 
L 627.629444 -42.06125 
L 628.536288 -42.06125 
L 629.443131 -42.06125 
L 630.349974 -42.06125 
L 631.256818 -42.06125 
L 632.163661 -42.06125 
L 633.070504 -42.06125 
L 633.977348 -42.06125 
L 634.884191 -42.06125 
L 635.791034 -42.06125 
L 636.697878 -42.06125 
L 637.604721 -42.06125 
L 638.511564 -42.06125 
L 639.418407 -42.06125 
L 640.325251 -42.06125 
L 641.232094 -42.06125 
L 642.138937 -42.06125 
L 643.045781 -42.06125 
L 643.952624 -42.06125 
L 644.859467 -42.06125 
L 645.766311 -42.06125 
L 646.673154 -42.06125 
L 647.579997 -42.06125 
L 648.486841 -42.06125 
L 649.393684 -42.06125 
L 650.300527 -42.06125 
L 651.20737 -42.06125 
L 652.114214 -42.06125 
L 653.021057 -42.06125 
L 653.9279 -42.06125 
L 654.834744 -42.06125 
L 655.741587 -42.06125 
L 656.64843 -42.06125 
L 657.555274 -42.06125 
L 658.462117 -42.06125 
L 659.36896 -42.06125 
L 660.275804 -42.06125 
L 661.182647 -42.06125 
L 662.08949 -42.06125 
L 662.996333 -42.06125 
L 663.903177 -42.06125 
L 664.81002 -42.06125 
L 665.716863 -42.06125 
L 666.623707 -42.06125 
L 667.53055 -42.06125 
L 668.437393 -42.06125 
L 669.344237 -42.06125 
L 670.25108 -42.06125 
L 671.157923 -42.06125 
L 672.064767 -42.06125 
L 672.97161 -42.06125 
L 673.878453 -42.06125 
L 674.785296 -42.06125 
L 675.69214 -42.06125 
L 676.598983 -42.06125 
L 677.505826 -42.06125 
L 678.41267 -42.06125 
L 679.319513 -42.06125 
L 680.226356 -42.06125 
L 681.1332 -42.06125 
L 682.040043 -42.06125 
L 682.946886 -42.06125 
L 683.85373 -42.06125 
L 684.760573 -42.06125 
L 685.667416 -42.06125 
L 686.574259 -42.06125 
L 687.481103 -42.06125 
L 688.387946 -42.06125 
L 689.294789 -42.06125 
L 690.201633 -42.06125 
L 691.108476 -42.06125 
L 692.015319 -42.06125 
L 692.922163 -42.06125 
L 693.829006 -42.06125 
L 694.735849 -42.06125 
L 695.642693 -42.06125 
L 696.549536 -42.06125 
L 697.456379 -42.06125 
L 698.363222 -42.06125 
L 699.270066 -42.06125 
L 700.176909 -42.06125 
L 700.176909 -42.069755 
L 700.176909 -42.069755 
L 699.270066 -42.073951 
L 698.363222 -42.079867 
L 697.456379 -42.088031 
L 696.549536 -42.099061 
L 695.642693 -42.113645 
L 694.735849 -42.132507 
L 693.829006 -42.156363 
L 692.922163 -42.18585 
L 692.015319 -42.221454 
L 691.108476 -42.263411 
L 690.201633 -42.311627 
L 689.294789 -42.365593 
L 688.387946 -42.424332 
L 687.481103 -42.486378 
L 686.574259 -42.549798 
L 685.667416 -42.612275 
L 684.760573 -42.671225 
L 683.85373 -42.723977 
L 682.946886 -42.767968 
L 682.040043 -42.800953 
L 681.1332 -42.821203 
L 680.226356 -42.827668 
L 679.319513 -42.820083 
L 678.41267 -42.799009 
L 677.505826 -42.765804 
L 676.598983 -42.722531 
L 675.69214 -42.671804 
L 674.785296 -42.61662 
L 673.878453 -42.56016 
L 672.97161 -42.505617 
L 672.064767 -42.456036 
L 671.157923 -42.414206 
L 670.25108 -42.382585 
L 669.344237 -42.363264 
L 668.437393 -42.35797 
L 667.53055 -42.368086 
L 666.623707 -42.394684 
L 665.716863 -42.438568 
L 664.81002 -42.500309 
L 663.903177 -42.580284 
L 662.996333 -42.678705 
L 662.08949 -42.795658 
L 661.182647 -42.931123 
L 660.275804 -43.085008 
L 659.36896 -43.257166 
L 658.462117 -43.4474 
L 657.555274 -43.655459 
L 656.64843 -43.880998 
L 655.741587 -44.123534 
L 654.834744 -44.382378 
L 653.9279 -44.656572 
L 653.021057 -44.944841 
L 652.114214 -45.245593 
L 651.20737 -45.556974 
L 650.300527 -45.877001 
L 649.393684 -46.203767 
L 648.486841 -46.535718 
L 647.579997 -46.871962 
L 646.673154 -47.212576 
L 645.766311 -47.558863 
L 644.859467 -47.913499 
L 643.952624 -48.280534 
L 643.045781 -48.665212 
L 642.138937 -49.073597 
L 641.232094 -49.512036 
L 640.325251 -49.986488 
L 639.418407 -50.501786 
L 638.511564 -51.06092 
L 637.604721 -51.664418 
L 636.697878 -52.309898 
L 635.791034 -52.991854 
L 634.884191 -53.701713 
L 633.977348 -54.428155 
L 633.070504 -55.157688 
L 632.163661 -55.875413 
L 631.256818 -56.565926 
L 630.349974 -57.214287 
L 629.443131 -57.806968 
L 628.536288 -58.332744 
L 627.629444 -58.783454 
L 626.722601 -59.15461 
L 625.815758 -59.445829 
L 624.908915 -59.661067 
L 624.002071 -59.808652 
L 623.095228 -59.901109 
L 622.188385 -59.954777 
L 621.281541 -59.989211 
L 620.374698 -60.026388 
L 619.467855 -60.089745 
L 618.561011 -60.203055 
L 617.654168 -60.389228 
L 616.747325 -60.669075 
L 615.840481 -61.060117 
L 614.933638 -61.575525 
L 614.026795 -62.223267 
L 613.119952 -63.005535 
L 612.213108 -63.918508 
L 611.306265 -64.952495 
L 610.399422 -66.092461 
L 609.492578 -67.318927 
L 608.585735 -68.609198 
L 607.678892 -69.938835 
L 606.772048 -71.283286 
L 605.865205 -72.619547 
L 604.958362 -73.927731 
L 604.051519 -75.192424 
L 603.144675 -76.403715 
L 602.237832 -77.557819 
L 601.330989 -78.657244 
L 600.424145 -79.71049 
L 599.517302 -80.731319 
L 598.610459 -81.737662 
L 597.703615 -82.750278 
L 596.796772 -83.791287 
L 595.889929 -84.882729 
L 594.983085 -86.045292 
L 594.076242 -87.29732 
L 593.169399 -88.654212 
L 592.262556 -90.128247 
L 591.355712 -91.728823 
L 590.448869 -93.463059 
L 589.542026 -95.336632 
L 588.635182 -97.354688 
L 587.728339 -99.522664 
L 586.821496 -101.846838 
L 585.914652 -104.334479 
L 585.007809 -106.99353 
L 584.100966 -109.831799 
L 583.194122 -112.855763 
L 582.287279 -116.069112 
L 581.380436 -119.471227 
L 580.473593 -123.055817 
L 579.566749 -126.809882 
L 578.659906 -130.71317 
L 577.753063 -134.738183 
L 576.846219 -138.850736 
L 575.939376 -143.010985 
L 575.032533 -147.174804 
L 574.125689 -151.295331 
L 573.218846 -155.324552 
L 572.312003 -159.214777 
L 571.405159 -162.919909 
L 570.498316 -166.396484 
L 569.591473 -169.604438 
L 568.68463 -172.507631 
L 567.777786 -175.074131 
L 566.870943 -177.27628 
L 565.9641 -179.090539 
L 565.057256 -180.497129 
L 564.150413 -181.479491 
L 563.24357 -182.023593 
L 562.336726 -182.117202 
L 561.429883 -181.749202 
L 560.52304 -180.909122 
L 559.616196 -179.586997 
L 558.709353 -177.773678 
L 557.80251 -175.461631 
L 556.895667 -172.646195 
L 555.988823 -169.327189 
L 555.08198 -165.510677 
L 554.175137 -161.210668 
L 553.268293 -156.450501 
L 552.36145 -151.263718 
L 551.454607 -145.69428 
L 550.547763 -139.796071 
L 549.64092 -133.631711 
L 548.734077 -127.27081 
L 547.827233 -120.787796 
L 546.92039 -114.259535 
L 546.013547 -107.762893 
L 545.106704 -101.372411 
L 544.19986 -95.1582 
L 543.293017 -89.184119 
L 542.386174 -83.506273 
L 541.47933 -78.17185 
L 540.572487 -73.218285 
L 539.665644 -68.672759 
L 538.7588 -64.552038 
L 537.851957 -60.862646 
L 536.945114 -57.601382 
L 536.03827 -54.756159 
L 535.131427 -52.307141 
L 534.224584 -50.228112 
L 533.317741 -48.488017 
L 532.410897 -47.052571 
L 531.504054 -45.885847 
L 530.597211 -44.951749 
L 529.690367 -44.215297 
L 528.783524 -43.64366 
L 527.876681 -43.206918 
L 526.969837 -42.878541 
L 526.062994 -42.635608 
L 525.156151 -42.458801 
L 524.249307 -42.332226 
L 523.342464 -42.243104 
L 522.435621 -42.181396 
L 521.528778 -42.139381 
L 520.621934 -42.111254 
L 519.715091 -42.092743 
z
" style="stroke: #1f77b4"/>
    </defs>
    <g clip-path="url(#pc13f36cdd6)">
     <use xlink:href="#m457418c151" x="0" y="216" style="fill: #1f77b4; fill-opacity: 0.25; stroke: #1f77b4"/>
    </g>
   </g>
   <g id="matplotlib.axis_7">
    <g id="xtick_4">
     <g id="line2d_37">
      <g>
       <use xlink:href="#md6fe937fc8" x="532.550566" y="173.93875" style="stroke: #000000; stroke-width: 0.8"/>
      </g>
     </g>
     <g id="text_28">
      <!-- 0 -->
      <g transform="translate(529.369316 188.537188) scale(0.1 -0.1)">
       <use xlink:href="#DejaVuSans-30"/>
      </g>
     </g>
    </g>
    <g id="xtick_5">
     <g id="line2d_38">
      <g>
       <use xlink:href="#md6fe937fc8" x="596.438666" y="173.93875" style="stroke: #000000; stroke-width: 0.8"/>
      </g>
     </g>
     <g id="text_29">
      <!-- 20 -->
      <g transform="translate(590.076166 188.537188) scale(0.1 -0.1)">
       <use xlink:href="#DejaVuSans-32"/>
       <use xlink:href="#DejaVuSans-30" transform="translate(63.623047 0)"/>
      </g>
     </g>
    </g>
    <g id="xtick_6">
     <g id="line2d_39">
      <g>
       <use xlink:href="#md6fe937fc8" x="660.326766" y="173.93875" style="stroke: #000000; stroke-width: 0.8"/>
      </g>
     </g>
     <g id="text_30">
      <!-- 40 -->
      <g transform="translate(653.964266 188.537188) scale(0.1 -0.1)">
       <use xlink:href="#DejaVuSans-34"/>
       <use xlink:href="#DejaVuSans-30" transform="translate(63.623047 0)"/>
      </g>
     </g>
    </g>
    <g id="text_31">
     <!-- gf.count_skew -->
     <g transform="translate(574.694438 202.215313) scale(0.1 -0.1)">
      <defs>
       <path id="DejaVuSans-66" d="M 2375 4863 
L 2375 4384 
L 1825 4384 
Q 1516 4384 1395 4259 
Q 1275 4134 1275 3809 
L 1275 3500 
L 2222 3500 
L 2222 3053 
L 1275 3053 
L 1275 0 
L 697 0 
L 697 3053 
L 147 3053 
L 147 3500 
L 697 3500 
L 697 3744 
Q 697 4328 969 4595 
Q 1241 4863 1831 4863 
L 2375 4863 
z
" transform="scale(0.015625)"/>
       <path id="DejaVuSans-5f" d="M 3263 -1063 
L 3263 -1509 
L -63 -1509 
L -63 -1063 
L 3263 -1063 
z
" transform="scale(0.015625)"/>
       <path id="DejaVuSans-6b" d="M 581 4863 
L 1159 4863 
L 1159 1991 
L 2875 3500 
L 3609 3500 
L 1753 1863 
L 3688 0 
L 2938 0 
L 1159 1709 
L 1159 0 
L 581 0 
L 581 4863 
z
" transform="scale(0.015625)"/>
       <path id="DejaVuSans-77" d="M 269 3500 
L 844 3500 
L 1563 769 
L 2278 3500 
L 2956 3500 
L 3675 769 
L 4391 3500 
L 4966 3500 
L 4050 0 
L 3372 0 
L 2619 2869 
L 1863 0 
L 1184 0 
L 269 3500 
z
" transform="scale(0.015625)"/>
      </defs>
      <use xlink:href="#DejaVuSans-67"/>
      <use xlink:href="#DejaVuSans-66" transform="translate(63.476562 0)"/>
      <use xlink:href="#DejaVuSans-2e" transform="translate(91.431641 0)"/>
      <use xlink:href="#DejaVuSans-63" transform="translate(123.21875 0)"/>
      <use xlink:href="#DejaVuSans-6f" transform="translate(178.199219 0)"/>
      <use xlink:href="#DejaVuSans-75" transform="translate(239.380859 0)"/>
      <use xlink:href="#DejaVuSans-6e" transform="translate(302.759766 0)"/>
      <use xlink:href="#DejaVuSans-74" transform="translate(366.138672 0)"/>
      <use xlink:href="#DejaVuSans-5f" transform="translate(405.347656 0)"/>
      <use xlink:href="#DejaVuSans-73" transform="translate(455.347656 0)"/>
      <use xlink:href="#DejaVuSans-6b" transform="translate(507.447266 0)"/>
      <use xlink:href="#DejaVuSans-65" transform="translate(561.732422 0)"/>
      <use xlink:href="#DejaVuSans-77" transform="translate(623.255859 0)"/>
     </g>
    </g>
   </g>
   <g id="matplotlib.axis_8">
    <g id="ytick_16">
     <g id="line2d_40">
      <g>
       <use xlink:href="#ma871b3ddf0" x="510.692" y="173.93875" style="stroke: #000000; stroke-width: 0.8"/>
      </g>
     </g>
     <g id="text_32">
      <!-- 0.00 -->
      <g transform="translate(481.426375 177.737969) scale(0.1 -0.1)">
       <use xlink:href="#DejaVuSans-30"/>
       <use xlink:href="#DejaVuSans-2e" transform="translate(63.623047 0)"/>
       <use xlink:href="#DejaVuSans-30" transform="translate(95.410156 0)"/>
       <use xlink:href="#DejaVuSans-30" transform="translate(159.033203 0)"/>
      </g>
     </g>
    </g>
    <g id="ytick_17">
     <g id="line2d_41">
      <g>
       <use xlink:href="#ma871b3ddf0" x="510.692" y="134.19686" style="stroke: #000000; stroke-width: 0.8"/>
      </g>
     </g>
     <g id="text_33">
      <!-- 0.02 -->
      <g transform="translate(481.426375 137.996079) scale(0.1 -0.1)">
       <use xlink:href="#DejaVuSans-30"/>
       <use xlink:href="#DejaVuSans-2e" transform="translate(63.623047 0)"/>
       <use xlink:href="#DejaVuSans-30" transform="translate(95.410156 0)"/>
       <use xlink:href="#DejaVuSans-32" transform="translate(159.033203 0)"/>
      </g>
     </g>
    </g>
    <g id="ytick_18">
     <g id="line2d_42">
      <g>
       <use xlink:href="#ma871b3ddf0" x="510.692" y="94.454971" style="stroke: #000000; stroke-width: 0.8"/>
      </g>
     </g>
     <g id="text_34">
      <!-- 0.04 -->
      <g transform="translate(481.426375 98.254189) scale(0.1 -0.1)">
       <use xlink:href="#DejaVuSans-30"/>
       <use xlink:href="#DejaVuSans-2e" transform="translate(63.623047 0)"/>
       <use xlink:href="#DejaVuSans-30" transform="translate(95.410156 0)"/>
       <use xlink:href="#DejaVuSans-34" transform="translate(159.033203 0)"/>
      </g>
     </g>
    </g>
    <g id="ytick_19">
     <g id="line2d_43">
      <g>
       <use xlink:href="#ma871b3ddf0" x="510.692" y="54.713081" style="stroke: #000000; stroke-width: 0.8"/>
      </g>
     </g>
     <g id="text_35">
      <!-- 0.06 -->
      <g transform="translate(481.426375 58.5123) scale(0.1 -0.1)">
       <defs>
        <path id="DejaVuSans-36" d="M 2113 2584 
Q 1688 2584 1439 2293 
Q 1191 2003 1191 1497 
Q 1191 994 1439 701 
Q 1688 409 2113 409 
Q 2538 409 2786 701 
Q 3034 994 3034 1497 
Q 3034 2003 2786 2293 
Q 2538 2584 2113 2584 
z
M 3366 4563 
L 3366 3988 
Q 3128 4100 2886 4159 
Q 2644 4219 2406 4219 
Q 1781 4219 1451 3797 
Q 1122 3375 1075 2522 
Q 1259 2794 1537 2939 
Q 1816 3084 2150 3084 
Q 2853 3084 3261 2657 
Q 3669 2231 3669 1497 
Q 3669 778 3244 343 
Q 2819 -91 2113 -91 
Q 1303 -91 875 529 
Q 447 1150 447 2328 
Q 447 3434 972 4092 
Q 1497 4750 2381 4750 
Q 2619 4750 2861 4703 
Q 3103 4656 3366 4563 
z
" transform="scale(0.015625)"/>
       </defs>
       <use xlink:href="#DejaVuSans-30"/>
       <use xlink:href="#DejaVuSans-2e" transform="translate(63.623047 0)"/>
       <use xlink:href="#DejaVuSans-30" transform="translate(95.410156 0)"/>
       <use xlink:href="#DejaVuSans-36" transform="translate(159.033203 0)"/>
      </g>
     </g>
    </g>
    <g id="text_36">
     <!-- Density -->
     <g transform="translate(475.346688 119.417969) rotate(-90) scale(0.1 -0.1)">
      <use xlink:href="#DejaVuSans-44"/>
      <use xlink:href="#DejaVuSans-65" transform="translate(77.001953 0)"/>
      <use xlink:href="#DejaVuSans-6e" transform="translate(138.525391 0)"/>
      <use xlink:href="#DejaVuSans-73" transform="translate(201.904297 0)"/>
      <use xlink:href="#DejaVuSans-69" transform="translate(254.003906 0)"/>
      <use xlink:href="#DejaVuSans-74" transform="translate(281.787109 0)"/>
      <use xlink:href="#DejaVuSans-79" transform="translate(320.996094 0)"/>
     </g>
    </g>
   </g>
   <g id="patch_21">
    <path d="M 510.692 173.93875 
L 510.692 26.88 
" style="fill: none; stroke: #000000; stroke-width: 0.8; stroke-linejoin: miter; stroke-linecap: square"/>
   </g>
   <g id="patch_22">
    <path d="M 709.2 173.93875 
L 709.2 26.88 
" style="fill: none; stroke: #000000; stroke-width: 0.8; stroke-linejoin: miter; stroke-linecap: square"/>
   </g>
   <g id="patch_23">
    <path d="M 510.692 173.93875 
L 709.2 173.93875 
" style="fill: none; stroke: #000000; stroke-width: 0.8; stroke-linejoin: miter; stroke-linecap: square"/>
   </g>
   <g id="patch_24">
    <path d="M 510.692 26.88 
L 709.2 26.88 
" style="fill: none; stroke: #000000; stroke-width: 0.8; stroke-linejoin: miter; stroke-linecap: square"/>
   </g>
   <g id="text_37">
    <!-- Gene Frequency Skewness -->
    <g transform="translate(529.891 20.88) scale(0.12 -0.12)">
     <use xlink:href="#DejaVuSans-47"/>
     <use xlink:href="#DejaVuSans-65" transform="translate(77.490234 0)"/>
     <use xlink:href="#DejaVuSans-6e" transform="translate(139.013672 0)"/>
     <use xlink:href="#DejaVuSans-65" transform="translate(202.392578 0)"/>
     <use xlink:href="#DejaVuSans-20" transform="translate(263.916016 0)"/>
     <use xlink:href="#DejaVuSans-46" transform="translate(295.703125 0)"/>
     <use xlink:href="#DejaVuSans-72" transform="translate(345.972656 0)"/>
     <use xlink:href="#DejaVuSans-65" transform="translate(384.835938 0)"/>
     <use xlink:href="#DejaVuSans-71" transform="translate(446.359375 0)"/>
     <use xlink:href="#DejaVuSans-75" transform="translate(509.835938 0)"/>
     <use xlink:href="#DejaVuSans-65" transform="translate(573.214844 0)"/>
     <use xlink:href="#DejaVuSans-6e" transform="translate(634.738281 0)"/>
     <use xlink:href="#DejaVuSans-63" transform="translate(698.117188 0)"/>
     <use xlink:href="#DejaVuSans-79" transform="translate(753.097656 0)"/>
     <use xlink:href="#DejaVuSans-20" transform="translate(812.277344 0)"/>
     <use xlink:href="#DejaVuSans-53" transform="translate(844.064453 0)"/>
     <use xlink:href="#DejaVuSans-6b" transform="translate(907.541016 0)"/>
     <use xlink:href="#DejaVuSans-65" transform="translate(961.826172 0)"/>
     <use xlink:href="#DejaVuSans-77" transform="translate(1023.349609 0)"/>
     <use xlink:href="#DejaVuSans-6e" transform="translate(1105.136719 0)"/>
     <use xlink:href="#DejaVuSans-65" transform="translate(1168.515625 0)"/>
     <use xlink:href="#DejaVuSans-73" transform="translate(1230.039062 0)"/>
     <use xlink:href="#DejaVuSans-73" transform="translate(1282.138672 0)"/>
    </g>
   </g>
   <g id="legend_1">
    <g id="text_38">
     <!-- dataset -->
     <g transform="translate(666.392188 39.478438) scale(0.1 -0.1)">
      <use xlink:href="#DejaVuSans-64"/>
      <use xlink:href="#DejaVuSans-61" transform="translate(63.476562 0)"/>
      <use xlink:href="#DejaVuSans-74" transform="translate(124.755859 0)"/>
      <use xlink:href="#DejaVuSans-61" transform="translate(163.964844 0)"/>
      <use xlink:href="#DejaVuSans-73" transform="translate(225.244141 0)"/>
      <use xlink:href="#DejaVuSans-65" transform="translate(277.34375 0)"/>
      <use xlink:href="#DejaVuSans-74" transform="translate(338.867188 0)"/>
     </g>
    </g>
    <g id="patch_25">
     <path d="M 667.175781 55.508125 
L 677.175781 55.508125 
L 677.175781 46.558125 
L 667.175781 46.558125 
z
" style="fill: #1f77b4; fill-opacity: 0.25; stroke: #1f77b4; stroke-linejoin: miter"/>
    </g>
    <g id="text_39">
     <!-- KDC -->
     <g transform="translate(682.175781 54.458125) scale(0.1 -0.1)">
      <use xlink:href="#DejaVuSans-4b"/>
      <use xlink:href="#DejaVuSans-44" transform="translate(65.576172 0)"/>
      <use xlink:href="#DejaVuSans-43" transform="translate(142.578125 0)"/>
     </g>
    </g>
   </g>
  </g>
 </g>
 <defs>
  <clipPath id="p926993cc67">
   <rect x="50.87" y="26.88" width="99.254" height="147.05875"/>
  </clipPath>
  <clipPath id="p4f2e420403">
   <rect x="204.144" y="26.88" width="99.254" height="147.05875"/>
  </clipPath>
  <clipPath id="p767168799d">
   <rect x="357.418" y="26.88" width="99.254" height="147.05875"/>
  </clipPath>
  <clipPath id="pc13f36cdd6">
   <rect x="510.692" y="26.88" width="198.508" height="147.05875"/>
  </clipPath>
 </defs>
</svg>
