<?xml version="1.0" encoding="utf-8" standalone="no"?>
<!DOCTYPE svg PUBLIC "-//W3C//DTD SVG 1.1//EN"
  "http://www.w3.org/Graphics/SVG/1.1/DTD/svg11.dtd">
<svg xmlns:xlink="http://www.w3.org/1999/xlink" width="720pt" height="216pt" viewBox="0 0 720 216" xmlns="http://www.w3.org/2000/svg" version="1.1">
 <metadata>
  <rdf:RDF xmlns:dc="http://purl.org/dc/elements/1.1/" xmlns:cc="http://creativecommons.org/ns#" xmlns:rdf="http://www.w3.org/1999/02/22-rdf-syntax-ns#">
   <cc:Work>
    <dc:type rdf:resource="http://purl.org/dc/dcmitype/StillImage"/>
    <dc:date>2026-05-17T09:25:25.629555</dc:date>
    <dc:format>image/svg+xml</dc:format>
    <dc:creator>
     <cc:Agent>
      <dc:title>Matplotlib v3.10.9, https://matplotlib.org/</dc:title>
     </cc:Agent>
    </dc:creator>
   </cc:Work>
  </rdf:RDF>
 </metadata>
 <defs>
  <style type="text/css">*{stroke-linejoin: round; stroke-linecap: butt}</style>
 </defs>
 <g id="figure_1">
  <g id="patch_1">
   <path d="M 0 216 
L 720 216 
L 720 0 
L 0 0 
z
" style="fill: #ffffff"/>
  </g>
  <g id="axes_1">
   <g id="patch_2">
    <path d="M 50.87 173.93875 
L 149.436433 173.93875 
L 149.436433 26.88 
L 50.87 26.88 
z
" style="fill: #ffffff"/>
   </g>
   <g id="matplotlib.axis_1">
    <g id="xtick_1">
     <g id="line2d_1">
      <defs>
       <path id="mde6e846a59" d="M 0 0 
L 0 3.5 
" style="stroke: #000000; stroke-width: 0.8"/>
      </defs>
      <g>
       <use xlink:href="#mde6e846a59" x="100.153216" y="173.93875" style="stroke: #000000; stroke-width: 0.8"/>
      </g>
     </g>
     <g id="text_1">
      <!-- CDN -->
      <g transform="translate(89.071185 188.537188) scale(0.1 -0.1)">
       <defs>
        <path id="DejaVuSans-43" d="M 4122 4306 
L 4122 3641 
Q 3803 3938 3442 4084 
Q 3081 4231 2675 4231 
Q 1875 4231 1450 3742 
Q 1025 3253 1025 2328 
Q 1025 1406 1450 917 
Q 1875 428 2675 428 
Q 3081 428 3442 575 
Q 3803 722 4122 1019 
L 4122 359 
Q 3791 134 3420 21 
Q 3050 -91 2638 -91 
Q 1578 -91 968 557 
Q 359 1206 359 2328 
Q 359 3453 968 4101 
Q 1578 4750 2638 4750 
Q 3056 4750 3426 4639 
Q 3797 4528 4122 4306 
z
" transform="scale(0.015625)"/>
        <path id="DejaVuSans-44" d="M 1259 4147 
L 1259 519 
L 2022 519 
Q 2988 519 3436 956 
Q 3884 1394 3884 2338 
Q 3884 3275 3436 3711 
Q 2988 4147 2022 4147 
L 1259 4147 
z
M 628 4666 
L 1925 4666 
Q 3281 4666 3915 4102 
Q 4550 3538 4550 2338 
Q 4550 1131 3912 565 
Q 3275 0 1925 0 
L 628 0 
L 628 4666 
z
" transform="scale(0.015625)"/>
        <path id="DejaVuSans-4e" d="M 628 4666 
L 1478 4666 
L 3547 763 
L 3547 4666 
L 4159 4666 
L 4159 0 
L 3309 0 
L 1241 3903 
L 1241 0 
L 628 0 
L 628 4666 
z
" transform="scale(0.015625)"/>
       </defs>
       <use xlink:href="#DejaVuSans-43"/>
       <use xlink:href="#DejaVuSans-44" transform="translate(69.824219 0)"/>
       <use xlink:href="#DejaVuSans-4e" transform="translate(146.826172 0)"/>
      </g>
     </g>
    </g>
    <g id="text_2">
     <!-- dataset -->
     <g transform="translate(81.24931 202.215313) scale(0.1 -0.1)">
      <defs>
       <path id="DejaVuSans-64" d="M 2906 2969 
L 2906 4863 
L 3481 4863 
L 3481 0 
L 2906 0 
L 2906 525 
Q 2725 213 2448 61 
Q 2172 -91 1784 -91 
Q 1150 -91 751 415 
Q 353 922 353 1747 
Q 353 2572 751 3078 
Q 1150 3584 1784 3584 
Q 2172 3584 2448 3432 
Q 2725 3281 2906 2969 
z
M 947 1747 
Q 947 1113 1208 752 
Q 1469 391 1925 391 
Q 2381 391 2643 752 
Q 2906 1113 2906 1747 
Q 2906 2381 2643 2742 
Q 2381 3103 1925 3103 
Q 1469 3103 1208 2742 
Q 947 2381 947 1747 
z
" transform="scale(0.015625)"/>
       <path id="DejaVuSans-61" d="M 2194 1759 
Q 1497 1759 1228 1600 
Q 959 1441 959 1056 
Q 959 750 1161 570 
Q 1363 391 1709 391 
Q 2188 391 2477 730 
Q 2766 1069 2766 1631 
L 2766 1759 
L 2194 1759 
z
M 3341 1997 
L 3341 0 
L 2766 0 
L 2766 531 
Q 2569 213 2275 61 
Q 1981 -91 1556 -91 
Q 1019 -91 701 211 
Q 384 513 384 1019 
Q 384 1609 779 1909 
Q 1175 2209 1959 2209 
L 2766 2209 
L 2766 2266 
Q 2766 2663 2505 2880 
Q 2244 3097 1772 3097 
Q 1472 3097 1187 3025 
Q 903 2953 641 2809 
L 641 3341 
Q 956 3463 1253 3523 
Q 1550 3584 1831 3584 
Q 2591 3584 2966 3190 
Q 3341 2797 3341 1997 
z
" transform="scale(0.015625)"/>
       <path id="DejaVuSans-74" d="M 1172 4494 
L 1172 3500 
L 2356 3500 
L 2356 3053 
L 1172 3053 
L 1172 1153 
Q 1172 725 1289 603 
Q 1406 481 1766 481 
L 2356 481 
L 2356 0 
L 1766 0 
Q 1100 0 847 248 
Q 594 497 594 1153 
L 594 3053 
L 172 3053 
L 172 3500 
L 594 3500 
L 594 4494 
L 1172 4494 
z
" transform="scale(0.015625)"/>
       <path id="DejaVuSans-73" d="M 2834 3397 
L 2834 2853 
Q 2591 2978 2328 3040 
Q 2066 3103 1784 3103 
Q 1356 3103 1142 2972 
Q 928 2841 928 2578 
Q 928 2378 1081 2264 
Q 1234 2150 1697 2047 
L 1894 2003 
Q 2506 1872 2764 1633 
Q 3022 1394 3022 966 
Q 3022 478 2636 193 
Q 2250 -91 1575 -91 
Q 1294 -91 989 -36 
Q 684 19 347 128 
L 347 722 
Q 666 556 975 473 
Q 1284 391 1588 391 
Q 1994 391 2212 530 
Q 2431 669 2431 922 
Q 2431 1156 2273 1281 
Q 2116 1406 1581 1522 
L 1381 1569 
Q 847 1681 609 1914 
Q 372 2147 372 2553 
Q 372 3047 722 3315 
Q 1072 3584 1716 3584 
Q 2034 3584 2315 3537 
Q 2597 3491 2834 3397 
z
" transform="scale(0.015625)"/>
       <path id="DejaVuSans-65" d="M 3597 1894 
L 3597 1613 
L 953 1613 
Q 991 1019 1311 708 
Q 1631 397 2203 397 
Q 2534 397 2845 478 
Q 3156 559 3463 722 
L 3463 178 
Q 3153 47 2828 -22 
Q 2503 -91 2169 -91 
Q 1331 -91 842 396 
Q 353 884 353 1716 
Q 353 2575 817 3079 
Q 1281 3584 2069 3584 
Q 2775 3584 3186 3129 
Q 3597 2675 3597 1894 
z
M 3022 2063 
Q 3016 2534 2758 2815 
Q 2500 3097 2075 3097 
Q 1594 3097 1305 2825 
Q 1016 2553 972 2059 
L 3022 2063 
z
" transform="scale(0.015625)"/>
      </defs>
      <use xlink:href="#DejaVuSans-64"/>
      <use xlink:href="#DejaVuSans-61" transform="translate(63.476562 0)"/>
      <use xlink:href="#DejaVuSans-74" transform="translate(124.755859 0)"/>
      <use xlink:href="#DejaVuSans-61" transform="translate(163.964844 0)"/>
      <use xlink:href="#DejaVuSans-73" transform="translate(225.244141 0)"/>
      <use xlink:href="#DejaVuSans-65" transform="translate(277.34375 0)"/>
      <use xlink:href="#DejaVuSans-74" transform="translate(338.867188 0)"/>
     </g>
    </g>
   </g>
   <g id="matplotlib.axis_2">
    <g id="ytick_1">
     <g id="line2d_2">
      <defs>
       <path id="me8b99ecbdf" d="M 0 0 
L -3.5 0 
" style="stroke: #000000; stroke-width: 0.8"/>
      </defs>
      <g>
       <use xlink:href="#me8b99ecbdf" x="50.87" y="167.861942" style="stroke: #000000; stroke-width: 0.8"/>
      </g>
     </g>
     <g id="text_3">
      <!-- 0 -->
      <g transform="translate(37.5075 171.661161) scale(0.1 -0.1)">
       <defs>
        <path id="DejaVuSans-30" d="M 2034 4250 
Q 1547 4250 1301 3770 
Q 1056 3291 1056 2328 
Q 1056 1369 1301 889 
Q 1547 409 2034 409 
Q 2525 409 2770 889 
Q 3016 1369 3016 2328 
Q 3016 3291 2770 3770 
Q 2525 4250 2034 4250 
z
M 2034 4750 
Q 2819 4750 3233 4129 
Q 3647 3509 3647 2328 
Q 3647 1150 3233 529 
Q 2819 -91 2034 -91 
Q 1250 -91 836 529 
Q 422 1150 422 2328 
Q 422 3509 836 4129 
Q 1250 4750 2034 4750 
z
" transform="scale(0.015625)"/>
       </defs>
       <use xlink:href="#DejaVuSans-30"/>
      </g>
     </g>
    </g>
    <g id="ytick_2">
     <g id="line2d_3">
      <g>
       <use xlink:href="#me8b99ecbdf" x="50.87" y="137.477903" style="stroke: #000000; stroke-width: 0.8"/>
      </g>
     </g>
     <g id="text_4">
      <!-- 50 -->
      <g transform="translate(31.145 141.277122) scale(0.1 -0.1)">
       <defs>
        <path id="DejaVuSans-35" d="M 691 4666 
L 3169 4666 
L 3169 4134 
L 1269 4134 
L 1269 2991 
Q 1406 3038 1543 3061 
Q 1681 3084 1819 3084 
Q 2600 3084 3056 2656 
Q 3513 2228 3513 1497 
Q 3513 744 3044 326 
Q 2575 -91 1722 -91 
Q 1428 -91 1123 -41 
Q 819 9 494 109 
L 494 744 
Q 775 591 1075 516 
Q 1375 441 1709 441 
Q 2250 441 2565 725 
Q 2881 1009 2881 1497 
Q 2881 1984 2565 2268 
Q 2250 2553 1709 2553 
Q 1456 2553 1204 2497 
Q 953 2441 691 2322 
L 691 4666 
z
" transform="scale(0.015625)"/>
       </defs>
       <use xlink:href="#DejaVuSans-35"/>
       <use xlink:href="#DejaVuSans-30" transform="translate(63.623047 0)"/>
      </g>
     </g>
    </g>
    <g id="ytick_3">
     <g id="line2d_4">
      <g>
       <use xlink:href="#me8b99ecbdf" x="50.87" y="107.093864" style="stroke: #000000; stroke-width: 0.8"/>
      </g>
     </g>
     <g id="text_5">
      <!-- 100 -->
      <g transform="translate(24.7825 110.893082) scale(0.1 -0.1)">
       <defs>
        <path id="DejaVuSans-31" d="M 794 531 
L 1825 531 
L 1825 4091 
L 703 3866 
L 703 4441 
L 1819 4666 
L 2450 4666 
L 2450 531 
L 3481 531 
L 3481 0 
L 794 0 
L 794 531 
z
" transform="scale(0.015625)"/>
       </defs>
       <use xlink:href="#DejaVuSans-31"/>
       <use xlink:href="#DejaVuSans-30" transform="translate(63.623047 0)"/>
       <use xlink:href="#DejaVuSans-30" transform="translate(127.246094 0)"/>
      </g>
     </g>
    </g>
    <g id="ytick_4">
     <g id="line2d_5">
      <g>
       <use xlink:href="#me8b99ecbdf" x="50.87" y="76.709824" style="stroke: #000000; stroke-width: 0.8"/>
      </g>
     </g>
     <g id="text_6">
      <!-- 150 -->
      <g transform="translate(24.7825 80.509043) scale(0.1 -0.1)">
       <use xlink:href="#DejaVuSans-31"/>
       <use xlink:href="#DejaVuSans-35" transform="translate(63.623047 0)"/>
       <use xlink:href="#DejaVuSans-30" transform="translate(127.246094 0)"/>
      </g>
     </g>
    </g>
    <g id="ytick_5">
     <g id="line2d_6">
      <g>
       <use xlink:href="#me8b99ecbdf" x="50.87" y="46.325785" style="stroke: #000000; stroke-width: 0.8"/>
      </g>
     </g>
     <g id="text_7">
      <!-- 200 -->
      <g transform="translate(24.7825 50.125004) scale(0.1 -0.1)">
       <defs>
        <path id="DejaVuSans-32" d="M 1228 531 
L 3431 531 
L 3431 0 
L 469 0 
L 469 531 
Q 828 903 1448 1529 
Q 2069 2156 2228 2338 
Q 2531 2678 2651 2914 
Q 2772 3150 2772 3378 
Q 2772 3750 2511 3984 
Q 2250 4219 1831 4219 
Q 1534 4219 1204 4116 
Q 875 4013 500 3803 
L 500 4441 
Q 881 4594 1212 4672 
Q 1544 4750 1819 4750 
Q 2544 4750 2975 4387 
Q 3406 4025 3406 3419 
Q 3406 3131 3298 2873 
Q 3191 2616 2906 2266 
Q 2828 2175 2409 1742 
Q 1991 1309 1228 531 
z
" transform="scale(0.015625)"/>
       </defs>
       <use xlink:href="#DejaVuSans-32"/>
       <use xlink:href="#DejaVuSans-30" transform="translate(63.623047 0)"/>
       <use xlink:href="#DejaVuSans-30" transform="translate(127.246094 0)"/>
      </g>
     </g>
    </g>
    <g id="text_8">
     <!-- Count -->
     <g transform="translate(18.702813 115.257812) rotate(-90) scale(0.1 -0.1)">
      <defs>
       <path id="DejaVuSans-6f" d="M 1959 3097 
Q 1497 3097 1228 2736 
Q 959 2375 959 1747 
Q 959 1119 1226 758 
Q 1494 397 1959 397 
Q 2419 397 2687 759 
Q 2956 1122 2956 1747 
Q 2956 2369 2687 2733 
Q 2419 3097 1959 3097 
z
M 1959 3584 
Q 2709 3584 3137 3096 
Q 3566 2609 3566 1747 
Q 3566 888 3137 398 
Q 2709 -91 1959 -91 
Q 1206 -91 779 398 
Q 353 888 353 1747 
Q 353 2609 779 3096 
Q 1206 3584 1959 3584 
z
" transform="scale(0.015625)"/>
       <path id="DejaVuSans-75" d="M 544 1381 
L 544 3500 
L 1119 3500 
L 1119 1403 
Q 1119 906 1312 657 
Q 1506 409 1894 409 
Q 2359 409 2629 706 
Q 2900 1003 2900 1516 
L 2900 3500 
L 3475 3500 
L 3475 0 
L 2900 0 
L 2900 538 
Q 2691 219 2414 64 
Q 2138 -91 1772 -91 
Q 1169 -91 856 284 
Q 544 659 544 1381 
z
M 1991 3584 
L 1991 3584 
z
" transform="scale(0.015625)"/>
       <path id="DejaVuSans-6e" d="M 3513 2113 
L 3513 0 
L 2938 0 
L 2938 2094 
Q 2938 2591 2744 2837 
Q 2550 3084 2163 3084 
Q 1697 3084 1428 2787 
Q 1159 2491 1159 1978 
L 1159 0 
L 581 0 
L 581 3500 
L 1159 3500 
L 1159 2956 
Q 1366 3272 1645 3428 
Q 1925 3584 2291 3584 
Q 2894 3584 3203 3211 
Q 3513 2838 3513 2113 
z
" transform="scale(0.015625)"/>
      </defs>
      <use xlink:href="#DejaVuSans-43"/>
      <use xlink:href="#DejaVuSans-6f" transform="translate(69.824219 0)"/>
      <use xlink:href="#DejaVuSans-75" transform="translate(131.005859 0)"/>
      <use xlink:href="#DejaVuSans-6e" transform="translate(194.384766 0)"/>
      <use xlink:href="#DejaVuSans-74" transform="translate(257.763672 0)"/>
     </g>
    </g>
   </g>
   <g id="patch_3">
    <path d="M 60.726643 157.531369 
L 139.579789 157.531369 
L 139.579789 142.339349 
L 60.726643 142.339349 
L 60.726643 157.531369 
z
" clip-path="url(#pfc9c1d0e4d)" style="fill: #3274a1; stroke: #3f3f3f; stroke-linejoin: miter"/>
   </g>
   <g id="line2d_7">
    <path d="M 100.153216 157.531369 
L 100.153216 167.254261 
" clip-path="url(#pfc9c1d0e4d)" style="fill: none; stroke: #3f3f3f"/>
   </g>
   <g id="line2d_8">
    <path d="M 100.153216 142.339349 
L 100.153216 120.462841 
" clip-path="url(#pfc9c1d0e4d)" style="fill: none; stroke: #3f3f3f"/>
   </g>
   <g id="line2d_9">
    <path d="M 80.43993 167.254261 
L 119.866503 167.254261 
" clip-path="url(#pfc9c1d0e4d)" style="fill: none; stroke: #3f3f3f; stroke-linecap: square"/>
   </g>
   <g id="line2d_10">
    <path d="M 80.43993 120.462841 
L 119.866503 120.462841 
" clip-path="url(#pfc9c1d0e4d)" style="fill: none; stroke: #3f3f3f; stroke-linecap: square"/>
   </g>
   <g id="line2d_11">
    <defs>
     <path id="m06f5119916" d="M 0 3 
C 0.795609 3 1.55874 2.683901 2.12132 2.12132 
C 2.683901 1.55874 3 0.795609 3 0 
C 3 -0.795609 2.683901 -1.55874 2.12132 -2.12132 
C 1.55874 -2.683901 0.795609 -3 0 -3 
C -0.795609 -3 -1.55874 -2.683901 -2.12132 -2.12132 
C -2.683901 -1.55874 -3 -0.795609 -3 0 
C -3 0.795609 -2.683901 1.55874 -2.12132 2.12132 
C -1.55874 2.683901 -0.795609 3 0 3 
z
" style="stroke: #3f3f3f"/>
    </defs>
    <g clip-path="url(#pfc9c1d0e4d)">
     <use xlink:href="#m06f5119916" x="100.153216" y="87.040398" style="fill-opacity: 0; stroke: #3f3f3f"/>
     <use xlink:href="#m06f5119916" x="100.153216" y="71.240697" style="fill-opacity: 0; stroke: #3f3f3f"/>
     <use xlink:href="#m06f5119916" x="100.153216" y="118.032118" style="fill-opacity: 0; stroke: #3f3f3f"/>
     <use xlink:href="#m06f5119916" x="100.153216" y="104.66314" style="fill-opacity: 0; stroke: #3f3f3f"/>
     <use xlink:href="#m06f5119916" x="100.153216" y="79.748228" style="fill-opacity: 0; stroke: #3f3f3f"/>
     <use xlink:href="#m06f5119916" x="100.153216" y="79.748228" style="fill-opacity: 0; stroke: #3f3f3f"/>
     <use xlink:href="#m06f5119916" x="100.153216" y="110.132268" style="fill-opacity: 0; stroke: #3f3f3f"/>
     <use xlink:href="#m06f5119916" x="100.153216" y="68.809974" style="fill-opacity: 0; stroke: #3f3f3f"/>
     <use xlink:href="#m06f5119916" x="100.153216" y="84.609675" style="fill-opacity: 0; stroke: #3f3f3f"/>
     <use xlink:href="#m06f5119916" x="100.153216" y="87.648079" style="fill-opacity: 0; stroke: #3f3f3f"/>
     <use xlink:href="#m06f5119916" x="100.153216" y="111.95531" style="fill-opacity: 0; stroke: #3f3f3f"/>
     <use xlink:href="#m06f5119916" x="100.153216" y="99.801694" style="fill-opacity: 0; stroke: #3f3f3f"/>
     <use xlink:href="#m06f5119916" x="100.153216" y="106.486183" style="fill-opacity: 0; stroke: #3f3f3f"/>
     <use xlink:href="#m06f5119916" x="100.153216" y="73.06374" style="fill-opacity: 0; stroke: #3f3f3f"/>
     <use xlink:href="#m06f5119916" x="100.153216" y="66.379251" style="fill-opacity: 0; stroke: #3f3f3f"/>
     <use xlink:href="#m06f5119916" x="100.153216" y="33.564489" style="fill-opacity: 0; stroke: #3f3f3f"/>
     <use xlink:href="#m06f5119916" x="100.153216" y="113.778352" style="fill-opacity: 0; stroke: #3f3f3f"/>
     <use xlink:href="#m06f5119916" x="100.153216" y="91.901844" style="fill-opacity: 0; stroke: #3f3f3f"/>
     <use xlink:href="#m06f5119916" x="100.153216" y="109.524587" style="fill-opacity: 0; stroke: #3f3f3f"/>
     <use xlink:href="#m06f5119916" x="100.153216" y="114.993714" style="fill-opacity: 0; stroke: #3f3f3f"/>
     <use xlink:href="#m06f5119916" x="100.153216" y="91.901844" style="fill-opacity: 0; stroke: #3f3f3f"/>
     <use xlink:href="#m06f5119916" x="100.153216" y="99.194013" style="fill-opacity: 0; stroke: #3f3f3f"/>
     <use xlink:href="#m06f5119916" x="100.153216" y="101.017056" style="fill-opacity: 0; stroke: #3f3f3f"/>
     <use xlink:href="#m06f5119916" x="100.153216" y="107.701544" style="fill-opacity: 0; stroke: #3f3f3f"/>
     <use xlink:href="#m06f5119916" x="100.153216" y="78.532867" style="fill-opacity: 0; stroke: #3f3f3f"/>
     <use xlink:href="#m06f5119916" x="100.153216" y="117.424437" style="fill-opacity: 0; stroke: #3f3f3f"/>
     <use xlink:href="#m06f5119916" x="100.153216" y="107.093864" style="fill-opacity: 0; stroke: #3f3f3f"/>
     <use xlink:href="#m06f5119916" x="100.153216" y="97.978652" style="fill-opacity: 0; stroke: #3f3f3f"/>
     <use xlink:href="#m06f5119916" x="100.153216" y="114.386033" style="fill-opacity: 0; stroke: #3f3f3f"/>
     <use xlink:href="#m06f5119916" x="100.153216" y="96.15561" style="fill-opacity: 0; stroke: #3f3f3f"/>
     <use xlink:href="#m06f5119916" x="100.153216" y="45.718104" style="fill-opacity: 0; stroke: #3f3f3f"/>
     <use xlink:href="#m06f5119916" x="100.153216" y="114.386033" style="fill-opacity: 0; stroke: #3f3f3f"/>
     <use xlink:href="#m06f5119916" x="100.153216" y="113.778352" style="fill-opacity: 0; stroke: #3f3f3f"/>
     <use xlink:href="#m06f5119916" x="100.153216" y="119.247479" style="fill-opacity: 0; stroke: #3f3f3f"/>
     <use xlink:href="#m06f5119916" x="100.153216" y="103.447779" style="fill-opacity: 0; stroke: #3f3f3f"/>
     <use xlink:href="#m06f5119916" x="100.153216" y="106.486183" style="fill-opacity: 0; stroke: #3f3f3f"/>
    </g>
   </g>
   <g id="line2d_12">
    <path d="M 60.726643 152.669923 
L 139.579789 152.669923 
" clip-path="url(#pfc9c1d0e4d)" style="fill: none; stroke: #3f3f3f"/>
   </g>
   <g id="patch_4">
    <path d="M 50.87 173.93875 
L 50.87 26.88 
" style="fill: none; stroke: #000000; stroke-width: 0.8; stroke-linejoin: miter; stroke-linecap: square"/>
   </g>
   <g id="patch_5">
    <path d="M 149.436433 173.93875 
L 149.436433 26.88 
" style="fill: none; stroke: #000000; stroke-width: 0.8; stroke-linejoin: miter; stroke-linecap: square"/>
   </g>
   <g id="patch_6">
    <path d="M 50.87 173.93875 
L 149.436433 173.93875 
" style="fill: none; stroke: #000000; stroke-width: 0.8; stroke-linejoin: miter; stroke-linecap: square"/>
   </g>
   <g id="patch_7">
    <path d="M 50.87 26.88 
L 149.436433 26.88 
" style="fill: none; stroke: #000000; stroke-width: 0.8; stroke-linejoin: miter; stroke-linecap: square"/>
   </g>
   <g id="text_9">
    <!-- Root node count -->
    <g transform="translate(50.843529 20.88) scale(0.12 -0.12)">
     <defs>
      <path id="DejaVuSans-52" d="M 2841 2188 
Q 3044 2119 3236 1894 
Q 3428 1669 3622 1275 
L 4263 0 
L 3584 0 
L 2988 1197 
Q 2756 1666 2539 1819 
Q 2322 1972 1947 1972 
L 1259 1972 
L 1259 0 
L 628 0 
L 628 4666 
L 2053 4666 
Q 2853 4666 3247 4331 
Q 3641 3997 3641 3322 
Q 3641 2881 3436 2590 
Q 3231 2300 2841 2188 
z
M 1259 4147 
L 1259 2491 
L 2053 2491 
Q 2509 2491 2742 2702 
Q 2975 2913 2975 3322 
Q 2975 3731 2742 3939 
Q 2509 4147 2053 4147 
L 1259 4147 
z
" transform="scale(0.015625)"/>
      <path id="DejaVuSans-20" transform="scale(0.015625)"/>
      <path id="DejaVuSans-63" d="M 3122 3366 
L 3122 2828 
Q 2878 2963 2633 3030 
Q 2388 3097 2138 3097 
Q 1578 3097 1268 2742 
Q 959 2388 959 1747 
Q 959 1106 1268 751 
Q 1578 397 2138 397 
Q 2388 397 2633 464 
Q 2878 531 3122 666 
L 3122 134 
Q 2881 22 2623 -34 
Q 2366 -91 2075 -91 
Q 1284 -91 818 406 
Q 353 903 353 1747 
Q 353 2603 823 3093 
Q 1294 3584 2113 3584 
Q 2378 3584 2631 3529 
Q 2884 3475 3122 3366 
z
" transform="scale(0.015625)"/>
     </defs>
     <use xlink:href="#DejaVuSans-52"/>
     <use xlink:href="#DejaVuSans-6f" transform="translate(64.982422 0)"/>
     <use xlink:href="#DejaVuSans-6f" transform="translate(126.164062 0)"/>
     <use xlink:href="#DejaVuSans-74" transform="translate(187.345703 0)"/>
     <use xlink:href="#DejaVuSans-20" transform="translate(226.554688 0)"/>
     <use xlink:href="#DejaVuSans-6e" transform="translate(258.341797 0)"/>
     <use xlink:href="#DejaVuSans-6f" transform="translate(321.720703 0)"/>
     <use xlink:href="#DejaVuSans-64" transform="translate(382.902344 0)"/>
     <use xlink:href="#DejaVuSans-65" transform="translate(446.378906 0)"/>
     <use xlink:href="#DejaVuSans-20" transform="translate(507.902344 0)"/>
     <use xlink:href="#DejaVuSans-63" transform="translate(539.689453 0)"/>
     <use xlink:href="#DejaVuSans-6f" transform="translate(594.669922 0)"/>
     <use xlink:href="#DejaVuSans-75" transform="translate(655.851562 0)"/>
     <use xlink:href="#DejaVuSans-6e" transform="translate(719.230469 0)"/>
     <use xlink:href="#DejaVuSans-74" transform="translate(782.609375 0)"/>
    </g>
   </g>
  </g>
  <g id="axes_2">
   <g id="patch_8">
    <path d="M 203.456433 173.93875 
L 302.022865 173.93875 
L 302.022865 26.88 
L 203.456433 26.88 
z
" style="fill: #ffffff"/>
   </g>
   <g id="matplotlib.axis_3">
    <g id="xtick_2">
     <g id="line2d_13">
      <g>
       <use xlink:href="#mde6e846a59" x="252.739649" y="173.93875" style="stroke: #000000; stroke-width: 0.8"/>
      </g>
     </g>
     <g id="text_10">
      <!-- CDN -->
      <g transform="translate(241.657618 188.537188) scale(0.1 -0.1)">
       <use xlink:href="#DejaVuSans-43"/>
       <use xlink:href="#DejaVuSans-44" transform="translate(69.824219 0)"/>
       <use xlink:href="#DejaVuSans-4e" transform="translate(146.826172 0)"/>
      </g>
     </g>
    </g>
    <g id="text_11">
     <!-- dataset -->
     <g transform="translate(233.835743 202.215313) scale(0.1 -0.1)">
      <use xlink:href="#DejaVuSans-64"/>
      <use xlink:href="#DejaVuSans-61" transform="translate(63.476562 0)"/>
      <use xlink:href="#DejaVuSans-74" transform="translate(124.755859 0)"/>
      <use xlink:href="#DejaVuSans-61" transform="translate(163.964844 0)"/>
      <use xlink:href="#DejaVuSans-73" transform="translate(225.244141 0)"/>
      <use xlink:href="#DejaVuSans-65" transform="translate(277.34375 0)"/>
      <use xlink:href="#DejaVuSans-74" transform="translate(338.867188 0)"/>
     </g>
    </g>
   </g>
   <g id="matplotlib.axis_4">
    <g id="ytick_6">
     <g id="line2d_14">
      <g>
       <use xlink:href="#me8b99ecbdf" x="203.456433" y="161.566945" style="stroke: #000000; stroke-width: 0.8"/>
      </g>
     </g>
     <g id="text_12">
      <!-- 7.00 -->
      <g transform="translate(174.190808 165.366164) scale(0.1 -0.1)">
       <defs>
        <path id="DejaVuSans-37" d="M 525 4666 
L 3525 4666 
L 3525 4397 
L 1831 0 
L 1172 0 
L 2766 4134 
L 525 4134 
L 525 4666 
z
" transform="scale(0.015625)"/>
        <path id="DejaVuSans-2e" d="M 684 794 
L 1344 794 
L 1344 0 
L 684 0 
L 684 794 
z
" transform="scale(0.015625)"/>
       </defs>
       <use xlink:href="#DejaVuSans-37"/>
       <use xlink:href="#DejaVuSans-2e" transform="translate(63.623047 0)"/>
       <use xlink:href="#DejaVuSans-30" transform="translate(95.410156 0)"/>
       <use xlink:href="#DejaVuSans-30" transform="translate(159.033203 0)"/>
      </g>
     </g>
    </g>
    <g id="ytick_7">
     <g id="line2d_15">
      <g>
       <use xlink:href="#me8b99ecbdf" x="203.456433" y="138.770263" style="stroke: #000000; stroke-width: 0.8"/>
      </g>
     </g>
     <g id="text_13">
      <!-- 7.25 -->
      <g transform="translate(174.190808 142.569482) scale(0.1 -0.1)">
       <use xlink:href="#DejaVuSans-37"/>
       <use xlink:href="#DejaVuSans-2e" transform="translate(63.623047 0)"/>
       <use xlink:href="#DejaVuSans-32" transform="translate(95.410156 0)"/>
       <use xlink:href="#DejaVuSans-35" transform="translate(159.033203 0)"/>
      </g>
     </g>
    </g>
    <g id="ytick_8">
     <g id="line2d_16">
      <g>
       <use xlink:href="#me8b99ecbdf" x="203.456433" y="115.973582" style="stroke: #000000; stroke-width: 0.8"/>
      </g>
     </g>
     <g id="text_14">
      <!-- 7.50 -->
      <g transform="translate(174.190808 119.7728) scale(0.1 -0.1)">
       <use xlink:href="#DejaVuSans-37"/>
       <use xlink:href="#DejaVuSans-2e" transform="translate(63.623047 0)"/>
       <use xlink:href="#DejaVuSans-35" transform="translate(95.410156 0)"/>
       <use xlink:href="#DejaVuSans-30" transform="translate(159.033203 0)"/>
      </g>
     </g>
    </g>
    <g id="ytick_9">
     <g id="line2d_17">
      <g>
       <use xlink:href="#me8b99ecbdf" x="203.456433" y="93.1769" style="stroke: #000000; stroke-width: 0.8"/>
      </g>
     </g>
     <g id="text_15">
      <!-- 7.75 -->
      <g transform="translate(174.190808 96.976118) scale(0.1 -0.1)">
       <use xlink:href="#DejaVuSans-37"/>
       <use xlink:href="#DejaVuSans-2e" transform="translate(63.623047 0)"/>
       <use xlink:href="#DejaVuSans-37" transform="translate(95.410156 0)"/>
       <use xlink:href="#DejaVuSans-35" transform="translate(159.033203 0)"/>
      </g>
     </g>
    </g>
    <g id="ytick_10">
     <g id="line2d_18">
      <g>
       <use xlink:href="#me8b99ecbdf" x="203.456433" y="70.380218" style="stroke: #000000; stroke-width: 0.8"/>
      </g>
     </g>
     <g id="text_16">
      <!-- 8.00 -->
      <g transform="translate(174.190808 74.179437) scale(0.1 -0.1)">
       <defs>
        <path id="DejaVuSans-38" d="M 2034 2216 
Q 1584 2216 1326 1975 
Q 1069 1734 1069 1313 
Q 1069 891 1326 650 
Q 1584 409 2034 409 
Q 2484 409 2743 651 
Q 3003 894 3003 1313 
Q 3003 1734 2745 1975 
Q 2488 2216 2034 2216 
z
M 1403 2484 
Q 997 2584 770 2862 
Q 544 3141 544 3541 
Q 544 4100 942 4425 
Q 1341 4750 2034 4750 
Q 2731 4750 3128 4425 
Q 3525 4100 3525 3541 
Q 3525 3141 3298 2862 
Q 3072 2584 2669 2484 
Q 3125 2378 3379 2068 
Q 3634 1759 3634 1313 
Q 3634 634 3220 271 
Q 2806 -91 2034 -91 
Q 1263 -91 848 271 
Q 434 634 434 1313 
Q 434 1759 690 2068 
Q 947 2378 1403 2484 
z
M 1172 3481 
Q 1172 3119 1398 2916 
Q 1625 2713 2034 2713 
Q 2441 2713 2670 2916 
Q 2900 3119 2900 3481 
Q 2900 3844 2670 4047 
Q 2441 4250 2034 4250 
Q 1625 4250 1398 4047 
Q 1172 3844 1172 3481 
z
" transform="scale(0.015625)"/>
       </defs>
       <use xlink:href="#DejaVuSans-38"/>
       <use xlink:href="#DejaVuSans-2e" transform="translate(63.623047 0)"/>
       <use xlink:href="#DejaVuSans-30" transform="translate(95.410156 0)"/>
       <use xlink:href="#DejaVuSans-30" transform="translate(159.033203 0)"/>
      </g>
     </g>
    </g>
    <g id="ytick_11">
     <g id="line2d_19">
      <g>
       <use xlink:href="#me8b99ecbdf" x="203.456433" y="47.583536" style="stroke: #000000; stroke-width: 0.8"/>
      </g>
     </g>
     <g id="text_17">
      <!-- 8.25 -->
      <g transform="translate(174.190808 51.382755) scale(0.1 -0.1)">
       <use xlink:href="#DejaVuSans-38"/>
       <use xlink:href="#DejaVuSans-2e" transform="translate(63.623047 0)"/>
       <use xlink:href="#DejaVuSans-32" transform="translate(95.410156 0)"/>
       <use xlink:href="#DejaVuSans-35" transform="translate(159.033203 0)"/>
      </g>
     </g>
    </g>
    <g id="text_18">
     <!-- Time(Seconds) -->
     <g transform="translate(168.11112 137.551562) rotate(-90) scale(0.1 -0.1)">
      <defs>
       <path id="DejaVuSans-54" d="M -19 4666 
L 3928 4666 
L 3928 4134 
L 2272 4134 
L 2272 0 
L 1638 0 
L 1638 4134 
L -19 4134 
L -19 4666 
z
" transform="scale(0.015625)"/>
       <path id="DejaVuSans-69" d="M 603 3500 
L 1178 3500 
L 1178 0 
L 603 0 
L 603 3500 
z
M 603 4863 
L 1178 4863 
L 1178 4134 
L 603 4134 
L 603 4863 
z
" transform="scale(0.015625)"/>
       <path id="DejaVuSans-6d" d="M 3328 2828 
Q 3544 3216 3844 3400 
Q 4144 3584 4550 3584 
Q 5097 3584 5394 3201 
Q 5691 2819 5691 2113 
L 5691 0 
L 5113 0 
L 5113 2094 
Q 5113 2597 4934 2840 
Q 4756 3084 4391 3084 
Q 3944 3084 3684 2787 
Q 3425 2491 3425 1978 
L 3425 0 
L 2847 0 
L 2847 2094 
Q 2847 2600 2669 2842 
Q 2491 3084 2119 3084 
Q 1678 3084 1418 2786 
Q 1159 2488 1159 1978 
L 1159 0 
L 581 0 
L 581 3500 
L 1159 3500 
L 1159 2956 
Q 1356 3278 1631 3431 
Q 1906 3584 2284 3584 
Q 2666 3584 2933 3390 
Q 3200 3197 3328 2828 
z
" transform="scale(0.015625)"/>
       <path id="DejaVuSans-28" d="M 1984 4856 
Q 1566 4138 1362 3434 
Q 1159 2731 1159 2009 
Q 1159 1288 1364 580 
Q 1569 -128 1984 -844 
L 1484 -844 
Q 1016 -109 783 600 
Q 550 1309 550 2009 
Q 550 2706 781 3412 
Q 1013 4119 1484 4856 
L 1984 4856 
z
" transform="scale(0.015625)"/>
       <path id="DejaVuSans-53" d="M 3425 4513 
L 3425 3897 
Q 3066 4069 2747 4153 
Q 2428 4238 2131 4238 
Q 1616 4238 1336 4038 
Q 1056 3838 1056 3469 
Q 1056 3159 1242 3001 
Q 1428 2844 1947 2747 
L 2328 2669 
Q 3034 2534 3370 2195 
Q 3706 1856 3706 1288 
Q 3706 609 3251 259 
Q 2797 -91 1919 -91 
Q 1588 -91 1214 -16 
Q 841 59 441 206 
L 441 856 
Q 825 641 1194 531 
Q 1563 422 1919 422 
Q 2459 422 2753 634 
Q 3047 847 3047 1241 
Q 3047 1584 2836 1778 
Q 2625 1972 2144 2069 
L 1759 2144 
Q 1053 2284 737 2584 
Q 422 2884 422 3419 
Q 422 4038 858 4394 
Q 1294 4750 2059 4750 
Q 2388 4750 2728 4690 
Q 3069 4631 3425 4513 
z
" transform="scale(0.015625)"/>
       <path id="DejaVuSans-29" d="M 513 4856 
L 1013 4856 
Q 1481 4119 1714 3412 
Q 1947 2706 1947 2009 
Q 1947 1309 1714 600 
Q 1481 -109 1013 -844 
L 513 -844 
Q 928 -128 1133 580 
Q 1338 1288 1338 2009 
Q 1338 2731 1133 3434 
Q 928 4138 513 4856 
z
" transform="scale(0.015625)"/>
      </defs>
      <use xlink:href="#DejaVuSans-54"/>
      <use xlink:href="#DejaVuSans-69" transform="translate(57.958984 0)"/>
      <use xlink:href="#DejaVuSans-6d" transform="translate(85.742188 0)"/>
      <use xlink:href="#DejaVuSans-65" transform="translate(183.154297 0)"/>
      <use xlink:href="#DejaVuSans-28" transform="translate(244.677734 0)"/>
      <use xlink:href="#DejaVuSans-53" transform="translate(283.691406 0)"/>
      <use xlink:href="#DejaVuSans-65" transform="translate(347.167969 0)"/>
      <use xlink:href="#DejaVuSans-63" transform="translate(408.691406 0)"/>
      <use xlink:href="#DejaVuSans-6f" transform="translate(463.671875 0)"/>
      <use xlink:href="#DejaVuSans-6e" transform="translate(524.853516 0)"/>
      <use xlink:href="#DejaVuSans-64" transform="translate(588.232422 0)"/>
      <use xlink:href="#DejaVuSans-73" transform="translate(651.708984 0)"/>
      <use xlink:href="#DejaVuSans-29" transform="translate(703.808594 0)"/>
     </g>
    </g>
   </g>
   <g id="patch_9">
    <path d="M 213.313076 140.010403 
L 292.166222 140.010403 
L 292.166222 122.198899 
L 213.313076 122.198899 
L 213.313076 140.010403 
z
" clip-path="url(#pbbf5c0dc65)" style="fill: #3274a1; stroke: #3f3f3f; stroke-linejoin: miter"/>
   </g>
   <g id="line2d_20">
    <path d="M 252.739649 140.010403 
L 252.739649 160.417992 
" clip-path="url(#pbbf5c0dc65)" style="fill: none; stroke: #3f3f3f"/>
   </g>
   <g id="line2d_21">
    <path d="M 252.739649 122.198899 
L 252.739649 95.605202 
" clip-path="url(#pbbf5c0dc65)" style="fill: none; stroke: #3f3f3f"/>
   </g>
   <g id="line2d_22">
    <path d="M 233.026362 160.417992 
L 272.452935 160.417992 
" clip-path="url(#pbbf5c0dc65)" style="fill: none; stroke: #3f3f3f; stroke-linecap: square"/>
   </g>
   <g id="line2d_23">
    <path d="M 233.026362 95.605202 
L 272.452935 95.605202 
" clip-path="url(#pbbf5c0dc65)" style="fill: none; stroke: #3f3f3f; stroke-linecap: square"/>
   </g>
   <g id="line2d_24">
    <g clip-path="url(#pbbf5c0dc65)">
     <use xlink:href="#m06f5119916" x="252.739649" y="167.254261" style="fill-opacity: 0; stroke: #3f3f3f"/>
     <use xlink:href="#m06f5119916" x="252.739649" y="88.990517" style="fill-opacity: 0; stroke: #3f3f3f"/>
     <use xlink:href="#m06f5119916" x="252.739649" y="86.67255" style="fill-opacity: 0; stroke: #3f3f3f"/>
     <use xlink:href="#m06f5119916" x="252.739649" y="74.890313" style="fill-opacity: 0; stroke: #3f3f3f"/>
     <use xlink:href="#m06f5119916" x="252.739649" y="83.069763" style="fill-opacity: 0; stroke: #3f3f3f"/>
     <use xlink:href="#m06f5119916" x="252.739649" y="90.816075" style="fill-opacity: 0; stroke: #3f3f3f"/>
     <use xlink:href="#m06f5119916" x="252.739649" y="66.414507" style="fill-opacity: 0; stroke: #3f3f3f"/>
     <use xlink:href="#m06f5119916" x="252.739649" y="85.105051" style="fill-opacity: 0; stroke: #3f3f3f"/>
     <use xlink:href="#m06f5119916" x="252.739649" y="81.291622" style="fill-opacity: 0; stroke: #3f3f3f"/>
     <use xlink:href="#m06f5119916" x="252.739649" y="77.363297" style="fill-opacity: 0; stroke: #3f3f3f"/>
     <use xlink:href="#m06f5119916" x="252.739649" y="45.264658" style="fill-opacity: 0; stroke: #3f3f3f"/>
     <use xlink:href="#m06f5119916" x="252.739649" y="80.539331" style="fill-opacity: 0; stroke: #3f3f3f"/>
     <use xlink:href="#m06f5119916" x="252.739649" y="75.332569" style="fill-opacity: 0; stroke: #3f3f3f"/>
     <use xlink:href="#m06f5119916" x="252.739649" y="94.695159" style="fill-opacity: 0; stroke: #3f3f3f"/>
     <use xlink:href="#m06f5119916" x="252.739649" y="49.5632" style="fill-opacity: 0; stroke: #3f3f3f"/>
     <use xlink:href="#m06f5119916" x="252.739649" y="59.218962" style="fill-opacity: 0; stroke: #3f3f3f"/>
     <use xlink:href="#m06f5119916" x="252.739649" y="33.564489" style="fill-opacity: 0; stroke: #3f3f3f"/>
     <use xlink:href="#m06f5119916" x="252.739649" y="91.509094" style="fill-opacity: 0; stroke: #3f3f3f"/>
    </g>
   </g>
   <g id="line2d_25">
    <path d="M 213.313076 131.015744 
L 292.166222 131.015744 
" clip-path="url(#pbbf5c0dc65)" style="fill: none; stroke: #3f3f3f"/>
   </g>
   <g id="patch_10">
    <path d="M 203.456433 173.93875 
L 203.456433 26.88 
" style="fill: none; stroke: #000000; stroke-width: 0.8; stroke-linejoin: miter; stroke-linecap: square"/>
   </g>
   <g id="patch_11">
    <path d="M 302.022865 173.93875 
L 302.022865 26.88 
" style="fill: none; stroke: #000000; stroke-width: 0.8; stroke-linejoin: miter; stroke-linecap: square"/>
   </g>
   <g id="patch_12">
    <path d="M 203.456433 173.93875 
L 302.022865 173.93875 
" style="fill: none; stroke: #000000; stroke-width: 0.8; stroke-linejoin: miter; stroke-linecap: square"/>
   </g>
   <g id="patch_13">
    <path d="M 203.456433 26.88 
L 302.022865 26.88 
" style="fill: none; stroke: #000000; stroke-width: 0.8; stroke-linejoin: miter; stroke-linecap: square"/>
   </g>
   <g id="text_19">
    <!-- Run time -->
    <g transform="translate(225.773399 20.88) scale(0.12 -0.12)">
     <use xlink:href="#DejaVuSans-52"/>
     <use xlink:href="#DejaVuSans-75" transform="translate(64.982422 0)"/>
     <use xlink:href="#DejaVuSans-6e" transform="translate(128.361328 0)"/>
     <use xlink:href="#DejaVuSans-20" transform="translate(191.740234 0)"/>
     <use xlink:href="#DejaVuSans-74" transform="translate(223.527344 0)"/>
     <use xlink:href="#DejaVuSans-69" transform="translate(262.736328 0)"/>
     <use xlink:href="#DejaVuSans-6d" transform="translate(290.519531 0)"/>
     <use xlink:href="#DejaVuSans-65" transform="translate(387.931641 0)"/>
    </g>
   </g>
  </g>
  <g id="axes_3">
   <g id="patch_14">
    <path d="M 356.042865 173.93875 
L 454.609298 173.93875 
L 454.609298 26.88 
L 356.042865 26.88 
z
" style="fill: #ffffff"/>
   </g>
   <g id="matplotlib.axis_5">
    <g id="xtick_3">
     <g id="line2d_26">
      <g>
       <use xlink:href="#mde6e846a59" x="405.326081" y="173.93875" style="stroke: #000000; stroke-width: 0.8"/>
      </g>
     </g>
     <g id="text_20">
      <!-- CDN -->
      <g transform="translate(394.24405 188.537188) scale(0.1 -0.1)">
       <use xlink:href="#DejaVuSans-43"/>
       <use xlink:href="#DejaVuSans-44" transform="translate(69.824219 0)"/>
       <use xlink:href="#DejaVuSans-4e" transform="translate(146.826172 0)"/>
      </g>
     </g>
    </g>
    <g id="text_21">
     <!-- dataset -->
     <g transform="translate(386.422175 202.215313) scale(0.1 -0.1)">
      <use xlink:href="#DejaVuSans-64"/>
      <use xlink:href="#DejaVuSans-61" transform="translate(63.476562 0)"/>
      <use xlink:href="#DejaVuSans-74" transform="translate(124.755859 0)"/>
      <use xlink:href="#DejaVuSans-61" transform="translate(163.964844 0)"/>
      <use xlink:href="#DejaVuSans-73" transform="translate(225.244141 0)"/>
      <use xlink:href="#DejaVuSans-65" transform="translate(277.34375 0)"/>
      <use xlink:href="#DejaVuSans-74" transform="translate(338.867188 0)"/>
     </g>
    </g>
   </g>
   <g id="matplotlib.axis_6">
    <g id="ytick_12">
     <g id="line2d_27">
      <g>
       <use xlink:href="#me8b99ecbdf" x="356.042865" y="169.510973" style="stroke: #000000; stroke-width: 0.8"/>
      </g>
     </g>
     <g id="text_22">
      <!-- 0 -->
      <g transform="translate(342.680365 173.310192) scale(0.1 -0.1)">
       <use xlink:href="#DejaVuSans-30"/>
      </g>
     </g>
    </g>
    <g id="ytick_13">
     <g id="line2d_28">
      <g>
       <use xlink:href="#me8b99ecbdf" x="356.042865" y="142.321676" style="stroke: #000000; stroke-width: 0.8"/>
      </g>
     </g>
     <g id="text_23">
      <!-- 20 -->
      <g transform="translate(336.317865 146.120895) scale(0.1 -0.1)">
       <use xlink:href="#DejaVuSans-32"/>
       <use xlink:href="#DejaVuSans-30" transform="translate(63.623047 0)"/>
      </g>
     </g>
    </g>
    <g id="ytick_14">
     <g id="line2d_29">
      <g>
       <use xlink:href="#me8b99ecbdf" x="356.042865" y="115.132379" style="stroke: #000000; stroke-width: 0.8"/>
      </g>
     </g>
     <g id="text_24">
      <!-- 40 -->
      <g transform="translate(336.317865 118.931598) scale(0.1 -0.1)">
       <defs>
        <path id="DejaVuSans-34" d="M 2419 4116 
L 825 1625 
L 2419 1625 
L 2419 4116 
z
M 2253 4666 
L 3047 4666 
L 3047 1625 
L 3713 1625 
L 3713 1100 
L 3047 1100 
L 3047 0 
L 2419 0 
L 2419 1100 
L 313 1100 
L 313 1709 
L 2253 4666 
z
" transform="scale(0.015625)"/>
       </defs>
       <use xlink:href="#DejaVuSans-34"/>
       <use xlink:href="#DejaVuSans-30" transform="translate(63.623047 0)"/>
      </g>
     </g>
    </g>
    <g id="ytick_15">
     <g id="line2d_30">
      <g>
       <use xlink:href="#me8b99ecbdf" x="356.042865" y="87.943082" style="stroke: #000000; stroke-width: 0.8"/>
      </g>
     </g>
     <g id="text_25">
      <!-- 60 -->
      <g transform="translate(336.317865 91.742301) scale(0.1 -0.1)">
       <defs>
        <path id="DejaVuSans-36" d="M 2113 2584 
Q 1688 2584 1439 2293 
Q 1191 2003 1191 1497 
Q 1191 994 1439 701 
Q 1688 409 2113 409 
Q 2538 409 2786 701 
Q 3034 994 3034 1497 
Q 3034 2003 2786 2293 
Q 2538 2584 2113 2584 
z
M 3366 4563 
L 3366 3988 
Q 3128 4100 2886 4159 
Q 2644 4219 2406 4219 
Q 1781 4219 1451 3797 
Q 1122 3375 1075 2522 
Q 1259 2794 1537 2939 
Q 1816 3084 2150 3084 
Q 2853 3084 3261 2657 
Q 3669 2231 3669 1497 
Q 3669 778 3244 343 
Q 2819 -91 2113 -91 
Q 1303 -91 875 529 
Q 447 1150 447 2328 
Q 447 3434 972 4092 
Q 1497 4750 2381 4750 
Q 2619 4750 2861 4703 
Q 3103 4656 3366 4563 
z
" transform="scale(0.015625)"/>
       </defs>
       <use xlink:href="#DejaVuSans-36"/>
       <use xlink:href="#DejaVuSans-30" transform="translate(63.623047 0)"/>
      </g>
     </g>
    </g>
    <g id="ytick_16">
     <g id="line2d_31">
      <g>
       <use xlink:href="#me8b99ecbdf" x="356.042865" y="60.753786" style="stroke: #000000; stroke-width: 0.8"/>
      </g>
     </g>
     <g id="text_26">
      <!-- 80 -->
      <g transform="translate(336.317865 64.553004) scale(0.1 -0.1)">
       <use xlink:href="#DejaVuSans-38"/>
       <use xlink:href="#DejaVuSans-30" transform="translate(63.623047 0)"/>
      </g>
     </g>
    </g>
    <g id="ytick_17">
     <g id="line2d_32">
      <g>
       <use xlink:href="#me8b99ecbdf" x="356.042865" y="33.564489" style="stroke: #000000; stroke-width: 0.8"/>
      </g>
     </g>
     <g id="text_27">
      <!-- 100 -->
      <g transform="translate(329.955365 37.363707) scale(0.1 -0.1)">
       <use xlink:href="#DejaVuSans-31"/>
       <use xlink:href="#DejaVuSans-30" transform="translate(63.623047 0)"/>
       <use xlink:href="#DejaVuSans-30" transform="translate(127.246094 0)"/>
      </g>
     </g>
    </g>
    <g id="text_28">
     <!-- Percent -->
     <g transform="translate(323.875678 119.217187) rotate(-90) scale(0.1 -0.1)">
      <defs>
       <path id="DejaVuSans-50" d="M 1259 4147 
L 1259 2394 
L 2053 2394 
Q 2494 2394 2734 2622 
Q 2975 2850 2975 3272 
Q 2975 3691 2734 3919 
Q 2494 4147 2053 4147 
L 1259 4147 
z
M 628 4666 
L 2053 4666 
Q 2838 4666 3239 4311 
Q 3641 3956 3641 3272 
Q 3641 2581 3239 2228 
Q 2838 1875 2053 1875 
L 1259 1875 
L 1259 0 
L 628 0 
L 628 4666 
z
" transform="scale(0.015625)"/>
       <path id="DejaVuSans-72" d="M 2631 2963 
Q 2534 3019 2420 3045 
Q 2306 3072 2169 3072 
Q 1681 3072 1420 2755 
Q 1159 2438 1159 1844 
L 1159 0 
L 581 0 
L 581 3500 
L 1159 3500 
L 1159 2956 
Q 1341 3275 1631 3429 
Q 1922 3584 2338 3584 
Q 2397 3584 2469 3576 
Q 2541 3569 2628 3553 
L 2631 2963 
z
" transform="scale(0.015625)"/>
      </defs>
      <use xlink:href="#DejaVuSans-50"/>
      <use xlink:href="#DejaVuSans-65" transform="translate(56.677734 0)"/>
      <use xlink:href="#DejaVuSans-72" transform="translate(118.201172 0)"/>
      <use xlink:href="#DejaVuSans-63" transform="translate(157.064453 0)"/>
      <use xlink:href="#DejaVuSans-65" transform="translate(212.044922 0)"/>
      <use xlink:href="#DejaVuSans-6e" transform="translate(273.568359 0)"/>
      <use xlink:href="#DejaVuSans-74" transform="translate(336.947266 0)"/>
     </g>
    </g>
   </g>
   <g id="patch_15">
    <path d="M 365.899508 158.410943 
L 444.752655 158.410943 
L 444.752655 149.859909 
L 365.899508 149.859909 
L 365.899508 158.410943 
z
" clip-path="url(#pe06212613e)" style="fill: #3274a1; stroke: #3f3f3f; stroke-linejoin: miter"/>
   </g>
   <g id="line2d_33">
    <path d="M 405.326081 158.410943 
L 405.326081 167.254261 
" clip-path="url(#pe06212613e)" style="fill: none; stroke: #3f3f3f"/>
   </g>
   <g id="line2d_34">
    <path d="M 405.326081 149.859909 
L 405.326081 138.148119 
" clip-path="url(#pe06212613e)" style="fill: none; stroke: #3f3f3f"/>
   </g>
   <g id="line2d_35">
    <path d="M 385.612795 167.254261 
L 425.039368 167.254261 
" clip-path="url(#pe06212613e)" style="fill: none; stroke: #3f3f3f; stroke-linecap: square"/>
   </g>
   <g id="line2d_36">
    <path d="M 385.612795 138.148119 
L 425.039368 138.148119 
" clip-path="url(#pe06212613e)" style="fill: none; stroke: #3f3f3f; stroke-linecap: square"/>
   </g>
   <g id="line2d_37">
    <g clip-path="url(#pe06212613e)">
     <use xlink:href="#m06f5119916" x="405.326081" y="136.652708" style="fill-opacity: 0; stroke: #3f3f3f"/>
     <use xlink:href="#m06f5119916" x="405.326081" y="123.153222" style="fill-opacity: 0; stroke: #3f3f3f"/>
     <use xlink:href="#m06f5119916" x="405.326081" y="131.500336" style="fill-opacity: 0; stroke: #3f3f3f"/>
     <use xlink:href="#m06f5119916" x="405.326081" y="136.883817" style="fill-opacity: 0; stroke: #3f3f3f"/>
     <use xlink:href="#m06f5119916" x="405.326081" y="131.459552" style="fill-opacity: 0; stroke: #3f3f3f"/>
     <use xlink:href="#m06f5119916" x="405.326081" y="129.365976" style="fill-opacity: 0; stroke: #3f3f3f"/>
     <use xlink:href="#m06f5119916" x="405.326081" y="136.462383" style="fill-opacity: 0; stroke: #3f3f3f"/>
     <use xlink:href="#m06f5119916" x="405.326081" y="134.341617" style="fill-opacity: 0; stroke: #3f3f3f"/>
     <use xlink:href="#m06f5119916" x="405.326081" y="99.45775" style="fill-opacity: 0; stroke: #3f3f3f"/>
     <use xlink:href="#m06f5119916" x="405.326081" y="134.708673" style="fill-opacity: 0; stroke: #3f3f3f"/>
     <use xlink:href="#m06f5119916" x="405.326081" y="129.270814" style="fill-opacity: 0; stroke: #3f3f3f"/>
     <use xlink:href="#m06f5119916" x="405.326081" y="122.500679" style="fill-opacity: 0; stroke: #3f3f3f"/>
     <use xlink:href="#m06f5119916" x="405.326081" y="93.027481" style="fill-opacity: 0; stroke: #3f3f3f"/>
     <use xlink:href="#m06f5119916" x="405.326081" y="97.975933" style="fill-opacity: 0; stroke: #3f3f3f"/>
     <use xlink:href="#m06f5119916" x="405.326081" y="134.477564" style="fill-opacity: 0; stroke: #3f3f3f"/>
     <use xlink:href="#m06f5119916" x="405.326081" y="110.958822" style="fill-opacity: 0; stroke: #3f3f3f"/>
     <use xlink:href="#m06f5119916" x="405.326081" y="117.185171" style="fill-opacity: 0; stroke: #3f3f3f"/>
     <use xlink:href="#m06f5119916" x="405.326081" y="135.143702" style="fill-opacity: 0; stroke: #3f3f3f"/>
     <use xlink:href="#m06f5119916" x="405.326081" y="134.192076" style="fill-opacity: 0; stroke: #3f3f3f"/>
     <use xlink:href="#m06f5119916" x="405.326081" y="108.14473" style="fill-opacity: 0; stroke: #3f3f3f"/>
     <use xlink:href="#m06f5119916" x="405.326081" y="117.728957" style="fill-opacity: 0; stroke: #3f3f3f"/>
     <use xlink:href="#m06f5119916" x="405.326081" y="110.211117" style="fill-opacity: 0; stroke: #3f3f3f"/>
     <use xlink:href="#m06f5119916" x="405.326081" y="132.615097" style="fill-opacity: 0; stroke: #3f3f3f"/>
     <use xlink:href="#m06f5119916" x="405.326081" y="33.564489" style="fill-opacity: 0; stroke: #3f3f3f"/>
     <use xlink:href="#m06f5119916" x="405.326081" y="135.306838" style="fill-opacity: 0; stroke: #3f3f3f"/>
     <use xlink:href="#m06f5119916" x="405.326081" y="116.994846" style="fill-opacity: 0; stroke: #3f3f3f"/>
     <use xlink:href="#m06f5119916" x="405.326081" y="92.837156" style="fill-opacity: 0; stroke: #3f3f3f"/>
     <use xlink:href="#m06f5119916" x="405.326081" y="119.37391" style="fill-opacity: 0; stroke: #3f3f3f"/>
     <use xlink:href="#m06f5119916" x="405.326081" y="128.047295" style="fill-opacity: 0; stroke: #3f3f3f"/>
     <use xlink:href="#m06f5119916" x="405.326081" y="100.490943" style="fill-opacity: 0; stroke: #3f3f3f"/>
     <use xlink:href="#m06f5119916" x="405.326081" y="132.50634" style="fill-opacity: 0; stroke: #3f3f3f"/>
     <use xlink:href="#m06f5119916" x="405.326081" y="124.485497" style="fill-opacity: 0; stroke: #3f3f3f"/>
     <use xlink:href="#m06f5119916" x="405.326081" y="76.387631" style="fill-opacity: 0; stroke: #3f3f3f"/>
     <use xlink:href="#m06f5119916" x="405.326081" y="134.287239" style="fill-opacity: 0; stroke: #3f3f3f"/>
     <use xlink:href="#m06f5119916" x="405.326081" y="100.463754" style="fill-opacity: 0; stroke: #3f3f3f"/>
     <use xlink:href="#m06f5119916" x="405.326081" y="112.930046" style="fill-opacity: 0; stroke: #3f3f3f"/>
     <use xlink:href="#m06f5119916" x="405.326081" y="57.436691" style="fill-opacity: 0; stroke: #3f3f3f"/>
     <use xlink:href="#m06f5119916" x="405.326081" y="106.323047" style="fill-opacity: 0; stroke: #3f3f3f"/>
     <use xlink:href="#m06f5119916" x="405.326081" y="105.140313" style="fill-opacity: 0; stroke: #3f3f3f"/>
     <use xlink:href="#m06f5119916" x="405.326081" y="123.397926" style="fill-opacity: 0; stroke: #3f3f3f"/>
     <use xlink:href="#m06f5119916" x="405.326081" y="129.828194" style="fill-opacity: 0; stroke: #3f3f3f"/>
     <use xlink:href="#m06f5119916" x="405.326081" y="61.93652" style="fill-opacity: 0; stroke: #3f3f3f"/>
     <use xlink:href="#m06f5119916" x="405.326081" y="101.089107" style="fill-opacity: 0; stroke: #3f3f3f"/>
     <use xlink:href="#m06f5119916" x="405.326081" y="127.952133" style="fill-opacity: 0; stroke: #3f3f3f"/>
     <use xlink:href="#m06f5119916" x="405.326081" y="101.374595" style="fill-opacity: 0; stroke: #3f3f3f"/>
     <use xlink:href="#m06f5119916" x="405.326081" y="127.027697" style="fill-opacity: 0; stroke: #3f3f3f"/>
     <use xlink:href="#m06f5119916" x="405.326081" y="105.140313" style="fill-opacity: 0; stroke: #3f3f3f"/>
     <use xlink:href="#m06f5119916" x="405.326081" y="131.772229" style="fill-opacity: 0; stroke: #3f3f3f"/>
    </g>
   </g>
   <g id="line2d_38">
    <path d="M 365.899508 154.339345 
L 444.752655 154.339345 
" clip-path="url(#pe06212613e)" style="fill: none; stroke: #3f3f3f"/>
   </g>
   <g id="patch_16">
    <path d="M 356.042865 173.93875 
L 356.042865 26.88 
" style="fill: none; stroke: #000000; stroke-width: 0.8; stroke-linejoin: miter; stroke-linecap: square"/>
   </g>
   <g id="patch_17">
    <path d="M 454.609298 173.93875 
L 454.609298 26.88 
" style="fill: none; stroke: #000000; stroke-width: 0.8; stroke-linejoin: miter; stroke-linecap: square"/>
   </g>
   <g id="patch_18">
    <path d="M 356.042865 173.93875 
L 454.609298 173.93875 
" style="fill: none; stroke: #000000; stroke-width: 0.8; stroke-linejoin: miter; stroke-linecap: square"/>
   </g>
   <g id="patch_19">
    <path d="M 356.042865 26.88 
L 454.609298 26.88 
" style="fill: none; stroke: #000000; stroke-width: 0.8; stroke-linejoin: miter; stroke-linecap: square"/>
   </g>
   <g id="text_29">
    <!-- Gene Frequency Coverage -->
    <g transform="translate(325.932956 20.88) scale(0.12 -0.12)">
     <defs>
      <path id="DejaVuSans-47" d="M 3809 666 
L 3809 1919 
L 2778 1919 
L 2778 2438 
L 4434 2438 
L 4434 434 
Q 4069 175 3628 42 
Q 3188 -91 2688 -91 
Q 1594 -91 976 548 
Q 359 1188 359 2328 
Q 359 3472 976 4111 
Q 1594 4750 2688 4750 
Q 3144 4750 3555 4637 
Q 3966 4525 4313 4306 
L 4313 3634 
Q 3963 3931 3569 4081 
Q 3175 4231 2741 4231 
Q 1884 4231 1454 3753 
Q 1025 3275 1025 2328 
Q 1025 1384 1454 906 
Q 1884 428 2741 428 
Q 3075 428 3337 486 
Q 3600 544 3809 666 
z
" transform="scale(0.015625)"/>
      <path id="DejaVuSans-46" d="M 628 4666 
L 3309 4666 
L 3309 4134 
L 1259 4134 
L 1259 2759 
L 3109 2759 
L 3109 2228 
L 1259 2228 
L 1259 0 
L 628 0 
L 628 4666 
z
" transform="scale(0.015625)"/>
      <path id="DejaVuSans-71" d="M 947 1747 
Q 947 1113 1208 752 
Q 1469 391 1925 391 
Q 2381 391 2643 752 
Q 2906 1113 2906 1747 
Q 2906 2381 2643 2742 
Q 2381 3103 1925 3103 
Q 1469 3103 1208 2742 
Q 947 2381 947 1747 
z
M 2906 525 
Q 2725 213 2448 61 
Q 2172 -91 1784 -91 
Q 1150 -91 751 415 
Q 353 922 353 1747 
Q 353 2572 751 3078 
Q 1150 3584 1784 3584 
Q 2172 3584 2448 3432 
Q 2725 3281 2906 2969 
L 2906 3500 
L 3481 3500 
L 3481 -1331 
L 2906 -1331 
L 2906 525 
z
" transform="scale(0.015625)"/>
      <path id="DejaVuSans-79" d="M 2059 -325 
Q 1816 -950 1584 -1140 
Q 1353 -1331 966 -1331 
L 506 -1331 
L 506 -850 
L 844 -850 
Q 1081 -850 1212 -737 
Q 1344 -625 1503 -206 
L 1606 56 
L 191 3500 
L 800 3500 
L 1894 763 
L 2988 3500 
L 3597 3500 
L 2059 -325 
z
" transform="scale(0.015625)"/>
      <path id="DejaVuSans-76" d="M 191 3500 
L 800 3500 
L 1894 563 
L 2988 3500 
L 3597 3500 
L 2284 0 
L 1503 0 
L 191 3500 
z
" transform="scale(0.015625)"/>
      <path id="DejaVuSans-67" d="M 2906 1791 
Q 2906 2416 2648 2759 
Q 2391 3103 1925 3103 
Q 1463 3103 1205 2759 
Q 947 2416 947 1791 
Q 947 1169 1205 825 
Q 1463 481 1925 481 
Q 2391 481 2648 825 
Q 2906 1169 2906 1791 
z
M 3481 434 
Q 3481 -459 3084 -895 
Q 2688 -1331 1869 -1331 
Q 1566 -1331 1297 -1286 
Q 1028 -1241 775 -1147 
L 775 -588 
Q 1028 -725 1275 -790 
Q 1522 -856 1778 -856 
Q 2344 -856 2625 -561 
Q 2906 -266 2906 331 
L 2906 616 
Q 2728 306 2450 153 
Q 2172 0 1784 0 
Q 1141 0 747 490 
Q 353 981 353 1791 
Q 353 2603 747 3093 
Q 1141 3584 1784 3584 
Q 2172 3584 2450 3431 
Q 2728 3278 2906 2969 
L 2906 3500 
L 3481 3500 
L 3481 434 
z
" transform="scale(0.015625)"/>
     </defs>
     <use xlink:href="#DejaVuSans-47"/>
     <use xlink:href="#DejaVuSans-65" transform="translate(77.490234 0)"/>
     <use xlink:href="#DejaVuSans-6e" transform="translate(139.013672 0)"/>
     <use xlink:href="#DejaVuSans-65" transform="translate(202.392578 0)"/>
     <use xlink:href="#DejaVuSans-20" transform="translate(263.916016 0)"/>
     <use xlink:href="#DejaVuSans-46" transform="translate(295.703125 0)"/>
     <use xlink:href="#DejaVuSans-72" transform="translate(345.972656 0)"/>
     <use xlink:href="#DejaVuSans-65" transform="translate(384.835938 0)"/>
     <use xlink:href="#DejaVuSans-71" transform="translate(446.359375 0)"/>
     <use xlink:href="#DejaVuSans-75" transform="translate(509.835938 0)"/>
     <use xlink:href="#DejaVuSans-65" transform="translate(573.214844 0)"/>
     <use xlink:href="#DejaVuSans-6e" transform="translate(634.738281 0)"/>
     <use xlink:href="#DejaVuSans-63" transform="translate(698.117188 0)"/>
     <use xlink:href="#DejaVuSans-79" transform="translate(753.097656 0)"/>
     <use xlink:href="#DejaVuSans-20" transform="translate(812.277344 0)"/>
     <use xlink:href="#DejaVuSans-43" transform="translate(844.064453 0)"/>
     <use xlink:href="#DejaVuSans-6f" transform="translate(913.888672 0)"/>
     <use xlink:href="#DejaVuSans-76" transform="translate(975.070312 0)"/>
     <use xlink:href="#DejaVuSans-65" transform="translate(1034.25 0)"/>
     <use xlink:href="#DejaVuSans-72" transform="translate(1095.773438 0)"/>
     <use xlink:href="#DejaVuSans-61" transform="translate(1136.886719 0)"/>
     <use xlink:href="#DejaVuSans-67" transform="translate(1198.166016 0)"/>
     <use xlink:href="#DejaVuSans-65" transform="translate(1261.642578 0)"/>
    </g>
   </g>
  </g>
  <g id="axes_4">
   <g id="patch_20">
    <path d="M 508.629298 173.93875 
L 705.762163 173.93875 
L 705.762163 26.88 
L 508.629298 26.88 
z
" style="fill: #ffffff"/>
   </g>
   <g id="FillBetweenPolyCollection_1">
    <defs>
     <path id="m61d48d67f7" d="M 517.589883 -42.072426 
L 517.589883 -42.06125 
L 518.490444 -42.06125 
L 519.391005 -42.06125 
L 520.291566 -42.06125 
L 521.192128 -42.06125 
L 522.092689 -42.06125 
L 522.99325 -42.06125 
L 523.893812 -42.06125 
L 524.794373 -42.06125 
L 525.694934 -42.06125 
L 526.595495 -42.06125 
L 527.496057 -42.06125 
L 528.396618 -42.06125 
L 529.297179 -42.06125 
L 530.197741 -42.06125 
L 531.098302 -42.06125 
L 531.998863 -42.06125 
L 532.899424 -42.06125 
L 533.799986 -42.06125 
L 534.700547 -42.06125 
L 535.601108 -42.06125 
L 536.50167 -42.06125 
L 537.402231 -42.06125 
L 538.302792 -42.06125 
L 539.203353 -42.06125 
L 540.103915 -42.06125 
L 541.004476 -42.06125 
L 541.905037 -42.06125 
L 542.805599 -42.06125 
L 543.70616 -42.06125 
L 544.606721 -42.06125 
L 545.507282 -42.06125 
L 546.407844 -42.06125 
L 547.308405 -42.06125 
L 548.208966 -42.06125 
L 549.109528 -42.06125 
L 550.010089 -42.06125 
L 550.91065 -42.06125 
L 551.811211 -42.06125 
L 552.711773 -42.06125 
L 553.612334 -42.06125 
L 554.512895 -42.06125 
L 555.413456 -42.06125 
L 556.314018 -42.06125 
L 557.214579 -42.06125 
L 558.11514 -42.06125 
L 559.015702 -42.06125 
L 559.916263 -42.06125 
L 560.816824 -42.06125 
L 561.717385 -42.06125 
L 562.617947 -42.06125 
L 563.518508 -42.06125 
L 564.419069 -42.06125 
L 565.319631 -42.06125 
L 566.220192 -42.06125 
L 567.120753 -42.06125 
L 568.021314 -42.06125 
L 568.921876 -42.06125 
L 569.822437 -42.06125 
L 570.722998 -42.06125 
L 571.62356 -42.06125 
L 572.524121 -42.06125 
L 573.424682 -42.06125 
L 574.325243 -42.06125 
L 575.225805 -42.06125 
L 576.126366 -42.06125 
L 577.026927 -42.06125 
L 577.927489 -42.06125 
L 578.82805 -42.06125 
L 579.728611 -42.06125 
L 580.629172 -42.06125 
L 581.529734 -42.06125 
L 582.430295 -42.06125 
L 583.330856 -42.06125 
L 584.231418 -42.06125 
L 585.131979 -42.06125 
L 586.03254 -42.06125 
L 586.933101 -42.06125 
L 587.833663 -42.06125 
L 588.734224 -42.06125 
L 589.634785 -42.06125 
L 590.535347 -42.06125 
L 591.435908 -42.06125 
L 592.336469 -42.06125 
L 593.23703 -42.06125 
L 594.137592 -42.06125 
L 595.038153 -42.06125 
L 595.938714 -42.06125 
L 596.839276 -42.06125 
L 597.739837 -42.06125 
L 598.640398 -42.06125 
L 599.540959 -42.06125 
L 600.441521 -42.06125 
L 601.342082 -42.06125 
L 602.242643 -42.06125 
L 603.143205 -42.06125 
L 604.043766 -42.06125 
L 604.944327 -42.06125 
L 605.844888 -42.06125 
L 606.74545 -42.06125 
L 607.646011 -42.06125 
L 608.546572 -42.06125 
L 609.447134 -42.06125 
L 610.347695 -42.06125 
L 611.248256 -42.06125 
L 612.148817 -42.06125 
L 613.049379 -42.06125 
L 613.94994 -42.06125 
L 614.850501 -42.06125 
L 615.751063 -42.06125 
L 616.651624 -42.06125 
L 617.552185 -42.06125 
L 618.452746 -42.06125 
L 619.353308 -42.06125 
L 620.253869 -42.06125 
L 621.15443 -42.06125 
L 622.054992 -42.06125 
L 622.955553 -42.06125 
L 623.856114 -42.06125 
L 624.756675 -42.06125 
L 625.657237 -42.06125 
L 626.557798 -42.06125 
L 627.458359 -42.06125 
L 628.358921 -42.06125 
L 629.259482 -42.06125 
L 630.160043 -42.06125 
L 631.060604 -42.06125 
L 631.961166 -42.06125 
L 632.861727 -42.06125 
L 633.762288 -42.06125 
L 634.66285 -42.06125 
L 635.563411 -42.06125 
L 636.463972 -42.06125 
L 637.364533 -42.06125 
L 638.265095 -42.06125 
L 639.165656 -42.06125 
L 640.066217 -42.06125 
L 640.966779 -42.06125 
L 641.86734 -42.06125 
L 642.767901 -42.06125 
L 643.668462 -42.06125 
L 644.569024 -42.06125 
L 645.469585 -42.06125 
L 646.370146 -42.06125 
L 647.270708 -42.06125 
L 648.171269 -42.06125 
L 649.07183 -42.06125 
L 649.972391 -42.06125 
L 650.872953 -42.06125 
L 651.773514 -42.06125 
L 652.674075 -42.06125 
L 653.574637 -42.06125 
L 654.475198 -42.06125 
L 655.375759 -42.06125 
L 656.27632 -42.06125 
L 657.176882 -42.06125 
L 658.077443 -42.06125 
L 658.978004 -42.06125 
L 659.878565 -42.06125 
L 660.779127 -42.06125 
L 661.679688 -42.06125 
L 662.580249 -42.06125 
L 663.480811 -42.06125 
L 664.381372 -42.06125 
L 665.281933 -42.06125 
L 666.182494 -42.06125 
L 667.083056 -42.06125 
L 667.983617 -42.06125 
L 668.884178 -42.06125 
L 669.78474 -42.06125 
L 670.685301 -42.06125 
L 671.585862 -42.06125 
L 672.486423 -42.06125 
L 673.386985 -42.06125 
L 674.287546 -42.06125 
L 675.188107 -42.06125 
L 676.088669 -42.06125 
L 676.98923 -42.06125 
L 677.889791 -42.06125 
L 678.790352 -42.06125 
L 679.690914 -42.06125 
L 680.591475 -42.06125 
L 681.492036 -42.06125 
L 682.392598 -42.06125 
L 683.293159 -42.06125 
L 684.19372 -42.06125 
L 685.094281 -42.06125 
L 685.994843 -42.06125 
L 686.895404 -42.06125 
L 687.795965 -42.06125 
L 688.696527 -42.06125 
L 689.597088 -42.06125 
L 690.497649 -42.06125 
L 691.39821 -42.06125 
L 692.298772 -42.06125 
L 693.199333 -42.06125 
L 694.099894 -42.06125 
L 695.000456 -42.06125 
L 695.901017 -42.06125 
L 696.801578 -42.06125 
L 696.801578 -42.07693 
L 696.801578 -42.07693 
L 695.901017 -42.084717 
L 695.000456 -42.095746 
L 694.099894 -42.111061 
L 693.199333 -42.131903 
L 692.298772 -42.159701 
L 691.39821 -42.196027 
L 690.497649 -42.242529 
L 689.597088 -42.300833 
L 688.696527 -42.372407 
L 687.795965 -42.458414 
L 686.895404 -42.559546 
L 685.994843 -42.67586 
L 685.094281 -42.806651 
L 684.19372 -42.950358 
L 683.293159 -43.104553 
L 682.392598 -43.265999 
L 681.492036 -43.430812 
L 680.591475 -43.5947 
L 679.690914 -43.75328 
L 678.790352 -43.902446 
L 677.889791 -44.038739 
L 676.98923 -44.159705 
L 676.088669 -44.264171 
L 675.188107 -44.352435 
L 674.287546 -44.426317 
L 673.386985 -44.489076 
L 672.486423 -44.545185 
L 671.585862 -44.599978 
L 670.685301 -44.659201 
L 669.78474 -44.728501 
L 668.884178 -44.812912 
L 667.983617 -44.916364 
L 667.083056 -45.041295 
L 666.182494 -45.188385 
L 665.281933 -45.356459 
L 664.381372 -45.542578 
L 663.480811 -45.742301 
L 662.580249 -45.950127 
L 661.679688 -46.160049 
L 660.779127 -46.366179 
L 659.878565 -46.563375 
L 658.978004 -46.747807 
L 658.077443 -46.917392 
L 657.176882 -47.072066 
L 656.27632 -47.213852 
L 655.375759 -47.34674 
L 654.475198 -47.476388 
L 653.574637 -47.609691 
L 652.674075 -47.754269 
L 651.773514 -47.917919 
L 650.872953 -48.108103 
L 649.972391 -48.331479 
L 649.07183 -48.593533 
L 648.171269 -48.898278 
L 647.270708 -49.248051 
L 646.370146 -49.643361 
L 645.469585 -50.082794 
L 644.569024 -50.562942 
L 643.668462 -51.078387 
L 642.767901 -51.621726 
L 641.86734 -52.183691 
L 640.966779 -52.753392 
L 640.066217 -53.318719 
L 639.165656 -53.866939 
L 638.265095 -54.385472 
L 637.364533 -54.862826 
L 636.463972 -55.289624 
L 635.563411 -55.659629 
L 634.66285 -55.970639 
L 633.762288 -56.22516 
L 632.861727 -56.430726 
L 631.961166 -56.599823 
L 631.060604 -56.749374 
L 630.160043 -56.899832 
L 629.259482 -57.07395 
L 628.358921 -57.295347 
L 627.458359 -57.587021 
L 626.557798 -57.969936 
L 625.657237 -58.461826 
L 624.756675 -59.07631 
L 623.856114 -59.822363 
L 622.955553 -60.704172 
L 622.054992 -61.721348 
L 621.15443 -62.869429 
L 620.253869 -64.140613 
L 619.353308 -65.524617 
L 618.452746 -67.009596 
L 617.552185 -68.58302 
L 616.651624 -70.232471 
L 615.751063 -71.946286 
L 614.850501 -73.71403 
L 613.94994 -75.526787 
L 613.049379 -77.377263 
L 612.148817 -79.259742 
L 611.248256 -81.169921 
L 610.347695 -83.104673 
L 609.447134 -85.061799 
L 608.546572 -87.039803 
L 607.646011 -89.03774 
L 606.74545 -91.055148 
L 605.844888 -93.092059 
L 604.944327 -95.149067 
L 604.043766 -97.227397 
L 603.143205 -99.328928 
L 602.242643 -101.456115 
L 601.342082 -103.611763 
L 600.441521 -105.798651 
L 599.540959 -108.019023 
L 598.640398 -110.274016 
L 597.739837 -112.563116 
L 596.839276 -114.883747 
L 595.938714 -117.231121 
L 595.038153 -119.598419 
L 594.137592 -121.977353 
L 593.23703 -124.359098 
L 592.336469 -126.735486 
L 591.435908 -129.100331 
L 590.535347 -131.450683 
L 589.634785 -133.787797 
L 588.734224 -136.117631 
L 587.833663 -138.450721 
L 586.933101 -140.801386 
L 586.03254 -143.186284 
L 585.131979 -145.622445 
L 584.231418 -148.124992 
L 583.330856 -150.70479 
L 582.430295 -153.366276 
L 581.529734 -156.105709 
L 580.629172 -158.909995 
L 579.728611 -161.756182 
L 578.82805 -164.611624 
L 577.927489 -167.434749 
L 577.026927 -170.176304 
L 576.126366 -172.780931 
L 575.225805 -175.188934 
L 574.325243 -177.338115 
L 573.424682 -179.165614 
L 572.524121 -180.609711 
L 571.62356 -181.611607 
L 570.722998 -182.117202 
L 569.822437 -182.078915 
L 568.921876 -181.457522 
L 568.021314 -180.224008 
L 567.120753 -178.361316 
L 566.220192 -175.865876 
L 565.319631 -172.748739 
L 564.419069 -169.036126 
L 563.518508 -164.769253 
L 562.617947 -160.003315 
L 561.717385 -154.805606 
L 560.816824 -149.252875 
L 559.916263 -143.428064 
L 559.015702 -137.416717 
L 558.11514 -131.303354 
L 557.214579 -125.16813 
L 556.314018 -119.084065 
L 555.413456 -113.115035 
L 554.512895 -107.314642 
L 553.612334 -101.725932 
L 552.711773 -96.381854 
L 551.811211 -91.306267 
L 550.91065 -86.515275 
L 550.010089 -82.018643 
L 549.109528 -77.821125 
L 548.208966 -73.923557 
L 547.308405 -70.323671 
L 546.407844 -67.016619 
L 545.507282 -63.995293 
L 544.606721 -61.250488 
L 543.70616 -58.771043 
L 542.805599 -56.543992 
L 541.905037 -54.554807 
L 541.004476 -52.787719 
L 540.103915 -51.226125 
L 539.203353 -49.853026 
L 538.302792 -48.651468 
L 537.402231 -47.60494 
L 536.50167 -46.697681 
L 535.601108 -45.914911 
L 534.700547 -45.24295 
L 533.799986 -44.669259 
L 532.899424 -44.182412 
L 531.998863 -43.772025 
L 531.098302 -43.428665 
L 530.197741 -43.143755 
L 529.297179 -42.909491 
L 528.396618 -42.718777 
L 527.496057 -42.565179 
L 526.595495 -42.44289 
L 525.694934 -42.346712 
L 524.794373 -42.272038 
L 523.893812 -42.214836 
L 522.99325 -42.17163 
L 522.092689 -42.139466 
L 521.192128 -42.115877 
L 520.291566 -42.098842 
L 519.391005 -42.086731 
L 518.490444 -42.078258 
L 517.589883 -42.072426 
z
" style="stroke: #1f77b4"/>
    </defs>
    <g clip-path="url(#pe998623877)">
     <use xlink:href="#m61d48d67f7" x="0" y="216" style="fill: #1f77b4; fill-opacity: 0.25; stroke: #1f77b4"/>
    </g>
   </g>
   <g id="matplotlib.axis_7">
    <g id="xtick_4">
     <g id="line2d_39">
      <g>
       <use xlink:href="#mde6e846a59" x="518.759285" y="173.93875" style="stroke: #000000; stroke-width: 0.8"/>
      </g>
     </g>
     <g id="text_30">
      <!-- 0 -->
      <g transform="translate(515.578035 188.537188) scale(0.1 -0.1)">
       <use xlink:href="#DejaVuSans-30"/>
      </g>
     </g>
    </g>
    <g id="xtick_5">
     <g id="line2d_40">
      <g>
       <use xlink:href="#mde6e846a59" x="564.783234" y="173.93875" style="stroke: #000000; stroke-width: 0.8"/>
      </g>
     </g>
     <g id="text_31">
      <!-- 10 -->
      <g transform="translate(558.420734 188.537188) scale(0.1 -0.1)">
       <use xlink:href="#DejaVuSans-31"/>
       <use xlink:href="#DejaVuSans-30" transform="translate(63.623047 0)"/>
      </g>
     </g>
    </g>
    <g id="xtick_6">
     <g id="line2d_41">
      <g>
       <use xlink:href="#mde6e846a59" x="610.807184" y="173.93875" style="stroke: #000000; stroke-width: 0.8"/>
      </g>
     </g>
     <g id="text_32">
      <!-- 20 -->
      <g transform="translate(604.444684 188.537188) scale(0.1 -0.1)">
       <use xlink:href="#DejaVuSans-32"/>
       <use xlink:href="#DejaVuSans-30" transform="translate(63.623047 0)"/>
      </g>
     </g>
    </g>
    <g id="xtick_7">
     <g id="line2d_42">
      <g>
       <use xlink:href="#mde6e846a59" x="656.831133" y="173.93875" style="stroke: #000000; stroke-width: 0.8"/>
      </g>
     </g>
     <g id="text_33">
      <!-- 30 -->
      <g transform="translate(650.468633 188.537188) scale(0.1 -0.1)">
       <defs>
        <path id="DejaVuSans-33" d="M 2597 2516 
Q 3050 2419 3304 2112 
Q 3559 1806 3559 1356 
Q 3559 666 3084 287 
Q 2609 -91 1734 -91 
Q 1441 -91 1130 -33 
Q 819 25 488 141 
L 488 750 
Q 750 597 1062 519 
Q 1375 441 1716 441 
Q 2309 441 2620 675 
Q 2931 909 2931 1356 
Q 2931 1769 2642 2001 
Q 2353 2234 1838 2234 
L 1294 2234 
L 1294 2753 
L 1863 2753 
Q 2328 2753 2575 2939 
Q 2822 3125 2822 3475 
Q 2822 3834 2567 4026 
Q 2313 4219 1838 4219 
Q 1578 4219 1281 4162 
Q 984 4106 628 3988 
L 628 4550 
Q 988 4650 1302 4700 
Q 1616 4750 1894 4750 
Q 2613 4750 3031 4423 
Q 3450 4097 3450 3541 
Q 3450 3153 3228 2886 
Q 3006 2619 2597 2516 
z
" transform="scale(0.015625)"/>
       </defs>
       <use xlink:href="#DejaVuSans-33"/>
       <use xlink:href="#DejaVuSans-30" transform="translate(63.623047 0)"/>
      </g>
     </g>
    </g>
    <g id="xtick_8">
     <g id="line2d_43">
      <g>
       <use xlink:href="#mde6e846a59" x="702.855083" y="173.93875" style="stroke: #000000; stroke-width: 0.8"/>
      </g>
     </g>
     <g id="text_34">
      <!-- 40 -->
      <g transform="translate(696.492583 188.537188) scale(0.1 -0.1)">
       <use xlink:href="#DejaVuSans-34"/>
       <use xlink:href="#DejaVuSans-30" transform="translate(63.623047 0)"/>
      </g>
     </g>
    </g>
    <g id="text_35">
     <!-- gf.count_skew -->
     <g transform="translate(571.944168 202.215313) scale(0.1 -0.1)">
      <defs>
       <path id="DejaVuSans-66" d="M 2375 4863 
L 2375 4384 
L 1825 4384 
Q 1516 4384 1395 4259 
Q 1275 4134 1275 3809 
L 1275 3500 
L 2222 3500 
L 2222 3053 
L 1275 3053 
L 1275 0 
L 697 0 
L 697 3053 
L 147 3053 
L 147 3500 
L 697 3500 
L 697 3744 
Q 697 4328 969 4595 
Q 1241 4863 1831 4863 
L 2375 4863 
z
" transform="scale(0.015625)"/>
       <path id="DejaVuSans-5f" d="M 3263 -1063 
L 3263 -1509 
L -63 -1509 
L -63 -1063 
L 3263 -1063 
z
" transform="scale(0.015625)"/>
       <path id="DejaVuSans-6b" d="M 581 4863 
L 1159 4863 
L 1159 1991 
L 2875 3500 
L 3609 3500 
L 1753 1863 
L 3688 0 
L 2938 0 
L 1159 1709 
L 1159 0 
L 581 0 
L 581 4863 
z
" transform="scale(0.015625)"/>
       <path id="DejaVuSans-77" d="M 269 3500 
L 844 3500 
L 1563 769 
L 2278 3500 
L 2956 3500 
L 3675 769 
L 4391 3500 
L 4966 3500 
L 4050 0 
L 3372 0 
L 2619 2869 
L 1863 0 
L 1184 0 
L 269 3500 
z
" transform="scale(0.015625)"/>
      </defs>
      <use xlink:href="#DejaVuSans-67"/>
      <use xlink:href="#DejaVuSans-66" transform="translate(63.476562 0)"/>
      <use xlink:href="#DejaVuSans-2e" transform="translate(91.431641 0)"/>
      <use xlink:href="#DejaVuSans-63" transform="translate(123.21875 0)"/>
      <use xlink:href="#DejaVuSans-6f" transform="translate(178.199219 0)"/>
      <use xlink:href="#DejaVuSans-75" transform="translate(239.380859 0)"/>
      <use xlink:href="#DejaVuSans-6e" transform="translate(302.759766 0)"/>
      <use xlink:href="#DejaVuSans-74" transform="translate(366.138672 0)"/>
      <use xlink:href="#DejaVuSans-5f" transform="translate(405.347656 0)"/>
      <use xlink:href="#DejaVuSans-73" transform="translate(455.347656 0)"/>
      <use xlink:href="#DejaVuSans-6b" transform="translate(507.447266 0)"/>
      <use xlink:href="#DejaVuSans-65" transform="translate(561.732422 0)"/>
      <use xlink:href="#DejaVuSans-77" transform="translate(623.255859 0)"/>
     </g>
    </g>
   </g>
   <g id="matplotlib.axis_8">
    <g id="ytick_18">
     <g id="line2d_44">
      <g>
       <use xlink:href="#me8b99ecbdf" x="508.629298" y="173.93875" style="stroke: #000000; stroke-width: 0.8"/>
      </g>
     </g>
     <g id="text_36">
      <!-- 0.00 -->
      <g transform="translate(479.363673 177.737969) scale(0.1 -0.1)">
       <use xlink:href="#DejaVuSans-30"/>
       <use xlink:href="#DejaVuSans-2e" transform="translate(63.623047 0)"/>
       <use xlink:href="#DejaVuSans-30" transform="translate(95.410156 0)"/>
       <use xlink:href="#DejaVuSans-30" transform="translate(159.033203 0)"/>
      </g>
     </g>
    </g>
    <g id="ytick_19">
     <g id="line2d_45">
      <g>
       <use xlink:href="#me8b99ecbdf" x="508.629298" y="144.73436" style="stroke: #000000; stroke-width: 0.8"/>
      </g>
     </g>
     <g id="text_37">
      <!-- 0.02 -->
      <g transform="translate(479.363673 148.533579) scale(0.1 -0.1)">
       <use xlink:href="#DejaVuSans-30"/>
       <use xlink:href="#DejaVuSans-2e" transform="translate(63.623047 0)"/>
       <use xlink:href="#DejaVuSans-30" transform="translate(95.410156 0)"/>
       <use xlink:href="#DejaVuSans-32" transform="translate(159.033203 0)"/>
      </g>
     </g>
    </g>
    <g id="ytick_20">
     <g id="line2d_46">
      <g>
       <use xlink:href="#me8b99ecbdf" x="508.629298" y="115.52997" style="stroke: #000000; stroke-width: 0.8"/>
      </g>
     </g>
     <g id="text_38">
      <!-- 0.04 -->
      <g transform="translate(479.363673 119.329188) scale(0.1 -0.1)">
       <use xlink:href="#DejaVuSans-30"/>
       <use xlink:href="#DejaVuSans-2e" transform="translate(63.623047 0)"/>
       <use xlink:href="#DejaVuSans-30" transform="translate(95.410156 0)"/>
       <use xlink:href="#DejaVuSans-34" transform="translate(159.033203 0)"/>
      </g>
     </g>
    </g>
    <g id="ytick_21">
     <g id="line2d_47">
      <g>
       <use xlink:href="#me8b99ecbdf" x="508.629298" y="86.325579" style="stroke: #000000; stroke-width: 0.8"/>
      </g>
     </g>
     <g id="text_39">
      <!-- 0.06 -->
      <g transform="translate(479.363673 90.124798) scale(0.1 -0.1)">
       <use xlink:href="#DejaVuSans-30"/>
       <use xlink:href="#DejaVuSans-2e" transform="translate(63.623047 0)"/>
       <use xlink:href="#DejaVuSans-30" transform="translate(95.410156 0)"/>
       <use xlink:href="#DejaVuSans-36" transform="translate(159.033203 0)"/>
      </g>
     </g>
    </g>
    <g id="ytick_22">
     <g id="line2d_48">
      <g>
       <use xlink:href="#me8b99ecbdf" x="508.629298" y="57.121189" style="stroke: #000000; stroke-width: 0.8"/>
      </g>
     </g>
     <g id="text_40">
      <!-- 0.08 -->
      <g transform="translate(479.363673 60.920408) scale(0.1 -0.1)">
       <use xlink:href="#DejaVuSans-30"/>
       <use xlink:href="#DejaVuSans-2e" transform="translate(63.623047 0)"/>
       <use xlink:href="#DejaVuSans-30" transform="translate(95.410156 0)"/>
       <use xlink:href="#DejaVuSans-38" transform="translate(159.033203 0)"/>
      </g>
     </g>
    </g>
    <g id="ytick_23">
     <g id="line2d_49">
      <g>
       <use xlink:href="#me8b99ecbdf" x="508.629298" y="27.916799" style="stroke: #000000; stroke-width: 0.8"/>
      </g>
     </g>
     <g id="text_41">
      <!-- 0.10 -->
      <g transform="translate(479.363673 31.716018) scale(0.1 -0.1)">
       <use xlink:href="#DejaVuSans-30"/>
       <use xlink:href="#DejaVuSans-2e" transform="translate(63.623047 0)"/>
       <use xlink:href="#DejaVuSans-31" transform="translate(95.410156 0)"/>
       <use xlink:href="#DejaVuSans-30" transform="translate(159.033203 0)"/>
      </g>
     </g>
    </g>
    <g id="text_42">
     <!-- Density -->
     <g transform="translate(473.283985 119.417969) rotate(-90) scale(0.1 -0.1)">
      <use xlink:href="#DejaVuSans-44"/>
      <use xlink:href="#DejaVuSans-65" transform="translate(77.001953 0)"/>
      <use xlink:href="#DejaVuSans-6e" transform="translate(138.525391 0)"/>
      <use xlink:href="#DejaVuSans-73" transform="translate(201.904297 0)"/>
      <use xlink:href="#DejaVuSans-69" transform="translate(254.003906 0)"/>
      <use xlink:href="#DejaVuSans-74" transform="translate(281.787109 0)"/>
      <use xlink:href="#DejaVuSans-79" transform="translate(320.996094 0)"/>
     </g>
    </g>
   </g>
   <g id="patch_21">
    <path d="M 508.629298 173.93875 
L 508.629298 26.88 
" style="fill: none; stroke: #000000; stroke-width: 0.8; stroke-linejoin: miter; stroke-linecap: square"/>
   </g>
   <g id="patch_22">
    <path d="M 705.762163 173.93875 
L 705.762163 26.88 
" style="fill: none; stroke: #000000; stroke-width: 0.8; stroke-linejoin: miter; stroke-linecap: square"/>
   </g>
   <g id="patch_23">
    <path d="M 508.629298 173.93875 
L 705.762163 173.93875 
" style="fill: none; stroke: #000000; stroke-width: 0.8; stroke-linejoin: miter; stroke-linecap: square"/>
   </g>
   <g id="patch_24">
    <path d="M 508.629298 26.88 
L 705.762163 26.88 
" style="fill: none; stroke: #000000; stroke-width: 0.8; stroke-linejoin: miter; stroke-linecap: square"/>
   </g>
   <g id="text_43">
    <!-- Gene Frequency Skewness -->
    <g transform="translate(527.14073 20.88) scale(0.12 -0.12)">
     <use xlink:href="#DejaVuSans-47"/>
     <use xlink:href="#DejaVuSans-65" transform="translate(77.490234 0)"/>
     <use xlink:href="#DejaVuSans-6e" transform="translate(139.013672 0)"/>
     <use xlink:href="#DejaVuSans-65" transform="translate(202.392578 0)"/>
     <use xlink:href="#DejaVuSans-20" transform="translate(263.916016 0)"/>
     <use xlink:href="#DejaVuSans-46" transform="translate(295.703125 0)"/>
     <use xlink:href="#DejaVuSans-72" transform="translate(345.972656 0)"/>
     <use xlink:href="#DejaVuSans-65" transform="translate(384.835938 0)"/>
     <use xlink:href="#DejaVuSans-71" transform="translate(446.359375 0)"/>
     <use xlink:href="#DejaVuSans-75" transform="translate(509.835938 0)"/>
     <use xlink:href="#DejaVuSans-65" transform="translate(573.214844 0)"/>
     <use xlink:href="#DejaVuSans-6e" transform="translate(634.738281 0)"/>
     <use xlink:href="#DejaVuSans-63" transform="translate(698.117188 0)"/>
     <use xlink:href="#DejaVuSans-79" transform="translate(753.097656 0)"/>
     <use xlink:href="#DejaVuSans-20" transform="translate(812.277344 0)"/>
     <use xlink:href="#DejaVuSans-53" transform="translate(844.064453 0)"/>
     <use xlink:href="#DejaVuSans-6b" transform="translate(907.541016 0)"/>
     <use xlink:href="#DejaVuSans-65" transform="translate(961.826172 0)"/>
     <use xlink:href="#DejaVuSans-77" transform="translate(1023.349609 0)"/>
     <use xlink:href="#DejaVuSans-6e" transform="translate(1105.136719 0)"/>
     <use xlink:href="#DejaVuSans-65" transform="translate(1168.515625 0)"/>
     <use xlink:href="#DejaVuSans-73" transform="translate(1230.039062 0)"/>
     <use xlink:href="#DejaVuSans-73" transform="translate(1282.138672 0)"/>
    </g>
   </g>
   <g id="legend_1">
    <g id="text_44">
     <!-- dataset -->
     <g transform="translate(662.95435 39.478438) scale(0.1 -0.1)">
      <use xlink:href="#DejaVuSans-64"/>
      <use xlink:href="#DejaVuSans-61" transform="translate(63.476562 0)"/>
      <use xlink:href="#DejaVuSans-74" transform="translate(124.755859 0)"/>
      <use xlink:href="#DejaVuSans-61" transform="translate(163.964844 0)"/>
      <use xlink:href="#DejaVuSans-73" transform="translate(225.244141 0)"/>
      <use xlink:href="#DejaVuSans-65" transform="translate(277.34375 0)"/>
      <use xlink:href="#DejaVuSans-74" transform="translate(338.867188 0)"/>
     </g>
    </g>
    <g id="patch_25">
     <path d="M 663.276225 55.508125 
L 673.276225 55.508125 
L 673.276225 46.558125 
L 663.276225 46.558125 
z
" style="fill: #1f77b4; fill-opacity: 0.25; stroke: #1f77b4; stroke-linejoin: miter"/>
    </g>
    <g id="text_45">
     <!-- CDN -->
     <g transform="translate(678.276225 54.458125) scale(0.1 -0.1)">
      <use xlink:href="#DejaVuSans-43"/>
      <use xlink:href="#DejaVuSans-44" transform="translate(69.824219 0)"/>
      <use xlink:href="#DejaVuSans-4e" transform="translate(146.826172 0)"/>
     </g>
    </g>
   </g>
  </g>
 </g>
 <defs>
  <clipPath id="pfc9c1d0e4d">
   <rect x="50.87" y="26.88" width="98.566433" height="147.05875"/>
  </clipPath>
  <clipPath id="pbbf5c0dc65">
   <rect x="203.456433" y="26.88" width="98.566433" height="147.05875"/>
  </clipPath>
  <clipPath id="pe06212613e">
   <rect x="356.042865" y="26.88" width="98.566433" height="147.05875"/>
  </clipPath>
  <clipPath id="pe998623877">
   <rect x="508.629298" y="26.88" width="197.132865" height="147.05875"/>
  </clipPath>
 </defs>
</svg>
