<?xml version="1.0" encoding="utf-8" standalone="no"?>
<!DOCTYPE svg PUBLIC "-//W3C//DTD SVG 1.1//EN"
  "http://www.w3.org/Graphics/SVG/1.1/DTD/svg11.dtd">
<svg xmlns:xlink="http://www.w3.org/1999/xlink" width="864pt" height="288pt" viewBox="0 0 864 288" xmlns="http://www.w3.org/2000/svg" version="1.1">
 <metadata>
  <rdf:RDF xmlns:dc="http://purl.org/dc/elements/1.1/" xmlns:cc="http://creativecommons.org/ns#" xmlns:rdf="http://www.w3.org/1999/02/22-rdf-syntax-ns#">
   <cc:Work>
    <dc:type rdf:resource="http://purl.org/dc/dcmitype/StillImage"/>
    <dc:date>2026-05-07T16:07:56.736491</dc:date>
    <dc:format>image/svg+xml</dc:format>
    <dc:creator>
     <cc:Agent>
      <dc:title>Matplotlib v3.10.9, https://matplotlib.org/</dc:title>
     </cc:Agent>
    </dc:creator>
   </cc:Work>
  </rdf:RDF>
 </metadata>
 <defs>
  <style type="text/css">*{stroke-linejoin: round; stroke-linecap: butt}</style>
 </defs>
 <g id="figure_1">
  <g id="patch_1">
   <path d="M 0 288 
L 864 288 
L 864 0 
L 0 0 
z
" style="fill: #ffffff"/>
  </g>
  <g id="axes_1">
   <g id="patch_2">
    <path d="M 50.97125 245.93875 
L 178.613747 245.93875 
L 178.613747 26.88 
L 50.97125 26.88 
z
" style="fill: #ffffff"/>
   </g>
   <g id="matplotlib.axis_1">
    <g id="xtick_1">
     <g id="line2d_1">
      <defs>
       <path id="m66cc2d23ec" d="M 0 0 
L 0 3.5 
" style="stroke: #000000; stroke-width: 0.8"/>
      </defs>
      <g>
       <use xlink:href="#m66cc2d23ec" x="114.792498" y="245.93875" style="stroke: #000000; stroke-width: 0.8"/>
      </g>
     </g>
     <g id="text_1">
      <!-- AMY -->
      <g transform="translate(104.004217 260.537188) scale(0.1 -0.1)">
       <defs>
        <path id="DejaVuSans-41" d="M 2188 4044 
L 1331 1722 
L 3047 1722 
L 2188 4044 
z
M 1831 4666 
L 2547 4666 
L 4325 0 
L 3669 0 
L 3244 1197 
L 1141 1197 
L 716 0 
L 50 0 
L 1831 4666 
z
" transform="scale(0.015625)"/>
        <path id="DejaVuSans-4d" d="M 628 4666 
L 1569 4666 
L 2759 1491 
L 3956 4666 
L 4897 4666 
L 4897 0 
L 4281 0 
L 4281 4097 
L 3078 897 
L 2444 897 
L 1241 4097 
L 1241 0 
L 628 0 
L 628 4666 
z
" transform="scale(0.015625)"/>
        <path id="DejaVuSans-59" d="M -13 4666 
L 666 4666 
L 1959 2747 
L 3244 4666 
L 3922 4666 
L 2272 2222 
L 2272 0 
L 1638 0 
L 1638 2222 
L -13 4666 
z
" transform="scale(0.015625)"/>
       </defs>
       <use xlink:href="#DejaVuSans-41"/>
       <use xlink:href="#DejaVuSans-4d" transform="translate(68.408203 0)"/>
       <use xlink:href="#DejaVuSans-59" transform="translate(154.6875 0)"/>
      </g>
     </g>
    </g>
    <g id="text_2">
     <!-- dataset -->
     <g transform="translate(95.888592 274.215312) scale(0.1 -0.1)">
      <defs>
       <path id="DejaVuSans-64" d="M 2906 2969 
L 2906 4863 
L 3481 4863 
L 3481 0 
L 2906 0 
L 2906 525 
Q 2725 213 2448 61 
Q 2172 -91 1784 -91 
Q 1150 -91 751 415 
Q 353 922 353 1747 
Q 353 2572 751 3078 
Q 1150 3584 1784 3584 
Q 2172 3584 2448 3432 
Q 2725 3281 2906 2969 
z
M 947 1747 
Q 947 1113 1208 752 
Q 1469 391 1925 391 
Q 2381 391 2643 752 
Q 2906 1113 2906 1747 
Q 2906 2381 2643 2742 
Q 2381 3103 1925 3103 
Q 1469 3103 1208 2742 
Q 947 2381 947 1747 
z
" transform="scale(0.015625)"/>
       <path id="DejaVuSans-61" d="M 2194 1759 
Q 1497 1759 1228 1600 
Q 959 1441 959 1056 
Q 959 750 1161 570 
Q 1363 391 1709 391 
Q 2188 391 2477 730 
Q 2766 1069 2766 1631 
L 2766 1759 
L 2194 1759 
z
M 3341 1997 
L 3341 0 
L 2766 0 
L 2766 531 
Q 2569 213 2275 61 
Q 1981 -91 1556 -91 
Q 1019 -91 701 211 
Q 384 513 384 1019 
Q 384 1609 779 1909 
Q 1175 2209 1959 2209 
L 2766 2209 
L 2766 2266 
Q 2766 2663 2505 2880 
Q 2244 3097 1772 3097 
Q 1472 3097 1187 3025 
Q 903 2953 641 2809 
L 641 3341 
Q 956 3463 1253 3523 
Q 1550 3584 1831 3584 
Q 2591 3584 2966 3190 
Q 3341 2797 3341 1997 
z
" transform="scale(0.015625)"/>
       <path id="DejaVuSans-74" d="M 1172 4494 
L 1172 3500 
L 2356 3500 
L 2356 3053 
L 1172 3053 
L 1172 1153 
Q 1172 725 1289 603 
Q 1406 481 1766 481 
L 2356 481 
L 2356 0 
L 1766 0 
Q 1100 0 847 248 
Q 594 497 594 1153 
L 594 3053 
L 172 3053 
L 172 3500 
L 594 3500 
L 594 4494 
L 1172 4494 
z
" transform="scale(0.015625)"/>
       <path id="DejaVuSans-73" d="M 2834 3397 
L 2834 2853 
Q 2591 2978 2328 3040 
Q 2066 3103 1784 3103 
Q 1356 3103 1142 2972 
Q 928 2841 928 2578 
Q 928 2378 1081 2264 
Q 1234 2150 1697 2047 
L 1894 2003 
Q 2506 1872 2764 1633 
Q 3022 1394 3022 966 
Q 3022 478 2636 193 
Q 2250 -91 1575 -91 
Q 1294 -91 989 -36 
Q 684 19 347 128 
L 347 722 
Q 666 556 975 473 
Q 1284 391 1588 391 
Q 1994 391 2212 530 
Q 2431 669 2431 922 
Q 2431 1156 2273 1281 
Q 2116 1406 1581 1522 
L 1381 1569 
Q 847 1681 609 1914 
Q 372 2147 372 2553 
Q 372 3047 722 3315 
Q 1072 3584 1716 3584 
Q 2034 3584 2315 3537 
Q 2597 3491 2834 3397 
z
" transform="scale(0.015625)"/>
       <path id="DejaVuSans-65" d="M 3597 1894 
L 3597 1613 
L 953 1613 
Q 991 1019 1311 708 
Q 1631 397 2203 397 
Q 2534 397 2845 478 
Q 3156 559 3463 722 
L 3463 178 
Q 3153 47 2828 -22 
Q 2503 -91 2169 -91 
Q 1331 -91 842 396 
Q 353 884 353 1716 
Q 353 2575 817 3079 
Q 1281 3584 2069 3584 
Q 2775 3584 3186 3129 
Q 3597 2675 3597 1894 
z
M 3022 2063 
Q 3016 2534 2758 2815 
Q 2500 3097 2075 3097 
Q 1594 3097 1305 2825 
Q 1016 2553 972 2059 
L 3022 2063 
z
" transform="scale(0.015625)"/>
      </defs>
      <use xlink:href="#DejaVuSans-64"/>
      <use xlink:href="#DejaVuSans-61" transform="translate(63.476562 0)"/>
      <use xlink:href="#DejaVuSans-74" transform="translate(124.755859 0)"/>
      <use xlink:href="#DejaVuSans-61" transform="translate(163.964844 0)"/>
      <use xlink:href="#DejaVuSans-73" transform="translate(225.244141 0)"/>
      <use xlink:href="#DejaVuSans-65" transform="translate(277.34375 0)"/>
      <use xlink:href="#DejaVuSans-74" transform="translate(338.867188 0)"/>
     </g>
    </g>
   </g>
   <g id="matplotlib.axis_2">
    <g id="ytick_1">
     <g id="line2d_2">
      <defs>
       <path id="m83ad8a2216" d="M 0 0 
L -3.5 0 
" style="stroke: #000000; stroke-width: 0.8"/>
      </defs>
      <g>
       <use xlink:href="#m83ad8a2216" x="50.97125" y="237.49594" style="stroke: #000000; stroke-width: 0.8"/>
      </g>
     </g>
     <g id="text_3">
      <!-- 0 -->
      <g transform="translate(37.60875 241.295158) scale(0.1 -0.1)">
       <defs>
        <path id="DejaVuSans-30" d="M 2034 4250 
Q 1547 4250 1301 3770 
Q 1056 3291 1056 2328 
Q 1056 1369 1301 889 
Q 1547 409 2034 409 
Q 2525 409 2770 889 
Q 3016 1369 3016 2328 
Q 3016 3291 2770 3770 
Q 2525 4250 2034 4250 
z
M 2034 4750 
Q 2819 4750 3233 4129 
Q 3647 3509 3647 2328 
Q 3647 1150 3233 529 
Q 2819 -91 2034 -91 
Q 1250 -91 836 529 
Q 422 1150 422 2328 
Q 422 3509 836 4129 
Q 1250 4750 2034 4750 
z
" transform="scale(0.015625)"/>
       </defs>
       <use xlink:href="#DejaVuSans-30"/>
      </g>
     </g>
    </g>
    <g id="ytick_2">
     <g id="line2d_3">
      <g>
       <use xlink:href="#m83ad8a2216" x="50.97125" y="199.635803" style="stroke: #000000; stroke-width: 0.8"/>
      </g>
     </g>
     <g id="text_4">
      <!-- 50 -->
      <g transform="translate(31.24625 203.435022) scale(0.1 -0.1)">
       <defs>
        <path id="DejaVuSans-35" d="M 691 4666 
L 3169 4666 
L 3169 4134 
L 1269 4134 
L 1269 2991 
Q 1406 3038 1543 3061 
Q 1681 3084 1819 3084 
Q 2600 3084 3056 2656 
Q 3513 2228 3513 1497 
Q 3513 744 3044 326 
Q 2575 -91 1722 -91 
Q 1428 -91 1123 -41 
Q 819 9 494 109 
L 494 744 
Q 775 591 1075 516 
Q 1375 441 1709 441 
Q 2250 441 2565 725 
Q 2881 1009 2881 1497 
Q 2881 1984 2565 2268 
Q 2250 2553 1709 2553 
Q 1456 2553 1204 2497 
Q 953 2441 691 2322 
L 691 4666 
z
" transform="scale(0.015625)"/>
       </defs>
       <use xlink:href="#DejaVuSans-35"/>
       <use xlink:href="#DejaVuSans-30" transform="translate(63.623047 0)"/>
      </g>
     </g>
    </g>
    <g id="ytick_3">
     <g id="line2d_4">
      <g>
       <use xlink:href="#m83ad8a2216" x="50.97125" y="161.775666" style="stroke: #000000; stroke-width: 0.8"/>
      </g>
     </g>
     <g id="text_5">
      <!-- 100 -->
      <g transform="translate(24.88375 165.574885) scale(0.1 -0.1)">
       <defs>
        <path id="DejaVuSans-31" d="M 794 531 
L 1825 531 
L 1825 4091 
L 703 3866 
L 703 4441 
L 1819 4666 
L 2450 4666 
L 2450 531 
L 3481 531 
L 3481 0 
L 794 0 
L 794 531 
z
" transform="scale(0.015625)"/>
       </defs>
       <use xlink:href="#DejaVuSans-31"/>
       <use xlink:href="#DejaVuSans-30" transform="translate(63.623047 0)"/>
       <use xlink:href="#DejaVuSans-30" transform="translate(127.246094 0)"/>
      </g>
     </g>
    </g>
    <g id="ytick_4">
     <g id="line2d_5">
      <g>
       <use xlink:href="#m83ad8a2216" x="50.97125" y="123.91553" style="stroke: #000000; stroke-width: 0.8"/>
      </g>
     </g>
     <g id="text_6">
      <!-- 150 -->
      <g transform="translate(24.88375 127.714749) scale(0.1 -0.1)">
       <use xlink:href="#DejaVuSans-31"/>
       <use xlink:href="#DejaVuSans-35" transform="translate(63.623047 0)"/>
       <use xlink:href="#DejaVuSans-30" transform="translate(127.246094 0)"/>
      </g>
     </g>
    </g>
    <g id="ytick_5">
     <g id="line2d_6">
      <g>
       <use xlink:href="#m83ad8a2216" x="50.97125" y="86.055393" style="stroke: #000000; stroke-width: 0.8"/>
      </g>
     </g>
     <g id="text_7">
      <!-- 200 -->
      <g transform="translate(24.88375 89.854612) scale(0.1 -0.1)">
       <defs>
        <path id="DejaVuSans-32" d="M 1228 531 
L 3431 531 
L 3431 0 
L 469 0 
L 469 531 
Q 828 903 1448 1529 
Q 2069 2156 2228 2338 
Q 2531 2678 2651 2914 
Q 2772 3150 2772 3378 
Q 2772 3750 2511 3984 
Q 2250 4219 1831 4219 
Q 1534 4219 1204 4116 
Q 875 4013 500 3803 
L 500 4441 
Q 881 4594 1212 4672 
Q 1544 4750 1819 4750 
Q 2544 4750 2975 4387 
Q 3406 4025 3406 3419 
Q 3406 3131 3298 2873 
Q 3191 2616 2906 2266 
Q 2828 2175 2409 1742 
Q 1991 1309 1228 531 
z
" transform="scale(0.015625)"/>
       </defs>
       <use xlink:href="#DejaVuSans-32"/>
       <use xlink:href="#DejaVuSans-30" transform="translate(63.623047 0)"/>
       <use xlink:href="#DejaVuSans-30" transform="translate(127.246094 0)"/>
      </g>
     </g>
    </g>
    <g id="ytick_6">
     <g id="line2d_7">
      <g>
       <use xlink:href="#m83ad8a2216" x="50.97125" y="48.195257" style="stroke: #000000; stroke-width: 0.8"/>
      </g>
     </g>
     <g id="text_8">
      <!-- 250 -->
      <g transform="translate(24.88375 51.994476) scale(0.1 -0.1)">
       <use xlink:href="#DejaVuSans-32"/>
       <use xlink:href="#DejaVuSans-35" transform="translate(63.623047 0)"/>
       <use xlink:href="#DejaVuSans-30" transform="translate(127.246094 0)"/>
      </g>
     </g>
    </g>
    <g id="text_9">
     <!-- total_root_nodes -->
     <g transform="translate(18.525938 177.947656) rotate(-90) scale(0.1 -0.1)">
      <defs>
       <path id="DejaVuSans-6f" d="M 1959 3097 
Q 1497 3097 1228 2736 
Q 959 2375 959 1747 
Q 959 1119 1226 758 
Q 1494 397 1959 397 
Q 2419 397 2687 759 
Q 2956 1122 2956 1747 
Q 2956 2369 2687 2733 
Q 2419 3097 1959 3097 
z
M 1959 3584 
Q 2709 3584 3137 3096 
Q 3566 2609 3566 1747 
Q 3566 888 3137 398 
Q 2709 -91 1959 -91 
Q 1206 -91 779 398 
Q 353 888 353 1747 
Q 353 2609 779 3096 
Q 1206 3584 1959 3584 
z
" transform="scale(0.015625)"/>
       <path id="DejaVuSans-6c" d="M 603 4863 
L 1178 4863 
L 1178 0 
L 603 0 
L 603 4863 
z
" transform="scale(0.015625)"/>
       <path id="DejaVuSans-5f" d="M 3263 -1063 
L 3263 -1509 
L -63 -1509 
L -63 -1063 
L 3263 -1063 
z
" transform="scale(0.015625)"/>
       <path id="DejaVuSans-72" d="M 2631 2963 
Q 2534 3019 2420 3045 
Q 2306 3072 2169 3072 
Q 1681 3072 1420 2755 
Q 1159 2438 1159 1844 
L 1159 0 
L 581 0 
L 581 3500 
L 1159 3500 
L 1159 2956 
Q 1341 3275 1631 3429 
Q 1922 3584 2338 3584 
Q 2397 3584 2469 3576 
Q 2541 3569 2628 3553 
L 2631 2963 
z
" transform="scale(0.015625)"/>
       <path id="DejaVuSans-6e" d="M 3513 2113 
L 3513 0 
L 2938 0 
L 2938 2094 
Q 2938 2591 2744 2837 
Q 2550 3084 2163 3084 
Q 1697 3084 1428 2787 
Q 1159 2491 1159 1978 
L 1159 0 
L 581 0 
L 581 3500 
L 1159 3500 
L 1159 2956 
Q 1366 3272 1645 3428 
Q 1925 3584 2291 3584 
Q 2894 3584 3203 3211 
Q 3513 2838 3513 2113 
z
" transform="scale(0.015625)"/>
      </defs>
      <use xlink:href="#DejaVuSans-74"/>
      <use xlink:href="#DejaVuSans-6f" transform="translate(39.208984 0)"/>
      <use xlink:href="#DejaVuSans-74" transform="translate(100.390625 0)"/>
      <use xlink:href="#DejaVuSans-61" transform="translate(139.599609 0)"/>
      <use xlink:href="#DejaVuSans-6c" transform="translate(200.878906 0)"/>
      <use xlink:href="#DejaVuSans-5f" transform="translate(228.662109 0)"/>
      <use xlink:href="#DejaVuSans-72" transform="translate(278.662109 0)"/>
      <use xlink:href="#DejaVuSans-6f" transform="translate(317.525391 0)"/>
      <use xlink:href="#DejaVuSans-6f" transform="translate(378.707031 0)"/>
      <use xlink:href="#DejaVuSans-74" transform="translate(439.888672 0)"/>
      <use xlink:href="#DejaVuSans-5f" transform="translate(479.097656 0)"/>
      <use xlink:href="#DejaVuSans-6e" transform="translate(529.097656 0)"/>
      <use xlink:href="#DejaVuSans-6f" transform="translate(592.476562 0)"/>
      <use xlink:href="#DejaVuSans-64" transform="translate(653.658203 0)"/>
      <use xlink:href="#DejaVuSans-65" transform="translate(717.134766 0)"/>
      <use xlink:href="#DejaVuSans-73" transform="translate(778.658203 0)"/>
     </g>
    </g>
   </g>
   <g id="patch_3">
    <path d="M 63.7355 220.080277 
L 165.849497 220.080277 
L 165.849497 197.364195 
L 63.7355 197.364195 
L 63.7355 220.080277 
z
" clip-path="url(#p6d2d37a411)" style="fill: #3274a1; stroke: #3f3f3f; stroke-linejoin: miter"/>
   </g>
   <g id="line2d_8">
    <path d="M 114.792498 220.080277 
L 114.792498 235.981534 
" clip-path="url(#p6d2d37a411)" style="fill: none; stroke: #3f3f3f"/>
   </g>
   <g id="line2d_9">
    <path d="M 114.792498 197.364195 
L 114.792498 163.290072 
" clip-path="url(#p6d2d37a411)" style="fill: none; stroke: #3f3f3f"/>
   </g>
   <g id="line2d_10">
    <path d="M 89.263999 235.981534 
L 140.320998 235.981534 
" clip-path="url(#p6d2d37a411)" style="fill: none; stroke: #3f3f3f; stroke-linecap: square"/>
   </g>
   <g id="line2d_11">
    <path d="M 89.263999 163.290072 
L 140.320998 163.290072 
" clip-path="url(#p6d2d37a411)" style="fill: none; stroke: #3f3f3f; stroke-linecap: square"/>
   </g>
   <g id="line2d_12">
    <defs>
     <path id="m50fa1c88e4" d="M 0 3 
C 0.795609 3 1.55874 2.683901 2.12132 2.12132 
C 2.683901 1.55874 3 0.795609 3 0 
C 3 -0.795609 2.683901 -1.55874 2.12132 -2.12132 
C 1.55874 -2.683901 0.795609 -3 0 -3 
C -0.795609 -3 -1.55874 -2.683901 -2.12132 -2.12132 
C -2.683901 -1.55874 -3 -0.795609 -3 0 
C -3 0.795609 -2.683901 1.55874 -2.12132 2.12132 
C -1.55874 2.683901 -0.795609 3 0 3 
z
" style="stroke: #3f3f3f"/>
    </defs>
    <g clip-path="url(#p6d2d37a411)">
     <use xlink:href="#m50fa1c88e4" x="114.792498" y="92.113015" style="fill-opacity: 0; stroke: #3f3f3f"/>
     <use xlink:href="#m50fa1c88e4" x="114.792498" y="108.771475" style="fill-opacity: 0; stroke: #3f3f3f"/>
     <use xlink:href="#m50fa1c88e4" x="114.792498" y="159.504058" style="fill-opacity: 0; stroke: #3f3f3f"/>
     <use xlink:href="#m50fa1c88e4" x="114.792498" y="152.689234" style="fill-opacity: 0; stroke: #3f3f3f"/>
     <use xlink:href="#m50fa1c88e4" x="114.792498" y="147.388815" style="fill-opacity: 0; stroke: #3f3f3f"/>
     <use xlink:href="#m50fa1c88e4" x="114.792498" y="147.388815" style="fill-opacity: 0; stroke: #3f3f3f"/>
     <use xlink:href="#m50fa1c88e4" x="114.792498" y="153.446436" style="fill-opacity: 0; stroke: #3f3f3f"/>
     <use xlink:href="#m50fa1c88e4" x="114.792498" y="151.174828" style="fill-opacity: 0; stroke: #3f3f3f"/>
     <use xlink:href="#m50fa1c88e4" x="114.792498" y="122.401124" style="fill-opacity: 0; stroke: #3f3f3f"/>
     <use xlink:href="#m50fa1c88e4" x="114.792498" y="143.602801" style="fill-opacity: 0; stroke: #3f3f3f"/>
     <use xlink:href="#m50fa1c88e4" x="114.792498" y="110.285881" style="fill-opacity: 0; stroke: #3f3f3f"/>
     <use xlink:href="#m50fa1c88e4" x="114.792498" y="129.215949" style="fill-opacity: 0; stroke: #3f3f3f"/>
     <use xlink:href="#m50fa1c88e4" x="114.792498" y="130.730355" style="fill-opacity: 0; stroke: #3f3f3f"/>
     <use xlink:href="#m50fa1c88e4" x="114.792498" y="146.631612" style="fill-opacity: 0; stroke: #3f3f3f"/>
     <use xlink:href="#m50fa1c88e4" x="114.792498" y="119.372314" style="fill-opacity: 0; stroke: #3f3f3f"/>
     <use xlink:href="#m50fa1c88e4" x="114.792498" y="117.857908" style="fill-opacity: 0; stroke: #3f3f3f"/>
     <use xlink:href="#m50fa1c88e4" x="114.792498" y="151.932031" style="fill-opacity: 0; stroke: #3f3f3f"/>
     <use xlink:href="#m50fa1c88e4" x="114.792498" y="146.631612" style="fill-opacity: 0; stroke: #3f3f3f"/>
     <use xlink:href="#m50fa1c88e4" x="114.792498" y="142.845598" style="fill-opacity: 0; stroke: #3f3f3f"/>
     <use xlink:href="#m50fa1c88e4" x="114.792498" y="138.302382" style="fill-opacity: 0; stroke: #3f3f3f"/>
     <use xlink:href="#m50fa1c88e4" x="114.792498" y="148.90322" style="fill-opacity: 0; stroke: #3f3f3f"/>
     <use xlink:href="#m50fa1c88e4" x="114.792498" y="36.837216" style="fill-opacity: 0; stroke: #3f3f3f"/>
     <use xlink:href="#m50fa1c88e4" x="114.792498" y="159.504058" style="fill-opacity: 0; stroke: #3f3f3f"/>
     <use xlink:href="#m50fa1c88e4" x="114.792498" y="159.504058" style="fill-opacity: 0; stroke: #3f3f3f"/>
     <use xlink:href="#m50fa1c88e4" x="114.792498" y="149.660423" style="fill-opacity: 0; stroke: #3f3f3f"/>
    </g>
   </g>
   <g id="line2d_13">
    <path d="M 63.7355 209.479439 
L 165.849497 209.479439 
" clip-path="url(#p6d2d37a411)" style="fill: none; stroke: #3f3f3f"/>
   </g>
   <g id="patch_4">
    <path d="M 50.97125 245.93875 
L 50.97125 26.88 
" style="fill: none; stroke: #000000; stroke-width: 0.8; stroke-linejoin: miter; stroke-linecap: square"/>
   </g>
   <g id="patch_5">
    <path d="M 178.613747 245.93875 
L 178.613747 26.88 
" style="fill: none; stroke: #000000; stroke-width: 0.8; stroke-linejoin: miter; stroke-linecap: square"/>
   </g>
   <g id="patch_6">
    <path d="M 50.97125 245.93875 
L 178.613747 245.93875 
" style="fill: none; stroke: #000000; stroke-width: 0.8; stroke-linejoin: miter; stroke-linecap: square"/>
   </g>
   <g id="patch_7">
    <path d="M 50.97125 26.88 
L 178.613747 26.88 
" style="fill: none; stroke: #000000; stroke-width: 0.8; stroke-linejoin: miter; stroke-linecap: square"/>
   </g>
   <g id="text_10">
    <!-- Root node count -->
    <g transform="translate(65.482811 20.88) scale(0.12 -0.12)">
     <defs>
      <path id="DejaVuSans-52" d="M 2841 2188 
Q 3044 2119 3236 1894 
Q 3428 1669 3622 1275 
L 4263 0 
L 3584 0 
L 2988 1197 
Q 2756 1666 2539 1819 
Q 2322 1972 1947 1972 
L 1259 1972 
L 1259 0 
L 628 0 
L 628 4666 
L 2053 4666 
Q 2853 4666 3247 4331 
Q 3641 3997 3641 3322 
Q 3641 2881 3436 2590 
Q 3231 2300 2841 2188 
z
M 1259 4147 
L 1259 2491 
L 2053 2491 
Q 2509 2491 2742 2702 
Q 2975 2913 2975 3322 
Q 2975 3731 2742 3939 
Q 2509 4147 2053 4147 
L 1259 4147 
z
" transform="scale(0.015625)"/>
      <path id="DejaVuSans-20" transform="scale(0.015625)"/>
      <path id="DejaVuSans-63" d="M 3122 3366 
L 3122 2828 
Q 2878 2963 2633 3030 
Q 2388 3097 2138 3097 
Q 1578 3097 1268 2742 
Q 959 2388 959 1747 
Q 959 1106 1268 751 
Q 1578 397 2138 397 
Q 2388 397 2633 464 
Q 2878 531 3122 666 
L 3122 134 
Q 2881 22 2623 -34 
Q 2366 -91 2075 -91 
Q 1284 -91 818 406 
Q 353 903 353 1747 
Q 353 2603 823 3093 
Q 1294 3584 2113 3584 
Q 2378 3584 2631 3529 
Q 2884 3475 3122 3366 
z
" transform="scale(0.015625)"/>
      <path id="DejaVuSans-75" d="M 544 1381 
L 544 3500 
L 1119 3500 
L 1119 1403 
Q 1119 906 1312 657 
Q 1506 409 1894 409 
Q 2359 409 2629 706 
Q 2900 1003 2900 1516 
L 2900 3500 
L 3475 3500 
L 3475 0 
L 2900 0 
L 2900 538 
Q 2691 219 2414 64 
Q 2138 -91 1772 -91 
Q 1169 -91 856 284 
Q 544 659 544 1381 
z
M 1991 3584 
L 1991 3584 
z
" transform="scale(0.015625)"/>
     </defs>
     <use xlink:href="#DejaVuSans-52"/>
     <use xlink:href="#DejaVuSans-6f" transform="translate(64.982422 0)"/>
     <use xlink:href="#DejaVuSans-6f" transform="translate(126.164062 0)"/>
     <use xlink:href="#DejaVuSans-74" transform="translate(187.345703 0)"/>
     <use xlink:href="#DejaVuSans-20" transform="translate(226.554688 0)"/>
     <use xlink:href="#DejaVuSans-6e" transform="translate(258.341797 0)"/>
     <use xlink:href="#DejaVuSans-6f" transform="translate(321.720703 0)"/>
     <use xlink:href="#DejaVuSans-64" transform="translate(382.902344 0)"/>
     <use xlink:href="#DejaVuSans-65" transform="translate(446.378906 0)"/>
     <use xlink:href="#DejaVuSans-20" transform="translate(507.902344 0)"/>
     <use xlink:href="#DejaVuSans-63" transform="translate(539.689453 0)"/>
     <use xlink:href="#DejaVuSans-6f" transform="translate(594.669922 0)"/>
     <use xlink:href="#DejaVuSans-75" transform="translate(655.851562 0)"/>
     <use xlink:href="#DejaVuSans-6e" transform="translate(719.230469 0)"/>
     <use xlink:href="#DejaVuSans-74" transform="translate(782.609375 0)"/>
    </g>
   </g>
  </g>
  <g id="axes_2">
   <g id="patch_8">
    <path d="M 232.633747 245.93875 
L 360.276243 245.93875 
L 360.276243 26.88 
L 232.633747 26.88 
z
" style="fill: #ffffff"/>
   </g>
   <g id="matplotlib.axis_3">
    <g id="xtick_2">
     <g id="line2d_14">
      <g>
       <use xlink:href="#m66cc2d23ec" x="296.454995" y="245.93875" style="stroke: #000000; stroke-width: 0.8"/>
      </g>
     </g>
     <g id="text_11">
      <!-- AMY -->
      <g transform="translate(285.666714 260.537188) scale(0.1 -0.1)">
       <use xlink:href="#DejaVuSans-41"/>
       <use xlink:href="#DejaVuSans-4d" transform="translate(68.408203 0)"/>
       <use xlink:href="#DejaVuSans-59" transform="translate(154.6875 0)"/>
      </g>
     </g>
    </g>
    <g id="text_12">
     <!-- dataset -->
     <g transform="translate(277.551089 274.215312) scale(0.1 -0.1)">
      <use xlink:href="#DejaVuSans-64"/>
      <use xlink:href="#DejaVuSans-61" transform="translate(63.476562 0)"/>
      <use xlink:href="#DejaVuSans-74" transform="translate(124.755859 0)"/>
      <use xlink:href="#DejaVuSans-61" transform="translate(163.964844 0)"/>
      <use xlink:href="#DejaVuSans-73" transform="translate(225.244141 0)"/>
      <use xlink:href="#DejaVuSans-65" transform="translate(277.34375 0)"/>
      <use xlink:href="#DejaVuSans-74" transform="translate(338.867188 0)"/>
     </g>
    </g>
   </g>
   <g id="matplotlib.axis_4">
    <g id="ytick_7">
     <g id="line2d_15">
      <g>
       <use xlink:href="#m83ad8a2216" x="232.633747" y="216.067102" style="stroke: #000000; stroke-width: 0.8"/>
      </g>
     </g>
     <g id="text_13">
      <!-- 96 -->
      <g transform="translate(212.908747 219.866321) scale(0.1 -0.1)">
       <defs>
        <path id="DejaVuSans-39" d="M 703 97 
L 703 672 
Q 941 559 1184 500 
Q 1428 441 1663 441 
Q 2288 441 2617 861 
Q 2947 1281 2994 2138 
Q 2813 1869 2534 1725 
Q 2256 1581 1919 1581 
Q 1219 1581 811 2004 
Q 403 2428 403 3163 
Q 403 3881 828 4315 
Q 1253 4750 1959 4750 
Q 2769 4750 3195 4129 
Q 3622 3509 3622 2328 
Q 3622 1225 3098 567 
Q 2575 -91 1691 -91 
Q 1453 -91 1209 -44 
Q 966 3 703 97 
z
M 1959 2075 
Q 2384 2075 2632 2365 
Q 2881 2656 2881 3163 
Q 2881 3666 2632 3958 
Q 2384 4250 1959 4250 
Q 1534 4250 1286 3958 
Q 1038 3666 1038 3163 
Q 1038 2656 1286 2365 
Q 1534 2075 1959 2075 
z
" transform="scale(0.015625)"/>
        <path id="DejaVuSans-36" d="M 2113 2584 
Q 1688 2584 1439 2293 
Q 1191 2003 1191 1497 
Q 1191 994 1439 701 
Q 1688 409 2113 409 
Q 2538 409 2786 701 
Q 3034 994 3034 1497 
Q 3034 2003 2786 2293 
Q 2538 2584 2113 2584 
z
M 3366 4563 
L 3366 3988 
Q 3128 4100 2886 4159 
Q 2644 4219 2406 4219 
Q 1781 4219 1451 3797 
Q 1122 3375 1075 2522 
Q 1259 2794 1537 2939 
Q 1816 3084 2150 3084 
Q 2853 3084 3261 2657 
Q 3669 2231 3669 1497 
Q 3669 778 3244 343 
Q 2819 -91 2113 -91 
Q 1303 -91 875 529 
Q 447 1150 447 2328 
Q 447 3434 972 4092 
Q 1497 4750 2381 4750 
Q 2619 4750 2861 4703 
Q 3103 4656 3366 4563 
z
" transform="scale(0.015625)"/>
       </defs>
       <use xlink:href="#DejaVuSans-39"/>
       <use xlink:href="#DejaVuSans-36" transform="translate(63.623047 0)"/>
      </g>
     </g>
    </g>
    <g id="ytick_8">
     <g id="line2d_16">
      <g>
       <use xlink:href="#m83ad8a2216" x="232.633747" y="176.238239" style="stroke: #000000; stroke-width: 0.8"/>
      </g>
     </g>
     <g id="text_14">
      <!-- 98 -->
      <g transform="translate(212.908747 180.037457) scale(0.1 -0.1)">
       <defs>
        <path id="DejaVuSans-38" d="M 2034 2216 
Q 1584 2216 1326 1975 
Q 1069 1734 1069 1313 
Q 1069 891 1326 650 
Q 1584 409 2034 409 
Q 2484 409 2743 651 
Q 3003 894 3003 1313 
Q 3003 1734 2745 1975 
Q 2488 2216 2034 2216 
z
M 1403 2484 
Q 997 2584 770 2862 
Q 544 3141 544 3541 
Q 544 4100 942 4425 
Q 1341 4750 2034 4750 
Q 2731 4750 3128 4425 
Q 3525 4100 3525 3541 
Q 3525 3141 3298 2862 
Q 3072 2584 2669 2484 
Q 3125 2378 3379 2068 
Q 3634 1759 3634 1313 
Q 3634 634 3220 271 
Q 2806 -91 2034 -91 
Q 1263 -91 848 271 
Q 434 634 434 1313 
Q 434 1759 690 2068 
Q 947 2378 1403 2484 
z
M 1172 3481 
Q 1172 3119 1398 2916 
Q 1625 2713 2034 2713 
Q 2441 2713 2670 2916 
Q 2900 3119 2900 3481 
Q 2900 3844 2670 4047 
Q 2441 4250 2034 4250 
Q 1625 4250 1398 4047 
Q 1172 3844 1172 3481 
z
" transform="scale(0.015625)"/>
       </defs>
       <use xlink:href="#DejaVuSans-39"/>
       <use xlink:href="#DejaVuSans-38" transform="translate(63.623047 0)"/>
      </g>
     </g>
    </g>
    <g id="ytick_9">
     <g id="line2d_17">
      <g>
       <use xlink:href="#m83ad8a2216" x="232.633747" y="136.409375" style="stroke: #000000; stroke-width: 0.8"/>
      </g>
     </g>
     <g id="text_15">
      <!-- 100 -->
      <g transform="translate(206.546247 140.208594) scale(0.1 -0.1)">
       <use xlink:href="#DejaVuSans-31"/>
       <use xlink:href="#DejaVuSans-30" transform="translate(63.623047 0)"/>
       <use xlink:href="#DejaVuSans-30" transform="translate(127.246094 0)"/>
      </g>
     </g>
    </g>
    <g id="ytick_10">
     <g id="line2d_18">
      <g>
       <use xlink:href="#m83ad8a2216" x="232.633747" y="96.580511" style="stroke: #000000; stroke-width: 0.8"/>
      </g>
     </g>
     <g id="text_16">
      <!-- 102 -->
      <g transform="translate(206.546247 100.37973) scale(0.1 -0.1)">
       <use xlink:href="#DejaVuSans-31"/>
       <use xlink:href="#DejaVuSans-30" transform="translate(63.623047 0)"/>
       <use xlink:href="#DejaVuSans-32" transform="translate(127.246094 0)"/>
      </g>
     </g>
    </g>
    <g id="ytick_11">
     <g id="line2d_19">
      <g>
       <use xlink:href="#m83ad8a2216" x="232.633747" y="56.751648" style="stroke: #000000; stroke-width: 0.8"/>
      </g>
     </g>
     <g id="text_17">
      <!-- 104 -->
      <g transform="translate(206.546247 60.550866) scale(0.1 -0.1)">
       <defs>
        <path id="DejaVuSans-34" d="M 2419 4116 
L 825 1625 
L 2419 1625 
L 2419 4116 
z
M 2253 4666 
L 3047 4666 
L 3047 1625 
L 3713 1625 
L 3713 1100 
L 3047 1100 
L 3047 0 
L 2419 0 
L 2419 1100 
L 313 1100 
L 313 1709 
L 2253 4666 
z
" transform="scale(0.015625)"/>
       </defs>
       <use xlink:href="#DejaVuSans-31"/>
       <use xlink:href="#DejaVuSans-30" transform="translate(63.623047 0)"/>
       <use xlink:href="#DejaVuSans-34" transform="translate(127.246094 0)"/>
      </g>
     </g>
    </g>
    <g id="text_18">
     <!-- active_source_pcr -->
     <g transform="translate(200.188434 181.188281) rotate(-90) scale(0.1 -0.1)">
      <defs>
       <path id="DejaVuSans-69" d="M 603 3500 
L 1178 3500 
L 1178 0 
L 603 0 
L 603 3500 
z
M 603 4863 
L 1178 4863 
L 1178 4134 
L 603 4134 
L 603 4863 
z
" transform="scale(0.015625)"/>
       <path id="DejaVuSans-76" d="M 191 3500 
L 800 3500 
L 1894 563 
L 2988 3500 
L 3597 3500 
L 2284 0 
L 1503 0 
L 191 3500 
z
" transform="scale(0.015625)"/>
       <path id="DejaVuSans-70" d="M 1159 525 
L 1159 -1331 
L 581 -1331 
L 581 3500 
L 1159 3500 
L 1159 2969 
Q 1341 3281 1617 3432 
Q 1894 3584 2278 3584 
Q 2916 3584 3314 3078 
Q 3713 2572 3713 1747 
Q 3713 922 3314 415 
Q 2916 -91 2278 -91 
Q 1894 -91 1617 61 
Q 1341 213 1159 525 
z
M 3116 1747 
Q 3116 2381 2855 2742 
Q 2594 3103 2138 3103 
Q 1681 3103 1420 2742 
Q 1159 2381 1159 1747 
Q 1159 1113 1420 752 
Q 1681 391 2138 391 
Q 2594 391 2855 752 
Q 3116 1113 3116 1747 
z
" transform="scale(0.015625)"/>
      </defs>
      <use xlink:href="#DejaVuSans-61"/>
      <use xlink:href="#DejaVuSans-63" transform="translate(61.279297 0)"/>
      <use xlink:href="#DejaVuSans-74" transform="translate(116.259766 0)"/>
      <use xlink:href="#DejaVuSans-69" transform="translate(155.46875 0)"/>
      <use xlink:href="#DejaVuSans-76" transform="translate(183.251953 0)"/>
      <use xlink:href="#DejaVuSans-65" transform="translate(242.431641 0)"/>
      <use xlink:href="#DejaVuSans-5f" transform="translate(303.955078 0)"/>
      <use xlink:href="#DejaVuSans-73" transform="translate(353.955078 0)"/>
      <use xlink:href="#DejaVuSans-6f" transform="translate(406.054688 0)"/>
      <use xlink:href="#DejaVuSans-75" transform="translate(467.236328 0)"/>
      <use xlink:href="#DejaVuSans-72" transform="translate(530.615234 0)"/>
      <use xlink:href="#DejaVuSans-63" transform="translate(569.478516 0)"/>
      <use xlink:href="#DejaVuSans-65" transform="translate(624.458984 0)"/>
      <use xlink:href="#DejaVuSans-5f" transform="translate(685.982422 0)"/>
      <use xlink:href="#DejaVuSans-70" transform="translate(735.982422 0)"/>
      <use xlink:href="#DejaVuSans-63" transform="translate(799.458984 0)"/>
      <use xlink:href="#DejaVuSans-72" transform="translate(854.439453 0)"/>
     </g>
    </g>
   </g>
   <g id="patch_9">
    <path d="M 245.397996 136.409375 
L 347.511993 136.409375 
L 347.511993 136.409375 
L 245.397996 136.409375 
L 245.397996 136.409375 
z
" clip-path="url(#p743ac0cb6b)" style="fill: #3274a1; stroke: #3f3f3f; stroke-linejoin: miter"/>
   </g>
   <g id="line2d_20">
    <path d="M 296.454995 136.409375 
L 296.454995 136.409375 
" clip-path="url(#p743ac0cb6b)" style="fill: none; stroke: #3f3f3f"/>
   </g>
   <g id="line2d_21">
    <path d="M 296.454995 136.409375 
L 296.454995 136.409375 
" clip-path="url(#p743ac0cb6b)" style="fill: none; stroke: #3f3f3f"/>
   </g>
   <g id="line2d_22">
    <path d="M 270.926495 136.409375 
L 321.983494 136.409375 
" clip-path="url(#p743ac0cb6b)" style="fill: none; stroke: #3f3f3f; stroke-linecap: square"/>
   </g>
   <g id="line2d_23">
    <path d="M 270.926495 136.409375 
L 321.983494 136.409375 
" clip-path="url(#p743ac0cb6b)" style="fill: none; stroke: #3f3f3f; stroke-linecap: square"/>
   </g>
   <g id="line2d_24"/>
   <g id="line2d_25">
    <path d="M 245.397996 136.409375 
L 347.511993 136.409375 
" clip-path="url(#p743ac0cb6b)" style="fill: none; stroke: #3f3f3f"/>
   </g>
   <g id="patch_10">
    <path d="M 232.633747 245.93875 
L 232.633747 26.88 
" style="fill: none; stroke: #000000; stroke-width: 0.8; stroke-linejoin: miter; stroke-linecap: square"/>
   </g>
   <g id="patch_11">
    <path d="M 360.276243 245.93875 
L 360.276243 26.88 
" style="fill: none; stroke: #000000; stroke-width: 0.8; stroke-linejoin: miter; stroke-linecap: square"/>
   </g>
   <g id="patch_12">
    <path d="M 232.633747 245.93875 
L 360.276243 245.93875 
" style="fill: none; stroke: #000000; stroke-width: 0.8; stroke-linejoin: miter; stroke-linecap: square"/>
   </g>
   <g id="patch_13">
    <path d="M 232.633747 26.88 
L 360.276243 26.88 
" style="fill: none; stroke: #000000; stroke-width: 0.8; stroke-linejoin: miter; stroke-linecap: square"/>
   </g>
   <g id="text_19">
    <!-- Active sources in context(%) -->
    <g transform="translate(210.658745 20.88) scale(0.12 -0.12)">
     <defs>
      <path id="DejaVuSans-78" d="M 3513 3500 
L 2247 1797 
L 3578 0 
L 2900 0 
L 1881 1375 
L 863 0 
L 184 0 
L 1544 1831 
L 300 3500 
L 978 3500 
L 1906 2253 
L 2834 3500 
L 3513 3500 
z
" transform="scale(0.015625)"/>
      <path id="DejaVuSans-28" d="M 1984 4856 
Q 1566 4138 1362 3434 
Q 1159 2731 1159 2009 
Q 1159 1288 1364 580 
Q 1569 -128 1984 -844 
L 1484 -844 
Q 1016 -109 783 600 
Q 550 1309 550 2009 
Q 550 2706 781 3412 
Q 1013 4119 1484 4856 
L 1984 4856 
z
" transform="scale(0.015625)"/>
      <path id="DejaVuSans-25" d="M 4653 2053 
Q 4381 2053 4226 1822 
Q 4072 1591 4072 1178 
Q 4072 772 4226 539 
Q 4381 306 4653 306 
Q 4919 306 5073 539 
Q 5228 772 5228 1178 
Q 5228 1588 5073 1820 
Q 4919 2053 4653 2053 
z
M 4653 2450 
Q 5147 2450 5437 2106 
Q 5728 1763 5728 1178 
Q 5728 594 5436 251 
Q 5144 -91 4653 -91 
Q 4153 -91 3862 251 
Q 3572 594 3572 1178 
Q 3572 1766 3864 2108 
Q 4156 2450 4653 2450 
z
M 1428 4353 
Q 1159 4353 1004 4120 
Q 850 3888 850 3481 
Q 850 3069 1003 2837 
Q 1156 2606 1428 2606 
Q 1700 2606 1854 2837 
Q 2009 3069 2009 3481 
Q 2009 3884 1853 4118 
Q 1697 4353 1428 4353 
z
M 4250 4750 
L 4750 4750 
L 1831 -91 
L 1331 -91 
L 4250 4750 
z
M 1428 4750 
Q 1922 4750 2215 4408 
Q 2509 4066 2509 3481 
Q 2509 2891 2217 2550 
Q 1925 2209 1428 2209 
Q 931 2209 642 2551 
Q 353 2894 353 3481 
Q 353 4063 643 4406 
Q 934 4750 1428 4750 
z
" transform="scale(0.015625)"/>
      <path id="DejaVuSans-29" d="M 513 4856 
L 1013 4856 
Q 1481 4119 1714 3412 
Q 1947 2706 1947 2009 
Q 1947 1309 1714 600 
Q 1481 -109 1013 -844 
L 513 -844 
Q 928 -128 1133 580 
Q 1338 1288 1338 2009 
Q 1338 2731 1133 3434 
Q 928 4138 513 4856 
z
" transform="scale(0.015625)"/>
     </defs>
     <use xlink:href="#DejaVuSans-41"/>
     <use xlink:href="#DejaVuSans-63" transform="translate(66.658203 0)"/>
     <use xlink:href="#DejaVuSans-74" transform="translate(121.638672 0)"/>
     <use xlink:href="#DejaVuSans-69" transform="translate(160.847656 0)"/>
     <use xlink:href="#DejaVuSans-76" transform="translate(188.630859 0)"/>
     <use xlink:href="#DejaVuSans-65" transform="translate(247.810547 0)"/>
     <use xlink:href="#DejaVuSans-20" transform="translate(309.333984 0)"/>
     <use xlink:href="#DejaVuSans-73" transform="translate(341.121094 0)"/>
     <use xlink:href="#DejaVuSans-6f" transform="translate(393.220703 0)"/>
     <use xlink:href="#DejaVuSans-75" transform="translate(454.402344 0)"/>
     <use xlink:href="#DejaVuSans-72" transform="translate(517.78125 0)"/>
     <use xlink:href="#DejaVuSans-63" transform="translate(556.644531 0)"/>
     <use xlink:href="#DejaVuSans-65" transform="translate(611.625 0)"/>
     <use xlink:href="#DejaVuSans-73" transform="translate(673.148438 0)"/>
     <use xlink:href="#DejaVuSans-20" transform="translate(725.248047 0)"/>
     <use xlink:href="#DejaVuSans-69" transform="translate(757.035156 0)"/>
     <use xlink:href="#DejaVuSans-6e" transform="translate(784.818359 0)"/>
     <use xlink:href="#DejaVuSans-20" transform="translate(848.197266 0)"/>
     <use xlink:href="#DejaVuSans-63" transform="translate(879.984375 0)"/>
     <use xlink:href="#DejaVuSans-6f" transform="translate(934.964844 0)"/>
     <use xlink:href="#DejaVuSans-6e" transform="translate(996.146484 0)"/>
     <use xlink:href="#DejaVuSans-74" transform="translate(1059.525391 0)"/>
     <use xlink:href="#DejaVuSans-65" transform="translate(1098.734375 0)"/>
     <use xlink:href="#DejaVuSans-78" transform="translate(1158.507812 0)"/>
     <use xlink:href="#DejaVuSans-74" transform="translate(1217.6875 0)"/>
     <use xlink:href="#DejaVuSans-28" transform="translate(1256.896484 0)"/>
     <use xlink:href="#DejaVuSans-25" transform="translate(1295.910156 0)"/>
     <use xlink:href="#DejaVuSans-29" transform="translate(1390.929688 0)"/>
    </g>
   </g>
  </g>
  <g id="axes_3">
   <g id="patch_14">
    <path d="M 414.296243 245.93875 
L 541.93874 245.93875 
L 541.93874 26.88 
L 414.296243 26.88 
z
" style="fill: #ffffff"/>
   </g>
   <g id="matplotlib.axis_5">
    <g id="xtick_3">
     <g id="line2d_26">
      <g>
       <use xlink:href="#m66cc2d23ec" x="478.117491" y="245.93875" style="stroke: #000000; stroke-width: 0.8"/>
      </g>
     </g>
     <g id="text_20">
      <!-- AMY -->
      <g transform="translate(467.32921 260.537188) scale(0.1 -0.1)">
       <use xlink:href="#DejaVuSans-41"/>
       <use xlink:href="#DejaVuSans-4d" transform="translate(68.408203 0)"/>
       <use xlink:href="#DejaVuSans-59" transform="translate(154.6875 0)"/>
      </g>
     </g>
    </g>
    <g id="text_21">
     <!-- dataset -->
     <g transform="translate(459.213585 274.215312) scale(0.1 -0.1)">
      <use xlink:href="#DejaVuSans-64"/>
      <use xlink:href="#DejaVuSans-61" transform="translate(63.476562 0)"/>
      <use xlink:href="#DejaVuSans-74" transform="translate(124.755859 0)"/>
      <use xlink:href="#DejaVuSans-61" transform="translate(163.964844 0)"/>
      <use xlink:href="#DejaVuSans-73" transform="translate(225.244141 0)"/>
      <use xlink:href="#DejaVuSans-65" transform="translate(277.34375 0)"/>
      <use xlink:href="#DejaVuSans-74" transform="translate(338.867188 0)"/>
     </g>
    </g>
   </g>
   <g id="matplotlib.axis_6">
    <g id="ytick_12">
     <g id="line2d_27">
      <g>
       <use xlink:href="#m83ad8a2216" x="414.296243" y="226.636457" style="stroke: #000000; stroke-width: 0.8"/>
      </g>
     </g>
     <g id="text_22">
      <!-- 20 -->
      <g transform="translate(394.571243 230.435676) scale(0.1 -0.1)">
       <use xlink:href="#DejaVuSans-32"/>
       <use xlink:href="#DejaVuSans-30" transform="translate(63.623047 0)"/>
      </g>
     </g>
    </g>
    <g id="ytick_13">
     <g id="line2d_28">
      <g>
       <use xlink:href="#m83ad8a2216" x="414.296243" y="178.341485" style="stroke: #000000; stroke-width: 0.8"/>
      </g>
     </g>
     <g id="text_23">
      <!-- 40 -->
      <g transform="translate(394.571243 182.140703) scale(0.1 -0.1)">
       <use xlink:href="#DejaVuSans-34"/>
       <use xlink:href="#DejaVuSans-30" transform="translate(63.623047 0)"/>
      </g>
     </g>
    </g>
    <g id="ytick_14">
     <g id="line2d_29">
      <g>
       <use xlink:href="#m83ad8a2216" x="414.296243" y="130.046512" style="stroke: #000000; stroke-width: 0.8"/>
      </g>
     </g>
     <g id="text_24">
      <!-- 60 -->
      <g transform="translate(394.571243 133.845731) scale(0.1 -0.1)">
       <use xlink:href="#DejaVuSans-36"/>
       <use xlink:href="#DejaVuSans-30" transform="translate(63.623047 0)"/>
      </g>
     </g>
    </g>
    <g id="ytick_15">
     <g id="line2d_30">
      <g>
       <use xlink:href="#m83ad8a2216" x="414.296243" y="81.75154" style="stroke: #000000; stroke-width: 0.8"/>
      </g>
     </g>
     <g id="text_25">
      <!-- 80 -->
      <g transform="translate(394.571243 85.550759) scale(0.1 -0.1)">
       <use xlink:href="#DejaVuSans-38"/>
       <use xlink:href="#DejaVuSans-30" transform="translate(63.623047 0)"/>
      </g>
     </g>
    </g>
    <g id="ytick_16">
     <g id="line2d_31">
      <g>
       <use xlink:href="#m83ad8a2216" x="414.296243" y="33.456568" style="stroke: #000000; stroke-width: 0.8"/>
      </g>
     </g>
     <g id="text_26">
      <!-- 100 -->
      <g transform="translate(388.208743 37.255787) scale(0.1 -0.1)">
       <use xlink:href="#DejaVuSans-31"/>
       <use xlink:href="#DejaVuSans-30" transform="translate(63.623047 0)"/>
       <use xlink:href="#DejaVuSans-30" transform="translate(127.246094 0)"/>
      </g>
     </g>
    </g>
    <g id="text_27">
     <!-- sparsity_pcr -->
     <g transform="translate(381.850931 166.7) rotate(-90) scale(0.1 -0.1)">
      <defs>
       <path id="DejaVuSans-79" d="M 2059 -325 
Q 1816 -950 1584 -1140 
Q 1353 -1331 966 -1331 
L 506 -1331 
L 506 -850 
L 844 -850 
Q 1081 -850 1212 -737 
Q 1344 -625 1503 -206 
L 1606 56 
L 191 3500 
L 800 3500 
L 1894 763 
L 2988 3500 
L 3597 3500 
L 2059 -325 
z
" transform="scale(0.015625)"/>
      </defs>
      <use xlink:href="#DejaVuSans-73"/>
      <use xlink:href="#DejaVuSans-70" transform="translate(52.099609 0)"/>
      <use xlink:href="#DejaVuSans-61" transform="translate(115.576172 0)"/>
      <use xlink:href="#DejaVuSans-72" transform="translate(176.855469 0)"/>
      <use xlink:href="#DejaVuSans-73" transform="translate(217.96875 0)"/>
      <use xlink:href="#DejaVuSans-69" transform="translate(270.068359 0)"/>
      <use xlink:href="#DejaVuSans-74" transform="translate(297.851562 0)"/>
      <use xlink:href="#DejaVuSans-79" transform="translate(337.060547 0)"/>
      <use xlink:href="#DejaVuSans-5f" transform="translate(396.240234 0)"/>
      <use xlink:href="#DejaVuSans-70" transform="translate(446.240234 0)"/>
      <use xlink:href="#DejaVuSans-63" transform="translate(509.716797 0)"/>
      <use xlink:href="#DejaVuSans-72" transform="translate(564.697266 0)"/>
     </g>
    </g>
   </g>
   <g id="patch_15">
    <path d="M 427.060493 62.856132 
L 529.17449 62.856132 
L 529.17449 50.637504 
L 427.060493 50.637504 
L 427.060493 62.856132 
z
" clip-path="url(#p254fdc3140)" style="fill: #3274a1; stroke: #3f3f3f; stroke-linejoin: miter"/>
   </g>
   <g id="line2d_32">
    <path d="M 478.117491 62.856132 
L 478.117491 81.051263 
" clip-path="url(#p254fdc3140)" style="fill: none; stroke: #3f3f3f"/>
   </g>
   <g id="line2d_33">
    <path d="M 478.117491 50.637504 
L 478.117491 36.837216 
" clip-path="url(#p254fdc3140)" style="fill: none; stroke: #3f3f3f"/>
   </g>
   <g id="line2d_34">
    <path d="M 452.588992 81.051263 
L 503.645991 81.051263 
" clip-path="url(#p254fdc3140)" style="fill: none; stroke: #3f3f3f; stroke-linecap: square"/>
   </g>
   <g id="line2d_35">
    <path d="M 452.588992 36.837216 
L 503.645991 36.837216 
" clip-path="url(#p254fdc3140)" style="fill: none; stroke: #3f3f3f; stroke-linecap: square"/>
   </g>
   <g id="line2d_36">
    <g clip-path="url(#p254fdc3140)">
     <use xlink:href="#m50fa1c88e4" x="478.117491" y="101.117824" style="fill-opacity: 0; stroke: #3f3f3f"/>
     <use xlink:href="#m50fa1c88e4" x="478.117491" y="81.26859" style="fill-opacity: 0; stroke: #3f3f3f"/>
     <use xlink:href="#m50fa1c88e4" x="478.117491" y="84.021404" style="fill-opacity: 0; stroke: #3f3f3f"/>
     <use xlink:href="#m50fa1c88e4" x="478.117491" y="82.81403" style="fill-opacity: 0; stroke: #3f3f3f"/>
     <use xlink:href="#m50fa1c88e4" x="478.117491" y="96.240032" style="fill-opacity: 0; stroke: #3f3f3f"/>
     <use xlink:href="#m50fa1c88e4" x="478.117491" y="116.113413" style="fill-opacity: 0; stroke: #3f3f3f"/>
     <use xlink:href="#m50fa1c88e4" x="478.117491" y="84.335321" style="fill-opacity: 0; stroke: #3f3f3f"/>
     <use xlink:href="#m50fa1c88e4" x="478.117491" y="121.208532" style="fill-opacity: 0; stroke: #3f3f3f"/>
     <use xlink:href="#m50fa1c88e4" x="478.117491" y="89.430441" style="fill-opacity: 0; stroke: #3f3f3f"/>
     <use xlink:href="#m50fa1c88e4" x="478.117491" y="113.988434" style="fill-opacity: 0; stroke: #3f3f3f"/>
     <use xlink:href="#m50fa1c88e4" x="478.117491" y="103.001328" style="fill-opacity: 0; stroke: #3f3f3f"/>
     <use xlink:href="#m50fa1c88e4" x="478.117491" y="106.961516" style="fill-opacity: 0; stroke: #3f3f3f"/>
     <use xlink:href="#m50fa1c88e4" x="478.117491" y="85.711728" style="fill-opacity: 0; stroke: #3f3f3f"/>
     <use xlink:href="#m50fa1c88e4" x="478.117491" y="96.964456" style="fill-opacity: 0; stroke: #3f3f3f"/>
     <use xlink:href="#m50fa1c88e4" x="478.117491" y="107.275433" style="fill-opacity: 0; stroke: #3f3f3f"/>
     <use xlink:href="#m50fa1c88e4" x="478.117491" y="123.092036" style="fill-opacity: 0; stroke: #3f3f3f"/>
     <use xlink:href="#m50fa1c88e4" x="478.117491" y="125.699965" style="fill-opacity: 0; stroke: #3f3f3f"/>
     <use xlink:href="#m50fa1c88e4" x="478.117491" y="84.842418" style="fill-opacity: 0; stroke: #3f3f3f"/>
     <use xlink:href="#m50fa1c88e4" x="478.117491" y="129.466973" style="fill-opacity: 0; stroke: #3f3f3f"/>
     <use xlink:href="#m50fa1c88e4" x="478.117491" y="82.741587" style="fill-opacity: 0; stroke: #3f3f3f"/>
     <use xlink:href="#m50fa1c88e4" x="478.117491" y="154.435473" style="fill-opacity: 0; stroke: #3f3f3f"/>
     <use xlink:href="#m50fa1c88e4" x="478.117491" y="106.478566" style="fill-opacity: 0; stroke: #3f3f3f"/>
     <use xlink:href="#m50fa1c88e4" x="478.117491" y="132.123196" style="fill-opacity: 0; stroke: #3f3f3f"/>
     <use xlink:href="#m50fa1c88e4" x="478.117491" y="99.282615" style="fill-opacity: 0; stroke: #3f3f3f"/>
     <use xlink:href="#m50fa1c88e4" x="478.117491" y="99.934597" style="fill-opacity: 0; stroke: #3f3f3f"/>
     <use xlink:href="#m50fa1c88e4" x="478.117491" y="107.613498" style="fill-opacity: 0; stroke: #3f3f3f"/>
     <use xlink:href="#m50fa1c88e4" x="478.117491" y="114.447236" style="fill-opacity: 0; stroke: #3f3f3f"/>
     <use xlink:href="#m50fa1c88e4" x="478.117491" y="121.643187" style="fill-opacity: 0; stroke: #3f3f3f"/>
     <use xlink:href="#m50fa1c88e4" x="478.117491" y="168.054656" style="fill-opacity: 0; stroke: #3f3f3f"/>
     <use xlink:href="#m50fa1c88e4" x="478.117491" y="113.119125" style="fill-opacity: 0; stroke: #3f3f3f"/>
     <use xlink:href="#m50fa1c88e4" x="478.117491" y="86.07394" style="fill-opacity: 0; stroke: #3f3f3f"/>
     <use xlink:href="#m50fa1c88e4" x="478.117491" y="235.981534" style="fill-opacity: 0; stroke: #3f3f3f"/>
     <use xlink:href="#m50fa1c88e4" x="478.117491" y="152.841739" style="fill-opacity: 0; stroke: #3f3f3f"/>
     <use xlink:href="#m50fa1c88e4" x="478.117491" y="118.117654" style="fill-opacity: 0; stroke: #3f3f3f"/>
     <use xlink:href="#m50fa1c88e4" x="478.117491" y="118.141802" style="fill-opacity: 0; stroke: #3f3f3f"/>
     <use xlink:href="#m50fa1c88e4" x="478.117491" y="113.215715" style="fill-opacity: 0; stroke: #3f3f3f"/>
     <use xlink:href="#m50fa1c88e4" x="478.117491" y="102.518378" style="fill-opacity: 0; stroke: #3f3f3f"/>
     <use xlink:href="#m50fa1c88e4" x="478.117491" y="116.934427" style="fill-opacity: 0; stroke: #3f3f3f"/>
     <use xlink:href="#m50fa1c88e4" x="478.117491" y="88.585279" style="fill-opacity: 0; stroke: #3f3f3f"/>
     <use xlink:href="#m50fa1c88e4" x="478.117491" y="104.764094" style="fill-opacity: 0; stroke: #3f3f3f"/>
     <use xlink:href="#m50fa1c88e4" x="478.117491" y="93.318186" style="fill-opacity: 0; stroke: #3f3f3f"/>
     <use xlink:href="#m50fa1c88e4" x="478.117491" y="84.045551" style="fill-opacity: 0; stroke: #3f3f3f"/>
     <use xlink:href="#m50fa1c88e4" x="478.117491" y="94.984363" style="fill-opacity: 0; stroke: #3f3f3f"/>
     <use xlink:href="#m50fa1c88e4" x="478.117491" y="92.328139" style="fill-opacity: 0; stroke: #3f3f3f"/>
     <use xlink:href="#m50fa1c88e4" x="478.117491" y="99.741417" style="fill-opacity: 0; stroke: #3f3f3f"/>
     <use xlink:href="#m50fa1c88e4" x="478.117491" y="92.859384" style="fill-opacity: 0; stroke: #3f3f3f"/>
     <use xlink:href="#m50fa1c88e4" x="478.117491" y="84.649238" style="fill-opacity: 0; stroke: #3f3f3f"/>
     <use xlink:href="#m50fa1c88e4" x="478.117491" y="85.929055" style="fill-opacity: 0; stroke: #3f3f3f"/>
     <use xlink:href="#m50fa1c88e4" x="478.117491" y="96.409064" style="fill-opacity: 0; stroke: #3f3f3f"/>
    </g>
   </g>
   <g id="line2d_37">
    <path d="M 427.060493 55.81714 
L 529.17449 55.81714 
" clip-path="url(#p254fdc3140)" style="fill: none; stroke: #3f3f3f"/>
   </g>
   <g id="patch_16">
    <path d="M 414.296243 245.93875 
L 414.296243 26.88 
" style="fill: none; stroke: #000000; stroke-width: 0.8; stroke-linejoin: miter; stroke-linecap: square"/>
   </g>
   <g id="patch_17">
    <path d="M 541.93874 245.93875 
L 541.93874 26.88 
" style="fill: none; stroke: #000000; stroke-width: 0.8; stroke-linejoin: miter; stroke-linecap: square"/>
   </g>
   <g id="patch_18">
    <path d="M 414.296243 245.93875 
L 541.93874 245.93875 
" style="fill: none; stroke: #000000; stroke-width: 0.8; stroke-linejoin: miter; stroke-linecap: square"/>
   </g>
   <g id="patch_19">
    <path d="M 414.296243 26.88 
L 541.93874 26.88 
" style="fill: none; stroke: #000000; stroke-width: 0.8; stroke-linejoin: miter; stroke-linecap: square"/>
   </g>
   <g id="text_28">
    <!-- Zero count Percentage -->
    <g transform="translate(409.824366 20.88) scale(0.12 -0.12)">
     <defs>
      <path id="DejaVuSans-5a" d="M 359 4666 
L 4025 4666 
L 4025 4184 
L 1075 531 
L 4097 531 
L 4097 0 
L 288 0 
L 288 481 
L 3238 4134 
L 359 4134 
L 359 4666 
z
" transform="scale(0.015625)"/>
      <path id="DejaVuSans-50" d="M 1259 4147 
L 1259 2394 
L 2053 2394 
Q 2494 2394 2734 2622 
Q 2975 2850 2975 3272 
Q 2975 3691 2734 3919 
Q 2494 4147 2053 4147 
L 1259 4147 
z
M 628 4666 
L 2053 4666 
Q 2838 4666 3239 4311 
Q 3641 3956 3641 3272 
Q 3641 2581 3239 2228 
Q 2838 1875 2053 1875 
L 1259 1875 
L 1259 0 
L 628 0 
L 628 4666 
z
" transform="scale(0.015625)"/>
      <path id="DejaVuSans-67" d="M 2906 1791 
Q 2906 2416 2648 2759 
Q 2391 3103 1925 3103 
Q 1463 3103 1205 2759 
Q 947 2416 947 1791 
Q 947 1169 1205 825 
Q 1463 481 1925 481 
Q 2391 481 2648 825 
Q 2906 1169 2906 1791 
z
M 3481 434 
Q 3481 -459 3084 -895 
Q 2688 -1331 1869 -1331 
Q 1566 -1331 1297 -1286 
Q 1028 -1241 775 -1147 
L 775 -588 
Q 1028 -725 1275 -790 
Q 1522 -856 1778 -856 
Q 2344 -856 2625 -561 
Q 2906 -266 2906 331 
L 2906 616 
Q 2728 306 2450 153 
Q 2172 0 1784 0 
Q 1141 0 747 490 
Q 353 981 353 1791 
Q 353 2603 747 3093 
Q 1141 3584 1784 3584 
Q 2172 3584 2450 3431 
Q 2728 3278 2906 2969 
L 2906 3500 
L 3481 3500 
L 3481 434 
z
" transform="scale(0.015625)"/>
     </defs>
     <use xlink:href="#DejaVuSans-5a"/>
     <use xlink:href="#DejaVuSans-65" transform="translate(68.505859 0)"/>
     <use xlink:href="#DejaVuSans-72" transform="translate(130.029297 0)"/>
     <use xlink:href="#DejaVuSans-6f" transform="translate(168.892578 0)"/>
     <use xlink:href="#DejaVuSans-20" transform="translate(230.074219 0)"/>
     <use xlink:href="#DejaVuSans-63" transform="translate(261.861328 0)"/>
     <use xlink:href="#DejaVuSans-6f" transform="translate(316.841797 0)"/>
     <use xlink:href="#DejaVuSans-75" transform="translate(378.023438 0)"/>
     <use xlink:href="#DejaVuSans-6e" transform="translate(441.402344 0)"/>
     <use xlink:href="#DejaVuSans-74" transform="translate(504.78125 0)"/>
     <use xlink:href="#DejaVuSans-20" transform="translate(543.990234 0)"/>
     <use xlink:href="#DejaVuSans-50" transform="translate(575.777344 0)"/>
     <use xlink:href="#DejaVuSans-65" transform="translate(632.455078 0)"/>
     <use xlink:href="#DejaVuSans-72" transform="translate(693.978516 0)"/>
     <use xlink:href="#DejaVuSans-63" transform="translate(732.841797 0)"/>
     <use xlink:href="#DejaVuSans-65" transform="translate(787.822266 0)"/>
     <use xlink:href="#DejaVuSans-6e" transform="translate(849.345703 0)"/>
     <use xlink:href="#DejaVuSans-74" transform="translate(912.724609 0)"/>
     <use xlink:href="#DejaVuSans-61" transform="translate(951.933594 0)"/>
     <use xlink:href="#DejaVuSans-67" transform="translate(1013.212891 0)"/>
     <use xlink:href="#DejaVuSans-65" transform="translate(1076.689453 0)"/>
    </g>
   </g>
  </g>
  <g id="axes_4">
   <g id="patch_20">
    <path d="M 595.95874 245.93875 
L 851.243733 245.93875 
L 851.243733 26.88 
L 595.95874 26.88 
z
" style="fill: #ffffff"/>
   </g>
   <g id="FillBetweenPolyCollection_1">
    <defs>
     <path id="mc07cbdc80b" d="M 607.562603 -42.091375 
L 607.562603 -42.06125 
L 608.72882 -42.06125 
L 609.895038 -42.06125 
L 611.061255 -42.06125 
L 612.227473 -42.06125 
L 613.39369 -42.06125 
L 614.559907 -42.06125 
L 615.726125 -42.06125 
L 616.892342 -42.06125 
L 618.05856 -42.06125 
L 619.224777 -42.06125 
L 620.390994 -42.06125 
L 621.557212 -42.06125 
L 622.723429 -42.06125 
L 623.889647 -42.06125 
L 625.055864 -42.06125 
L 626.222082 -42.06125 
L 627.388299 -42.06125 
L 628.554516 -42.06125 
L 629.720734 -42.06125 
L 630.886951 -42.06125 
L 632.053169 -42.06125 
L 633.219386 -42.06125 
L 634.385604 -42.06125 
L 635.551821 -42.06125 
L 636.718038 -42.06125 
L 637.884256 -42.06125 
L 639.050473 -42.06125 
L 640.216691 -42.06125 
L 641.382908 -42.06125 
L 642.549125 -42.06125 
L 643.715343 -42.06125 
L 644.88156 -42.06125 
L 646.047778 -42.06125 
L 647.213995 -42.06125 
L 648.380213 -42.06125 
L 649.54643 -42.06125 
L 650.712647 -42.06125 
L 651.878865 -42.06125 
L 653.045082 -42.06125 
L 654.2113 -42.06125 
L 655.377517 -42.06125 
L 656.543734 -42.06125 
L 657.709952 -42.06125 
L 658.876169 -42.06125 
L 660.042387 -42.06125 
L 661.208604 -42.06125 
L 662.374822 -42.06125 
L 663.541039 -42.06125 
L 664.707256 -42.06125 
L 665.873474 -42.06125 
L 667.039691 -42.06125 
L 668.205909 -42.06125 
L 669.372126 -42.06125 
L 670.538344 -42.06125 
L 671.704561 -42.06125 
L 672.870778 -42.06125 
L 674.036996 -42.06125 
L 675.203213 -42.06125 
L 676.369431 -42.06125 
L 677.535648 -42.06125 
L 678.701865 -42.06125 
L 679.868083 -42.06125 
L 681.0343 -42.06125 
L 682.200518 -42.06125 
L 683.366735 -42.06125 
L 684.532953 -42.06125 
L 685.69917 -42.06125 
L 686.865387 -42.06125 
L 688.031605 -42.06125 
L 689.197822 -42.06125 
L 690.36404 -42.06125 
L 691.530257 -42.06125 
L 692.696474 -42.06125 
L 693.862692 -42.06125 
L 695.028909 -42.06125 
L 696.195127 -42.06125 
L 697.361344 -42.06125 
L 698.527562 -42.06125 
L 699.693779 -42.06125 
L 700.859996 -42.06125 
L 702.026214 -42.06125 
L 703.192431 -42.06125 
L 704.358649 -42.06125 
L 705.524866 -42.06125 
L 706.691084 -42.06125 
L 707.857301 -42.06125 
L 709.023518 -42.06125 
L 710.189736 -42.06125 
L 711.355953 -42.06125 
L 712.522171 -42.06125 
L 713.688388 -42.06125 
L 714.854605 -42.06125 
L 716.020823 -42.06125 
L 717.18704 -42.06125 
L 718.353258 -42.06125 
L 719.519475 -42.06125 
L 720.685693 -42.06125 
L 721.85191 -42.06125 
L 723.018127 -42.06125 
L 724.184345 -42.06125 
L 725.350562 -42.06125 
L 726.51678 -42.06125 
L 727.682997 -42.06125 
L 728.849214 -42.06125 
L 730.015432 -42.06125 
L 731.181649 -42.06125 
L 732.347867 -42.06125 
L 733.514084 -42.06125 
L 734.680302 -42.06125 
L 735.846519 -42.06125 
L 737.012736 -42.06125 
L 738.178954 -42.06125 
L 739.345171 -42.06125 
L 740.511389 -42.06125 
L 741.677606 -42.06125 
L 742.843824 -42.06125 
L 744.010041 -42.06125 
L 745.176258 -42.06125 
L 746.342476 -42.06125 
L 747.508693 -42.06125 
L 748.674911 -42.06125 
L 749.841128 -42.06125 
L 751.007345 -42.06125 
L 752.173563 -42.06125 
L 753.33978 -42.06125 
L 754.505998 -42.06125 
L 755.672215 -42.06125 
L 756.838433 -42.06125 
L 758.00465 -42.06125 
L 759.170867 -42.06125 
L 760.337085 -42.06125 
L 761.503302 -42.06125 
L 762.66952 -42.06125 
L 763.835737 -42.06125 
L 765.001954 -42.06125 
L 766.168172 -42.06125 
L 767.334389 -42.06125 
L 768.500607 -42.06125 
L 769.666824 -42.06125 
L 770.833042 -42.06125 
L 771.999259 -42.06125 
L 773.165476 -42.06125 
L 774.331694 -42.06125 
L 775.497911 -42.06125 
L 776.664129 -42.06125 
L 777.830346 -42.06125 
L 778.996563 -42.06125 
L 780.162781 -42.06125 
L 781.328998 -42.06125 
L 782.495216 -42.06125 
L 783.661433 -42.06125 
L 784.827651 -42.06125 
L 785.993868 -42.06125 
L 787.160085 -42.06125 
L 788.326303 -42.06125 
L 789.49252 -42.06125 
L 790.658738 -42.06125 
L 791.824955 -42.06125 
L 792.991173 -42.06125 
L 794.15739 -42.06125 
L 795.323607 -42.06125 
L 796.489825 -42.06125 
L 797.656042 -42.06125 
L 798.82226 -42.06125 
L 799.988477 -42.06125 
L 801.154694 -42.06125 
L 802.320912 -42.06125 
L 803.487129 -42.06125 
L 804.653347 -42.06125 
L 805.819564 -42.06125 
L 806.985782 -42.06125 
L 808.151999 -42.06125 
L 809.318216 -42.06125 
L 810.484434 -42.06125 
L 811.650651 -42.06125 
L 812.816869 -42.06125 
L 813.983086 -42.06125 
L 815.149303 -42.06125 
L 816.315521 -42.06125 
L 817.481738 -42.06125 
L 818.647956 -42.06125 
L 819.814173 -42.06125 
L 820.980391 -42.06125 
L 822.146608 -42.06125 
L 823.312825 -42.06125 
L 824.479043 -42.06125 
L 825.64526 -42.06125 
L 826.811478 -42.06125 
L 827.977695 -42.06125 
L 829.143913 -42.06125 
L 830.31013 -42.06125 
L 831.476347 -42.06125 
L 832.642565 -42.06125 
L 833.808782 -42.06125 
L 834.975 -42.06125 
L 836.141217 -42.06125 
L 837.307434 -42.06125 
L 838.473652 -42.06125 
L 839.639869 -42.06125 
L 839.639869 -42.077997 
L 839.639869 -42.077997 
L 838.473652 -42.086214 
L 837.307434 -42.097846 
L 836.141217 -42.114008 
L 834.975 -42.136054 
L 833.808782 -42.165568 
L 832.642565 -42.204345 
L 831.476347 -42.254338 
L 830.31013 -42.317574 
L 829.143913 -42.39604 
L 827.977695 -42.491534 
L 826.811478 -42.605499 
L 825.64526 -42.738846 
L 824.479043 -42.891784 
L 823.312825 -43.063683 
L 822.146608 -43.252992 
L 820.980391 -43.457226 
L 819.814173 -43.673042 
L 818.647956 -43.896415 
L 817.481738 -44.122896 
L 816.315521 -44.347945 
L 815.149303 -44.567298 
L 813.983086 -44.777348 
L 812.816869 -44.975477 
L 811.650651 -45.160305 
L 810.484434 -45.331832 
L 809.318216 -45.491436 
L 808.151999 -45.641737 
L 806.985782 -45.786334 
L 805.819564 -45.929449 
L 804.653347 -46.075525 
L 803.487129 -46.22882 
L 802.320912 -46.393055 
L 801.154694 -46.571156 
L 799.988477 -46.765115 
L 798.82226 -46.975978 
L 797.656042 -47.20397 
L 796.489825 -47.448697 
L 795.323607 -47.709426 
L 794.15739 -47.985364 
L 792.991173 -48.275905 
L 791.824955 -48.580802 
L 790.658738 -48.900233 
L 789.49252 -49.234751 
L 788.326303 -49.585121 
L 787.160085 -49.952079 
L 785.993868 -50.33604 
L 784.827651 -50.736813 
L 783.661433 -51.153384 
L 782.495216 -51.583786 
L 781.328998 -52.025118 
L 780.162781 -52.473708 
L 778.996563 -52.925414 
L 777.830346 -53.376045 
L 776.664129 -53.82184 
L 775.497911 -54.259971 
L 774.331694 -54.688997 
L 773.165476 -55.109243 
L 771.999259 -55.523056 
L 770.833042 -55.934926 
L 769.666824 -56.351477 
L 768.500607 -56.781335 
L 767.334389 -57.234894 
L 766.168172 -57.724006 
L 765.001954 -58.261617 
L 763.835737 -58.861363 
L 762.66952 -59.537154 
L 761.503302 -60.302755 
L 760.337085 -61.171385 
L 759.170867 -62.155351 
L 758.00465 -63.265748 
L 756.838433 -64.512226 
L 755.672215 -65.902848 
L 754.505998 -67.444028 
L 753.33978 -69.140527 
L 752.173563 -70.995481 
L 751.007345 -73.010399 
L 749.841128 -75.185092 
L 748.674911 -77.517479 
L 747.508693 -80.003258 
L 746.342476 -82.635436 
L 745.176258 -85.403761 
L 744.010041 -88.294138 
L 742.843824 -91.288117 
L 741.677606 -94.362592 
L 740.511389 -97.489799 
L 739.345171 -100.637749 
L 738.178954 -103.771122 
L 737.012736 -106.852664 
L 735.846519 -109.845026 
L 734.680302 -112.712935 
L 733.514084 -115.425547 
L 732.347867 -117.958758 
L 731.181649 -120.297263 
L 730.015432 -122.436112 
L 728.849214 -124.381589 
L 727.682997 -126.151276 
L 726.51678 -127.773235 
L 725.350562 -129.284366 
L 724.184345 -130.728075 
L 723.018127 -132.15147 
L 721.85191 -133.602378 
L 720.685693 -135.126466 
L 719.519475 -136.764769 
L 718.353258 -138.551817 
L 717.18704 -140.514521 
L 716.020823 -142.67181 
L 714.854605 -145.034966 
L 713.688388 -147.608465 
L 712.522171 -150.39113 
L 711.355953 -153.377356 
L 710.189736 -156.558227 
L 709.023518 -159.922386 
L 707.857301 -163.456627 
L 706.691084 -167.146228 
L 705.524866 -170.975137 
L 704.358649 -174.92612 
L 703.192431 -178.981008 
L 702.026214 -183.121082 
L 700.859996 -187.327635 
L 699.693779 -191.582604 
L 698.527562 -195.869152 
L 697.361344 -200.172019 
L 696.195127 -204.477462 
L 695.028909 -208.772668 
L 693.862692 -213.044584 
L 692.696474 -217.278238 
L 691.530257 -221.454703 
L 690.36404 -225.548979 
L 689.197822 -229.52811 
L 688.031605 -233.349853 
L 686.865387 -236.962194 
L 685.69917 -240.303899 
L 684.532953 -243.306177 
L 683.366735 -245.895381 
L 682.200518 -247.996551 
L 681.0343 -249.537481 
L 679.868083 -250.452942 
L 678.701865 -250.688631 
L 677.535648 -250.2045 
L 676.369431 -248.97714 
L 675.203213 -247.001038 
L 674.036996 -244.28861 
L 672.870778 -240.869085 
L 671.704561 -236.786386 
L 670.538344 -232.096246 
L 669.372126 -226.862869 
L 668.205909 -221.15545 
L 667.039691 -215.044828 
L 665.873474 -208.600552 
L 664.707256 -201.888519 
L 663.541039 -194.969315 
L 662.374822 -187.897291 
L 661.208604 -180.720329 
L 660.042387 -173.480229 
L 658.876169 -166.213569 
L 657.709952 -158.952879 
L 656.543734 -151.727969 
L 655.377517 -144.567227 
L 654.2113 -137.498742 
L 653.045082 -130.551126 
L 651.878865 -123.75395 
L 650.712647 -117.137733 
L 649.54643 -110.733518 
L 648.380213 -104.57205 
L 647.213995 -98.682688 
L 646.047778 -93.092153 
L 644.88156 -87.823271 
L 643.715343 -82.893861 
L 642.549125 -78.315897 
L 641.382908 -74.095036 
L 640.216691 -70.230568 
L 639.050473 -66.715786 
L 637.884256 -63.538714 
L 636.718038 -60.683114 
L 635.551821 -58.129643 
L 634.385604 -55.857038 
L 633.219386 -53.843219 
L 632.053169 -52.066208 
L 630.886951 -50.504828 
L 629.720734 -49.139137 
L 628.554516 -47.950642 
L 627.388299 -46.922316 
L 626.222082 -46.038477 
L 625.055864 -45.284611 
L 623.889647 -44.647165 
L 622.723429 -44.113378 
L 621.557212 -43.671169 
L 620.390994 -43.30908 
L 619.224777 -43.016291 
L 618.05856 -42.78267 
L 616.892342 -42.59885 
L 615.726125 -42.456307 
L 614.559907 -42.347426 
L 613.39369 -42.265537 
L 612.227473 -42.204918 
L 611.061255 -42.160763 
L 609.895038 -42.129124 
L 608.72882 -42.106827 
L 607.562603 -42.091375 
z
" style="stroke: #1f77b4"/>
    </defs>
    <g clip-path="url(#p52f45fbace)">
     <use xlink:href="#mc07cbdc80b" x="0" y="288" style="fill: #1f77b4; fill-opacity: 0.25; stroke: #1f77b4"/>
    </g>
   </g>
   <g id="matplotlib.axis_7">
    <g id="xtick_4">
     <g id="line2d_38">
      <g>
       <use xlink:href="#m66cc2d23ec" x="610.638875" y="245.93875" style="stroke: #000000; stroke-width: 0.8"/>
      </g>
     </g>
     <g id="text_29">
      <!-- 0 -->
      <g transform="translate(607.457625 260.537188) scale(0.1 -0.1)">
       <use xlink:href="#DejaVuSans-30"/>
      </g>
     </g>
    </g>
    <g id="xtick_5">
     <g id="line2d_39">
      <g>
       <use xlink:href="#m66cc2d23ec" x="669.599805" y="245.93875" style="stroke: #000000; stroke-width: 0.8"/>
      </g>
     </g>
     <g id="text_30">
      <!-- 10 -->
      <g transform="translate(663.237305 260.537188) scale(0.1 -0.1)">
       <use xlink:href="#DejaVuSans-31"/>
       <use xlink:href="#DejaVuSans-30" transform="translate(63.623047 0)"/>
      </g>
     </g>
    </g>
    <g id="xtick_6">
     <g id="line2d_40">
      <g>
       <use xlink:href="#m66cc2d23ec" x="728.560735" y="245.93875" style="stroke: #000000; stroke-width: 0.8"/>
      </g>
     </g>
     <g id="text_31">
      <!-- 20 -->
      <g transform="translate(722.198235 260.537188) scale(0.1 -0.1)">
       <use xlink:href="#DejaVuSans-32"/>
       <use xlink:href="#DejaVuSans-30" transform="translate(63.623047 0)"/>
      </g>
     </g>
    </g>
    <g id="xtick_7">
     <g id="line2d_41">
      <g>
       <use xlink:href="#m66cc2d23ec" x="787.521665" y="245.93875" style="stroke: #000000; stroke-width: 0.8"/>
      </g>
     </g>
     <g id="text_32">
      <!-- 30 -->
      <g transform="translate(781.159165 260.537188) scale(0.1 -0.1)">
       <defs>
        <path id="DejaVuSans-33" d="M 2597 2516 
Q 3050 2419 3304 2112 
Q 3559 1806 3559 1356 
Q 3559 666 3084 287 
Q 2609 -91 1734 -91 
Q 1441 -91 1130 -33 
Q 819 25 488 141 
L 488 750 
Q 750 597 1062 519 
Q 1375 441 1716 441 
Q 2309 441 2620 675 
Q 2931 909 2931 1356 
Q 2931 1769 2642 2001 
Q 2353 2234 1838 2234 
L 1294 2234 
L 1294 2753 
L 1863 2753 
Q 2328 2753 2575 2939 
Q 2822 3125 2822 3475 
Q 2822 3834 2567 4026 
Q 2313 4219 1838 4219 
Q 1578 4219 1281 4162 
Q 984 4106 628 3988 
L 628 4550 
Q 988 4650 1302 4700 
Q 1616 4750 1894 4750 
Q 2613 4750 3031 4423 
Q 3450 4097 3450 3541 
Q 3450 3153 3228 2886 
Q 3006 2619 2597 2516 
z
" transform="scale(0.015625)"/>
       </defs>
       <use xlink:href="#DejaVuSans-33"/>
       <use xlink:href="#DejaVuSans-30" transform="translate(63.623047 0)"/>
      </g>
     </g>
    </g>
    <g id="xtick_8">
     <g id="line2d_42">
      <g>
       <use xlink:href="#m66cc2d23ec" x="846.482595" y="245.93875" style="stroke: #000000; stroke-width: 0.8"/>
      </g>
     </g>
     <g id="text_33">
      <!-- 40 -->
      <g transform="translate(840.120095 260.537188) scale(0.1 -0.1)">
       <use xlink:href="#DejaVuSans-34"/>
       <use xlink:href="#DejaVuSans-30" transform="translate(63.623047 0)"/>
      </g>
     </g>
    </g>
    <g id="text_34">
     <!-- count_skew -->
     <g transform="translate(694.510611 274.215312) scale(0.1 -0.1)">
      <defs>
       <path id="DejaVuSans-6b" d="M 581 4863 
L 1159 4863 
L 1159 1991 
L 2875 3500 
L 3609 3500 
L 1753 1863 
L 3688 0 
L 2938 0 
L 1159 1709 
L 1159 0 
L 581 0 
L 581 4863 
z
" transform="scale(0.015625)"/>
       <path id="DejaVuSans-77" d="M 269 3500 
L 844 3500 
L 1563 769 
L 2278 3500 
L 2956 3500 
L 3675 769 
L 4391 3500 
L 4966 3500 
L 4050 0 
L 3372 0 
L 2619 2869 
L 1863 0 
L 1184 0 
L 269 3500 
z
" transform="scale(0.015625)"/>
      </defs>
      <use xlink:href="#DejaVuSans-63"/>
      <use xlink:href="#DejaVuSans-6f" transform="translate(54.980469 0)"/>
      <use xlink:href="#DejaVuSans-75" transform="translate(116.162109 0)"/>
      <use xlink:href="#DejaVuSans-6e" transform="translate(179.541016 0)"/>
      <use xlink:href="#DejaVuSans-74" transform="translate(242.919922 0)"/>
      <use xlink:href="#DejaVuSans-5f" transform="translate(282.128906 0)"/>
      <use xlink:href="#DejaVuSans-73" transform="translate(332.128906 0)"/>
      <use xlink:href="#DejaVuSans-6b" transform="translate(384.228516 0)"/>
      <use xlink:href="#DejaVuSans-65" transform="translate(438.513672 0)"/>
      <use xlink:href="#DejaVuSans-77" transform="translate(500.037109 0)"/>
     </g>
    </g>
   </g>
   <g id="matplotlib.axis_8">
    <g id="ytick_17">
     <g id="line2d_43">
      <g>
       <use xlink:href="#m83ad8a2216" x="595.95874" y="245.93875" style="stroke: #000000; stroke-width: 0.8"/>
      </g>
     </g>
     <g id="text_35">
      <!-- 0.00 -->
      <g transform="translate(566.693115 249.737969) scale(0.1 -0.1)">
       <defs>
        <path id="DejaVuSans-2e" d="M 684 794 
L 1344 794 
L 1344 0 
L 684 0 
L 684 794 
z
" transform="scale(0.015625)"/>
       </defs>
       <use xlink:href="#DejaVuSans-30"/>
       <use xlink:href="#DejaVuSans-2e" transform="translate(63.623047 0)"/>
       <use xlink:href="#DejaVuSans-30" transform="translate(95.410156 0)"/>
       <use xlink:href="#DejaVuSans-30" transform="translate(159.033203 0)"/>
      </g>
     </g>
    </g>
    <g id="ytick_18">
     <g id="line2d_44">
      <g>
       <use xlink:href="#m83ad8a2216" x="595.95874" y="198.193035" style="stroke: #000000; stroke-width: 0.8"/>
      </g>
     </g>
     <g id="text_36">
      <!-- 0.02 -->
      <g transform="translate(566.693115 201.992254) scale(0.1 -0.1)">
       <use xlink:href="#DejaVuSans-30"/>
       <use xlink:href="#DejaVuSans-2e" transform="translate(63.623047 0)"/>
       <use xlink:href="#DejaVuSans-30" transform="translate(95.410156 0)"/>
       <use xlink:href="#DejaVuSans-32" transform="translate(159.033203 0)"/>
      </g>
     </g>
    </g>
    <g id="ytick_19">
     <g id="line2d_45">
      <g>
       <use xlink:href="#m83ad8a2216" x="595.95874" y="150.44732" style="stroke: #000000; stroke-width: 0.8"/>
      </g>
     </g>
     <g id="text_37">
      <!-- 0.04 -->
      <g transform="translate(566.693115 154.246539) scale(0.1 -0.1)">
       <use xlink:href="#DejaVuSans-30"/>
       <use xlink:href="#DejaVuSans-2e" transform="translate(63.623047 0)"/>
       <use xlink:href="#DejaVuSans-30" transform="translate(95.410156 0)"/>
       <use xlink:href="#DejaVuSans-34" transform="translate(159.033203 0)"/>
      </g>
     </g>
    </g>
    <g id="ytick_20">
     <g id="line2d_46">
      <g>
       <use xlink:href="#m83ad8a2216" x="595.95874" y="102.701605" style="stroke: #000000; stroke-width: 0.8"/>
      </g>
     </g>
     <g id="text_38">
      <!-- 0.06 -->
      <g transform="translate(566.693115 106.500824) scale(0.1 -0.1)">
       <use xlink:href="#DejaVuSans-30"/>
       <use xlink:href="#DejaVuSans-2e" transform="translate(63.623047 0)"/>
       <use xlink:href="#DejaVuSans-30" transform="translate(95.410156 0)"/>
       <use xlink:href="#DejaVuSans-36" transform="translate(159.033203 0)"/>
      </g>
     </g>
    </g>
    <g id="ytick_21">
     <g id="line2d_47">
      <g>
       <use xlink:href="#m83ad8a2216" x="595.95874" y="54.95589" style="stroke: #000000; stroke-width: 0.8"/>
      </g>
     </g>
     <g id="text_39">
      <!-- 0.08 -->
      <g transform="translate(566.693115 58.755109) scale(0.1 -0.1)">
       <use xlink:href="#DejaVuSans-30"/>
       <use xlink:href="#DejaVuSans-2e" transform="translate(63.623047 0)"/>
       <use xlink:href="#DejaVuSans-30" transform="translate(95.410156 0)"/>
       <use xlink:href="#DejaVuSans-38" transform="translate(159.033203 0)"/>
      </g>
     </g>
    </g>
    <g id="text_40">
     <!-- Density -->
     <g transform="translate(560.613427 155.417969) rotate(-90) scale(0.1 -0.1)">
      <defs>
       <path id="DejaVuSans-44" d="M 1259 4147 
L 1259 519 
L 2022 519 
Q 2988 519 3436 956 
Q 3884 1394 3884 2338 
Q 3884 3275 3436 3711 
Q 2988 4147 2022 4147 
L 1259 4147 
z
M 628 4666 
L 1925 4666 
Q 3281 4666 3915 4102 
Q 4550 3538 4550 2338 
Q 4550 1131 3912 565 
Q 3275 0 1925 0 
L 628 0 
L 628 4666 
z
" transform="scale(0.015625)"/>
      </defs>
      <use xlink:href="#DejaVuSans-44"/>
      <use xlink:href="#DejaVuSans-65" transform="translate(77.001953 0)"/>
      <use xlink:href="#DejaVuSans-6e" transform="translate(138.525391 0)"/>
      <use xlink:href="#DejaVuSans-73" transform="translate(201.904297 0)"/>
      <use xlink:href="#DejaVuSans-69" transform="translate(254.003906 0)"/>
      <use xlink:href="#DejaVuSans-74" transform="translate(281.787109 0)"/>
      <use xlink:href="#DejaVuSans-79" transform="translate(320.996094 0)"/>
     </g>
    </g>
   </g>
   <g id="patch_21">
    <path d="M 595.95874 245.93875 
L 595.95874 26.88 
" style="fill: none; stroke: #000000; stroke-width: 0.8; stroke-linejoin: miter; stroke-linecap: square"/>
   </g>
   <g id="patch_22">
    <path d="M 851.243733 245.93875 
L 851.243733 26.88 
" style="fill: none; stroke: #000000; stroke-width: 0.8; stroke-linejoin: miter; stroke-linecap: square"/>
   </g>
   <g id="patch_23">
    <path d="M 595.95874 245.93875 
L 851.243733 245.93875 
" style="fill: none; stroke: #000000; stroke-width: 0.8; stroke-linejoin: miter; stroke-linecap: square"/>
   </g>
   <g id="patch_24">
    <path d="M 595.95874 26.88 
L 851.243733 26.88 
" style="fill: none; stroke: #000000; stroke-width: 0.8; stroke-linejoin: miter; stroke-linecap: square"/>
   </g>
   <g id="text_41">
    <!-- Gene Frequency Skewness Distribution -->
    <g transform="translate(606.636861 20.88) scale(0.12 -0.12)">
     <defs>
      <path id="DejaVuSans-47" d="M 3809 666 
L 3809 1919 
L 2778 1919 
L 2778 2438 
L 4434 2438 
L 4434 434 
Q 4069 175 3628 42 
Q 3188 -91 2688 -91 
Q 1594 -91 976 548 
Q 359 1188 359 2328 
Q 359 3472 976 4111 
Q 1594 4750 2688 4750 
Q 3144 4750 3555 4637 
Q 3966 4525 4313 4306 
L 4313 3634 
Q 3963 3931 3569 4081 
Q 3175 4231 2741 4231 
Q 1884 4231 1454 3753 
Q 1025 3275 1025 2328 
Q 1025 1384 1454 906 
Q 1884 428 2741 428 
Q 3075 428 3337 486 
Q 3600 544 3809 666 
z
" transform="scale(0.015625)"/>
      <path id="DejaVuSans-46" d="M 628 4666 
L 3309 4666 
L 3309 4134 
L 1259 4134 
L 1259 2759 
L 3109 2759 
L 3109 2228 
L 1259 2228 
L 1259 0 
L 628 0 
L 628 4666 
z
" transform="scale(0.015625)"/>
      <path id="DejaVuSans-71" d="M 947 1747 
Q 947 1113 1208 752 
Q 1469 391 1925 391 
Q 2381 391 2643 752 
Q 2906 1113 2906 1747 
Q 2906 2381 2643 2742 
Q 2381 3103 1925 3103 
Q 1469 3103 1208 2742 
Q 947 2381 947 1747 
z
M 2906 525 
Q 2725 213 2448 61 
Q 2172 -91 1784 -91 
Q 1150 -91 751 415 
Q 353 922 353 1747 
Q 353 2572 751 3078 
Q 1150 3584 1784 3584 
Q 2172 3584 2448 3432 
Q 2725 3281 2906 2969 
L 2906 3500 
L 3481 3500 
L 3481 -1331 
L 2906 -1331 
L 2906 525 
z
" transform="scale(0.015625)"/>
      <path id="DejaVuSans-53" d="M 3425 4513 
L 3425 3897 
Q 3066 4069 2747 4153 
Q 2428 4238 2131 4238 
Q 1616 4238 1336 4038 
Q 1056 3838 1056 3469 
Q 1056 3159 1242 3001 
Q 1428 2844 1947 2747 
L 2328 2669 
Q 3034 2534 3370 2195 
Q 3706 1856 3706 1288 
Q 3706 609 3251 259 
Q 2797 -91 1919 -91 
Q 1588 -91 1214 -16 
Q 841 59 441 206 
L 441 856 
Q 825 641 1194 531 
Q 1563 422 1919 422 
Q 2459 422 2753 634 
Q 3047 847 3047 1241 
Q 3047 1584 2836 1778 
Q 2625 1972 2144 2069 
L 1759 2144 
Q 1053 2284 737 2584 
Q 422 2884 422 3419 
Q 422 4038 858 4394 
Q 1294 4750 2059 4750 
Q 2388 4750 2728 4690 
Q 3069 4631 3425 4513 
z
" transform="scale(0.015625)"/>
      <path id="DejaVuSans-62" d="M 3116 1747 
Q 3116 2381 2855 2742 
Q 2594 3103 2138 3103 
Q 1681 3103 1420 2742 
Q 1159 2381 1159 1747 
Q 1159 1113 1420 752 
Q 1681 391 2138 391 
Q 2594 391 2855 752 
Q 3116 1113 3116 1747 
z
M 1159 2969 
Q 1341 3281 1617 3432 
Q 1894 3584 2278 3584 
Q 2916 3584 3314 3078 
Q 3713 2572 3713 1747 
Q 3713 922 3314 415 
Q 2916 -91 2278 -91 
Q 1894 -91 1617 61 
Q 1341 213 1159 525 
L 1159 0 
L 581 0 
L 581 4863 
L 1159 4863 
L 1159 2969 
z
" transform="scale(0.015625)"/>
     </defs>
     <use xlink:href="#DejaVuSans-47"/>
     <use xlink:href="#DejaVuSans-65" transform="translate(77.490234 0)"/>
     <use xlink:href="#DejaVuSans-6e" transform="translate(139.013672 0)"/>
     <use xlink:href="#DejaVuSans-65" transform="translate(202.392578 0)"/>
     <use xlink:href="#DejaVuSans-20" transform="translate(263.916016 0)"/>
     <use xlink:href="#DejaVuSans-46" transform="translate(295.703125 0)"/>
     <use xlink:href="#DejaVuSans-72" transform="translate(345.972656 0)"/>
     <use xlink:href="#DejaVuSans-65" transform="translate(384.835938 0)"/>
     <use xlink:href="#DejaVuSans-71" transform="translate(446.359375 0)"/>
     <use xlink:href="#DejaVuSans-75" transform="translate(509.835938 0)"/>
     <use xlink:href="#DejaVuSans-65" transform="translate(573.214844 0)"/>
     <use xlink:href="#DejaVuSans-6e" transform="translate(634.738281 0)"/>
     <use xlink:href="#DejaVuSans-63" transform="translate(698.117188 0)"/>
     <use xlink:href="#DejaVuSans-79" transform="translate(753.097656 0)"/>
     <use xlink:href="#DejaVuSans-20" transform="translate(812.277344 0)"/>
     <use xlink:href="#DejaVuSans-53" transform="translate(844.064453 0)"/>
     <use xlink:href="#DejaVuSans-6b" transform="translate(907.541016 0)"/>
     <use xlink:href="#DejaVuSans-65" transform="translate(961.826172 0)"/>
     <use xlink:href="#DejaVuSans-77" transform="translate(1023.349609 0)"/>
     <use xlink:href="#DejaVuSans-6e" transform="translate(1105.136719 0)"/>
     <use xlink:href="#DejaVuSans-65" transform="translate(1168.515625 0)"/>
     <use xlink:href="#DejaVuSans-73" transform="translate(1230.039062 0)"/>
     <use xlink:href="#DejaVuSans-73" transform="translate(1282.138672 0)"/>
     <use xlink:href="#DejaVuSans-20" transform="translate(1334.238281 0)"/>
     <use xlink:href="#DejaVuSans-44" transform="translate(1366.025391 0)"/>
     <use xlink:href="#DejaVuSans-69" transform="translate(1443.027344 0)"/>
     <use xlink:href="#DejaVuSans-73" transform="translate(1470.810547 0)"/>
     <use xlink:href="#DejaVuSans-74" transform="translate(1522.910156 0)"/>
     <use xlink:href="#DejaVuSans-72" transform="translate(1562.119141 0)"/>
     <use xlink:href="#DejaVuSans-69" transform="translate(1603.232422 0)"/>
     <use xlink:href="#DejaVuSans-62" transform="translate(1631.015625 0)"/>
     <use xlink:href="#DejaVuSans-75" transform="translate(1694.492188 0)"/>
     <use xlink:href="#DejaVuSans-74" transform="translate(1757.871094 0)"/>
     <use xlink:href="#DejaVuSans-69" transform="translate(1797.080078 0)"/>
     <use xlink:href="#DejaVuSans-6f" transform="translate(1824.863281 0)"/>
     <use xlink:href="#DejaVuSans-6e" transform="translate(1886.044922 0)"/>
    </g>
   </g>
   <g id="legend_1">
    <g id="patch_25">
     <path d="M 790.66717 64.23625 
L 844.243733 64.23625 
Q 846.243733 64.23625 846.243733 62.23625 
L 846.243733 33.88 
Q 846.243733 31.88 844.243733 31.88 
L 790.66717 31.88 
Q 788.66717 31.88 788.66717 33.88 
L 788.66717 62.23625 
Q 788.66717 64.23625 790.66717 64.23625 
z
" style="fill: #ffffff; opacity: 0.8; stroke: #cccccc; stroke-linejoin: miter"/>
    </g>
    <g id="text_42">
     <!-- dataset -->
     <g transform="translate(798.551545 43.478438) scale(0.1 -0.1)">
      <use xlink:href="#DejaVuSans-64"/>
      <use xlink:href="#DejaVuSans-61" transform="translate(63.476562 0)"/>
      <use xlink:href="#DejaVuSans-74" transform="translate(124.755859 0)"/>
      <use xlink:href="#DejaVuSans-61" transform="translate(163.964844 0)"/>
      <use xlink:href="#DejaVuSans-73" transform="translate(225.244141 0)"/>
      <use xlink:href="#DejaVuSans-65" transform="translate(277.34375 0)"/>
      <use xlink:href="#DejaVuSans-74" transform="translate(338.867188 0)"/>
     </g>
    </g>
    <g id="patch_26">
     <path d="M 792.66717 58.156563 
L 812.66717 58.156563 
L 812.66717 51.156563 
L 792.66717 51.156563 
z
" style="fill: #1f77b4; fill-opacity: 0.25; stroke: #1f77b4; stroke-linejoin: miter"/>
    </g>
    <g id="text_43">
     <!-- AMY -->
     <g transform="translate(820.66717 58.156563) scale(0.1 -0.1)">
      <use xlink:href="#DejaVuSans-41"/>
      <use xlink:href="#DejaVuSans-4d" transform="translate(68.408203 0)"/>
      <use xlink:href="#DejaVuSans-59" transform="translate(154.6875 0)"/>
     </g>
    </g>
   </g>
  </g>
 </g>
 <defs>
  <clipPath id="p6d2d37a411">
   <rect x="50.97125" y="26.88" width="127.642497" height="219.05875"/>
  </clipPath>
  <clipPath id="p743ac0cb6b">
   <rect x="232.633747" y="26.88" width="127.642497" height="219.05875"/>
  </clipPath>
  <clipPath id="p254fdc3140">
   <rect x="414.296243" y="26.88" width="127.642497" height="219.05875"/>
  </clipPath>
  <clipPath id="p52f45fbace">
   <rect x="595.95874" y="26.88" width="255.284993" height="219.05875"/>
  </clipPath>
 </defs>
</svg>
